<svg id="DNA_2" xmlns="http://www.w3.org/2000/svg" xmlns:xlink="http://www.w3.org/1999/xlink" width="128.347" height="108.599" viewBox="0 0 128.347 108.599">
  <defs>
    <clipPath id="clip-path">
      <rect id="사각형_5829" data-name="사각형 5829" width="128.347" height="108.599" fill="none"/>
    </clipPath>
  </defs>
  <g id="그룹_11153" data-name="그룹 11153">
    <g id="그룹_11152" data-name="그룹 11152" transform="translate(0)" clip-path="url(#clip-path)">
      <path id="패스_20584" data-name="패스 20584" d="M320.674,217.57a5.259,5.259,0,1,0,5.368,5.255,4.981,4.981,0,0,0-5.368-5.255" transform="translate(-258.114 -173.119)" fill="#e5661c"/>
      <path id="패스_20585" data-name="패스 20585" d="M311.274,164.52l-64.242,108.6H375.379Zm0,12.107L358.472,258H263.981Zm-35.509,92.538H274.3l-3.846-4.458v4.458h-1.738v-6.957h1.594l3.716,4.253v-4.253h1.734Zm22.8,0h-1.731v-6.957h1.731Zm27.776,0-2.757-3.266v3.266h-1.735v-6.957h1.735v3.153h.022l2.193-3.153h1.907l-2.267,3.265,3.074,3.693Zm28.068,0H349.28v-6.957h5.058v1.275h-3.323v1.46h3.173v1.274h-3.173v1.675h3.4Z" transform="translate(-247.031 -164.521)" fill="#070303"/>
      <path id="패스_20586" data-name="패스 20586" d="M314.552,178.969l-47.293,81.37h94.489Zm-16.857,78.072a13.9,13.9,0,0,1,0-27.8,13.745,13.745,0,0,1,13.629,11.268h-8.906a5.557,5.557,0,0,0-4.615-2.572,5.258,5.258,0,1,0,0,10.515,5.16,5.16,0,0,0,4.722-3h8.909a14.061,14.061,0,0,1-13.739,11.592m1.223-40.364a13.787,13.787,0,0,1,13.844-13.734,14.446,14.446,0,0,1,5.582,1.18v-1.073h8.368v23.716h-4.4a13.892,13.892,0,0,1-23.395-10.088m29.422,40.259a13.846,13.846,0,0,1,0-27.693,14.164,14.164,0,0,1,9.338,3.541l-6.119,6.117a5.4,5.4,0,0,0-3.113-1.073,5.339,5.339,0,0,0-5.257,5.261,5.265,5.265,0,0,0,5.257,5.257,4.936,4.936,0,0,0,4.616-2.789h-1.825v-4.935h10.948v2.467a13.813,13.813,0,0,1-13.844,13.848" transform="translate(-250.309 -166.863)" fill="#e5661c"/>
      <path id="패스_20587" data-name="패스 20587" d="M320.674,217.57a5.259,5.259,0,1,0,5.368,5.255,4.981,4.981,0,0,0-5.368-5.255" transform="translate(-258.114 -173.119)" fill="#e5661c"/>
    </g>
  </g>
</svg>
