<svg id="DNA_11" xmlns="http://www.w3.org/2000/svg" xmlns:xlink="http://www.w3.org/1999/xlink" width="115.271" height="77.681" viewBox="0 0 115.271 77.681">
  <defs>
    <clipPath id="clip-path">
      <rect id="사각형_5823" data-name="사각형 5823" width="115.27" height="77.681" fill="none"/>
    </clipPath>
  </defs>
  <g id="그룹_11142" data-name="그룹 11142" clip-path="url(#clip-path)">
    <path id="패스_20547" data-name="패스 20547" d="M55.953,256.694a2.513,2.513,0,0,0-1.779-.728H48.6a2.511,2.511,0,0,0-2.52,2.494v5.131h1.873v-2.358H54.82v2.358h1.874V258.46a2.464,2.464,0,0,0-.741-1.766m-8,2.753v-1.064a.712.712,0,0,1,.187-.484.622.622,0,0,1,.46-.2h5.576a.618.618,0,0,1,.457.2.706.706,0,0,1,.189.484v1.064Z" transform="translate(-9.861 -197.431)" fill="#002a58"/>
    <rect id="사각형_5822" data-name="사각형 5822" width="1.871" height="7.624" transform="translate(53.552 58.535)" fill="#002a58"/>
    <path id="패스_20548" data-name="패스 20548" d="M85.165,261.145l2.312,2.448H85.109l-2.257-2.364H78v2.364H76.134v-7.626h8.193a2.651,2.651,0,0,1,.838,5.177m-1.011-1.661a.874.874,0,1,0,0-1.748H77.931v1.748Z" transform="translate(-13.759 -197.432)" fill="#002a58"/>
    <path id="패스_20549" data-name="패스 20549" d="M105.4,206.964a11.932,11.932,0,0,1-8.443-3.459,11.717,11.717,0,0,1-1.566-14.79c-4.86-1.418-10.224-1.179-15.874-1.39H37.792c-21.009,1.285-30.024,13.421-30.024,34.433,0,2.427.1,10.118.1,10.118H113.478s.627-7.407.627-10.118a45.251,45.251,0,0,0-2.931-16.273,11.946,11.946,0,0,1-5.769,1.479" transform="translate(-4.893 -180.543)" fill="#f4a650"/>
    <path id="패스_20550" data-name="패스 20550" d="M109.85,208.323a40.529,40.529,0,0,1-6.1,37.389c-.066.091-5.929,7.845-15.544,7.845H32.329c-9.61,0-15.473-7.754-15.533-7.833a40.543,40.543,0,0,1-.01-48.96c.07-.091,5.933-7.843,15.543-7.843H88.2a17.607,17.607,0,0,1,3.047.268,14.574,14.574,0,0,1,2.166-3.71,22.115,22.115,0,0,0-5.213-.62H32.329c-11.745,0-18.564,9.115-18.851,9.5a44.568,44.568,0,0,0,.014,53.77c.273.374,7.092,9.486,18.837,9.486H88.2c11.743,0,18.568-9.112,18.851-9.5a44.52,44.52,0,0,0,6.478-41.684,14.65,14.65,0,0,1-3.681,1.889" transform="translate(-4.464 -179.936)" fill="#002a58"/>
    <path id="패스_20551" data-name="패스 20551" d="M109.733,202.2a12.021,12.021,0,0,0,14.212,1.979,11.8,11.8,0,0,0,6.167-10.335,11.668,11.668,0,0,0-3.5-8.352,11.975,11.975,0,0,0-18.448,1.917,11.721,11.721,0,0,0,1.567,14.791m17.522-11.332-8.8,3.728-4.165,1.763c-1.425.6-3.671,1.284-4.608-.2-.521-.825-.191-2.109.58-3.28a16.551,16.551,0,0,1,1.751-2.121c-.355.561-1.334,2.439-.045,3.371a3.067,3.067,0,0,0,2.484.115l3.028-.8Z" transform="translate(-17.663 -179.242)" fill="#d20c22"/>
    <path id="패스_20552" data-name="패스 20552" d="M103,192.936a14.444,14.444,0,0,0,4.323,10.331,14.738,14.738,0,0,0,10.436,4.279,14.894,14.894,0,0,0,4.874-.829,14.614,14.614,0,0,0,3.683-1.89,14.973,14.973,0,0,0,1.881-1.56,14.506,14.506,0,0,0,0-20.659,14.8,14.8,0,0,0-24.165,4.975A14.4,14.4,0,0,0,103,192.936m14.759-11.812a11.907,11.907,0,0,1,8.438,3.461,11.666,11.666,0,0,1,3.5,8.351,11.966,11.966,0,0,1-20.379,8.356,11.73,11.73,0,0,1,0-16.707,11.925,11.925,0,0,1,8.443-3.461" transform="translate(-17.243 -178.33)" fill="#002a58"/>
    <path id="패스_20553" data-name="패스 20553" d="M32.862,202.58V209.8H47.147L31.5,228.994v6.645H57.314V228.37H42l15.4-18.873V202.58Z" transform="translate(-7.97 -184.296)" fill="#002a58"/>
    <path id="패스_20554" data-name="패스 20554" d="M95.922,216.6c-.4-.878-2.029-3.7-6.479-3.7a8.834,8.834,0,0,0-6.374,2.575,7.167,7.167,0,0,0-6.035-2.575,7.508,7.508,0,0,0-5.644,2.278v-1.642H64.15v24.645h7.24V224.2c0-1.8.1-3.353,1.258-4.216a2.589,2.589,0,0,1,1.448-.452,2.55,2.55,0,0,1,2.085,1.021,6.529,6.529,0,0,1,.539,3.1v14.531h7.244V224.784c0-2.492,0-3.74,1.039-4.648a2.768,2.768,0,0,1,1.75-.608,2.306,2.306,0,0,1,2.312,1.794,19.809,19.809,0,0,1,.231,3.918v12.938h7.242V222.239c0-2.6-.044-4.281-.616-5.642" transform="translate(-12.205 -186.835)" fill="#002a58"/>
  </g>
</svg>
