<svg id="DNA_10" xmlns="http://www.w3.org/2000/svg" xmlns:xlink="http://www.w3.org/1999/xlink" width="119.488" height="67.151" viewBox="0 0 119.488 67.151">
  <defs>
    <clipPath id="clip-path">
      <rect id="사각형_5832" data-name="사각형 5832" width="29.784" height="36.741" fill="none"/>
    </clipPath>
    <clipPath id="clip-path-2">
      <rect id="사각형_5833" data-name="사각형 5833" width="52.771" height="13.221" fill="none"/>
    </clipPath>
    <clipPath id="clip-path-3">
      <rect id="사각형_5834" data-name="사각형 5834" width="48.751" height="11.899" fill="none"/>
    </clipPath>
    <clipPath id="clip-path-4">
      <rect id="사각형_5835" data-name="사각형 5835" width="31.671" height="29.024" fill="none"/>
    </clipPath>
    <clipPath id="clip-path-5">
      <rect id="사각형_5836" data-name="사각형 5836" width="27.644" height="34.371" fill="none"/>
    </clipPath>
    <clipPath id="clip-path-6">
      <rect id="사각형_5837" data-name="사각형 5837" width="27.465" height="18.519" fill="none"/>
    </clipPath>
    <clipPath id="clip-path-7">
      <rect id="사각형_5840" data-name="사각형 5840" width="9.966" height="32.959" fill="none"/>
    </clipPath>
    <clipPath id="clip-path-8">
      <rect id="사각형_5841" data-name="사각형 5841" width="26.578" height="20.336" fill="none"/>
    </clipPath>
  </defs>
  <g id="그룹_11157" data-name="그룹 11157" transform="translate(1.716 2.028)" style="mix-blend-mode: multiply;isolation: isolate">
    <g id="그룹_11156" data-name="그룹 11156" transform="translate(0 0)">
      <g id="그룹_11155" data-name="그룹 11155" clip-path="url(#clip-path)">
        <path id="패스_20597" data-name="패스 20597" d="M18.285,40.575c5.985,0,10.2-2.431,12.536-5.5a11.642,11.642,0,0,0,2.046-7.2V3.834h-11.1v22.54a3.942,3.942,0,0,1-4.035,4.084,3.728,3.728,0,0,1-4.069-3.964V23.6H3.082v2.507c0,4.1,1.023,7.4,3.043,9.813,2.1,2.5,6.192,4.653,12.16,4.653" transform="translate(-3.082 -3.834)"/>
      </g>
    </g>
  </g>
  <g id="그룹_11160" data-name="그룹 11160" transform="translate(31.5 8.353)" style="mix-blend-mode: multiply;isolation: isolate">
    <g id="그룹_11159" data-name="그룹 11159" transform="translate(0 0)">
      <g id="그룹_11158" data-name="그룹 11158" clip-path="url(#clip-path-2)">
        <path id="패스_20598" data-name="패스 20598" d="M76.931,28.417c2.984,0,5.642-.09,7.9-.267a60.136,60.136,0,0,0,7.028-.986c.172-.033.34-.067.5-.1v1.085h17V15.2H90.433V19.33A3.734,3.734,0,0,1,89.151,22.3c-1.571,1.286-2.371,1.912-6.7,1.912-3.245,0-6.079-.411-7.138-1.255a2.92,2.92,0,0,1-.974-2.418V15.2H56.588v7.739c0,1.471.826,2.562,2.522,3.334,3.087,1.426,9.082,2.148,17.821,2.148" transform="translate(-56.588 -15.197)"/>
      </g>
    </g>
  </g>
  <g id="그룹_11163" data-name="그룹 11163" transform="translate(51.193 21.008)" style="mix-blend-mode: multiply;isolation: isolate">
    <g id="그룹_11162" data-name="그룹 11162" transform="translate(0 0)">
      <g id="그룹_11161" data-name="그룹 11161" clip-path="url(#clip-path-3)">
        <path id="패스_20599" data-name="패스 20599" d="M140.716,45.956c0-.878-1.442-1.621-4.3-2.211a90.957,90.957,0,0,0-12.436-1.256c-10.108-.469-12.73-.669-13.417-.748-.862-.1-1.229-.228-1.229-.444,0-.1.132-.259,1.282-.438a39.531,39.531,0,0,1,5.35-.229,29.609,29.609,0,0,1,6.363.459,1.752,1.752,0,0,1,1.16.708l.131.252h15.839l-.14-.31c-.624-1.39-3.13-2.389-7.447-2.967a126.182,126.182,0,0,0-16.113-.842,91.273,91.273,0,0,0-16.347,1.136c-3.931.76-5.923,1.685-5.923,2.748,0,.915,1.332,1.632,3.951,2.128a104.8,104.8,0,0,0,12.689,1.191c10.193.51,12.758.724,13.379.807.845.111,1.221.258,1.221.474,0,.146-.178.334-1.561.481-1.335.143-3.219.214-5.6.214a44.984,44.984,0,0,1-8.128-.469,2.121,2.121,0,0,1-1.457-.9l-.141-.249H91.965v.283c0,1.176,2.061,2.158,6.126,2.918,4.017.751,10.227,1.133,18.458,1.133a112.239,112.239,0,0,0,18.115-1.07c4.015-.721,6.051-1.665,6.051-2.8" transform="translate(-91.965 -37.932)"/>
      </g>
    </g>
  </g>
  <g id="그룹_11166" data-name="그룹 11166" transform="translate(87.817 7.062)" style="mix-blend-mode: multiply;isolation: isolate">
    <g id="그룹_11165" data-name="그룹 11165" transform="translate(0 0)">
      <g id="그룹_11164" data-name="그룹 11164" clip-path="url(#clip-path-4)">
        <path id="패스_20600" data-name="패스 20600" d="M157.762,12.877v6.041h11.207V41.9h9.307V18.919h11.156V12.877Z" transform="translate(-157.762 -12.877)"/>
      </g>
    </g>
  </g>
  <g id="그룹_11169" data-name="그룹 11169" transform="translate(19.482 25.436)" style="mix-blend-mode: multiply;isolation: isolate">
    <g id="그룹_11168" data-name="그룹 11168" transform="translate(0 0)">
      <g id="그룹_11167" data-name="그룹 11167" clip-path="url(#clip-path-5)">
        <path id="패스_20601" data-name="패스 20601" d="M54.08,58.118c-.6-.537-3.394-2.894-6.717-2.894-3.748,0-6.7.851-8.951,3.342A11.8,11.8,0,0,0,35,67.512a12.779,12.779,0,0,0,3.39,9.125,11.273,11.273,0,0,0,8.481,3.621c4.389,0,6.776-3.057,7.506-3.788v3.041h8.267V45.887H54.08Zm-7.56,3.723a4.58,4.58,0,0,1,2.861-.928,4.057,4.057,0,0,1,3.629,1.663,7.814,7.814,0,0,1,1.237,4.511A7.748,7.748,0,0,1,53,71.726a4.092,4.092,0,0,1-3.571,1.593,4.318,4.318,0,0,1-3.662-1.6,7.081,7.081,0,0,1-1.32-4.452c0-2.547.7-4.374,2.075-5.43" transform="translate(-34.999 -45.887)"/>
      </g>
    </g>
  </g>
  <g id="그룹_11172" data-name="그룹 11172" transform="translate(46.244 32.907)" style="mix-blend-mode: multiply;isolation: isolate">
    <g id="그룹_11171" data-name="그룹 11171" transform="translate(0 0)">
      <g id="그룹_11170" data-name="그룹 11170" clip-path="url(#clip-path-6)">
        <path id="패스_20602" data-name="패스 20602" d="M96.809,59.308c-4.586,0-8.068.939-10.35,2.789a7.918,7.918,0,0,0,0,12.982c2.282,1.824,5.762,2.748,10.347,2.748s8.066-.925,10.348-2.748a7.917,7.917,0,0,0,0-12.982c-2.281-1.851-5.764-2.789-10.35-2.789m-4.253,5.475a7.79,7.79,0,0,1,8.447,0,5.489,5.489,0,0,1,0,7.6,7.748,7.748,0,0,1-8.443,0,5.456,5.456,0,0,1,0-7.593" transform="translate(-83.077 -59.308)"/>
      </g>
    </g>
  </g>
  <g id="그룹_11175" data-name="그룹 11175" transform="translate(76.013 34.193)" style="mix-blend-mode: multiply;isolation: isolate">
    <g id="그룹_11174" data-name="그룹 11174" transform="translate(0 0)">
      <g id="그룹_11173" data-name="그룹 11173" clip-path="url(#clip-path-7)">
        <rect id="사각형_5838" data-name="사각형 5838" width="9.966" height="6.863" transform="translate(0 0)"/>
        <rect id="사각형_5839" data-name="사각형 5839" width="9.966" height="24.553" transform="translate(0 8.407)"/>
      </g>
    </g>
  </g>
  <g id="그룹_11178" data-name="그룹 11178" transform="translate(84.271 40.462)" style="mix-blend-mode: multiply;isolation: isolate">
    <g id="그룹_11177" data-name="그룹 11177" transform="translate(0 0)">
      <g id="그룹_11176" data-name="그룹 11176" clip-path="url(#clip-path-8)">
        <path id="패스_20603" data-name="패스 20603" d="M170.935,72.88h-13.5v4.273h-6.041v3.666h6.041v8.214c0,2.026.627,4.183,3.317,4.183h17.222V89.478h-5.706A1.387,1.387,0,0,1,170.935,88V80.819h7.033V77.153h-7.033Z" transform="translate(-151.389 -72.88)"/>
      </g>
    </g>
  </g>
  <path id="패스_20604" data-name="패스 20604" d="M15,36.228c-5.121,0-9.442-1.651-11.856-4.531C1.178,29.352.182,26.134.182,22.132V19.773H10.364V22.51A3.749,3.749,0,0,0,14.459,26.5a3.957,3.957,0,0,0,4.061-4.109V.373H29.209v23.5a11.326,11.326,0,0,1-1.987,7c-2.591,3.4-7.045,5.354-12.221,5.354" transform="translate(-0.081 -0.272)" fill="#fff"/>
  <path id="패스_20605" data-name="패스 20605" d="M29.027.394v23.4a11.231,11.231,0,0,1-1.967,6.94c-2.571,3.377-7,5.313-12.141,5.313-7.229,0-10.645-3.142-11.778-4.494C1.191,29.225.2,26.028.2,22.051V19.794h9.98v2.641a3.841,3.841,0,0,0,4.2,4.087,4.052,4.052,0,0,0,4.162-4.21V.394Zm.2-.2H18.337V22.312a3.868,3.868,0,0,1-3.959,4.007,3.659,3.659,0,0,1-3.993-3.89V19.591H0v2.46c0,4.027,1,7.266,2.986,9.631,2.062,2.459,6.077,4.567,11.934,4.567,5.874,0,10.012-2.386,12.3-5.393a11.426,11.426,0,0,0,2.008-7.063Z" transform="translate(0 -0.191)"/>
  <path id="패스_20606" data-name="패스 20606" d="M71.524,25.328c-8.561,0-14.431-.706-17.446-2.1-1.626-.74-2.416-1.78-2.416-3.18V12.556H68.883V17.7a2.962,2.962,0,0,0,.994,2.453c.984.784,3.627,1.253,7.068,1.253,4.317,0,5.092-.635,6.637-1.9a3.757,3.757,0,0,0,1.3-2.994V12.556h18.37V25.062H86.772v-1.09L86.648,24c-.16.035-.323.068-.492.1a59.116,59.116,0,0,1-6.885.966c-2.213.173-4.819.261-7.747.261" transform="translate(-22.904 -5.673)" fill="#fff"/>
  <path id="패스_20607" data-name="패스 20607" d="M103.065,12.577v12.3H86.792V23.766l-.246.054c-.159.035-.322.068-.49.1a58.856,58.856,0,0,1-6.873.965c-2.212.173-4.815.261-7.739.261-8.546,0-14.4-.7-17.405-2.09-1.585-.722-2.356-1.732-2.356-3.087V12.577H68.7v5.042a3.056,3.056,0,0,0,1.032,2.531c1.016.81,3.615,1.275,7.131,1.275,4.353,0,5.138-.642,6.7-1.925a3.853,3.853,0,0,0,1.329-3.07V12.577Zm.2-.2H84.695v4.057a3.664,3.664,0,0,1-1.258,2.916c-1.542,1.262-2.327,1.876-6.573,1.876-3.185,0-5.966-.4-7-1.231a2.865,2.865,0,0,1-.956-2.372V12.374H51.479v7.595c0,1.443.811,2.514,2.475,3.272,3.03,1.4,8.914,2.108,17.489,2.108,2.928,0,5.537-.088,7.755-.262a59.263,59.263,0,0,0,6.9-.968c.169-.033.334-.066.494-.1v1.065h16.678Z" transform="translate(-22.823 -5.592)"/>
  <path id="패스_20608" data-name="패스 20608" d="M111.118,46.308c-8.073,0-14.161-.374-18.1-1.11-4.9-.917-5.929-2.01-5.929-2.764v-.177h15.424l.11.194a2.175,2.175,0,0,0,1.495.928,44.237,44.237,0,0,0,8,.463c2.338,0,4.19-.071,5.5-.211,1.348-.143,1.623-.333,1.623-.573,0-.282-.372-.445-1.286-.566-.61-.081-3.127-.291-13.138-.793a102.859,102.859,0,0,1-12.439-1.167c-2.483-.47-3.8-1.158-3.8-1.988,0-.68.994-1.682,5.731-2.6a89.506,89.506,0,0,1,16.024-1.113,123.764,123.764,0,0,1,15.8.825c4.2.563,6.632,1.523,7.229,2.853l.073.161H118.12l-.1-.193a1.8,1.8,0,0,0-1.2-.746,29.075,29.075,0,0,0-6.271-.454,38.878,38.878,0,0,0-5.266.225c-1.12.174-1.344.332-1.344.529,0,.283.363.434,1.3.537.662.076,3.255.274,13.174.734a89.257,89.257,0,0,1,12.188,1.23c3.418.706,4.136,1.516,4.136,2.071,0,.73-1.016,1.783-5.855,2.652a110.084,110.084,0,0,1-17.759,1.049" transform="translate(-38.612 -15.55)" fill="#fff"/>
  <path id="패스_20609" data-name="패스 20609" d="M110.262,34.854a123.691,123.691,0,0,1,15.787.824c4.1.55,6.576,1.516,7.15,2.794l.008.018H118.1l-.071-.138a1.9,1.9,0,0,0-1.268-.8,29.125,29.125,0,0,0-6.3-.457,38.924,38.924,0,0,0-5.281.227c-1.069.166-1.43.325-1.43.63,0,.4.53.543,1.385.637.665.077,3.261.274,13.181.735a89.048,89.048,0,0,1,12.173,1.229c3.529.729,4.056,1.547,4.056,1.971,0,.691-1,1.695-5.772,2.552a109.929,109.929,0,0,1-17.741,1.047c-8.066,0-14.149-.372-18.078-1.108-4.832-.9-5.846-1.948-5.846-2.665v-.075h15.263l.08.142a2.273,2.273,0,0,0,1.561.978,44.366,44.366,0,0,0,8.022.465c2.342,0,4.2-.071,5.515-.212,1.265-.135,1.714-.311,1.714-.674,0-.4-.549-.558-1.374-.666-.612-.081-3.134-.292-13.146-.793a102.5,102.5,0,0,1-12.426-1.166c-3.068-.581-3.712-1.348-3.712-1.888,0-.525.734-1.547,5.648-2.5a89.411,89.411,0,0,1,16-1.111m0-.2a89.618,89.618,0,0,0-16.043,1.115c-3.858.746-5.813,1.654-5.813,2.7,0,.9,1.307,1.6,3.878,2.088a102.77,102.77,0,0,0,12.453,1.169c10,.5,12.52.711,13.13.792.829.109,1.2.253,1.2.465,0,.144-.174.327-1.533.472-1.309.139-3.159.21-5.494.21a44.17,44.17,0,0,1-7.977-.46,2.078,2.078,0,0,1-1.429-.88l-.139-.245H86.909v.278c0,1.154,2.022,2.117,6.012,2.864,3.942.738,10.036,1.112,18.116,1.112a110.164,110.164,0,0,0,17.777-1.05c3.941-.708,5.938-1.634,5.938-2.752,0-.862-1.415-1.591-4.218-2.17a89.168,89.168,0,0,0-12.2-1.232c-9.921-.461-12.493-.656-13.168-.734-.846-.094-1.206-.224-1.206-.436,0-.1.131-.254,1.259-.429a38.758,38.758,0,0,1,5.25-.224,29.057,29.057,0,0,1,6.245.45,1.717,1.717,0,0,1,1.138.694l.128.248h15.545l-.137-.3c-.613-1.364-3.072-2.344-7.309-2.912a123.882,123.882,0,0,0-15.814-.826" transform="translate(-38.531 -15.469)"/>
  <path id="패스_20610" data-name="패스 20610" d="M162.982,37.529V14.974h-11V9.248h30.878v5.726H171.913V37.529Z" transform="translate(-67.383 -4.207)" fill="#fff"/>
  <path id="패스_20611" data-name="패스 20611" d="M182.679,9.269v5.523H171.731V37.347H163V14.792H152V9.269Zm.2-.2H151.8v5.929h11V37.549h9.133V14.995h10.949Z" transform="translate(-67.302 -4.126)"/>
  <path id="패스_20612" data-name="패스 20612" d="M43.055,75.172a10.963,10.963,0,0,1-8.25-3.521,12.444,12.444,0,0,1-3.3-8.886,11.435,11.435,0,0,1,3.324-8.712c2.026-2.245,4.711-3.246,8.709-3.246a10.621,10.621,0,0,1,6.523,2.814l.169.153V41.643h8.2v32.8h-7.91V71.311l-.173.174c-.07.069-.154.159-.253.266a9.391,9.391,0,0,1-7.042,3.421m2.464-18.985a4.587,4.587,0,0,0-2.869.931c-1.378,1.057-2.077,2.877-2.077,5.41a7.05,7.05,0,0,0,1.316,4.431,4.336,4.336,0,0,0,3.674,1.606,4.113,4.113,0,0,0,3.586-1.605A7.7,7.7,0,0,0,50.4,62.346a7.766,7.766,0,0,0-1.232-4.484,4.076,4.076,0,0,0-3.646-1.676" transform="translate(-13.969 -18.569)" fill="#fff"/>
  <path id="패스_20613" data-name="패스 20613" d="M58.25,41.664V74.257H50.542V70.985l-.346.347c-.07.07-.155.161-.255.268a9.3,9.3,0,0,1-6.968,3.389A10.866,10.866,0,0,1,34.8,71.5a12.344,12.344,0,0,1-3.271-8.815,11.343,11.343,0,0,1,3.3-8.644c2-2.222,4.667-3.212,8.634-3.212,3.195,0,5.938,2.322,6.455,2.788l.338.3V41.664ZM45.482,68.586a4.206,4.206,0,0,0,3.668-1.647,7.8,7.8,0,0,0,1.266-4.674,7.867,7.867,0,0,0-1.25-4.542A4.172,4.172,0,0,0,45.437,56a4.686,4.686,0,0,0-2.931.953c-1.4,1.077-2.116,2.924-2.116,5.49a7.146,7.146,0,0,0,1.338,4.493,4.428,4.428,0,0,0,3.754,1.646m12.97-27.125h-8.4v12c-.586-.527-3.33-2.84-6.591-2.84-3.679,0-6.58.835-8.785,3.28a11.583,11.583,0,0,0-3.35,8.779,12.538,12.538,0,0,0,3.327,8.955,11.063,11.063,0,0,0,8.324,3.554c4.307,0,6.649-3,7.366-3.718v2.984h8.113ZM45.482,68.383a4.237,4.237,0,0,1-3.594-1.568,6.946,6.946,0,0,1-1.3-4.369c0-2.5.685-4.293,2.036-5.329a4.5,4.5,0,0,1,2.808-.911A3.981,3.981,0,0,1,49,57.839a7.666,7.666,0,0,1,1.215,4.426,7.605,7.605,0,0,1-1.227,4.554,4.017,4.017,0,0,1-3.5,1.564" transform="translate(-13.887 -18.488)"/>
  <path id="패스_20614" data-name="패스 20614" d="M92.35,73.782c-4.476,0-7.871-.9-10.091-2.675a7.668,7.668,0,0,1,0-12.581c2.22-1.8,5.616-2.715,10.093-2.715s7.873.913,10.093,2.715a7.668,7.668,0,0,1,0,12.581c-2.22,1.776-5.615,2.675-10.091,2.675M92.328,59.76a6.287,6.287,0,0,0-4.217,1.246,5.455,5.455,0,0,0,0,7.606,7.7,7.7,0,0,0,8.418,0,5.487,5.487,0,0,0,0-7.609,6.239,6.239,0,0,0-4.2-1.245" transform="translate(-35.014 -24.85)" fill="#fff"/>
  <path id="패스_20615" data-name="패스 20615" d="M92.269,55.832c4.453,0,7.828.906,10.029,2.692a7.568,7.568,0,0,1,0,12.424c-2.2,1.76-5.576,2.652-10.028,2.652s-7.825-.892-10.027-2.652a7.568,7.568,0,0,1,0-12.424c2.2-1.786,5.576-2.692,10.029-2.692m-.022,14.053a6.307,6.307,0,0,0,4.268-1.276,5.586,5.586,0,0,0,0-7.762,7.838,7.838,0,0,0-8.552,0,5.554,5.554,0,0,0,0,7.761,6.358,6.358,0,0,0,4.282,1.277m.022-14.256c-4.5,0-7.918.921-10.157,2.738a7.769,7.769,0,0,0,0,12.739c2.239,1.79,5.655,2.7,10.154,2.7s7.916-.908,10.154-2.7a7.769,7.769,0,0,0,0-12.739c-2.239-1.816-5.657-2.738-10.157-2.738m-.022,14.053a6.169,6.169,0,0,1-4.15-1.229A5.355,5.355,0,0,1,88.1,61a7.646,7.646,0,0,1,8.289,0,5.387,5.387,0,0,1,0,7.454,6.123,6.123,0,0,1-4.136,1.227" transform="translate(-34.933 -24.77)"/>
  <rect id="사각형_5842" data-name="사각형 5842" width="9.578" height="6.533" transform="translate(73.017 31.668)" fill="#fff"/>
  <path id="패스_20616" data-name="패스 20616" d="M140.566,63.431h-9.375V57.1h9.375Zm.2-6.533h-9.781v6.735h9.781Z" transform="translate(-58.074 -25.332)"/>
  <rect id="사각형_5843" data-name="사각형 5843" width="9.578" height="23.892" transform="translate(73.017 39.917)" fill="#fff"/>
  <path id="패스_20617" data-name="패스 20617" d="M140.566,95.611h-9.375V71.922h9.375Zm.2-23.892h-9.781v24.1h9.781Z" transform="translate(-58.074 -31.903)"/>
  <path id="패스_20618" data-name="패스 20618" d="M15,36.228c-5.121,0-9.442-1.651-11.856-4.531C1.178,29.352.182,26.134.182,22.132V19.773H10.364V22.51A3.749,3.749,0,0,0,14.459,26.5a3.957,3.957,0,0,0,4.061-4.109V.373H29.209v23.5a11.326,11.326,0,0,1-1.987,7c-2.591,3.4-7.045,5.354-12.221,5.354" transform="translate(-0.081 -0.272)" fill="#fff"/>
  <path id="패스_20619" data-name="패스 20619" d="M29.027.394v23.4a11.231,11.231,0,0,1-1.967,6.94c-2.571,3.377-7,5.313-12.141,5.313-7.229,0-10.645-3.142-11.778-4.494C1.191,29.225.2,26.028.2,22.051V19.794h9.98v2.641a3.841,3.841,0,0,0,4.2,4.087,4.052,4.052,0,0,0,4.162-4.21V.394Zm.2-.2H18.337V22.312a3.868,3.868,0,0,1-3.959,4.007,3.659,3.659,0,0,1-3.993-3.89V19.591H0v2.46c0,4.027,1,7.266,2.986,9.631,2.062,2.459,6.077,4.567,11.934,4.567,5.874,0,10.012-2.386,12.3-5.393a11.426,11.426,0,0,0,2.008-7.063Z" transform="translate(0 -0.191)"/>
  <path id="패스_20620" data-name="패스 20620" d="M71.524,25.328c-8.561,0-14.431-.706-17.446-2.1-1.626-.74-2.416-1.78-2.416-3.18V12.556H68.883V17.7a2.962,2.962,0,0,0,.994,2.453c.984.784,3.627,1.253,7.068,1.253,4.317,0,5.092-.635,6.637-1.9a3.757,3.757,0,0,0,1.3-2.994V12.556h18.37V25.062H86.772v-1.09L86.648,24c-.16.035-.323.068-.492.1a59.116,59.116,0,0,1-6.885.966c-2.213.173-4.819.261-7.747.261" transform="translate(-22.904 -5.673)" fill="#fff"/>
  <path id="패스_20621" data-name="패스 20621" d="M103.065,12.577v12.3H86.792V23.766l-.246.054c-.159.035-.322.068-.49.1a58.856,58.856,0,0,1-6.873.965c-2.212.173-4.815.261-7.739.261-8.546,0-14.4-.7-17.405-2.09-1.585-.722-2.356-1.732-2.356-3.087V12.577H68.7v5.042a3.056,3.056,0,0,0,1.032,2.531c1.016.81,3.615,1.275,7.131,1.275,4.353,0,5.138-.642,6.7-1.925a3.853,3.853,0,0,0,1.329-3.07V12.577Zm.2-.2H84.695v4.057a3.664,3.664,0,0,1-1.258,2.916c-1.542,1.262-2.327,1.876-6.573,1.876-3.185,0-5.966-.4-7-1.231a2.865,2.865,0,0,1-.956-2.372V12.374H51.479v7.595c0,1.443.811,2.514,2.475,3.272,3.03,1.4,8.914,2.108,17.489,2.108,2.928,0,5.537-.088,7.755-.262a59.263,59.263,0,0,0,6.9-.968c.169-.033.334-.066.494-.1v1.065h16.678Z" transform="translate(-22.823 -5.592)"/>
  <path id="패스_20622" data-name="패스 20622" d="M111.118,46.308c-8.073,0-14.161-.374-18.1-1.11-4.9-.917-5.929-2.01-5.929-2.764v-.177h15.424l.11.194a2.175,2.175,0,0,0,1.495.928,44.237,44.237,0,0,0,8,.463c2.338,0,4.19-.071,5.5-.211,1.348-.143,1.623-.333,1.623-.573,0-.282-.372-.445-1.286-.566-.61-.081-3.127-.291-13.138-.793a102.859,102.859,0,0,1-12.439-1.167c-2.483-.47-3.8-1.158-3.8-1.988,0-.68.994-1.682,5.731-2.6a89.506,89.506,0,0,1,16.024-1.113,123.764,123.764,0,0,1,15.8.825c4.2.563,6.632,1.523,7.229,2.853l.073.161H118.12l-.1-.193a1.8,1.8,0,0,0-1.2-.746,29.075,29.075,0,0,0-6.271-.454,38.878,38.878,0,0,0-5.266.225c-1.12.174-1.344.332-1.344.529,0,.283.363.434,1.3.537.662.076,3.255.274,13.174.734a89.257,89.257,0,0,1,12.188,1.23c3.418.706,4.136,1.516,4.136,2.071,0,.73-1.016,1.783-5.855,2.652a110.084,110.084,0,0,1-17.759,1.049" transform="translate(-38.612 -15.55)" fill="#fff"/>
  <path id="패스_20623" data-name="패스 20623" d="M110.262,34.854a123.691,123.691,0,0,1,15.787.824c4.1.55,6.576,1.516,7.15,2.794l.008.018H118.1l-.071-.138a1.9,1.9,0,0,0-1.268-.8,29.125,29.125,0,0,0-6.3-.457,38.924,38.924,0,0,0-5.281.227c-1.069.166-1.43.325-1.43.63,0,.4.53.543,1.385.637.665.077,3.261.274,13.181.735a89.048,89.048,0,0,1,12.173,1.229c3.529.729,4.056,1.547,4.056,1.971,0,.691-1,1.695-5.772,2.552a109.929,109.929,0,0,1-17.741,1.047c-8.066,0-14.149-.372-18.078-1.108-4.832-.9-5.846-1.948-5.846-2.665v-.075h15.263l.08.142a2.273,2.273,0,0,0,1.561.978,44.366,44.366,0,0,0,8.022.465c2.342,0,4.2-.071,5.515-.212,1.265-.135,1.714-.311,1.714-.674,0-.4-.549-.558-1.374-.666-.612-.081-3.134-.292-13.146-.793a102.5,102.5,0,0,1-12.426-1.166c-3.068-.581-3.712-1.348-3.712-1.888,0-.525.734-1.547,5.648-2.5a89.411,89.411,0,0,1,16-1.111m0-.2a89.618,89.618,0,0,0-16.043,1.115c-3.858.746-5.813,1.654-5.813,2.7,0,.9,1.307,1.6,3.878,2.088a102.77,102.77,0,0,0,12.453,1.169c10,.5,12.52.711,13.13.792.829.109,1.2.253,1.2.465,0,.144-.174.327-1.533.472-1.309.139-3.159.21-5.494.21a44.17,44.17,0,0,1-7.977-.46,2.078,2.078,0,0,1-1.429-.88l-.139-.245H86.909v.278c0,1.154,2.022,2.117,6.012,2.864,3.942.738,10.036,1.112,18.116,1.112a110.164,110.164,0,0,0,17.777-1.05c3.941-.708,5.938-1.634,5.938-2.752,0-.862-1.415-1.591-4.218-2.17a89.168,89.168,0,0,0-12.2-1.232c-9.921-.461-12.493-.656-13.168-.734-.846-.094-1.206-.224-1.206-.436,0-.1.131-.254,1.259-.429a38.758,38.758,0,0,1,5.25-.224,29.057,29.057,0,0,1,6.245.45,1.717,1.717,0,0,1,1.138.694l.128.248h15.545l-.137-.3c-.613-1.364-3.072-2.344-7.309-2.912a123.882,123.882,0,0,0-15.814-.826" transform="translate(-38.531 -15.469)"/>
  <path id="패스_20624" data-name="패스 20624" d="M162.982,37.529V14.974h-11V9.248h30.878v5.726H171.913V37.529Z" transform="translate(-67.383 -4.207)" fill="#fff"/>
  <path id="패스_20625" data-name="패스 20625" d="M182.679,9.269v5.523H171.731V37.347H163V14.792H152V9.269Zm.2-.2H151.8v5.929h11V37.549h9.133V14.995h10.949Z" transform="translate(-67.302 -4.126)"/>
  <path id="패스_20626" data-name="패스 20626" d="M43.055,75.172a10.963,10.963,0,0,1-8.25-3.521,12.444,12.444,0,0,1-3.3-8.886,11.435,11.435,0,0,1,3.324-8.712c2.026-2.245,4.711-3.246,8.709-3.246a10.621,10.621,0,0,1,6.523,2.814l.169.153V41.643h8.2v32.8h-7.91V71.311l-.173.174c-.07.069-.154.159-.253.266a9.391,9.391,0,0,1-7.042,3.421m2.464-18.985a4.587,4.587,0,0,0-2.869.931c-1.378,1.057-2.077,2.877-2.077,5.41a7.05,7.05,0,0,0,1.316,4.431,4.336,4.336,0,0,0,3.674,1.606,4.113,4.113,0,0,0,3.586-1.605A7.7,7.7,0,0,0,50.4,62.346a7.766,7.766,0,0,0-1.232-4.484,4.076,4.076,0,0,0-3.646-1.676" transform="translate(-13.969 -18.569)" fill="#fff"/>
  <path id="패스_20627" data-name="패스 20627" d="M58.25,41.664V74.257H50.542V70.985l-.346.347c-.07.07-.155.161-.255.268a9.3,9.3,0,0,1-6.968,3.389A10.866,10.866,0,0,1,34.8,71.5a12.344,12.344,0,0,1-3.271-8.815,11.343,11.343,0,0,1,3.3-8.644c2-2.222,4.667-3.212,8.634-3.212,3.195,0,5.938,2.322,6.455,2.788l.338.3V41.664ZM45.482,68.586a4.206,4.206,0,0,0,3.668-1.647,7.8,7.8,0,0,0,1.266-4.674,7.867,7.867,0,0,0-1.25-4.542A4.172,4.172,0,0,0,45.437,56a4.686,4.686,0,0,0-2.931.953c-1.4,1.077-2.116,2.924-2.116,5.49a7.146,7.146,0,0,0,1.338,4.493,4.428,4.428,0,0,0,3.754,1.646m12.97-27.125h-8.4v12c-.586-.527-3.33-2.84-6.591-2.84-3.679,0-6.58.835-8.785,3.28a11.583,11.583,0,0,0-3.35,8.779,12.538,12.538,0,0,0,3.327,8.955,11.063,11.063,0,0,0,8.324,3.554c4.307,0,6.649-3,7.366-3.718v2.984h8.113ZM45.482,68.383a4.237,4.237,0,0,1-3.594-1.568,6.946,6.946,0,0,1-1.3-4.369c0-2.5.685-4.293,2.036-5.329a4.5,4.5,0,0,1,2.808-.911A3.981,3.981,0,0,1,49,57.839a7.666,7.666,0,0,1,1.215,4.426,7.605,7.605,0,0,1-1.227,4.554,4.017,4.017,0,0,1-3.5,1.564" transform="translate(-13.887 -18.488)"/>
  <path id="패스_20628" data-name="패스 20628" d="M92.35,73.782c-4.476,0-7.871-.9-10.091-2.675a7.668,7.668,0,0,1,0-12.581c2.22-1.8,5.616-2.715,10.093-2.715s7.873.913,10.093,2.715a7.668,7.668,0,0,1,0,12.581c-2.22,1.776-5.615,2.675-10.091,2.675M92.328,59.76a6.287,6.287,0,0,0-4.217,1.246,5.455,5.455,0,0,0,0,7.606,7.7,7.7,0,0,0,8.418,0,5.487,5.487,0,0,0,0-7.609,6.239,6.239,0,0,0-4.2-1.245" transform="translate(-35.014 -24.85)" fill="#fff"/>
  <path id="패스_20629" data-name="패스 20629" d="M92.269,55.832c4.453,0,7.828.906,10.029,2.692a7.568,7.568,0,0,1,0,12.424c-2.2,1.76-5.576,2.652-10.028,2.652s-7.825-.892-10.027-2.652a7.568,7.568,0,0,1,0-12.424c2.2-1.786,5.576-2.692,10.029-2.692m-.022,14.053a6.307,6.307,0,0,0,4.268-1.276,5.586,5.586,0,0,0,0-7.762,7.838,7.838,0,0,0-8.552,0,5.554,5.554,0,0,0,0,7.761,6.358,6.358,0,0,0,4.282,1.277m.022-14.256c-4.5,0-7.918.921-10.157,2.738a7.769,7.769,0,0,0,0,12.739c2.239,1.79,5.655,2.7,10.154,2.7s7.916-.908,10.154-2.7a7.769,7.769,0,0,0,0-12.739c-2.239-1.816-5.657-2.738-10.157-2.738m-.022,14.053a6.169,6.169,0,0,1-4.15-1.229A5.355,5.355,0,0,1,88.1,61a7.646,7.646,0,0,1,8.289,0,5.387,5.387,0,0,1,0,7.454,6.123,6.123,0,0,1-4.136,1.227" transform="translate(-34.933 -24.77)"/>
  <rect id="사각형_5844" data-name="사각형 5844" width="9.578" height="6.533" transform="translate(73.017 31.668)" fill="#fff"/>
  <path id="패스_20630" data-name="패스 20630" d="M140.566,63.431h-9.375V57.1h9.375Zm.2-6.533h-9.781v6.735h9.781Z" transform="translate(-58.074 -25.332)"/>
  <rect id="사각형_5845" data-name="사각형 5845" width="9.578" height="23.892" transform="translate(73.017 39.917)" fill="#fff"/>
  <path id="패스_20631" data-name="패스 20631" d="M140.566,95.611h-9.375V71.922h9.375Zm.2-23.892h-9.781v24.1h9.781Z" transform="translate(-58.074 -31.903)"/>
  <path id="패스_20632" data-name="패스 20632" d="M154.81,87.888c-2.092,0-3.153-1.347-3.153-4V75.723h-5.928V72.328h5.928V68.134h13.051v4.194h6.9v3.395h-6.9v7.152a1.455,1.455,0,0,0,1.4,1.549h5.5v3.465Z" transform="translate(-64.608 -30.314)" fill="#fff"/>
  <path id="패스_20633" data-name="패스 20633" d="M164.525,68.155v4.193h6.9V75.54h-6.9v7.254a1.571,1.571,0,0,0,1.505,1.65h5.4v3.263h-16.7c-2.025,0-3.052-1.313-3.052-3.9V75.54H145.75V72.348h5.928V68.155Zm.2-.2H151.475v4.193h-5.928v3.6h5.928V83.8c0,1.989.615,4.1,3.254,4.1h16.9V84.241h-5.6a1.361,1.361,0,0,1-1.3-1.447V75.743h6.9v-3.6h-6.9Z" transform="translate(-64.528 -30.233)"/>
  <path id="패스_20634" data-name="패스 20634" d="M154.81,87.888c-2.092,0-3.153-1.347-3.153-4V75.723h-5.928V72.328h5.928V68.134h13.051v4.194h6.9v3.395h-6.9v7.152a1.455,1.455,0,0,0,1.4,1.549h5.5v3.465Z" transform="translate(-64.608 -30.314)" fill="#fff"/>
  <path id="패스_20635" data-name="패스 20635" d="M164.525,68.155v4.193h6.9V75.54h-6.9v7.254a1.571,1.571,0,0,0,1.505,1.65h5.4v3.263h-16.7c-2.025,0-3.052-1.313-3.052-3.9V75.54H145.75V72.348h5.928V68.155Zm.2-.2H151.475v4.193h-5.928v3.6h5.928V83.8c0,1.989.615,4.1,3.254,4.1h16.9V84.241h-5.6a1.361,1.361,0,0,1-1.3-1.447V75.743h6.9v-3.6h-6.9Z" transform="translate(-64.528 -30.233)"/>
</svg>
