<svg xmlns="http://www.w3.org/2000/svg" width="90.337" height="158.516" viewBox="0 0 90.337 158.516">
  <g id="DNA_18" transform="translate(0 0)">
    <path id="패스_20555" data-name="패스 20555" d="M86.363,433.644a40.626,40.626,0,1,1-40.626-40.626,40.626,40.626,0,0,1,40.626,40.626" transform="translate(-2.291 -392.693)" fill="#f4e355"/>
    <path id="패스_20556" data-name="패스 20556" d="M65.3,492.426v7.786c-1-.741-1.938-.352-2.873-.149A12.264,12.264,0,0,1,47.8,489.589a20.091,20.091,0,0,0-.338-2.238l-5.983,12.9c-.19-.365-.324-.6-.437-.841q-4.709-10.113-9.424-20.223c-.556-1.186-1.241-2.311-1.889-3.506H37.4c0,.042.019.142-.02.2a2.248,2.248,0,0,0-.073,2.218q.8,1.856,1.6,3.708,1.111,2.547,2.234,5.089c.087.2.19.388.354.723.422-.964.793-1.8,1.154-2.638.977-2.271,1.97-4.535,2.905-6.823a4.738,4.738,0,0,0,.244-1.6c0-.15-.3-.439-.465-.446a35.694,35.694,0,0,1-8.35-1.375c-4.937-1.412-9.729-3.171-13.9-6.332a37.51,37.51,0,0,1-8.544-8.229,53.8,53.8,0,0,1-6.905-12.6,43.411,43.411,0,0,1-2.472-12.212,42.006,42.006,0,0,1,5.205-22.335,35.184,35.184,0,0,1,4.931-6.8c.888-1,1.862-1.924,2.838-2.838.165-.155.543-.082.824-.115-.035.271.034.657-.12.8-1.9,1.727-3.387,3.825-5.112,5.695a20.927,20.927,0,0,0-3.234,4.764A40.425,40.425,0,0,0,6,430.382a40.006,40.006,0,0,0,1.354,13.688,40.773,40.773,0,0,0,6.973,14.078,44.231,44.231,0,0,0,7.477,7.538,40.2,40.2,0,0,0,8.105,4.846,37.951,37.951,0,0,0,18.228,3.416A39.687,39.687,0,0,0,61,471.088,40.156,40.156,0,0,0,72.137,464.3a37.741,37.741,0,0,0,7.927-9.506,39.558,39.558,0,0,0,4.785-11.982,42.666,42.666,0,0,0,.89-11.9,41.778,41.778,0,0,0-2.405-11.279,39.81,39.81,0,0,0-6.883-11.835,37.769,37.769,0,0,0-11.091-9.3,46.649,46.649,0,0,0-7.108-3.194,38.243,38.243,0,0,0-14-2.029c-.529.021-1.058.106-1.583.079-.209-.01-.407-.245-.61-.378.185-.17.364-.481.556-.488a44.25,44.25,0,0,1,12.039.963A41.226,41.226,0,0,1,80.862,412.7a.511.511,0,0,0,.11.164c1.5,1.084,2.06,2.8,2.86,4.333a38.142,38.142,0,0,1,4.143,17.534,40.28,40.28,0,0,1-2.849,15.257,34.775,34.775,0,0,1-5.908,10.362,56.329,56.329,0,0,1-8.689,8.022,37.723,37.723,0,0,1-12.376,5.857c-1.478.431-2.994.733-4.479,1.143-.213.059-.365.385-.518.606-.512.742-1.014,1.492-1.514,2.243a1.848,1.848,0,0,0-.105.379c.489-.37.856-.661,1.236-.932a12.024,12.024,0,0,1,9.624-2.04,3.573,3.573,0,0,0,2.759-.148v7.7a6.982,6.982,0,0,0-7.716-1.862,6.641,6.641,0,0,0-3.9,3.921c1.549,0,2.987.011,4.425,0,1.418-.014,2.867.211,4.22-.547a1.609,1.609,0,0,1,.078.31q0,3.04,0,6.09c-2.842-.606-5.644-.26-8.478-.327,1.123,3.472,6.983,6.329,11.523,1.666" transform="translate(-2.291 -392.429)" fill="#1a1311"/>
    <path id="패스_20557" data-name="패스 20557" d="M50.167,659.185c1.538-1.491,2.11-3.305,2.8-5.072-.564.652-1.084,1.349-1.7,1.946a11.666,11.666,0,0,1-8.106,3.241c-2.272.058-4.547.012-6.82.009a3.36,3.36,0,0,1-.413-.063c.859-1.089.566-2.32.571-3.48.029-6.643.006-13.287,0-19.93v-.7c1.234.778,2.393.354,3.549.11A11.609,11.609,0,0,1,50.3,637.678a12.275,12.275,0,0,1,4.5,11.609c-.035.284-.087.566-.126.85,0,.036.023.078.071.224l7.14-15.822.193-.021,9.55,20.355.186-.023q0-1.163,0-2.325c0-.839-.052-1.683.022-2.515a3.792,3.792,0,0,0-.72-2.464c-2.147-3.394-4.245-6.82-6.377-10.223-.348-.556-.78-1.059-1.239-1.676h7.949c-.565.959-.125,1.721.347,2.489.909,1.479,1.8,2.967,2.775,4.568.33-.523.611-.955.879-1.395.62-1.017,1.23-2.04,1.851-3.057.481-.788.951-1.573.37-2.59H85.7c-.233.3-.425.519-.582.759-1.427,2.175-2.861,4.346-4.268,6.534-1.1,1.708-2.169,3.433-3.233,5.162a1.8,1.8,0,0,0-.285.855c-.048,2.759-.089,5.518-.078,8.276a12.312,12.312,0,0,0,.347,2H66.18a2.734,2.734,0,0,0,.015-3.014.834.834,0,0,0-.852-.569c-2.12.014-4.239,0-6.359-.022a.686.686,0,0,0-.753.484c-.4,1.016-.81,2.017-.038,3.053ZM41.9,647.263h.038c0,2.05,0,4.1,0,6.152,0,.322.026.553.451.545a7.477,7.477,0,0,0,4.157-1.121,6.438,6.438,0,0,0,2.607-7.436,6.876,6.876,0,0,0-6.385-4.9c-.852-.007-.86-.007-.863.879,0,1.961,0,3.923,0,5.885m20.237-.628-.173-.052-1.642,4.143H63.83l-1.7-4.092" transform="translate(-16.104 -500.953)" fill="#1a1311"/>
    <path id="패스_20558" data-name="패스 20558" d="M104.819,589.445v7.429c-2.442-2.314-5.159-2.913-8.18-1.579a6.585,6.585,0,0,0-3.407,3.664c2.954-.155,5.8.414,8.65-.446v6.311c-2.782-.7-5.574-.156-8.521-.39a6.734,6.734,0,0,0,3.777,3.689c2.493,1.033,4.7.487,7.81-1.945v7.66c-1.011-.643-1.944-.284-2.893-.1a11.913,11.913,0,0,1-11.614-3.881,2.783,2.783,0,0,1-.272-.43l-.281.182,1.516,3.843H84.518a7.04,7.04,0,0,0-1.989-6.3,8.3,8.3,0,0,0-4.5-2.539c-.036.346-.093.639-.094.932-.012,1.92-.044,3.841,0,5.759a14.989,14.989,0,0,0,.35,2.132H71.991c.87-1.805.455-3.7.471-5.548.047-5.408.008-10.817-.026-16.226a12.876,12.876,0,0,0-.31-1.925h6.212c-.8,2.339-.25,4.8-.4,7.213a1.377,1.377,0,0,0,.036.328c.007.039.047.071.132.189l.927-1.292c.915-1.272,1.838-2.539,2.743-3.819.558-.789,1.069-1.6.554-2.643h8.7c-1.1,1.315-2.156,2.54-3.163,3.807-1.837,2.313-3.642,4.651-5.48,7.005.966.61,1.934,1.131,2.8,1.791s1.621,1.465,2.372,2.157c-.05-1.129-.157-2.323-.146-3.516a12.179,12.179,0,0,1,8.863-11.356,13.405,13.405,0,0,1,6.1-.172,13.416,13.416,0,0,0,2.446.024" transform="translate(-32.273 -480.616)" fill="#1a1311"/>
    <path id="패스_20559" data-name="패스 20559" d="M31.968,452.837c-.338-.1-.585-.179-.838-.241a3.283,3.283,0,0,1-2.44-2.6,1.321,1.321,0,0,1,.031-.717c.068-.21.223-.493.394-.538a.769.769,0,0,1,.592.289,3.668,3.668,0,0,0,5.556.253c.428-.41.759-.919,1.175-1.341a2.4,2.4,0,0,1,.675-.342c.071.257.281.589.189.76a10.226,10.226,0,0,1-2.636,3.748,1.228,1.228,0,0,0-.478.742,7.536,7.536,0,0,0,.124,3.527,7.74,7.74,0,0,0,1.16,1.959,8.711,8.711,0,0,0,2.816,2.428,8.285,8.285,0,0,0,3.79,1.06,36.826,36.826,0,0,0,5.411-.142,36.971,36.971,0,0,0,4.112-.943,35.037,35.037,0,0,0,6.768-2.376c2.42-1.1,4.907-2.057,7.305-3.2,2.145-1.023,4.255-2.138,6.292-3.358,1.993-1.194,3.873-2.578,5.808-3.869.679-.453,1.382-.868,2.06-1.323s.754-.693.428-1.4c-.668-1.451-.114-2.8.334-4.159.041-.125.367-.286.464-.238a1.068,1.068,0,0,1,.521.526,2.161,2.161,0,0,1,0,.848,2.546,2.546,0,0,0,3.587,2.7,3.711,3.711,0,0,1,1.183-.387.886.886,0,0,1,.745.294.829.829,0,0,1-.19.778,8.059,8.059,0,0,1-3.585,1.6,1.873,1.873,0,0,1-1.035-.115c-.48-.211-.719-.021-1,.327a50.491,50.491,0,0,1-3.352,4.083c-2.131,2.162-4.337,4.262-6.625,6.257-2.02,1.762-4.135,3.431-6.318,4.986-2.578,1.837-5.239,3.562-7.926,5.237a66.767,66.767,0,0,1-11.117,5.658,23.652,23.652,0,0,1-8.018,1.817,9.624,9.624,0,0,1-5.457-1.33,8.413,8.413,0,0,1-3.421-3.983,13.974,13.974,0,0,1-.522-7.856,28.533,28.533,0,0,1,2.755-8.234c.19-.37.413-.722.679-1.183" transform="translate(-12.65 -414.115)" fill="#1a1311"/>
    <path id="패스_20560" data-name="패스 20560" d="M6.109,566.285H0c.766-2.349.334-4.781.383-7.174.095-4.655.083-9.313.07-13.97a19.756,19.756,0,0,0-.343-2.577H6.388a3.684,3.684,0,0,0-.555,2.555c-.009,2.009-.007,4.018-.007,6.027,0,.195.021.39.039.683.612,0,1.2,0,1.789,0,1.081,0,2.163,0,3.245.023.4.008.6-.089.6-.551,0-2.317.049-4.636.024-6.953a10.321,10.321,0,0,0-.35-1.822h6.249c-.833,2.129-.414,4.376-.485,6.575-.106,3.286-.054,6.576-.067,9.865,0,.43,0,.86,0,1.29l.186.046,8.451-18.94c.513,1.079.943,1.967,1.361,2.862q4.519,9.689,9.047,19.375c.426.906,1,1.744,1.536,2.667H29.7a2.633,2.633,0,0,0-.041-3.044,1.026,1.026,0,0,0-.725-.491c-2.162-.037-4.325-.027-6.488,0a.733.733,0,0,0-.553.344c-.445,1.033-.931,2.082-.081,3.237H11.017c.8-2.794.272-5.645.44-8.456.019-.331-.107-.494-.451-.493-1.567.005-3.134,0-4.7.006-.345,0-.508.15-.509.525-.006,2.185-.055,4.37-.03,6.554a10.683,10.683,0,0,0,.343,1.836m21.264-8.514-1.727-4.1-.2,0-1.55,4.094Z" transform="translate(0 -459.193)" fill="#1a1311"/>
    <path id="패스_20561" data-name="패스 20561" d="M36.4,589.4h6.347c-.789,2-.462,4.05-.494,6.053-.088,5.647-.088,11.295-.122,16.943,0,.5,0,1,0,1.716l-11.292-11.68-.24.05q0,1.121,0,2.243,0,2.878-.008,5.757a3.5,3.5,0,0,0,.611,2.658H24.643c.957-1.692.54-3.489.556-5.222.061-6.332.047-12.665.064-19a4.207,4.207,0,0,1,.074-.446l11.351,11.967a5.276,5.276,0,0,0,.086-.6c.015-2.935.044-5.87.018-8.8A7.667,7.667,0,0,0,36.4,589.4" transform="translate(-11.047 -480.314)" fill="#1a1311"/>
    <path id="패스_20562" data-name="패스 20562" d="M120.531,565.8c1.676-1.7,2.278-3.766,3.141-5.686q4.248-9.449,8.451-18.918a1.138,1.138,0,0,1,.142-.164c.106.181.211.331.288.495q4.358,9.286,8.716,18.571c.724,1.535,1.509,3.041,2.293,4.546a9.43,9.43,0,0,0,.807,1.1h-7.787a3.783,3.783,0,0,1,.146-.393c.54-1.083.05-2.017-.45-2.934-.067-.123-.339-.188-.517-.189-2.163-.009-4.326.009-6.489,0a.632.632,0,0,0-.726.5c-.092.316-.253.612-.353.926a2.016,2.016,0,0,0,.409,2.148Zm13.613-8.519-1.748-4.1-.193-.012-1.576,4.11Z" transform="translate(-54.031 -459.046)" fill="#1a1311"/>
    <path id="패스_20563" data-name="패스 20563" d="M65.07,613.917h-6.3c.876-1.819.472-3.695.486-5.517.041-5.423,0-10.846-.042-16.27a12.18,12.18,0,0,0-.337-1.941h6.306c-.85,2.112-.4,4.307-.43,6.46-.074,5.026-.059,10.052-.04,15.078a14.056,14.056,0,0,0,.354,2.19" transform="translate(-26.349 -481.081)" fill="#1a1311"/>
    <path id="패스_20564" data-name="패스 20564" d="M63.11,503.166a34,34,0,0,1-12.29-2,50.51,50.51,0,0,1-9.67-4.88,1.412,1.412,0,0,1-.422-.313,2.456,2.456,0,0,1-.207-.592c.212.015.467-.041.628.057.883.538,1.726,1.145,2.615,1.673a43.36,43.36,0,0,0,8.912,3.838A31.379,31.379,0,0,0,63.5,502.387a34.085,34.085,0,0,0,12.7-2.8A38.514,38.514,0,0,0,86.317,493.4a42.718,42.718,0,0,0,5.063-5.479,35.026,35.026,0,0,0,6-11.115,35.462,35.462,0,0,0,1.825-12.7c-.043-.925-.143-1.848-.158-2.773a2.556,2.556,0,0,1,.292-.824c.163.243.446.475.472.732a37.251,37.251,0,0,1-.468,11.254A38.457,38.457,0,0,1,81.572,497.7a37.247,37.247,0,0,1-13.69,4.987c-1.765.255-3.551.36-4.772.479" transform="translate(-18.166 -422.948)" fill="#1a1311"/>
    <path id="패스_20565" data-name="패스 20565" d="M119.959,671.5a3.176,3.176,0,0,1-3.238,3.151,3.12,3.12,0,0,1-3.006-3.086,3.187,3.187,0,0,1,3.214-3.18,3.078,3.078,0,0,1,3.03,3.115" transform="translate(-50.976 -516.134)" fill="#1a1311"/>
    <path id="패스_20566" data-name="패스 20566" d="M50.262,422.222a8.449,8.449,0,0,1-.644,3.874c-.527,1.118-1.418,1.238-2.038.184a8.722,8.722,0,0,1-.923-2.715,11.179,11.179,0,0,1,.169-5.041,2.453,2.453,0,0,1,.206-.556c.286-.519.691-1.1,1.3-.916a2.054,2.054,0,0,1,1.255,1.1,41.077,41.077,0,0,1,.838,4.034l-.161.037" transform="translate(-20.821 -403.452)" fill="#1a1311"/>
    <path id="패스_20567" data-name="패스 20567" d="M97.015,419.708c-.185.936-.327,1.873-.567,2.783a1.182,1.182,0,0,1-1.07,1.019,1.133,1.133,0,0,1-1.2-.835,9.922,9.922,0,0,1-.762-5.083,17.568,17.568,0,0,1,.134-1.884,3.882,3.882,0,0,1,.8-1.6c.508-.566,1.139-.438,1.54.215a3.735,3.735,0,0,1,.558,1.26c.23,1.361.381,2.735.565,4.127" transform="translate(-41.841 -401.985)" fill="#1a1311"/>
    <path id="패스_20568" data-name="패스 20568" d="M62.239,392.821l.436.469c-.212.176-.4.462-.64.51-1.121.226-2.273.315-3.379.59-1.428.355-2.826.829-4.23,1.277-.355.114-.729.282-.918-.142-.2-.449.157-.738.531-.827,2.637-.629,5.281-1.228,7.923-1.836.043-.01.087-.014.278-.043" transform="translate(-23.961 -392.605)" fill="#1a1311"/>
    <path id="패스_20569" data-name="패스 20569" d="M34.4,407.019a.509.509,0,0,1-.072.206c-.475.535-.938,1.084-1.455,1.576a.464.464,0,0,1-.694-.613,13.469,13.469,0,0,1,1.5-1.535.44.44,0,0,1,.724.366" transform="translate(-14.399 -398.755)" fill="#1a1311"/>
    <path id="패스_20570" data-name="패스 20570" d="M145.554,451.44c.112.132.281.248.326.4a17.64,17.64,0,0,1,.517,2.034c.033.194-.212.435-.329.654a2.257,2.257,0,0,1-.383-.618c-.125-.551-.185-1.117-.265-1.678-.033-.229-.05-.46-.074-.69l.208-.1" transform="translate(-65.156 -418.883)" fill="#1a1311"/>
    <path id="패스_20571" data-name="패스 20571" d="M34.286,520.009c.181-.457.435-.51.783-.258.392.285.81.539,1.17.86.138.124.146.395.213.6-.2-.012-.44.045-.584-.049-.532-.347-1.032-.744-1.582-1.151" transform="translate(-15.37 -449.438)" fill="#1a1311"/>
    <path id="패스_20572" data-name="패스 20572" d="M50.932,398.214a7.924,7.924,0,0,1-1.038.509c-.081.028-.373-.236-.378-.372-.018-.5.383-.673.781-.7.2-.015.412.2.619.31Z" transform="translate(-22.197 -394.769)" fill="#1a1311"/>
    <path id="패스_20573" data-name="패스 20573" d="M143.235,442.379c.094.062.175.086.2.133a9.864,9.864,0,0,1,.4,1.1c.024.09-.121.3-.226.331a.405.405,0,0,1-.367-.148,7.113,7.113,0,0,1-.223-1.144c-.009-.079.139-.177.216-.268" transform="translate(-64.112 -414.821)" fill="#1a1311"/>
    <path id="패스_20574" data-name="패스 20574" d="M30.688,516.1c-.335.138-.538.282-.6.236a6.4,6.4,0,0,1-.671-.647c.1-.095.264-.29.3-.269.285.165.546.371.972.679" transform="translate(-13.187 -447.563)" fill="#1a1311"/>
  </g>
</svg>
