<svg id="DNA_12" xmlns="http://www.w3.org/2000/svg" width="73.456" height="112.805" viewBox="0 0 73.456 112.805">
  <g id="그룹_11500" data-name="그룹 11500">
    <path id="패스_19647" data-name="패스 19647" d="M171.094,86.91c5.286,1.755,9.57,5.391,14.676,7.772a8.162,8.162,0,0,0,1.352.258c.058.542.715.665.683,1.316.671.5,1.62-.058,2.351.106-.071-.395.341-.561.505-.831.7-.2,1.164-.836,1.919-.986.788-.108,1.745.077,2.368-.288-.013.955,1.19.18,1.1,1.2,1.088-.045,2.113.3,3.257.317.42.169.583.513.952.851a5.875,5.875,0,0,1,2.8.6c2.232-.984,4.508-.2,6.843-1.091,3.376-1.985,6.707-3.654,10.118-6,0-.318-.312-.515.1-.728.089.154.075.41.283.438.743-.471,1.756-.864,2.173-1.558.192.241.088.273.045.651.205.118.536-.12.816-.214.167-.165-.119-.769-.432-.331.419-.093.3-1.049.938-.578-.253.151-.177.41-.145.622,1.127.85,2.795-.031,4.211.6.252.332.726.381.994.8.03.47-.087,1.275-.594,1.454a40.2,40.2,0,0,0,4.7,2.652c-.24,1,1.073,1.123,1.324,1.973a3.157,3.157,0,0,1,0,1.967c.2.864.892,1.259,1.22,2.181-.04.166.076.5-.1.682.416.819,1.339,1.351,1.74,2.288.032.576.238,1.316-.252,1.9a23.834,23.834,0,0,0-7.783,1.53c-1.352,1.075-2.753,2.046-4.21,3.088-.64.3-1.28-.164-1.938.258a2.639,2.639,0,0,0-.235-.879,3.59,3.59,0,0,1-2.036,1.094,23.587,23.587,0,0,1-3.5-1.775,16.987,16.987,0,0,1-2.038-2c-.432.2-.731.954-.894,1.594a15.137,15.137,0,0,0-.073,3.861,21.749,21.749,0,0,1-2.708,3.043c-.224.124-.429-.032-.655,0a4.822,4.822,0,0,1-2.1-1.892c-.95.426-1.116,1.713-1.967,2.332.255-.619.85-1.029.971-1.605-1,.422-.819,1.772-1.791,2.3-.562-.407-.533-1.038-.709-1.708a24.79,24.79,0,0,1-1.429,3.408c-.435.3-.522.817-.97,1.092-.3.482.121.955,0,1.42-.1,1.764.894,3.745,1.68,5.459.628.243.76.924,1.355,1.3.778,2.2,1.773,3.942,2.6,6.335a26.082,26.082,0,0,1,.89,4.332c-.251.271.047.863-.251,1.307.193-.52-.4-.534-.743-.52a34.6,34.6,0,0,0-.224,9.089c.135-.316.312-.7.477-1.088a6.166,6.166,0,0,1-.357,1.609,28.917,28.917,0,0,1,.313,4.981,36.9,36.9,0,0,0-.673,4.911c.165,3.941.239,7.819.1,11.818-.044,1.35.88,2.651,1.178,4.073a23.824,23.824,0,0,1,0,4.109c-.356.224-.866-.06-1.223.314a15.147,15.147,0,0,1,0,1.9c-.265.543-.787.908-.95,1.5.3.622.547,1.276.95,1.955a1.807,1.807,0,0,1,0,1.452c-.637.168-.637.88-1.309,1.063-.162.41.256.4.281.682a14.746,14.746,0,0,1,2.891,1.606c.312.059.64-.014.964.028a19.513,19.513,0,0,1,3.571,2.259,14.484,14.484,0,0,1,1.713,2.77.9.9,0,0,0,.46.065c.117.151-.311.3-.311.436a30.778,30.778,0,0,0-4.569-.546c-.028-.679-.847-.62-1.219-1.163-.208.348-.494.047-.509-.214.136-.257.375-.652.759-.728.179.426-.013.471,0,.942a1,1,0,0,0,1.25.225c.106-.119.092-.351.313-.439.343.363.406.791.862,1.242.821-.056,1.639.366,2.47.246-.161-1.288-1.56-1.717-1.9-2.835.162.014.224.455.428.181-2.038-1.875-4.877-1.987-7.036-3.379.058.348.522.468.657.882-.793-.215-.758-.943-1.371-1.351-.252-.061-.656-.468-1-.255a18.379,18.379,0,0,1-2.4-3.306c-.086.079-.086.183-.283.243a1.247,1.247,0,0,0-.131-.967c-.468.184-.253.709-.509,1.089a6.937,6.937,0,0,0,1.5,3.41,31.049,31.049,0,0,0,4.061,3.09,14.59,14.59,0,0,1-4.243-2.44c-.831-.773-1.172-1.9-2.184-2.576-.271.408.492.485.325.909-.058.015-.27-.395-.284-.029.032.365.345.41.467.833-.109-.107-.109-.288-.258-.181a6.65,6.65,0,0,1,.508,1.089c-.18.092-.121-.149-.283-.224-.089.406.474.619.46,1.058-.536-.334-.815-.983-1.22-1.346.193.923,1,1.227,1.22,2.179a3.207,3.207,0,0,1-.61-.652c-.149.212.167.426.107.652-.539-.5-.775-1.224-1.282-1.667.161.652.829,1.227.849,1.925a6.747,6.747,0,0,0-.849-1.166c.088.5.533.908.716,1.5a8.169,8.169,0,0,1-1.12-1.243,2.742,2.742,0,0,0,1.012,1.669,24.175,24.175,0,0,0,2.919,1.214,12.986,12.986,0,0,1,4.183,1.088c-1.413.108-2.756-.211-4.211-.122.386-.364,1.039-.15,1.635-.5a59.892,59.892,0,0,1-5.951-1.638,4.8,4.8,0,0,0,2.6,1.451c.089.168.3.5-.042.683a33.753,33.753,0,0,0-3.528-.059c-.522-.305-1.041-.817-1.578-.409.046.136,0,.453.256.437-.536.787-1.327.305-2.071.546-.148-.3.279-.561.535-.575-.028-.352-.49-.183-.713-.23a1.127,1.127,0,0,0-.046.411c-.473-.44-.238-.59-.205-1.136.161,0,.252.076.282.257.416-.059.492-.53.757-.8a1.35,1.35,0,0,1,.1-1.091c.223-.112.668.122.851-.319.25-.487-.136-.832-.36-1.244.163-.683,1.025-.876,1.5-1.348.566-1.107.178-2.156.641-3.3a23.513,23.513,0,0,0-.462-5.094c-.163-.709-.746-1.362-.894-2.075a13.5,13.5,0,0,0-1.356-1.485c-.056.046-.207,0-.145.182-.39-.366-.345-.864-.744-1.167-.058.06-.031.165-.031.258-.413-1.771-1.207-3.741-1.681-5.608-1.173-1.878-1.4-4.254-2.648-6.148a18.608,18.608,0,0,0,.281,2.588,24.933,24.933,0,0,1-.818-2.952c-.19.983.582,2.088.329,3.136a9.973,9.973,0,0,1-.685-2.961c-.163.338.015.778-.027,1.172-.286-.35-.18-.9-.328-1.348a4.877,4.877,0,0,0-.107,1.348c-.12-.03-.223-.229-.355-.288a17.424,17.424,0,0,0,.177-2.908c-.1.133-.014.6-.326.542-.225-.149-.462-.375-.284-.7.193-.469.758.136.9-.469-.061.137.219,1.469.178.41a5.754,5.754,0,0,0,1.678-1.683c-.266-.121-.488.059-.744.047a17.044,17.044,0,0,0,2.174-3.532c-.059-.652.165-1.635-.151-2.105-.132.7.165,1.638-.234,2.136a7.152,7.152,0,0,0,.058-2.032c-.4.425-.15,1.121-.355,1.773a7.824,7.824,0,0,0-.061-1.665c.549-.575,1.28-.877,1.738-1.454.1-.561.581-1.045.643-1.558a1.4,1.4,0,0,0-.672.68c-.284-1.245,1.414-2.045.853-3.305-.6.607-.824,1.609-1.611,2.028a8.6,8.6,0,0,0,1.323-3.087c-.638.3-.505,1.62-1.278,2.3-.106-.047.056-.413-.15-.3a15.418,15.418,0,0,1-1.994,2.8c.746-1.695,2.1-3.5,2.708-5.344a3.651,3.651,0,0,0-.818,1.164c-.1-.758.77-1.121.637-1.818a7.724,7.724,0,0,0-1.961-2.468c-.609.151-.593-.773-1.251-1.122.37.379.8.316,1.294.543a35.06,35.06,0,0,1,3.5,3.67c.223.711.922,1.15.967,1.968-.283,3.137-.728,6.379-1.221,9.409a9.937,9.937,0,0,0-1.07,3.6,11.045,11.045,0,0,0,.18,3.532,5.754,5.754,0,0,0,1.072,3.047,13.787,13.787,0,0,1,.1-3.347c.1,1.256-.31,2.573.533,3.784a.531.531,0,0,1-.458-.437c2.17,3.589,2.529,7.863,5,11.454-.685-3-2.144-5.682-3.183-8.469,1.144.817,1.514,2.212,2.362,3.3.478,1.908,1.683,3.621,2.25,5.424.8.969,1.458,2.105,2.217,3.12a4.078,4.078,0,0,0,1.071.7c.416-.425.058-1.167.355-1.746a8.237,8.237,0,0,1-1.784-2.467c-.207-1.168.132-2.486-.326-3.637a2.3,2.3,0,0,1-1.861.182c.013-.44-.536-.713-.418-1.209.464.45.876,1.119,1.561.769a1.687,1.687,0,0,1,.718-.727c0-.515-.51-.907-.564-1.346-1.044-1.273-1.535-3.3-2.074-5.121.568,1.3.956,2.74,1.638,4.03-.668-1.382-.861-2.913-1.638-4.441-.025-.017,0,.182-.118.108-.965-3.866-2.755-7.473-3.5-11.412.222.1.432.185.642.031a28.612,28.612,0,0,1-1-3.121c-.164-.059-.895-.135-.463-.515h.463a65.673,65.673,0,0,0,3.438,8.407c.549.473.519,1.383,1.2,1.564a3.538,3.538,0,0,0-.357-2c-1.877-2.921-2.484-6.35-4.6-9.168-.208-1.241.416-2.6-.12-3.891a12.759,12.759,0,0,1-.743-2.03c.418.622.757,1.227,1.251,1.956.175.028.2-.139.281-.212-1.593-1.987-1.7-4.622-3.318-6.761a14.565,14.565,0,0,1-1.457-1.678,23.3,23.3,0,0,1,2.959,3.135c1.041,2.589,2.782,4.379,3.75,7.3-.238-.848-1.22-1.182-1.607-1.97-.314-.027-.132.32-.434.41-.205,1.2,1.414,1.425,1.68,2.5-.576-.5-.991-1.215-1.65-1.407a20.535,20.535,0,0,0,2.441,5.485c.27.148.4.528.745.769-.029-.014-.063.017-.074.034.891.757,1.086,1.893,2.292,2.469a16.758,16.758,0,0,0-.508-1.925,6.029,6.029,0,0,0-1.739-1.742,1.564,1.564,0,0,1,.1-1.5c.208.378-.283.7-.149,1.137a1.845,1.845,0,0,0,.715.574c.52-.542,1.428-.9,1.533-1.711-.328-1.137-.984-2.344-1.25-3.588-.238.468.357.939-.106,1.407-.251.124-.49-.287-.742-.366-.195-.331-.462-.6-.4-1.041l-.1.074c.189-.879-.432-1.5-.745-2.3l-.043.726c-1.342-1.8-1.8-4.09-2.814-6.032a28.368,28.368,0,0,0,2.427,1.924,27.926,27.926,0,0,0,2.068,3.975c-.653-1.7-.653-3.61-1.742-5.247a17.512,17.512,0,0,0-3.615-3.95c-.536-.985-2.649-1.245-3.571-2.52a27.953,27.953,0,0,0-4.242-1.6,4.1,4.1,0,0,1-.577.8c-.033-.313.445-.559.177-.8-.358.184-.416.589-.671.955.193.609.688.879,1.206,1.2.09-.154-.028-.154-.136-.336,1.669,1.032,2.859,2.822,4.316,3.939-.624-.924-1.708-1.77-2.35-2.695A19.08,19.08,0,0,1,192.3,140.1a5.417,5.417,0,0,1-.748-.728c.447,1.53,2.088,2.531,2.935,3.975a2.545,2.545,0,0,1-1.91-.416c.183-.118.226.215.36.232.045-.44-.637-.456-.491-.988.073-.03.241.06.251-.072a54.09,54.09,0,0,0-7.006-7.534c-.715-.273-1.411.606-2.17.545-.758-.5-.585-1.71-1.221-1.952a14.691,14.691,0,0,0,.073,2.135,7.3,7.3,0,0,0,1.532,1.863c-.22-.06-.282-.351-.536-.256,2.087,1.149,4.077,3.014,6.223,4.5-1.668-.5-2.756-2.292-4.435-3.091-.266-.061-.522.166-.713.409a19.1,19.1,0,0,0-.921,2.259,18.169,18.169,0,0,0-.106,2.866c.566,2.726.8,5.572,1.131,8.359a30.166,30.166,0,0,0,1.039,3.382c-.147-.456-.013-1.1-.147-1.666a6.546,6.546,0,0,1,.4,2.878c-.1.73-.727,1.031-.97,1.636.345.016.7.226,1.073.106.135-.12.207-.408.461-.437-.7,1.164-.891,2.986-1.785,4.335a6.041,6.041,0,0,0-1.457,1.59c-.2.331.193.651.074.983-.138-.073-.177-.482-.356-.258a13.466,13.466,0,0,0,.488,4,8.353,8.353,0,0,0,1.4.59,5.892,5.892,0,0,1,.431,2h-.043a15.8,15.8,0,0,0,.179,4.289c-.106,1.937.775,3.816,1,5.817-.268-.954-.639-1.892-.849-2.831-.682.485-.413,1.59-1.04,2.133.163.2.551.11.505.443-.373.181-.194.513-.505.8-.226.712.429,1.487.61,2.182-.088.168-.117-.151-.252-.151a7.152,7.152,0,0,1,.326,2.336,5.012,5.012,0,0,0-.4,1.012c.293-.665,1.2-.849.889-1.667a30.612,30.612,0,0,1-.032,3.121c.06.471.494.668.716,1.2.4-2.123.432-4.351.684-6.5-.164-.348-.12-.79-.325-1.169.19.092.37.3.561.214a2.854,2.854,0,0,0,.612,2.224,11.478,11.478,0,0,1,2.576.107c.357-.225-.019-.558.1-.832.225.592.894,1.019.937,1.669.016.77-.133,1.484-.179,2.332a13.792,13.792,0,0,0-.5-1.9c-.375-.226-.717.393-1.073.185-.7-.289-1.46-.378-2.11-.7-.285-.272-.153-.683-.392-.985a1.888,1.888,0,0,0-.073,1.529,2.086,2.086,0,0,1,.4-.256c.294.4.536,1.017.848,1.5-.028.347.206.758-.075,1.044a1.293,1.293,0,0,0-.283-.9,5.19,5.19,0,0,0-1.1-.865c-.192,2-.625,4-.25,6,.473.043,1.085-.079,1.1-.544.163.164.074.708.507.544.281-.276-.358-.366-.284-.623a.9.9,0,0,1,.537.651c-.581.136-1.265.56-1.934.728-2.264,0-4.507-.408-6.742-.437a.435.435,0,0,1,.178-.549,29.244,29.244,0,0,0,5.357-.423,3.461,3.461,0,0,0-.476-1.271,3.432,3.432,0,0,1-2.316-2.307c.965-.636,1.216-1.815,1.826-2.726-.3.124-.581-.316-.818-.5-.568-.817-.374-1.8-1.043-2.466-.473.225-1.057.541-1.574.178-.107-1.047.325-2.014.145-3.089-.07-.637-.429-1.382-.506-1.893a6.824,6.824,0,0,1,.76-3.141,6.737,6.737,0,0,0-.462,1.973c-.267,1.574,1.07,3.09.534,4.727l-.116-.107c-.107.455-.282.969.043,1.379.521.136.819-.516,1.385-.44.832.79.546,2.335,1.5,3.016a2.364,2.364,0,0,0-.183-2.241,4.214,4.214,0,0,1,.463-2.047c-.015-.3-.641-.318-.463-.758.951-.425.374-1.334,1.043-2-.179-1.86-.092-3.726-.223-5.558-.193-.15-.623.014-.594-.183a1.167,1.167,0,0,0,.594-.12c-.27-.756.118-1.683-.312-2.424-.429-.53-1.011-.319-1.429-.88-.311-.7-.431-1.5-.758-2.151-.477-.259-.91-.683-1.427-1.013-.388-.534-.344-1.259-.672-1.894-.18.165-.444.394-.643.074.034-.271-.087-.622.109-.833.073.2-.091.62.282.759.489-.186.284-.5.536-.942a10.06,10.06,0,0,0,.563,2.469c.357.274.761.879,1.373.518.085-.727-.18-1.5.277-2.152a25.826,25.826,0,0,1-.713-2.835c-.327.443.121,1.1,0,1.667a5.209,5.209,0,0,1-.64-2.5.527.527,0,0,0-.431.471c-.223-.425.177-1.078.611-1.272.1.169.355.088.414.33.225-.649.908-.844.94-1.5-.579-.49-.774.363-1.178-.5-.058-1-.518-2-.579-3.03-.208-1.938.862-3.667,1.146-5.667a2.816,2.816,0,0,1-.208-1.167c.208.016.046.362.24.545.134-.56.163-1.331.3-2-.028-1.819-1.193-3.639-.863-5.453a9.918,9.918,0,0,0,.431-1.2,5.436,5.436,0,0,1-.431.437,9.432,9.432,0,0,0,.964-2.258c-.117-.117-.4-.208-.533-.334-.447.364-.981.032-1.473.443a1.36,1.36,0,0,1,1.042-.5c-.181-.518.7-.867.431-1.423-.206-.384-.521-.562-.64-1.1-.463-1.393.743-2.741-.074-4.183-.491-.043-.521-.557-1.042-.693a2.933,2.933,0,0,1-.176-1.331c.4-.716,1.279-.868,1.576-1.763.534-1.784.4-3.558,1.147-5.33-.209-1.484-.048-3.5-.791-4.59.52-1.259-.059-2.958.432-4.44-1.6.637-3.039,1.755-4.537,2.407-.017-.18.34-.2.1-.362-.6.029-.685-.517-1.253-.806a62.253,62.253,0,0,1-2.929-5.709c-.733.043-1.486.605-2.278.652-.623-.316-1.13-.969-1.724-.969.3-.472,1.068.331,1.678.546a2.589,2.589,0,0,0,1.356-.624c.4.046.907-.148,1.37.183.949,1.454,1.249,2.985,2.319,4.471,1.029-1.352,1.757-3.488,2.605-4.7-.536.578-.88,1.182-1.431,1.789a9.925,9.925,0,0,0,.434-1.17,4.821,4.821,0,0,1-.476.549c.192-1.092.979-1.82,1.4-2.758a7.628,7.628,0,0,0-1.456,1.82,16.058,16.058,0,0,1,1.025-2c-.508.408-.819,1.077-1.251,1.347.387-1.029,1.264-1.832,1.682-2.848a19.336,19.336,0,0,0-1.936,2.544c.21-.771.808-1.483,1.014-2.211-.626.548-.833,1.44-1.474,1.893.492-.939.9-1.7,1.5-2.648-.789.178-1.251,1.45-1.935,2.1.222-.831.97-1.349,1.328-2.1-.091-.14-.254-.048-.283-.184-.641.35-.877,1.23-1.355,1.743-.059-.637.577-1.017.816-1.635-.324-.2-.55.38-.564-.289a12.631,12.631,0,0,0,2.1-3.394c-1.011.834-1.606,2.212-2.5,2.955.448-1.106,1.757-2.058,1.788-3.243a6.11,6.11,0,0,0-1.279,1.637c-.016-.637.71-1.243.43-1.669a11.718,11.718,0,0,1-1.864,2.5c.121-1.169,1.418-1.593,1.566-2.684-.776.3-1.4,1.544-2.069,2.32.359-.97,1.293-1.743,1.682-2.728-.835.378-1.22,1.426-1.815,2.151a28.087,28.087,0,0,0,1.489-2.758c-.656.576-1.309,1.547-1.995,2.137.3-.774,1.13-1.216,1.5-2.11-.177-.133-.086-.48-.359-.39a6.674,6.674,0,0,1-1.22,1.271c.135-.515.94-.972.536-1.421-.117.166-.22.423-.536.286-1.145-2.122-1.875-4.362-3.033-6.546.419,1.714,1.265,3.682,1.935,5.528a32.019,32.019,0,0,1-2.5-5.633c.045,1.377,1.116,2.881,1.457,4.544-.921-1.331-1.07-3.167-2.14-4.33.092,1.483,1.309,2.574,1.427,4.073-.564-1.256-1.249-2.227-1.708-3.562-.213,1.321,1.083,2.29,1.275,3.746-.936-1.017-1.145-2.425-1.844-3.562-.191.877.641,1.725.82,2.651-.536-.469-.641-1.2-1.116-1.923-.059.907.611,1.939.756,2.908-.327.016-.086-.3-.327-.438a2.416,2.416,0,0,0,.254,1.271,5.519,5.519,0,0,1-.742-1.347c-.223.424.177.849.282,1.4a4.07,4.07,0,0,1-.82-1.577c-.428.456.226,1.121.316,1.679a1.751,1.751,0,0,1-.459-.983c-.909,1.089-.6,2.444-1.048,3.742a32.016,32.016,0,0,0-.026,4.912,4.017,4.017,0,0,0,1.574,1.817c.372.195.777-.109,1.178.1-.059.262.3.532.256.668-.392-.668-.97-.118-1.434-.181a8.461,8.461,0,0,1-1.548-1.531,11.385,11.385,0,0,0-.026,1.227l-.359-.212v-2.4c-.163-.089-.252.034-.463-.12a1.137,1.137,0,0,0,0-.834c-.159-.286-.533-.422-.786-.573-.061-1.516-1.415-2.8-1.1-4.365a78.11,78.11,0,0,0,1.351-8.44c.205-1.169.966-2.044,1.324-3.166.24-.377.582-.377.922-.472,1.1.184,2.217-.044,3.318.079.092-.246-.029-.606.22,0m-4.221.8c-.016-.181.342-.246.116-.368-.374-.21-.4.35-.116.368m1.606.058a10.744,10.744,0,0,0,2.262.879,7.509,7.509,0,0,1,.133-.8c-.431-.333-.866-.255-1.279-.365-.447-.03-.864-.148-1.116.288m-1.386.545c-.206.379.03.741-.043,1.092a7.324,7.324,0,0,0-.237-.727c-.448.153-.165.743-.611.619-.581,3.4-1.342,6.774-1.935,10.155.182.026.371.026.462-.11-.266,1.457.88,2.911,1.039,4.365.238.12.374.046.568.064a34.941,34.941,0,0,1,.787-6.606c.82-2.244,1.5-5.154,2.549-7.031-.124-.485-.657-.562-1.016-.575-.531.332-1.262.545-1.175,1.269-.059-.362-.282-.2-.492-.285.269-.485.848-.485,1.1-.984a1.593,1.593,0,0,1,1.814.256c.137-.348.584-.456.539-.907a17.383,17.383,0,0,0-2.1-1.02c-.582-.226-.73.471-1.253.425m4.924-.425c-.624-.148-.829.38-1.1.79a6.492,6.492,0,0,1,.713,2.12c.728.273,1.366-.454,2.069-.225,1.28.636,1.737,2.212,3.031,2.728.434.527.837.179,1.329.621a.739.739,0,0,1,.132-.577c.238.365-.014.893.328,1.089a3.006,3.006,0,0,1,.177-1.167c.4.168.079,1.017.21,1.53.193-.377.044-.859.356-1.135.326.336-.118.943.075,1.322.164-.338.107-.652.251-.987a14.638,14.638,0,0,0,1.861,1.482v-.1c.495.043.82.392,1.282.286.594.607,1.636.771,1.964,1.531a16.73,16.73,0,0,0,.46,1.666c-.266.258-.208.791-.253,1.09h.118a18.719,18.719,0,0,0-2.362,4.123c2.41.423,3.228,3.242,5.636,3.742a31.96,31.96,0,0,0,4.18.438c1.133-.24,2.158-.785,3.26-.334-.475.473-.655.987-1.22,1.244a5.635,5.635,0,0,1-.1,1.379c-.788.166-1.457.166-2.187.394.653.271-.315.455,0,.831a15.049,15.049,0,0,0,2.544.262c-.77-.593.624-1.152.073-1.669.449.274.909-.41,1.385-.438a34.239,34.239,0,0,0,2.289-3.018c.327-.558.881.076,1.175-.544,1,.834,2.307,1.214,3.112,2.288-.133-.669-.936-1.242-.685-1.924.106,1,1.026,1.214,1.3,2.077a8.046,8.046,0,0,0-.539-3.394c.758.408.564,1.271,1.131,1.815.091-.528-.151-.834-.058-1.377-.849-.377-.718-1.286-1.044-2.074h.074c-.207-.972-.178-1.868-.431-2.726.09.59-.537,1.163-.1,1.754-.331.2-.375-.2-.643-.226-.208.333-.076.769-.15,1.167-.641-.515-.132-1.665-.2-2.517.237-.177.279-.437.489-.6.241-.121.134.2.226.242.145-.8.235-1.711.384-2.573a4.725,4.725,0,0,1,.073,1.014h.434a2.832,2.832,0,0,0-.076-1.278c-.49-.163-.447-.8-.863-.8-.12.652.238,1.2-.029,1.785a.457.457,0,0,0-.4.292,3.139,3.139,0,0,1,.076-1.2c-.076-.393-.48-.545-.566-.88-.433.06-.345.833-.509,1.166-.073-.544.181-.972,0-1.454-.579,0-.7.864-1,1.273a.6.6,0,0,1-.46,0c.135-.422.494-.669.567-1.121-1.728.33-3.438.922-5.131,1.223v-.059c-.507.44-1.167.018-1.654.366.045,0,.087-.016.1.027-1.095.306-2.109-.589-3.064-.572-.429-.153-.328-.729-.639-.907-.624-.048-.983.528-1.5.755.014-.242-.434-.106-.564-.392a1.545,1.545,0,0,1-.046-.775c-.225-.5-.121-1.046-.491-1.485a4.857,4.857,0,0,1-.892-.1c-4.137-1.654-7.41-4.758-11.427-6.486a15.277,15.277,0,0,0-2.474-.724ZM221.865,89.2c.211-.061.463.014.611-.183-.062-.168-.431.042-.611.183m1.937.21a1.48,1.48,0,0,0-.079.7,5.054,5.054,0,0,1,1.4-.26c-.431.274-1.085.274-1.321.594a4.014,4.014,0,0,1,2.063-.334c.152-.14-.013-.317,0-.395.567-.046.51.909,1.076,1.089-.316.184-.641-.378-.967-.071a4.482,4.482,0,0,0,2.439,1.224,3.821,3.821,0,0,0-.9-.758,3.154,3.154,0,0,1,1.133-1.013c-.193-.516-.79-.7-1.133-1.017-1.247.181-2.543-.108-3.715.243m-56.709,0c.016.226.09,1.151.138.334-.2.014-.047-.272-.138-.334m56.348.074a6.392,6.392,0,0,0-2.884,1.17c-.091.2.238.286.177.516a8.553,8.553,0,0,0,2.74-1.17Zm-58.46,6.834c1.072-1.668,1.429-4.061,2.008-5.664a.485.485,0,0,1-.579-.076c.344,2-1.055,3.877-1.429,5.74m56.111-4.906c.76.164,1.471-.5,2.141-.834a6.109,6.109,0,0,0-2.141.834m3.569-.834c.1.209.328.076.491.1,0-.2-.386-.058-.491-.1m-55.47.076h0Zm2.042,0h-.079v.286h.079Zm42.6,3.634c-.67.592-1.431,1.228-2.144,1.819-1.848,1.181-4.33,1.271-5.848,2.938a65.011,65.011,0,0,1,8.288-3.15,14.5,14.5,0,0,1,3.528-2.365,4.046,4.046,0,0,1-1.563,1.017c-.032.24-.1.379-.12.575a5.534,5.534,0,0,0-1.817.985c-.236.424.431.59.1.985,0-.243-.267-.546-.282-.728-.652-.106-.044.407-.281.728-.163-.243-.194-.425-.459-.469-.2.437.491.707.1,1.043-.208-.336-.208-.654-.46-.862-.086.5.24,1.182.128,1.512a6.865,6.865,0,0,0-.664-1.451c.014.364.2.608.134.911.016-.321-.446-.517-.315-.835-.354.6.331,1.273.24,1.818-.24-.5-.3-.925-.671-1.226a7.494,7.494,0,0,0,1,3.225c.032-.072.079-.046.107-.072-.674,1.984.189,3.923-.748,5.785-.294.06-.549-.256-.782-.182-.018.268.3.438.144.725-.309-.467-.369-.845-.713-1.165-.159.048-.49-.121-.476.154.385.347.092.937.61,1.011-.013.184.074.532-.2.548a7.773,7.773,0,0,0-.716-1.424,2.95,2.95,0,0,0-.329.152c.089.8.76,1.439.788,2.284.476-.208.449-.573.566-.937.3.141-.073.682-.1.937.567.157.226-.508.579-.679.077.2-.162.452-.076.606.524.214.434-.317.674-.546,0,.321,0,.59.354.441.224-.379.177-.865.406-1.226.217.377-.229.772-.289,1.226h.465c-.029-.317.536-.849-.074-.941a.531.531,0,0,0,.564-.365c.208.049.076.365.121.546a6.412,6.412,0,0,1,1.633-2.15c.625.3.507,1.092.969,1.558a15.433,15.433,0,0,0,4.645,2.7,6.945,6.945,0,0,1,.967-.184,2.765,2.765,0,0,0,.818-.875c.43.121,1.008.18,1.276.541,1.925-.466,2.992-2,4.572-2.936a33.362,33.362,0,0,1,6.144-1.487v.034c.757.016,1.5-.184,2.247-.154a2.628,2.628,0,0,0,.147-1.849c-.22-.8-1.084-.907-1.457-1.607a6.652,6.652,0,0,1-.718-.1c-.073-.424.492-.637.569-.91.012-.289-.207-.575-.254-.865-.339-.178-.607-.709-.994-.619.546-.079.015-.4,0-.621l-2-.031c.536-.183,1.191.136,1.64-.362-.238-.276-.563.076-.686-.305.387-.1.82.123,1.149-.212-.387-.486-1.076-.152-1.608-.515a5.153,5.153,0,0,1,1.608.074c0-.168.016-.394-.105-.5-.642,0-1.172-.139-1.758-.182a5.824,5.824,0,0,1,1.476-.148c-.6-.759-1.627-.411-2.427-.73a8.486,8.486,0,0,1,1.664.033c-.1-.32-.444-.489-.671-.684-.637-.151-1.44-.018-2.14-.108.848-.362,1.7.029,2.571,0-.086-.56-1.067-.468-1.5-.512.25-.2.727-.08,1.1-.154-.3-.408-.8-.229-1.208-.422l.108-.126a12.15,12.15,0,0,0-1.833-.465c.032-.14.344-.091.432-.106-.432-.5-1.128-.441-1.607-.514-.042.057.091.182.074.182a2.96,2.96,0,0,0-1.068-.182c.16.48.862.33.862.723a5.251,5.251,0,0,1-2.187-1.147c-.22.044-.568-.139-.667.134.726.682,2.034,1,2.344,1.742a21.034,21.034,0,0,0-4-2.132c-.221.877.984.118.506.649.135.228.419.316.536.438-.489.226-.625-.394-1.043-.288-.176.411.287.5.434.758-.21-.028-.327-.076-.434.076.135.666.907.834,1.4,1.271-.682.321-.682-.558-1.248-.516-.373.5.444.638.609,1.018-.327.077-.474-.271-.761-.108-.115.727.7.5.938.985-.432.043-.548-.348-.938-.362-.029.635.686.738,1.043,1.058-.342.172-.625-.194-.936-.33-.316.5.209.922.477,1.2-.268.1-.316-.336-.584-.078-.042.652.569.849.938,1.244-.327.046-.623-.318-.859-.445-.328.548.74,1.188.145.985-.473-.028,0,.319-.145.579.145.3.505.3.682.62-.225.03-.417-.258-.682-.289-.049.363,0,.776.428.882-.145.318-.219-.136-.428-.074-.121.785.237,1.637.1,2.21a.344.344,0,0,1-.354.106c-.238-1.665-.238-3.21-.539-4.832.242-.059.242.346.465.259v-.7c-.255-.047-.465-.259-.673-.291-.041-.6.432.048.673.078.207-.153.073-.411.117-.622-.253-.456-1.176-.3-.965-.865.359.2.579.548.965.5v-.546a1.983,1.983,0,0,0-1.07-.651c.042.1-.12.213-.12.257a15.04,15.04,0,0,0-1.487-3.56c-.491.3-1.191.346-1.609.576.537-.256.984-.879,1.49-.987-.164-.377-.211-.88-.536-1.012-2.205,1.028-4.329,2.484-6.427,3.634m9.97-3.456c-.016.408.563.154.457-.1-.208,0-.312-.034-.457.1m1.5,0c.085.517.606.517.917.58.077-.35-.386-.337-.561-.58Zm2.212.337c-.043-.17-.329-.183-.429-.337-.269.034.238.23.429.337m-59.961-.122-.029-.138.029.03Zm5.609-.107-.044-.03.044.138Zm51.064.256a1.27,1.27,0,0,0,1.354.393c-.157-.3-.622-.453-.858-.6-.163.088-.391.088-.5.21m-51.7-.027-.045-.077h.045Zm.46-.077h-.044l.044.077Zm49.845.1a.189.189,0,0,0,.331.153c.1-.409-.165-.153-.331-.153m.432.153c.178.014.15-.18.211-.257-.285-.077-.19.1-.211.257m-55.525.5a4.378,4.378,0,0,0-.077-.546c-.152.076.013.413.077.546m54.307-.183c.294.395,1.067-.153.507-.288-.284.017-.344.211-.507.288m-47.984-.208h-.077v.131h.077Zm49.53.1h-.15v.105h.15Zm3.751.333c-.253-.06-.538-.213-.716-.259-.147.244.464.425.716.259m-5.788.138c.255.074.36-.094.464-.212-.209.014-.481-.061-.464.212m.387.225c.64.166,1,.73,1.65,1.014.255-.44-.51-.2-.177-.589-.224-.214-.446-.107-.653-.064a1.656,1.656,0,0,1-.033-.48c.328-.411.342.33.686.073.325-.745-.612.091-.429-.392-.107.467-.645.1-1.044.437M170.8,92.211,170.77,92l.026.106Zm52.541.153c-.133.228.21.15.253.21.061-.288-.117-.2-.253-.21m-1.649.65c.314.06.667.438.937.076-.286-.516-.91-.029-.966-.653-.746.332.649.18.029.576m-48.567-.546h.044v.076h-.044Zm51.749.15h.033v-.074h-.033Zm4.286.064h-.388v.076h.388Zm-55.2.3-.048-.126.048.23Zm51.706.1c-.151.014-.223-.016-.281-.1.13-.016.22,0,.281.1m-1.432.029c.1.166.536.333.313,0Zm-1.649.184a.876.876,0,0,0,1.01.621c.043-.366-.479-.384-.607-.7-.212-.073-.2.156-.4.081m8.542,0h0Zm-58.361.074a26.634,26.634,0,0,0,1.43,3.272c-.1-1.1-.966-2.089-1.278-3.061-.2.061-.061-.193-.152-.211m44.994.1h-.1v-.1h.1Zm-45.708.046h.047v-.076h-.047Zm2.144.136-.026-.136.026.03Zm53.745,0-.029-.136.029.03Zm-59.74-.076h-.073v.076h.073Zm4,.124h-.076v.1h.076Zm49.74.1c.489.3,1.027.682,1.473.578-.417-.244-.85-.366-1.045-.682a.516.516,0,0,0-.428.1m3.083-.1h0Zm.175,0h0Zm-51.574.058c.078.258.374.743.182.183-.182.092-.12-.15-.182-.183m.789.258c.122.485.257,1.242.673,1.454.115-.589-.626-.861-.6-1.454Zm-2.11.074a8.875,8.875,0,0,0,1.5,3.093,24.586,24.586,0,0,0-1.433-3.093Zm44.816.258-.032-.154.032.049Zm11.96-.074h-.2v.074h.2Zm.18.074h-.074v-.074h.074Zm.534,0h-.307v-.074h.307Zm.508-.074h-.4v.074h.4Zm-56.395.107h.048v-.079h-.048Zm6,0c-.241.133-.119.984,0,.255Zm45.427.1c-.135.062-.135-.062-.21-.1.136-.047.136.072.21.1m-50,.15-.029-.183.029.079Zm47.288.033c-.045-.137-.15-.169-.257-.216-.4.183.107.412.257.216m-54.387-.137c-.267.21.228,1.136.211.4-.165-.046-.1-.273-.211-.4m5.823.1h-.077v-.1h.077Zm51.449-.1h-.071v.1h.071Zm-2.069.255v-.118l.15.118Zm-49.275.141c.069.092-.151-.046-.077-.185Zm5.859.226c.194.016.223-.243.208-.411-.25-.088-.134.277-.208.411m13.673-.411a6.459,6.459,0,0,0-1.471.079c-.047.333-.328.378-.359.649a3.7,3.7,0,0,1-.949.288c-.315.622.475.851.713,1.274.673.152,1.219-.034,1.843.438a19.734,19.734,0,0,0,5.895-1.091c-.955-.121-1.962-.984-2.857-.5-.6.136-1.043-.561-1.429-.953-.459.029-.921-.185-1.385-.141Zm28.957.411a2.719,2.719,0,0,0,.936.425c.163-.41-.417-.578-.607-.758-.164.165-.432.106-.33.333m1.933-.333c.043.135.043.316.256.286-.169-.058-.152-.18-.256-.286m-58.178.649-.026-.286.026.258Zm7.825-.286h0Zm50.789,0h0Zm6.275,0h0Zm-63.027.758c-.074-.289,0-.455-.181-.683-.521.107-.072.64.181.683m6.072-.575c.059.349.31.712.148.153-.135.046-.089-.138-.148-.153m50.962,0h0Zm-49.566.075h.031v-.075h-.031Zm-7.112.257h-.075v.183h.075Zm.967.06h-.076v.123h.076Zm55.556.3c-.057-.135-.235-.163-.308-.3-.494-.016.268.227.308.3m-58.768-.148h.026v-.079h-.026Zm8.818,0a.315.315,0,0,1,.136.148c.061-.163-.09-.148-.136-.148m57.14.072h-.079v.076h.079Zm-56.291.108h0Zm49.254,0h.028v-.076h-.028Zm-41.86,1.014c.162.226-.193.382-.1.619a5.074,5.074,0,0,1,.535-.619c-.1.455-.414.683-.28,1.092.238.078.147-.395.387-.395-.015.258-.3.638-.031.8.6-.348.359-1.06.315-1.424-.226-.652-.868-.667-1.33-1.016.076.53-.055.713.507.94m-17.036-.65-.026-.107h.026Zm9.076-.034c.031.064-.1.3.1.214.046-.136-.059-.136-.1-.214m1.919,0h.046v-.074H177.4Zm47.619.186h0Zm-58.614.286-.026-.226.026.121Zm22.855,0c.133.333.806.15.4-.106-.24-.076-.24-.046-.4.106m35.994-.226c.074.087.089.121-.061.153.011-.048-.075-.213.061-.153M174.49,97.2a.268.268,0,0,1-.148-.334.3.3,0,0,1,.148.334m51.092-.258h-.026l.026.106Zm-59.173.152h-.026l.026.106Zm8.647-.08h.029v.08h-.029Zm.683.08c-.074.15.118.12.1.214.044-.136-.057-.136-.1-.214m28.983.136a3.392,3.392,0,0,0-.06,1.064c.33.024.551.331.718.572a16.291,16.291,0,0,0,2.734-1.516,5.9,5.9,0,0,1-1.632-.256,4.8,4.8,0,0,0-1.76.136m9.005-.136h0Zm-39.822.649c.258.05.091-.225.048-.331-.176-.062-.136.212-.048.331m59.149-.256h-.071v-.074h.071Zm-58.432.334c.238-.044,0-.2,0-.286-.165-.078-.165.243,0,.286m49.963-.286h.032v-.077h-.032Zm-49.148.243c-.145.075-.145.016-.131-.181.073.028-.014.238.131.181M173.7,98c.19.089.077-.151.1-.226-.417-.353.03.211-.1.226m2.5,0c.134-.137.074-.21.029-.335-.343-.15-.135.275-.029.335m7.855-.183-.044-.153.044.049Zm28.672.473c.079-.214-.151-.184-.074-.4-.312-.26.059.26.074.4m-24.891-.367c-.046.183-.312.09-.312.289a.508.508,0,0,1,.312-.289m15.5,3.2c.265,0,.03.438.31.33.061-.24.031-.422.254-.514.312.336-.119.666-.075.988.136.028.166-.05.251-.077.031.456-.414.834-.251,1.242.31-.118.211-.62.505-.8.06.467-.147.816-.1,1.239.448-.652.253.441.716.246a33.13,33.13,0,0,1-1.3-5.851c-.577.85-.234,2.185-.31,3.2M174.06,98.544c.011-.289.4-.255.131-.519-.177.217-.4.306-.131.519m.713-.074a.249.249,0,0,0,.135-.445c-.27-.013-.093.306-.135.445m35.305-.445c.255,2.185,1.566,4.2,2.22,6.289-.076-.392.178-.663.1-1.015-.844-1.678-1.306-3.6-2.095-5.164-.075-.03-.092-.151-.228-.11m2.4,3.715c.432-1.2-.7-2.4-.965-3.6-.551.832.577,2.514.965,3.6m-1.812-3.635a24.251,24.251,0,0,0,1.737,4.515,23.432,23.432,0,0,0-1.666-4.515Zm-35.1.149c-.089.17-.031.728.21.319-.135-.058-.014-.319-.21-.319m33.881.059a51.58,51.58,0,0,0,2.646,7.427c.255-.123.211-.574.135-.877-.62-2.032-1.829-4.3-2.528-6.55Zm-32.988.079c.029.108-.089.381.107.334.045-.169-.062-.211-.107-.334m48.312.108c-.059.194.091.073.138.12-.059,0-.033-.166-.138-.12m-1.292.8c0-.244.039-.547-.179-.73a.624.624,0,0,0,.179.73m-11.786,6.622c-.3-2.636-1.893-4.8-2.6-7.278.223,2.607,1.711,4.866,2.6,7.278m.788-7.169h-.028l.028.106Zm12.647,0h.029v-.075h-.029Zm.183.077h.028v-.077h-.028Zm-12.787.178h0Zm-35.784.156-.041-.074h.041Zm31.966-.074c.594,2.117,1.07,4.649,2.5,6.391-1.03-1.743-1.385-3.882-2.114-5.743-.224-.121-.181-.528-.385-.649m15.665.1h-.058l.134.106Zm-45.71.258c-.1.044-.1-.078-.026-.186.058.016.026.124.026.186m1.429.073c.165.017-.012-.183.149-.258-.268-.133-.1.212-.149.258m21.117-.183c.159.879-.865,1.351-1.179,2.034-.833.545-2.084.558-2.8,1.242,1.249.286,2.233-.82,3.467-.623-.177-.258-.4.045-.356-.258.865-.59.906-1.621,1.323-2.4Zm7.173.183h-.079v-.182h.079Zm16.246-.073-.032-.11h.032Zm-45.279.135-.029-.108h.029Zm-2.425.122-.043-.076h.043Zm46.422-.076c0,.242.165.378.137.575-.047-.2.117-.65-.137-.575m-20.712.106a1.646,1.646,0,0,0,0,.879c.18-.06.18-.32.358-.41.032-.318-.029-.589-.358-.468m6.356,2.289a5.773,5.773,0,0,0-.51-2.289,3.709,3.709,0,0,0,.51,2.289m-28.54-2.213c-.089.18-.134.242.046.212-.014-.062.028-.2-.046-.212m32.437,0c-.028.2.145.059.24.1-.112.017-.253,0-.24-.1m-15.654.62c-.566,1.121-1.932,1.091-2.811,1.772-2.1.713-4.256.515-6.3,1.318-.71-.7-.011.454.047.546,3.529-.591,6.815-2.423,10.492-2.878-.282-.5,1.027-.486,1.145-1.123-.134.136-.208.09-.313.062.017-.122.161-.168.241-.244a17.944,17.944,0,0,1-2.5.546m-18.208-.3h-.062v-.215h.062Zm-.895,0L178.09,100l.031.032Zm1.47-.138c.046.049-.044.366.137.138.059-.152-.091-.152-.137-.138m29,3.018a29.854,29.854,0,0,0-.713-2.941,5.78,5.78,0,0,0,.713,2.941m-18.9-2.623c.119.046.059-.138.148-.138-.061.046-.207.03-.148.138m35.278.107c-.166-.015-.283-.259-.432-.245-.04,0,.223.4.432.245m-45.635,0h-.1v.185h.1Zm.611,0c-.074.075-.151.211-.1.257.267.136.06-.226.1-.257m45.308.257c-.107.061-.077-.106-.136-.106Zm-46.17.26-.031-.109h.031Zm45.14-.109c.211.2,1.1.791.39.141-.224.1-.178-.215-.39-.141m-16.858.08a20.8,20.8,0,0,0,1.61,4.754c-.21-1.606-1.131-3.043-1.457-4.652-.077,0-.046-.166-.153-.1m18.242,0h.047v-.08h-.047Zm-48.67,2.859c1.087-.513,1.489-1.832,1.965-2.8a12,12,0,0,0-1.965,2.8m2.784-2.726c-.091.076-.122.09-.137-.073.046.027.2-.06.137.073m22.392-.073c-.194.494-.52,1.209-.073,1.5a6.793,6.793,0,0,0,.073-1.5m-21.709.256a.157.157,0,0,0-.147.148c.043-.055.16-.3.147-.148m.714-.079h-.07v.155h.07Zm9.361,0h-.073v.079h.073Zm35.561,0h-.073v.079h.073Zm-24.593.123a1.266,1.266,0,0,1-.226.1c.086.019.075-.178.226-.1m23.57,0c.128.063.325.365.236.139-.136.014-.147-.139-.236-.139m1.128,0h0Zm-17.679.319h-.056v.075h.056Zm-29.276.107a5.041,5.041,0,0,0-1.537,2.073c.955-.06.955-1.317,1.537-1.74Zm.86.074-.031-.074h.031Zm.564.047h0Zm9.581.213v-.03a3.167,3.167,0,0,0-1.548.288c1.044-.471,2.087.178,3.114-.471a5.966,5.966,0,0,1-1.567.213m18.5.285c.013-.225-.181-.257-.106-.5-.208.1.088.33.106.5m-32.288-.438c-.088.124-.21.3,0,.154Zm3.209.365h-.029l.029.122Zm8.543.225c.134.049.251-.2.359-.151-.133.048-.359.018-.359.151m-8.716-.073a6.648,6.648,0,0,0-1,1.3c.569.056.656-.684,1-.972Zm44.563.073-.033-.073h.033Zm-49.6.032h0Zm34.49.44-.027-.077h.027Zm.078.258-.029-.156.029.048Zm-.282.026a9.167,9.167,0,0,0,.709,2.109c.182-.758-.592-1.242-.577-1.955-.132.06-.074-.138-.132-.154m1,.41c-.089-.182-.194-.226-.182-.41-.162.2-.04.367.182.41m-30.323,0c.1.032.176-.2.249-.182,0-.348-.236.124-.249.182m6.248.183a18.532,18.532,0,0,1,3.033,2.938c1.178.226,2.233.121,3.37.256,1.247-.118,1.96-1.513,3-1.379-.179-.362.239-.623.489-.8-1.187.394-2.1,1.211-3.165,1.666-.61.211-1.293.3-1.607-.077a1.467,1.467,0,0,1,.77-.138c-.1-.21-.369-.044-.309-.288a22.715,22.715,0,0,0,2.35-.907c-.209.031-.434.059-.64.106a5.833,5.833,0,0,0,1.176-.958c.369.139-.03.309-.105.44.474-.773.773-.06,1.351-.545a.887.887,0,0,1-.175-.394,4.061,4.061,0,0,1-1.147.077c.029.365-.285.543-.416.787-1.653.624-3.167-.136-4.761.363a13.6,13.6,0,0,1-2.427-.785c.148-.4-.371-.365-.49-.622-.27-.076-.237.106-.3.257m18.57-.226-.03-.031.03.138Zm5.966,1.454c.178-.5-.266-.895-.461-1.3-.1.531.268.834.461,1.3m-5.743-.623c.134-.118.493-.35.283-.5-.254-.062-.283.33-.283.5m.744-.392c-.372.12-.533.728-.493,1.015.286.167.286-.426.493-.44Zm-22.629.076c-.361-.034-.213.652,0,.4Zm13.091.573a3.755,3.755,0,0,0,.966-.47.83.83,0,0,0-.966.47m-16-.318-.029-.076h.029Zm-1.173.547h0Zm26.5.682c.058-.181.22-.229.28-.362.075-.806-.341.241-.28.362m-24.866-.212c.149.077.122-.21.224-.287-.15.106-.267.138-.224.287m-4.24-.045-.044-.183.044.079Zm3.7.076c0-.014-.116.12-.176.076.029.014.265-.455.176-.076m.044.619c.137.049.168-.076.208-.178.018-.35-.282.117-.208.178m-.4-.178c-.062.012-.169.148-.212.256-.03-.154.15-.334.212-.256m9.355.33c.179.032.24-.1.356-.153.21-.572-.356-.029-.356.153m1.355-.408c.062.107-.1.09-.1.154.029-.064-.091-.214.1-.154m.581.107h-.329v.148h.329Zm.284.148h.2c.15-.272-.235-.1-.2,0m14.387,0-.031-.076h.031Zm-16,.11c-.075,0-.029.195-.148.149-.059-.106.086-.106.148-.149m.1.333c.181.01.133-.184.223-.258-.191.044-.268.12-.223.258m.359.1a1.973,1.973,0,0,0,.993-.149c-.132-.273-.429.149-.564-.03-.223-.169-.459-.046-.429.179m4.893-.1h.034v-.076h-.034Zm15.206,2.1c.21.079.166-.151.33-.151a3.8,3.8,0,0,0-.645-1.922c-.369.527.079,1.376.315,2.073m-29.64-1.426c.135.062.21-.088.224-.136-.014-.15-.283.049-.224.136m28.869-.028c.039.044.029.195.132.15.044-.122-.132-.072-.132-.15m2.735.212c-.017-.017-.06.182-.132.12.014.016.114-.516.132-.12m-31.915.152c0,.135.026.333.133.152.058-.168-.089-.168-.133-.152m31.737.333-.033-.151.033.033Zm2.083-.043c-.169.043-.106.317-.355.255-.076.3.072.3.28.289.179-.049.089-.413.075-.543m-32.974.543c.106.061.091-.09.15-.139.016-.165-.105.09-.15.139m.787-.212c.017.073-.192.3.046.212-.013-.077.018-.2-.046-.212m17.473.317c.386.168.161-.274.074-.317-.139-.014-.061.273-.074.317m-7.012,2.045c.671-.85,1.385-1.409,2.012-2.18-.952.485-1.3,1.438-2.012,2.18m6.651-1.894h-.071v-.286h.071Zm-4.255-.213a5.218,5.218,0,0,0-.994,1.2c.34-.274.742-.773,1.039-.985-.014-.079.017-.2-.045-.213m-15.816.106h0Zm31.632.26c.121.045.195-.105.228-.153-.016-.2-.285-.016-.228.153m-.817.6c.032.229.266.213,0,.439-.222.32,0-.288-.177-.316-.491.076-.283.666-.711.788-.18-.094-.032-.288,0-.366-.7.5-1.684.41-1.863,1.427.655.346.922-.608,1.5-.728-.178.669-1.089,1.091-1.175,1.848a19.959,19.959,0,0,0,1.457-1.7c0,.772-.727,1.2-1.1,1.816a2.162,2.162,0,0,1,1.431-.694c-.627.437-1.413.832-1.605,1.666a15.717,15.717,0,0,1,1.247-1.378c.06.03.031.106.031.15a5.226,5.226,0,0,0,1.965-.982c-.207.482.343.12.5.18-.344.531-1.457.713-1.174,1.3.5-.2.7-.787,1.248-1.094-.132-.967.523.171.258.366.1-.151.147-.211.277-.137-.356.32-.444.667-.861.91-.193-.2.283-.47.326-.726-.623.044-.713.667-1.218.8-.165.363.612.292.536.868.58-.305.745.7,1.473.437.016-.242.283-.516.459-.437a15.775,15.775,0,0,0,1.891-2.441,10.462,10.462,0,0,0-.607-2.786,9.758,9.758,0,0,0-4.111.784m-26.708-.316a12.506,12.506,0,0,1,0,2.94c.3-.153.548.3.745-.033-.3-.014-.15-.405-.36-.36.2-.246.539.21.867.131a1.364,1.364,0,0,0-.867-.495l.048-.624a3.153,3.153,0,0,1,1.919.988c1.758.665,3.5-.139,5.222.573-.1-.363-.534-.619,0-.729a16.252,16.252,0,0,1-.967-1.637,22.984,22.984,0,0,0-3.066.184c-1.145-.028-1.784-.788-2.724-1.348-.476-.111-.533.15-.817.408m-2.289-.259c-.093.076-.136.468.043.213-.014-.061.032-.2-.043-.213m.757.213c-.175.255-.138-.137-.042-.213.075.016.027.152.042.213m11.028,0c.084.075.13-.123.147-.109.015-.224-.1.062-.147.109m-12.5-.137c-.34.349-.785.711-.848,1.122.521.178.4-.747.848-.807Zm2.262,0c-.312-.046-.207.272,0,.315Zm8.6,0h0Zm8.135,0h.046v-.076h-.046Zm-.431.183c.075.455-.046.849.22,1.2l-.04-.44c-.105-.226.1-.68-.18-.755m-18.167.18c-.192.275-.55.637-.459.937.145-.178.326-.392.49-.572Zm12.526,0c-.163.013-.117.259-.251.213-.015-.151.167-.032.251-.213m1.684.76c.192-.123.073-.456.073-.683-.369.1-.223.455-.073.683m-13.674-.288c-.089-.106.116-.088.1-.106.028-.288-.076.074-.1.106m.817-.212c-.25.089-.121.562,0,.286Zm18.388,0c-.061.242.118.364.107.576-.031-.2.089-.516-.107-.576m9.749,0h0Zm-17.319.212c-.134.016-.164.152-.256.182.018-.078.256-.3.256-.182m1.041-.074h-.047l.047.074Zm-15.221.256-.029-.078h.029Zm15.042,0c-.045.028-.029.06-.106.106.032-.028.092-.228.106-.106m.178.334a.8.8,0,0,0,.461-.334c-.151-.122-.372.152-.461.334m-3.467-.182c-.073.195.148.182.208.286a.414.414,0,0,0-.208-.286m8.034,0c0,.394.374.785.178,1.2.253-.246.091-.8-.028-1.2Zm11.354,0a3.854,3.854,0,0,1-.669.727c.087-.306.445-.5.669-.727m-29.029.394c-.014-.12.116-.168.177-.262-.119-.1-.237.126-.177.262m12.467,0a1.643,1.643,0,0,1,.313-.262c-.029-.116-.3.142-.313.262m-14.047.256c.091-.152.075-.182.18-.256.162-.5-.43.074-.18.256m2.4-.468H180.8v.212h.073Zm17.676,0c-.088.178-.135.239.046.212-.013-.076.016-.2-.046-.212m-7.067.212c-.059-.107.106-.076.106-.152Zm16.574.181c.094.033.1-.2.208-.181.016-.349-.28.121-.208.181m-28.819-.256c-.074.1-.148.226-.074.332.148-.016.117-.256.074-.332m20.712.18c-.166.094-.059.152.028.228,0-.076.029-.212-.028-.228m7.423.109h0ZM179.8,110.8l-.026-.044.026.148Zm-1.5.136a5,5,0,0,0-1.28,2.182c.554-.212.967-1.136,1.28-1.741Zm2.042,0c0,.121-.017.413.148.106.042-.2-.106-.062-.148-.106m-1.46.074c-.25.032-.135.138-.074.262.211.284.029-.23.074-.262m34.775.18c.075-.014.088-.118.149-.18-.048.032-.209.047-.149.18m-34.106.26h-.055v-.228h.055Zm27.47-.286h.031v.058h-.031Zm3.316.058h.046v-.058h-.046Zm-19.46.3a.261.261,0,0,0-.074-.226c-.356-.091.043.138.074.226m15.429-.119c-.058.014-.1.135-.179.119.062-.014.1-.134.179-.119m6.606,0a22.4,22.4,0,0,1-2.244,2.362c.667-.755,1.53-1.558,2.244-2.362m.564,0h0Zm-33.418.23-.031-.156.031.044Zm33.317-.156c-.077.092-.122.14-.21.229a2.855,2.855,0,0,1,.21-.229m-34.849.182c-.267-.026-.267.7,0,.229Zm32.065,1.637c.577-.5,1.074-1.09,1.573-1.561a6.313,6.313,0,0,0-1.573,1.561m-31.529-1.485c.044.044-.043.365.137.138.056-.151-.092-.151-.137-.138m33.879,0c-.5.441-.581,1.032-1.026,1.3a10.609,10.609,0,0,0,1.072-1.165c-.019-.044.023-.151-.046-.138m-22.706.107c.372.271.642.544,1.041.437-.071-.316-.563-.21-.786-.437Zm22.111,1.121c.3-.516.877-.561,1.03-1.121a9.307,9.307,0,0,0-1.03,1.121m-14.684-.864a4,4,0,0,0,.073,1.12c.446.318.477.817.925.984,0-.242.37.014.356-.212h-.386c-.433-.574.163-1.074-.288-1.527-.411-.289-.234.255-.429.434.018-.225-.178-.271-.105-.513-.207.03-.041-.242-.146-.286m-19.567.076c-.282.5-.564,1-.79,1.406.479-.132.508-.725.821-1.166Zm.539,0c-.2.061.07.788.149.211-.2.061-.062-.2-.149-.211m4.788.211c.18.242.106.423.283.547-.417.274-.372.879-.817,1.167.132.847.145,1.77.235,2.576.658-.228.507-1.364.687-1.952-.118-.229-.419-.321-.434-.551.419-.5,1.118-.439,1.608-.485.15.274.609.38.791.589.549.079,1.172-.208,1.677.108a12.27,12.27,0,0,0,.967,1.975c.195-.367-.4-1.066-.429-1.611a5.9,5.9,0,0,0,1.175,1.611c-.062-.551-.654-.987-.716-1.46.153-.331.451.336.435-.151.22.758.966,1.122,1.321,1.671-.444-.653-1.176-1.4-.935-2.035.444.793.881,1.743,1.71,2.077a5.369,5.369,0,0,1-1.024-1.634c.788.531.979,1.543,1.888,1.848-.417-.214-.491-.895-.864-1.048-.1-.3.255-.09.3-.256a4.677,4.677,0,0,0,1.25,1.227c.418.182.73.212,1.1.362-.283-.818-1.593-1.181-2.116-2,1.013.9,2.176.518,3.114,1.4.221-.277.939.088,1.321-.186.3-.272.657-.437.791-.772a7.638,7.638,0,0,1-3.184-1.092c-2.677-.654-5.206-1.193-7.887-1.739,1.088-.488,2.233.467,3.29.1,1.636.225,3.272,1.272,4.925,1.272.162-.18,0-.365,0-.545a53.587,53.587,0,0,0-8.678-1.122c-.607-.407-1.248.292-1.784.107m22.81-.076h0Zm-23.39.471c.046-.2.356-.2.4-.4-.177.061-.564.213-.4.4m12.542.515h.491a.852.852,0,0,0-.18-.91c-.191.273-.072.591-.312.91m-16.039-.622-.029-.21.029.106Zm17.6.7c.016-.332.016-.7-.359-.8-.237.347.089.62.359.8m8.928-.8h.041v-.08h-.041Zm-28.139,1.117c.237-.211,1.011-.54.564-.969-.372.288-.4.607-.564.969m27.855-.907c-.031,0-.091,0-.1.044.03-.016.133-.226.1-.044m1.46,0-.031-.062h.031Zm-26.607.907c.626-.074.879-.637,1.474-.862-.58.092-1.28.306-1.474.862m29.818-.725c-.045-.106.12-.076.12-.138Zm-31.306.12h0Zm26.172,0h.031v-.076h-.031Zm6.562.179c-.1.047-.132.2-.21.246-.011-.138.15-.168.21-.246m-1.309.064c-.046.06-.046.182-.12.182-.045-.122.092-.106.12-.182m1.638,0h.031v-.064h-.031Zm-17.855.3c-.21.545.448.364.682.364.016-.152-.013-.454-.251-.44-.15.018-.3-.058-.431.076m4.537-.076h0Zm-3.57.548a32.283,32.283,0,0,0,3.285.573c-.816-1.091-2.051-.409-3.08-.906-.385-.215-.13.225-.2.333m-15.757.03c-.077.286.121.226.249.147.138-.268-.22-.1-.249-.147m11.648.1c-.045-.016-.045-.061-.045-.1-.176-.046.033.074.045.1m-1.4,0c0,.318.4.79.15.183-.165.061-.064-.153-.15-.183m1.472.183c.267.11.626.9.237.184-.074-.064-.1-.2-.237-.184m-3.156.256h-.058v-.178h.058Zm5-.179c-.013.106-.1.21-.061.333.2.046.048-.227.061-.333m-6.562.074a1.96,1.96,0,0,0,.847,1.669,8.043,8.043,0,0,0-.561-1.2c.058-.315-.24-.256-.285-.47m.535,0a3.957,3.957,0,0,0,.434,1.24c.313.169.355.562.667.4-.132-.576-.7-1.026-.79-1.635Zm-1.042.288a8.008,8.008,0,0,0,.327,1.241c.287-.36-.234-.771-.175-1.059-.165.061-.059-.165-.152-.182m5.1.545c0,.062-.089-.076-.133-.109.044,0,.031.171.133.109m6.146.153a3.662,3.662,0,0,1-1.993.983c.193.516.713-.032,1.07.062a12.741,12.741,0,0,1,.923-.909Zm1.147,0a6.074,6.074,0,0,1-3.14,1.453.528.528,0,0,0,0,.5,2.716,2.716,0,0,0,1.1,0,4.133,4.133,0,0,0,2.039-1.481c-.2.192-.491.164-.565.434-.2-.515.415-.3.565-.653Zm-13.779.573c-.165.091.044.243.028.292-.013-.092.031-.246-.028-.292m9.493.26h0Zm.18.074c.342.184.892.138.208.029-.075-.071-.135-.029-.208-.029m-8.72.258c.193,2.089,1.4,3.681,1.784,5.773-.757-1.849-1.486-3.817-2.067-5.664-.221,1.919,1.1,3.843,1.4,5.769a24.619,24.619,0,0,1-2.066-5.7c.044,2.136,1.086,4.15,1.534,6.243a26.768,26.768,0,0,0-1.608-3.56,24.231,24.231,0,0,1,.966,4.695c.849-.3,1.578.092,2.381,0,.4-.712.4-.092-.032.18-.894.09-1.666-.242-2.5.184-.056.392.076.79-.177,1.2-.209.171-.477.153-.712.334a1.623,1.623,0,0,1-.286-1.092c-.488-.166-.369.352-.639.549a27.682,27.682,0,0,0-.864,3.454c.509.181,1-.352,1.5-.258a.966.966,0,0,0-.251-.625c.192-.043.163-.346.432-.363a10.5,10.5,0,0,0,2.752.7c-.046-.4-.5-.529-.433-.8.255.259.567.531.892.8.255-.042.668.105.745-.154-.252-.391-.607-.481-.607-.8,1.367,1.726,3.6,2.741,5.292,4.1-1.738-.728-3.421-2.286-5-2.97,1.7,1.819,4.211,2.472,5.742,4.366-.372.546.818,1.2.18,1.815-.255-.558-1.1-.967-1.5-1.636a14.94,14.94,0,0,0-4.14-1.24c-.518.151-.984.483-1.4.619-.671.049-1.238-.513-1.86-.362-.15.242-.668.18-.894.438,1.146.2,2.173-.228,3.261.107-.137.211-.2.316-.36.316,2.367.653,4.494,1.865,6.682,2.41.475.213.758.864,1.248,1.166-.089-.5-.536-.713-.787-1.089.612-.939.623-2.033,1.607-2.546,1.28-.531,2.543-1.333,3.882-1.867a6.32,6.32,0,0,1,1.073-.982,9.329,9.329,0,0,0,.835-2.576,23.383,23.383,0,0,0-.253-2.88c.446,1.56,1.146,3,.969,4.514-.327,1.185-1.3,1.806-1.968,2.7a1.673,1.673,0,0,0,1.382-.59c.258-.426.493-.762.763-1.167a7.143,7.143,0,0,0-.077-3.272c-.549-1.409-.773-3.153-1.471-4.242.165.394.4.787.251,1.194-.327-.512-.177-1.286-.789-1.5-.058.3.255.59-.179.727-.118-.38.032-1.029-.488-.969a3.335,3.335,0,0,1,.252,1.665.959.959,0,0,1-1.011.334,14.55,14.55,0,0,0-3.4-1.5c1.565-.229,2.755,1.241,4.228,1.061a2.213,2.213,0,0,0-.359-1.68c-.281-.018-.505-.018-.505.3-1.16-.273-2.528-.668-3.779-1.032-.43-.42-.936-.815-1.427-1.225.014.12-.06.074-.075.1a10.25,10.25,0,0,1-1.043-1.346c.387.061.552.331.864.516,0-.108-.025-.229.028-.291.583.291,1.522.473,1.76.835.522.032,1.25.286,1.56.073.359.124.315.64.759.654.032-.1-.055-.288.076-.334.208.061,0,.455.315.363-.852.092-1.862-.345-2.709-.208-.15.134-.017.288,0,.44,1.2.88,2.692.542,3.956.862.06-.272-.086-.4-.13-.576.549-.107.145,1.045.846.683-.118-.608-.476-.957-.567-1.517a20.886,20.886,0,0,0-6.4-3.09c-1.205-.076-2.454-.714-3.6-.59a26.158,26.158,0,0,0-3.794.044m8.389.183c-.086.652.582.378.893.5.225-.168.047-.395.047-.5-.22-.018-.434-.108-.64-.121-.028-.136-.265-.016-.3.121m-10.489,2.363c.729-.665.044-1.441.029-2.151-.5.484.061,1.423-.029,2.151m3.321-.665c.473,1.893,1.248,3.786,1.859,5.68-.062-1.97-1.386-3.816-1.786-5.68Zm5.785.182c-.044-.017-.044-.062-.044-.107-.178-.044.032.072.044.107m.79.15c-.031.062.031.106.059.15-.09.016-.283-.179-.059-.15m-8.927.545c.265.094.031-.3.059-.363-.133.014-.046.245-.059.363m3.213-.256a8.276,8.276,0,0,0,1.381,3.242c-.327-1.092-.994-2.063-1.2-3.063-.178.093-.117-.147-.178-.18m6.129.409a2.285,2.285,0,0,0,1.117.424c-.236-.424-.77-.378-.966-.653-.27-.089-.107.139-.151.229m1.19.91c-.089-.348-.581-.456-.787-.519-.057.307.536.474.787.519m-4.687-.44a8.007,8.007,0,0,0,2.039,2.211c-.389-.849-1.31-1.227-1.815-2.03-.029-.106-.235-.061-.225-.181m5.281.074h-.059v-.074h.059Zm3.188.03h.029v-.076h-.029Zm-2,.076h0Zm2.381.576a.319.319,0,0,1-.237-.392c-.208.256.027.544.237.392m-.894-.288c-.268.062.134.44.15.184-.164.059-.061-.168-.15-.184m1.4,0c.236.53.251,1.277.817,1.563.089-.319-.268-.533-.105-.806.163.41.3.852.641.985a3.956,3.956,0,0,0-.536-1.227c-.255-.136-.119.182-.255.288-.089-.15-.045-.425-.28-.467.061-.244-.254-.168-.282-.336m-.564.581h-.074v-.066h.074Zm-14.642.3h0Zm.1.471h.029v-.074h-.029Zm.074.259c.015.752.088,1.511.059,2.284.163-.012.4.017.475-.1a6.457,6.457,0,0,0-.325-2.123c-.091.015-.194,0-.209-.058m8.628,0h.047v-.076h-.047Zm5.3.466c.016-.15-.176-.2-.115-.408.016.135.131.258.115.408m3.4-.15c.878,1.787,1.158,3.833,1.962,5.681a24.379,24.379,0,0,0,0,2.94c.371.164.539-.287.853-.363.1-.561-.049-1.1,0-1.636-.434-2.424-1.67-4.535-2.609-6.623Zm-2.725.363-.029-.1h.029Zm.284.518a.746.746,0,0,0-.135-.41c-.222.044.091.256.135.41m-4.745-.228c-.328.453-.772.847-1.254.727a1.886,1.886,0,0,0,.761.12,5.382,5.382,0,0,1,.539-.619c-.019-.078.011-.2-.046-.228m-5.669.178c1.363.214,2.813,1.412,4.135,1.214-1.308-.242-2.646-1.074-3.928-1.164-.075-.078-.148-.034-.207-.05m-4.686.08c-.434,0-.285,1.241,0,.468Zm17.139.18h.047v-.076h-.047Zm1.5.076c.55,1.651,1.533,3.105,1.963,4.757.209.773-.044,1.669.253,2.335.3-.017.667-.334.925-.184-.315.09-.523.212-.79.29a2.344,2.344,0,0,0-.209,2.151c-.551,1.381-.477,2.771-1.281,4-.536-1.5.91-2.558.671-4-.489.09-.718.665-1.07.986.088-.4.3-.638.353-.986-.693.3-1.157,1.274-1.677,1.922a1.871,1.871,0,0,1-1.175.258c.059-.6.937-.727,1.4-1.135a5,5,0,0,1,.462-1.045h-.536c-1.445,1.333-2.484,3.087-3.9,4.47a1.5,1.5,0,0,0-.18.877c.255.016.267-.452.3-.59.181-.21.955-.184.716,0a1.769,1.769,0,0,1,1.311.106c.074.413,0,.8.4,1.057.075-.377-.387-.815-.223-1.193a5,5,0,0,0-1.489-.44,3.941,3.941,0,0,1,1.385-1.53c.954-.259,1.962-.047,2.857-.728.059.41-.566,1.1-.537,1.712-.192.486-.82.772-1.026,1.17.017.226-.076.527.061.678.357.063.729-.425.936,0a4.564,4.564,0,0,1,1.818-1.088,12.347,12.347,0,0,0,1.038-2.137c.524-.773,1.477-.336,2.22-.695.313-1.579-1.074-2.444-1.044-3.9a15.93,15.93,0,0,1,.147,2.772.942.942,0,0,1-.787.14,16.183,16.183,0,0,0,.285-3.094c-.21-.134-.312-.044-.465-.1-.011-.2.209-.06.284-.181a19.088,19.088,0,0,0-1.221-3.17c-.758-1.149-1.474-2.331-2.1-3.482Zm-9.821.106h-.148l.045.106Zm7.352.333h-.062v-.074h.062Zm.074.182-.03-.074h.03Zm-16.325.107c-.34.073-.266.635,0,.211Zm16.37.1a8.636,8.636,0,0,1,.132,3.2c-.132-.048-.046-.262-.073-.4a5.573,5.573,0,0,0-.417,1.122c-.166.139-.3-.1-.357-.1-.213.56-.09,1.194-.5,1.708a7.453,7.453,0,0,1-1.5,1.457c.906,0,1.292-1.014,2.068-1.425a7.84,7.84,0,0,0,1.041-2.469,9.845,9.845,0,0,0-.327-3.094Zm-16.248.88c-.029.244.148.381.178.576.3.122.4-.333.534-.438-.028-.289.061-.65-.074-.865-.518-.046-.461.426-.638.727m4.88.682c.312.623.67,1.229,1.04,1.866.847.528,1.549,1.65,2.68,1.923-1.188-1.179-2.738-1.757-3.5-3.35.106-.271-.283-.178-.223-.438m13,.122h0Zm-14.312.729h0Zm15.132,0c-.106,1.543.356,3,0,4.5.326.15.178-.257.458-.184a19.09,19.09,0,0,0-.311-3.816c0-.229-.147-.319-.147-.5m-14.955.136c.328.895,1.131,1.2,1.564,1.925a26.247,26.247,0,0,0,4.893,3.212c-1.265-1.5-3.5-2.078-4.852-3.348-.429-.731-1.25-.956-1.549-1.788Zm-.655.363c0,.061-.088-.074-.133-.107.045,0,.028.168.133.107m3.614,0a9.108,9.108,0,0,0,3.35,2.591c-.444-.486-1.1-.666-1.534-1.089-.029-.2,0-.531.225-.548.132.213.441.362.209.607.34.18.058-.3.356-.288.254.772,1.266.44,1.887.91-.489-.291-.3-.727-.635-1.016a1.569,1.569,0,0,1-.033.441c-.519.106-.029-.625-.431-.625.043.214-.105.3-.15.474-.384-.183-.222-.58-.206-.837-.226.166-.057.517-.36.547.118-.967-.77.395-.757-.621-.208.088-.013.515-.208.77-.563-.086-.879-.77-1.4-.879-.016-.212-.389-.148-.313-.438m-3.464.183-.031-.106h.031Zm-1.178.107h.029v-.064h-.029Zm-5.253.148h-.145v-.076h.145Zm12.962.031h.043v-.061h-.043Zm-4.422.225-.041-.148.041.046Zm2.916-.148h0Zm-8.495.255a5.2,5.2,0,0,0,2.544,1.063c.064-.3-.372-.316-.354-.547-.627-.136-1.238-.622-1.83-.544-.074-.062-.3.014-.359.028m11.606.111c-.163.09-.163,1.059,0,.285Zm-14.636.362c.175.136.07.483.325.41,0-.136-.016-.335.073-.41.18-.5-.327,0-.4,0m5.534.183a29.147,29.147,0,0,1,2.647,1.453c-.37-.608-1.191-.8-1.575-1.3-.213-.277-.718-.106-1.072-.151m3.926,0a6.117,6.117,0,0,0,2.042,1.453c-.567-.471-1.312-.865-1.939-1.453Zm-8.139.727c.923.59,2.114.132,3.066.77-.21.318-.686-.195-.952.03.49.212.937.425,1.457.622a15.053,15.053,0,0,0,2.247-.079c.135.654,1.547.35,1.681,1.247.387.012.653.028,1,.059-1.208-.558-2.039-1.879-3.17-2.421-1.01.014-1.893-.637-2.83-.881-.89-.214-1.663.653-2.5.653m13.136-.5-.027-.075h.027Zm-14.457.68c.5.15.979.668,1.534.47-.406-.562-1.166-.668-1.641-1.046-.432-.013.032.423.107.575m14.564-.136h0Zm-1.965.546c-.1.392.716.072.9.5-.047-.3-.449-.3-.6-.5Zm-3.78.682c.121.044.2.378.326.257.018-.257-.326-.031-.326-.257m-6.173.18c-.49.285-.652,1.062-1.325,1.062-.283.408.195.909.153.318,1.349.5,2.287-.926,3.6-.471v.046c.313-.046.745.092.924-.122-.773-.68-1.74-.091-2.35-.91-.328.031-.745-.058-1,.077m20.741.285c-.3-.073-.4.14-.64.127-.371.391-.213.785-.284,1.194.657.319.449-.544.924-.652Zm-16.278.366c-.047-.013-.047-.062-.047-.106-.175-.046.032.076.047.106m14.746.077c-.061.351-.477.468-.458.877.265.076.625-.107.564-.409.131.061.044.273.073.409.371.049.161-.619.385-.833-.088-.168-.369.074-.564-.044m-14.359,0c.24.272,1.369.272.535,0Zm14.567.468-.029-.135.029.031Zm-3.6.364c.164.228.5-.045.639-.106-.208.031-.43-.089-.639.106m3.5.41c-.168.438-.658.65-.539,1.045a4.655,4.655,0,0,0,.583-.652c-.106-.229.19-.273-.044-.393m-19.851.106h0Zm3.213,0h0Zm11.92.754c.328-.136.671-.634,1.009-.754-.564-.2-.74.516-1.009.754m-12.427.52c.18-.081.387-.536.462-.758-.268-.047-.475.465-.462.758m-.207-.52-.044-.136.044.034Zm-2.293.26-.029-.211.029.106Zm.226.363c.28.06.029-.363.31-.468-.339-.06-.339.285-.31.468m.593-.5c0,.1-.4.451,0,.313Zm19.1.059-.028-.059h.028Zm-18.8-.03h.028v.073h-.028Zm12.735,1.119h0Zm-.028.335-.029-.153.029.049Zm11.323.109c.057.6-.224,1.587.434,1.815-.39.046-.33.18-.33.44.238.178.417.12.534.287-.355-.879.15-1.862-.253-2.8-.2-.044-.192.275-.385.262M196.764,138.1a2.855,2.855,0,0,1,.432.4,4.808,4.808,0,0,0-.075-2.83,3.3,3.3,0,0,0-.357,2.434m7.368-2.434h-.079v.148h.079Zm-16.37.438a.4.4,0,0,1-.207-.364c-.522-.074.175.258.207.364m-4.6.286h0Zm19.46,0h0Zm-6.784,1.561c.134-.362-.433-.7-.638-1.045-.372.408.447.683.638,1.045m-13.288-.546a.66.66,0,0,0,.817-.029,1.765,1.765,0,0,0-.253-.292c-.3-.1-.431.169-.564.321m6.577-.029a4.777,4.777,0,0,0,1.069,1.2c-.265-.109-.4-.549-.535-.683-.24-.126-.357-.35-.534-.516m12.5.074c.091.288-.355.744.03.864Zm-.326.262h-.075v-.152h.075Zm-18.037,2a7.967,7.967,0,0,0-.562,2.211,7.89,7.89,0,0,1,.1-1.788,6.6,6.6,0,0,0-.354,3.349c.4.653.211,1.316.789,1.818a28.345,28.345,0,0,1-.3-4.29,4.279,4.279,0,0,0,.36-1.089c0-.076.03-.2-.032-.212m23.6.727c0-.09-.121-.182-.1-.3a.254.254,0,0,1,.1.3m-.533-.226c.059,1.107.474,2.29.577,3.346a13.561,13.561,0,0,0-.427-3.164c-.169.062-.064-.168-.15-.182m-.54.182a17.139,17.139,0,0,0-.637,4.435,1.184,1.184,0,0,1-.61.187c-.27-.958.135-1.894-.414-2.835-.286.517-.883,1.259-1.3,1.923-.223-.316.312-.741-.21-.752.032.3-.357.677-.073.934.238.094.1-.149.253-.209.21,1.451,1.5,2.6,1.858,4.061-.622-1.121-1.245-2.152-1.9-3.2a23.635,23.635,0,0,0,1.9,4.076c.4.228.06-.423.418-.287-.132-.181-.326-.516-.238-.7.107.156.238.458.495.258.455-.654.455-1.409.86-2.073.06.043.029.122.029.178.223-.362.387-.951.58-1.346-.162-.271.048-.637-.22-.79.143.683-.273,1.229-.359,1.925a15.192,15.192,0,0,0-.209-5.316c-.236-.014.013-.438-.225-.47m1.117.288c.343.8.195,1.486.462,2.229.265-.7-.324-1.548-.387-2.229Zm-17.065.847-.044-.076h.044Zm11.964,1.773c.328-.256.238-.635.207-.937-.443-.019-.519.681-.207.937m1.743-.467c0-.092-.12-.168-.107-.289.107.059.119.138.107.289m1.53-.289c-.192.184-.132.757-.209,1.045-.177.092-.163-.122-.209-.182v1.317c.389.1.15-.438.418-.647Zm-8.035.138c.3.468.476,1.088.757,1.527a2.774,2.774,0,0,0-.683-1.527Zm7.577,0h-.077v.545h.077Zm-2.326.117c-.267.276-.147.731-.1,1.018.237-.03.163-.5.328-.728-.225.032,0-.316-.225-.29m-4.64.065c.163.6.5,1.136.68,1.68.035-.1-.056-.289.075-.335.153.411.153.924.54,1.243a4.692,4.692,0,0,0-1.073-2.517c-.09.018-.191,0-.223-.072m3.971.725h.031v-.059h-.031Zm-.222.181c-.121.245.265.638.177.184-.177.09-.115-.151-.177-.184m.762.516c-.077-.076-.138-.106-.122-.257.073.075.136.108.122.257m-.794.514v-.36c-.251-.26-.164.272,0,.36m.434-.408c-.076.274.076.382.283.333.046-.239-.25-.149-.283-.333m.563.106c-.014.184.022.38.151.41-.03-.165.044-.4-.151-.41m-7.393.258h.043v-.074h-.043Zm.1.412-.1-.153.1.076Zm6.608.36a.524.524,0,0,0,.076-.512c-.27-.065-.047.331-.076.512m.608,0c.2-.12.016-.348.048-.512-.255-.065-.151.331-.048.512m-3.78-.043c-.026.214.122.256.076.471-.046-.153-.209-.428-.076-.471m3.933.332c.4,1.077,1.067,1.985,1.351,3.015-.342-.455-.358-1.077-.892-1.426a2.6,2.6,0,0,0,1.28,2.306c-.015-.272-.33-.5-.207-.7.219.029.207.379.43.513-.1-1.317-1.086-2.678-1.682-3.967-.194-.076-.225.107-.279.256m-.282.4c-.077-.228.249-.41,0-.545-.181.013-.181.362,0,.545m-3.543-.138.029.242Zm3.672.6c.2-.013.074-.288.106-.423-.194-.029-.058.274-.106.423m-.456-.1-.033-.075.033.18Zm.918.8c.272-.165-.011-.438-.029-.65-.254.091-.3.638.029.65m3.644-.465c.047.453-.116.966.151,1.375-.059-.468.118-1.152-.151-1.375m-4.234.289-.049-.111h.049Zm-.715.726c-.094-.063.029-.294-.12-.335.135.041.12.178.12.335m.918-.335c-.058.121.089.195.151.226-.193.046-.062-.2-.151-.226m3.646.226h-.075v.288h.075Zm-3.75.543h-.074v-.15h.074Zm.537,0-.046-.043.046.152Zm3.246-.107h.039v.063h-.039Zm-13.066.216-.045-.079h.045Zm12.632.181.044.258Zm-3.6.105h-.073v.258h.073Zm.436,0c.01.137.01.366.133.109-.061,0-.031-.156-.133-.109m.667.337c-.058-.079-.135-.109-.1-.261,0,.1.178.089.1.261m.835-.079h-.122v-.079h.122Zm-.688.289c.044.182,0,.378.153.408-.034-.165.041-.393-.153-.408m-8.063.071c-.312.081-.224.655-.359.911-.265.017-.058-.468-.327-.285a12.043,12.043,0,0,0-.638,2.94c-1.029,1.785-1.5,3.875-2.859,5.271.536.184,1.114-.727,1.206-.5a7.977,7.977,0,0,0,1.579-2.723c.746-1.5.919-3.53,1.4-5.273Zm4.03.081h-.105v-.082h.105Zm3.036-.081h-.074v.213h.074Zm.611.337c-.045-.124-.164-.165-.121-.337.195-.055.076.213.121.337m-.429.6c.253.016.042-.286.072-.422-.13.016-.062.334-.072.422m.637-.422c-.229.06.091.62.147.211-.193.061-.056-.2-.147-.211m.564,0c-.234-.076-.135.244,0,.291Zm-1.71.316h0Zm.892.334c-.131.046-.044.26-.076.4.208.029.046-.32.076-.4m.507,0h0Zm-21.858,4.318c.118.88.522,2.03.714,2.957.343.453.817-.168,1.041.316a7.335,7.335,0,0,0,1.634-1.636c-.325.455-.788.363-1.1.8-.032-.366.28-.514.492-.727a2.7,2.7,0,0,1-.97.468c.165-.151.507-.333.4-.544a.874.874,0,0,1-.435.257,1.247,1.247,0,0,1,.389-.546c-.238-.212-.579-.042-.357-.5-.283-.073-.3.289-.533.108.166-.137.417-.319.353-.548-.264.214-.757-.088-.815.258-.256-1.454.416-2.907.462-4.361a10.21,10.21,0,0,0-1.281,3.694m9.315-3.407h.043v-.074H190.8Zm2.217,1.226c.162.261-.075.713.326.592-.1-.195.268-1-.326-.592m1.219.516h-.073v.075h.073Zm-2.6,2.833a9.828,9.828,0,0,0,.062-2.469,6.16,6.16,0,0,0-.062,2.469m1.31-2.469a2.309,2.309,0,0,0-.029,1.016c.061,0,.045-.126.074-.183Zm2.9.106c-.313,1.2-.222,2.409-.433,3.606-.014.184.3.09.361.076.413-1.244-.032-2.362.46-3.528.133-.383-.21-.229-.388-.154m5.251.592c.282-.029.149-.3.361-.412-.243-.014-.3.229-.361.412m-10.679.18c.016.184.357.048.5.245a2.99,2.99,0,0,1,.179,1.273c.175-.655.37-1.35-.122-1.776a1.02,1.02,0,0,0-.561.258m5.993-.258h-.074v.214h.074Zm5.047.4c.13-.031.159-.139.2-.258-.03-.274-.252.133-.2.258m-18.689.046c-.153.15-.153-.046-.135-.184.074.013-.017.23.135.184m13.718.061-.031-.137.031.031Zm6.069.044c-.159.456-.495.822-.358,1.229.074-.5.807-.637.536-1.122-.105.046-.147-.077-.178-.107m-5.968.184h-.074v.134h.074Zm.073.468-.028-.213.028.1Zm-13.061.15h0Zm3.569.321c-.429.65-1.188,1.288-1.295,2.1.718-.289,1.042-1.091,1.535-1.7-.088-.119-.24.214-.283,0,.2-.438.743-.135.892-.438-.043-.033-.132-.137-.132-.076-.256-.105-.536.091-.718.107m-3.258,0c-.265,0-.193.287,0,.18Zm.076.543-.031-.074h.031Zm1.5.41-.043-.122h.043Zm16.92.319-.106-.106.106.182Zm-9.927.076-.028-.076h.028Zm-7.6.03c-.071.089-.133.2-.143,0Zm-1.146.076c-.013.121-.144.121-.2.229.045-.124.2-.091.2-.229m.107.651c.149-.228.4-.165.61-.319.044-.407-.461.169-.61.319m18.537-.47a4.049,4.049,0,0,1,.746,2.287c.076-.468.192-.821.224-1.228.077-.044.1.078.132.078a1.4,1.4,0,0,0-.638-1.062c.312.075.2.593-.029.395.1-.38-.4-.2-.434-.47m-6.1.832c-.119.094-.271.122-.331.258.059.348.54.653.715.289.164-.426-.279-.289-.384-.548m-13.391.912c-.134.455-.7.71-.581,1.134.787-1.27,2.231-.879,3.182-1.528-.193-.212-.489-.106-.714-.154a2.306,2.306,0,0,0-1.887.548m7.6-.577h.028v-.076h-.028Zm5.788,0c-.076.168.088.126.132.108Zm6.278,2.362a2.658,2.658,0,0,0,.178-2.179,2.539,2.539,0,0,0-.178,2.179m-11-2.03c-.176.276-.564.519-.5.789.1-.289.487-.408.534-.652,0-.044.025-.154-.032-.138m3.573.547c.074.242.251.1.383.242-.011-.21-.132-.318,0-.468.016-.411-.444.06-.383.226m.457.728h-.024l.024.1Zm-12.748.576c-.046-.108.057-.213.1-.336-.385-.181-.161.215-.1.336m.5-.181a3.62,3.62,0,0,0,.255,1.271c.267-.422.046-.912-.043-1.271Zm.535.36c.208-.074,0-.3.03-.36-.3-.109.028.286-.03.36m7.395-.36c-.578.3-1.722.527-1.826.8a4.336,4.336,0,0,0,1.826-.62Zm11.816.619c.33-.062-.148-.108-.029-.286-.283-.079-.076.21.029.286m-20.638-.225a4.711,4.711,0,0,0,.488,2.3c.524-.882-.461-1.487-.35-2.3Zm.536,0c-.165.544.312.967.384,1.448a4.349,4.349,0,0,0-.253-1.448Zm5.074,0a1.182,1.182,0,0,0-.33.846,2.739,2.739,0,0,0,.359.184c.283-.2.1-.668.283-.728.1-.318-.162-.318-.312-.3m13.273.513c-.061.441.091.849-.179,1.2.446-.088.179-.637.429-.94-.224.032-.115-.179-.25-.258m-13.348.107h.029v-.076h-.029Zm15.667.288h-.062v.122h.062Zm.4,1.895a2.094,2.094,0,0,0,.079-1.64c-.433.215-.019,1.094-.079,1.64m-8.569.543a.97.97,0,0,0,.819-.543c1.4,2.014,1,4.407,2.65,6.331-.436-.423.279-.3.353-.1-1.055-1.135-1.218-2.8-1.576-4.18.133-.231,0-.579.255-.807a7.811,7.811,0,0,0-1.145-2.8c-.566.7-.6,1.667-1.356,2.107m6.458-1.923h0Zm.355.26c-.161.485-.579.835-.608,1.3.43-.06.479-.7.714-.987,0-.137.028-.273-.106-.316m-5.61.105h.046v.074h-.046Zm5.359,1.636c.357-.331.429-.787.758-1.2-.507.21-.552.786-.758,1.2m-5.594-.879c.178.047.221-.027.132-.211-.058.029-.192.075-.132.211m6.607.047c-.713.437-.688,1.53-1.369,2.135-.062.181.135.365.118.543.418-.605.8-1.5,1.251-2.285Zm-19.332.544c.107.335-.2-.029-.13-.107.1-.058.071.107.13.107m19.538-.043c-.417.77-.76,1.68-1.218,2.406a3.838,3.838,0,0,0,.833,2.184c.282-.62-.132-1.122-.255-1.683.255.15.27.6.492.621a3.146,3.146,0,0,1-.208-1.045c.253.029.092.5.384.425.21-.425.091-.862.359-1.3-.221.574.613,1.109.658,1.711-.45.046-.6-.59-.792-.909-.176.274.2.485-.176.651.476,2.926,3.23,5.488,2.885,8.032-.463.031-.4-.5-.61-.105a5.484,5.484,0,0,0,.434,1.092,48.426,48.426,0,0,1-3.292-6.469,29.039,29.039,0,0,0,3.081,6.831c0-.076-.031-.183.032-.259a2.577,2.577,0,0,0,.611,1.5c.162-.427.1-.957.64-1.061.727-.032,1.128.768,1.781.59.017-2.639-1.886-4.38-2.245-6.987A29.166,29.166,0,0,1,208.115,174a20.95,20.95,0,0,0-2.454-6.285c-.431-.941-1.874-.745-1.937-1.941-.191-.316.107-.651-.135-.969.049-.352-.217-.485-.324-.666m-1.932.7c.135-.017.267-.4.325-.515-.312-.107-.27.363-.325.515m.149.512c.359.17.027-.316.283-.3-.24-.014-.033.35-.283.3m-16.354.214h-.074v-.074h.074Zm.029.1c.091.446.37.879.179.184-.179.091-.118-.154-.179-.184m16.069.107c-.046.209.046.209.147.123.05-.213-.1-.077-.147-.123m.18.411c0,1.12.776,2.239,1.177,3.272a12.745,12.745,0,0,0-.925-3.061c-.013-.166-.252-.047-.252-.211m-19.285.361c-.088.274.268.306.406.319.133-.288-.225-.516-.406-.319m20.431.4h.032v.074h-.032Zm-2.217.286h-.076v-.135h.076Zm-14.672.077-.044-.108h.044Zm14.6.228h0Zm2.9.392c.82,2.258,1.412,4.468,2.856,6.439-.68-2.239-1.844-4.135-2.6-6.288-.136,0-.169-.133-.256-.151m.82.258h.029v-.073h-.029Zm.071.136c.745,1.926,1.578,3.712,2.4,5.5.195-.013.046-.257.136-.363.268.091.086.407.4.288a20.555,20.555,0,0,0-1.859-4.258c-.014.605.579,1.106.491,1.681a24.948,24.948,0,0,0-1.484-2.849Zm-1.145.879c.815,1.8,1.4,4.213,2.752,5.424-.772-2-1.695-3.908-2.427-5.937-.2-.411-.415.346-.325.513m-13.644-.212c.6,1.785,1.71,3.406,1.935,5.3-.476.533-1.223-.423-1.576.365a3.175,3.175,0,0,1,.073.577c.419-.35.607.453.894.485.2.5.61,1.137.463,1.7-.835.546-.408,1.728-1.429,2.044a4.115,4.115,0,0,0,.073.681c.431.289.043-.195.208-.286.386.063.412.559.609.834a1.589,1.589,0,0,0-.609,1.425,16.219,16.219,0,0,1,1.367-2.075c.091-.41-.132-.563-.3-.807.7-.68.879-1.651,1.582-2.318,0,.458-.377.853-.507,1.351.444-.183.519-.894.861-1.169-.1.564-.417.987-.462,1.533.371-.306.447-.833.715-1.242a13.184,13.184,0,0,1-.607,2.073,16.357,16.357,0,0,1,.964-1.531c.31.382-.019.835-.047,1.243.122-.121.243-.5.357-.62a19.855,19.855,0,0,1,.972,1.772,14.816,14.816,0,0,0-2.147-4.863,17.82,17.82,0,0,1-.667-2.953,7.9,7.9,0,0,1,1.175.955,3.763,3.763,0,0,0-1.713-1.607c-.088-.211.15-.32.058-.469a1.016,1.016,0,0,0-.592-.107c0-.94-.983-1.286-1.324-1.969-.168-.048-.106-.319-.328-.319m3.675,1.122c.045.652.193,1.3.177,1.968-.177-.226-.117-.592-.238-.8-.029.154.048.576-.179.472a5.72,5.72,0,0,0,1.893,1.711,27.082,27.082,0,0,0-1.5-3.136c-.192.059-.059-.2-.148-.213m13.57.256c.089-.031.076-.166.076-.256-.032.074.132.272-.076.256m-.387-.043c.4,1.2.714,2.437,1.175,3.68.1-1.182-.684-2.453-1.1-3.68Zm-13.288.408h-.072v.261h.072Zm.043.286h.032v.076h-.032Zm9.493.549h.032v-.08h-.032Zm.032,1.273c-.011-.288-.151-.469-.136-.7-.237.277.125.486.136.7m-10.774-.444a6.208,6.208,0,0,0,.492,1.971c-.121-.663-.3-1.318-.43-1.971Zm-8.184,1.352c.431-.319.222-.833.743-1.016a.971.971,0,0,0-.743,1.016m19.672-.288c.044-.241-.086-.4-.135-.59-.163.09.121.393.135.59M192.655,174.5a9.37,9.37,0,0,1-.251-1.518,2.762,2.762,0,0,0,.251,1.518m10.862-1.456a14.625,14.625,0,0,0,1.713,3.608c-.251-1.167-1.056-2.046-1.459-3.167-.071-.166-.047-.411-.253-.441m-.994.185c-.047.211.134.226.061.438-.047-.092-.212-.408-.061-.438m-9.077.438h-.077v-.106h.077Zm-.461.258-.045-.152.045.046Zm-11.069.937a1.9,1.9,0,0,0-.536,1.9,2.867,2.867,0,0,1,.536-1.777Zm9.417,0H191.3l.031.121Zm-.46.23-.031-.077h.031Zm.147.285c-.194.108-.1.37.034.475Zm.489.108-.028-.108.028.214Zm12.651.228c.282.639.192,1.5.922,1.771-.059-.5-.507-.848-.713-1.376a.567.567,0,0,1-.209-.4m-12.6.243.032.259Zm-.459.153c-.122.136.162.162.175.21.046-.18-.071-.241-.175-.21m.354.51c-.265.017-.118.367,0,.4Zm14.107.762c.132-.166.207-.563-.074-.517-.223.029-.032.365.074.517m-1.189.18h-.06v-.15h.06Zm1.5-.032c-.491.38.1.956.146,1.3-.448-.147-.178-.739-.637-.62-.135.245.235.546-.044.73-.2-.015-.181-.411-.432-.366.1.382-.092.863.3,1.139.356-.076.607-.436.889-.548-.115-.195.451-.574.393-.985-.064-.2-.33-.36-.393-.544-.072-.046-.083-.153-.218-.108m3.081,0h.029v-.074h-.029Zm-3.723.292c-.149.272-.029-.048-.029-.154.059,0,.013.106.029.154m-13.749.026c-.49.61-.836,1.184-1.25,1.791.555,0-.058.562.359.831.327-.287.506-.619.384-.937-.222-.061-.235.2-.417.032.6-.473.539-1.106.951-1.559,0-.047.031-.157-.028-.157m13.034.076-.029-.076h.029Zm-.685.835a3,3,0,0,0,1.041.956c.15-.516-.5-.85-.919-.956Zm-13.6.408c.135.032.073-.209.255-.225-.15.042-.329.076-.255.225m10.146.183c.047.381.372.683.42,1.046.384-.47-.4-.7-.357-1.046Zm-16.854.91c-.375.289-.091,1.272.132.546-.132-.079-.1-.424-.132-.546m17.569.94c.222.059-.029-.258.21-.286-.195-.79-.254.178-.21.286m.536-.032a1.768,1.768,0,0,0-.146,1.2c.326-.133.089-.467.283-.544-.047-.229.119-.62-.138-.652m.64.788a1.523,1.523,0,0,0-.177,1.5c.1-.308.016-.611.177-.73Zm-12.363.485-.031-.123h.031Zm-5.668.473c.013.225.178.6.208.435-.133-.12-.013-.4-.208-.435m22.987.65c-.059.075-.014.271-.176.258.056.118-.017-.305.176-.258m-.24.437c-.118.031-.13.257-.222.32.092-.048.034-.32.222-.32m1.131.32h-.061v-.063h.061Zm-1.456.149h0Zm-5.536.366c-.016.059-.106-.077-.147-.106.115-.061.086.106.147.106m.031.15c.046.062.046.3.148.213.072-.181-.121-.1-.148-.213m6.115,0h0Zm-21.247,1.457h-.076v-.154h.076Zm14.6.028c-.016,0,.118.121.073.186.013-.019-.222-.214-.073-.186m-13.062.44c.058-.135-.108-.2-.15-.226-.226.241.087.151.15.226m-1.533,0h-.076v-.148h.076Zm14.714-.148c.135.133.194.663.312.362-.162-.063-.162-.3-.312-.362m-15.324.253c-.476.594-1.042,1.031-1.4,1.563.641-.139.862-1.169,1.4-1.485Zm.61.259h-.076v-.151h.076Zm-1.35.1h.025V187.3h-.025Zm16.2.259c0,.043-.211-.107-.211-.259.18.015,0,.276.211.259m-17.037.68c.251-.318.64-.483.683-.863-.28.347-.594.532-.683.863m2.188-.863c-.134.256-.105.742-.252,1.122.118-.079.1-.413.252-.5Zm15.668.106h0Zm-16.353.077c-.4.225-.625.819-1.026,1.2.548-.15.609-.757,1.026-1.015Zm15.1.073h-.062v.109h.062Zm.652.394c-.075-.088-.044-.118-.176-.258.075.111.147.094.176.258m1.1-.073c.21.044.074.407.21.105.089-.2-.136-.061-.21-.105m-17.392.8c.343.394.208-.289.4-.256,0-.561-.28.182-.4.256m16.6-.213c-.1.122.326.365.177.062a.172.172,0,0,1-.177-.062m-17.572.182h0Zm.936.315-.04-.132.04.029Zm-1.353.081.137.106c.323-.091-.154-.29-.137-.106m.595-.108c.059.153.09.136.178.136.047-.15-.059-.15-.178-.136m1.146,0h.043v-.076h-.043Zm-1.382.258c-.049.182.029.24.208.213a1.452,1.452,0,0,0-.208-.213m.818.213c.177-.163.029-.163-.076-.213-.223-.077-.028.24.076.213m.356.259H184.8v-.107h.147Zm14.82.213c-.283.316.507.455.284.226-.243.043-.1-.213-.284-.226m1.921,0h0Zm-13.885.075v.544c.255.166.431.3.716.216-.253-.062-.389-.291-.581-.366-.193,0-.044-.319-.135-.394m3.395,1.636c-.583.588-1.266.453-1.892.907-.089.216-.252.441-.043.651.67.184,1.381-.332,2.007-.252a5.861,5.861,0,0,1,1.845-1.093c-.489-.241-.983.314-1.529.3-.43-.332-.047-.667-.137-.984-.25-.879-.222.363-.25.471m4.284.47c.418-.047.725.2,1.1.1.359-.254-.074-.512,0-.755a1.793,1.793,0,0,0-1.1.651m1.74-.289h0Zm-3.955.726h.029v-.071h-.029Zm27.526.7a43.389,43.389,0,0,0-4.957,1.2,3.538,3.538,0,0,0,.179,1.557c-.179.348-.311.743-.427,1.018-.554-.091-.94.516-1.33.771l-.028.5a1.737,1.737,0,0,1-1.114-.183,6.784,6.784,0,0,0-2.562-1.851c.36-.47.862.411,1.431.076a1.123,1.123,0,0,1,.174-1.393c-.549.092-.712-.381-.888-.728-.939-.2-.4.862-1.073,1.058a11.175,11.175,0,0,1-3.437-.028c.818.168,1.641.561,2.471.727.061-.379.432-.241.608-.365.108.2-.132.44-.221.608.166.208.373-.225.64-.244-.014.408-.371.635-.28,1.047.339.361.9.045,1.141.516.034.212-.16.605-.385.5a12.538,12.538,0,0,0-1.367-.758c-.2.425-.73.392-1,.694-.378-.348-.955.14-1.432.064-.2-.017-.119-.273-.135-.423-.193.011-.461-.075-.58.057.106.213.491.151.432.485-.1.289-.326.334-.536.473a36.6,36.6,0,0,1-4.641-.107.955.955,0,0,1-.029-.408c-.3.183.13.377-.226.47a16.444,16.444,0,0,1-1.5-2.033.806.806,0,0,0-.672.261c-.312-.2-.327-.334-.253-.593.417.423.179-.291.566-.365.925,0,1.234.44,1.934.725.057-.24-.254-.543-.254-.725-.148-.438.237-.485.405-.65a2.493,2.493,0,0,0-1.118-.033c.118.184-.164.365-.105.548-.461.014-.966-.241-1.351-.183-.372.183,0,.816-.433.575.148.563.7,1.061.683,1.682-.386.651-.669-.273-1.144.061a2.039,2.039,0,0,0-.282-.727c-.372-.226-.582.412-.939.306-.327.287-.267.711-.432,1.011-.15.4-.771.168-1.13.184a3.927,3.927,0,0,1,.488-1.97c.046.168.312.107.252.365.73.348,1.266-.484,1.937-.183.119-.269-.223-.21-.253-.395-.507-.183-1,.093-1.5-.073-.286-.546-.794-.293-1.046-.73a7.772,7.772,0,0,1-1.175.184c.018.939.044,1.894.044,2.83-.61-.709-.193-2.015-.356-2.937-.479.819-.029,1.952-.15,2.937a.713.713,0,0,1-.357-.028,9.328,9.328,0,0,1-.1-2.728c-.536-.074-1.074.15-1.606.1-.15.183.013.534-.283.546a3.2,3.2,0,0,0-.122-.44c-.3.366-.728,1.2-1.425,1.322-.359-.332.207-.456.224-.8-.36-.411-.554-.305-.969-.291a3.281,3.281,0,0,1-.432-.8c-1.3-.167-2.576,1-3.855.651a.721.721,0,0,0-.742-.288c-.522.638-1.163.679-1.684,1.227-.815.257-1.13-.876-1.886-.682.043.351-.181.59-.15.909-.655-.2-.12-.725-.327-1.092a10.973,10.973,0,0,0-.357,1.923,3.492,3.492,0,0,1,1.728-.1c.13.238-.164.544-.33.572a18.414,18.414,0,0,1-2.885-.028c.075-.332-.061-.819.31-.985.1.348-.281.6,0,.907.894-.165.238-1.438.434-2.153.636.182.087,1.307.46,1.866a10.063,10.063,0,0,1,.176-1.925c-1.116-.045-1.68-.8-2.7-1.134a1.733,1.733,0,0,0-1.327.438,3.922,3.922,0,0,0-2.93-.621c-.746.486-.4,1.471-1.149,2.046a10.349,10.349,0,0,0-.1,1.332.908.908,0,0,1-.564.3c7.959.607,16.56-.226,24.845.546-.117-.122-.041-.228.046-.334h3.927c.1.106-.1.426.18.362-.043-.1.046-.208.059-.33,7.559-.047,15.177-.2,22.679-.137a2.455,2.455,0,0,0-.39-1.377,8.115,8.115,0,0,0-1.218-.049c-.237-.3.074-.71.179-1.011-.179-.079-.195.151-.388.073-.582-.653-.982-1.455-1.578-2.048.61-.3.879.624,1.37.85-.193-.44-.592-.742-.713-1.166.759-.241.892.82,1.561,1.166-.223-.5-.669-.774-.924-1.241a1.065,1.065,0,0,1,.967-.438c.357.286.684.635,1.1.543-.673-.092-.8-.711-1.4-.831Zm1.757.791H222.3v.075h.253Zm-4.184.513c.373.742,1.16,1.213,1.579,1.973.178-.576-1.042-1.3-1.429-1.973Zm-16.739.7c.228.441.686.046.823.545.354.107.564-.349.921-.363-.524.715.639-.074.146.65.748-.029,1.5.459,2.247.139.135-.2.076-.41.254-.576-.132.1-.192.306-.328.437a3.476,3.476,0,0,1-1.965-1.133c-.693-.2-1.456.636-2.1.3m8.959.425c.46.047.4-.468.685-.651-.193.226-.49.422-.685.651m7.528-.651c.222.515.671.589.863,1.058-.1-.437-.549-.742-.715-1.058Zm-7.068.833c.4,0,.195-.471.581-.5-.071-.2-.489.3-.581.5m-35,.591c.076-.366-.369-.315-.208-.726-.372.707-.148,1.485-.642,2.135-.074-.5,0-1.042-.041-1.481-.461.467-.194,1.061-.432,1.6-.479-.3.059-.889-.385-1.162-.271.028-.436-.232-.719-.261-.173.123-.188.332-.429.4-.088-.181.178-.3.225-.5-.421-.258-.611.38-.894.5-.267-.166.162-.375.208-.573-.475-.065-.775.51-1,.754.119.487-.105,1.438.635,1.424-.114-.423-.529-.967-.278-1.3,0,.483.462.835.462,1.3.564-.24-.253-.65-.076-1.059.313.133.433.712.461,1.059.431-.2.165-1.012.431-1.528a3.745,3.745,0,0,1-.107,1.606c1.09.319,2.25-.138,3.294,0a8.24,8.24,0,0,0,.43-2.909c-.464.664-.3,1.665-.537,2.5-.13-.893.136-1.844.029-2.68-.432-.029-.029.7-.432.909m27.648-.8h.025v-.075H203.7Zm-15.714.077a11.383,11.383,0,0,0-1.788.653c-.5.695-.22,1.5-.427,2.256a13.6,13.6,0,0,0,3.034,0c.233-.107,0-.229,0-.332-.361-.183-.449.332-.79.288-.312-.2-.581-.456-.428-.761a2.354,2.354,0,0,1,1.4-.574c-.255-.213-.136-.65-.54-.725-.22-.217-.28-.576-.459-.8m-10.862,1.665h.4a1.512,1.512,0,0,0,.03-1.379c-.417.246-.345.927-.433,1.379m34.388-1.3-.033-.075h.033Zm-20.03.032c-.192.107-.074.366-.1.468.251.062.058-.36.1-.468m1.041,2.517h.313c.075-.835-.12-1.682-.1-2.517-.6.685-.059,1.682-.21,2.517m1.565-2.517c.133.865,0,1.621.074,2.439.147.122.281.046.431.077-.076-.835.178-1.561-.223-2.334-.091-.061-.091-.258-.282-.183m.715.076c-.3.21,0,.56.041.835Zm.326,1.635a2,2,0,0,0,.2-1.635c-.443.21-.238,1.092-.2,1.635m-11.221-1.56c-.429-.06-.475.485-.742.62-.178.683-.85,1.2-.715,1.851.342-.3.743.195,1.027-.106a11.458,11.458,0,0,1,.892-1.927c-.61.064-.862,1.092-1.28,1.516a3.692,3.692,0,0,1,.817-1.693Zm-5.923.11c.033.328-.326,1.1.313,1.011-.1-.393.27-1.165-.313-1.011m13.823,1.559a2.933,2.933,0,0,0-.711.182c-.136.164-.061.39-.077.515.21-.168.27.319.489,0,0-.184.1-.365.121-.544.092.3.359.3.566.287-.119-.667.091-1.44-.174-2-.513.073-.513,1.026-.214,1.559m27.632-1.486c-.043.134.061.134.1.213.074-.134-.118-.12-.1-.213M183.7,198.726c.567.258,1.13-.2,1.712.106a2.471,2.471,0,0,0,.281-1.3c-.013.271-.236.331-.357.5.059-.533.49-.881.4-1.381-.865.214-.834,1.3-1.5,1.848.046-.728.742-1.06.892-1.742-.713.032-.964,1.316-1.428,1.97m-3.361-1.319a.55.55,0,0,0,.357-.06c-.014-.213-.271-.366-.209-.548-.268-.027-.106.412-.148.608m10.43.7c.088-.465.5-.982.283-1.3-.392.276-.136.865-.283,1.3m-17.6-.982-.044-.076h.044Zm8.675,1.606c.61-.153.566-1.167,1-1.606-.535.15-.757,1.062-1,1.606m8.75-1.682c-.116.531-.745.62-.966,1.058.327-.031.934-.013.993-.438Zm.861,0a.446.446,0,0,0,0,.7Zm28.674.181c-.1.166-.149.046-.178-.059a.158.158,0,0,0,.178.059m-38.64.516c.1.33-.225.653-.1.985a5.412,5.412,0,0,0,.608-.985c-.041-.166-.477-.166-.5,0m8-.029c-.1.057-.1.2-.223.208.133-.013.1-.165.223-.208m-12.216.137H177.2v-.08h.075Zm44.312.043c-.178-.21-.359-.073-.536-.122-.523.3.442.4.536.122m-36.247.18h-.106v.111h.106Zm5.433.14c-.552.437-1.684-.23-1.639.515a5.125,5.125,0,0,0,1.668,0Zm1.219.47h0Z" transform="translate(-163.91 -86.577)" fill="#00244d"/>
  </g>
</svg>
