<svg id="DNA_6" xmlns="http://www.w3.org/2000/svg" xmlns:xlink="http://www.w3.org/1999/xlink" width="128.108" height="58.892" viewBox="0 0 128.108 58.892">
  <defs>
    <clipPath id="clip-path">
      <rect id="사각형_5821" data-name="사각형 5821" width="128.108" height="58.892" fill="none"/>
    </clipPath>
  </defs>
  <g id="그룹_11140" data-name="그룹 11140" clip-path="url(#clip-path)">
    <path id="패스_20543" data-name="패스 20543" d="M72.824,24.282a130.166,130.166,0,0,0-25.26,2.394l-.009,11.442c.029,0,.057-.007.086-.007a3.261,3.261,0,1,1,0,6.52c-.029,0-.059,0-.093,0v1h3.087V62.013h-3.1L47.52,80.784a130.983,130.983,0,0,0,25.3,2.39c35.339,0,64.057-13.183,64.057-29.449S108.164,24.282,72.824,24.282M61.583,49.589c-2.663,0-2.663,2.777-2.663,4.595v7.829H52.942V45.624H58.92v2.044h.067a6.208,6.208,0,0,1,3.822-2.445l.007,4.633a2.632,2.632,0,0,0-1.232-.268" transform="translate(-8.77 -24.282)" fill="#80898f"/>
    <path id="패스_20544" data-name="패스 20544" d="M41.688,41.532A3.309,3.309,0,0,1,44.9,38.28l0-11.444C22.128,31.347,6.164,41.765,6.164,53.888s15.97,22.545,38.754,27.058l-.007-18.772H42.049V45.786h2.859l0-1a3.314,3.314,0,0,1-3.217-3.254M39.718,62.174H33.738V60.353h-.067a5.981,5.981,0,0,1-5.09,2.365,8.742,8.742,0,0,1-.066-17.475,6.966,6.966,0,0,1,5.222,2.143v-1.6h5.981Z" transform="translate(-6.163 -24.443)" fill="#070303"/>
    <path id="패스_20545" data-name="패스 20545" d="M31.443,51.868a3.612,3.612,0,0,0-3.842,3.7,3.555,3.555,0,0,0,3.842,3.675,3.554,3.554,0,0,0,3.842-3.675,3.611,3.611,0,0,0-3.842-3.7" transform="translate(-7.514 -26.021)" fill="#070303"/>
    <path id="패스_20546" data-name="패스 20546" d="M63.838,46.622a7.434,7.434,0,0,1,1.5-.141,6.2,6.2,0,0,1,5.745,3.131A6.479,6.479,0,0,1,76.8,46.481c4.272,0,5.752,2.715,5.752,6.485V63.414H76.572V55.584c0-1.69.061-4.471-2.467-4.471-2.759,0-2.859,2.524-2.859,4.471v7.829H65.271V55.584c0-1.477,0-3.589-1.426-4.329Zm39.4.4H97.262v1.6a6.98,6.98,0,0,0-5.224-2.141A8.448,8.448,0,0,0,83.6,55.2,8.534,8.534,0,0,0,92.1,63.957a5.979,5.979,0,0,0,5.09-2.366h.068v1.822h5.977Zm-9.624,4.5a3.613,3.613,0,0,1,3.843,3.7,3.849,3.849,0,0,1-7.691,0,3.613,3.613,0,0,1,3.847-3.7m17.929,3.784-6.993,8.1H112.4l2.971-4.08,2.807,4.08h7.852l-6.826-8.1,6.828-8.289h-7.721l-2.964,4.3-3.079-4.3h-7.589Z" transform="translate(-9.799 -25.681)" fill="#b4c32e"/>
  </g>
</svg>
