<svg id="DNA_1" xmlns="http://www.w3.org/2000/svg" xmlns:xlink="http://www.w3.org/1999/xlink" width="125.488" height="99.189" viewBox="0 0 125.488 99.189">
  <defs>
    <clipPath id="clip-path">
      <rect id="사각형_5828" data-name="사각형 5828" width="125.488" height="99.189" fill="none"/>
    </clipPath>
  </defs>
  <path id="패스_22404" data-name="패스 22404" d="M6922.125-930.9c.751-.957,22.228-20.15,22.228-20.15h15.178l23.737,16.708,22.8,43.758-3.683,18.719-23.961,6.187s-35.9,1.212-40.356,0-32.283-5.965-32.521-6.187-5.737-10.186-6.015-13.035,4.41-23.37,6.015-25.2S6922.125-930.9,6922.125-930.9Z" transform="translate(-6890.599 960.252)" fill="#0011de"/>
  <g id="그룹_11493" data-name="그룹 11493">
    <g id="그룹_11151" data-name="그룹 11151" transform="translate(0 0)">
      <g id="그룹_11150" data-name="그룹 11150" transform="translate(0)" clip-path="url(#clip-path)">
        <path id="패스_20583" data-name="패스 20583" d="M314.814,707.09c-32.033,0-51.87-4.7-58.97-14-3-3.913-3.769-8.667-2.309-14.113,3.962-14.7,14.252-32.461,27.54-47.535,12.8-14.512,25.727-23.547,33.739-23.547s20.956,9.035,33.757,23.547c13.276,15.075,23.567,32.835,27.524,47.535,1.471,5.446.691,10.2-2.3,14.113-7.1,9.3-26.943,14-58.978,14m42.912-35.151a4.4,4.4,0,0,0,.543-4.608c-.18-.382-.34-.666-.392-.8-1.48-3.831-17.95-25.374-21.249-29.115-2.182-2.476-9.225-10.448-13.509-14.569l-.791-.76a3.135,3.135,0,0,0-5.45,2.087c-.019,4.636,0,15.69,0,25.581l-4.12,1.034c0-10.151.017-21.823,0-26.615a3.137,3.137,0,0,0-5.454-2.087l-.78.76c-4.3,4.121-11.335,12.093-13.514,14.569-3.294,3.741-19.786,25.28-21.254,29.115-.051.131-.217.415-.388.8a4.394,4.394,0,0,0,.535,4.608,4.936,4.936,0,0,0,3.433,1.579h32.024A5.35,5.35,0,0,0,311.019,672a4.709,4.709,0,0,0,1.739-3.541V658.329l4.12-1.791v11.925A4.642,4.642,0,0,0,318.612,672a5.382,5.382,0,0,0,3.666,1.514h32.017a4.924,4.924,0,0,0,3.432-1.579m-87.144,21.933h3.392v-5.835h19.7v5.835h3.355V679.04h-20.38a6.4,6.4,0,0,0-4.319,1.8,6.213,6.213,0,0,0-1.746,4.3c-.011.239,0,8.728,0,8.728m23.067-8.6v-3.03s-14.569-.071-17.146,0c-2.817.082-2.568,3.03-2.568,3.03h19.714m31.322-3.015,3.039-3.3s-20.591-.06-20.814,0c-.236.03-6.168,0-6.168,7.452,0,7.484,5.671,7.488,6.168,7.525s20.814,0,20.814,0l-3.039-3.32s-13.867-.016-16.332,0c-1.663,0-4.2,0-4.189-4.205.012-4.266,2.395-4.158,4.232-4.223,1.672-.07,16.289.076,16.289.076m11.525,0c1.046-.045,18.332,0,18.332,0l2.954-3.3H335.8s-6.151,0-6.151,7.452c0,7.484,6.151,7.525,6.151,7.525h21.983l-.007-8.978H338v2.725h16.829v2.933s-17.5.056-18.339,0c-.859-.051-3.426-.09-3.426-4.205,0-4.25,2.77-4.109,3.433-4.147m5.121-37.656-39.781,16.789c-4.281,1.791-11.006,3.865-13.821-.621-1.552-2.5-.569-6.378,1.734-9.935a51.208,51.208,0,0,1,5.258-6.4c-1.065,1.694-3.995,7.379-.143,10.19,1.511,1.108,4.154,1.241,7.452.348l39.3-10.368" transform="translate(-252.077 -607.899)" fill="#e24794"/>
      </g>
    </g>
  </g>
</svg>
