<svg id="DNA_15" xmlns="http://www.w3.org/2000/svg" width="126.999" height="71.546" viewBox="0 0 126.999 71.546">
  <path id="패스_19648" data-name="패스 19648" d="M131.172,197.869c.663.055,8.283.715,9.43.811l-.189-1.223-8.006-.695a.668.668,0,0,1-.6-.5l-10.376-41.073-1.011.144c.287,1.12,10.567,41.82,10.749,42.541" transform="translate(-119.087 -136.428)" fill="#de0d09"/>
  <path id="패스_19649" data-name="패스 19649" d="M154.981,160.619l1.048,1.711c-.486-3.364-1.61-11.148-2.18-15.1l-.76-.055,1.892,13.446" transform="translate(-130.214 -133.699)" fill="#de0d09"/>
  <path id="패스_19650" data-name="패스 19650" d="M153.058,201.842l8.8,5.516q.227-.859.5-1.718c-1.85-1.143-7.964-4.918-9.627-5.943.07.457.187,1.22.328,2.145" transform="translate(-130.092 -151.591)" fill="#de0d09"/>
  <path id="패스_19651" data-name="패스 19651" d="M157.393,148.257c-.689-.05-8.24-.581-12.085-.853l2.607,18.048a.89.89,0,0,1,.007.094.672.672,0,0,1-.442.634.683.683,0,0,1-.806-.281l-1.133-1.85.522,3.7-.991.352s-10.21-16.662-10.566-17.248l-10.517,1.487c2.041,8.084,10.024,39.676,10.223,40.47l7.206.622c-.639-4.159-1.791-11.69-1.791-11.69l2.136,1.339-.373-2.436a.778.778,0,0,1-.007-.1.668.668,0,0,1,1.025-.57l10.6,6.541a70.914,70.914,0,0,1,4.747-10.432c-.16-12.482-.349-27.27-.357-27.827" transform="translate(-120.301 -133.778)" fill="#de0d09"/>
  <path id="패스_19652" data-name="패스 19652" d="M168.682,175.522c.386-.7.742-1.329,1.051-1.857l-.346-26.975-13.3-.937q.064.449.157,1.089c3.845.272,11.4.8,12.084.853.009.557.2,15.345.357,27.827" transform="translate(-131.235 -133.215)" fill="#302d2c"/>
  <path id="패스_19653" data-name="패스 19653" d="M139.911,198.138c-1.147-.1-8.766-.756-9.43-.81-.182-.721-10.462-41.42-10.75-42.541l1.011-.144-.265-1.049-2.082.294,11.229,44.448,11.554,1s-.144-.939-.355-2.321l-1.1-.1c.093.607.161,1.044.189,1.222" transform="translate(-118.397 -135.886)" fill="#302d2c"/>
  <path id="패스_19654" data-name="패스 19654" d="M153.227,202.95c.067.436.139.909.215,1.4l8.316,5.21q.127-.548.272-1.1l-8.8-5.516" transform="translate(-130.262 -152.699)" fill="#302d2c"/>
  <path id="패스_19655" data-name="패스 19655" d="M149.5,211.179l1.1.1c-.536-3.5-1.287-8.409-1.476-9.627l.933.585c-.077-.5-.149-.971-.216-1.4l-2.136-1.339s1.152,7.531,1.791,11.69" transform="translate(-128.38 -151.52)" fill="#302d2c"/>
  <path id="패스_19656" data-name="패스 19656" d="M144.933,169.288l.991-.352s-.212-1.507-.521-3.7c-.4-.648-.878-1.433-1.411-2.3.212,1.5.392,2.778.507,3.6-2.069-3.376-9.584-15.647-9.584-15.647l-11.329,1.6.264,1.049c3.616-.512,10.039-1.42,10.517-1.487.356.586,10.566,17.248,10.566,17.248" transform="translate(-120.165 -134.96)" fill="#302d2c"/>
  <path id="패스_19657" data-name="패스 19657" d="M152.443,146.571l.76.055-.157-1.089-1.854-.131.093.657,1.639,11.649,1.412,2.3c-.793-5.636-1.789-12.711-1.892-13.446" transform="translate(-129.568 -133.097)" fill="#302d2c"/>
  <path id="패스_19658" data-name="패스 19658" d="M197.44,182.128c.083-2.974,1.1-39.527,1.145-41.072l-14.114,6.013c1.586,7.028,7.066,31.314,8.214,36.407l3.3-.812c.463-.165.951-.347,1.456-.536" transform="translate(-140.904 -131.615)" fill="#c5ce00"/>
  <path id="패스_19659" data-name="패스 19659" d="M180.986,151.428c.191.844,7.913,34.985,8.145,36.015l1.058-.262-8.164-36.2-1.039.442" transform="translate(-139.717 -134.998)" fill="#c5ce00"/>
  <path id="패스_19660" data-name="패스 19660" d="M187.6,186.846a12.75,12.75,0,0,0,1.343.153,3.847,3.847,0,0,0,.887-.1l-.061-.27-1.058.262c-.232-1.03-7.954-35.171-8.145-36.015l1.039-.442-.241-1.068-1.608.685.024,2.227Z" transform="translate(-139.298 -134.446)" fill="#302d2c"/>
  <path id="패스_19661" data-name="패스 19661" d="M197.315,181.276q.53-.2,1.087-.413l1.18-42.309-.773.331L184.1,145.149c.065.289.147.647.242,1.068l14.114-6.013c-.044,1.546-1.062,38.1-1.145,41.072" transform="translate(-140.779 -130.763)" fill="#302d2c"/>
  <path id="패스_19662" data-name="패스 19662" d="M196.928,204.972c.022.1.042.182.059.263.889-.256,1.98-.62,3.24-1.074l-3.3.811" transform="translate(-145.147 -153.111)" fill="#302d2c"/>
  <path id="패스_19663" data-name="패스 19663" d="M231.926,163.249l2.291,2.75-.442-3.14a.674.674,0,0,1,1.183-.527l3.428,4.12.754-.347,5.715-2.417-5.347-11.369s5.535-16.567,6.307-18.87L233.784,140.2c-.509,2.235-1.164,5.108-1.164,5.108a.673.673,0,0,1-.685.522.664.664,0,0,1-.475-.24l-.7,2.023-1.042-.1s-1.3-9.246-1.44-10.207c-.739.106-8.849,1.243-13.018,1.829,1.79,6.716,7.836,29.414,8.968,33.667,2.866-1.249,5.752-2.531,8.516-3.776-.449-3.186-.813-5.774-.813-5.774" transform="translate(-151.391 -129.024)" fill="#6db5e5"/>
  <path id="패스_19664" data-name="패스 19664" d="M246.23,183.941l1.315-.6-1.683-2.019c.134.949.273,1.941.367,2.62" transform="translate(-161.817 -145.331)" fill="#6db5e5"/>
  <path id="패스_19665" data-name="패스 19665" d="M212.685,142.355l-1.037.146c.217.812,5.882,22.073,9.138,34.292l.96-.415Z" transform="translate(-150.162 -132.058)" fill="#6db5e5"/>
  <path id="패스_19666" data-name="패스 19666" d="M257.445,190.616c1.366,1.641,4.793,5.758,5.289,6.352l2.75-1.441-3.6-7.653Z" transform="translate(-165.762 -147.563)" fill="#6db5e5"/>
  <path id="패스_19667" data-name="패스 19667" d="M240.688,204.784c-.015-.1-.055-.388-.113-.8l-5.131.72-1.707,1.054,6.951-.978" transform="translate(-157.686 -153.052)" fill="#6db5e5"/>
  <path id="패스_19668" data-name="패스 19668" d="M259.686,201.207c.618-.32,4.358-2.285,5.083-2.664l-.005-.011-3.182,1.668a.68.68,0,0,1-.83-.163l-5.759-6.917-1.348.832c3.06,3.674,5.812,6.979,6.041,7.256" transform="translate(-164.468 -149.35)" fill="#6db5e5"/>
  <path id="패스_19669" data-name="패스 19669" d="M240.648,201.783l2.094-.293q-.061-.43-.129-.92Z" transform="translate(-160.04 -151.888)" fill="#6db5e5"/>
  <path id="패스_19670" data-name="패스 19670" d="M264.178,187.58l3.6,7.653.953-.5c-.866-1.842-2.189-4.655-3.632-7.723Z" transform="translate(-168.056 -147.269)" fill="#302d2c"/>
  <path id="패스_19671" data-name="패스 19671" d="M243.627,200.249c.046.326.09.634.129.92l1.066-.149c-.061-.437-.127-.9-.195-1.389Z" transform="translate(-161.055 -151.568)" fill="#302d2c"/>
  <path id="패스_19672" data-name="패스 19672" d="M241.182,142.888l-.178.1-.328.943q.051.369.1.729c.137-.6.276-1.209.4-1.771" transform="translate(-160.05 -132.239)" fill="#302d2c"/>
  <path id="패스_19673" data-name="패스 19673" d="M243.113,183.418l-.284-2.023-2.29-2.75s.363,2.588.813,5.774l1.023-.462c-.1-.709-.183-1.3-.242-1.715l.98,1.176" transform="translate(-160.003 -144.419)" fill="#302d2c"/>
  <path id="패스_19674" data-name="패스 19674" d="M239.509,204.706l-6.951.978-2.283,1.41,10.45-1.469s-.1-.728-.263-1.865l-1.066.15c.058.409.1.692.113.8" transform="translate(-156.507 -152.975)" fill="#302d2c"/>
  <path id="패스_19675" data-name="패스 19675" d="M219.438,176.68l1-.429c-3.256-12.219-8.921-33.48-9.138-34.293l1.037-.146-.279-1.049-1.367.192-.064,2.645Z" transform="translate(-149.813 -131.515)" fill="#302d2c"/>
  <path id="패스_19676" data-name="패스 19676" d="M229.568,148.875l1.042.1s.308-.881.706-2.022a.661.661,0,0,1-.164-.34s-.1-.713-.248-1.76c-.2.581-.4,1.158-.582,1.669l-1.276-9.07-14.216,1.995c.077.284.169.635.28,1.048,4.168-.586,12.279-1.724,13.018-1.828.136.961,1.44,10.207,1.44,10.207" transform="translate(-151.246 -130.388)" fill="#302d2c"/>
  <path id="패스_19677" data-name="패스 19677" d="M264.292,198.973c-.725.379-4.465,2.343-5.083,2.664-.229-.276-2.981-3.582-6.041-7.256l-.924.571,6.7,8.041,6.765-3.545s-.168-.358-.464-.985l-.953.5.005.011" transform="translate(-163.99 -149.78)" fill="#302d2c"/>
  <path id="패스_19678" data-name="패스 19678" d="M249.081,151.533l5.347,11.369.993-.42c-2.683-5.7-5.1-10.846-5.183-11.014l.6-1.806-.072-.154a.7.7,0,0,1-.061-.289.734.734,0,0,1,.025-.188s3.829-13.285,5.154-17.886L243.68,138c-.094.407-.205.9-.324,1.418l12.032-6.753c-.771,2.3-6.307,18.87-6.307,18.87" transform="translate(-160.963 -128.239)" fill="#302d2c"/>
  <path id="패스_19679" data-name="패스 19679" d="M304.273,173.333l-4.087.572c.024.167.055.383.088.616l4.016-.609c0-.1-.008-.3-.017-.58" transform="translate(-180.321 -142.61)" fill="#91247d"/>
  <path id="패스_19680" data-name="패스 19680" d="M292.526,150.3a.675.675,0,0,1-.246.881l-1.972,1.209.063.125-14.522,8.972c.616,2.587,2.586,10.874,2.8,11.789.855-.123,11.268-1.586,16.516-2.324-.316-2.244-.785-5.58-.871-6.206-.93.134-8.084,1.137-8.084,1.137l-.835-5.942,2.912-.441-.182-1.3a.577.577,0,0,1-.006-.092.669.669,0,0,1,.58-.666l4.9-.688c-.082-2.675-.222-7.169-.245-7.924-1.051.156-9.151,1.373-9.151,1.373l-.769-5.444,2.914-.42-.186-1.314a.674.674,0,0,1-.007-.1.643.643,0,0,1,.138-.4.662.662,0,0,1,.443-.264l6.816-.955c.508-3.817,1.556-11.691,1.686-12.662-1.054.149-18.739,2.651-26.305,3.719,1.272,5.34,5.08,21.346,5.889,24.745l16.86-7.129a.673.673,0,0,1,.86.312" transform="translate(-169.669 -127.391)" fill="#91247d"/>
  <path id="패스_19681" data-name="패스 19681" d="M297.3,151.41l5.6-.808c.011-.08.042-.31.086-.646-2.42.34-5.156.725-5.781.814.026.181.057.4.091.64" transform="translate(-179.307 -134.647)" fill="#91247d"/>
  <path id="패스_19682" data-name="패스 19682" d="M277.778,193.058l19.688-2.771c-.016-.121-.049-.351-.091-.649l-17.122,2.41a.676.676,0,0,1-.753-.513l-2.843-11.951-1.819,1.125c1.606,6.747,2.862,12.025,2.939,12.349" transform="translate(-171.687 -144.739)" fill="#91247d"/>
  <path id="패스_19683" data-name="패스 19683" d="M269.919,160.472l1.894-.8-5.969-25.087-2.02.284c.148.628,3.324,13.969,6.094,25.6" transform="translate(-167.935 -129.41)" fill="#91247d"/>
  <path id="패스_19684" data-name="패스 19684" d="M304.142,149.72l-1.108.156c-.045.337-.075.567-.086.647l-5.6.807c.047.334.1.7.15,1.067l6.414-.921Z" transform="translate(-179.353 -134.566)" fill="#302d2c"/>
  <path id="패스_19685" data-name="패스 19685" d="M296.968,190.867l-19.688,2.771c-.078-.324-1.334-5.6-2.939-12.35l-.965.6,3.085,12.959,21.727-3.055-.243-1.721-1.069.151c.043.3.075.529.092.65" transform="translate(-171.189 -145.32)" fill="#302d2c"/>
  <path id="패스_19686" data-name="패스 19686" d="M304.335,173.835l-4.017.608c.047.324.1.69.151,1.066l4.972-.754-.051-1.65-1.071.151c.008.278.014.481.016.58" transform="translate(-180.366 -142.532)" fill="#302d2c"/>
  <path id="패스_19687" data-name="패스 19687" d="M291.675,158.317s8.1-1.217,9.151-1.373c.023.755.162,5.25.245,7.925l1.071-.15-.28-9.019s-8.321,1.253-9.275,1.393c-.1-.713-.367-2.6-.465-3.308l1.848-.264-.15-1.066-2.914.42Z" transform="translate(-177.16 -135.497)" fill="#302d2c"/>
  <path id="패스_19688" data-name="패스 19688" d="M268.531,160.355l1-.425c-2.769-11.635-5.945-24.976-6.094-25.6l2.02-.284-.25-1.049-1.758.249c-.23.8-.486,1.685-.754,2.618Z" transform="translate(-167.552 -128.868)" fill="#302d2c"/>
  <path id="패스_19689" data-name="패스 19689" d="M294.719,181.823s7.155-1,8.085-1.137c.086.627.555,3.961.87,6.207l1.069-.151-1.022-7.267s-7.156,1-8.082,1.137c-.11-.744-.438-3.09-.543-3.826l1.849-.279-.15-1.066-2.912.441Z" transform="translate(-178.175 -143.328)" fill="#302d2c"/>
  <path id="패스_19690" data-name="패스 19690" d="M293.406,140.665l1.107-.156,1.831-13.771-.7.1-27.108,3.833c.066.276.15.63.25,1.05,7.566-1.069,25.252-3.57,26.305-3.719-.131.971-1.178,8.845-1.686,12.662" transform="translate(-169.541 -126.738)" fill="#302d2c"/>
  <path id="패스_19691" data-name="패스 19691" d="M173.661,226.09c-3.252-1.229-5.505-3.39-6.341-6.1a10.339,10.339,0,0,1-.392-1.946c-.057.571-.1,1.135-.1,1.679a10.906,10.906,0,0,0,.436,3.208,7.289,7.289,0,0,0,4.625,4.66,13.737,13.737,0,0,0,10.752-.862,16.228,16.228,0,0,1-8.984-.642" transform="translate(-134.896 -157.841)" fill="#ffb200"/>
  <path id="패스_19692" data-name="패스 19692" d="M213.134,184.748c-6.023,2.676-13.386,5.858-19.117,8.058-5.682,2.242-10.407,3.886-11.867,3.8-3.458-.2-5.909-1.419-7.284-3.638a9.546,9.546,0,0,1-1.266-5.084,16.721,16.721,0,0,1,.207-2.539c-2.39,4.434-4.918,10.239-4.918,14.968a10.225,10.225,0,0,0,.415,3.007c.715,2.3,2.679,4.161,5.531,5.233,3.847,1.451,8.462,1.174,11.487-.684,0,0,46.08-28.261,61.294-37.595-10.372,4.273-26.445,10.891-26.445,10.891-.418.19-3.622,1.64-8.039,3.581" transform="translate(-135.597 -141.569)" fill="#ffb200"/>
  <path id="패스_19693" data-name="패스 19693" d="M174.66,185.881c-.206.334-.5.822-.87,1.453-.31.529-.665,1.157-1.052,1.858a70.924,70.924,0,0,0-4.746,10.432l.187.116a58.563,58.563,0,0,1,6.48-13.793v-.065" transform="translate(-135.292 -146.884)" fill="#302d2c"/>
  <path id="패스_19694" data-name="패스 19694" d="M240.279,201.072l1.965-1.214,1-.618.749-.462c-.016-.1-.028-.2-.043-.3l-4.385,2.69.713-.1" transform="translate(-159.672 -151.177)" fill="#302d2c"/>
  <path id="패스_19695" data-name="패스 19695" d="M257.363,189.858l4.439-2.742.922-.57,1.126-.7c-.034-.071-.066-.139-.1-.2l-6.55,4.019.159.192" transform="translate(-165.68 -146.805)" fill="#302d2c"/>
  <path id="패스_19696" data-name="패스 19696" d="M212.1,205.075l-.546.076-.012-.084-25.766,15.806a12.014,12.014,0,0,1-3.685,1.437,13.735,13.735,0,0,1-10.752.862,7.29,7.29,0,0,1-4.625-4.66,10.884,10.884,0,0,1-.437-3.208c0-.544.04-1.108.1-1.679a17.983,17.983,0,0,1,.5-5.991l-.267-.165q-.27.858-.5,1.718-.146.551-.272,1.1a16.9,16.9,0,0,0-.152,8.545,8.275,8.275,0,0,0,5.275,5.353,14.913,14.913,0,0,0,12.418-1.367l24.731-15.277,2.283-1.409Z" transform="translate(-134.34 -153.42)" fill="#302d2c"/>
  <path id="패스_19697" data-name="패스 19697" d="M253.109,193.018l-.163-.2-4.83,2.963.041.291,2.68-1.656.924-.571Z" transform="translate(-162.584 -149.249)" fill="#302d2c"/>
  <path id="패스_19698" data-name="패스 19698" d="M293.865,164.656l-14.507,8.9c.014.063.03.126.047.2l14.523-8.972Z" transform="translate(-173.226 -139.654)" fill="#302d2c"/>
  <path id="패스_19699" data-name="패스 19699" d="M274.631,179.479l-.048-.2-5.695,3.493.094.2,2.866-1.771.965-.6Z" transform="translate(-169.66 -144.635)" fill="#302d2c"/>
  <path id="패스_19700" data-name="패스 19700" d="M177.3,199.053c1.375,2.219,3.825,3.439,7.283,3.638,1.46.084,6.185-1.56,11.867-3.8-4.267,1.638-7.629,2.731-8.851,2.66a14.292,14.292,0,0,1-1.449-.162,5.863,5.863,0,0,1-1.5.231c-3.087-.177-5.251-1.23-6.43-3.123-1.966-3.163-.849-7.965-.09-10.357-.582.963-1.226,2.072-1.884,3.294a16.727,16.727,0,0,0-.208,2.539,9.545,9.545,0,0,0,1.267,5.084" transform="translate(-138.03 -147.653)" fill="#302d2c"/>
  <path id="패스_19701" data-name="패스 19701" d="M235.991,184.032c4.417-1.941,7.621-3.391,8.039-3.581,0,0,16.073-6.618,26.445-10.891l2.26-1.386c-10.134,4.285-26,11-25.986,10.989-1.179.545-5.446,2.51-10.757,4.869" transform="translate(-158.454 -140.853)" fill="#302d2c"/>
</svg>
