<svg id="DNA_8" xmlns="http://www.w3.org/2000/svg" xmlns:xlink="http://www.w3.org/1999/xlink" width="119.488" height="119.489" viewBox="0 0 119.488 119.489">
  <defs>
    <clipPath id="clip-path">
      <rect id="사각형_5757" data-name="사각형 5757" width="119.488" height="119.489" fill="none"/>
    </clipPath>
  </defs>
  <g id="그룹_11102" data-name="그룹 11102" clip-path="url(#clip-path)">
    <path id="패스_19721" data-name="패스 19721" d="M61.668,119.489c-3.049,0-7.218-1-11.984-4.821a69.02,69.02,0,0,1-8.377-8.082c-1.194-1.443-2.174-2.641-2.98-3.641a19.288,19.288,0,0,1-8.868,4l-.018,0a12.109,12.109,0,0,1-9.238-2.409l-.013-.01c-2.476-1.9-5.6-5.711-6.4-13.062a69.674,69.674,0,0,1-.2-11.648c.174-1.859.329-3.4.466-4.672a19.252,19.252,0,0,1-9.1-3.449A12.032,12.032,0,0,1,.114,63.444c-.406-3.1.082-7.995,4.7-13.76l.01-.013A70.07,70.07,0,0,1,12.914,41.3c1.436-1.192,2.632-2.17,3.633-2.976a19.327,19.327,0,0,1-4-8.851,12.073,12.073,0,0,1,2.417-9.275c1.893-2.476,5.7-5.6,13.059-6.4a67.539,67.539,0,0,1,11.65-.2c1.858.172,3.4.325,4.673.461a19.257,19.257,0,0,1,3.446-9.1A12.076,12.076,0,0,1,56.034.117c3.1-.412,8,.071,13.777,4.709a67.435,67.435,0,0,1,8.377,8.087c1.193,1.442,2.171,2.638,2.976,3.636a19.322,19.322,0,0,1,8.856-4,12.077,12.077,0,0,1,9.269,2.415l.258.2c4.292,3.465,5.715,8.9,6.153,12.851l0,.022a70.362,70.362,0,0,1,.2,11.628c-.161,1.7-.321,3.269-.479,4.677a19.271,19.271,0,0,1,9.054,3.4c.186.131.368.272.562.436a12.143,12.143,0,0,1,4.33,7.855h0c.413,3.095-.067,8-4.7,13.768l-.011.013a70.954,70.954,0,0,1-8.073,8.367l-.012.01c-1.438,1.188-2.633,2.163-3.631,2.967a19.261,19.261,0,0,1,4,8.868,12.053,12.053,0,0,1-2.418,9.262c-1.892,2.474-5.7,5.6-13.06,6.4a69.41,69.41,0,0,1-11.65.2c-1.527-.144-2.94-.283-4.19-.412l-.483-.051a19.292,19.292,0,0,1-3.438,9.093,12.044,12.044,0,0,1-8.263,4.843,13.5,13.5,0,0,1-1.776.116" transform="translate(0 0)" fill="#ff7600"/>
    <path id="패스_19722" data-name="패스 19722" d="M144.008,86.521a6.941,6.941,0,0,0-2.5-4.543,2.864,2.864,0,0,0-.252-.2c-3.108-2.275-7.275-2.9-11.966-2.613h0c.278-1.56.7-4.6,1.227-10.193a64.477,64.477,0,0,0-.2-10.593c-.595-5.366-2.608-8.05-4.249-9.375l-.152-.12a6.916,6.916,0,0,0-5.3-1.408c-3.806.6-7.195,3.093-10.3,6.616-.083.09-.084.089,0,0-.676-1.1-2.76-3.741-6.343-8.072a63.232,63.232,0,0,0-7.626-7.347c-4.342-3.485-7.74-3.888-9.829-3.61a6.917,6.917,0,0,0-4.734,2.755c-2.275,3.108-2.9,7.27-2.618,11.96-1.256-.289-4.6-.7-10.191-1.215a63.141,63.141,0,0,0-10.6.2c-5.526.6-8.215,2.722-9.491,4.391a6.91,6.91,0,0,0-1.407,5.3c.6,3.807,3.092,7.188,6.61,10.3l0,0c-1.11.69-3.824,2.815-8.073,6.34a63.661,63.661,0,0,0-7.352,7.631c-3.481,4.341-3.879,7.74-3.605,9.829a6.892,6.892,0,0,0,2.753,4.729c3.113,2.279,7.265,2.906,11.957,2.619-.284,1.262-.692,4.609-1.216,10.192a63.719,63.719,0,0,0,.2,10.592c.605,5.536,2.727,8.22,4.4,9.5a6.939,6.939,0,0,0,5.3,1.4c3.806-.595,7.2-3.092,10.306-6.608.682,1.092,2.76,3.736,6.348,8.071a63.618,63.618,0,0,0,7.63,7.347c4.342,3.485,7.74,3.883,9.823,3.605a6.889,6.889,0,0,0,4.74-2.749c2.27-3.114,2.9-7.276,2.607-11.962-.007-.123,0-.123.005,0,.9.213,2.9.474,6.048.808,1.211.125,2.591.262,4.151.409a62.945,62.945,0,0,0,10.587-.2c5.536-.605,8.219-2.727,9.5-4.4a6.892,6.892,0,0,0,1.407-5.3c-.594-3.813-3.092-7.2-6.621-10.309-.01-.009,0-.009.007,0,1.092-.682,3.742-2.76,8.073-6.339a65.047,65.047,0,0,0,7.352-7.636c3.48-4.336,3.878-7.74,3.6-9.823m-14.874,16.794c-1.318,3.3-4.283,5.914-4.766,6.468h0a93.208,93.208,0,0,0-14.127-9.218L91.089,90.36a1.2,1.2,0,0,1-.169.268c-.044.049-.093.093-.137.142,3.191,3.185,14.672,14.672,15.469,15.523,4.794,5.149,9.114,10.516,8.2,14.819-.518,2.45-2.656,4.574-6.66,6.158a23.831,23.831,0,0,1-7.946,1.205h0a92.421,92.421,0,0,0-3.469-16.5L90.053,91.211a1.845,1.845,0,0,1-.512.066c.01,4.5,0,20.759-.033,21.926-.25,7.036-.992,13.876-4.68,16.276-2.095,1.369-5.045,1.206-9.06-.344-3.312-1.279-5.913-4.282-6.479-4.777a91.564,91.564,0,0,0,9.22-14.117l10.21-19.167a1.577,1.577,0,0,1-.284-.18,1.093,1.093,0,0,1-.125-.131c-3.18,3.191-14.677,14.688-15.524,15.485-5.159,4.8-10.521,9.115-14.824,8.2-2.449-.518-4.509-2.675-6.163-6.654-1.1-2.646-1.145-7.21-1.2-7.951a92.65,92.65,0,0,0,16.5-3.469l20.76-6.332a1.576,1.576,0,0,1-.077-.507c-4.511,0-20.743.011-21.905-.033C58.841,89.254,52,88.512,49.6,84.825c-1.363-2.094-1.333-5.1.349-9.059a23.139,23.139,0,0,1,4.771-6.478A91.794,91.794,0,0,0,68.841,78.51L87.975,88.7a2.063,2.063,0,0,1,.191-.294c.038-.044.087-.082.125-.12-3.2-3.2-14.667-14.65-15.458-15.506-4.8-5.149-9.114-10.517-8.2-14.82.513-2.449,2.748-4.343,6.649-6.163,3.033-1.415,7.216-1.157,7.952-1.2-.007-.122-.007-.122,0,0A92.442,92.442,0,0,0,82.7,67.1l6.317,20.727a1.679,1.679,0,0,1,.524-.071c-.007-4.527-.012-20.721.032-21.883C89.82,58.836,90.567,52,94.249,49.6c2.1-1.363,5.095-1.33,9.06.349,3.184,1.348,5.914,4.279,6.476,4.771a93.342,93.342,0,0,0-9.216,14.119L90.375,87.963a1.556,1.556,0,0,1,.279.174,1.629,1.629,0,0,1,.141.148c3.2-3.208,14.645-14.661,15.5-15.458,5.16-4.794,10.516-9.108,14.825-8.2,2.444.507,4.648,2.613,6.164,6.643a25.636,25.636,0,0,1,1.2,7.957c.2-.012.2-.012,0,0a92.757,92.757,0,0,0-16.51,3.458L91.238,89.02a1.638,1.638,0,0,1,.066.512c4.521-.005,20.737-.005,21.9.038,7.036.251,13.881.992,16.281,4.679,1.364,2.1,1.253,5.058-.349,9.066" transform="translate(-29.794 -29.793)" fill="#009dff"/>
  </g>
</svg>
