<svg id="DNA_3" xmlns="http://www.w3.org/2000/svg" xmlns:xlink="http://www.w3.org/1999/xlink" width="128.345" height="108.599" viewBox="0 0 128.345 108.599">
  <defs>
    <clipPath id="clip-path">
      <rect id="사각형_5759" data-name="사각형 5759" width="128.345" height="108.599" fill="none"/>
    </clipPath>
  </defs>
  <path id="패스_19723" data-name="패스 19723" d="M27,97.686h1.733v6.957H27.272l-3.846-4.458v4.458H21.689V97.686h1.593L27,101.938Zm22.8,0h1.731v6.957H49.8Zm26.772,3.153,2.193-3.153h1.907l-2.267,3.265,3.075,3.693H79.31l-2.757-3.267v3.267H74.818V97.686h1.735v3.153Zm25.671-3.153H107.3v1.276h-3.323v1.459h3.173v1.274h-3.173v1.675h3.4v1.273h-5.132ZM64.24,12.107l47.2,81.367H16.949ZM64.24,0,0,108.6H128.345Z" fill="#7058ff"/>
  <path id="패스_19724" data-name="패스 19724" d="M150.554,653.332H149.1l-3.846-4.458v4.458h-1.737v-6.957H145.1l3.716,4.252v-4.252h1.733Z" transform="translate(-121.823 -548.689)" fill="#57d7ff"/>
  <rect id="사각형_5758" data-name="사각형 5758" width="1.731" height="6.957" transform="translate(49.803 97.686)" fill="#57d7ff"/>
  <path id="패스_19725" data-name="패스 19725" d="M499.552,653.332l-2.757-3.266v3.266H495.06v-6.957H496.8v3.153h.022l2.193-3.153h1.907l-2.267,3.265,3.075,3.692Z" transform="translate(-420.243 -548.689)" fill="#57d7ff"/>
  <path id="패스_19726" data-name="패스 19726" d="M681.681,653.332h-5.132v-6.957h5.058v1.276h-3.323v1.459h3.172v1.274h-3.172v1.675h3.4Z" transform="translate(-574.303 -548.689)" fill="#57d7ff"/>
  <g id="그룹_11105" data-name="그룹 11105">
    <g id="그룹_11104" data-name="그룹 11104" clip-path="url(#clip-path)">
      <path id="패스_19727" data-name="패스 19727" d="M235.888,431.978a5.258,5.258,0,1,1,0-10.515,5.557,5.557,0,0,1,4.614,2.573h8.906a13.857,13.857,0,0,0-27.47,2.577,13.9,13.9,0,0,0,13.842,13.952,14.06,14.06,0,0,0,13.738-11.591H240.61a5.162,5.162,0,0,1-4.722,3" transform="translate(-188.397 -350.387)" fill="#57d7ff"/>
      <path id="패스_19728" data-name="패스 19728" d="M349.418,262.562V238.846H341.05v1.073a14.442,14.442,0,0,0-5.582-1.179,13.79,13.79,0,1,0,9.55,23.822Zm-13.843-4.935a5.258,5.258,0,0,1,0-10.516,4.981,4.981,0,0,1,5.368,5.256,5.293,5.293,0,0,1-5.368,5.26" transform="translate(-273.017 -202.66)" fill="#57d7ff"/>
      <path id="패스_19729" data-name="패스 19729" d="M441.438,424.145v4.936h1.825a4.937,4.937,0,0,1-4.616,2.789,5.266,5.266,0,0,1-5.258-5.258,5.338,5.338,0,0,1,5.258-5.26,5.4,5.4,0,0,1,3.113,1.073l6.119-6.117a14.165,14.165,0,0,0-9.338-3.54,13.846,13.846,0,1,0,13.844,13.844v-2.467Z" transform="translate(-360.513 -350.387)" fill="#57d7ff"/>
      <path id="패스_19730" data-name="패스 19730" d="M384.407,294.133a5.259,5.259,0,1,0,5.368,5.256,4.981,4.981,0,0,0-5.368-5.256" transform="translate(-321.849 -249.681)" fill="#ff675d"/>
      <path id="패스_19731" data-name="패스 19731" d="M159.436,80.109l-47.292,81.369h94.487Zm-16.857,78.07a13.9,13.9,0,0,1,0-27.8,13.743,13.743,0,0,1,13.628,11.267H147.3a5.557,5.557,0,0,0-4.614-2.573,5.258,5.258,0,0,0,0,10.515,5.163,5.163,0,0,0,4.722-3h8.908a14.06,14.06,0,0,1-13.738,11.591m1.224-40.362a13.786,13.786,0,0,1,13.844-13.734,14.443,14.443,0,0,1,5.582,1.18v-1.074H171.6V127.9h-4.4A13.891,13.891,0,0,1,143.8,117.817m29.421,40.259a13.846,13.846,0,0,1,0-27.692,14.166,14.166,0,0,1,9.338,3.54l-6.119,6.117a5.4,5.4,0,0,0-3.113-1.074,5.338,5.338,0,0,0-5.258,5.26,5.265,5.265,0,0,0,5.258,5.258,4.937,4.937,0,0,0,4.616-2.789H176.12V141.76h10.947v2.467a13.813,13.813,0,0,1-13.844,13.848" transform="translate(-95.196 -68.002)" fill="#ff675d"/>
    </g>
  </g>
</svg>
