<svg id="DNA_5" xmlns="http://www.w3.org/2000/svg" width="119.488" height="55.099" viewBox="0 0 119.488 55.099">
  <path id="패스_20674" data-name="패스 20674" d="M1484.869,44.768a8.13,8.13,0,0,0-1.108-7.3,13.774,13.774,0,0,0-7.234-4.732,73.438,73.438,0,0,0-16.706-3.089,5.976,5.976,0,0,0-4.492,1.309,4.43,4.43,0,0,0-1.8-4.071h0c-.451-.342-1.651-1.25-10.975-4.791a6.928,6.928,0,0,0-5.765.137c.219-2.652-1.109-5.012-3.841-6.53a19.889,19.889,0,0,0-4.3-1.77c-5.561-1.556-20.336-3.963-37.394,7.246a55.171,55.171,0,0,0-16.071,17.049,97.6,97.6,0,0,0-7.235,15.734,55.752,55.752,0,0,0-1.91,5.851,6.54,6.54,0,0,0,.827,5.548,6.334,6.334,0,0,0,5.016,2.295l3.92.008q3.231.005,6.463.016a11.678,11.678,0,0,0,2.393-.21c3.328-.681,4.282-2.464,5.095-5.062.067-.216.14-.447.22-.694.949-2.939,3.293-8.331,3.586-9.013.139-.3.37-.3.822-.3,0,0,4.788-.1,6.162-.113-.048.244-.12.542-.228.9a6.206,6.206,0,0,0,.849,5.532,6.6,6.6,0,0,0,5.389,2.52h.421q.807.005,1.614,0h1.929c2.386-.016,4.772.028,7.158,0a6.866,6.866,0,0,0,6.6-4.138,4.519,4.519,0,0,0,3.133,3.731,9.362,9.362,0,0,0,2.59.394h.525c3.91,0,5.012.021,9.592,0a11.368,11.368,0,0,0,1.822-.116,6.467,6.467,0,0,0,4.211-3.321,4.363,4.363,0,0,0,1.76,2.51,7.17,7.17,0,0,0,4.022.914h3.268c.243,0,.488,0,.733,0,.608.009,1.3.051,2.019,0a5.7,5.7,0,0,0,2.423-.847c1.818-.926,2.777-4.194,3.247-5.494.053-.147.2-.184.239.028a16.088,16.088,0,0,0,1.983,4.2,5.508,5.508,0,0,0,2.423,1.573,8.315,8.315,0,0,0,2.6.452c1.495.069,3.04.141,4.651.058.23-.012.512-.022.815-.033.828-.031,1.765-.065,2.479-.148a8.081,8.081,0,0,0,.907-.158,5.2,5.2,0,0,0,3.774-2.97c.766-1.76.293-3.685-.917-5.578-.417-.652-.845-1.275-1.259-1.878l-.4-.585a9.474,9.474,0,0,0,3.955-5.067m-61.231,8.477c-.142.554-.27,1.052-.382,1.482-.516,1.976-1.655,4.609-5.571,4.655-2.384.028-4.805,0-7.147.018l-1.931.013-.53,0q-.535,0-1.071,0l-.413,0a4.758,4.758,0,0,1-3.963-1.769,4.384,4.384,0,0,1-.574-3.959c.691-2.307.479-3.2-.879-3.2h-.049c-1.572.015-3.176.049-4.727.082l-1.981.04c-1.5,0-1.938.381-2.43,1.295-.307.715-.586,1.358-.845,1.954a69.3,69.3,0,0,0-2.836,7.3c-.082.253-.156.489-.224.71-.717,2.29-1.332,3.877-5.1,4.011-.21.007-.432.01-.679.009-2.17-.009-4.379-.013-6.514-.017l-3.872-.008a4.5,4.5,0,0,1-3.622-1.619,4.782,4.782,0,0,1-.5-4,54.282,54.282,0,0,1,1.852-5.663,95.973,95.973,0,0,1,7.119-15.482,54.028,54.028,0,0,1,15.5-16.432,52.018,52.018,0,0,1,14.211-6.638,42.908,42.908,0,0,1,11.792-1.687,37.219,37.219,0,0,1,9.931,1.305,18.108,18.108,0,0,1,3.914,1.611,5.4,5.4,0,0,1,2.774,3.194,5.568,5.568,0,0,1-.61,4.147c-.481.928-.987,1.85-1.477,2.742-.385.7-.783,1.428-1.16,2.14-3.688,6.971-6.6,18.323-8,23.778m22.393-.4c-.054.206-.1.413-.156.621a19.521,19.521,0,0,1-.694,2.359c-.976,2.542-2.883,3.573-4.434,3.573l-10.581,0h-.185a8.045,8.045,0,0,1-1.792-.21c-2.023-.528-2.724-2.72-2.275-4.745q.13-.586.258-1.173c.435-1.992.885-4.051,1.492-6.069,1.049-3.486,2.354-7.825,3.9-11.9a101.021,101.021,0,0,1,4.294-9.419,4.133,4.133,0,0,1,3.8-2.629,6.455,6.455,0,0,1,2.3.493c4.145,1.574,9.336,3.641,10.531,4.545.605.458,1.528,1.546.909,3.682-.329.893-2.158,5.247-2.725,6.674l-.114.287a118.156,118.156,0,0,0-4.525,13.906m32.3-3.662c.087.124.174.246.254.357.2.276.42.587.642.918s.434.639.653.958c.405.59.622.905,1.051,1.514.346.491,1.712,2.481.957,4.216a4.174,4.174,0,0,1-3.97,2.131c-.65,0-5.11.05-6.682.05a8.11,8.11,0,0,1-2.322-.344,3.887,3.887,0,0,1-1.581-1.074,15.856,15.856,0,0,1-2.553-4.9c-.221-.635-.333-1.072-.482-1.646a.438.438,0,0,0-.807-.135c-.005,0-2.062,4.93-2.062,4.93a4.7,4.7,0,0,1-1.926,2.654,3.7,3.7,0,0,1-1.653.574q-.2.015-.4.023c-.5.021-.989.015-1.46.009-.269,0-.522-.007-.771,0l-2.678.024h-.106a4.864,4.864,0,0,1-2.94-.543,3.415,3.415,0,0,1-1.421-1.791,4.742,4.742,0,0,1-.019-2.763c1.48-6.778,6-18.391,7.271-20.576a4.242,4.242,0,0,1,3.88-2.374h0c.163,0,.335.007.51.022a71.709,71.709,0,0,1,16.309,3.01,12.124,12.124,0,0,1,6.347,4.1,6.346,6.346,0,0,1,.837,5.695,8.027,8.027,0,0,1-4.872,4.967" transform="translate(-1365.785 -12.585)"/>
  <path id="패스_20675" data-name="패스 20675" d="M1446.424,50.993c.521-.836.919-1.433,1.3-2.011.431-.648.8-1.068,1.359-1.979.1-.145.037-.291-.12-.291a15.436,15.436,0,0,0-2.72.774,17.846,17.846,0,0,0-6.939,4.994c-.177.2-.269.449.133.449.323,0,1.478-.007,1.893-.015.526-.01,1.123-.022,1.806-.022h.517c1.583,0,1.905-.518,2.767-1.9" transform="translate(-1403.039 -29.913)"/>
  <path id="패스_20676" data-name="패스 20676" d="M1543.45,97.454v0h0v0" transform="translate(-1455.994 -55.678)"/>
  <path id="패스_20677" data-name="패스 20677" d="M1420.136,18.161a35,35,0,0,1,9.382,1.23,16.174,16.174,0,0,1,3.472,1.43c1.98,1.1,2.384,2.616,1.345,4.621-.849,1.637-1.767,3.237-2.629,4.866-4.176,7.892-7.311,20.928-8.557,25.7-.526,2.015-1.346,3.105-3.623,3.132-3.023.035-6.046.052-9.07.074l-.515,0c-.491,0-.983,0-1.474-.007-1.962-.01-3.157-1.268-2.594-3.147,1.32-4.406-.25-5.828-2.832-5.828h-.069c-2.284.022-4.567.082-6.851.125a4.128,4.128,0,0,0-4.109,2.45,92.046,92.046,0,0,0-3.781,9.509c-.887,2.745-.949,3.222-3.457,3.31-.185.007-.384.009-.6.008-3.462-.015-6.925-.016-10.388-.025-1.72,0-2.573-1.388-2.145-3.087a52.166,52.166,0,0,1,1.785-5.45,92.606,92.606,0,0,1,6.985-15.194,51.727,51.727,0,0,1,14.838-15.728c9.682-6.362,18.43-7.99,24.883-7.99m-15.288,21.275c.77,0,1.708-.037,2.9-.037l.45,0h.067c2.682,0,3.544-1.332,4.5-2.862,1.091-1.751,1.636-2.438,2.708-4.2.928-1.526.985-3.248-1.223-3.248a12.444,12.444,0,0,0-4.065.938,20.255,20.255,0,0,0-7.894,5.684c-1.121,1.308-1.141,2.994.591,3.518a6.837,6.837,0,0,0,1.966.2m15.288-23.313a42.889,42.889,0,0,0-11.792,1.688,52,52,0,0,0-14.211,6.637,54.028,54.028,0,0,0-15.5,16.432,95.962,95.962,0,0,0-7.119,15.482,54.378,54.378,0,0,0-1.852,5.663,4.782,4.782,0,0,0,.5,4,4.5,4.5,0,0,0,3.622,1.619l3.871.008c2.135,0,4.344.007,6.514.017.247,0,.469,0,.679-.009,3.768-.133,4.382-1.721,5.1-4.011.069-.221.143-.457.224-.71a69.246,69.246,0,0,1,2.836-7.3c.259-.6.538-1.24.845-1.954.492-.915.932-1.3,2.43-1.3l1.981-.04c1.551-.033,3.155-.067,4.727-.082h.049c1.357,0,1.57.9.879,3.2a4.383,4.383,0,0,0,.574,3.959,4.758,4.758,0,0,0,3.963,1.77l.413,0q.535,0,1.071,0l.53,0,1.931-.013c2.342-.016,4.763.01,7.147-.018,3.916-.046,5.055-2.679,5.571-4.655.112-.43.24-.927.382-1.482,1.4-5.455,4.316-16.807,8-23.778.377-.712.775-1.438,1.16-2.139.49-.892,1-1.813,1.477-2.742a5.567,5.567,0,0,0,.61-4.146,5.4,5.4,0,0,0-2.774-3.195,18.13,18.13,0,0,0-3.914-1.611,37.22,37.22,0,0,0-9.931-1.305m-16.217,20.826a17.846,17.846,0,0,1,6.939-4.994,15.448,15.448,0,0,1,2.72-.774c.156,0,.215.146.12.29-.554.911-.927,1.332-1.359,1.98-.385.577-.782,1.174-1.3,2.01-.862,1.384-1.185,1.9-2.767,1.9h-.051l-.467,0c-.683,0-1.279.012-1.806.022-.415.008-1.569.015-1.893.015-.4,0-.31-.246-.133-.449" transform="translate(-1367.65 -14.382)" fill="#fff"/>
  <path id="패스_20678" data-name="패스 20678" d="M1543.85,52.818c.109,0,.224,0,.344.015a70.613,70.613,0,0,1,15.854,2.92,10.05,10.05,0,0,1,5.333,3.374c1.552,2.084.895,6.233-3.734,7.764-2.261.748-.823,2.065.538,4.092.616.917,1.352,1.936,2.006,2.826.41.558,1.567,2.939-2.353,2.939h-5.677a3.485,3.485,0,0,1-3.422-1.787,40.008,40.008,0,0,1-2.136-5.394c-.146-.521-.419-.885-1.372-.987l-1.079-.115a1.237,1.237,0,0,0-1.342.66c-.421.784-1.6,3.338-2.393,5.211-.286.637-.672,1.741-1.3,2.107a1.758,1.758,0,0,1-.773.3c-.112.008-.225.014-.339.019-.717.031-1.386,0-2.1,0-1.09.008-1.576.016-2.666.025a3.632,3.632,0,0,1-1.971-.359,1.376,1.376,0,0,1-.575-.736,2.447,2.447,0,0,1-.175-.862,26.493,26.493,0,0,1,1-4.092,110.769,110.769,0,0,1,6.214-16.56,2.226,2.226,0,0,1,2.118-1.361m8.912,10.409c2.063.063,2.918-.191,3.292-1.062.183-.426.3-1.571-1.286-2.162a28.49,28.49,0,0,0-4.077-.905c-.149-.006-.34-.046-.536-.052a.756.756,0,0,0-.818.509c-.222.56-.556,1.745-.718,2.325a.636.636,0,0,0,.433.89,17.109,17.109,0,0,0,3.582.452l.129,0M1543.85,50.78h0a4.242,4.242,0,0,0-3.88,2.374c-1.271,2.184-5.791,13.8-7.271,20.575a4.737,4.737,0,0,0,.019,2.763,3.412,3.412,0,0,0,1.421,1.791,4.869,4.869,0,0,0,2.941.543h.106l2.678-.023c.249,0,.5,0,.771,0,.471.006.957.012,1.461-.009.135-.006.269-.013.4-.023a3.7,3.7,0,0,0,1.653-.575,4.693,4.693,0,0,0,1.926-2.654s2.057-4.931,2.063-4.93a.437.437,0,0,1,.807.135c.15.574.261,1.012.483,1.646a15.826,15.826,0,0,0,2.553,4.9,3.89,3.89,0,0,0,1.581,1.074,8.125,8.125,0,0,0,2.322.344c1.572,0,6.032-.05,6.682-.05a4.173,4.173,0,0,0,3.97-2.131c.755-1.735-.612-3.725-.957-4.216-.428-.609-.645-.924-1.051-1.514-.219-.318-.437-.637-.653-.958s-.445-.642-.642-.917l-.254-.357a8.024,8.024,0,0,0,4.872-4.967,6.345,6.345,0,0,0-.837-5.695,12.126,12.126,0,0,0-6.347-4.1,71.707,71.707,0,0,0-16.309-3.01c-.175-.014-.347-.022-.51-.022m18.21,18.137Z" transform="translate(-1450.439 -31.979)" fill="#fff"/>
  <path id="패스_20679" data-name="패스 20679" d="M1501.542,36.293a4.593,4.593,0,0,1,1.578.36c2.141.813,8.717,3.3,9.8,4.118.847.7-.164,2.7-.623,3.971q-.813,2.079-1.634,4.155l-.114.286a119.922,119.922,0,0,0-4.6,14.147c-.24.925-.7,2.451-1.037,3.34a2.951,2.951,0,0,1-2.78,1.785h-10.716c-1.59,0-1.955-1.631-1.735-2.621.527-2.376,1.127-4.723,1.827-7.05,1.189-3.95,2.391-7.907,3.851-11.762a100.179,100.179,0,0,1,4.211-9.229c.532-1.063,1.143-1.5,1.975-1.5m0-2.038h0a4.132,4.132,0,0,0-3.8,2.629,101.085,101.085,0,0,0-4.294,9.419c-1.542,4.071-2.847,8.41-3.9,11.9-.607,2.017-1.057,4.077-1.493,6.069q-.128.586-.257,1.173c-.449,2.025.252,4.218,2.275,4.745a8.012,8.012,0,0,0,1.792.21h10.766c1.551,0,3.458-1.031,4.434-3.573a19.467,19.467,0,0,0,.693-2.359c.051-.207.1-.414.156-.62a118.014,118.014,0,0,1,4.526-13.906l.114-.287c.566-1.427,2.4-5.781,2.725-6.674.619-2.136-.3-3.224-.909-3.682-1.2-.905-6.387-2.971-10.532-4.545a6.443,6.443,0,0,0-2.3-.493" transform="translate(-1427.674 -23.588)" fill="#fff"/>
  <path id="패스_20680" data-name="패스 20680" d="M1422.277,20.264a34.976,34.976,0,0,1,9.382,1.231,16.149,16.149,0,0,1,3.473,1.429c1.98,1.1,2.384,2.616,1.344,4.621-.848,1.637-1.767,3.237-2.629,4.866-4.176,7.892-7.311,20.928-8.557,25.7-.526,2.015-1.346,3.105-3.622,3.132-3.023.035-6.046.052-9.069.074l-.515,0c-.492,0-.983,0-1.474-.007-1.961-.01-3.157-1.268-2.594-3.147,1.32-4.406-.249-5.828-2.832-5.828h-.069c-2.284.022-4.567.082-6.85.125a4.128,4.128,0,0,0-4.109,2.45,92.076,92.076,0,0,0-3.781,9.508c-.887,2.745-.949,3.222-3.457,3.31q-.277.01-.6.008c-3.463-.015-6.926-.016-10.389-.025-1.72,0-2.573-1.388-2.145-3.087a52.281,52.281,0,0,1,1.785-5.45,92.655,92.655,0,0,1,6.986-15.194,51.727,51.727,0,0,1,14.838-15.728c9.682-6.362,18.43-7.99,24.883-7.99m-15.288,21.275c.771,0,1.708-.037,2.9-.037l.451,0h.067c2.682,0,3.544-1.332,4.5-2.862,1.091-1.751,1.635-2.438,2.708-4.2.929-1.526.985-3.248-1.223-3.248a12.457,12.457,0,0,0-4.065.938,20.257,20.257,0,0,0-7.894,5.684c-1.121,1.308-1.142,2.994.59,3.518a6.84,6.84,0,0,0,1.966.2" transform="translate(-1369.792 -16.484)"/>
  <path id="패스_20681" data-name="패스 20681" d="M1545.922,54.921c.109,0,.224,0,.344.015a70.612,70.612,0,0,1,15.854,2.92,10.049,10.049,0,0,1,5.333,3.374c1.552,2.084.895,6.233-3.734,7.764-2.261.748-.823,2.065.538,4.092.616.917,1.352,1.936,2.006,2.826.41.558,1.567,2.939-2.353,2.939h-5.677a3.485,3.485,0,0,1-3.422-1.787,40.008,40.008,0,0,1-2.136-5.394c-.146-.521-.419-.885-1.372-.987l-1.079-.115a1.237,1.237,0,0,0-1.342.66c-.421.784-1.6,3.338-2.393,5.211-.286.637-.672,1.741-1.3,2.107a1.758,1.758,0,0,1-.773.3c-.112.008-.225.014-.339.019-.717.031-1.386,0-2.1,0-1.09.008-1.576.016-2.666.025a3.632,3.632,0,0,1-1.971-.359,1.377,1.377,0,0,1-.575-.736,2.449,2.449,0,0,1-.175-.862,26.508,26.508,0,0,1,1-4.092,110.783,110.783,0,0,1,6.214-16.56,2.226,2.226,0,0,1,2.118-1.361m8.912,10.409c2.063.064,2.918-.19,3.292-1.062.183-.426.3-1.571-1.286-2.162a28.494,28.494,0,0,0-4.078-.905c-.149-.006-.34-.046-.536-.052a.756.756,0,0,0-.818.509c-.222.56-.556,1.745-.718,2.325a.636.636,0,0,0,.433.89,17.109,17.109,0,0,0,3.582.452l.129,0m9.3,5.69Z" transform="translate(-1452.512 -34.081)"/>
  <path id="패스_20682" data-name="패스 20682" d="M1503.55,38.4a4.578,4.578,0,0,1,1.578.36c2.141.813,8.717,3.3,9.8,4.118.847.7-.164,2.7-.624,3.971q-.813,2.079-1.634,4.156l-.114.286a119.8,119.8,0,0,0-4.6,14.147c-.24.926-.7,2.452-1.038,3.341a2.951,2.951,0,0,1-2.78,1.785h-10.715c-1.59,0-1.955-1.631-1.736-2.621.527-2.376,1.127-4.723,1.828-7.05,1.188-3.95,2.391-7.907,3.85-11.762a100.248,100.248,0,0,1,4.211-9.229c.531-1.063,1.142-1.5,1.974-1.5" transform="translate(-1429.682 -25.691)"/>
</svg>
