<svg id="DNA_7" xmlns="http://www.w3.org/2000/svg" xmlns:xlink="http://www.w3.org/1999/xlink" width="128.108" height="101.833" viewBox="0 0 128.108 101.833">
  <defs>
    <clipPath id="clip-path">
      <rect id="사각형_5760" data-name="사각형 5760" width="128.108" height="101.833" fill="none"/>
    </clipPath>
  </defs>
  <path id="패스_19732" data-name="패스 19732" d="M64.053,0,63,.836,0,50.916l64.054,50.917,64.055-50.917Z" transform="translate(0)" fill="#e10033"/>
  <g id="그룹_11108" data-name="그룹 11108">
    <g id="그룹_11107" data-name="그룹 11107" clip-path="url(#clip-path)">
      <path id="패스_19733" data-name="패스 19733" d="M85.6,19.645l-1,.794L24.691,68.059,85.6,116.471,146.5,68.059ZM30.376,68.059c.251-.2,53.045-17.92,53.045-17.92L61.764,45.923l33.788-9.352-9.388,6.781,27.526,6.787L101,56.831s39.458,10.941,39.817,11.228L85.6,111.954c-1.866-1.483-51.83-41.2-55.222-43.9" transform="translate(-21.545 -17.142)" fill="lime" fill-rule="evenodd"/>
      <path id="패스_19734" data-name="패스 19734" d="M368.7,391.527l-42.628,18.127c-4.622,1.962-11.881,4.189-14.915-.666-1.682-2.7-.616-6.888,1.875-10.721a54.852,54.852,0,0,1,5.667-6.927c-1.147,1.828-4.316,7.966-.147,11.015,1.629,1.187,4.488,1.329,8.037.374Z" transform="translate(-270.803 -341.479)" fill="#1226cb"/>
    </g>
  </g>
</svg>
