<svg xmlns="http://www.w3.org/2000/svg" xmlns:xlink="http://www.w3.org/1999/xlink" width="62.525" height="148.051" viewBox="0 0 62.525 148.051">
  <defs>
    <clipPath id="clip-path">
      <rect id="사각형_5796" data-name="사각형 5796" width="148.051" height="62.525" fill="none"/>
    </clipPath>
  </defs>
  <g id="그룹_11118" data-name="그룹 11118" transform="translate(62.525) rotate(90)">
    <path id="패스_20050" data-name="패스 20050" d="M147.9,0,145.06,0,0,.169.149,62.525l144.986,0h2.916Z" transform="translate(0 0)"/>
    <g id="그룹_11117" data-name="그룹 11117" transform="translate(0)">
      <g id="그룹_11116" data-name="그룹 11116" clip-path="url(#clip-path)">
        <path id="패스_20051" data-name="패스 20051" d="M970.541,200.107h2.622v.818l-6.235,0v-1.419c0-.449.014-1.4,1.742-1.4,1.381,0,1.561.265,1.712.651a2.711,2.711,0,0,1,.984-.663,5.086,5.086,0,0,1,1.809-.309v.8a5.513,5.513,0,0,0-1.668.311,6.868,6.868,0,0,0-.966.585Zm-2.712,0h1.812v-.6c0-.459-.073-.6-.944-.6-.657,0-.846.019-.867.562Z" transform="translate(-840.798 -171.989)" fill="#fff"/>
        <path id="패스_20052" data-name="패스 20052" d="M970.541,323h2.622v.817l-6.235,0v-1.419c0-.45.014-1.4,1.742-1.4,1.381,0,1.561.265,1.712.651a2,2,0,0,1,.984-.663,6.1,6.1,0,0,1,1.809-.309v.8a6.732,6.732,0,0,0-1.668.311,2.29,2.29,0,0,0-.966.678Zm-2.712,0h1.812v-.6c0-.459-.073-.6-.944-.6-.657,0-.846.019-.867.562Z" transform="translate(-840.798 -278.856)" fill="#fff"/>
        <path id="패스_20053" data-name="패스 20053" d="M973.239,369.611l-6.333-1.452v-1.143l6.334-1.2v.84l-1.833.369V368.3l1.833.416Zm-2.845-1.48v-.977l-2.034.345v.217Z" transform="translate(-840.778 -318.1)" fill="#fff"/>
        <path id="패스_20054" data-name="패스 20054" d="M973.2,267.7l-6.334,0v-2.146h.705l.01,1.319h1.947l0-1.276.752-.011.01,1.287,2.908,0Z" transform="translate(-840.74 -230.916)" fill="#fff"/>
        <path id="패스_20055" data-name="패스 20055" d="M968.146,234.766a1.475,1.475,0,0,1-1.135-.44,1.719,1.719,0,0,1-.41-1.215,1.58,1.58,0,0,1,.421-1.161,1.532,1.532,0,0,1,1.148-.428l3.124,0a1.7,1.7,0,0,1,1.238.423,1.474,1.474,0,0,1,.436,1.148,1.716,1.716,0,0,1-.434,1.258,1.76,1.76,0,0,1-1.264.415Zm3.2-2.453H968c-.388,0-.594.355-.594.834,0,.18.085.806.594.806h3.327a.727.727,0,0,0,.724-.807c0-.723-.5-.833-.7-.833" transform="translate(-840.514 -201.32)" fill="#fff"/>
        <path id="패스_20056" data-name="패스 20056" d="M971.734,170.743h-3.069a1.4,1.4,0,0,1-1.117-.371,1.57,1.57,0,0,1-.441-1.148,1.483,1.483,0,0,1,.45-1.105,1.468,1.468,0,0,1,1.131-.362h.419v.768h-.542c-.133,0-.585.059-.585.72,0,.615.337.749.627.75l3.387-.011c.208,0,.581-.165.581-.738,0-.638-.418-.721-.627-.721l-.579.009-.011-.766h.566a1.34,1.34,0,0,1,.905.2,1.475,1.475,0,0,1,.574,1.232,1.421,1.421,0,0,1-.424,1.13,1.721,1.721,0,0,1-1.246.409" transform="translate(-840.954 -145.875)" fill="#fff"/>
        <path id="패스_20057" data-name="패스 20057" d="M974.01,143.377l-6.2,0v-2.272h.773v1.4l1.939-.013,0-1h.714v1.007h2.062v-1.4h.717Z" transform="translate(-841.561 -122.699)" fill="#fff"/>
        <rect id="사각형_5787" data-name="사각형 5787" width="6.317" height="0.749" transform="translate(126.143 46.214)" fill="#fff"/>
        <path id="패스_20058" data-name="패스 20058" d="M764.656,284.8l13.229,4.445v-2.836l-5.327-2,5.327.229v-2.83l-13.226-4.466v2.552l6.032,2.071-6.032.332Z" transform="translate(-664.911 -241.163)" fill="#fff"/>
        <path id="패스_20059" data-name="패스 20059" d="M764.656,252.277l13.235,4.411-.014-2.819-13.221-4.328Z" transform="translate(-664.911 -216.99)" fill="#fff"/>
        <path id="패스_20060" data-name="패스 20060" d="M764.656,189.11l13.224,4.542v-2.786l-4.8-1.636,4.352-.1-.919-2.641-5.3.224-6.55-5.177v3.111l3.487,2.916-3.487-1.089Z" transform="translate(-664.911 -157.853)" fill="#fff"/>
        <path id="패스_20061" data-name="패스 20061" d="M867.846,127.954l11.25,3.185v-2.26l-11.25-3.2Z" transform="translate(-754.639 -109.286)" fill="#fff"/>
        <path id="패스_20062" data-name="패스 20062" d="M787.546,89.987c-4.28-10.07-15.677-36.271-16.118-36.706-.592-1.282,2.336,8.977,4.041,15l-1.195-.473-.009,2.869-2.64-.955V67.192l-2.261-.769.007,2.487-2.216-.726,0-2.466-2.5-.916v5.112l12.319,4.727s2.834,8.049,3.644,10.557c1.1,3.395,2.775,6.413-.536,9.508-2.3,2.147-6.748-.308-8.415-1.235,2.39,2.044,7.157,7.117,11.838,7.115,4.379,0,6.819-4.066,4.04-10.6" transform="translate(-664.911 -46.235)" fill="#fff"/>
        <path id="패스_20063" data-name="패스 20063" d="M879.093,81.367l-4.614-1.22c0-.14,0-.547,0-.547l4.613-.872V76.8l-4.674,1.033c0-.858-.419-1.783-3.222-2.483-2.906-.725-3.352.453-3.352,1.844,0,.81,0,3.038,0,3.038l11.25,3.051Zm-9.34-2.376c-.024-.407,0-.618,0-1.039,0-.908.338-1.147,1.571-.809,1.126.309,1.269.776,1.269,1.519,0,.456-.032,1.022-.032,1.022Z" transform="translate(-754.638 -65.332)" fill="#fff"/>
        <path id="패스_20064" data-name="패스 20064" d="M755.146,116.722v-.036l1.091-.5v-.318l-1.139.531a.6.6,0,0,0-.123-.261.535.535,0,0,0-.215-.163.723.723,0,0,0-.3-.057.63.63,0,0,0-.5.195.873.873,0,0,0-.168.584v.03h.273V116.7a.559.559,0,0,1,.1-.368.376.376,0,0,1,.307-.122.361.361,0,0,1,.3.121.578.578,0,0,1,.1.367v.023Zm-1.352.792h2.444v-.282h-1.092v-.51h-.273v.51h-.806v-.51h-.273Z" transform="translate(-655.466 -100.749)" fill="#fff"/>
        <path id="패스_20065" data-name="패스 20065" d="M751.358,109.948a1.584,1.584,0,0,0-.524-1.164,1.867,1.867,0,0,0-2.511,0,1.587,1.587,0,0,0-.521,1.165h-.26a1.823,1.823,0,0,1,.6-1.337h0a2.147,2.147,0,0,1,2.88,0,1.821,1.821,0,0,1,.6,1.336Zm0,0h.261a1.818,1.818,0,0,1-.6,1.336h0a2.145,2.145,0,0,1-2.88,0,1.818,1.818,0,0,1-.6-1.335h.26a1.59,1.59,0,0,0,.522,1.165,1.873,1.873,0,0,0,2.511,0h0a1.584,1.584,0,0,0,.521-1.166" transform="translate(-650.029 -93.962)" fill="#fff"/>
        <path id="패스_20066" data-name="패스 20066" d="M876.152,331.806v-.038l1.091-.543v-.343l-1.138.573a.679.679,0,0,0-.124-.281.537.537,0,0,0-.215-.176.686.686,0,0,0-.3-.062.6.6,0,0,0-.5.211.986.986,0,0,0-.169.629v.031h.274v-.023a.645.645,0,0,1,.1-.4.365.365,0,0,1,.307-.132.35.35,0,0,1,.3.13.665.665,0,0,1,.1.4v.025Zm-1.352.854h2.444v-.3h-1.091v-.55h-.273v.55h-.806v-.55H874.8Z" transform="translate(-760.687 -287.719)" fill="#fff"/>
        <path id="패스_20067" data-name="패스 20067" d="M872.364,324.5a1.778,1.778,0,0,0-3.556,0h-.26a2.038,2.038,0,0,1,.6-1.442h0a2.037,2.037,0,0,1,3.478,1.439Zm0,0h.26a2.031,2.031,0,0,1-.6,1.44h0a2.037,2.037,0,0,1-3.479-1.438h.26a1.776,1.776,0,0,0,3.033,1.256h0a1.773,1.773,0,0,0,.522-1.258" transform="translate(-755.251 -280.396)" fill="#fff"/>
        <path id="패스_20068" data-name="패스 20068" d="M146.277,47.319v-.706h3.171v1.107l-2.514.658,2.513.65,0,.545v.546h-3.171v-.706h2.665l-2.666-.676v-.744L149,47.318Z" transform="translate(-127.196 -40.531)" fill="#fff"/>
        <path id="패스_20069" data-name="패스 20069" d="M149.465,80.221V81.1l-3.17,1.281v-.8l.644-.245V79.96l-.645-.236v-.779Zm-1.981-.05v.959l1.275-.48Z" transform="translate(-127.21 -68.646)" fill="#fff"/>
        <path id="패스_20070" data-name="패스 20070" d="M149.5,112.96v1.254a1.115,1.115,0,0,1-.383.918,1.745,1.745,0,0,1-1.124.314,2,2,0,0,1-1.239-.325,1.132,1.132,0,0,1-.425-.956v-1.2Zm-2.624.612v.517a.632.632,0,0,0,.272.559,1.458,1.458,0,0,0,.819.186,1.288,1.288,0,0,0,.74-.174.6.6,0,0,0,.247-.522v-.567Z" transform="translate(-127.243 -98.225)" fill="#fff"/>
        <path id="패스_20071" data-name="패스 20071" d="M146.323,139.459h3.171v2.661h-.565v-1.906h-.673v1.768h-.545v-1.768h-.827v1.99h-.563Z" transform="translate(-127.236 -121.266)" fill="#fff"/>
        <path id="패스_20072" data-name="패스 20072" d="M149.536,180.167v.848h-3.163v-.848Z" transform="translate(-127.279 -156.666)" fill="#fff"/>
        <path id="패스_20073" data-name="패스 20073" d="M146.391,194.2v-.681h3.163v.763l-2.219,1.4h2.22v.681h-3.163v-.726l2.28-1.435Z" transform="translate(-127.294 -168.276)" fill="#fff"/>
        <path id="패스_20074" data-name="패스 20074" d="M149.534,234.043v.9l-2.416.895v0l2.415.891v.874l-3.163-1.374v-.807Z" transform="translate(-127.278 -203.513)" fill="#fff"/>
        <path id="패스_20075" data-name="패스 20075" d="M149.537,266.838v.848h-3.161v-.848Z" transform="translate(-127.281 -232.031)" fill="#fff"/>
        <path id="패스_20076" data-name="패스 20076" d="M146.38,280.84h3.163v2.991h-.561v-2.142h-.671v1.987h-.544v-1.987h-.824v2.236h-.561Z" transform="translate(-127.286 -244.205)" fill="#fff"/>
        <path id="패스_20077" data-name="패스 20077" d="M149,308.323v-1.228h.562v3.3H149v-1.228h-2.6v-.848Z" transform="translate(-127.299 -267.036)" fill="#fff"/>
        <path id="패스_20078" data-name="패스 20078" d="M146.4,338.2v-.793h3.163v.889l-2.219,1.632h2.22v.794H146.4v-.846l2.28-1.676Z" transform="translate(-127.307 -293.391)" fill="#fff"/>
        <path id="패스_20079" data-name="패스 20079" d="M149.581,369.233v.983l-3.162,1.439v-.9l.643-.276v-1.54l-.643-.266V367.8Zm-1.975-.059v1.078l1.272-.54h0Z" transform="translate(-127.319 -319.819)" fill="#fff"/>
        <path id="패스_20080" data-name="패스 20080" d="M146.427,403.885v-.793h3.161v1.244l-2.506.74,2.506.729v1.227h-3.161v-.793h2.658l-2.658-.759v-.835l2.716-.76h-2.716Z" transform="translate(-127.325 -350.51)" fill="#fff"/>
        <path id="패스_20081" data-name="패스 20081" d="M104.7,46.013h3.254v2.166h-.578v-1.53h-.739v1.334h-.56V46.648H104.7v-.636Z" transform="translate(-91.04 -40.009)" fill="#fff"/>
        <path id="패스_20082" data-name="패스 20082" d="M107.959,65.135v.738l-3.254,1.078v-.674l.662-.206,0-1.154-.661-.2v-.657Zm-2.032-.043V65.9l1.307-.406h0Z" transform="translate(-91.046 -55.703)" fill="#fff"/>
        <path id="패스_20083" data-name="패스 20083" d="M107.966,89.368v1.24a.767.767,0,0,1-.218.581.833.833,0,0,1-.6.21.783.783,0,0,1-.616-.235.5.5,0,0,1-.063-.085.731.731,0,0,1-.733.406,1.071,1.071,0,0,1-.759-.244.929.929,0,0,1-.261-.71V89.369Zm-1.275.513,0,.612a.421.421,0,0,0,.1.3.38.38,0,0,0,.287.1.3.3,0,0,0,.249-.105.5.5,0,0,0,.084-.316v-.59Zm-1.414,0v.65a.405.405,0,0,0,.115.315.5.5,0,0,0,.348.1.4.4,0,0,0,.3-.107.453.453,0,0,0,.1-.321v-.64Z" transform="translate(-91.052 -77.71)" fill="#fff"/>
        <path id="패스_20084" data-name="패스 20084" d="M107.978,108.162V109.7a.986.986,0,0,1-.249.7.855.855,0,0,1-.656.266.794.794,0,0,1-.687-.3.82.82,0,0,1-.1-.178.749.749,0,0,1-.054.1.632.632,0,0,1-.557.271l-.533.015a.7.7,0,0,0-.227.032.21.21,0,0,0-.106.1h-.087v-.7a.854.854,0,0,1,.217-.044c.112-.011.232-.018.36-.02l.3-.005a.385.385,0,0,0,.312-.121.63.63,0,0,0,.092-.388V108.8h-1.286v-.637Zm-1.421.637v.738a.55.55,0,0,0,.108.37.408.408,0,0,0,.323.123.418.418,0,0,0,.323-.117.5.5,0,0,0,.107-.351V108.8Z" transform="translate(-91.063 -94.053)" fill="#fff"/>
        <path id="패스_20085" data-name="패스 20085" d="M107.989,131.256v.637h-3.254v-.635Z" transform="translate(-91.073 -114.134)" fill="#fff"/>
        <path id="패스_20086" data-name="패스 20086" d="M102.818,142.34l.361-.278a.9.9,0,0,1-.214-.6.932.932,0,0,1,.458-.812,2.231,2.231,0,0,1,1.24-.3,2.31,2.31,0,0,1,1.265.3.94.94,0,0,1,0,1.626,2.323,2.323,0,0,1-1.265.3,2.359,2.359,0,0,1-1.147-.243l-.333.251Zm1.107-.855.365.244-.326.255a1.922,1.922,0,0,0,.705.109,1.785,1.785,0,0,0,.845-.167.5.5,0,0,0,0-.924,1.788,1.788,0,0,0-.846-.167,1.711,1.711,0,0,0-.827.166.514.514,0,0,0-.3.464.458.458,0,0,0,.073.26Z" transform="translate(-89.406 -122.042)" fill="#fff"/>
        <path id="패스_20087" data-name="패스 20087" d="M105.385,163.617a1.429,1.429,0,0,1-1.006-.286,1.239,1.239,0,0,1-.309-.941,1.213,1.213,0,0,1,.322-.927,1.424,1.424,0,0,1,.993-.3h2.028v.637h-2.05a.794.794,0,0,0-.524.148.555.555,0,0,0-.175.447.571.571,0,0,0,.161.456.833.833,0,0,0,.539.136h2.05v.635Z" transform="translate(-90.495 -140.135)" fill="#fff"/>
        <path id="패스_20088" data-name="패스 20088" d="M104.757,184.787h3.254v2.242h-.578v-1.6h-.69v1.489h-.561v-1.489h-.848V187.1h-.579Z" transform="translate(-91.092 -160.681)" fill="#fff"/>
        <path id="패스_20089" data-name="패스 20089" d="M108.018,215.767v.754l-3.254,1.1v-.689l.662-.211v-1.179l-.662-.2v-.671Zm-2.032-.043v.826l1.308-.414h0Z" transform="translate(-91.096 -186.668)" fill="#fff"/>
        <path id="패스_20090" data-name="패스 20090" d="M105.419,242.293a1.416,1.416,0,0,1-1.006-.291,1.284,1.284,0,0,1-.309-.962,1.254,1.254,0,0,1,.321-.947,1.4,1.4,0,0,1,.992-.31h2.027v.649H105.4a.789.789,0,0,0-.524.151.57.57,0,0,0-.174.456.588.588,0,0,0,.16.466.823.823,0,0,0,.539.139h2.049v.65Z" transform="translate(-90.524 -208.504)" fill="#fff"/>
        <path id="패스_20091" data-name="패스 20091" d="M108.031,274.528v.691l-2.473.685h0l2.474.681v.67l-3.238-1.052v-.617Z" transform="translate(-91.124 -238.717)" fill="#fff"/>
        <path id="패스_20092" data-name="패스 20092" d="M108.046,301.774v.65H104.81v-.649Z" transform="translate(-91.138 -262.409)" fill="#fff"/>
        <path id="패스_20093" data-name="패스 20093" d="M104.814,312.911h3.252V315.2h-.578v-1.64h-.69v1.521h-.559v-1.522h-.848v1.712h-.577Z" transform="translate(-91.142 -272.092)" fill="#fff"/>
        <path id="패스_20094" data-name="패스 20094" d="M107.484,335.139V334.2h.576v2.528h-.576v-.939h-2.664v-.65Z" transform="translate(-91.146 -290.605)" fill="#fff"/>
        <path id="패스_20095" data-name="패스 20095" d="M104.828,359.586v-.607h3.238v.681l-2.272,1.25h2.273v.607h-3.239v-.648l2.334-1.283Z" transform="translate(-91.153 -312.151)" fill="#fff"/>
        <path id="패스_20096" data-name="패스 20096" d="M108.075,383.977v.754l-3.238,1.1v-.689l.659-.21v-1.179l-.659-.2v-.672Zm-2.022-.044,0,.826,1.3-.413h0Z" transform="translate(-91.162 -332.934)" fill="#fff"/>
        <path id="패스_20097" data-name="패스 20097" d="M104.854,410.572v-.607h3.235v.952l-2.564.567,2.564.558v.94h-3.235v-.607h2.722l-2.721-.581v-.639l2.78-.583Z" transform="translate(-91.176 -356.486)" fill="#fff"/>
        <path id="패스_20098" data-name="패스 20098" d="M424.969,352.421v.56l-2.059.555h0l2.06.553v.543l-2.7-.853v-.5Z" transform="translate(-367.191 -306.449)" fill="#fff"/>
        <path id="패스_20099" data-name="패스 20099" d="M422.274,219.748V219.3l2.684,0v.984a.592.592,0,0,1-.235.49,1.011,1.011,0,0,1-.628.177,1.311,1.311,0,0,1-.17-.014,1.269,1.269,0,0,1-.206-.051.9.9,0,0,1-.327-.206.548.548,0,0,1-.149-.414v-.516Zm1.433.416a.294.294,0,0,0,.069.227.374.374,0,0,0,.163.091.454.454,0,0,0,.1.016l.082,0a.375.375,0,0,0,.284-.093.437.437,0,0,0,.086-.3v-.357h-.785Z" transform="translate(-367.191 -190.691)" fill="#fff"/>
        <path id="패스_20100" data-name="패스 20100" d="M423.413,234.682a1.775,1.775,0,0,1,.865.166,1.083,1.083,0,0,1,.409.361.832.832,0,0,1,.1.241.962.962,0,0,1,.023.188,1,1,0,0,1-.023.189.837.837,0,0,1-.1.24,1.087,1.087,0,0,1-.409.363,2.363,2.363,0,0,1-1.736,0,1.084,1.084,0,0,1-.41-.363.919.919,0,0,1-.091-.24,1.011,1.011,0,0,1-.025-.189.976.976,0,0,1,.024-.189.913.913,0,0,1,.091-.241,1.081,1.081,0,0,1,.41-.361,1.791,1.791,0,0,1,.868-.167Zm0,.416a1.306,1.306,0,0,0-.634.118.576.576,0,0,0-.262.261.37.37,0,0,0-.027.082.463.463,0,0,0-.007.08.523.523,0,0,0,.007.079.368.368,0,0,0,.027.084.586.586,0,0,0,.263.26,1.756,1.756,0,0,0,1.263,0,.588.588,0,0,0,.261-.26.322.322,0,0,0,.026-.084.512.512,0,0,0,.007-.079.533.533,0,0,0-.007-.08.332.332,0,0,0-.026-.083.584.584,0,0,0-.261-.261,1.317,1.317,0,0,0-.632-.117Z" transform="translate(-366.967 -204.069)" fill="#fff"/>
        <path id="패스_20101" data-name="패스 20101" d="M422.9,251.124v.4a.569.569,0,0,0-.085.007.631.631,0,0,0-.089.02.441.441,0,0,0-.177.122.4.4,0,0,0-.081.275v.03a.118.118,0,0,0,0,.028.478.478,0,0,0,.08.246.283.283,0,0,0,.26.113.236.236,0,0,0,.207-.09.858.858,0,0,0,.107-.232l.007-.021c0-.007.005-.013.008-.02l.07-.214s0,0,0,0h0a1.583,1.583,0,0,1,.207-.434.66.66,0,0,1,.569-.193,1.025,1.025,0,0,1,.147.011.985.985,0,0,1,.164.033.83.83,0,0,1,.347.22.7.7,0,0,1,.159.5.668.668,0,0,1-.172.5.886.886,0,0,1-.378.231,1.029,1.029,0,0,1-.161.035.9.9,0,0,1-.146.013l0-.4c.019,0,.044,0,.075-.01a.324.324,0,0,0,.095-.027.356.356,0,0,0,.155-.115.4.4,0,0,0,.069-.257c0-.01,0-.022,0-.035a.343.343,0,0,0-.005-.035.358.358,0,0,0-.087-.188.269.269,0,0,0-.223-.085.277.277,0,0,0-.171.043.236.236,0,0,0-.078.1.276.276,0,0,0-.018.036c0,.013-.008.025-.011.035l-.155.487a1.033,1.033,0,0,1-.214.361.651.651,0,0,1-.5.159.9.9,0,0,1-.528-.129.77.77,0,0,1-.255-.285.815.815,0,0,1-.066-.213,1.175,1.175,0,0,1-.016-.155.8.8,0,0,1,.174-.568.872.872,0,0,1,.384-.241.858.858,0,0,1,.171-.033,1.059,1.059,0,0,1,.155-.011Z" transform="translate(-366.965 -218.366)" fill="#fff"/>
        <path id="패스_20102" data-name="패스 20102" d="M422.9,294.619v.4a.573.573,0,0,0-.085.007.627.627,0,0,0-.089.02.441.441,0,0,0-.177.122.4.4,0,0,0-.081.275v.03a.119.119,0,0,0,0,.028.478.478,0,0,0,.08.246.283.283,0,0,0,.26.113.236.236,0,0,0,.207-.09.858.858,0,0,0,.107-.232l.007-.021c0-.007.005-.013.008-.02l.07-.214s0,0,0,0h0a1.583,1.583,0,0,1,.207-.434.66.66,0,0,1,.569-.193,1.029,1.029,0,0,1,.147.011.988.988,0,0,1,.164.033.83.83,0,0,1,.347.22.7.7,0,0,1,.159.5.668.668,0,0,1-.172.5.886.886,0,0,1-.378.231,1.029,1.029,0,0,1-.161.035.9.9,0,0,1-.146.013l0-.4c.019,0,.044,0,.075-.01a.323.323,0,0,0,.095-.027.356.356,0,0,0,.155-.115.4.4,0,0,0,.069-.257c0-.01,0-.022,0-.035a.343.343,0,0,0-.005-.035.358.358,0,0,0-.087-.188.269.269,0,0,0-.223-.085.278.278,0,0,0-.171.043.236.236,0,0,0-.078.1.278.278,0,0,0-.018.036c0,.013-.008.025-.011.036l-.155.487a1.032,1.032,0,0,1-.214.361.651.651,0,0,1-.5.159.9.9,0,0,1-.528-.129.77.77,0,0,1-.255-.285.816.816,0,0,1-.066-.213,1.175,1.175,0,0,1-.016-.155.8.8,0,0,1,.174-.568.872.872,0,0,1,.384-.241.86.86,0,0,1,.171-.033,1.059,1.059,0,0,1,.155-.011Z" transform="translate(-366.965 -256.188)" fill="#fff"/>
        <path id="패스_20103" data-name="패스 20103" d="M422.9,163.03v.4a.573.573,0,0,0-.085.007.635.635,0,0,0-.089.02.441.441,0,0,0-.177.122.4.4,0,0,0-.081.275v.03a.119.119,0,0,0,0,.028.478.478,0,0,0,.08.246.283.283,0,0,0,.26.113.236.236,0,0,0,.207-.09.858.858,0,0,0,.107-.232l.007-.021c0-.007.005-.013.008-.02l.07-.214s0,0,0,0h0a1.583,1.583,0,0,1,.207-.434.66.66,0,0,1,.569-.193,1.047,1.047,0,0,1,.147.011.985.985,0,0,1,.164.033.83.83,0,0,1,.347.22.7.7,0,0,1,.159.5.668.668,0,0,1-.172.5.885.885,0,0,1-.378.231,1.025,1.025,0,0,1-.161.035.9.9,0,0,1-.146.013l0-.4c.019,0,.044,0,.075-.01a.323.323,0,0,0,.095-.027.356.356,0,0,0,.155-.115.4.4,0,0,0,.069-.257c0-.01,0-.022,0-.035a.342.342,0,0,0-.005-.035.358.358,0,0,0-.087-.188.269.269,0,0,0-.223-.085.277.277,0,0,0-.171.043.236.236,0,0,0-.078.1.277.277,0,0,0-.018.036c0,.013-.008.025-.011.035l-.155.487a1.033,1.033,0,0,1-.214.361.651.651,0,0,1-.5.159.9.9,0,0,1-.528-.129.771.771,0,0,1-.255-.285.816.816,0,0,1-.066-.213,1.175,1.175,0,0,1-.016-.156.8.8,0,0,1,.174-.568.872.872,0,0,1,.384-.241.86.86,0,0,1,.171-.033,1.057,1.057,0,0,1,.155-.011Z" transform="translate(-366.965 -141.764)" fill="#fff"/>
        <path id="패스_20104" data-name="패스 20104" d="M424.577,267.533v-1.056h-.563v.972h-.475v-.972h-.7v1.1h-.474V266.07l2.684,0v1.465Z" transform="translate(-367.273 -231.361)" fill="#fff"/>
        <path id="패스_20105" data-name="패스 20105" d="M424.583,283.035v-1.056h-.563v.971h-.475v-.971h-.7v1.1h-.474v-1.511h2.683v1.465Z" transform="translate(-367.278 -244.841)" fill="#fff"/>
        <path id="패스_20106" data-name="패스 20106" d="M424.6,319.572v-1.1h-.563v1.014h-.474v-1.014h-.7v1.15h-.474v-1.577h2.68v1.527Z" transform="translate(-367.291 -276.557)" fill="#fff"/>
        <path id="패스_20107" data-name="패스 20107" d="M422.4,333.2v-.434h2.2v-.629h.474v1.69H424.6V333.2Z" transform="translate(-367.298 -288.81)" fill="#fff"/>
        <path id="패스_20108" data-name="패스 20108" d="M394.081,47.786v.859h-1.448V48.36l.338-.046-.068-.042a.608.608,0,0,1-.067-.049.849.849,0,0,1-.189-.208.609.609,0,0,1-.084-.34.84.84,0,0,1,.348-.659,1.624,1.624,0,0,1,1.055-.289,1.994,1.994,0,0,1,.988.243.805.805,0,0,1,.434.764.782.782,0,0,1-.2.564,1.053,1.053,0,0,1-.428.282,1.254,1.254,0,0,1-.147.038.958.958,0,0,1-.135.017l0-.43a.3.3,0,0,0,.085-.02.562.562,0,0,0,.279-.2.359.359,0,0,0,.073-.228.518.518,0,0,0-.225-.407,1.2,1.2,0,0,0-.741-.18,1.083,1.083,0,0,0-.722.178.575.575,0,0,0-.2.393v.028a.553.553,0,0,0,.016.1.34.34,0,0,0,.075.143.638.638,0,0,0,.178.147.974.974,0,0,0,.326.1v-.478Z" transform="translate(-341.354 -40.632)" fill="#fff"/>
        <path id="패스_20109" data-name="패스 20109" d="M393.134,68.314v-.455l2.678.733v.5l-2.677.729v-.469l.552-.133v-.758Zm1.015.258V69.1l1.058-.255v-.007Z" transform="translate(-341.852 -59.007)" fill="#fff"/>
        <path id="패스_20110" data-name="패스 20110" d="M395.813,89.118V90.16a.566.566,0,0,1-.138.4.711.711,0,0,1-.3.191.915.915,0,0,1-.174.044,1.073,1.073,0,0,1-.15.012.925.925,0,0,1-.4-.081.468.468,0,0,1-.242-.236.014.014,0,0,0-.005.008.07.07,0,0,1-.006.009.455.455,0,0,1-.187.182,1.2,1.2,0,0,1-.482.063c-.2,0-.329,0-.4.013a.161.161,0,0,0-.136.078h-.067v-.475a1.826,1.826,0,0,1,.212-.034c.081-.008.188-.012.325-.012a1.111,1.111,0,0,0,.391-.049c.077-.033.115-.128.115-.287v-.445h-1.044v-.423Zm-1.179.927a.324.324,0,0,0,.081.249.4.4,0,0,0,.282.082l.054,0a.332.332,0,0,0,.058-.008.359.359,0,0,0,.164-.083.262.262,0,0,0,.075-.207v-.535h-.713Z" transform="translate(-341.852 -77.493)" fill="#fff"/>
        <path id="패스_20111" data-name="패스 20111" d="M393.134,109.146v-.455l2.681.733v.5l-2.68.729v-.469l.553-.133v-.758Zm1.016.258v.524l1.059-.256v-.007Z" transform="translate(-341.852 -94.513)" fill="#fff"/>
        <path id="패스_20112" data-name="패스 20112" d="M395.816,132.091v.4h-2.682v-.43l1.911-.84v-.007h-1.911v-.4h2.682v.451l-1.866.819v0Z" transform="translate(-341.852 -113.754)" fill="#fff"/>
        <path id="패스_20113" data-name="패스 20113" d="M393.134,151.832v-.43h2.208v-.623h.475v1.675h-.475v-.623Z" transform="translate(-341.852 -131.11)" fill="#fff"/>
        <rect id="사각형_5788" data-name="사각형 5788" width="2.683" height="0.43" transform="translate(51.283 22.16)" fill="#fff"/>
        <path id="패스_20114" data-name="패스 20114" d="M395.353,182.336v-1.091h-.564v1h-.475v-1h-.694v1.14h-.475v-1.564h2.683v1.515Z" transform="translate(-341.861 -157.234)" fill="#fff"/>
        <path id="패스_20115" data-name="패스 20115" d="M395.839,211.766v.909a.647.647,0,0,1-.271.568,1.507,1.507,0,0,1-.592.237,1.733,1.733,0,0,1-.215.028c-.071,0-.139.007-.2.007s-.138,0-.211-.007-.148-.013-.223-.024a1.829,1.829,0,0,1-.665-.247.633.633,0,0,1-.3-.579v-.892Zm-2.219.425v.419a.358.358,0,0,0,.262.355,1.7,1.7,0,0,0,.585.109h.052a1.366,1.366,0,0,0,.609-.1.48.48,0,0,0,.223-.212.449.449,0,0,0,.02-.084.683.683,0,0,0,.006-.08v-.412Z" transform="translate(-341.871 -184.142)" fill="#fff"/>
        <path id="패스_20116" data-name="패스 20116" d="M395.372,231.292V230.2h-.564v1h-.475v-1h-.694v1.14h-.475v-1.562h2.683v1.514Z" transform="translate(-341.878 -199.805)" fill="#fff"/>
        <path id="패스_20117" data-name="패스 20117" d="M391.711,265.847l.3-.245a.334.334,0,0,1-.037-.048c-.01-.015-.019-.029-.027-.043a.8.8,0,0,1-.093-.243,1.1,1.1,0,0,1-.022-.193.99.99,0,0,1,.024-.2.945.945,0,0,1,.09-.248,1.11,1.11,0,0,1,.414-.374,2.321,2.321,0,0,1,1.75,0,1.113,1.113,0,0,1,.413.374.886.886,0,0,1,.095.248,1.1,1.1,0,0,1,.025.2,1.076,1.076,0,0,1-.024.2.879.879,0,0,1-.095.248,1.115,1.115,0,0,1-.413.374,1.778,1.778,0,0,1-.875.172,2.261,2.261,0,0,1-.562-.06,1.467,1.467,0,0,1-.391-.156l-.272.224Zm1.22-.525-.264.217a1.186,1.186,0,0,0,.242.067,1.8,1.8,0,0,0,.328.027,1.278,1.278,0,0,0,.636-.122.6.6,0,0,0,.264-.269.346.346,0,0,0,.026-.086.424.424,0,0,0,.008-.081.452.452,0,0,0-.008-.083.341.341,0,0,0-.026-.086.6.6,0,0,0-.264-.269,1.718,1.718,0,0,0-1.273,0,.6.6,0,0,0-.264.269.338.338,0,0,0-.026.086.438.438,0,0,0-.008.083.356.356,0,0,0,.008.073.5.5,0,0,0,.022.08.6.6,0,0,0,.041.077l.256-.206Z" transform="translate(-340.614 -229.637)" fill="#fff"/>
        <path id="패스_20118" data-name="패스 20118" d="M393.758,288.144a1.075,1.075,0,0,1-.767-.229.818.818,0,0,1-.236-.617.919.919,0,0,1,.013-.15.8.8,0,0,1,.046-.168.652.652,0,0,1,.094-.178.622.622,0,0,1,.167-.157.772.772,0,0,1,.284-.12,2.05,2.05,0,0,1,.362-.042h1.772v.441h-1.731a.641.641,0,0,0-.411.106.327.327,0,0,0-.128.257.368.368,0,0,0,.134.32.635.635,0,0,0,.375.1h1.761v.441Z" transform="translate(-341.522 -249.112)" fill="#fff"/>
        <path id="패스_20119" data-name="패스 20119" d="M393.135,304.734v-.454l2.688.732v.5l-2.687.728v-.468l.554-.133v-.759Zm1.019.258v.525l1.062-.256v-.007Z" transform="translate(-341.853 -264.588)" fill="#fff"/>
        <path id="패스_20120" data-name="패스 20120" d="M393.624,326.793v1.023h-.487v-1.454h2.688v.431Z" transform="translate(-341.854 -283.79)" fill="#fff"/>
        <rect id="사각형_5789" data-name="사각형 5789" width="2.688" height="0.431" transform="translate(51.283 44.885)" fill="#fff"/>
        <path id="패스_20121" data-name="패스 20121" d="M393.136,356.2v-.431h2.212v-.622h.476v1.674h-.476V356.2Z" transform="translate(-341.853 -308.819)" fill="#fff"/>
        <path id="패스_20122" data-name="패스 20122" d="M395.346,374.549v-1.091h-.565v1h-.476v-1h-.7v1.14h-.476v-1.564h2.688v1.515Z" transform="translate(-341.852 -324.373)" fill="#fff"/>
        <path id="패스_20123" data-name="패스 20123" d="M633.359,50.318V50.9h-2.7v-.619l1.927-1.206v-.009h-1.927v-.572h2.7v.648l-1.881,1.175v0Z" transform="translate(-548.39 -42.166)" fill="#fff"/>
        <path id="패스_20124" data-name="패스 20124" d="M453.794,330.834v.579h-2.673v-.619l1.905-1.206v-.009h-1.906v-.573h2.673v.648l-1.86,1.176v0Z" transform="translate(-392.274 -286.089)" fill="#fff"/>
        <path id="패스_20125" data-name="패스 20125" d="M633.4,167.389v.579h-2.7v-.619l1.927-1.206v-.009H630.7v-.573h2.7v.648l-1.881,1.176v0Z" transform="translate(-548.424 -143.964)" fill="#fff"/>
        <path id="패스_20126" data-name="패스 20126" d="M604.481,50.318V50.9h-2.7v-.619l1.926-1.205v-.01h-1.927v-.572h2.7v.647L602.6,50.314v0Z" transform="translate(-523.278 -42.166)" fill="#fff"/>
        <rect id="사각형_5790" data-name="사각형 5790" width="2.704" height="0.477" transform="translate(82.267 9.442)" fill="#fff"/>
        <path id="패스_20127" data-name="패스 20127" d="M630.673,83.541v-.476l2.7,0v.476h-1.1l1.1.874v.617l-1.108-.931-1.6.987v-.614l1.186-.707-.271-.226Z" transform="translate(-548.404 -72.228)" fill="#fff"/>
        <path id="패스_20128" data-name="패스 20128" d="M632.905,104.516V103.3h-.568v1.115h-.479v-1.114h-.7v1.265h-.478v-1.735h2.7v1.679Z" transform="translate(-548.411 -89.422)" fill="#fff"/>
        <path id="패스_20129" data-name="패스 20129" d="M483,47.838v.579h-2.691V47.8l1.918-1.206v-.009H480.3v-.572h2.691v.648l-1.872,1.176v0Z" transform="translate(-417.651 -40.009)" fill="#fff"/>
        <path id="패스_20130" data-name="패스 20130" d="M453.73,141.37v.579h-2.692v-.619l1.919-1.206v-.009h-1.92v-.573h2.693v.648l-1.873,1.176v0Z" transform="translate(-392.202 -121.34)" fill="#fff"/>
        <rect id="사각형_5791" data-name="사각형 5791" width="2.691" height="0.477" transform="translate(62.654 9.521)" fill="#fff"/>
        <path id="패스_20131" data-name="패스 20131" d="M480.305,84.15v-.476H483v.476H481.9l1.094.874v.617l-1.1-.931-1.589.987v-.614l1.18-.707-.27-.226Z" transform="translate(-417.652 -72.758)" fill="#fff"/>
        <path id="패스_20132" data-name="패스 20132" d="M482.522,103.718v-1.211h-.565v1.114h-.477v-1.114h-.7v1.266h-.477v-1.735H483v1.68Z" transform="translate(-417.654 -88.727)" fill="#fff"/>
        <path id="패스_20133" data-name="패스 20133" d="M633.384,189.741v1.092a.833.833,0,0,1-.274.682,1.361,1.361,0,0,1-.6.283,1.315,1.315,0,0,1-.217.035c-.071,0-.141.009-.206.009s-.139,0-.214-.009a2.008,2.008,0,0,1-.223-.029,1.647,1.647,0,0,1-.67-.3.8.8,0,0,1-.307-.7v-1.07Zm-2.238.51v.5a.424.424,0,0,0,.264.426,1.486,1.486,0,0,0,.589.133h.053a1.173,1.173,0,0,0,.614-.117.55.55,0,0,0,.225-.253.762.762,0,0,0,.02-.1.861.861,0,0,0,0-.1v-.494Z" transform="translate(-548.41 -164.99)" fill="#fff"/>
        <path id="패스_20134" data-name="패스 20134" d="M604.5,183.417V184h-2.7v-.619l1.926-1.206v-.009h-1.927v-.573h2.7v.648l-1.881,1.176v0Z" transform="translate(-523.293 -157.902)" fill="#fff"/>
        <path id="패스_20135" data-name="패스 20135" d="M604.432,205.847v1.091a.834.834,0,0,1-.273.683,1.36,1.36,0,0,1-.6.283,1.294,1.294,0,0,1-.217.035c-.07,0-.14.008-.2.008s-.139,0-.213-.008a2.119,2.119,0,0,1-.223-.029,1.641,1.641,0,0,1-.67-.3.8.8,0,0,1-.306-.695v-1.07Zm-2.237.51v.5a.427.427,0,0,0,.264.425,1.486,1.486,0,0,0,.589.133h.053a1.172,1.172,0,0,0,.613-.117.547.547,0,0,0,.225-.253.694.694,0,0,0,.02-.1.683.683,0,0,0,.006-.1v-.494Z" transform="translate(-523.236 -178.995)" fill="#fff"/>
        <path id="패스_20136" data-name="패스 20136" d="M630.663,233.146v-.479h2.225v-.69h.478v1.859h-.479v-.69Z" transform="translate(-548.396 -201.716)" fill="#fff"/>
        <path id="패스_20137" data-name="패스 20137" d="M601.874,264.894v-.478h2.215v-.69h.476v1.859h-.476v-.691Z" transform="translate(-523.363 -229.323)" fill="#fff"/>
        <path id="패스_20138" data-name="패스 20138" d="M631.881,253.025h-1.212v-.478h2.7v.478h-1.024v.893h1.024v.478h-2.7v-.477h1.212Z" transform="translate(-548.402 -219.602)" fill="#fff"/>
        <path id="패스_20139" data-name="패스 20139" d="M632.905,275.151v-1.211h-.568v1.114h-.479v-1.114h-.7v1.266h-.479v-1.735h2.7v1.68Z" transform="translate(-548.411 -237.798)" fill="#fff"/>
        <path id="패스_20140" data-name="패스 20140" d="M604.011,421.236v-1.211h-.568v1.114h-.478v-1.114h-.7v1.266h-.478v-1.735h2.7v1.68Z" transform="translate(-523.286 -364.827)" fill="#fff"/>
        <path id="패스_20141" data-name="패스 20141" d="M604.01,337.171V335.96h-.568v1.114h-.478V335.96h-.7v1.266h-.478v-1.735h2.7v1.68Z" transform="translate(-523.286 -291.728)" fill="#fff"/>
        <path id="패스_20142" data-name="패스 20142" d="M601.787,73.081v-.575l2.7.927v.626l-2.7.92v-.591l.558-.169v-.958Zm1.024.327v.661l1.068-.323v-.008Z" transform="translate(-523.287 -63.048)" fill="#fff"/>
        <path id="패스_20143" data-name="패스 20143" d="M574.907,86.824v-.575l2.7.927V87.8l-2.7.92v-.591l.558-.169V87Zm1.024.327v.661L577,87.489v-.008Z" transform="translate(-499.914 -74.998)" fill="#fff"/>
        <path id="패스_20144" data-name="패스 20144" d="M422.28,71.813v-.575l2.684.927v.626l-2.683.92V73.12l.553-.168v-.958Zm1.017.327V72.8l1.06-.324V72.47Z" transform="translate(-367.196 -61.945)" fill="#fff"/>
        <path id="패스_20145" data-name="패스 20145" d="M630.686,142.992v-.575l2.7.927v.626l-2.7.92V144.3l.558-.169v-.957Zm1.024.326v.663l1.068-.324v-.008Z" transform="translate(-548.417 -123.84)" fill="#fff"/>
        <path id="패스_20146" data-name="패스 20146" d="M601.786,373.685v-.574l2.7.927v.626l-2.7.919v-.591l.558-.169v-.957Zm1.024.327v.663l1.067-.324v-.008Z" transform="translate(-523.286 -324.441)" fill="#fff"/>
        <path id="패스_20147" data-name="패스 20147" d="M601.784,159.145v-.575l2.7.927v.627l-2.7.919v-.591l.558-.168v-.958Zm1.024.327v.661l1.068-.323V159.8Z" transform="translate(-523.285 -137.885)" fill="#fff"/>
        <path id="패스_20148" data-name="패스 20148" d="M574.948,172.372V171.8l2.7.927v.626l-2.7.92v-.591l.558-.169v-.957Zm1.024.327v.662l1.068-.324v-.008Z" transform="translate(-499.949 -149.388)" fill="#fff"/>
        <path id="패스_20149" data-name="패스 20149" d="M601.8,97.648v-.556h2.26v-.009l-2.26-.536v-.59l2.26-.523v-.01H601.8v-.555h2.7v.873l-2.131.524v0l2.132.512v.869Z" transform="translate(-523.297 -82.491)" fill="#fff"/>
        <path id="패스_20150" data-name="패스 20150" d="M480.305,248.393v-.555h2.249v-.01l-2.249-.536v-.59l2.249-.524v-.009H480.3v-.557h2.69v.874l-2.121.523v0l2.121.511v.868Z" transform="translate(-417.651 -213.571)" fill="#fff"/>
        <path id="패스_20151" data-name="패스 20151" d="M604.036,124.925v-1.21h-.569v1.114h-.478v-1.114h-.7v1.265h-.479v-1.736h2.7v1.681Z" transform="translate(-523.308 -107.167)" fill="#fff"/>
        <path id="패스_20152" data-name="패스 20152" d="M575.765,231.956v.459a.538.538,0,0,0-.083.007.6.6,0,0,0-.086.023.461.461,0,0,0-.172.14.509.509,0,0,0-.078.314v.034a.148.148,0,0,0,0,.033.666.666,0,0,0,.077.284.262.262,0,0,0,.252.128.217.217,0,0,0,.2-.1,1,1,0,0,0,.1-.265.106.106,0,0,0,.007-.023.112.112,0,0,0,.007-.023l.068-.245s0,0,0-.006,0,0,0,0a1.938,1.938,0,0,1,.2-.5.586.586,0,0,1,.551-.223.892.892,0,0,1,.142.012.979.979,0,0,1,.159.04.785.785,0,0,1,.336.252.882.882,0,0,1,.155.574.806.806,0,0,1-.533.839,1.156,1.156,0,0,1-.156.041.786.786,0,0,1-.141.014l0-.459.073-.01a.382.382,0,0,0,.091-.032.367.367,0,0,0,.151-.133.525.525,0,0,0,.067-.295c0-.013,0-.027,0-.041s0-.028,0-.041a.469.469,0,0,0-.085-.218.3.3,0,0,0-.382-.049.28.28,0,0,0-.074.111.293.293,0,0,0-.017.041.3.3,0,0,0-.012.041l-.149.56a1.267,1.267,0,0,1-.207.415.58.58,0,0,1-.488.183.775.775,0,0,1-.512-.149.871.871,0,0,1-.249-.328,1.031,1.031,0,0,1-.063-.244,1.3,1.3,0,0,1-.014-.179,1.028,1.028,0,0,1,.167-.65.832.832,0,0,1,.372-.277.951.951,0,0,1,.164-.04,1.228,1.228,0,0,1,.151-.012Z" transform="translate(-499.913 -201.699)" fill="#fff"/>
        <path id="패스_20153" data-name="패스 20153" d="M604.488,282.535v1.157a.664.664,0,0,1-.139.444.72.72,0,0,1-.3.212.835.835,0,0,1-.176.048.9.9,0,0,1-.55-.077.494.494,0,0,1-.246-.262.024.024,0,0,0,0,.009.019.019,0,0,1-.006.009.484.484,0,0,1-.188.2,1.108,1.108,0,0,1-.485.07c-.2,0-.333,0-.4.013a.163.163,0,0,0-.137.089h-.067v-.529a1.794,1.794,0,0,1,.214-.037c.081-.008.19-.013.328-.013a1.021,1.021,0,0,0,.4-.055c.078-.036.117-.142.117-.318V283h-1.054v-.469Zm-1.19,1.029a.389.389,0,0,0,.082.278.375.375,0,0,0,.283.091.452.452,0,0,0,.056,0,.377.377,0,0,0,.058-.009.343.343,0,0,0,.166-.091.311.311,0,0,0,.076-.232V283H603.3Z" transform="translate(-523.285 -245.68)" fill="#fff"/>
        <path id="패스_20154" data-name="패스 20154" d="M577.609,67.473V68.63a.664.664,0,0,1-.139.444.72.72,0,0,1-.3.212.837.837,0,0,1-.176.048.9.9,0,0,1-.55-.077A.494.494,0,0,1,576.2,69a.024.024,0,0,0,0,.009.019.019,0,0,1-.006.009.483.483,0,0,1-.188.2,1.107,1.107,0,0,1-.485.07c-.2,0-.333,0-.4.013a.163.163,0,0,0-.137.089h-.067V68.86a1.8,1.8,0,0,1,.214-.037c.081-.008.19-.013.328-.013a1.021,1.021,0,0,0,.4-.055q.116-.054.117-.318v-.494h-1.054v-.469Zm-1.19,1.029a.389.389,0,0,0,.082.278.375.375,0,0,0,.283.091.445.445,0,0,0,.056,0,.377.377,0,0,0,.058-.009.343.343,0,0,0,.166-.091.311.311,0,0,0,.076-.232v-.594h-.721Z" transform="translate(-499.913 -58.672)" fill="#fff"/>
        <path id="패스_20155" data-name="패스 20155" d="M577.609,194.848v1.157a.664.664,0,0,1-.139.444.72.72,0,0,1-.3.212.836.836,0,0,1-.176.048.9.9,0,0,1-.55-.077.494.494,0,0,1-.246-.262.024.024,0,0,0,0,.009.019.019,0,0,1-.006.009.483.483,0,0,1-.188.2,1.107,1.107,0,0,1-.485.07c-.2,0-.333,0-.4.013a.163.163,0,0,0-.137.089h-.067v-.529a1.8,1.8,0,0,1,.214-.037c.081-.008.19-.013.328-.013a1.021,1.021,0,0,0,.4-.055q.116-.054.117-.318v-.494h-1.054v-.469Zm-1.19,1.029a.389.389,0,0,0,.082.278.375.375,0,0,0,.283.091.445.445,0,0,0,.056,0,.378.378,0,0,0,.058-.009.343.343,0,0,0,.166-.091.311.311,0,0,0,.076-.232v-.594h-.721Z" transform="translate(-499.913 -169.431)" fill="#fff"/>
        <rect id="사각형_5792" data-name="사각형 5792" width="2.692" height="0.479" transform="translate(78.511 39.638)" fill="#fff"/>
        <path id="패스_20156" data-name="패스 20156" d="M601.785,316.386v-.477h2.7v1.044a.647.647,0,0,1-.237.523.986.986,0,0,1-.633.188,1.149,1.149,0,0,1-.171-.015,1.073,1.073,0,0,1-.207-.055.889.889,0,0,1-.331-.219.607.607,0,0,1-.151-.441v-.547Zm1.442.442a.321.321,0,0,0,.069.241.359.359,0,0,0,.165.1.4.4,0,0,0,.1.017l.083,0a.358.358,0,0,0,.286-.1.482.482,0,0,0,.088-.32v-.381h-.792Z" transform="translate(-523.285 -274.7)" fill="#fff"/>
        <path id="패스_20157" data-name="패스 20157" d="M604.488,397.456v1.157a.659.659,0,0,1-.139.444.709.709,0,0,1-.3.212.925.925,0,0,1-.176.049.973.973,0,0,1-.152.014.841.841,0,0,1-.4-.092.494.494,0,0,1-.246-.262.036.036,0,0,0,0,.009.023.023,0,0,1-.006.01.48.48,0,0,1-.188.2,1.107,1.107,0,0,1-.485.07,3.693,3.693,0,0,0-.4.014.163.163,0,0,0-.137.087h-.067v-.527a1.807,1.807,0,0,1,.214-.037,3.037,3.037,0,0,1,.328-.013.992.992,0,0,0,.4-.056c.078-.036.117-.142.117-.318v-.493h-1.054v-.471Zm-1.19,1.03a.387.387,0,0,0,.082.277.37.37,0,0,0,.283.091h.056a.373.373,0,0,0,.058-.009.346.346,0,0,0,.166-.092.308.308,0,0,0,.076-.231v-.594H603.3Z" transform="translate(-523.285 -345.61)" fill="#fff"/>
        <path id="패스_20158" data-name="패스 20158" d="M424.965,402.2v1.157a.656.656,0,0,1-.138.444.7.7,0,0,1-.3.212.884.884,0,0,1-.176.049.948.948,0,0,1-.15.014.835.835,0,0,1-.4-.092.492.492,0,0,1-.245-.262.039.039,0,0,0,0,.009.049.049,0,0,1,0,.01.484.484,0,0,1-.188.2,1.1,1.1,0,0,1-.484.07,3.7,3.7,0,0,0-.4.014.16.16,0,0,0-.136.087h-.067v-.527a1.76,1.76,0,0,1,.213-.037,3.04,3.04,0,0,1,.327-.013.978.978,0,0,0,.393-.056q.117-.054.117-.318v-.493h-1.05v-.47Zm-1.184,1.03a.391.391,0,0,0,.081.277.371.371,0,0,0,.283.091h.055a.371.371,0,0,0,.059-.009.346.346,0,0,0,.165-.092.307.307,0,0,0,.075-.231v-.594h-.717Z" transform="translate(-367.191 -349.731)" fill="#fff"/>
        <path id="패스_20159" data-name="패스 20159" d="M575.012,273.412v-.5l2.689.814v.552l-2.688.808v-.521l.554-.147v-.843Zm1.019.287v.582L577.1,274v-.008Z" transform="translate(-500.005 -237.309)" fill="#fff"/>
        <path id="패스_20160" data-name="패스 20160" d="M577.617,297.359v.447h-2.7v-.477l1.926-.933v-.008h-1.927v-.442h2.7v.5l-1.88.91v0Z" transform="translate(-499.921 -257.341)" fill="#fff"/>
        <path id="패스_20161" data-name="패스 20161" d="M577.618,318.3v1.009a.743.743,0,0,1-.273.631,1.446,1.446,0,0,1-.6.262,1.755,1.755,0,0,1-.216.032c-.071,0-.141.007-.205.007s-.139,0-.213-.007-.149-.015-.224-.028a1.714,1.714,0,0,1-.669-.273.725.725,0,0,1-.306-.643v-.99Zm-2.234.471v.466a.394.394,0,0,0,.264.394,1.555,1.555,0,0,0,.588.122h.053a1.249,1.249,0,0,0,.613-.107.506.506,0,0,0,.224-.234.476.476,0,0,0,.021-.093.565.565,0,0,0,0-.09v-.458Z" transform="translate(-499.921 -276.782)" fill="#fff"/>
        <path id="패스_20162" data-name="패스 20162" d="M574.916,358.483v-.476h1.02l1.681-.794v.564l-1.172.478,1.173.449v.54l-1.689-.761Z" transform="translate(-499.921 -310.616)" fill="#fff"/>
        <path id="패스_20163" data-name="패스 20163" d="M576.394,375.3a1.525,1.525,0,0,1,.839.19.989.989,0,0,1,.488.691,1.4,1.4,0,0,1,.023.218,1.389,1.389,0,0,1-.023.217,1.111,1.111,0,0,1-.091.276,1.129,1.129,0,0,1-.4.415,1.952,1.952,0,0,1-1.684,0,1.125,1.125,0,0,1-.4-.415,1.086,1.086,0,0,1-.089-.276,1.321,1.321,0,0,1-.023-.217,1.356,1.356,0,0,1,.023-.218,1.114,1.114,0,0,1,.088-.276,1.147,1.147,0,0,1,.4-.416,1.524,1.524,0,0,1,.841-.19Zm0,.477a1.1,1.1,0,0,0-.616.136.646.646,0,0,0-.254.3.451.451,0,0,0-.024.1.566.566,0,0,0-.007.091.555.555,0,0,0,.008.091.462.462,0,0,0,.025.1.642.642,0,0,0,.255.3,1.444,1.444,0,0,0,1.224,0,.627.627,0,0,0,.255-.3.42.42,0,0,0,.024-.1.49.49,0,0,0,.008-.091.5.5,0,0,0-.008-.091.4.4,0,0,0-.025-.1.63.63,0,0,0-.255-.3,1.089,1.089,0,0,0-.613-.136Z" transform="translate(-500.03 -326.346)" fill="#fff"/>
        <path id="패스_20164" data-name="패스 20164" d="M576.034,398.742a.854.854,0,0,1-.984-.939,1.063,1.063,0,0,1,.013-.166.885.885,0,0,1,.046-.186.688.688,0,0,1,.09-.2.658.658,0,0,1,.164-.175.732.732,0,0,1,.279-.133A1.854,1.854,0,0,1,576,396.9h1.738v.489h-1.7a.579.579,0,0,0-.4.119.382.382,0,0,0-.125.285.43.43,0,0,0,.133.356.573.573,0,0,0,.368.106h1.726v.489Z" transform="translate(-500.038 -345.124)" fill="#fff"/>
        <path id="패스_20165" data-name="패스 20165" d="M423.184,134.315a.854.854,0,0,1-.984-.939,1.064,1.064,0,0,1,.013-.166.885.885,0,0,1,.046-.186.687.687,0,0,1,.09-.2.657.657,0,0,1,.164-.175.731.731,0,0,1,.279-.133,1.856,1.856,0,0,1,.354-.047h1.738v.489h-1.7a.579.579,0,0,0-.4.119.383.383,0,0,0-.125.285.431.431,0,0,0,.133.356.574.574,0,0,0,.368.106h1.726v.489Z" transform="translate(-367.126 -115.19)" fill="#fff"/>
        <path id="패스_20166" data-name="패스 20166" d="M577.617,418.181v1.157a.668.668,0,0,1-.139.445.715.715,0,0,1-.3.211.854.854,0,0,1-.175.049.986.986,0,0,1-.152.014.879.879,0,0,1-.4-.091.5.5,0,0,1-.245-.263.029.029,0,0,0-.006.011.018.018,0,0,1-.005.009.493.493,0,0,1-.187.2,1.143,1.143,0,0,1-.487.069c-.2,0-.331.006-.4.014a.159.159,0,0,0-.136.087h-.068v-.527a1.8,1.8,0,0,1,.215-.037,2.959,2.959,0,0,1,.328-.014,1.019,1.019,0,0,0,.394-.054c.078-.037.115-.143.115-.319v-.494h-1.053v-.469Zm-1.188,1.03a.385.385,0,0,0,.081.277.371.371,0,0,0,.284.092l.055,0a.338.338,0,0,0,.057-.009.359.359,0,0,0,.167-.091.313.313,0,0,0,.075-.232v-.595h-.718Z" transform="translate(-499.921 -363.632)" fill="#fff"/>
        <path id="패스_20167" data-name="패스 20167" d="M574.9,49.661v-.478h2.226v-.69h.478V50.35h-.478v-.69Z" transform="translate(-499.903 -42.166)" fill="#fff"/>
        <path id="패스_20168" data-name="패스 20168" d="M577.621,107.833v1.008a.743.743,0,0,1-.273.631,1.416,1.416,0,0,1-.595.262,1.436,1.436,0,0,1-.216.032c-.071.006-.139.008-.205.008s-.139,0-.212-.008a2.125,2.125,0,0,1-.224-.027,1.714,1.714,0,0,1-.669-.273.725.725,0,0,1-.306-.643v-.99Zm-2.234.47v.466a.4.4,0,0,0,.265.395,1.6,1.6,0,0,0,.587.122h.054a1.258,1.258,0,0,0,.612-.107.5.5,0,0,0,.225-.235.486.486,0,0,0,.02-.093.746.746,0,0,0,.005-.088V108.3Z" transform="translate(-499.925 -93.767)" fill="#fff"/>
        <path id="패스_20169" data-name="패스 20169" d="M577.159,128.6V127.39h-.57V128.5h-.48V127.39h-.7v1.266h-.479v-1.735h2.709V128.6Z" transform="translate(-499.932 -110.364)" fill="#fff"/>
        <path id="패스_20170" data-name="패스 20170" d="M424.957,188.124v1.008a.744.744,0,0,1-.271.631,1.6,1.6,0,0,1-.805.294c-.07.006-.138.008-.2.008s-.138,0-.211-.008a2.1,2.1,0,0,1-.223-.027,1.7,1.7,0,0,1-.665-.273.727.727,0,0,1-.3-.643v-.99Zm-2.219.47v.466a.4.4,0,0,0,.263.395,1.58,1.58,0,0,0,.583.122h.053a1.242,1.242,0,0,0,.608-.108.5.5,0,0,0,.223-.235.484.484,0,0,0,.02-.093.75.75,0,0,0,.005-.089v-.459Z" transform="translate(-367.191 -163.584)" fill="#fff"/>
        <path id="패스_20171" data-name="패스 20171" d="M574.968,214.667v-.477h2.705v.477h-1.1l1.1.873v.618l-1.109-.932-1.6.987V215.6l1.187-.706-.271-.226Z" transform="translate(-499.966 -186.249)" fill="#fff"/>
        <path id="패스_20172" data-name="패스 20172" d="M547.277,49.57v.955h-1.453v-.318l.338-.05-.068-.048a.535.535,0,0,1-.068-.054.92.92,0,0,1-.19-.232.733.733,0,0,1-.085-.378.975.975,0,0,1,.349-.732,1.527,1.527,0,0,1,1.059-.321,1.86,1.86,0,0,1,.991.27.918.918,0,0,1,.436.849.932.932,0,0,1-.2.628,1.056,1.056,0,0,1-.43.312c-.051.017-.1.031-.146.043a1,1,0,0,1-.135.019l0-.477a.27.27,0,0,0,.087-.021.615.615,0,0,0,.116-.061.638.638,0,0,0,.163-.165.421.421,0,0,0,.073-.254.594.594,0,0,0-.225-.452,1.106,1.106,0,0,0-.743-.2,1.011,1.011,0,0,0-.725.2.665.665,0,0,0-.2.434v.031a.693.693,0,0,0,.016.116.4.4,0,0,0,.076.16.675.675,0,0,0,.18.163.9.9,0,0,0,.327.116V49.57Z" transform="translate(-474.562 -42.08)" fill="#fff"/>
        <path id="패스_20173" data-name="패스 20173" d="M546.753,71.829a1.019,1.019,0,0,1-.776-.253.961.961,0,0,1-.239-.684,1.125,1.125,0,0,1,.013-.168,1.051,1.051,0,0,1,.046-.186.757.757,0,0,1,.094-.2.722.722,0,0,1,.169-.175.762.762,0,0,1,.287-.132,1.891,1.891,0,0,1,.366-.047h1.79v.489h-1.749a.605.605,0,0,0-.415.119.376.376,0,0,0-.129.285.427.427,0,0,0,.135.355.6.6,0,0,0,.379.106H548.5v.489Z" transform="translate(-474.549 -60.856)" fill="#fff"/>
        <path id="패스_20174" data-name="패스 20174" d="M546.289,89.869v-.5l2.695.814v.552l-2.694.809v-.522l.555-.147v-.843Zm1.02.287v.582l1.067-.283v-.008Z" transform="translate(-475.029 -77.708)" fill="#fff"/>
        <path id="패스_20175" data-name="패스 20175" d="M548.985,111.947V113.1a.66.66,0,0,1-.138.445.709.709,0,0,1-.3.211.9.9,0,0,1-.177.049.966.966,0,0,1-.15.014.871.871,0,0,1-.4-.091.5.5,0,0,1-.245-.262.019.019,0,0,0-.006.009.028.028,0,0,1-.006.009.487.487,0,0,1-.187.2,1.133,1.133,0,0,1-.485.069,3.622,3.622,0,0,0-.4.014.159.159,0,0,0-.136.087h-.068v-.527a1.75,1.75,0,0,1,.214-.037,3,3,0,0,1,.327-.013,1.019,1.019,0,0,0,.393-.055c.078-.037.116-.143.116-.319v-.492H546.29v-.47Zm-1.185,1.03a.386.386,0,0,0,.081.277.369.369,0,0,0,.284.091h.054a.324.324,0,0,0,.057-.009.338.338,0,0,0,.165-.092.3.3,0,0,0,.075-.231v-.594H547.8Z" transform="translate(-475.03 -97.344)" fill="#fff"/>
        <path id="패스_20176" data-name="패스 20176" d="M424.995,94.091v1.157a.658.658,0,0,1-.139.445.714.714,0,0,1-.3.211.9.9,0,0,1-.177.049.962.962,0,0,1-.15.014.882.882,0,0,1-.4-.091.505.505,0,0,1-.245-.262.018.018,0,0,0-.006.009.035.035,0,0,1-.006.009.486.486,0,0,1-.187.2,1.141,1.141,0,0,1-.487.069,3.722,3.722,0,0,0-.4.014.16.16,0,0,0-.137.087h-.068v-.527a1.779,1.779,0,0,1,.214-.037,3.031,3.031,0,0,1,.328-.013,1.028,1.028,0,0,0,.4-.055c.077-.037.116-.143.116-.319v-.493h-1.054v-.47Zm-1.189,1.03a.384.384,0,0,0,.082.277.372.372,0,0,0,.285.091h.054a.324.324,0,0,0,.058-.009.336.336,0,0,0,.166-.092.3.3,0,0,0,.076-.231v-.594h-.719Z" transform="translate(-367.206 -81.817)" fill="#fff"/>
        <path id="패스_20177" data-name="패스 20177" d="M546.289,132.4v-.5l2.695.814v.551l-2.694.809v-.52l.555-.147v-.843Zm1.02.287v.582l1.067-.283v-.008Z" transform="translate(-475.029 -114.691)" fill="#fff"/>
        <path id="패스_20178" data-name="패스 20178" d="M548.982,155.652v.447h-2.695v-.477l1.922-.934v-.007h-1.923v-.444h2.695v.5l-1.876.909v0Z" transform="translate(-475.027 -134.119)" fill="#fff"/>
        <path id="패스_20179" data-name="패스 20179" d="M546.29,175.319v-.477h2.218v-.692h.476v1.859h-.476v-.69Z" transform="translate(-475.029 -151.432)" fill="#fff"/>
        <path id="패스_20180" data-name="패스 20180" d="M548.508,196.132V194.92h-.566v1.114h-.477v-1.114h-.7v1.267h-.476v-1.736h2.695v1.681Z" transform="translate(-475.028 -169.086)" fill="#fff"/>
        <path id="패스_20181" data-name="패스 20181" d="M548.508,214.167v-1.212h-.566v1.114h-.477v-1.114h-.7v1.265h-.476v-1.735h2.695v1.681Z" transform="translate(-475.028 -184.768)" fill="#fff"/>
        <path id="패스_20182" data-name="패스 20182" d="M547.171,245.245a1.645,1.645,0,0,1,.878.189,1.176,1.176,0,0,1,.417.416,1.038,1.038,0,0,1,.1.276,1.278,1.278,0,0,1,.025.218,1.318,1.318,0,0,1-.025.218,1.05,1.05,0,0,1-.1.275,1.175,1.175,0,0,1-.416.416,2.145,2.145,0,0,1-1.765,0,1.167,1.167,0,0,1-.417-.415,1.113,1.113,0,0,1-.092-.275.971.971,0,0,1,0-.435,1.1,1.1,0,0,1,.092-.276,1.163,1.163,0,0,1,.417-.416,1.648,1.648,0,0,1,.882-.19Zm0,.477a1.2,1.2,0,0,0-.646.136.635.635,0,0,0-.266.3.42.42,0,0,0-.027.094.532.532,0,0,0,0,.183.415.415,0,0,0,.027.1.632.632,0,0,0,.266.3,1.58,1.58,0,0,0,1.284,0,.63.63,0,0,0,.267-.3.419.419,0,0,0,.026-.1.553.553,0,0,0,.008-.091.544.544,0,0,0-.008-.092.4.4,0,0,0-.026-.094.631.631,0,0,0-.267-.3,1.186,1.186,0,0,0-.642-.136Z" transform="translate(-474.562 -213.254)" fill="#fff"/>
        <path id="패스_20183" data-name="패스 20183" d="M452.067,118.436a1.614,1.614,0,0,1,.87.19,1.168,1.168,0,0,1,.412.415,1.046,1.046,0,0,1,.1.276,1.3,1.3,0,0,1,.025.218,1.316,1.316,0,0,1-.025.218,1.044,1.044,0,0,1-.095.275,1.163,1.163,0,0,1-.412.416,2.1,2.1,0,0,1-1.747,0,1.165,1.165,0,0,1-.413-.415,1.125,1.125,0,0,1-.091-.275,1.376,1.376,0,0,1-.025-.218,1.36,1.36,0,0,1,.024-.218,1.1,1.1,0,0,1,.091-.276,1.166,1.166,0,0,1,.413-.416,1.619,1.619,0,0,1,.873-.19Zm0,.477a1.175,1.175,0,0,0-.639.136.629.629,0,0,0-.263.3.367.367,0,0,0-.027.094.505.505,0,0,0-.008.092.512.512,0,0,0,.008.091.379.379,0,0,0,.027.1.627.627,0,0,0,.263.3,1.548,1.548,0,0,0,1.27,0,.625.625,0,0,0,.264-.3.4.4,0,0,0,.026-.1.507.507,0,0,0,.008-.091.448.448,0,0,0-.008-.092.394.394,0,0,0-.026-.094.628.628,0,0,0-.264-.3,1.165,1.165,0,0,0-.636-.136Z" transform="translate(-391.876 -102.987)" fill="#fff"/>
        <path id="패스_20184" data-name="패스 20184" d="M546.288,268.958v-.477h2.695v1.626h-.476v-1.149H547.9v1.006h-.478v-1.006Z" transform="translate(-475.028 -233.458)" fill="#fff"/>
        <path id="패스_20185" data-name="패스 20185" d="M544.724,303.242l.305-.271a.308.308,0,0,1-.038-.053.4.4,0,0,1-.026-.048.947.947,0,0,1-.095-.27,1.343,1.343,0,0,1-.023-.215,1.328,1.328,0,0,1,.025-.218,1.118,1.118,0,0,1,.092-.275,1.167,1.167,0,0,1,.417-.416,2.147,2.147,0,0,1,1.765,0,1.174,1.174,0,0,1,.417.415,1.047,1.047,0,0,1,.1.275.97.97,0,0,1,0,.436,1.037,1.037,0,0,1-.1.276,1.162,1.162,0,0,1-.416.415,1.642,1.642,0,0,1-.883.191,2.062,2.062,0,0,1-.566-.067,1.416,1.416,0,0,1-.394-.173l-.274.249Zm1.232-.583-.267.241a1.13,1.13,0,0,0,.244.076,1.732,1.732,0,0,0,.33.029,1.187,1.187,0,0,0,.642-.136.631.631,0,0,0,.267-.3.4.4,0,0,0,.026-.094.543.543,0,0,0,.008-.092.527.527,0,0,0-.008-.091.387.387,0,0,0-.026-.094.626.626,0,0,0-.267-.3,1.58,1.58,0,0,0-1.284,0,.628.628,0,0,0-.266.3.387.387,0,0,0-.027.094.533.533,0,0,0-.008.091.416.416,0,0,0,.008.081.774.774,0,0,0,.023.09c.006.013.011.027.019.043a.353.353,0,0,0,.023.042l.259-.228Z" transform="translate(-473.668 -261.984)" fill="#fff"/>
        <path id="패스_20186" data-name="패스 20186" d="M546.753,327.38a1.019,1.019,0,0,1-.776-.253.964.964,0,0,1-.239-.686,1.121,1.121,0,0,1,.013-.166,1.026,1.026,0,0,1,.046-.186.742.742,0,0,1,.094-.2.684.684,0,0,1,.169-.175.745.745,0,0,1,.287-.132,1.879,1.879,0,0,1,.366-.048h1.79v.489h-1.749a.6.6,0,0,0-.415.119.377.377,0,0,0-.129.285.425.425,0,0,0,.135.355.6.6,0,0,0,.379.107H548.5v.489Z" transform="translate(-474.549 -283.071)" fill="#fff"/>
        <path id="패스_20187" data-name="패스 20187" d="M546.289,345.842v-.505l2.695.815v.551l-2.694.809v-.52l.555-.148V346Zm1.02.287v.582l1.067-.285v-.007Z" transform="translate(-475.029 -300.29)" fill="#fff"/>
        <path id="패스_20188" data-name="패스 20188" d="M546.78,368.771v1.137h-.488v-1.615h2.695v.477Z" transform="translate(-475.032 -320.251)" fill="#fff"/>
        <rect id="사각형_5793" data-name="사각형 5793" width="2.695" height="0.477" transform="translate(71.261 50.447)" fill="#fff"/>
        <path id="패스_20189" data-name="패스 20189" d="M546.29,398.979V398.5h2.218v-.69h.476v1.859h-.476v-.692Z" transform="translate(-475.029 -345.918)" fill="#fff"/>
        <path id="패스_20190" data-name="패스 20190" d="M451.132,351.837v-.478h2.2v-.69h.472v1.859h-.471v-.692Z" transform="translate(-392.285 -304.925)" fill="#fff"/>
        <path id="패스_20191" data-name="패스 20191" d="M422.274,386.556v-.477h2.216v-.69h.475v1.859h-.475v-.691Z" transform="translate(-367.19 -335.116)" fill="#fff"/>
        <path id="패스_20192" data-name="패스 20192" d="M451.2,65.941v-.477h2.2v-.69h.472v1.859H453.4V65.94Z" transform="translate(-392.34 -56.323)" fill="#fff"/>
        <path id="패스_20193" data-name="패스 20193" d="M546.29,418.891v-.477h1.017l1.677-.794v.564l-1.17.478,1.17.45v.539l-1.685-.76Z" transform="translate(-475.029 -363.143)" fill="#fff"/>
        <path id="패스_20194" data-name="패스 20194" d="M476.662,119.852a.608.608,0,0,1-.44-.134.7.7,0,0,1-.184-.34v0h.176s0,0,0,.006a.009.009,0,0,1,0,.006.5.5,0,0,0,.1.166.4.4,0,0,0,.274.089v-.268h.485v.477Z" transform="translate(-413.941 -103.802)" fill="#fff"/>
        <path id="패스_20195" data-name="패스 20195" d="M480.795,136.2v1.136h-.487v-1.615H483v.478Z" transform="translate(-417.654 -118.018)" fill="#fff"/>
        <path id="패스_20196" data-name="패스 20196" d="M482.52,152.318v-1.212h-.566v1.115h-.475v-1.115h-.7v1.267H480.3v-1.736h2.691v1.681Z" transform="translate(-417.651 -130.987)" fill="#fff"/>
        <path id="패스_20197" data-name="패스 20197" d="M424.341,151.936V151h-.567v.862H423.3V151h-.7v.979h-.477v-1.341h2.691v1.3Z" transform="translate(-367.061 -130.987)" fill="#fff"/>
        <path id="패스_20198" data-name="패스 20198" d="M424.427,207.138V206.2h-.567v.862h-.475V206.2h-.7v.979h-.477V205.84H424.9v1.3Z" transform="translate(-367.135 -178.989)" fill="#fff"/>
        <path id="패스_20199" data-name="패스 20199" d="M480.3,188.459v-.477h2.218v-.69H483v1.859h-.476v-.692Z" transform="translate(-417.651 -162.859)" fill="#fff"/>
        <path id="패스_20200" data-name="패스 20200" d="M482.527,207.091V205.88h-.566v1.114h-.476V205.88h-.7v1.266h-.477V205.41H483v1.681Z" transform="translate(-417.655 -178.615)" fill="#fff"/>
        <path id="패스_20201" data-name="패스 20201" d="M483.012,224.848V226a.669.669,0,0,1-.138.446.723.723,0,0,1-.3.211.849.849,0,0,1-.177.049.925.925,0,0,1-.15.013.852.852,0,0,1-.4-.091.492.492,0,0,1-.244-.262.022.022,0,0,0-.006.01.027.027,0,0,1-.006.009.486.486,0,0,1-.188.2,1.1,1.1,0,0,1-.484.07,3.624,3.624,0,0,0-.4.014.162.162,0,0,0-.137.087h-.067v-.529a1.852,1.852,0,0,1,.214-.036,2.975,2.975,0,0,1,.326-.014,1.019,1.019,0,0,0,.394-.054c.079-.037.117-.143.117-.319v-.494h-1.051v-.469Zm-1.186,1.03a.386.386,0,0,0,.081.277.374.374,0,0,0,.284.092l.054,0a.265.265,0,0,0,.059-.011.34.34,0,0,0,.165-.091.31.31,0,0,0,.074-.232v-.594h-.717Z" transform="translate(-417.663 -195.518)" fill="#fff"/>
        <path id="패스_20202" data-name="패스 20202" d="M482.538,274.861V273.65h-.568v1.114h-.476V273.65h-.7v1.266h-.478v-1.735h2.7v1.68Z" transform="translate(-417.663 -237.546)" fill="#fff"/>
        <rect id="사각형_5794" data-name="사각형 5794" width="2.705" height="0.477" transform="translate(58.839 26.234)" fill="#fff"/>
        <path id="패스_20203" data-name="패스 20203" d="M452.173,214.091v.955h-1.44v-.318l.335-.051-.067-.045a.616.616,0,0,1-.067-.055.888.888,0,0,1-.187-.23.735.735,0,0,1-.085-.379.972.972,0,0,1,.345-.732,1.5,1.5,0,0,1,1.049-.321,1.822,1.822,0,0,1,.982.27.914.914,0,0,1,.431.847.927.927,0,0,1-.194.626,1.041,1.041,0,0,1-.425.313,1,1,0,0,1-.144.043.816.816,0,0,1-.134.019l0-.477a.267.267,0,0,0,.086-.022.6.6,0,0,0,.114-.061.694.694,0,0,0,.161-.164.436.436,0,0,0,.073-.255.6.6,0,0,0-.223-.452,1.094,1.094,0,0,0-.736-.2.988.988,0,0,0-.717.2.665.665,0,0,0-.2.434v.031a.706.706,0,0,0,.014.116.383.383,0,0,0,.076.159.652.652,0,0,0,.177.164.9.9,0,0,0,.325.116v-.532Z" transform="translate(-391.877 -185.141)" fill="#fff"/>
        <path id="패스_20204" data-name="패스 20204" d="M451.57,234.4v1.137h-.49v-1.614h2.7v.477Z" transform="translate(-392.238 -203.411)" fill="#fff"/>
        <path id="패스_20205" data-name="패스 20205" d="M453.316,255.078v-1.211h-.569v1.114h-.477v-1.114h-.7v1.265h-.479V253.4h2.7v1.682Z" transform="translate(-392.249 -220.342)" fill="#fff"/>
        <path id="패스_20206" data-name="패스 20206" d="M453.834,383.727v1.01a.746.746,0,0,1-.271.63,1.442,1.442,0,0,1-.594.262,1.71,1.71,0,0,1-.214.032c-.072,0-.139.007-.2.007s-.138,0-.211-.007-.149-.015-.224-.028a1.728,1.728,0,0,1-.666-.272.726.726,0,0,1-.3-.643v-.99Zm-2.224.472v.465a.4.4,0,0,0,.263.395,1.544,1.544,0,0,0,.585.121h.029a.179.179,0,0,0,.025,0,1.266,1.266,0,0,0,.61-.105.517.517,0,0,0,.223-.236.537.537,0,0,0,.021-.092.791.791,0,0,0,0-.09V384.2Z" transform="translate(-392.297 -333.672)" fill="#fff"/>
        <path id="패스_20207" data-name="패스 20207" d="M453.367,404.56v-1.211H452.8v1.114h-.476v-1.114h-.7v1.266h-.475v-1.736h2.687v1.681Z" transform="translate(-392.304 -350.325)" fill="#fff"/>
        <path id="패스_20208" data-name="패스 20208" d="M424.484,421.55v-1.211h-.564v1.114h-.475V420.34h-.7v1.266h-.474V419.87h2.684v1.681Z" transform="translate(-367.191 -365.099)" fill="#fff"/>
        <path id="패스_20209" data-name="패스 20209" d="M451.858,418.652v.467a.506.506,0,0,0-.084.007.554.554,0,0,0-.088.024.45.45,0,0,0-.175.142.518.518,0,0,0-.081.32v.034a.091.091,0,0,0,.005.033.662.662,0,0,0,.077.289.269.269,0,0,0,.258.13.219.219,0,0,0,.2-.1,1.1,1.1,0,0,0,.105-.271.168.168,0,0,1,.008-.024.141.141,0,0,1,.006-.024l.07-.249s0,0,0-.006,0,0,0,0a1.991,1.991,0,0,1,.2-.506.6.6,0,0,1,.561-.225,1.066,1.066,0,0,1,.143.012.972.972,0,0,1,.162.04.8.8,0,0,1,.343.257.9.9,0,0,1,.157.584.817.817,0,0,1-.542.853.975.975,0,0,1-.159.042.8.8,0,0,1-.143.014l0-.467.075-.012a.292.292,0,0,0,.093-.032.359.359,0,0,0,.154-.134.534.534,0,0,0,.069-.3c0-.013,0-.027,0-.041s0-.028-.006-.043a.452.452,0,0,0-.087-.22.25.25,0,0,0-.22-.1.24.24,0,0,0-.167.049.267.267,0,0,0-.077.114.32.32,0,0,0-.018.04c0,.015-.008.028-.012.041l-.151.57a1.251,1.251,0,0,1-.212.422.583.583,0,0,1-.494.186.784.784,0,0,1-.521-.151.854.854,0,0,1-.251-.334,1.072,1.072,0,0,1-.066-.249c-.01-.079-.015-.14-.016-.181a1.048,1.048,0,0,1,.172-.662.839.839,0,0,1,.379-.282.93.93,0,0,1,.167-.04,1.031,1.031,0,0,1,.152-.012Z" transform="translate(-392.155 -364.041)" fill="#fff"/>
        <path id="패스_20210" data-name="패스 20210" d="M519.162,312.509v.988a.554.554,0,0,1-.123.381.637.637,0,0,1-.265.181.817.817,0,0,1-.156.042,1.006,1.006,0,0,1-.133.012.782.782,0,0,1-.352-.078.43.43,0,0,1-.215-.224.031.031,0,0,0-.006.008.023.023,0,0,1,0,.009.41.41,0,0,1-.166.172,1,1,0,0,1-.427.06,3.286,3.286,0,0,0-.354.012.143.143,0,0,0-.121.075h-.059v-.452a1.485,1.485,0,0,1,.189-.03,2.628,2.628,0,0,1,.289-.013.95.95,0,0,0,.349-.046c.069-.032.1-.122.1-.272v-.421h-.929v-.4Zm-1.049.88a.322.322,0,0,0,.071.237.336.336,0,0,0,.25.078h.049a.276.276,0,0,0,.051-.009.3.3,0,0,0,.146-.077.26.26,0,0,0,.066-.2v-.508h-.633Z" transform="translate(-449.368 -271.744)" fill="#fff"/>
        <path id="패스_20211" data-name="패스 20211" d="M511.049,301.758a2.159,2.159,0,1,1-2.158,2.16,2.158,2.158,0,0,1,2.158-2.16m0,.461a1.7,1.7,0,1,0,1.7,1.7,1.7,1.7,0,0,0-1.7-1.7" transform="translate(-442.509 -262.395)" fill="#fff"/>
        <path id="패스_20212" data-name="패스 20212" d="M631.4,313.174v.5a.383.383,0,0,0-.084.009.377.377,0,0,0-.086.026.435.435,0,0,0-.176.153.593.593,0,0,0-.079.343v.036a.19.19,0,0,0,0,.037.727.727,0,0,0,.078.309.264.264,0,0,0,.257.14.216.216,0,0,0,.2-.112,1.223,1.223,0,0,0,.1-.291l.008-.026a.133.133,0,0,0,.007-.026l.069-.268a.013.013,0,0,1,0-.006s0,0,0,0a2.274,2.274,0,0,1,.2-.543.576.576,0,0,1,.56-.242.935.935,0,0,1,.144.012.992.992,0,0,1,.162.043.811.811,0,0,1,.342.276,1.025,1.025,0,0,1,.156.627.986.986,0,0,1-.169.628.849.849,0,0,1-.372.288.81.81,0,0,1-.159.044.713.713,0,0,1-.144.016l0-.5c.019,0,.043-.008.073-.013a.324.324,0,0,0,.094-.034.371.371,0,0,0,.152-.144.59.59,0,0,0,.07-.321c0-.015,0-.029,0-.046s0-.03-.006-.045a.513.513,0,0,0-.086-.238.246.246,0,0,0-.219-.106.235.235,0,0,0-.168.054.3.3,0,0,0-.076.121.3.3,0,0,0-.018.044.207.207,0,0,0-.011.044l-.153.611a1.419,1.419,0,0,1-.211.454.563.563,0,0,1-.493.2.743.743,0,0,1-.521-.163.929.929,0,0,1-.251-.357,1.2,1.2,0,0,1-.065-.268,1.657,1.657,0,0,1-.016-.194,1.183,1.183,0,0,1,.171-.71.84.84,0,0,1,.378-.3.714.714,0,0,1,.168-.042.976.976,0,0,1,.153-.013Z" transform="translate(-548.282 -272.322)" fill="#fff"/>
        <path id="패스_20213" data-name="패스 20213" d="M602.749,244.207v.5a.384.384,0,0,0-.084.009.372.372,0,0,0-.086.026.434.434,0,0,0-.176.153.592.592,0,0,0-.079.343v.036a.186.186,0,0,0,0,.037.726.726,0,0,0,.078.309.264.264,0,0,0,.257.14.216.216,0,0,0,.2-.112,1.227,1.227,0,0,0,.1-.291l.008-.026a.129.129,0,0,0,.007-.026l.069-.268a.013.013,0,0,1,0-.006s0,0,0,0a2.276,2.276,0,0,1,.2-.543.576.576,0,0,1,.56-.242.933.933,0,0,1,.144.012.991.991,0,0,1,.162.043.811.811,0,0,1,.342.276,1.025,1.025,0,0,1,.156.627.986.986,0,0,1-.169.628.849.849,0,0,1-.372.288.808.808,0,0,1-.159.044.713.713,0,0,1-.144.016l0-.5c.019,0,.043-.008.073-.013a.325.325,0,0,0,.094-.034.372.372,0,0,0,.152-.144.591.591,0,0,0,.07-.321c0-.015,0-.029,0-.046s0-.03-.006-.045a.512.512,0,0,0-.086-.238.246.246,0,0,0-.219-.106.235.235,0,0,0-.168.054.557.557,0,0,0-.094.165.212.212,0,0,0-.011.044l-.153.611a1.421,1.421,0,0,1-.211.454.563.563,0,0,1-.493.2.743.743,0,0,1-.521-.163.928.928,0,0,1-.251-.357,1.2,1.2,0,0,1-.065-.268,1.657,1.657,0,0,1-.016-.194,1.183,1.183,0,0,1,.171-.71.841.841,0,0,1,.378-.3.717.717,0,0,1,.168-.042.977.977,0,0,1,.153-.013Z" transform="translate(-523.365 -212.352)" fill="#fff"/>
        <path id="패스_20214" data-name="패스 20214" d="M633.405,331.467v.555c-.679.148-1.132.244-1.358.291s-.406.077-.541.1l-.015,0-.015,0a.127.127,0,0,1-.025.006.2.2,0,0,1-.025,0v0h0a.038.038,0,0,1,.016,0h.011l.564.094c.238.039.7.122,1.383.249l0,.556q-.966.191-1.3.253c-.223.04-.406.075-.546.1h-.008l-.059.011a.519.519,0,0,1-.064.012v0c.006,0,.01,0,.012,0,.125.02.3.053.527.1s.7.145,1.436.3l0,.531-2.7-.7v-.5q.8-.158,1.164-.226t.655-.115a.052.052,0,0,0,.02,0,.049.049,0,0,0,.021-.007c.038,0,.077-.011.117-.019l.124-.019,0-.008-.108-.015-.1-.015-.05-.009c-.016,0-.032,0-.046-.007q-.269-.042-.628-.11c-.239-.045-.63-.121-1.175-.229v-.483Z" transform="translate(-548.434 -288.229)" fill="#fff"/>
        <path id="패스_20215" data-name="패스 20215" d="M631.634,377.444a1.624,1.624,0,0,1,.876.192,1.172,1.172,0,0,1,.416.419,1,1,0,0,1,.1.279.987.987,0,0,1,0,.438,1.007,1.007,0,0,1-.1.28,1.166,1.166,0,0,1-.415.419,2.106,2.106,0,0,1-1.758,0,1.17,1.17,0,0,1-.414-.42,1.157,1.157,0,0,1-.093-.279,1.275,1.275,0,0,1-.025-.218,1.249,1.249,0,0,1,.025-.22,1.115,1.115,0,0,1,.092-.279,1.181,1.181,0,0,1,.414-.419,1.644,1.644,0,0,1,.88-.193Zm0,.482a1.18,1.18,0,0,0-.642.138.632.632,0,0,0-.266.3.5.5,0,0,0-.026.1.613.613,0,0,0-.007.092.6.6,0,0,0,.007.091.491.491,0,0,0,.026.1.648.648,0,0,0,.266.3,1.563,1.563,0,0,0,1.279,0,.662.662,0,0,0,.266-.3.426.426,0,0,0,.026-.1.539.539,0,0,0,0-.186.428.428,0,0,0-.026-.095.645.645,0,0,0-.266-.3,1.17,1.17,0,0,0-.639-.138Z" transform="translate(-548.011 -328.209)" fill="#fff"/>
        <path id="패스_20216" data-name="패스 20216" d="M631.4,397.515v.513a.507.507,0,0,0-.084.01.4.4,0,0,0-.262.183.626.626,0,0,0-.079.353v.038a.162.162,0,0,0,0,.036.762.762,0,0,0,.078.318.259.259,0,0,0,.256.143.213.213,0,0,0,.2-.115,1.266,1.266,0,0,0,.1-.3c0-.01.005-.017.008-.026a.13.13,0,0,0,.007-.027l.069-.273a.068.068,0,0,1,0-.007,0,0,0,0,1,0,0,2.4,2.4,0,0,1,.2-.559.575.575,0,0,1,.559-.248.927.927,0,0,1,.143.013.9.9,0,0,1,.162.043.813.813,0,0,1,.341.283,1.079,1.079,0,0,1,.156.646,1.028,1.028,0,0,1-.169.644.858.858,0,0,1-.371.3.882.882,0,0,1-.158.047.793.793,0,0,1-.143.016l.005-.516c.018,0,.043-.007.072-.013a.26.26,0,0,0,.093-.035.359.359,0,0,0,.152-.148.619.619,0,0,0,.07-.33c0-.014,0-.03,0-.046a.415.415,0,0,0-.006-.047.534.534,0,0,0-.086-.244.241.241,0,0,0-.218-.11.234.234,0,0,0-.168.055.32.32,0,0,0-.075.124.363.363,0,0,0-.018.046.263.263,0,0,0-.011.045l-.152.629a1.477,1.477,0,0,1-.211.465.553.553,0,0,1-.493.206.733.733,0,0,1-.52-.167.972.972,0,0,1-.251-.368,1.264,1.264,0,0,1-.065-.275,1.812,1.812,0,0,1-.016-.2,1.248,1.248,0,0,1,.171-.731.857.857,0,0,1,.377-.312,1.035,1.035,0,0,1,.167-.043.892.892,0,0,1,.152-.013Z" transform="translate(-548.283 -345.661)" fill="#fff"/>
        <path id="패스_20217" data-name="패스 20217" d="M631.9,417.886h-1.212v-.523h2.7v.523h-1.025v.976h1.024v.522h-2.7v-.522H631.9Z" transform="translate(-548.416 -362.92)" fill="#fff"/>
        <path id="패스_20218" data-name="패스 20218" d="M451.718,97.816v.5a.355.355,0,0,0-.085.009.373.373,0,0,0-.087.026.435.435,0,0,0-.179.153.588.588,0,0,0-.08.343v.035a.2.2,0,0,0,0,.038.74.74,0,0,0,.079.309.271.271,0,0,0,.261.14.222.222,0,0,0,.207-.112,1.264,1.264,0,0,0,.106-.291l.008-.026a.2.2,0,0,0,.006-.026l.071-.268a.018.018,0,0,1,0-.006s0,0,0,0a2.26,2.26,0,0,1,.207-.544.59.59,0,0,1,.568-.241.954.954,0,0,1,.146.012,1,1,0,0,1,.165.043.818.818,0,0,1,.347.276,1.017,1.017,0,0,1,.159.628.972.972,0,0,1-.172.628.876.876,0,0,1-.378.288.864.864,0,0,1-.161.044.774.774,0,0,1-.146.016l0-.5c.02,0,.044-.008.074-.013a.329.329,0,0,0,.094-.034.377.377,0,0,0,.155-.144.58.58,0,0,0,.071-.322.424.424,0,0,0,0-.047c0-.015,0-.03-.006-.044a.506.506,0,0,0-.087-.238.25.25,0,0,0-.222-.106.236.236,0,0,0-.17.054.286.286,0,0,0-.077.121.244.244,0,0,0-.019.044.16.16,0,0,0-.011.044l-.156.611a1.4,1.4,0,0,1-.214.454.578.578,0,0,1-.5.2.768.768,0,0,1-.529-.163.939.939,0,0,1-.255-.358,1.193,1.193,0,0,1-.066-.268,1.692,1.692,0,0,1-.016-.194,1.184,1.184,0,0,1,.173-.71.863.863,0,0,1,.384-.3.746.746,0,0,1,.171-.042.948.948,0,0,1,.155-.013Z" transform="translate(-392.023 -85.056)" fill="#fff"/>
        <path id="패스_20219" data-name="패스 20219" d="M423.32,369.3a1.67,1.67,0,0,1,.864.181,1.129,1.129,0,0,1,.41.4.912.912,0,0,1,.094.263.889.889,0,0,1,0,.414.921.921,0,0,1-.094.263,1.106,1.106,0,0,1-.41.4,2.15,2.15,0,0,1-1.735,0,1.131,1.131,0,0,1-.41-.4,1.1,1.1,0,0,1-.091-.263,1.227,1.227,0,0,1-.024-.207,1.285,1.285,0,0,1,.024-.207,1.082,1.082,0,0,1,.091-.263,1.159,1.159,0,0,1,.41-.4,1.679,1.679,0,0,1,.868-.181Zm0,.455a1.22,1.22,0,0,0-.635.131.617.617,0,0,0-.262.286.415.415,0,0,0-.026.09.547.547,0,0,0,0,.175.441.441,0,0,0,.026.091.616.616,0,0,0,.263.285,1.606,1.606,0,0,0,1.263,0,.621.621,0,0,0,.262-.285.378.378,0,0,0,.026-.091.6.6,0,0,0,.008-.087.587.587,0,0,0-.008-.087.352.352,0,0,0-.026-.09.621.621,0,0,0-.262-.286,1.209,1.209,0,0,0-.632-.13Z" transform="translate(-366.886 -321.129)" fill="#fff"/>
        <path id="패스_20220" data-name="패스 20220" d="M452.083,307.222a1.661,1.661,0,0,1,.864.181,1.124,1.124,0,0,1,.41.4.926.926,0,0,1,.094.263,1.136,1.136,0,0,1,.025.208,1.113,1.113,0,0,1-.024.206.91.91,0,0,1-.094.263,1.116,1.116,0,0,1-.41.4,2.163,2.163,0,0,1-1.735,0,1.137,1.137,0,0,1-.41-.4,1.058,1.058,0,0,1-.091-.263,1.23,1.23,0,0,1-.025-.206,1.251,1.251,0,0,1,.024-.208,1.056,1.056,0,0,1,.091-.263,1.142,1.142,0,0,1,.41-.4,1.675,1.675,0,0,1,.867-.182Zm0,.455a1.212,1.212,0,0,0-.634.131.6.6,0,0,0-.262.285.422.422,0,0,0-.026.09.582.582,0,0,0-.007.088.568.568,0,0,0,.007.086.419.419,0,0,0,.026.091.618.618,0,0,0,.262.286,1.621,1.621,0,0,0,1.263,0,.627.627,0,0,0,.262-.287.335.335,0,0,0,.026-.091.585.585,0,0,0,.008-.086.6.6,0,0,0-.008-.088.394.394,0,0,0-.025-.09.616.616,0,0,0-.263-.285,1.2,1.2,0,0,0-.632-.13Z" transform="translate(-391.898 -267.147)" fill="#fff"/>
        <rect id="사각형_5795" data-name="사각형 5795" width="0.72" height="0.619" transform="translate(51.282 51.097)" fill="#fff"/>
        <path id="패스_20221" data-name="패스 20221" d="M974.359,89.462v-.821l-6.147,0v.41l.968.8h.671l-.316-.395Z" transform="translate(-841.914 -77.079)" fill="#fff"/>
        <path id="패스_20222" data-name="패스 20222" d="M880.842,178.029l-2.072-1.1v-2.439h2.071v-2.1l-10.985.055.018,1.994,10.97,6Zm-6.932-3.692,3.257.21v1.6Z" transform="translate(-756.386 -149.903)" fill="#fff"/>
        <path id="패스_20223" data-name="패스 20223" d="M574.98,148.364v-.556h2.26V147.8l-2.26-.536v-.59l2.26-.523v-.01h-2.26v-.555h2.7v.873l-2.131.524v0l2.132.512v.869Z" transform="translate(-499.976 -126.591)" fill="#fff"/>
        <path id="패스_20224" data-name="패스 20224" d="M422.124,48.794v-.556h2.26v-.009l-2.26-.536V47.1l2.26-.523v-.01h-2.26v-.555h2.7v.873l-2.131.524v0l2.132.512v.869Z" transform="translate(-367.059 -40.01)" fill="#fff"/>
        <path id="패스_20225" data-name="패스 20225" d="M631.634,357.469a1.624,1.624,0,0,1,.876.192,1.172,1.172,0,0,1,.416.419,1,1,0,0,1,.1.279.987.987,0,0,1,0,.438,1.007,1.007,0,0,1-.1.28,1.166,1.166,0,0,1-.415.419,2.106,2.106,0,0,1-1.758,0,1.17,1.17,0,0,1-.414-.42,1.158,1.158,0,0,1-.093-.279,1.275,1.275,0,0,1-.025-.218,1.248,1.248,0,0,1,.025-.22,1.114,1.114,0,0,1,.092-.279,1.181,1.181,0,0,1,.414-.419,1.644,1.644,0,0,1,.88-.193Zm0,.482a1.18,1.18,0,0,0-.642.138.632.632,0,0,0-.266.3.5.5,0,0,0-.026.1.612.612,0,0,0-.007.092.6.6,0,0,0,.007.091.493.493,0,0,0,.026.1.649.649,0,0,0,.266.3,1.563,1.563,0,0,0,1.279,0,.662.662,0,0,0,.266-.3.426.426,0,0,0,.026-.1.539.539,0,0,0,0-.186.428.428,0,0,0-.026-.095.645.645,0,0,0-.266-.3,1.171,1.171,0,0,0-.639-.138Z" transform="translate(-548.011 -310.839)" fill="#fff"/>
        <path id="패스_20226" data-name="패스 20226" d="M512.016,167.773v.5a.394.394,0,0,0-.085.009.378.378,0,0,0-.088.026.438.438,0,0,0-.179.153.585.585,0,0,0-.08.343v.036a.182.182,0,0,0,0,.037.718.718,0,0,0,.079.309.269.269,0,0,0,.26.14.22.22,0,0,0,.207-.112,1.221,1.221,0,0,0,.106-.291l.008-.026a.134.134,0,0,0,.007-.026l.07-.268a.014.014,0,0,1,0-.006s0,0,0,0a2.263,2.263,0,0,1,.207-.543.589.589,0,0,1,.568-.242.961.961,0,0,1,.146.012,1.012,1.012,0,0,1,.165.043.821.821,0,0,1,.347.276,1.012,1.012,0,0,1,.158.627.975.975,0,0,1-.172.628.861.861,0,0,1-.378.288.832.832,0,0,1-.161.044.737.737,0,0,1-.146.016l0-.5c.019,0,.044-.008.074-.013a.329.329,0,0,0,.095-.034.375.375,0,0,0,.154-.144.585.585,0,0,0,.071-.321c0-.015,0-.029,0-.046a.423.423,0,0,0-.006-.045.5.5,0,0,0-.088-.238.25.25,0,0,0-.222-.106.241.241,0,0,0-.171.054.3.3,0,0,0-.077.121.3.3,0,0,0-.018.044.2.2,0,0,0-.011.044l-.155.611a1.415,1.415,0,0,1-.214.454.575.575,0,0,1-.5.2.761.761,0,0,1-.529-.163.926.926,0,0,1-.255-.357,1.178,1.178,0,0,1-.066-.268,1.626,1.626,0,0,1-.016-.194,1.17,1.17,0,0,1,.174-.71.85.85,0,0,1,.383-.3.735.735,0,0,1,.17-.042,1.014,1.014,0,0,1,.155-.013Z" transform="translate(-444.456 -145.888)" fill="#fff"/>
        <path id="패스_20227" data-name="패스 20227" d="M512.016,252.5v.5a.393.393,0,0,0-.085.009.379.379,0,0,0-.088.026.438.438,0,0,0-.179.153.586.586,0,0,0-.08.343v.036a.182.182,0,0,0,0,.037.719.719,0,0,0,.079.309.269.269,0,0,0,.26.14.22.22,0,0,0,.207-.112,1.221,1.221,0,0,0,.106-.291l.008-.026a.133.133,0,0,0,.007-.026l.07-.268a.014.014,0,0,1,0-.006s0,0,0,0a2.263,2.263,0,0,1,.207-.543.589.589,0,0,1,.568-.242.961.961,0,0,1,.146.012,1.01,1.01,0,0,1,.165.043.821.821,0,0,1,.347.276,1.012,1.012,0,0,1,.158.627.975.975,0,0,1-.172.628.861.861,0,0,1-.378.288.829.829,0,0,1-.161.044.737.737,0,0,1-.146.016l0-.5c.019,0,.044-.008.074-.013a.328.328,0,0,0,.095-.034.375.375,0,0,0,.154-.144.585.585,0,0,0,.071-.321c0-.015,0-.029,0-.046a.422.422,0,0,0-.006-.045.5.5,0,0,0-.088-.238.25.25,0,0,0-.222-.106.241.241,0,0,0-.171.054.3.3,0,0,0-.077.121.3.3,0,0,0-.018.044.2.2,0,0,0-.011.044l-.155.611a1.416,1.416,0,0,1-.214.454.575.575,0,0,1-.5.2.761.761,0,0,1-.529-.163.926.926,0,0,1-.255-.357,1.177,1.177,0,0,1-.066-.268,1.626,1.626,0,0,1-.016-.194,1.17,1.17,0,0,1,.174-.71.85.85,0,0,1,.383-.3.735.735,0,0,1,.17-.042,1.014,1.014,0,0,1,.155-.013Z" transform="translate(-444.456 -219.563)" fill="#fff"/>
        <path id="패스_20228" data-name="패스 20228" d="M514.315,186.065v.555c-.679.148-1.132.244-1.358.29s-.406.077-.541.1l-.015,0-.015,0a.124.124,0,0,1-.025.006.175.175,0,0,1-.025,0v0h0a.038.038,0,0,1,.016,0h.011l.564.094c.239.04.7.122,1.383.249l0,.556q-.966.191-1.3.253l-.546.1h-.008l-.06.011a.518.518,0,0,1-.064.011v0c.006,0,.01,0,.012,0,.125.02.3.053.527.1s.705.145,1.436.3l0,.531-2.7-.7v-.5q.8-.158,1.164-.226t.655-.115a.051.051,0,0,0,.02,0,.048.048,0,0,0,.02-.007c.038,0,.077-.011.117-.019l.124-.019,0-.008c-.04-.006-.076-.012-.108-.015l-.1-.015c-.017,0-.034-.006-.05-.009s-.032,0-.046-.007q-.269-.042-.628-.11c-.239-.045-.63-.121-1.175-.229v-.483Z" transform="translate(-444.879 -161.794)" fill="#fff"/>
        <path id="패스_20229" data-name="패스 20229" d="M512.543,232.043a1.624,1.624,0,0,1,.876.192,1.17,1.17,0,0,1,.416.419,1,1,0,0,1,.1.279,1.234,1.234,0,0,1,.025.22,1.221,1.221,0,0,1-.025.218,1.009,1.009,0,0,1-.1.28,1.166,1.166,0,0,1-.415.419,2.106,2.106,0,0,1-1.758,0,1.17,1.17,0,0,1-.414-.42,1.157,1.157,0,0,1-.093-.279,1.275,1.275,0,0,1-.025-.218,1.249,1.249,0,0,1,.025-.22,1.115,1.115,0,0,1,.092-.279,1.181,1.181,0,0,1,.414-.419,1.644,1.644,0,0,1,.88-.193Zm0,.482a1.18,1.18,0,0,0-.642.138.632.632,0,0,0-.266.3.5.5,0,0,0-.026.1.622.622,0,0,0-.007.092.612.612,0,0,0,.007.091.5.5,0,0,0,.026.1.649.649,0,0,0,.266.3,1.563,1.563,0,0,0,1.279,0,.662.662,0,0,0,.266-.3.429.429,0,0,0,.026-.1.539.539,0,0,0,0-.186.428.428,0,0,0-.026-.095.645.645,0,0,0-.266-.3,1.17,1.17,0,0,0-.639-.138Z" transform="translate(-444.455 -201.774)" fill="#fff"/>
        <path id="패스_20230" data-name="패스 20230" d="M512.807,272.485H511.6v-.523h2.7v.523h-1.024v.976H514.3v.522h-2.7v-.522h1.212Z" transform="translate(-444.861 -236.486)" fill="#fff"/>
        <path id="패스_20231" data-name="패스 20231" d="M512.543,212.068a1.624,1.624,0,0,1,.876.192,1.17,1.17,0,0,1,.416.419,1,1,0,0,1,.1.279,1.234,1.234,0,0,1,.025.22,1.221,1.221,0,0,1-.025.218,1.009,1.009,0,0,1-.1.28,1.166,1.166,0,0,1-.415.42,2.106,2.106,0,0,1-1.758,0,1.17,1.17,0,0,1-.414-.42,1.157,1.157,0,0,1-.093-.279,1.276,1.276,0,0,1-.025-.218,1.249,1.249,0,0,1,.025-.22,1.115,1.115,0,0,1,.092-.279,1.181,1.181,0,0,1,.414-.419,1.644,1.644,0,0,1,.88-.193Zm0,.482a1.181,1.181,0,0,0-.642.138.632.632,0,0,0-.266.3.5.5,0,0,0-.026.1.621.621,0,0,0-.007.092.612.612,0,0,0,.007.091.5.5,0,0,0,.026.1.649.649,0,0,0,.266.3,1.564,1.564,0,0,0,1.279,0,.662.662,0,0,0,.266-.3.429.429,0,0,0,.026-.1.539.539,0,0,0,0-.186.428.428,0,0,0-.026-.095.645.645,0,0,0-.266-.3,1.17,1.17,0,0,0-.639-.138Z" transform="translate(-444.455 -184.405)" fill="#fff"/>
        <path id="패스_20232" data-name="패스 20232" d="M480.918,313.573v.5a.381.381,0,0,0-.084.009.374.374,0,0,0-.086.026.435.435,0,0,0-.176.153.593.593,0,0,0-.079.343v.036a.186.186,0,0,0,0,.037.726.726,0,0,0,.078.309.264.264,0,0,0,.257.14.216.216,0,0,0,.2-.112,1.223,1.223,0,0,0,.1-.291l.008-.026a.132.132,0,0,0,.007-.026l.069-.268a.013.013,0,0,1,0-.006s0,0,0,0a2.279,2.279,0,0,1,.2-.543.576.576,0,0,1,.56-.242.933.933,0,0,1,.144.012,1,1,0,0,1,.163.043.811.811,0,0,1,.342.276,1.025,1.025,0,0,1,.156.627.986.986,0,0,1-.169.628.849.849,0,0,1-.372.288.806.806,0,0,1-.159.044.713.713,0,0,1-.144.016l0-.5c.019,0,.043-.008.073-.013a.325.325,0,0,0,.094-.034.372.372,0,0,0,.152-.144.591.591,0,0,0,.07-.321c0-.015,0-.029,0-.046s0-.03-.006-.045a.512.512,0,0,0-.086-.238.246.246,0,0,0-.219-.106.235.235,0,0,0-.168.054.557.557,0,0,0-.094.165.208.208,0,0,0-.011.044l-.153.611a1.419,1.419,0,0,1-.211.454.563.563,0,0,1-.493.2.743.743,0,0,1-.521-.163.929.929,0,0,1-.251-.357,1.2,1.2,0,0,1-.065-.268,1.657,1.657,0,0,1-.016-.194,1.183,1.183,0,0,1,.171-.71.84.84,0,0,1,.378-.3.719.719,0,0,1,.168-.042.982.982,0,0,1,.153-.013Z" transform="translate(-417.426 -272.669)" fill="#fff"/>
        <path id="패스_20233" data-name="패스 20233" d="M482.919,331.866v.555c-.679.148-1.132.244-1.358.291s-.406.077-.541.1l-.015,0-.015,0a.128.128,0,0,1-.025.006.2.2,0,0,1-.025,0v0h0a.037.037,0,0,1,.016,0h.011l.564.094c.239.039.7.122,1.383.249l0,.556q-.966.191-1.3.253c-.223.04-.406.075-.546.1h-.008l-.06.011a.516.516,0,0,1-.064.012v0c.006,0,.01,0,.012,0,.125.02.3.053.527.1s.7.145,1.436.3l0,.531-2.7-.7v-.5q.8-.158,1.164-.226t.655-.115a.051.051,0,0,0,.02,0,.049.049,0,0,0,.021-.007c.038,0,.077-.011.117-.019l.124-.019,0-.008-.108-.015-.1-.015-.05-.009c-.016,0-.032,0-.046-.007q-.269-.042-.628-.11c-.239-.045-.63-.121-1.175-.229v-.483Z" transform="translate(-417.578 -288.576)" fill="#fff"/>
        <path id="패스_20234" data-name="패스 20234" d="M481.147,377.843a1.624,1.624,0,0,1,.876.192,1.17,1.17,0,0,1,.416.419,1,1,0,0,1,.1.279.987.987,0,0,1,0,.438,1.006,1.006,0,0,1-.1.28,1.166,1.166,0,0,1-.415.42,2.106,2.106,0,0,1-1.758,0,1.17,1.17,0,0,1-.414-.42,1.157,1.157,0,0,1-.093-.279,1.282,1.282,0,0,1-.025-.218,1.249,1.249,0,0,1,.025-.22,1.118,1.118,0,0,1,.092-.279,1.181,1.181,0,0,1,.414-.419,1.644,1.644,0,0,1,.88-.193Zm0,.482a1.181,1.181,0,0,0-.642.138.632.632,0,0,0-.266.3.5.5,0,0,0-.026.1.606.606,0,0,0-.007.092.62.62,0,0,0,.007.091.5.5,0,0,0,.026.1.649.649,0,0,0,.266.3,1.564,1.564,0,0,0,1.279,0,.662.662,0,0,0,.266-.3.428.428,0,0,0,.026-.1.629.629,0,0,0,.008-.092.618.618,0,0,0-.008-.093.428.428,0,0,0-.026-.095.645.645,0,0,0-.266-.3,1.171,1.171,0,0,0-.639-.138Z" transform="translate(-417.154 -328.555)" fill="#fff"/>
        <path id="패스_20235" data-name="패스 20235" d="M480.918,397.914v.513a.507.507,0,0,0-.084.01.4.4,0,0,0-.262.183.625.625,0,0,0-.079.353v.038a.17.17,0,0,0,0,.036.763.763,0,0,0,.078.318.259.259,0,0,0,.256.143.213.213,0,0,0,.2-.115,1.264,1.264,0,0,0,.1-.3c0-.01.005-.017.008-.026a.134.134,0,0,0,.007-.027l.069-.273a.072.072,0,0,1,0-.007,0,0,0,0,1,0,0,2.4,2.4,0,0,1,.2-.559.575.575,0,0,1,.559-.248.926.926,0,0,1,.143.013.9.9,0,0,1,.162.043.814.814,0,0,1,.341.283,1.08,1.08,0,0,1,.156.646,1.028,1.028,0,0,1-.169.644.858.858,0,0,1-.371.3.878.878,0,0,1-.159.047.8.8,0,0,1-.143.016l.005-.516.072-.013a.261.261,0,0,0,.093-.035.358.358,0,0,0,.152-.148.619.619,0,0,0,.07-.33c0-.014,0-.03,0-.046a.415.415,0,0,0-.006-.047.531.531,0,0,0-.086-.244.241.241,0,0,0-.218-.11.234.234,0,0,0-.168.055.322.322,0,0,0-.075.124.35.35,0,0,0-.018.046.257.257,0,0,0-.011.045l-.152.629a1.475,1.475,0,0,1-.211.465.553.553,0,0,1-.493.206.733.733,0,0,1-.52-.167.972.972,0,0,1-.251-.368,1.264,1.264,0,0,1-.065-.275,1.8,1.8,0,0,1-.016-.2,1.248,1.248,0,0,1,.171-.731.857.857,0,0,1,.377-.312,1.035,1.035,0,0,1,.167-.043.892.892,0,0,1,.153-.013Z" transform="translate(-417.427 -346.008)" fill="#fff"/>
        <path id="패스_20236" data-name="패스 20236" d="M481.411,418.214H480.2v-.523h2.7v.523h-1.025v.976H482.9v.522h-2.7v-.522h1.212Z" transform="translate(-417.56 -363.205)" fill="#fff"/>
        <path id="패스_20237" data-name="패스 20237" d="M481.147,357.868a1.623,1.623,0,0,1,.876.192,1.17,1.17,0,0,1,.416.419,1,1,0,0,1,.1.279.987.987,0,0,1,0,.438,1.006,1.006,0,0,1-.1.28,1.166,1.166,0,0,1-.415.42,2.106,2.106,0,0,1-1.758,0,1.17,1.17,0,0,1-.414-.42,1.157,1.157,0,0,1-.093-.279,1.282,1.282,0,0,1-.025-.218,1.249,1.249,0,0,1,.025-.22,1.118,1.118,0,0,1,.092-.279,1.182,1.182,0,0,1,.414-.419,1.644,1.644,0,0,1,.88-.193Zm0,.482a1.181,1.181,0,0,0-.642.138.632.632,0,0,0-.266.3.5.5,0,0,0-.026.1.606.606,0,0,0-.007.092.62.62,0,0,0,.007.091.5.5,0,0,0,.026.1.649.649,0,0,0,.266.3,1.563,1.563,0,0,0,1.279,0,.662.662,0,0,0,.266-.3.429.429,0,0,0,.026-.1.63.63,0,0,0,.008-.092.618.618,0,0,0-.008-.093.428.428,0,0,0-.026-.095.645.645,0,0,0-.266-.3,1.171,1.171,0,0,0-.639-.138Z" transform="translate(-417.154 -311.186)" fill="#fff"/>
        <path id="패스_20238" data-name="패스 20238" d="M453.339,47.693V46.481h-.566V47.6H452.3V46.481h-.7v1.267h-.477V46.013h2.691v1.681Z" transform="translate(-392.276 -40.01)" fill="#fff"/>
        <path id="패스_20239" data-name="패스 20239" d="M451.718,182.438v.5a.355.355,0,0,0-.085.009.373.373,0,0,0-.087.026.435.435,0,0,0-.179.153.588.588,0,0,0-.08.343v.035a.2.2,0,0,0,0,.038.74.74,0,0,0,.079.309.271.271,0,0,0,.261.14.222.222,0,0,0,.207-.112,1.264,1.264,0,0,0,.106-.291l.008-.026a.2.2,0,0,0,.006-.026l.071-.268a.018.018,0,0,1,0-.006s0,0,0,0a2.26,2.26,0,0,1,.207-.544.59.59,0,0,1,.568-.241.956.956,0,0,1,.146.012,1,1,0,0,1,.165.043.818.818,0,0,1,.347.276,1.017,1.017,0,0,1,.159.628.972.972,0,0,1-.172.628.876.876,0,0,1-.378.288.864.864,0,0,1-.161.044.775.775,0,0,1-.146.016l0-.5c.02,0,.044-.008.074-.013a.328.328,0,0,0,.094-.034.377.377,0,0,0,.155-.144.58.58,0,0,0,.071-.322.424.424,0,0,0,0-.047c0-.015,0-.03-.006-.044a.506.506,0,0,0-.087-.238.25.25,0,0,0-.222-.106.236.236,0,0,0-.17.054.286.286,0,0,0-.077.121.244.244,0,0,0-.019.044.16.16,0,0,0-.011.044l-.156.611a1.4,1.4,0,0,1-.214.454.578.578,0,0,1-.5.2.768.768,0,0,1-.529-.163.939.939,0,0,1-.255-.358,1.193,1.193,0,0,1-.066-.268,1.692,1.692,0,0,1-.016-.194,1.184,1.184,0,0,1,.173-.71.863.863,0,0,1,.384-.3.746.746,0,0,1,.171-.042.95.95,0,0,1,.155-.013Z" transform="translate(-392.023 -158.64)" fill="#fff"/>
        <path id="패스_20240" data-name="패스 20240" d="M451.718,286.278v.5a.357.357,0,0,0-.085.009.374.374,0,0,0-.087.026.435.435,0,0,0-.179.153.588.588,0,0,0-.08.343v.035a.2.2,0,0,0,0,.038.74.74,0,0,0,.079.309.271.271,0,0,0,.261.14.222.222,0,0,0,.207-.112,1.265,1.265,0,0,0,.106-.291l.008-.026a.207.207,0,0,0,.006-.026l.071-.268a.018.018,0,0,1,0-.006s0,0,0,0a2.26,2.26,0,0,1,.207-.544.59.59,0,0,1,.568-.241.956.956,0,0,1,.146.012,1,1,0,0,1,.165.043.818.818,0,0,1,.347.276,1.017,1.017,0,0,1,.159.628.972.972,0,0,1-.172.628.876.876,0,0,1-.378.288.867.867,0,0,1-.161.044.772.772,0,0,1-.146.016l0-.5c.02,0,.044-.008.074-.013a.33.33,0,0,0,.094-.034.377.377,0,0,0,.155-.144.58.58,0,0,0,.071-.322.424.424,0,0,0,0-.047c0-.015,0-.03-.006-.044a.506.506,0,0,0-.087-.238.25.25,0,0,0-.222-.106.236.236,0,0,0-.17.054.286.286,0,0,0-.077.121.243.243,0,0,0-.019.044.16.16,0,0,0-.011.044l-.156.611a1.4,1.4,0,0,1-.214.454.578.578,0,0,1-.5.2.768.768,0,0,1-.529-.163.939.939,0,0,1-.255-.358,1.193,1.193,0,0,1-.066-.268,1.691,1.691,0,0,1-.016-.194,1.184,1.184,0,0,1,.173-.71.863.863,0,0,1,.384-.3.745.745,0,0,1,.171-.042.948.948,0,0,1,.155-.013Z" transform="translate(-392.023 -248.935)" fill="#fff"/>
        <path id="패스_20241" data-name="패스 20241" d="M420.832,112.877l.305-.271a.31.31,0,0,1-.038-.053.408.408,0,0,1-.026-.048.951.951,0,0,1-.095-.27,1.347,1.347,0,0,1-.023-.215,1.332,1.332,0,0,1,.025-.218,1.122,1.122,0,0,1,.092-.275,1.166,1.166,0,0,1,.417-.416,2.147,2.147,0,0,1,1.765,0,1.174,1.174,0,0,1,.417.415,1.049,1.049,0,0,1,.1.275,1.32,1.32,0,0,1,.025.218,1.305,1.305,0,0,1-.025.218,1.035,1.035,0,0,1-.1.276,1.161,1.161,0,0,1-.416.415,1.642,1.642,0,0,1-.883.191,2.064,2.064,0,0,1-.566-.067,1.417,1.417,0,0,1-.394-.173l-.274.249Zm1.232-.583-.267.241a1.13,1.13,0,0,0,.244.076,1.726,1.726,0,0,0,.33.029,1.186,1.186,0,0,0,.642-.136.631.631,0,0,0,.267-.3.409.409,0,0,0,.026-.094.54.54,0,0,0,.008-.092.525.525,0,0,0-.008-.091.388.388,0,0,0-.026-.094.627.627,0,0,0-.267-.3,1.58,1.58,0,0,0-1.284,0,.628.628,0,0,0-.266.3.389.389,0,0,0-.027.094.537.537,0,0,0-.008.091.419.419,0,0,0,.008.081.768.768,0,0,0,.023.09c.006.013.011.027.019.043a.348.348,0,0,0,.023.042l.259-.228Z" transform="translate(-365.937 -96.451)" fill="#fff"/>
        <path id="패스_20242" data-name="패스 20242" d="M367.54,312.509v.988a.555.555,0,0,1-.123.381.637.637,0,0,1-.265.181.819.819,0,0,1-.156.042,1.007,1.007,0,0,1-.133.012.782.782,0,0,1-.352-.078.43.43,0,0,1-.215-.224.031.031,0,0,0-.006.008.026.026,0,0,1,0,.009.411.411,0,0,1-.166.172,1,1,0,0,1-.427.06,3.286,3.286,0,0,0-.354.012.143.143,0,0,0-.121.075h-.059v-.452a1.487,1.487,0,0,1,.189-.03,2.629,2.629,0,0,1,.289-.013.95.95,0,0,0,.349-.046c.069-.032.1-.122.1-.272v-.421h-.929v-.4Zm-1.049.88a.323.323,0,0,0,.071.237.336.336,0,0,0,.25.078h.049a.277.277,0,0,0,.051-.009.3.3,0,0,0,.146-.077.26.26,0,0,0,.066-.2v-.508h-.633Z" transform="translate(-317.524 -271.744)" fill="#fff"/>
        <path id="패스_20243" data-name="패스 20243" d="M359.428,301.758a2.159,2.159,0,1,1-2.158,2.16,2.158,2.158,0,0,1,2.158-2.16m0,.461a1.7,1.7,0,1,0,1.7,1.7,1.7,1.7,0,0,0-1.7-1.7" transform="translate(-310.666 -262.395)" fill="#fff"/>
        <path id="패스_20244" data-name="패스 20244" d="M360.394,167.773v.5a.394.394,0,0,0-.085.009.382.382,0,0,0-.088.026.44.44,0,0,0-.179.153.587.587,0,0,0-.08.343c0,.012,0,.023,0,.036a.191.191,0,0,0,0,.037.72.72,0,0,0,.079.309.269.269,0,0,0,.26.14.219.219,0,0,0,.207-.112,1.208,1.208,0,0,0,.106-.291l.008-.026a.145.145,0,0,0,.007-.026l.07-.268a.013.013,0,0,1,0-.006s0,0,0,0a2.258,2.258,0,0,1,.207-.543.588.588,0,0,1,.568-.242.96.96,0,0,1,.146.012,1.016,1.016,0,0,1,.165.043.821.821,0,0,1,.347.276,1.013,1.013,0,0,1,.158.627.975.975,0,0,1-.172.628.861.861,0,0,1-.377.288.836.836,0,0,1-.161.044.736.736,0,0,1-.146.016l0-.5.074-.013a.331.331,0,0,0,.095-.034.376.376,0,0,0,.154-.144.584.584,0,0,0,.071-.321c0-.015,0-.029,0-.046s0-.03-.006-.045a.509.509,0,0,0-.088-.238.251.251,0,0,0-.222-.106.241.241,0,0,0-.171.054.555.555,0,0,0-.095.165.212.212,0,0,0-.011.044l-.155.611a1.413,1.413,0,0,1-.214.454.575.575,0,0,1-.5.2.761.761,0,0,1-.529-.163.929.929,0,0,1-.255-.357,1.172,1.172,0,0,1-.066-.268,1.611,1.611,0,0,1-.016-.194,1.17,1.17,0,0,1,.174-.71.851.851,0,0,1,.384-.3.737.737,0,0,1,.17-.042,1.012,1.012,0,0,1,.155-.013Z" transform="translate(-312.612 -145.888)" fill="#fff"/>
        <path id="패스_20245" data-name="패스 20245" d="M360.394,252.5v.5a.394.394,0,0,0-.085.009.383.383,0,0,0-.088.026.44.44,0,0,0-.179.153.587.587,0,0,0-.08.343c0,.012,0,.023,0,.036a.191.191,0,0,0,0,.037.72.72,0,0,0,.079.309.269.269,0,0,0,.26.14.219.219,0,0,0,.207-.112,1.208,1.208,0,0,0,.106-.291l.008-.026a.145.145,0,0,0,.007-.026l.07-.268a.013.013,0,0,1,0-.006s0,0,0,0a2.258,2.258,0,0,1,.207-.543.588.588,0,0,1,.568-.242.961.961,0,0,1,.146.012,1.014,1.014,0,0,1,.165.043.821.821,0,0,1,.347.276,1.013,1.013,0,0,1,.158.627.975.975,0,0,1-.172.628.861.861,0,0,1-.377.288.832.832,0,0,1-.161.044.736.736,0,0,1-.146.016l0-.5.074-.013a.33.33,0,0,0,.095-.034.376.376,0,0,0,.154-.144.584.584,0,0,0,.071-.321c0-.015,0-.029,0-.046s0-.03-.006-.045a.509.509,0,0,0-.088-.238.251.251,0,0,0-.222-.106.241.241,0,0,0-.171.054.555.555,0,0,0-.095.165.212.212,0,0,0-.011.044l-.155.611a1.413,1.413,0,0,1-.214.454.575.575,0,0,1-.5.2.762.762,0,0,1-.529-.163.929.929,0,0,1-.255-.357,1.172,1.172,0,0,1-.066-.268,1.611,1.611,0,0,1-.016-.194,1.17,1.17,0,0,1,.174-.71.851.851,0,0,1,.384-.3.737.737,0,0,1,.17-.042,1.012,1.012,0,0,1,.155-.013Z" transform="translate(-312.612 -219.563)" fill="#fff"/>
        <path id="패스_20246" data-name="패스 20246" d="M362.693,186.065v.555c-.679.148-1.132.244-1.358.29s-.406.077-.541.1l-.015,0-.015,0a.126.126,0,0,1-.025.006.176.176,0,0,1-.025,0v0h0a.037.037,0,0,1,.016,0h.011l.564.094c.239.04.7.122,1.383.249l0,.556q-.966.191-1.3.253l-.546.1h-.008l-.06.011a.52.52,0,0,1-.064.011v0c.006,0,.01,0,.012,0,.125.02.3.053.527.1s.7.145,1.436.3l0,.531-2.7-.7v-.5q.8-.158,1.164-.226t.655-.115a.051.051,0,0,0,.02,0,.049.049,0,0,0,.021-.007c.038,0,.077-.011.117-.019l.124-.019,0-.008c-.04-.006-.076-.012-.108-.015l-.1-.015c-.017,0-.034-.006-.05-.009s-.032,0-.046-.007q-.269-.042-.628-.11c-.239-.045-.63-.121-1.175-.229v-.483Z" transform="translate(-313.035 -161.794)" fill="#fff"/>
        <path id="패스_20247" data-name="패스 20247" d="M360.922,232.043a1.623,1.623,0,0,1,.876.192,1.171,1.171,0,0,1,.416.419,1,1,0,0,1,.1.279.988.988,0,0,1,0,.438,1.007,1.007,0,0,1-.1.28,1.166,1.166,0,0,1-.415.419,2.106,2.106,0,0,1-1.758,0,1.17,1.17,0,0,1-.414-.42,1.156,1.156,0,0,1-.093-.279,1.275,1.275,0,0,1-.025-.218,1.251,1.251,0,0,1,.025-.22,1.117,1.117,0,0,1,.092-.279,1.182,1.182,0,0,1,.414-.419,1.644,1.644,0,0,1,.88-.193Zm0,.482a1.18,1.18,0,0,0-.642.138.632.632,0,0,0-.266.3.5.5,0,0,0-.026.1.6.6,0,0,0-.007.092.624.624,0,0,0,.007.091.5.5,0,0,0,.026.1.649.649,0,0,0,.266.3,1.563,1.563,0,0,0,1.279,0,.662.662,0,0,0,.266-.3.431.431,0,0,0,.026-.1.638.638,0,0,0,.008-.092.626.626,0,0,0-.008-.093.43.43,0,0,0-.026-.095.645.645,0,0,0-.266-.3,1.171,1.171,0,0,0-.639-.138Z" transform="translate(-312.612 -201.774)" fill="#fff"/>
        <path id="패스_20248" data-name="패스 20248" d="M361.186,272.485h-1.212v-.523h2.7v.523h-1.025v.976h1.024v.522h-2.7v-.522h1.212Z" transform="translate(-313.017 -236.486)" fill="#fff"/>
        <path id="패스_20249" data-name="패스 20249" d="M360.922,212.068a1.623,1.623,0,0,1,.876.192,1.171,1.171,0,0,1,.416.419,1,1,0,0,1,.1.279.988.988,0,0,1,0,.438,1.007,1.007,0,0,1-.1.28,1.166,1.166,0,0,1-.415.42,2.106,2.106,0,0,1-1.758,0,1.17,1.17,0,0,1-.414-.42,1.156,1.156,0,0,1-.093-.279,1.276,1.276,0,0,1-.025-.218,1.251,1.251,0,0,1,.025-.22,1.117,1.117,0,0,1,.092-.279,1.182,1.182,0,0,1,.414-.419,1.644,1.644,0,0,1,.88-.193Zm0,.482a1.181,1.181,0,0,0-.642.138.632.632,0,0,0-.266.3.5.5,0,0,0-.026.1.6.6,0,0,0-.007.092.623.623,0,0,0,.007.091.5.5,0,0,0,.026.1.649.649,0,0,0,.266.3,1.564,1.564,0,0,0,1.279,0,.662.662,0,0,0,.266-.3.431.431,0,0,0,.026-.1.638.638,0,0,0,.008-.092.626.626,0,0,0-.008-.093.43.43,0,0,0-.026-.095.645.645,0,0,0-.266-.3,1.171,1.171,0,0,0-.639-.138Z" transform="translate(-312.612 -184.405)" fill="#fff"/>
      </g>
    </g>
  </g>
</svg>
