<svg id="구성_요소_55_2" data-name="구성 요소 55 – 2" xmlns="http://www.w3.org/2000/svg" width="127.925" height="108.244" viewBox="0 0 127.925 108.244">
  <path id="패스_19258" data-name="패스 19258" d="M2105.918,21.548l-64.03,108.244h127.925Zm0,12.067,47.043,81.1h-94.181Zm-35.393,92.234h-1.455l-3.834-4.444v4.444h-1.731v-6.934h1.588l3.7,4.238v-4.238h1.728Zm22.728,0h-1.726v-6.934h1.726Zm27.685,0-2.748-3.256v3.256h-1.73v-6.934h1.73v3.142h.022l2.186-3.142h1.9l-2.26,3.254,3.064,3.68Zm27.977,0H2143.8v-6.934h5.042v1.271h-3.312v1.455h3.163v1.269h-3.163v1.67h3.386Z" transform="translate(-2041.888 -21.548)" fill="#7058ff"/>
  <path id="패스_19259" data-name="패스 19259" d="M2192.42,674.858h-1.455l-3.834-4.444v4.444H2185.4v-6.934h1.588l3.7,4.238v-4.238h1.728Z" transform="translate(-2163.782 -570.557)" fill="#57d7ff"/>
  <rect id="사각형_5654" data-name="사각형 5654" width="1.726" height="6.934" transform="translate(49.64 97.367)" fill="#57d7ff"/>
  <path id="패스_19260" data-name="패스 19260" d="M2541.426,674.858l-2.748-3.256v3.256h-1.729v-6.934h1.729v3.142h.022l2.186-3.142h1.9l-2.26,3.254,3.065,3.68Z" transform="translate(-2462.375 -570.557)" fill="#57d7ff"/>
  <path id="패스_19261" data-name="패스 19261" d="M2723.552,674.858h-5.115v-6.934h5.041V669.2h-3.312v1.455h3.162v1.269h-3.162v1.67h3.385Z" transform="translate(-2616.525 -570.557)" fill="#57d7ff"/>
  <path id="패스_19262" data-name="패스 19262" d="M2277.73,453.463a5.241,5.241,0,0,1,0-10.481,5.538,5.538,0,0,1,4.6,2.564h8.877a13.812,13.812,0,0,0-27.38,2.568,13.857,13.857,0,0,0,13.8,13.907,14.014,14.014,0,0,0,13.693-11.553h-8.879a5.145,5.145,0,0,1-4.707,2.995" transform="translate(-2230.395 -372.139)" fill="#57d7ff"/>
  <path id="패스_19263" data-name="패스 19263" d="M2391.215,284.032V260.394h-8.341v1.07a14.393,14.393,0,0,0-5.563-1.176,13.745,13.745,0,1,0,9.519,23.744Zm-13.8-4.919a5.241,5.241,0,0,1,0-10.481,4.965,4.965,0,0,1,5.35,5.239,5.275,5.275,0,0,1-5.35,5.242" transform="translate(-2315.064 -224.325)" fill="#57d7ff"/>
  <path id="패스_19264" data-name="패스 19264" d="M2483.271,445.656v4.92h1.819a4.92,4.92,0,0,1-4.6,2.78,5.248,5.248,0,0,1-5.24-5.241,5.32,5.32,0,0,1,5.24-5.242,5.38,5.38,0,0,1,3.1,1.07l6.1-6.1a14.119,14.119,0,0,0-9.307-3.529,13.8,13.8,0,1,0,13.8,13.8v-2.459Z" transform="translate(-2402.611 -372.139)" fill="#57d7ff"/>
  <path id="패스_19265" data-name="패스 19265" d="M2426.278,315.682a5.242,5.242,0,1,0,5.35,5.239,4.965,4.965,0,0,0-5.35-5.239" transform="translate(-2363.924 -271.375)" fill="#ff675d"/>
  <path id="패스_19266" data-name="패스 19266" d="M2201.169,101.657l-47.137,81.1h94.179Zm-16.8,77.815a13.853,13.853,0,0,1,0-27.705A13.7,13.7,0,0,1,2197.951,163h-8.877a5.538,5.538,0,0,0-4.6-2.564,5.241,5.241,0,1,0,0,10.481,5.146,5.146,0,0,0,4.707-2.995h8.879a14.014,14.014,0,0,1-13.694,11.553m1.22-40.231a13.742,13.742,0,0,1,13.8-13.689,14.4,14.4,0,0,1,5.563,1.176v-1.07h8.341V149.3H2208.9a13.846,13.846,0,0,1-23.317-10.055m29.325,40.127a13.8,13.8,0,0,1,0-27.6,14.118,14.118,0,0,1,9.307,3.529l-6.1,6.1a5.379,5.379,0,0,0-3.1-1.07,5.321,5.321,0,0,0-5.241,5.243,5.248,5.248,0,0,0,5.241,5.241,4.921,4.921,0,0,0,4.6-2.78H2217.8v-4.92h10.911v2.459a13.768,13.768,0,0,1-13.8,13.8" transform="translate(-2137.139 -89.59)" fill="#ff675d"/>
</svg>
