<svg id="구성_요소_53_3" data-name="구성 요소 53 – 3" xmlns="http://www.w3.org/2000/svg" width="122.088" height="122.089" viewBox="0 0 122.088 122.089">
  <path id="패스_18987" data-name="패스 18987" d="M181.073,57.667a7.768,7.768,0,0,0-2.8-5.084,3.2,3.2,0,0,0-.282-.22c-3.479-2.546-8.143-3.248-13.392-2.924h0c.311-1.746.782-5.152,1.374-11.408a72.159,72.159,0,0,0-.219-11.855c-.665-6.006-2.918-9.01-4.756-10.493l-.171-.134a7.742,7.742,0,0,0-5.928-1.575c-4.26.672-8.052,3.462-11.531,7.405-.093.1-.094.1,0,0-.756-1.227-3.089-4.187-7.1-9.034a70.769,70.769,0,0,0-8.535-8.223c-4.86-3.9-8.662-4.352-11-4.041a7.742,7.742,0,0,0-5.3,3.083c-2.546,3.479-3.247,8.137-2.93,13.386-1.406-.323-5.146-.781-11.406-1.36a70.647,70.647,0,0,0-11.861.22c-6.184.671-9.194,3.046-10.622,4.914a7.734,7.734,0,0,0-1.575,5.933c.671,4.261,3.46,8.045,7.4,11.531l0,0c-1.242.772-4.28,3.15-9.035,7.1a71.261,71.261,0,0,0-8.228,8.541c-3.9,4.859-4.341,8.662-4.035,11a7.714,7.714,0,0,0,3.082,5.292c3.484,2.55,8.132,3.253,13.383,2.931-.318,1.413-.775,5.159-1.361,11.406a71.3,71.3,0,0,0,.22,11.855c.677,6.2,3.052,9.2,4.92,10.634a7.766,7.766,0,0,0,5.928,1.569c4.26-.666,8.062-3.46,11.535-7.4.764,1.222,3.089,4.182,7.1,9.033a71.188,71.188,0,0,0,8.54,8.223c4.86,3.9,8.662,4.346,10.994,4.035a7.71,7.71,0,0,0,5.3-3.077c2.54-3.486,3.248-8.143,2.918-13.387-.008-.138,0-.137.006,0,1.013.239,3.247.531,6.769.9,1.355.14,2.9.293,4.646.457a70.432,70.432,0,0,0,11.848-.219c6.2-.678,9.2-3.052,10.628-4.921a7.713,7.713,0,0,0,1.574-5.927c-.665-4.267-3.461-8.058-7.41-11.537-.011-.01-.005-.01.007,0,1.222-.763,4.188-3.09,9.035-7.094a72.8,72.8,0,0,0,8.229-8.546c3.895-4.853,4.34-8.663,4.029-10.995m-16.647,18.8c-1.475,3.69-4.794,6.619-5.334,7.239h0c-4.408-3.724-10.085-7.093-15.811-10.316L121.846,61.964a1.34,1.34,0,0,1-.189.3c-.049.055-.1.1-.153.159,3.571,3.565,16.421,16.421,17.312,17.374,5.366,5.762,10.2,11.769,9.181,16.586-.58,2.741-2.972,5.12-7.453,6.892-3.667,1.451-8.054,1.293-8.893,1.349h0c-.476-5.744-2.112-12.148-3.882-18.466l-7.082-23.24a2.066,2.066,0,0,1-.574.074c.011,5.042.005,23.234-.037,24.54-.28,7.875-1.11,15.53-5.237,18.215-2.344,1.533-5.646,1.35-10.14-.385-3.707-1.431-6.618-4.793-7.251-5.346,3.735-4.4,7.109-10.081,10.319-15.8l11.428-21.451a1.773,1.773,0,0,1-.318-.2,1.238,1.238,0,0,1-.14-.147c-3.559,3.571-16.427,16.439-17.374,17.33-5.774,5.372-11.775,10.2-16.592,9.181-2.741-.58-5.046-2.993-6.9-7.447-1.231-2.961-1.281-8.069-1.343-8.9C82.274,72.1,88.677,70.468,95,68.7l23.234-7.087a1.766,1.766,0,0,1-.086-.568c-5.049,0-23.215.012-24.516-.036-7.88-.281-15.541-1.111-18.228-5.238-1.526-2.344-1.492-5.7.391-10.139,1.553-3.659,4.793-6.619,5.34-7.25,4.4,3.735,10.084,7.1,15.81,10.322L118.36,60.11a2.31,2.31,0,0,1,.214-.33c.043-.049.1-.092.14-.134-3.584-3.577-16.415-16.4-17.3-17.355-5.371-5.763-10.2-11.77-9.181-16.586.574-2.741,3.075-4.861,7.442-6.9,3.395-1.584,8.076-1.295,8.9-1.343-.008-.136-.008-.137,0,0,.476,5.751,2.112,12.148,3.883,18.473l7.07,23.2a1.879,1.879,0,0,1,.586-.079c-.008-5.066-.013-23.191.036-24.491.274-7.881,1.111-15.536,5.231-18.222,2.35-1.526,5.7-1.488,10.14.39,3.564,1.508,6.618,4.789,7.248,5.339-3.722,4.407-7.1,10.09-10.315,15.8L121.046,59.281a1.746,1.746,0,0,1,.312.2,1.846,1.846,0,0,1,.158.165c3.578-3.59,16.391-16.409,17.344-17.3,5.775-5.365,11.769-10.194,16.592-9.175,2.735.567,5.2,2.925,6.9,7.435a28.692,28.692,0,0,1,1.348,8.906c.226-.014.227-.014,0,0-5.757.476-12.16,2.106-18.478,3.87l-23.21,7.082a1.834,1.834,0,0,1,.073.573c5.06-.006,23.209-.006,24.51.043,7.875.281,15.536,1.111,18.222,5.237,1.526,2.345,1.4,5.661-.391,10.146" transform="translate(-59.066 0.002)" fill="lime"/>
</svg>
