<svg id="구성_요소_59_2" data-name="구성 요소 59 – 2" xmlns="http://www.w3.org/2000/svg" xmlns:xlink="http://www.w3.org/1999/xlink" width="160.525" height="127.601" viewBox="0 0 160.525 127.601">
  <defs>
    <clipPath id="clip-path">
      <rect id="사각형_5673" data-name="사각형 5673" width="160.525" height="127.601" fill="none"/>
    </clipPath>
  </defs>
  <path id="패스_19644" data-name="패스 19644" d="M80.261,0,78.945,1.048,0,63.8l80.262,63.8,80.263-63.8Z" transform="translate(0)" fill="#e10033"/>
  <g id="그룹_11091" data-name="그룹 11091" transform="translate(0)">
    <g id="그룹_11090" data-name="그룹 11090" clip-path="url(#clip-path)">
      <path id="패스_19645" data-name="패스 19645" d="M101.01,19.645l-1.254,1L24.691,80.31l76.319,60.662L177.327,80.31ZM31.815,80.31c.314-.251,66.468-22.454,66.468-22.454L71.144,52.572l42.338-11.719-11.764,8.5,34.491,8.5-15.9,8.385S169.754,79.95,170.2,80.31l-69.194,55c-2.338-1.858-64.946-51.627-69.195-55" transform="translate(-20.749 -16.509)" fill="lime" fill-rule="evenodd"/>
      <path id="패스_19646" data-name="패스 19646" d="M383.469,391.574l-53.414,22.713c-5.791,2.458-14.887,5.249-18.689-.835-2.108-3.378-.771-8.631,2.35-13.433a68.732,68.732,0,0,1,7.1-8.679c-1.437,2.29-5.408,9.981-.184,13.8,2.041,1.487,5.624,1.665,10.07.469Z" transform="translate(-260.798 -328.862)" fill="#1226cb"/>
    </g>
  </g>
</svg>
