<svg id="구성_요소_4_1" data-name="구성 요소 4 – 1" xmlns="http://www.w3.org/2000/svg" xmlns:xlink="http://www.w3.org/1999/xlink" width="188" height="188" viewBox="0 0 188 188">
  <defs>
    <clipPath id="clip-path">
      <rect id="사각형_2" data-name="사각형 2" width="119.489" height="84.462" transform="translate(0 0)" fill="none"/>
    </clipPath>
  </defs>
  <rect id="사각형_1" data-name="사각형 1" width="188" height="188" fill="none"/>
  <g id="그룹_2" data-name="그룹 2" transform="translate(34 52)">
    <g id="그룹_1" data-name="그룹 1" clip-path="url(#clip-path)">
      <path id="패스_1" data-name="패스 1" d="M52.822.634C51.656,5,42.785,38.036,42.785,38.036c-.1.286-.245.3-.311.3,0,0-5.161.026-6.489.026-.182.005-.365,0-.352-.634.017-2.878-.013-16.978-.015-17.013-.022-.867-.142-.816-.6-.82-.765.008-.7.183-.867.833L29.461,38.092c-.088.319-.219.3-.292.307,0,0-5.085.016-6.353.025-.144-.009-.291-.038-.153-.528C23.958,33.07,32.642.6,32.642.6c.031-.174.12-.3.288-.3,0,0,5.531-.025,7.118-.029.268-.009.445.068.426.574-.062,2.67-.334,15.393-.332,15.456,0,.608-.029.774.6.774.7-.008.611-.046.859-.778L45.918.549c.043-.226.171-.3.405-.31C50.9.221,50.788.226,52.433.213c.265,0,.459.072.389.421M11,80.376c-.381,0-.35.136-.35.136l.007,2.173c.005.537-.028,1.162-.934,1.17s-.949-.627-.953-1.162l-.009-2.177s.016-.127-.345-.131c-.34,0-.352.136-.352.136l.012,2.4a1.449,1.449,0,0,0,1.653,1.542,1.458,1.458,0,0,0,1.638-1.56l-.015-2.394s-.017-.132-.352-.132m1.158,3.985h.015a.383.383,0,0,0,.372-.391.367.367,0,0,0-.37-.368l-.021,0a.371.371,0,0,0-.385.374.382.382,0,0,0,.389.388m5.6-.023.013.006a.394.394,0,0,0,.369-.4.356.356,0,0,0-.374-.36h-.008a.372.372,0,0,0-.393.363.4.4,0,0,0,.393.391m1.365-.365c-.127.327.033.362.225.362.3,0,.355.022.5-.362l.117-.345c.17-.328.23-.365.519-.365h.82c.326-.008.374.037.523.362l.12.335c.136.4.166.361.506.361.28,0,.356-.032.244-.361l-1.29-3.3c-.167-.367-.309-.357-.518-.357s-.341.015-.5.357l-1.256,3.311m1.273-1.61c-.109.4.057.364.264.361l.453,0c.221,0,.361-.015.257-.36l-.355-1.014c-.064-.2-.195-.195-.275.006l-.344,1m3.1,1.563a.4.4,0,0,1,.4-.378h0a.4.4,0,0,1,.4.375.413.413,0,0,1-.4.4h0a.414.414,0,0,1-.4-.393m-7.4-1.772c-.208-.067-1.11-.285-1.156-.311-.3-.081-.485-.231-.483-.511,0-.416.4-.535.729-.54a.776.776,0,0,1,.855.588c0,.128.165.121.34.121.43,0,.37-.121.37-.121A1.389,1.389,0,0,0,15.2,80.231c-.714,0-1.454.374-1.449,1.186a1,1,0,0,0,.891,1.008c.554.158.925.234,1.2.332a.485.485,0,0,1,.331.5c-.007.3-.219.618-.841.621-.515,0-.936-.2-1.01-.719,0,0,.036-.145-.355-.14-.37,0-.354.14-.354.14a1.481,1.481,0,0,0,1.684,1.285c.8-.006,1.6-.361,1.6-1.269a1.068,1.068,0,0,0-.791-1.019M64.318.167,58.161.192c-.071,0-.251.131-.315.306,0,0-8.483,31.608-9.949,37.075-.1.379.011.745.233.736,1.518,0,6.295-.021,6.295-.021a.458.458,0,0,0,.305-.306S63.591,4.967,64.767.587c.058-.208-.143-.425-.449-.42M88.661.826c.383-.664.111-.761-.207-.757-1.765,0-5.4.021-5.4.021a.763.763,0,0,0-.622.361l-6.96,10.211c-.263.467-.6.408-1.045.408-.358.008-.494-.06-.482-.355a5.211,5.211,0,0,1,.156-.777S75.922,3.59,76.64,1.051c.151-.642.287-.936-.443-.936-1.621.009-1.048,0-5.4.026-.819,0-.882.357-.925.536,0,0-8.329,31.088-9.838,36.773-.107.416-.007.821.254.816,1.536-.008,6.2-.026,6.2-.026a.458.458,0,0,0,.313-.31l4.051-15.354c.141-.532.264-.545.823-.549s.669.183.7.77l.911,14.78c0-.008.016.651.487.63,1.154-.005,4.546-.013,5.639-.017.156-.009.544.022.463-.549-.306-3.486-1.819-20.181-1.827-20.194a1.925,1.925,0,0,1,.457-1.764L88.661.826M104.859,0,92.086.047c-.459.018-.613.166-.72.625-.208.784-7.267,27.788-9.44,36.14-.259.965-.271,1.374.9,1.374l14.12-.022.3-.285s1.114-4.689,1.353-5.63c.087-.4.089-.727-.465-.727-1.961.01-7.465.034-7.465.034-.7-.016-.729-.281-.69-.421l2.56-9.457c.19-.679.3-.777.986-.777l5.988-.056a.6.6,0,0,0,.618-.506l1.213-4.64a.443.443,0,0,0-.467-.543c-1.445,0-5.961.055-5.961.055-.392,0-.463-.5-.412-.652l2.045-7.73c.168-.688.307-.8.991-.8l5.893,0c.382,0,.561-.149.592-.3,0,0,1.024-3.818,1.415-5.243.069-.348.012-.484-.586-.481m-.944,19.267.13.128.441,0,.143-.119-.03-3.2.141-.115,1.11,0,.14-.123,0-.341-.141-.132-3.248.035-.141.11.005.337.136.127h1.165l.111.114.034,3.185M111,16.159l-.08,0-1.365,3.078-.2.131h-.135l-.187-.119-1.4-3.065h-.08l.006,3.07-.125.132-.437,0-.129-.123-.034-3.784.145-.112.787-.007.187.106,1.292,2.848.1,0,1.249-2.87.2-.119.772-.005.139.133.014,3.758-.136.124-.445.008-.116-.119L111,16.159M49.754,70.7c-2.865.024-3.305,2.052-3.363,2.3l-.2.771a2.7,2.7,0,0,0,.317,2.1l2.009,3.45a1.136,1.136,0,0,1,.115.811l-.217.872a1.451,1.451,0,0,1-1.469,1.258c-.849.006-.962-.664-.811-1.293l.359-1.332c.044-.195-.384-.224-.8-.227s-.841.013-.884.224l-.387,1.3c-.206,1.009-.4,2.6,2.276,2.573,2.86-.026,3.3-2.049,3.366-2.286l.194-.788a2.678,2.678,0,0,0-.316-2.105l-2-3.46a1.091,1.091,0,0,1-.124-.8l.222-.872a1.494,1.494,0,0,1,1.525-1.23c.848-.008.908.631.754,1.264l-.366,1.322c-.039.2.391.234.8.234.432.017.85-.009.885-.213l.391-1.313c.205-1.012.4-2.594-2.275-2.572m7.613.024s-2.144-.018-2.56.031-.771-.019-.983.723L50.7,83.165c-.1.363,1.591.252,1.722-.076l1.192-4.219c.071-.2.276-.182.386-.182,2.1-.016,4,.654,5.035-4.49.156-.783.756-3.5-1.67-3.475m-.579,1.3c.969,0,.916.868.59,2.208-.59,2.456-.752,3.065-2.431,3.074-1.044,0-.875-.25-.868-.348L55.2,72.369c.108-.332.273-.339.445-.332l1.14-.017m9.588,4.916c1.416-5.443,1.152-6.55-1.794-6.513-3.1.026-3.462.348-5.076,6.585-1.409,5.44-1.149,6.54,1.8,6.515,3.133-.024,3.46-.35,5.072-6.587m-4.752,5.392c-1.792.029-1.445-1.123-.4-5.354,1.331-5.085,1.568-5.312,3.109-5.331,1.759-.018,1.368,1.117.324,5.331-1.337,5.077-1.5,5.333-3.036,5.354m6.4.574,1.1-3.947.073-.267c.077-.2.277-.169.391-.179l.591-.055.2.068.653,4.472c.1.394,1.773.3,1.765-.006l-.779-4.717.047-.071c.632-.222,1.537-.134,2.565-4.186.2-.778.758-3.494-1.668-3.474h-.008s-1.794-.02-2.565.022a.938.938,0,0,0-.977.726s-2.777,10.4-3.1,11.588c-.084.337,1.609.422,1.7.026m4.367-11.017c.972-.005.917.854.594,2.2-.592,2.454-.76,3.067-2.439,3.071-1.04,0-.874-.242-.864-.345l1.125-4.584c.1-.331.273-.339.445-.335l1.139,0m30.546,10.7c.153-.281,5.835-12.042,5.835-12.042.187-.475,2.008-.422,1.991-.022l-1.236,12.114c0,.242-1.666.3-1.675-.007l.3-2.311c.017-.075.072-.262-.259-.259l-1.594.013a.608.608,0,0,0-.6.357s-.94,1.986-1.064,2.225c-.144.29-1.869.319-1.7-.068m5.443-4.308s.582-3.19.727-4.683l-.154-.042c-.709,1.485-2.282,4.843-2.282,4.843-.09.179.084.208.157.213l1.161-.012a.385.385,0,0,0,.391-.319m4.261,4.278,1.142-4.015.069-.263c.073-.2.277-.174.389-.187l.595-.055.205.071.655,4.479c.069.3,1.813.186,1.756-.049l-.774-4.68.045-.077c.625-.216,1.533-.129,2.562-4.185.2-.767.765-3.494-1.67-3.468l-.008,0s-1.921-.039-2.56.029a.927.927,0,0,0-.981.728s-2.807,10.456-3.126,11.642c-.085.341,1.607.426,1.7.035m4.4-11.091c.974,0,.915.858.594,2.2-.585,2.456-.757,3.062-2.433,3.072-1.044,0-.873-.249-.87-.353l1.133-4.576c.1-.332.267-.338.433-.335l1.143-.01m-17.087,6.18a.482.482,0,0,1,.457-.341l2.666-.026c.2,0,.268-.28.366-.616.111-.392.2-.852-.124-.842l-2.657.021-.145-.068-.034-.141.964-3.538a.407.407,0,0,1,.466-.343l2.69-.026c.213,0,.355-.3.426-.664.086-.374.094-.8-.179-.8,0,0-3.485.023-3.847.036-.412.025-.711-.013-.823.335L97.014,82.12c-.175.726-.153.826.706.845l4.025-.039c.371,0,.422-.288.495-.651s.142-.814-.209-.806l-2.9.026-.148-.047-.025-.158,1-3.643m-1.7-7.327c-.425-.021-.846-.031-1.046.34,0,0-1.951,5.077-2.883,7.322h-.157c.238-1.93.85-7.266.846-7.3-.061-.423-1.465-.52-1.74.033,0,0-2.271,5.37-3.116,7.263l-.128-.055c.345-2.245,1.042-7.186,1.042-7.186-.038-.276-.437-.323-.858-.362-.443-.034-.864.11-.9.32L87.94,82.8c-.009.238,1.283.28,1.414.063,0,0,2.951-6.169,3.807-7.977l.219.029c-.149,2.059-1.24,6.948-1.276,7.856.033.27,1.465.28,1.593,0l5.272-12.1c.056-.192-.237-.331-.714-.343m-12.9.051c-2.86.029-3.3,2.045-3.362,2.291l-.2.783a2.692,2.692,0,0,0,.312,2.1L84.112,79a1.116,1.116,0,0,1,.113.807l-.216.868a1.444,1.444,0,0,1-1.471,1.259c-.845.008-.961-.655-.814-1.294l.368-1.325c.039-.191-.382-.23-.8-.23s-.843.013-.889.221l-.382,1.306c-.208,1.01-.4,2.6,2.275,2.568,2.865-.021,3.3-2.046,3.36-2.288l.2-.783A2.692,2.692,0,0,0,85.541,78l-2-3.458a1.085,1.085,0,0,1-.112-.8l.215-.872a1.491,1.491,0,0,1,1.525-1.225c.847-.013.9.625.749,1.264l-.353,1.321c-.048.2.383.231.8.234s.837-.008.888-.216l.383-1.314c.208-1.007.4-2.594-2.277-2.568m-5.607,1.587,1.264-.01c.191.01.343-.29.462-.616.139-.4.189-.856-.2-.843l-5.052.048c-.239,0-.429.416-.47.808-.036.324.038.65.242.645l1.438-.016c.189,0,.227.038.173.208L74.68,82.859c-.136.392,1.591.461,1.671.119L79.279,72.3c.1-.332.185-.343.466-.343m-41.6-17.379c-8.265,2.468-14.9,4.732-18.82,2.082-8.557-5.8-4.6-19.662-2-25.127l-.029-.335L17,31.22C13.27,35.578,8.891,40.188,5.82,45.182-.356,55.258-1.7,64.716,2.184,70.449c5.681,8.455,17.569,8.634,35.3.5l80.424-39.64.154-.29a.21.21,0,0,0-.261-.178L38.141,54.579m-19.647-5.13-.119-.114-1.163,0-.134-.127,0-.335.143-.121,3.244-.026.14.129V49.2l-.136.129-1.118.006-.138.11.032,3.194-.143.129-.44,0-.136-.132-.028-3.186M25.64,52.6l.11.12H26.2l.135-.132-.022-3.759L26.18,48.7l-.77.007-.2.114-1.243,2.87-.107-.005-1.3-2.852-.179-.1-.791.005-.144.114.033,3.789.127.121h.443l.124-.126-.013-3.074h.088l1.4,3.053.189.127.134,0,.195-.124,1.368-3.083.078,0,.03,3.073" fill="#cd4239"/>
    </g>
  </g>
</svg>
