<svg xmlns="http://www.w3.org/2000/svg" xmlns:xlink="http://www.w3.org/1999/xlink" width="129.014" height="111.824" viewBox="0 0 129.014 111.824">
  <defs>
    <clipPath id="clip-path">
      <path id="패스_3" data-name="패스 3" d="M16.923,7.277,24.35,27.694h5.2L22.121,7.277Z" fill="none"/>
    </clipPath>
    <linearGradient id="linear-gradient" x1="-1.34" y1="5.121" x2="-1.261" y2="5.121" gradientUnits="objectBoundingBox">
      <stop offset="0" stop-color="#fff"/>
      <stop offset="1" stop-color="#bcc0c3"/>
    </linearGradient>
    <clipPath id="clip-path-2">
      <path id="패스_5" data-name="패스 5" d="M34.751,7.277,32.52,13.408,30.289,7.277l-2.7,6.868L32.52,27.694,39.948,7.277Z" fill="none"/>
    </clipPath>
    <linearGradient id="linear-gradient-2" x1="-2.232" y1="5.121" x2="-2.151" y2="5.121" xlink:href="#linear-gradient"/>
    <clipPath id="clip-path-3">
      <path id="패스_7" data-name="패스 7" d="M89.625,22.492V7.277h-5.2V27.694H95.332v-5.2Z" fill="none"/>
    </clipPath>
    <linearGradient id="linear-gradient-3" x1="-7.74" y1="5.121" x2="-7.648" y2="5.121" xlink:href="#linear-gradient"/>
    <clipPath id="clip-path-4">
      <path id="패스_9" data-name="패스 9" d="M47.47,7.277h-5.2l5.543,15.215H41.928l2.744-7.535H39.478L34.84,27.694H54.9Z" fill="none"/>
    </clipPath>
    <linearGradient id="linear-gradient-4" x1="-1.737" y1="5.121" x2="-1.687" y2="5.121" xlink:href="#linear-gradient"/>
    <clipPath id="clip-path-5">
      <path id="패스_11" data-name="패스 11" d="M60.88,27.694V20.155h8.161v-5.2H55.677V27.694Z" fill="none"/>
    </clipPath>
    <linearGradient id="linear-gradient-5" x1="-4.166" y1="7.605" x2="-4.091" y2="7.605" xlink:href="#linear-gradient"/>
    <clipPath id="clip-path-6">
      <path id="패스_13" data-name="패스 13" d="M69.041,7.277H55.677v5.2H69.041Z" fill="none"/>
    </clipPath>
    <linearGradient id="linear-gradient-6" x1="-4.166" y1="20.101" x2="-4.091" y2="20.101" xlink:href="#linear-gradient"/>
    <clipPath id="clip-path-7">
      <path id="패스_15" data-name="패스 15" d="M75.084,27.694V20.155h8.16v-5.2H69.887V27.694Z" fill="none"/>
    </clipPath>
    <linearGradient id="linear-gradient-7" x1="-5.232" y1="7.605" x2="-5.157" y2="7.605" xlink:href="#linear-gradient"/>
    <clipPath id="clip-path-8">
      <path id="패스_17" data-name="패스 17" d="M83.244,7.277H69.887v5.2H83.244Z" fill="none"/>
    </clipPath>
    <linearGradient id="linear-gradient-8" x1="-5.232" y1="20.101" x2="-5.157" y2="20.101" xlink:href="#linear-gradient"/>
    <clipPath id="clip-path-9">
      <path id="패스_19" data-name="패스 19" d="M98.71,27.694h8.535l1.895-5.2h-7.682V20.155h8.534l1.848-5.2H96.258V27.694Z" fill="none"/>
    </clipPath>
    <linearGradient id="linear-gradient-9" x1="-6.178" y1="7.605" x2="-6.113" y2="7.605" xlink:href="#linear-gradient"/>
    <clipPath id="clip-path-10">
      <path id="패스_21" data-name="패스 21" d="M114.677,7.277H96.258v5.2h16.529Z" fill="none"/>
    </clipPath>
    <linearGradient id="linear-gradient-10" x1="-5.226" y1="20.101" x2="-5.172" y2="20.101" xlink:href="#linear-gradient"/>
    <clipPath id="clip-path-11">
      <rect id="사각형_15" data-name="사각형 15" width="129.014" height="111.824" transform="translate(0 0)" fill="none"/>
    </clipPath>
  </defs>
  <g id="그룹_26" data-name="그룹 26" transform="translate(0 0)">
    <path id="패스_2" data-name="패스 2" d="M129.014,0,64.507.094,0,.189,32.335,56.007,64.67,111.824,96.842,55.912Z" fill="#262425"/>
    <g id="그룹_5" data-name="그룹 5">
      <g id="그룹_4" data-name="그룹 4" clip-path="url(#clip-path)">
        <rect id="사각형_5" data-name="사각형 5" width="12.628" height="20.417" transform="translate(16.923 7.277)" fill="url(#linear-gradient)"/>
      </g>
    </g>
    <path id="패스_4" data-name="패스 4" d="M16.923,7.277l7.428,20.417h5.2L22.122,7.277Z" fill="none"/>
    <g id="그룹_7" data-name="그룹 7">
      <g id="그룹_6" data-name="그룹 6" clip-path="url(#clip-path-2)">
        <rect id="사각형_6" data-name="사각형 6" width="12.36" height="20.417" transform="translate(27.588 7.277)" fill="url(#linear-gradient-2)"/>
      </g>
    </g>
    <path id="패스_6" data-name="패스 6" d="M34.751,7.277,32.52,13.408,30.289,7.277l-2.7,6.868L32.52,27.694,39.948,7.277Z" fill="none"/>
    <g id="그룹_9" data-name="그룹 9">
      <g id="그룹_8" data-name="그룹 8" clip-path="url(#clip-path-3)">
        <rect id="사각형_7" data-name="사각형 7" width="10.908" height="20.417" transform="translate(84.424 7.277)" fill="url(#linear-gradient-3)"/>
      </g>
    </g>
    <path id="패스_8" data-name="패스 8" d="M89.624,22.492V7.277h-5.2V27.693H95.332v-5.2Z" fill="none"/>
    <g id="그룹_11" data-name="그룹 11">
      <g id="그룹_10" data-name="그룹 10" clip-path="url(#clip-path-4)">
        <rect id="사각형_8" data-name="사각형 8" width="20.058" height="20.417" transform="translate(34.84 7.277)" fill="url(#linear-gradient-4)"/>
      </g>
    </g>
    <path id="패스_10" data-name="패스 10" d="M47.47,7.277h-5.2l5.542,15.215H41.927l2.745-7.535H39.477L34.84,27.694H54.9Z" fill="none"/>
    <g id="그룹_13" data-name="그룹 13">
      <g id="그룹_12" data-name="그룹 12" clip-path="url(#clip-path-5)">
        <rect id="사각형_9" data-name="사각형 9" width="13.364" height="12.737" transform="translate(55.677 14.957)" fill="url(#linear-gradient-5)"/>
      </g>
    </g>
    <path id="패스_12" data-name="패스 12" d="M60.88,27.694V20.155h8.161v-5.2H55.677V27.694Z" fill="none"/>
    <g id="그룹_15" data-name="그룹 15">
      <g id="그룹_14" data-name="그룹 14" clip-path="url(#clip-path-6)">
        <rect id="사각형_10" data-name="사각형 10" width="13.364" height="5.201" transform="translate(55.677 7.277)" fill="url(#linear-gradient-6)"/>
      </g>
    </g>
    <path id="패스_14" data-name="패스 14" d="M69.041,7.277H55.677v5.2H69.041Z" fill="none"/>
    <g id="그룹_17" data-name="그룹 17">
      <g id="그룹_16" data-name="그룹 16" clip-path="url(#clip-path-7)">
        <rect id="사각형_11" data-name="사각형 11" width="13.357" height="12.737" transform="translate(69.887 14.957)" fill="url(#linear-gradient-7)"/>
      </g>
    </g>
    <path id="패스_16" data-name="패스 16" d="M75.084,27.694V20.155h8.16v-5.2H69.887V27.694Z" fill="none"/>
    <g id="그룹_19" data-name="그룹 19">
      <g id="그룹_18" data-name="그룹 18" clip-path="url(#clip-path-8)">
        <rect id="사각형_12" data-name="사각형 12" width="13.357" height="5.201" transform="translate(69.887 7.277)" fill="url(#linear-gradient-8)"/>
      </g>
    </g>
    <path id="패스_18" data-name="패스 18" d="M83.244,7.277H69.887v5.2H83.244Z" fill="none"/>
    <g id="그룹_21" data-name="그룹 21">
      <g id="그룹_20" data-name="그룹 20" clip-path="url(#clip-path-9)">
        <rect id="사각형_13" data-name="사각형 13" width="15.582" height="12.737" transform="translate(96.258 14.957)" fill="url(#linear-gradient-9)"/>
      </g>
    </g>
    <path id="패스_20" data-name="패스 20" d="M98.711,27.694h8.535l1.894-5.2h-7.682V20.155h8.534l1.849-5.2H96.258V27.694Z" fill="none"/>
    <g id="그룹_23" data-name="그룹 23">
      <g id="그룹_22" data-name="그룹 22" clip-path="url(#clip-path-10)">
        <rect id="사각형_14" data-name="사각형 14" width="18.419" height="5.201" transform="translate(96.258 7.277)" fill="url(#linear-gradient-10)"/>
      </g>
    </g>
    <path id="패스_22" data-name="패스 22" d="M114.677,7.277H96.258v5.2h16.528Z" fill="none"/>
    <g id="그룹_25" data-name="그룹 25">
      <g id="그룹_24" data-name="그룹 24" clip-path="url(#clip-path-11)">
        <path id="패스_23" data-name="패스 23" d="M19.509,5.786C17.436,7.27,17.36,7.538,18.416,9.863c-1.486-2.076-1.755-2.147-4.079-1.1,2.076-1.478,2.15-1.756,1.09-4.076,1.485,2.076,1.76,2.148,4.082,1.094" fill="#fff"/>
        <path id="패스_24" data-name="패스 24" d="M44.856,5.786c-2.077,1.484-2.148,1.752-1.093,4.081-1.481-2.08-1.755-2.151-4.076-1.1,2.077-1.478,2.149-1.756,1.091-4.076,1.482,2.076,1.757,2.148,4.078,1.094" fill="#fff"/>
        <path id="패스_25" data-name="패스 25" d="M37.334,5.786c-2.076,1.484-2.147,1.752-1.092,4.081-1.48-2.08-1.756-2.151-4.076-1.1,2.078-1.478,2.15-1.756,1.09-4.076,1.483,2.076,1.758,2.148,4.078,1.094" fill="#fff"/>
        <path id="패스_26" data-name="패스 26" d="M58.263,5.786c-2.071,1.484-2.144,1.752-1.09,4.081-1.483-2.08-1.756-2.151-4.077-1.1,2.075-1.478,2.148-1.756,1.091-4.076,1.482,2.076,1.757,2.148,4.076,1.094" fill="#fff"/>
        <path id="패스_27" data-name="패스 27" d="M72.468,5.786c-2.076,1.484-2.147,1.752-1.1,4.081-1.48-2.08-1.751-2.151-4.076-1.1,2.077-1.478,2.147-1.756,1.092-4.076,1.484,2.076,1.76,2.148,4.08,1.094" fill="#fff"/>
        <path id="패스_28" data-name="패스 28" d="M87.014,5.786c-2.077,1.484-2.151,1.752-1.1,4.081-1.481-2.08-1.754-2.151-4.079-1.1,2.075-1.478,2.151-1.756,1.094-4.076,1.483,2.076,1.755,2.148,4.081,1.094" fill="#fff"/>
        <path id="패스_29" data-name="패스 29" d="M98.843,5.786C96.768,7.27,96.7,7.538,97.753,9.867,96.27,7.787,96,7.716,93.675,8.768c2.074-1.478,2.145-1.756,1.091-4.076,1.482,2.076,1.752,2.148,4.077,1.094" fill="#fff"/>
        <path id="패스_30" data-name="패스 30" d="M22.669,8.759c-.613.442-.634.522-.323,1.213-.438-.618-.519-.64-1.209-.329.615-.438.637-.517.325-1.207.437.614.523.635,1.207.323" fill="#fff"/>
        <path id="패스_31" data-name="패스 31" d="M21.706,13.884c-.615.439-.636.518-.325,1.2-.438-.615-.517-.631-1.208-.32.615-.442.636-.522.324-1.208.439.615.517.636,1.209.323" fill="#fff"/>
        <path id="패스_32" data-name="패스 32" d="M40.859,17.288c-.616.437-.637.521-.324,1.208-.438-.615-.52-.636-1.21-.326.614-.438.636-.516.325-1.2.438.615.517.633,1.209.322" fill="#fff"/>
        <path id="패스_33" data-name="패스 33" d="M45.824,9.5c-.616.438-.636.518-.325,1.207-.438-.613-.518-.633-1.209-.323.615-.438.64-.518.324-1.208.438.615.518.635,1.21.324" fill="#fff"/>
        <path id="패스_34" data-name="패스 34" d="M51.732,18.226c-.616.442-.636.528-.32,1.214-.443-.615-.526-.64-1.213-.324.615-.443.641-.522.326-1.213.437.618.516.64,1.207.323" fill="#fff"/>
        <path id="패스_35" data-name="패스 35" d="M57.935,16.125c-.61.438-.637.522-.323,1.208-.439-.618-.52-.634-1.21-.324.615-.437.64-.522.325-1.208.44.615.521.635,1.208.324" fill="#fff"/>
        <path id="패스_36" data-name="패스 36" d="M67.511,18.218c-.619.437-.636.517-.323,1.209-.444-.616-.523-.636-1.21-.326.616-.437.636-.517.325-1.207.438.615.521.636,1.208.324" fill="#fff"/>
        <path id="패스_37" data-name="패스 37" d="M30.01,15.489c-.619.438-.64.518-.328,1.21-.439-.616-.517-.642-1.209-.327.62-.44.636-.521.324-1.207.443.615.523.636,1.213.324" fill="#fff"/>
        <path id="패스_38" data-name="패스 38" d="M34.386,11.758c-.615.437-.636.518-.324,1.209-.439-.616-.523-.641-1.21-.324.615-.439.636-.519.327-1.208.437.614.522.635,1.207.323" fill="#fff"/>
        <path id="패스_39" data-name="패스 39" d="M67.852,11.27c-.615.442-.636.521-.323,1.207-.439-.614-.523-.636-1.21-.323.615-.438.635-.518.325-1.2.438.614.517.631,1.208.32" fill="#fff"/>
        <path id="패스_40" data-name="패스 40" d="M74.316,10.007c-.62.437-.638.522-.329,1.208-.437-.616-.517-.637-1.207-.324.617-.438.634-.522.328-1.209.438.614.517.635,1.208.325" fill="#fff"/>
        <path id="패스_41" data-name="패스 41" d="M59.292,7.967c-.62.438-.637.522-.329,1.21-.439-.617-.518-.636-1.21-.325.619-.437.637-.522.33-1.208.437.615.521.636,1.209.323" fill="#fff"/>
        <path id="패스_42" data-name="패스 42" d="M80.074,17.03c-.615.438-.636.522-.32,1.212-.442-.618-.523-.64-1.209-.324.61-.441.637-.527.321-1.213.44.615.522.641,1.208.325" fill="#fff"/>
        <path id="패스_43" data-name="패스 43" d="M89.7,7.744c-.616.443-.637.524-.321,1.21-.44-.615-.524-.636-1.212-.325.619-.438.642-.522.328-1.208.437.614.518.636,1.205.323" fill="#fff"/>
        <path id="패스_44" data-name="패스 44" d="M97.925,19.1c-.615.442-.636.523-.324,1.213-.438-.614-.517-.641-1.2-.324.617-.439.638-.522.321-1.213.441.614.523.64,1.208.324" fill="#fff"/>
        <path id="패스_45" data-name="패스 45" d="M85.868,17.111c-.615.439-.636.522-.323,1.208-.438-.615-.518-.636-1.21-.325.614-.438.641-.517.326-1.208.438.615.519.64,1.207.325" fill="#fff"/>
        <path id="패스_46" data-name="패스 46" d="M104.171,17.214c-.62.44-.636.518-.33,1.21-.438-.619-.521-.636-1.209-.329.619-.437.642-.517.329-1.208.439.619.518.635,1.21.327" fill="#fff"/>
        <path id="패스_47" data-name="패스 47" d="M100.968,8.386c-.609.441-.636.522-.318,1.207-.443-.614-.522-.635-1.208-.325.615-.437.634-.516.323-1.207.438.618.518.635,1.2.325" fill="#fff"/>
        <path id="패스_48" data-name="패스 48" d="M111.158,11.353c-.615.442-.636.523-.326,1.213-.438-.615-.517-.641-1.207-.324.614-.442.635-.523.325-1.213.438.615.516.641,1.208.324" fill="#fff"/>
        <path id="패스_49" data-name="패스 49" d="M89.264,11.14c-.615.437-.642.518-.325,1.208-.439-.615-.52-.636-1.209-.324.616-.438.636-.518.324-1.21.438.616.517.637,1.21.326" fill="#fff"/>
        <path id="패스_50" data-name="패스 50" d="M104.521,32.086l-1.82,2.589-2.644-2.842.189-.733-.06-.063H105a1.266,1.266,0,0,0,.11-.382,9.89,9.89,0,0,0-2.637-.287H27.79a12.118,12.118,0,0,0-2.118.164,2.1,2.1,0,0,0-.388.505h4.9l-.112.118.18.678-2.648,2.842-2.124-3.032v-.164l-.244-.345c-.249.581-.025,1.234.557,2.514-.758-1.062-1.206-1.592-1.771-1.722a2.06,2.06,0,0,0,.279.64l38.71,63.5c1.164,1.872,3.067,1.872,4.229,0l38.71-63.5a1.982,1.982,0,0,0,.192-.433,1.624,1.624,0,0,0-1.623-.047M92.063,31.037h5.623l2.926,2.939.142.119-.356.58H93.966L91.82,31.643l.285-.543Zm-8.8,0h5.894l2.12,2.906.136.152-.262.58H84.714l-1.608-3.032.2-.522ZM71.035,69.944v1.112H59.346V69.944l.038-.708H59.3l.408-6.872h.042v-.012H70.636v.012h.031l.4,6.872H71ZM50.151,36.668,48.809,40.9H41.292l-.24-.921.636-1.007,1.768-3.259h6.637l-.059.19ZM46.77,41.586h6.9L53.6,41.9l.091.987-.721,3.722H45.554l-.2-1.264.529-1.247Zm26.435.274.693,4.452H56.453l.695-4.452ZM61.341,39.974l.089-.838.309-3.428h6.893l.232,2.544.18,1.722L69,40.9H61.38Zm9.73-4.266h6.5l.824,3.7.148.561-.13.921H71.65l-.615-4.227.051-.83ZM69.715,52.263l-.047,1.717H60.715l-.042-1.717.066-1.164.186-3.941h8.518l.116,2.442Zm-10.444-15.6L58.659,40.9H51.9l-.129-.921.518-1.946.518-2.32h6.5l-.059.429Zm-8.908,10.49h7.852l-.058.745.038,1.023-.4,5.054h-8.38l-.161-1.717.594-2.523Zm5.147,7.58,8.667-.038.084,5.437h-.094l.013,1.81H54.714l-.106-1.81.758-4.46Zm10.62,7.209.011-1.81h-.028L66.2,54.7l8.662.038.615,4.051.228,1.348-.107,1.81Zm6.381-7.967-.4-5.054.058-1.57-.012-.2h7.854l.88,4.4.16.7-.16,1.717Zm4.829-7.369-.721-3.722.106-1.214-.017-.089H83.6l1.191,3.386.16.375-.2,1.264ZM81.494,40.9l-1.34-4.227.147-.906-.02-.054h6.636l2.16,3.98.182.286-.244.921Zm-7.071-9.858h5.858l1.507,2.831.143.227-.168.58H75.328l-.973-3.032.108-.472Zm-2.539,0,.551,2.5.151.556-.075.58H66.88l-.266-3.032.019-.24-.035-.366Zm-13.393,0h5.281L63.5,34.1h-.022l-.051.58H57.8l-.077-.58.506-1.862Zm-8.4,0H55.95l-.084.253.084.353-.971,3.032H48.548l-.168-.58.514-.8Zm-8.878,0h5.9l-.084.156.177.45L45.6,34.675H39.16l-.26-.58.471-.527Zm-8.526,0H38.31l-.079.114.26.492-2.147,3.032H29.909l-.358-.58.489-.4Zm-4.316,4.8.18.123-.09-.123h2.574l-.064.072.313.893-1.423,1.55Zm1.73,2.943.2-.1,3.132-2.972h7.316l-.064.1.215.863L38.087,40.9H31.374Zm2.034,2.805h2.922l-.071.076.286,1.227L33.8,44.463,32.461,42.5Zm1.646,2.9.1,0-.02-.025,2.691-2.877h7.715l-.063.148.185,1.155-1.608,3.722H35Zm2.5,4.131-.6-1.457H37.8l-.076.1.26,1.663-.761,1.264Zm1.937,3.268-.478-1.532.558-.818,1.363-2.375H47.4l-.067.235.155,1.533-1.4,5.054H39.582Zm2.5,3.941-.139-1.081L52.029,54.7h.094l-.063.363.1,1.5-.934,5.382H44.539Zm4.936,7.94-.143-1.4H56.727l-.057.72.053,1.166-.536,6.806H50.118Zm6.266,10.094-.13-1.79H63.363l-.269,8.422h-.022l-.05,1.705H57.13ZM71.485,84.727s-2.588,4.539-3.928,6.5a2.609,2.609,0,0,1-4.7,0c-1.338-1.963-3.93-6.5-3.93-6.5l-.058-1.853-.028-.047H71.55Zm6.892-10.869-5.2,8.337h-5.9l-.268-9.129.009-.483-.017-.515H78.511Zm6.27-10.094-4.455,7.292H74.118l-.533-6.806.074-1.666-.015-.22H84.791Zm4.936-7.94-3.811,6.123H79.079l-.934-5.382.121-1.756L78.25,54.7h.025l11.446.043Zm2.5-3.941-1.36,2.1h-6.5l-1.4-5.054.173-1.7-.021-.071h7.739l1.707,2.977.146.216Zm1.938-3.268-.94,1.575-.762-1.264.269-1.735-.02-.033h2.054ZM97.845,42.5l-1.336,1.966-.016.025.034,0L95.31,46.611H87.528l-1.6-3.722.2-1.256-.018-.047h7.72l1.214,1.3.294-1.276-.022-.021h2.859Zm1.094-1.6h-6.72l-2.812-4.227.235-.935-.018-.025h7.315l3.21,3.049.058.024Zm1.509-2.542L99.02,36.8l.332-.944-.022-.021h2.579l-.024.033.045-.033Z" fill="#fff"/>
        <path id="패스_51" data-name="패스 51" d="M42.644,45.347,44.2,41.734l.064-.148H36.551l-2.692,2.877.021.025.717.859Zm-2.9-2.458c-.07.21-.442.382-.83.382s-.645-.172-.567-.382l-.01-.195h.018a.2.2,0,0,1-.005-.088c.076-.211.443-.375.83-.375s.636.164.572.375l-.008.007Z" fill="#fff"/>
        <path id="패스_52" data-name="패스 52" d="M52.936,45.346,53.6,41.9l.066-.316h-6.9L45.884,44.1l-.44,1.246Zm-2.551-2.74,0,.283c-.046.21-.392.382-.778.382s-.67-.172-.624-.382l.005-.225H49c-.005-.021-.017-.037-.01-.058.042-.211.392-.375.771-.375s.665.164.624.375" fill="#fff"/>
        <path id="패스_53" data-name="패스 53" d="M34.988,41.662l.071-.076H32.2l1.162,1.8Z" fill="#fff"/>
        <path id="패스_54" data-name="패스 54" d="M37.726,47.262l.076-.1H35.768l.948,1.592Z" fill="#fff"/>
        <path id="패스_55" data-name="패스 55" d="M30.974,35.91l.064-.072H28.464l.09.123L29.6,37.4Z" fill="#fff"/>
        <path id="패스_56" data-name="패스 56" d="M39.254,52.262h6.728l1.354-4.869.066-.235H39.665L38.3,49.533l-.468.818Zm3.65-3.075c-.071.245-.486.447-.918.447s-.728-.2-.653-.447v-.336h.009c0-.012,0-.022,0-.034.075-.244.488-.438.916-.438.384,0,.644.156.655.362v.043a.181.181,0,0,1,0,.033v.009Z" fill="#fff"/>
        <path id="패스_57" data-name="패스 57" d="M57.809,52.262l.348-4.359.058-.745H50.363l-.514,2.582-.5,2.522Zm-2.762-3.075c-.039.245-.418.447-.857.447s-.757-.2-.719-.447l.018-.332c0-.012-.01-.021-.006-.038.039-.244.421-.438.855-.438s.75.194.716.438c0,.012-.012.022-.012.034Z" fill="#fff"/>
        <path id="패스_58" data-name="패스 58" d="M44.168,60.137h7.007l.885-5.074.063-.363h-.094l-11.358.043Zm1.52-3.681c.081-.3.552-.544,1.053-.544.458,0,.775.2.779.464h.007v.059c0,.008.006.013,0,.021v0l-.007.464c-.067.3-.538.556-1.054.556s-.862-.253-.782-.556l-.012-.4h.023a.428.428,0,0,1-.007-.072" fill="#fff"/>
        <path id="패스_59" data-name="패스 59" d="M64.168,60.137h.093L64.177,54.7l-8.667.038-.143.939-.67,4.46ZM59.84,56.924c-.022.3-.453.556-.965.556s-.907-.253-.877-.556l-.017-.426.038,0a.051.051,0,0,1-.008-.038c.026-.3.454-.543.961-.543s.9.245.875.543c0,.017-.017.035-.017.051Z" fill="#fff"/>
        <path id="패스_60" data-name="패스 60" d="M63.072,80.49h.022l.27-8.423H51.883l5.45,8.423ZM57.64,74.433c.053-.45.615-.812,1.272-.812.591,0,1.04.3,1.1.691h.007v.043c0,.027.017.05.017.078a.353.353,0,0,1-.017.038l.012.665c-.037.46-.607.839-1.275.839s-1.167-.379-1.12-.839a4.527,4.527,0,0,0-.006-.681h.013Z" fill="#fff"/>
        <path id="패스_61" data-name="패스 61" d="M56.183,69.236l.488-6.152.056-.72H45.6l4.451,6.872Zm-5.214-4.711c.064-.367.586-.655,1.16-.655.522,0,.9.242.916.562h.005v.047c-.005.016.013.029.007.046l-.007.012-.005.562c-.058.369-.577.672-1.162.672s-.926-.37-.926-.672l.012-.553c0-.009,0-.012,0-.021" fill="#fff"/>
        <path id="패스_62" data-name="패스 62" d="M31.122,39.973h6.784l2.778-4.168.066-.1H33.433L30.3,38.68l-.109.1Zm3.807-2.358c0,.139-.405.329-.75.329s-.5-.149-.5-.329l-.007-.152.015,0a.161.161,0,0,1,0-.062c.071-.178.4-.316.751-.316s.563.138.492.316l0,0Z" fill="#fff"/>
        <path id="패스_63" data-name="패스 63" d="M43.457,35.708l-1.769,3.259-.544,1.007h7.593l1.3-4.076.059-.19Zm2.3,1.689h0l-.007.218c0,.136-.359.329-.7.329s-.538-.193-.538-.329v-.159h.016c0-.021-.016-.039-.009-.059.043-.177.364-.316.7-.316.321,0,.538.122.534.282h0V37.4Z" fill="#fff"/>
        <path id="패스_64" data-name="패스 64" d="M52.8,35.708l-.518,2.319-.43,1.946h6.831l.556-3.836.059-.429Zm2.9,1.907c-.026.18-.321.329-.665.329s-.6-.149-.582-.329v-.177h.021c0-.017-.013-.029-.008-.041.026-.178.32-.316.661-.316s.6.138.581.316l-.008.012a.475.475,0,0,1,0,.206" fill="#fff"/>
        <path id="패스_65" data-name="패스 65" d="M25.483,31.478l1.833,2.616,2.758-2.94.113-.118h-4.9c-.015.035-.028.063-.046.1Z" fill="#fff"/>
        <path id="패스_66" data-name="패스 66" d="M36.142,34.094l2.089-2.944.079-.113H32.689L30.04,33.693l-.4.4Zm-1.917-1.785a.561.561,0,0,1-.485.2c-.217,0-.32-.093-.32-.2,0-.052,0-.1,0-.1l.035,0c-.007-.017-.026-.03-.024-.046a.565.565,0,0,1,.485-.2c.2,0,.312.077.307.169h0a.122.122,0,0,1,.006.03h0a.372.372,0,0,1-.008.152" fill="#fff"/>
        <path id="패스_67" data-name="패스 67" d="M45.486,34.094l1.543-2.9.085-.155h-5.9l-1.844,2.53-.388.527ZM43.5,32.309c0,.109-.235.2-.458.2s-.346-.093-.346-.2V32.2l.03,0c0-.013-.026-.022-.023-.038.034-.109.241-.2.46-.2.2,0,.326.077.329.169h0v.005c0,.007.019.016.014.025l-.014.012Z" fill="#fff"/>
        <path id="패스_68" data-name="패스 68" d="M54.967,34.094l.9-2.805.085-.252H50.093l-1.2,2.261-.424.8Zm-2.431-1.785c-.023.109-.215.2-.438.2s-.388-.093-.366-.2l0-.136h.018c0-.007-.018-.013-.012-.016.019-.109.215-.2.438-.2s.382.09.365.2l-.013.012Z" fill="#fff"/>
        <path id="패스_69" data-name="패스 69" d="M63.477,34.094H63.5l.273-3.057H58.491l-.266,1.195-.416,1.862ZM60.9,32.309c0,.109-.188.2-.413.2s-.394-.093-.39-.2l.013-.136h.006c0-.007-.006-.013-.006-.016,0-.109.192-.2.411-.2s.4.09.392.2l-.013.012Z" fill="#fff"/>
        <path id="패스_70" data-name="패스 70" d="M60.925,47.158,60.74,51.1l-.06,1.163h9.009l-.13-2.662-.116-2.442Zm5.061,2.029c0,.245-.352.447-.791.447s-.787-.2-.779-.447l.008-.373c.012-.241.364-.435.791-.435s.78.194.78.438c0,.022-.016.038-.016.059Z" fill="#fff"/>
        <path id="패스_71" data-name="패스 71" d="M93.824,41.585H86.105l.018.047,1.607,3.714h8.048l.716-.859.016-.025-1.472-1.579Zm-1.975,1.277c.072.206-.187.379-.575.379s-.756-.173-.824-.379v-.38h.013c.043-.147.261-.252.568-.252.383,0,.755.164.826.376a.17.17,0,0,1-.005.146Z" fill="#fff"/>
        <path id="패스_72" data-name="패스 72" d="M84.93,45.346l-.136-.374L83.6,41.585H76.708l.017.089.711,3.672Zm-3.715-2.484c.046.206-.232.379-.62.379s-.736-.173-.778-.379l-.009-.282h.016c-.011-.2.254-.35.623-.35.385,0,.735.164.776.376.008.024-.008.046-.008.066Z" fill="#fff"/>
        <path id="패스_73" data-name="패스 73" d="M95.311,41.586l.021.021,1.681,1.782,1.157-1.8H95.311Z" fill="#fff"/>
        <path id="패스_74" data-name="패스 74" d="M94.6,47.157H92.574l.019.034,1.066,1.558Z" fill="#fff"/>
        <path id="패스_75" data-name="패스 75" d="M101.885,35.871l.024-.033H99.33l.022.021,1.424,1.545Z" fill="#fff"/>
        <path id="패스_76" data-name="패스 76" d="M91.119,52.262l1.42-1.911-.122-.217-1.706-2.977H82.972l.021.072,1.393,5.033Zm-2.256-3.109c.072.248-.219.452-.653.452s-.846-.2-.918-.452l-.009-.441.021,0c.029-.193.282-.337.65-.337.428,0,.841.193.916.438a.229.229,0,0,1-.007.16Z" fill="#fff"/>
        <path id="패스_77" data-name="패스 77" d="M81.025,52.262l-.134-.7-.88-4.4H72.157l.012.2.392,4.906Zm-4.3-3.109c.039.248-.281.452-.722.452s-.816-.2-.853-.452l.008-.441.022,0c.054-.193.332-.337.694-.337.434,0,.817.193.855.438a.165.165,0,0,1-.017.093Z" fill="#fff"/>
        <path id="패스_78" data-name="패스 78" d="M86.205,60.137l3.492-5.4L78.275,54.7h-.024l.016.109.931,5.328Zm-2.737-4.225c.506,0,.978.246,1.054.544,0,.013-.006.029-.006.042h.006l-.01.4c.077.308-.273.555-.783.555s-.986-.247-1.058-.555l0-.547h.025c.026-.245.338-.435.775-.435" fill="#fff"/>
        <path id="패스_79" data-name="패스 79" d="M75.475,58.789l-.615-4.051L66.2,54.7l-.085,5.437h9.56ZM72.19,56.9c.035.307-.358.555-.872.555s-.944-.248-.965-.555l.01-.435v0s0,0,0-.008l0-.038h.008c.022-.278.383-.5.865-.5.5,0,.934.245.964.543l-.005.013h.012Z" fill="#fff"/>
        <path id="패스_80" data-name="패스 80" d="M73.036,80.49l5.45-8.422H67.006l.017.515.257,7.907Zm-2.859-6.207h.029a1.033,1.033,0,0,1,1.092-.662c.657,0,1.225.362,1.271.812,0,.027-.011.047-.011.068a3.442,3.442,0,0,0,0,.609c.046.456-.454.836-1.12.836s-1.235-.38-1.276-.836Z" fill="#fff"/>
        <path id="패스_81" data-name="패스 81" d="M80.318,69.236l4.447-6.871H73.644l.015.219.527,6.652ZM78.081,63.87c.576,0,1.1.288,1.163.655a.353.353,0,0,1-.021.135l.012.408c0,.3-.349.67-.929.67s-1.1-.3-1.16-.67v-.661h.027c.037-.307.405-.537.908-.537" fill="#fff"/>
        <path id="패스_82" data-name="패스 82" d="M99.251,39.973l.931-1.192-.033-.024-3.21-3.049H89.624l.018.025,2.824,4.24Zm-2.742-2.387c0,.18-.151.328-.5.328s-.743-.186-.743-.328l-.01-.253h.018c0-.143.2-.252.5-.252.341,0,.677.138.745.316a.141.141,0,0,1,0,.13Z" fill="#fff"/>
        <path id="패스_83" data-name="패스 83" d="M89.23,39.973l-.153-.285-2.159-3.98H80.281l.021.054,1.335,4.211Zm-3.542-2.387c0,.13-.2.328-.543.328s-.7-.194-.7-.328l-.01-.253h.027c.024-.143.23-.252.533-.252.342,0,.653.138.7.316a.135.135,0,0,1-.013.075Z" fill="#fff"/>
        <path id="패스_84" data-name="패스 84" d="M78.52,39.973l-.123-.56-.824-3.7h-6.5l.015.13.6,4.135Zm-2.784-2.387c.026.18-.235.328-.581.328s-.644-.148-.665-.328.005-.232.005-.232h.016c.02-.155.254-.273.57-.273.339,0,.639.138.663.316a.076.076,0,0,1-.008.032Z" fill="#fff"/>
        <path id="패스_85" data-name="패스 85" d="M100.187,31.037l.059.062,2.812,3,1.391-1.987c-.312.113-.652.255-1.079.45A4.888,4.888,0,0,0,105,31.037Z" fill="#fff"/>
        <path id="패스_86" data-name="패스 86" d="M100.732,34.094l-.119-.118-2.927-2.939H92.064l.042.062,2.126,3Zm-3.956-1.915s0,.049,0,.1c0,.11-.1.2-.321.2a.563.563,0,0,1-.485-.2.37.37,0,0,1,0-.181l.038,0c.022-.081.123-.143.3-.143a.555.555,0,0,1,.478.2c0,.009-.008.013-.008.022Z" fill="#fff"/>
        <path id="패스_87" data-name="패스 87" d="M91.386,34.094l-.111-.152-2.121-2.905H83.26l.049.083,1.575,2.974ZM87.5,32.279c0,.11-.118.2-.345.2s-.459-.092-.459-.2L86.7,32.1l.035,0c.028-.081.134-.143.311-.143.219,0,.428.089.459.2l-.01.012Z" fill="#fff"/>
        <path id="패스_88" data-name="패스 88" d="M81.9,34.094l-.116-.227-1.506-2.83H74.424l.04.134.939,2.923Zm-3.442-1.815c.022.11-.145.2-.368.2s-.417-.092-.437-.2l.008-.152h.022c.017-.092.147-.168.345-.168.214,0,.392.084.423.186v0c.007,0,.014.005.014.009s-.014.009-.014.016Z" fill="#fff"/>
        <path id="패스_89" data-name="패스 89" d="M66.871,34.094H72.56l-.125-.556-.551-2.5H66.6l.034.366ZM70.1,32.279c.008.11-.165.2-.388.2s-.408-.092-.413-.2v-.164l.034,0a.372.372,0,0,1,.358-.161c.223,0,.409.089.417.2,0,.009-.013.012-.016.022Z" fill="#fff"/>
        <path id="패스_90" data-name="패스 90" d="M70.667,62.364H59.709L59.3,69.236H71.071ZM66.139,65.1c0,.369-.472.672-1.056.672s-1.046-.3-1.032-.672v-.578h.006c.009-.364.483-.651,1.054-.651.523,0,.931.241,1,.562h0v.013a.247.247,0,0,1,.025.08c0,.021-.015.043-.015.065Z" fill="#fff"/>
        <path id="패스_91" data-name="패스 91" d="M65.178,90.525A2.536,2.536,0,0,0,67.563,89.2l3.961-6.376H58.838l.028.047L62.805,89.2a2.518,2.518,0,0,0,2.373,1.323m-.03-7.291a1.463,1.463,0,0,1,1.415.817h.007s0,.031,0,.044a.9.9,0,0,1,.071.255.933.933,0,0,1-.037.135c.013.193.026.43.026.7a1.377,1.377,0,0,1-1.522,1.155c-.838,0-1.5-.518-1.487-1.155.006-.349-.022-1-.022-1l.082-.006a1.438,1.438,0,0,1,1.464-.939" fill="#fff"/>
        <path id="패스_92" data-name="패스 92" d="M69.019,39.973l-.155-1.722-.232-2.543H61.739l-.308,3.427-.079.838Zm-3.238-2.358c0,.18-.278.329-.623.329s-.618-.149-.618-.329v-.206h.016c0-.005-.009-.009-.009-.012,0-.178.286-.316.628-.316s.618.138.618.316c0,.012-.012.02-.012.032Z" fill="#fff"/>
        <path id="패스_93" data-name="패스 93" d="M65.124,85.493a1.414,1.414,0,0,0,1.483-1.007.933.933,0,0,0,.037-.135.864.864,0,0,0-.071-.255.287.287,0,0,0-.009-.044,1.463,1.463,0,0,0-1.416-.817,1.44,1.44,0,0,0-1.464.939.832.832,0,0,0-.05.177c-.019.628.648,1.142,1.49,1.142" fill="#fff"/>
        <path id="패스_94" data-name="패스 94" d="M58.766,75.259a1.187,1.187,0,0,0,1.251-.787c0-.012.012-.024.016-.039s-.016-.05-.016-.078a.286.286,0,0,0-.008-.043c-.056-.387-.506-.691-1.1-.691-.657,0-1.219.362-1.272.812v.022c-.028.443.465.8,1.126.8" fill="#fff"/>
        <path id="패스_95" data-name="패스 95" d="M66.117,64.445a.019.019,0,0,0,0-.013c-.071-.321-.48-.563-1-.563-.571,0-1.044.288-1.053.652v0c-.007.362.451.661,1.036.661.544,0,.974-.265,1.033-.6,0-.022.015-.043.015-.064a.263.263,0,0,0-.024-.08" fill="#fff"/>
        <path id="패스_96" data-name="패스 96" d="M51.9,65.186c.572,0,1.084-.291,1.154-.649l.007-.012c.006-.017-.012-.03-.007-.046s-.005-.029-.005-.047c-.02-.32-.394-.562-.917-.562-.573,0-1.095.288-1.159.655,0,.01,0,.012,0,.021-.04.355.359.64.927.64" fill="#fff"/>
        <path id="패스_97" data-name="패스 97" d="M46.477,57c.5,0,.977-.24,1.048-.54l0,0c.005-.008,0-.013,0-.021s-.008-.038-.008-.059c0-.261-.32-.464-.779-.464-.5,0-.972.246-1.052.544a.429.429,0,0,0,.007.072c-.007.264.31.472.781.472" fill="#fff"/>
        <path id="패스_98" data-name="패스 98" d="M42.91,48.784v-.043c-.01-.206-.271-.362-.654-.362-.429,0-.842.194-.917.438,0,.012,0,.022,0,.034-.042.227.232.408.647.408.436,0,.843-.193.92-.433v-.009a.121.121,0,0,0,0-.033" fill="#fff"/>
        <path id="패스_99" data-name="패스 99" d="M54.339,48.379c-.435,0-.817.194-.857.438,0,.017.007.026.007.038,0,.227.3.4.712.4s.773-.181.841-.408c0-.012.011-.022.011-.034.036-.244-.286-.438-.714-.438" fill="#fff"/>
        <path id="패스_100" data-name="패스 100" d="M65.216,48.379c-.427,0-.779.194-.791.435v0c0,.245.346.442.784.442.395,0,.716-.168.77-.383,0-.021.017-.037.017-.059,0-.244-.345-.438-.78-.438" fill="#fff"/>
        <path id="패스_101" data-name="패스 101" d="M39.182,42.23c-.387,0-.754.164-.83.375a.2.2,0,0,0,0,.088c.021.164.24.287.567.287a.916.916,0,0,0,.822-.367l.009-.008c.063-.211-.189-.375-.573-.375" fill="#fff"/>
        <path id="패스_102" data-name="패스 102" d="M49.76,42.23c-.379,0-.728.164-.771.375-.007.021.005.037.01.059.017.177.262.316.61.316.383,0,.728-.17.775-.375s-.236-.375-.624-.375" fill="#fff"/>
        <path id="패스_103" data-name="패스 103" d="M34.441,37.081c-.347,0-.68.139-.751.316a.19.19,0,0,0,0,.063c0,.146.195.261.5.261a.835.835,0,0,0,.739-.32l0,0c.071-.177-.152-.316-.492-.316" fill="#fff"/>
        <path id="패스_104" data-name="패스 104" d="M45.222,37.081c-.34,0-.661.139-.7.316-.007.02,0,.037.009.059.013.146.227.265.532.265.341,0,.654-.143.7-.324v-.009c.006-.009,0-.017,0-.025,0-.161-.213-.282-.534-.282" fill="#fff"/>
        <path id="패스_105" data-name="패스 105" d="M55.131,37.081c-.342,0-.637.139-.662.316,0,.012,0,.024.008.041.017.157.254.283.571.283.334,0,.621-.14.655-.312,0-.005.008-.008.008-.012.022-.177-.236-.316-.58-.316" fill="#fff"/>
        <path id="패스_106" data-name="패스 106" d="M65.174,37.081c-.341,0-.623.139-.628.316,0,0,.009.007.009.012.009.172.274.312.611.312s.58-.131.614-.292c0-.012.013-.02.013-.032,0-.177-.278-.316-.619-.316" fill="#fff"/>
        <path id="패스_107" data-name="패스 107" d="M33.754,32.359c.218,0,.435-.089.48-.2h0c.007-.012-.01-.017-.01-.03,0-.092-.109-.168-.308-.168a.562.562,0,0,0-.484.2c0,.016.017.029.023.046.007.084.112.156.3.156" fill="#fff"/>
        <path id="패스_108" data-name="패스 108" d="M43.493,32.132l0-.005c0-.092-.126-.168-.329-.168s-.425.089-.459.2c0,.016.022.025.022.038.017.092.13.164.325.164a.494.494,0,0,0,.444-.189s.009-.009.013-.013-.013-.018-.013-.025" fill="#fff"/>
        <path id="패스_109" data-name="패스 109" d="M52.179,31.959c-.223,0-.419.089-.438.2-.005,0,.012.009.012.016,0,.1.143.186.354.186s.393-.083.424-.189c0,0,.009-.009.014-.013.016-.109-.149-.2-.366-.2" fill="#fff"/>
        <path id="패스_110" data-name="패스 110" d="M60.517,31.959c-.219,0-.409.089-.411.2,0,0,.006.009.006.016.013.1.169.186.381.186s.388-.083.4-.189c0,0,.013-.009.013-.013.005-.109-.169-.2-.392-.2" fill="#fff"/>
        <path id="패스_111" data-name="패스 111" d="M58.972,55.912c-.507,0-.935.246-.961.544-.005.013,0,.026.008.037.008.286.375.507.864.507s.884-.221.947-.493c0-.017.017-.034.017-.051.02-.3-.37-.544-.875-.544" fill="#fff"/>
        <path id="패스_112" data-name="패스 112" d="M71.449,75.259c.627,0,1.1-.336,1.109-.758,0-.021.016-.041.011-.068-.046-.45-.614-.812-1.271-.812a1.031,1.031,0,0,0-1.092.662.505.505,0,0,0-.029.15c.034.456.607.826,1.272.826" fill="#fff"/>
        <path id="패스_113" data-name="패스 113" d="M78.313,65.186c.5,0,.864-.228.909-.526a.354.354,0,0,0,.022-.135c-.067-.367-.587-.655-1.163-.655-.5,0-.871.23-.909.537a.359.359,0,0,0-.017.118c.058.363.578.661,1.158.661" fill="#fff"/>
        <path id="패스_114" data-name="패스 114" d="M83.733,57c.493,0,.816-.221.783-.5a.3.3,0,0,0,.005-.042c-.076-.3-.547-.544-1.053-.544-.437,0-.749.191-.775.435a.294.294,0,0,0-.013.109c.071.3.546.544,1.053.544" fill="#fff"/>
        <path id="패스_115" data-name="패스 115" d="M87.954,48.379c-.367,0-.621.144-.65.337a.29.29,0,0,0-.008.1c.07.245.484.442.918.442.336,0,.586-.118.649-.282a.228.228,0,0,0,.008-.16c-.076-.244-.489-.438-.917-.438" fill="#fff"/>
        <path id="패스_116" data-name="패스 116" d="M75.871,48.379c-.362,0-.64.144-.694.337a.311.311,0,0,0-.022.1c.035.245.421.442.856.442.383,0,.657-.152.7-.349a.165.165,0,0,0,.017-.093c-.038-.244-.421-.438-.855-.438" fill="#fff"/>
        <path id="패스_117" data-name="패스 117" d="M91.031,42.23c-.307,0-.525.1-.568.252a.256.256,0,0,0,0,.123c.07.205.439.375.832.375a.614.614,0,0,0,.562-.228.172.172,0,0,0,.006-.147c-.071-.211-.444-.375-.827-.375" fill="#fff"/>
        <path id="패스_118" data-name="패스 118" d="M80.448,42.23c-.369,0-.635.152-.623.35.006.007,0,.017,0,.025.042.205.391.375.779.375.341,0,.581-.135.611-.308,0-.021.017-.042.009-.067-.041-.211-.392-.375-.776-.375" fill="#fff"/>
        <path id="패스_119" data-name="패스 119" d="M95.774,37.081c-.3,0-.494.109-.5.252a.172.172,0,0,0,0,.064c.068.177.4.324.749.324a.537.537,0,0,0,.489-.194.141.141,0,0,0,0-.13c-.068-.177-.4-.316-.745-.316" fill="#fff"/>
        <path id="패스_120" data-name="패스 120" d="M84.992,37.081c-.3,0-.509.109-.533.252a.1.1,0,0,0-.006.064c.044.177.359.324.7.324.3,0,.5-.109.525-.249a.144.144,0,0,0,.013-.075c-.051-.177-.362-.316-.7-.316" fill="#fff"/>
        <path id="패스_121" data-name="패스 121" d="M75.08,37.081c-.316,0-.549.118-.57.274a.13.13,0,0,0-.013.042c.021.177.321.324.666.324.325,0,.561-.131.572-.292a.077.077,0,0,0,.009-.032c-.025-.177-.325-.316-.664-.316" fill="#fff"/>
        <path id="패스_122" data-name="패스 122" d="M96.3,31.959c-.178,0-.278.063-.3.143,0,.021-.035.034-.022.055.045.114.263.2.481.2s.328-.08.313-.18c0-.009.012-.013.007-.022a.555.555,0,0,0-.478-.2" fill="#fff"/>
        <path id="패스_123" data-name="패스 123" d="M87.049,31.959c-.177,0-.283.063-.311.143-.01.021-.04.034-.032.055.032.114.236.2.461.2s.349-.083.331-.189c0,0,.012-.009.01-.013-.031-.109-.24-.2-.459-.2" fill="#fff"/>
        <path id="패스_124" data-name="패스 124" d="M78.456,32.149v0c-.032-.1-.209-.187-.425-.187-.2,0-.327.077-.345.169,0,.012-.02.018-.016.029.016.114.21.2.432.2s.36-.083.354-.186c0-.007.013-.007.013-.016s-.007-.008-.013-.008" fill="#fff"/>
        <path id="패스_125" data-name="패스 125" d="M69.689,31.959a.371.371,0,0,0-.358.161c0,.012-.029.02-.029.037.014.114.192.2.417.2.206,0,.358-.08.37-.18,0-.009.017-.013.017-.022-.008-.109-.194-.2-.417-.2" fill="#fff"/>
        <path id="패스_126" data-name="패스 126" d="M71.327,57c.5,0,.888-.237.872-.531l0-.013c-.03-.3-.46-.544-.964-.544-.482,0-.843.219-.864.5,0,.013-.012.025-.012.038s0,0,0,.008v0c.029.3.454.54.964.54" fill="#fff"/>
        <path id="패스_127" data-name="패스 127" d="M25.8,33.648c-.581-1.28-.805-1.934-.557-2.514.018-.035.031-.063.046-.1a2.107,2.107,0,0,1,.388-.506,11.032,11.032,0,0,1,1.213-.96c-2.32,1.053-2.594.982-4.075-1.095,1.052,2.325.986,2.595-1.092,4.081,1.129-.514,1.773-.757,2.306-.631.566.13,1.014.66,1.771,1.722" fill="#fff"/>
        <path id="패스_128" data-name="패스 128" d="M108.541,29.571c-2.325,1.053-2.593.981-4.076-1.1a4.533,4.533,0,0,1,.641,2.179,1.28,1.28,0,0,1-.11.383,4.892,4.892,0,0,1-1.626,1.52c.426-.195.766-.338,1.079-.45.018-.009.049-.013.072-.022a1.624,1.624,0,0,1,1.623.047,6.469,6.469,0,0,1,1.307,1.516c-1.058-2.325-.985-2.6,1.09-4.077" fill="#fff"/>
        <path id="패스_129" data-name="패스 129" d="M62.993,44.251l.315-.86-.05.86h.421l.656-1.785h-.424l-.291.783.068-.783h-.463l-.658,1.785Z" fill="#fff"/>
        <path id="패스_130" data-name="패스 130" d="M64.205,44.251l.658-1.785h-.422l-.652,1.785Z" fill="#fff"/>
        <path id="패스_131" data-name="패스 131" d="M64.732,44.251l.278-.762,0,.762h.357l.013-1L66,42.466h-.375l-.433.518.2-.518h-.425l-.653,1.785Z" fill="#fff"/>
        <path id="패스_132" data-name="패스 132" d="M63.515,45.6l5.028-2.168-2.207.6.057-.139h-.461l.161-.425h.375l.113-.316h-.376l.131-.354h.376l.121-.333h-.8l-.655,1.786h.154l-1.962.531a1.157,1.157,0,0,1-.943-.038c-.494-.351-.128-1.078.008-1.288a6.146,6.146,0,0,0-.661.816,1.255,1.255,0,0,0-.21,1.259c.356.569,1.208.3,1.751.067" fill="#fff"/>
      </g>
    </g>
  </g>
</svg>
