<svg xmlns="http://www.w3.org/2000/svg" xmlns:xlink="http://www.w3.org/1999/xlink" width="162.88" height="119.066" viewBox="0 0 162.88 119.066">
  <defs>
    <clipPath id="clip-path">
      <rect id="사각형_39" data-name="사각형 39" width="162.88" height="119.066" transform="translate(0 0)" fill="none"/>
    </clipPath>
  </defs>
  <g id="그룹_64" data-name="그룹 64" transform="translate(0 0)">
    <g id="그룹_63" data-name="그룹 63" clip-path="url(#clip-path)">
      <path id="패스_285" data-name="패스 285" d="M106.732,77.532c.51.8,1.922,1.309,4.312,1.549.9.088,1.464-.052,1.728-.433.375-.535.006-1.289-.287-1.893l-.112-.232-.216-.442a3.954,3.954,0,0,1-.476-2.127c-.1-2.591.083-6.679.994-7.337,1.072-.773,1.271-.669,1.946-.108a4.627,4.627,0,0,1,.679.858c.545.8,1.224,1.793,2.4,1.768a2.553,2.553,0,0,0,2.055-.877c.63-.787.77-2.093.412-3.886a2.95,2.95,0,0,0-1.743-2.327,2.826,2.826,0,0,0-2.691.457,9.427,9.427,0,0,1-3.1,1.583.415.415,0,0,1-.427-.112,1.681,1.681,0,0,1-.15-1.491.964.964,0,0,0-.206-1.081c-.55-.476-1.712-.136-2.252.108-.695.318-2.473.908-2.49.914l-.041.013-.032.024c-.795.551-.515,1.31-.193,2.192l.355,1.09c.369,1.406.468,7.594-.58,10.543a1.377,1.377,0,0,0,.109,1.247" fill="#2e2c31"/>
      <path id="패스_286" data-name="패스 286" d="M145.953,41.847a2.294,2.294,0,1,0-2.287-2.288,2.28,2.28,0,0,0,2.287,2.288m0-4.043a1.75,1.75,0,1,1-1.745,1.755,1.7,1.7,0,0,1,1.745-1.755" fill="#2e2c31"/>
      <path id="패스_287" data-name="패스 287" d="M72.374,16.86a3.312,3.312,0,1,0-3.313-3.31,3.313,3.313,0,0,0,3.313,3.31" fill="#2e2c31"/>
      <path id="패스_288" data-name="패스 288" d="M145.573,39.717h.371l.531,1.006h.577l-.577-1.006c.422-.031.647-.21.647-.648,0-.631-.377-.728-.927-.728h-1.154v2.382h.532Zm0-.962h.512c.234,0,.54,0,.54.245,0,.3-.15.358-.416.358h-.636Z" fill="#2e2c31"/>
      <path id="패스_289" data-name="패스 289" d="M72.374,20.1a6.555,6.555,0,1,0-6.554-6.553A6.559,6.559,0,0,0,72.374,20.1m0-11.543a4.988,4.988,0,1,1-4.989,4.99,4.992,4.992,0,0,1,4.989-4.99" fill="#2e2c31"/>
      <path id="패스_290" data-name="패스 290" d="M94.5,35.124a2.043,2.043,0,0,0,1.348.857,5.889,5.889,0,0,0,4.14-1.136,5.9,5.9,0,0,0,2.675-3.354,2.069,2.069,0,0,0-.255-1.579c-.876-1.324-3.236-1.2-5.487.281a5.889,5.889,0,0,0-2.677,3.355,2.055,2.055,0,0,0,.256,1.576m1.279-1.261a4.485,4.485,0,0,1,2-2.361c1.641-1.08,3.08-1.084,3.318-.725a.374.374,0,0,1,.051.208.99.99,0,0,1-.022.189,4.494,4.494,0,0,1-2,2.363,4.51,4.51,0,0,1-2.96.91.581.581,0,0,1-.354-.185.574.574,0,0,1-.03-.4" fill="#2e2c31"/>
      <path id="패스_291" data-name="패스 291" d="M103.978,29.173c.913,2.059-.229,3.958-1.346,5.187-.139.151-.559.612-.309.87.48.5,3.134-.932,5.575-2.991a6.011,6.011,0,0,0,2.463-5.169,4.182,4.182,0,0,0-2.384-3.275c-1.691-.829-3.89-.166-5.435.537-2.225,1.012-4.43,2.754-4.606,3.416L97.868,28l.248-.083c2.782-.9,4.844-1.036,5.862,1.252" fill="#2e2c31"/>
      <path id="패스_292" data-name="패스 292" d="M98.7,37.8l.951.569c2.491,1.494,3.736,3.515,5.054,5.653.433.7.883,1.436,1.381,2.148l1.465,2.236c2.232,3.493,5.607,8.771,8.451,9.822,2.6.957,7.439.832,8.168.015a.482.482,0,0,0,.083-.553l-.075-.151-.169-.008c-4.05-.136-10.352-7.884-13.339-13.077-3.6-6.264-10.789-6.608-10.86-6.612Z" fill="#2e2c31"/>
      <path id="패스_293" data-name="패스 293" d="M93.553,58.1A4.005,4.005,0,0,1,94,60.733l0,.023v.019c.026.993.249,9.68.262,9.875.224,3.42,2,5.647,5,6.272.557.113,1.222.191,1.423-.245.268-.575-.7-1.419-1.131-1.755-1.543-1.21-1.389-3.894-1.385-3.92.071-2.608.294-9.511.448-10.238l.013-.06A2.833,2.833,0,0,1,100.1,58.37a5.878,5.878,0,0,1,1.836-.379c.834-.087,1.554-.157,1.6-.733.026-.286.058-.716-4.415-1.55-.036-.007-.058-.094-.049-.2.1-1.511.276-4.119.324-4.6.04-.4-.1-.692-.367-.786s-.727-.005-1.354.968c-1.094,1.7-3.959,3.071-5.477,3.61-.567.2-.87.474-.928.835-.105.665.7,1.292,1.488,1.9a7.4,7.4,0,0,1,.793.667" fill="#2e2c31"/>
      <path id="패스_294" data-name="패스 294" d="M138.625,45.648c-.334-.143-.652.155-1.348.807-1.316,1.232-3.766,3.533-7.111,3.055a6.016,6.016,0,0,1-5.525-5.315c-.583-3.264-.71-5.357,2.439-6.861l.569-.271-.576-.245a3.24,3.24,0,0,1-1.661-2.362,10.83,10.83,0,0,1,2.508-8.875l.538-.653-.823.193c-2.784.659-4.883,2.592-6.25,5.744-2.591,5.988-1.631,14.619.141,17.7,2.431,4.227,6.4,5.98,11.788,5.2,3.461-.5,5.585-4.725,5.585-7.539,0-.115,0-.466-.274-.584" fill="#2e2c31"/>
      <path id="패스_295" data-name="패스 295" d="M129.5,86.316s-6.158,3.329-32.043-5.427a114.016,114.016,0,0,0,29.49,8.979Z" fill="#2e2c31"/>
      <path id="패스_296" data-name="패스 296" d="M131.492,82.066a3.008,3.008,0,0,0,1.28-2.136c-.14-.5-6.7.076-2.377-9.989.69-1.6,1.281-1.944.713-2.56-.328-.354-5.606-2.1-6.02-.971-.3.8.9,1.748,1.372,3.058a9.276,9.276,0,0,1-.093,4.122c-1.491,8.558,4.632,8.638,5.125,8.476" fill="#2e2c31"/>
      <path id="패스_297" data-name="패스 297" d="M126.925,35.1a3.812,3.812,0,0,0,4.237,1.7,2.838,2.838,0,0,0,2.205-2.81c0-2.373-.3-7.889-3.071-7.889-.617,0-1.521.294-2.327,1.694-1.207,2.1-1.769,6.055-1.044,7.3m2.411-6.534c.328-.569.677-.9.96-.9.785,0,1.5,3.013,1.5,6.322a1.29,1.29,0,0,1-1.043,1.3,2.25,2.25,0,0,1-2.473-.972c-.307-.54-.071-3.809,1.054-5.748" fill="#2e2c31"/>
      <path id="패스_298" data-name="패스 298" d="M159.862,68.412c-.208-10.606-7.947-18.3-15.294-19.279-3.626-.483-8.612,4.094-5.574,7.718,0,0,1.564,1.447,2.822.257s.652-2.6,2.372-3.131,12.2,4.573,12.277,16.067c.047,7.529-9.195,18.406-21.424,17.149l-2.149,3.641s12.126-.136,17.636-4.535c7.369-5.885,9.495-9.6,9.334-17.887" fill="#2e2c31"/>
      <path id="패스_299" data-name="패스 299" d="M150.978,47.787c-3.152-2.1-6.273-2.76-9.115-2.021,0-.087.013-.184.013-.269a3.907,3.907,0,0,0-1.164-3.032,2.953,2.953,0,0,0-2.737-.694,6.324,6.324,0,0,0-1.879,1.48,18.6,18.6,0,0,1-3.074,2.508,3.853,3.853,0,0,1-2.968.617,3.959,3.959,0,0,1-2.124-2.206c-1.05-2.1-.892-2.947-.707-3.268.212-.365.759-.559,1.721-.61a38.62,38.62,0,0,1,4.61.453c1.7.222,3.3.432,4.166.432a4.294,4.294,0,0,0,3.256-1.072,3.5,3.5,0,0,0,.857-2.684l-.008-.227c-.1-2.59-.393-10.484-7.311-13.586-5.911-2.649-11.5-1.413-14.593,3.222-2.96,4.444-4.218,13.854-2.54,19a25.373,25.373,0,0,0,2.684,5.75,46.6,46.6,0,0,1-3.8-5.137c-2.608-3.871-5.52-8.177-9.9-9.9,3.659-2,7.16-6.478,7.16-9.536a3.291,3.291,0,0,0-.049-.585c-.632-3.8-3.3-5.743-7.932-5.763-3.643-.018-7.392,2.915-9.374,4.74.135-4.768.467-16.547.467-17.4a8.4,8.4,0,0,1,.339-1.373,13.732,13.732,0,0,0,.715-3.672,3.818,3.818,0,0,0-.353-1.708A2.121,2.121,0,0,0,95.891.054a4.164,4.164,0,0,0-3,.922.373.373,0,0,0-.041.035c-4.2,3.754-11.308,10.215-11.708,11.282a3.412,3.412,0,0,0-.2,1.175c0,1.153.57,2.866,3.157,4.548V46.578a7.1,7.1,0,0,1-.879.741c-.988.753-2.216,1.689-2.224,2.915v.022a2.915,2.915,0,0,0,.851,2.087,2.779,2.779,0,0,0,1.828.85c2.473,0,4.168.038,5.923.108a2.339,2.339,0,0,0-1.643,2.309c0,1.706,1.5,2.622,2.6,3.291a4.1,4.1,0,0,1,1.068.78,25.559,25.559,0,0,1,.244,4.786c0,1.565-.025,3.13-.043,4.054l-.01.865a9.152,9.152,0,0,0-1.072-1.155c-.474-.51-2.625-4.878-4.046-7.77-1.651-3.361-2.684-5.451-3.1-6.029l-.356-.522a4.042,4.042,0,0,0-2.453-1.993,2.565,2.565,0,0,0-.256-1.873c-.516-1.2-1.5-3.264-1.783-3.855v-20.4c0-3.627-2.287-4.169-3.648-4.169l-.852-.007c-1.827-.013-5.228-.038-6.657.116s-2.338.647-2.724,1.466a1.9,1.9,0,0,0-.185.828,2.659,2.659,0,0,0,.476,1.445A7.249,7.249,0,0,0,66.37,26.8c.493.454.958.884.958,1.245V47.193c-.666.609-2.04,2.042-2.04,3.473a2.445,2.445,0,0,0,.028.352,1.993,1.993,0,0,0,.592,1.11c-.011.018-.024.035-.035.051-.028-.037-.055-.08-.086-.118a2.385,2.385,0,0,0-1.871-.957h-.478c-1.045-2.045-2.888-6.029-2.888-7.858V8.794c0-1.172,1.05-2.227,1.9-3.073C63.2,4.968,63.8,4.374,63.8,3.635,63.8.491,55.927.245,53.513.245c-2.43,0-10.364.246-10.364,3.39,0,1,1.02,1.841,2.2,2.814.891.732,2.111,1.738,2.111,2.345V24.616C44.083,19.4,36.745,7.009,35.274,5.283c-2.5-2.94-4.781-3.685-8.694-4.018-2.947-.25-5.078.2-6.175,1.3A2.7,2.7,0,0,0,19.6,4.513c0,.091.006.183.011.278.214,2.408,3.369,5.478,4.365,6.392,0,.664.281,28.867.286,29.461a39.773,39.773,0,0,0-3.586,4.44,19.336,19.336,0,0,0-9.747,1.741C1.487,50.9-1.239,63.389.486,70.459,3.544,83,13.585,85,17.76,85.275c6.438.431,12.613-1.964,14.512-5.522,7.658,1.28,11.64-1.267,13.624-3.69a11.834,11.834,0,0,0,2.458-5.7,6.629,6.629,0,0,0,5.4,2.458c.114,0,.229-.01.341-.015a20.5,20.5,0,0,0-3.119,1.769c-10.152,7.013-10.99,15.373-9.908,21.151a23.309,23.309,0,0,0,7.965,13.641c7.713,6.76,24.122,10.665,39.9,9.493,20.4-1.513,35.871-10.459,43.638-25.194,2.6-.039,15.226-.557,22.573-6.825l.006,0c1.91-1.634,7.729-6.6,7.729-17.617,0-7.448-5.339-17.064-11.9-21.431M83.673,51.626a1.276,1.276,0,0,1-.716-.389,1.353,1.353,0,0,1-.394-.981v-.012c0-.455,1-1.222,1.6-1.678.836-.635,1.494-1.141,1.494-1.856V17.6a.788.788,0,0,0-.378-.674c-2.336-1.4-2.781-2.689-2.781-3.462a1.723,1.723,0,0,1,.1-.588c.508-.842,6.158-6.1,11.265-10.668a2.712,2.712,0,0,1,1.68-.624c.109.025.253.089.392.362.487.978-.087,2.939-.467,4.238A7.585,7.585,0,0,0,95.068,8c0,1.023-.516,19.128-.521,19.311a.785.785,0,0,0,1.366.547c.049-.058,5.158-5.653,9.625-5.633,3.911.018,5.883,1.392,6.393,4.453.433,2.6-4.222,8.363-8.179,9.229a.784.784,0,0,0,.046,1.54c5.049.795,8.161,5.41,11.168,9.874,3.075,4.562,5.979,8.871,10.778,9.011.351.012.711.109.744.777a3.158,3.158,0,0,1-2.516,3.016,23.433,23.433,0,0,1-4.141.178,4.365,4.365,0,0,0-.984-.458,5.135,5.135,0,0,0-2.546-.12,10.536,10.536,0,0,1-4.239-2.4c-2.7-2.517-4.7-6.144-6.314-9.059-.671-1.213-1.252-2.262-1.8-3.081-.058-.091-6.141-8.662-8.865-7.178a.779.779,0,0,0-.4.617c-.111,1.222-.087,5.1-.073,7.189l0,.9c0,.668.6,1.305,1.506,2.183a15.8,15.8,0,0,1-1.112,1.168c-.084-.611-1.588-1.488-1.588-2.939V13.778s-.289-1.581.806-6.235-.564-3.267-.564-3.267l-9.134,8.543c-.682,1.837,2.531,1.781,2.531,4.383v29.92c0,1.646-2.068,1.54-2.068,2.516,0,1.305,3.159,1.142,4.256,1.142a24.691,24.691,0,0,0,4.938-.022,16.813,16.813,0,0,1-1.616,1.108c-2.866-.136-5.249-.24-8.894-.24m44.383,5.51c.088,0,.172.008.264.008,4.1-.019,5.9-.725,6.972-1.248.613,2.021,2.04,5.121,5.092,5.462a5.622,5.622,0,0,0,4.392-1.244,4.065,4.065,0,0,0,1.2-1.94c2.689,1.416,6.927,5.538,7.709,10.518a10.25,10.25,0,0,1,.128,1.589c0,3.712-2.1,7.149-6.271,10.237-4.676,3.467-7.4,3.963-9.607,3.983.844-1.621,2.115-4.126,3.272-6.407l2.205-4.322a6.725,6.725,0,0,1,2.366-1.743c1.364-.764,2.542-1.422,2.543-2.508v0c0-.962-.978-1.513-1.3-1.692-1.2-.676-7.333-2.86-9.971-1.671a2.1,2.1,0,0,0-1.269,1.505,5.842,5.842,0,0,0-.141,1.257,8.239,8.239,0,0,0,.112,1.222,5.8,5.8,0,0,1,.087.855,3.263,3.263,0,0,1-.3,1.321c-.292.676-1.794,3.126-2.475,4.217a1.151,1.151,0,0,1-.68.162c-.09-.034-.156-.214-.18-.287a5.456,5.456,0,0,1,.079-3.884,7.465,7.465,0,0,1,.785-1.172c.934-1.259,2.1-2.822,1.659-4.322a3.082,3.082,0,0,0-2.081-1.9,24.224,24.224,0,0,0-8.34-1.813,2.777,2.777,0,0,0-1.86.755c-.113-.322-.242-.655-.4-1a8.039,8.039,0,0,0-.633-1.18c.881-.022,1.8-.091,2.756-.211a4.729,4.729,0,0,0,3.891-4.485c0-.021,0-.037,0-.056m-4.82,20.409a8.3,8.3,0,0,0,4.677,6.555c-2.162.612-7.06.168-13.406-1.219a2.285,2.285,0,0,0,1.4-.925,2.64,2.64,0,0,0,.422-1.524,12.126,12.126,0,0,0-1.6-4.795l-.274-.56a3.033,3.033,0,0,1-.276-1.362,20.785,20.785,0,0,1,.2-2.264s.047-.433.081-.744c1.511,1.23,3.558,1.384,5.883.311a4.39,4.39,0,0,0,2.377-2.6,7.088,7.088,0,0,0,.607.522,2.157,2.157,0,0,1,.593,1.779,19.024,19.024,0,0,1-.347,2.924,19.765,19.765,0,0,0-.377,3.224,6.059,6.059,0,0,0,.034.682m-21.1-3.778a3.339,3.339,0,0,1-1.511-2.823c-.008-.354-.011-.69-.011-1.009,0-1.492.069-2.623.127-3.562l.079-1.945c0-3.131.232-3.91,2.514-4.4l.339-.069c1.327-.272,2.7-.551,2.955-2.489a2.129,2.129,0,0,0,.017-.261c0-2.065-3.352-2.76-5.24-3.141.03-.231.063-.5.1-.772a35.9,35.9,0,0,0,.42-4.561c0-1.618-.3-2.792-1.181-3.185-1.356-.607-2.413.643-3.622,2.13a6,6,0,0,1-.943-1.061c0-.141,0-.824,0-.824-.006-.764-.013-1.86-.013-2.97,0-1.238.009-2.493.039-3.339,1.3.567,4.526,3.679,6.444,6.561.509.763,1.076,1.787,1.732,2.97,1.636,2.958,3.665,6.621,6.466,9.3a58.433,58.433,0,0,0-6.77,2.1c.026-.007.053-.016.081-.022a2.331,2.331,0,0,0-1.729,1.891,2.413,2.413,0,0,0-.015.252A1.878,1.878,0,0,0,103.44,64.2a2.919,2.919,0,0,1,1.174,1.555c.172,1.72.257,3.425.257,4.9,0,2.307-.2,4.039-.578,4.363a8.352,8.352,0,0,0-.793.6,3.572,3.572,0,0,0-1.368-1.842m.613,5.472c-.2-.078-.4-.157-.6-.236.047-.034.1-.061.141-.1.065-.054.127-.112.187-.172a3.126,3.126,0,0,0,.274.5m1.108-1.465c.028-.286.279-.769,1.316-1.461,1.708-1.136,1.359-7.247,1-10.789a1.039,1.039,0,0,0-.024-.126,4.556,4.556,0,0,0-1.943-2.57c-.245-.136-.228-.263-.219-.33a.765.765,0,0,1,.549-.575.669.669,0,0,0,.079-.025,49.106,49.106,0,0,1,6.6-2.047,1.826,1.826,0,0,1,1.455.562,1.153,1.153,0,0,1,.317,1,.784.784,0,0,0,1.168.819c.926-.547,2.7-1.39,4.218-.9a3.911,3.911,0,0,1,2.244,2.365c.907,2.079,1.487,4.787-.918,5.9-2.333,1.078-4.061.7-5.135-1.123a.779.779,0,0,0-.842-.36.788.788,0,0,0-.615.684l-.27,2.477c-.259,2.179-.377,3.171.206,4.454l.3.611c.522,1.044,1.9,3.822,1.283,4.741-.246.357-.925.38-1.453.337-4.32-.363-7.441-1.3-8.787-2.649a1.358,1.358,0,0,1-.523-.99M91.367,57.562c-1.083-.66-1.85-1.186-1.85-1.952,0-.516.05-.6,1.342-1.153a17.974,17.974,0,0,0,4.434-2.574,19.445,19.445,0,0,0,2.962-3.107c.574-.7,1.52-1.871,1.831-1.794a2.563,2.563,0,0,1,.278,1.545c0,1.03-.647,6.478-.5,6.687s1.326.326,1.326.326c3.6.722,3.88,1.427,3.88,1.7,0,.014,0,.023,0,.034-.1.771-.33.872-1.716,1.155l-.347.072c-3.505.742-3.755,2.736-3.755,5.928l-.078,1.847c-.06.964-.13,2.121-.13,3.656,0,.329,0,.678.01,1.044a4.854,4.854,0,0,0,2.064,3.985c.547.465.834.724.881,1.119,0,.061.009.122.009.184a1.853,1.853,0,0,1-.707,1.422,1.905,1.905,0,0,1-1.631.366l-1.2-.452a10.5,10.5,0,0,1-3.442-2.3,9.5,9.5,0,0,1-1.658-5.127l.021-1.628c.094-5.545.062-8.71-.364-9.564a4.112,4.112,0,0,0-1.661-1.421M92.389,73.5a10.092,10.092,0,0,0,1.065,2.29c-1.138-.392-2.314-.782-3.514-1.167A2.245,2.245,0,0,0,92.389,73.5M81.926,54.778l.4.573c.361.5,1.685,3.2,2.967,5.8,2.794,5.676,3.874,7.775,4.393,8.24.227.2,2.184,1.994,1.426,3.209-.412.654-.719.6-1.572.262l-.608-.211a62.948,62.948,0,0,1-8.08-3.393c-.195-.11-.425-.285-.427-.5a1.016,1.016,0,0,1,.551-.723,1.571,1.571,0,0,0,.723-1.052c.295-1.348-.7-3.472-1.4-4.495-1.324-1.941-2.407-2.88-3.414-2.946a1.422,1.422,0,0,0-1.125.417,3.672,3.672,0,0,0-.678,2.6c0,.565.033,1.187.08,1.853l.055,1.052a.9.9,0,0,0,.133.435,5.647,5.647,0,0,1,1.239,2.7,1.209,1.209,0,0,1-.021.217,6.42,6.42,0,0,1-2.206-.037l-.835-.092-.875-.081c-1.247-.117-2.8-.271-4.406-.271-.225,0-.77-.042-.918-.466s.142-1.214,1.121-1.981a.8.8,0,0,0,.3-.587c.1-2.375.2-8.565.2-9.631a1.715,1.715,0,0,0-1.137-1.548c-.461-.238-.652-.338-.631-.954.028-.851,2.714-1.026,3.6-1.081l.188-.013c3.005-.2,3.925.21,4.2.47a.309.309,0,0,1,.112.252,3.464,3.464,0,0,1-.219,1.373c-.088.145-.148.26-.157.278a.783.783,0,0,0,1.3.853,1.857,1.857,0,0,0,.262-.425,3.1,3.1,0,0,1,2.529-1.643c1.961.062,2.308.589,2.938,1.539M76.769,65.224c-.015-.307-.045-.91-.045-.91-.027-.392-.075-1.11-.075-1.776a3.316,3.316,0,0,1,.193-1.414c.208.056.887.383,2.161,2.251a6.9,6.9,0,0,1,1.187,3.084.539.539,0,0,1-.047.254,2.5,2.5,0,0,0-1.29,2.047v.021a2.119,2.119,0,0,0,1.223,1.84,63.681,63.681,0,0,0,8.472,3.553l.307.109c-7.443-2.3-15.853-4.175-23.543-3.908a3.57,3.57,0,0,0,1.224-1.022,2.7,2.7,0,0,0,1.708.56c1.53,0,3.041.143,4.256.262l.887.082.789.084c1.535.183,3.637.431,3.929-1.189a2.856,2.856,0,0,0,.051-.549,6.483,6.483,0,0,0-1.387-3.379M68.617,48.143l.278-.233V28.048a3.417,3.417,0,0,0-1.461-2.4,6.049,6.049,0,0,1-.971-1.039.856.856,0,0,1-.185-.745c.1-.212.541-.476,1.477-.578,1.339-.145,4.809-.12,6.477-.1l.863,0c1.079,0,2.081.316,2.081,2.6V46.549l.074.158c.014.027,1.275,2.647,1.849,3.986l.017.043.026.045c.058.1.311.593,0,.9l-.1-.006a3.8,3.8,0,0,0-2.283.685,1.846,1.846,0,0,0-.52-.95c-1.1-1.035-3.453-1.019-5.376-.89l-.186.009a11.426,11.426,0,0,0-3.493.621.616.616,0,0,1-.316-.391c-.115-.678.978-1.958,1.754-2.613m-2.634,6.482a2.739,2.739,0,0,0,1.1.894,2.062,2.062,0,0,1,.294.173c0,1.058-.088,6.7-.181,9.24a5.182,5.182,0,0,0-.739.8,19.7,19.7,0,0,0-1.369-1.944c-.42-3.01-.8-6.319-.8-7.338a1.1,1.1,0,0,1,.009-.146c.113-.118.33-.307.491-.445a6.45,6.45,0,0,0,1.2-1.23M25.626,41.468l.206-.228-.3-30.766-.262-.231c-1.088-.959-3.945-3.83-4.1-5.591a1.164,1.164,0,0,1,.341-.981c.739-.741,2.537-1.049,4.932-.845,4.127.351,5.645,1.089,7.492,3.272C35.6,8.059,47.066,26.886,47.59,27.692l.9,1.384.545-.387V8.794c0-1.348-1.361-2.472-2.681-3.554-.583-.482-1.554-1.284-1.629-1.611.023-.641,3.037-1.816,8.793-1.816,5.665,0,8.644,1.16,8.7,1.8a5.637,5.637,0,0,1-.875,1c-1,.994-2.363,2.359-2.363,4.181V43.246c0,2.1,1.7,5.848,2.723,7.9a21.161,21.161,0,0,0-3.506.435c-.081.018-.15.038-.225.056-1.071-1.1-4.209-5.193-5-6.355-.257-.376-1.886-3.37-3.613-6.539C46.246,33.017,42.371,25.9,40.991,23.8s-2.572-2.953-3.659-2.629c-1,.3-1.5,1.491-1.5,3.549,0,3.992.943,21.537.983,22.283l.015.271.18.2c.836.952,2.369,3.249,1.771,4.283a1.751,1.751,0,0,1-2,.924c-.133-.063-7.085-3.3-7.085-3.3l0,0a10.834,10.834,0,0,0-3.5-2.634c-.12-.061-.265-.133-.42-.206a64.239,64.239,0,0,1,9.925,4.127.654.654,0,0,0,.928-.312c.245-.407.031-1.058-.658-2l-.78-.983a2.228,2.228,0,0,1-.733-1.614c-.1-1.25-.293-24.533-.3-24.767a2.849,2.849,0,0,1,1.283-2.171c1.078-.541,2.789-.082,4.953,1.326a.282.282,0,0,0,.388-.077l.273-.4a.283.283,0,0,0,0-.322A64.946,64.946,0,0,0,31.871,6.739c-2.55-2.565-8.508-3.11-8.669-1.347,0,.024,0,.048,0,.074,0,.8,1.1,1.753,2.636,3a13.5,13.5,0,0,1,1.384,1.25c.116.159-.369,30.933-.39,32.679-.1.128-2.19,2.949-2.595,3.493a14.754,14.754,0,0,0-1.861-.537c.736-1.025,2.266-2.8,3.254-3.884M55.582,54.587l.109,1.551c.034.5.071,1.1.114,1.764-.071-.344-.146-.667-.221-1.016l-.273-1.279a3.438,3.438,0,0,0-1.635-2.484A2.942,2.942,0,0,0,51.37,53c-.045.014-5.234,1.465-5.234,1.465a2.2,2.2,0,0,0-1.515,1.406,2.945,2.945,0,0,0-.188,1.058,3.065,3.065,0,0,0,.475,1.665,3.717,3.717,0,0,0,.744.768,1.8,1.8,0,0,1,.371.359c.006.084.04.359.09.766a10.7,10.7,0,0,0-6.764-3.5c-7.96-.6-11.169,4.023-12.377,6.829a15.539,15.539,0,0,0-1.19,6.061,12.032,12.032,0,0,0,1.755,6.733c-2.773,1.958-6.015,1.58-9.652-1.181-3.278-2.484-4.379-6.859-4.7-8.623A12.278,12.278,0,0,1,13,64.624,14.554,14.554,0,0,1,15.116,56.9a8.05,8.05,0,0,1,3.152-2.567c0,.092-.01.175-.01.275a6.827,6.827,0,0,0,1.315,4.248,6.5,6.5,0,0,0,5.271,2.207c3.127.051,5.372-1.475,6.155-4.192a8.6,8.6,0,0,0,.03-5.141l5.2,2.422.05.015a3.332,3.332,0,0,0,3.853-1.627,2.612,2.612,0,0,0,.341-1.335c0-1.833-1.539-3.864-2.113-4.556-.116-2.241-.963-18.242-.963-21.935,0-1.446.281-1.965.391-2.045.173.012.837.379,1.894,1.985,1.342,2.046,5.364,9.438,8.3,14.833,2.164,3.98,3.405,6.253,3.69,6.672.037.054,2.981,4.165,4.788,6.132a2.125,2.125,0,0,0-.923,1.788,2.8,2.8,0,0,0,.045.506m-10.9,20.482c-2.535,3.1-6.935,4.153-12.726,3.056a.779.779,0,0,0-.873.485c-1.1,2.816-6.673,5.539-13.217,5.1-3.832-.256-13.048-2.093-15.86-13.626-1.594-6.545.884-18.081,9.544-21.823,7.6-3.285,12.367-.9,13.935-.118,3.762,1.881,5.071,4.6,4.008,8.291-.745,2.582-2.925,3.088-4.623,3.06A5.04,5.04,0,0,1,20.8,57.889c-1.43-1.8-.87-4.569-.862-4.6a.79.79,0,0,0-.232-.736.779.779,0,0,0-.745-.182,10.119,10.119,0,0,0-5.138,3.641,16.266,16.266,0,0,0-2.184,11.066c.356,1.947,1.578,6.776,5.3,9.6,4.518,3.424,8.751,3.653,12.249.654a.774.774,0,0,0,.272-.583.783.783,0,0,0-.253-.592c-1.672-1.516-2.84-6.966-.8-11.725,1.273-2.96,4.183-6.381,10.819-5.885a8.708,8.708,0,0,1,6.847,4.77c1.316,3.233,1.439,8.288-1.4,11.751m9.03-3.817a4.776,4.776,0,0,1-4.439-2.395c-.643-1.348-1.584-8.072-1.693-9.283a2.1,2.1,0,0,0-.924-1.418,2.474,2.474,0,0,1-.443-.433A1.482,1.482,0,0,1,46,56.929a1.4,1.4,0,0,1,.084-.5.655.655,0,0,1,.457-.449L51.814,54.5a.835.835,0,0,0,.081-.025,1.418,1.418,0,0,1,1.061.04,2.1,2.1,0,0,1,.819,1.422l.276,1.277c.566,2.621,1.1,5.1,1.723,7.535a.939.939,0,0,0,1.134.65,1.129,1.129,0,0,0,.992-1.186c-.343-3.4-.531-6.39-.642-8.176-.061-.976-.556-2.126.578-2.694a6.776,6.776,0,0,1,.693-.236,22.6,22.6,0,0,1,5.387-.437.869.869,0,0,1,.637.354.839.839,0,0,1,.2.6c-.06.241-.69.781-.992,1.041a4.151,4.151,0,0,0-.88.9c-.153.254-.436.727.679,8.644a.761.761,0,0,0,.163.378,13.62,13.62,0,0,1,1.613,2.384c.225.982.384,1.692-1.551,2.366l-1.2.444c-1.312.5-2.949,1.129-3.575.758a1.011,1.011,0,0,1-.362-.767.785.785,0,0,0-1.391-.379,4.024,4.024,0,0,1-3.545,1.858m4.02.225c-.156.043-.308.087-.461.134.11-.091.225-.186.337-.292.039.055.081.106.124.158m96.4,14.164-.006.006c-7.6,6.484-21.866,6.454-22.011,6.454l-.483,0-.22.429c-7.429,14.489-22.558,23.285-42.592,24.769-15.4,1.144-31.334-2.6-38.758-9.109a21.823,21.823,0,0,1-7.457-12.75c-1-5.323-.2-13.037,9.257-19.571,12.041-8.32,33-1.694,46.028,3.19.388.175.73.313.988.4.094.034.19.057.285.082,1.236.469,2.389.918,3.442,1.327,2.687,1.043,4.807,1.867,6.108,2.216,7.266,1.949,19.75,4.678,21.7,1.068,0,0,.371-.616.311-.842S129.8,83,129.8,83c-3.348-.32-4.841-3.986-5.007-5.609a14.5,14.5,0,0,1,.328-3.486c.41-2.425.836-4.934-.838-6.21-.91-.693-1.3-1.4-1.1-1.989a1.273,1.273,0,0,1,1.118-.818,22.836,22.836,0,0,1,7.789,1.713c.645.244,1.026.539,1.129.875.217.751-.726,2.019-1.414,2.943-.431.578-2.439,3.885-1.3,6.436a2.455,2.455,0,0,0,1.342,1.317,2.155,2.155,0,0,0,2.19-.38,31.908,31.908,0,0,0,2.936-4.856,4.917,4.917,0,0,0,.332-3.019,4.845,4.845,0,0,1,.009-1.927c.028-.123.094-.272.381-.4,1.816-.819,7.568.55,8.56,1.607.555.593-.662,1.144-1.241,1.467a7.19,7.19,0,0,0-2.989,2.385l-2.214,4.343c-1.477,2.906-3.146,6.2-3.854,7.5L135.348,86a20.441,20.441,0,0,0,13.123-4.224c6.56-4.854,7.3-9.928,6.761-13.327-.985-6.253-6.7-11.157-9.622-12.145l-1.034-.35v1.092a2.484,2.484,0,0,1-.844,1.9,4.075,4.075,0,0,1-3.174.855c-2.658-.3-3.727-4.052-3.989-5.2l-.22-.947-1.424.673c-.91.458-2.434,1.226-6.615,1.247a5.409,5.409,0,0,1-.817-.055,2.256,2.256,0,0,0-1.7-.76c-.193-.006-.379-.023-.564-.046-2.934-1.7-5.133-5.629-6.356-9.373-1.531-4.693-.343-13.6,2.355-17.646,2.679-4.013,7.4-5.006,12.647-2.656,6.031,2.7,6.286,9.613,6.387,12.212l.009.231a2.02,2.02,0,0,1-.423,1.538,2.908,2.908,0,0,1-2.126.586c-.769,0-2.391-.213-3.962-.418a36.71,36.71,0,0,0-4.9-.461,3.452,3.452,0,0,0-2.994,1.386c-.623,1.07-.407,2.626.66,4.757a4.662,4.662,0,0,0,7.244,2.262,19.406,19.406,0,0,0,3.4-2.739,13.923,13.923,0,0,1,1.28-1.122,1.364,1.364,0,0,1,1.206.349c.62.567.806,1.663.528,3.088l-.283,1.441,1.358-.567c3.34-1.4,6.657.048,8.854,1.508,6.177,4.111,11.2,13.139,11.2,20.126,0,10.295-5.215,14.748-7.178,16.423" fill="#2e2c31"/>
      <path id="패스_300" data-name="패스 300" d="M134.246,35.988a1.2,1.2,0,0,0,.071,1.183,3.2,3.2,0,0,0,2.516.993,2,2,0,0,0,1.571-.586c.542-.616.707-1.738.493-3.433-.41-3.273-2.514-7.1-5.736-8.093l-.735-.223.412.649c.767,1.207,3.138,5.463,1.408,9.51" fill="#2e2c31"/>
      <path id="패스_301" data-name="패스 301" d="M142.915,70.568c1.394-.42.918-.9.784-1.076s-4-1.184-4.424-.939c-.834.488.032,1.13-.332,2.711A59.926,59.926,0,0,1,135.3,78.8c-.587.88-2.367,4.418-6.4,11.07a41.85,41.85,0,0,1-19.247,17.391c-9.622,4.4-21.041,5.668-34.048,4.457C52.486,109.56,51.569,94.08,51.569,94.08s-1.631-6.505,2.353-11.363c3.106-3.791,8.436-8.267,21.763-7.376,2.593.172,6.683.892,10.261,1.463a52.546,52.546,0,0,0-13.02-3.625c-5.287-.6-11.119-.4-15.15.914-6.618,2.161-14.131,9.271-14,17.744.327,20.38,27.559,25.59,43.775,24.386,9.685-.722,17.741-2.679,23.895-5.821,9.537-4.863,15.051-12.116,19.151-18.542a155.539,155.539,0,0,0,9.468-17.767c.786-1.468,1.864-3.229,2.845-3.525" fill="#2e2c31"/>
      <path id="패스_302" data-name="패스 302" d="M59.307,79.456c-3.815,1.854-6.372,6.65-6.363,11.93.015,6.566,3.735,12.113,10.2,15.222,17.017,8.179,49.058,6.571,62.581-14.625l.646-1.011-1.184-.184c-9.562-1.494-16.8-4.34-25.185-7.635-2.726-1.07-5.542-2.178-8.626-3.315-12.743-4.7-22.934-4.823-32.073-.382M99.43,84.613c8.112,3.186,15.185,5.942,24.311,7.508-5.961,8.651-15.985,14.547-28.392,16.641-11,1.856-23.082.49-31.522-3.565-5.907-2.841-9.3-7.873-9.314-13.815v-.029c0-4.683,2.2-8.893,5.48-10.488,8.727-4.241,18.528-4.1,30.845.445,3.069,1.131,5.877,2.234,8.592,3.3" fill="#2e2c31"/>
      <path id="패스_303" data-name="패스 303" d="M40.673,68.052c-.18-2.713-1.041-5.057-2.248-6.114a2.118,2.118,0,0,0-3.191.211c-1.057,1.207-1.6,3.643-1.421,6.358s1.041,5.057,2.248,6.113a2.273,2.273,0,0,0,1.642.624c1.041-.071,1.907-.943,2.441-2.458a12.249,12.249,0,0,0,.529-4.734M37.6,73.677a.778.778,0,0,1-.508-.237C36.363,72.8,35.549,71,35.375,68.4s.4-4.492,1.04-5.223a.789.789,0,0,1,.473-.3.8.8,0,0,1,.506.235c.731.642,1.545,2.447,1.717,5.039.021.309.028.605.028.9,0,2.754-.866,4.582-1.537,4.627" fill="#2e2c31"/>
      <path id="패스_304" data-name="패스 304" d="M57.661,66.981c-.094-.323-.431-.665-1.494-.453-.456.091-1.116.046-1.6-1.39a43.271,43.271,0,0,1-1.266-6.129l-.232-1.423c-.28-1.585-.557-1.848-.953-2.068l-.075-.048c-.519-.323-3.344.681-4.216,1.171a1.076,1.076,0,0,0-.439.972,1.106,1.106,0,0,0,.666,1,1.025,1.025,0,0,1,.649,1.027v.024l0,.02c.3,1.448.548,3.217.769,4.78a24.159,24.159,0,0,0,.57,3.3,3.74,3.74,0,0,0,5,2.166c1.365-.539,2.878-2.068,2.615-2.95" fill="#2e2c31"/>
      <path id="패스_305" data-name="패스 305" d="M25.232,80.381a9.428,9.428,0,0,1-6.1-.891c-12.622-6-9.981-19.289-7.654-22.74,4.164-6.169,10.515-6.408,10.851-5.2.268.968-.831,1.578-.906,3.05-.176,3.492,6.369,5.094,6.192-.969-.112-3.756-5.963-8.3-15.989-3.79C4.556,53.019-3.6,70.415,10.962,80.307c4.235,2.879,10.031,2.642,12.706,2.107,2.693-.537,3.57-2.5,1.564-2.033" fill="#2e2c31"/>
      <path id="패스_306" data-name="패스 306" d="M70.518,49.766c1.848-.361,5.425-.258,6.127,1.419.7-.255.6-.62.333-1.09-.348-.616-1.336-2.6-1.336-2.6s-.126-18.27,0-20.325c.129-2.186-.885-2.221-.885-2.221H70.15c-1.467,0-.716,1.244-.716,1.244a6.486,6.486,0,0,1,1.084,2.154v19.2c-3.245,3.031,0,2.217,0,2.217" fill="#2e2c31"/>
      <path id="패스_307" data-name="패스 307" d="M34.379,74.872c-.922-1.031-1.477-2.611-1.839-5.171-.849-6,2.656-8.071,2.092-9.024-.6-1.017-4.586,1.231-5.77,6.593-.36,1.625-1.114,7.281,3.929,9.539,1.588.71,5.493.313,5.426-.382-.059-.625-2.449,0-3.838-1.555" fill="#2e2c31"/>
      <path id="패스_308" data-name="패스 308" d="M58.456,50.087c.827,1.021,1.3-.119,1.3-.119s-2.092-3.955-2.094-5.657c-.021-8.695-.081-35.347-.081-36.642,0-2.171,2.241-2.645,2.241-3.613S47.875,2.785,47.875,3.915c0,.764,2.407,2.545,2.407,3.754s.589,23.96.032,24.481c-.7.654-1.848-.81-2.375-1.338S45.832,30.15,47,31.828c.568.814,6.618,13.538,11.455,18.259" fill="#2e2c31"/>
      <path id="패스_309" data-name="패스 309" d="M58.473,56.924c.126.975.711,6.354.718,6.409a7.713,7.713,0,0,1,.086,1.143,3.983,3.983,0,0,1-.435,2,1.807,1.807,0,0,0-.309.924.907.907,0,0,0,.184.566c.617.816,2.443.561,3.322.314,1.235-.347,1.773-.631,1.978-1.043a.94.94,0,0,0,0-.785,2.371,2.371,0,0,0-.675-.839,1.8,1.8,0,0,1-.681-.964c-.122-.794-.782-6.67-.782-7.6a2.239,2.239,0,0,1,.7-1.92A1.089,1.089,0,0,0,63,54.057c-.062-.31-.485-.59-1.188-.526a13.013,13.013,0,0,0-2.634.406A1.341,1.341,0,0,0,58.3,55.4a7.775,7.775,0,0,0,.11,1.1Z" fill="#2e2c31"/>
      <path id="패스_310" data-name="패스 310" d="M38.73,60.256c-.272.467.082.787.935,1.607,3.823,3.667,1.463,11.36.985,12.392-.679,1.478-2.7,2.5.152,1.842,1.826-.423,4.518-4.46,4.833-6.958.907-7.273-6.048-10.346-6.9-8.883" fill="#2e2c31"/>
      <path id="패스_311" data-name="패스 311" d="M77.9,55.086c-.915.956-2.283,1.956-3.195,1.459-.5-.273-.965-.424-.8-1.523.27-1.824-.849-1.764-2.285-1.7-1.374.063-2.091.063-2.156.98s.555.847.555,1.861-.175,8.235-.3,9.112c-.146,1.078-1.908,2.006,2.842,2.2,2.683.111,1.568-1.143,1.536-1.942a32.3,32.3,0,0,1-.066-4.181c.146-.93.371-2.829,2.038-3.174a3.944,3.944,0,0,1,4.231,1.8,20.616,20.616,0,0,1,2.6,6.383c.1,1.175-1.674,2.177.571,3.09,1.924.782,5.99,2.788,6.146,2.063.26-1.191-.386-1.251-1.367-2.415-1.681-2-5.358-10.205-6.71-12.779-.8-1.523-2.755-2.166-3.644-1.243" fill="#2e2c31"/>
    </g>
  </g>
</svg>
