<svg id="그룹_11075" data-name="그룹 11075" xmlns="http://www.w3.org/2000/svg" xmlns:xlink="http://www.w3.org/1999/xlink" width="100.082" height="163.203" viewBox="0 0 100.082 163.203">
  <defs>
    <clipPath id="clip-path">
      <rect id="사각형_5663" data-name="사각형 5663" width="100.082" height="163.203" fill="none"/>
    </clipPath>
  </defs>
  <g id="그룹_11074" data-name="그룹 11074" clip-path="url(#clip-path)">
    <path id="패스_19396" data-name="패스 19396" d="M87.179,97.641c-.272.234.043,0,0,0" fill="#fff"/>
    <path id="패스_19397" data-name="패스 19397" d="M93.564,152.22c-1.313-.318-2.639-.576-3.969-.809q-.246-7.155-.493-14.311-.025-.729-.05-1.458l.389,0a.7.7,0,0,0,.685-.685l-.243-13.862-.036-2.016a.694.694,0,0,0-.685-.685l-2,.018-.537-18.194q-.033-1.129-.067-2.26l.553-.285a.235.235,0,0,1,.07-.028l.029-.024a1.639,1.639,0,0,0,.309-.29,1.251,1.251,0,0,0,.189-.826c-.017-1.269-.093-2.54-.139-3.809L87.2,82.771a1.647,1.647,0,0,0-.348-1.232c-.107-.11-.22-.215-.336-.319l.793,0A.7.7,0,0,0,88,80.538q-.024-4.823-.048-9.645l.335.006a.7.7,0,0,0,.685-.685q-.021-4.822-.043-9.646-.035-7.739-.068-15.478-.008-1.776-.016-3.551a.7.7,0,0,0-.685-.685l-3.1-.094c.5-.1,1-.207,1.492-.322a10.849,10.849,0,0,0,3.872-1.459A7.832,7.832,0,0,0,91.729,37.8a1.61,1.61,0,0,0,.43-.88,6.863,6.863,0,0,0,.774-3.984,12.2,12.2,0,0,0-1.352-4.1c-.506-.979-.732-2.1-1.268-3.1a4.44,4.44,0,0,0-2.584-2.07,30.273,30.273,0,0,0-3.866-1.05,42.965,42.965,0,0,1-4.258-1.264c-2.843-.982-5.626-2.139-8.365-3.379a5.009,5.009,0,0,1-1.424-.753,16.191,16.191,0,0,0-1.365-1.3,3.9,3.9,0,0,0-3.2-.907c-.988-1.077-2.393-2.18-3.9-2.1a8.521,8.521,0,0,0-1.371-1.3,5.45,5.45,0,0,0-1.432-.763c-.513-.176-.826-.06-1.089-.364a7.171,7.171,0,0,0-1.9-1.61c-.553-.309-1.177-.379-1.734-.652a8.41,8.41,0,0,1-1.536-1.165c-.918-.748-2.14-1-3.022-1.773-.334-.291-.593-.654-.964-.924a10.909,10.909,0,0,0-1.676-.783c-1.161-.59-2.245-1.439-3.35-2.132A7.428,7.428,0,0,0,40.215.022C37.4-.274,36.264,2.4,35.3,4.6c-1.02-.306-2.437.684-3.03,1.56a.71.71,0,0,0-.069.13,2.627,2.627,0,0,0-.283,1.141A24.385,24.385,0,0,1,28.412,9a10.511,10.511,0,0,1-4.906.734c-3.256-.543-3.2-5.113-6.071-6.28C14.629,2.311,12.658,5.3,11.749,7.5A27.221,27.221,0,0,0,9.9,15.72c-.161,2.015-.142,4.049-.226,6.068q-.09,2.188-.047,4.382a.743.743,0,0,0-.393.618,60.375,60.375,0,0,0-.078,6.353,7,7,0,0,0,.941,3.886,6.5,6.5,0,0,0,1.14,1.268H5.644a.7.7,0,0,0-.685.685V78.594a.727.727,0,0,0,.119.376,1.477,1.477,0,0,0-.116.582c-.01.808.023,1.62.035,2.428q.075,5.286.149,10.57l.345,24.364c.013.971.006,1.945.041,2.916a1.138,1.138,0,0,0,.673,1.183,3.961,3.961,0,0,0,1.348.058l.647-.007q.14,5.038.277,10.075L8.948,148.3l.093,3.372a28.569,28.569,0,0,0-6.874,1.966c-.991.467-2.328,1.289-2.151,2.572.239,1.727,2.793,2.472,4.156,2.911a60.136,60.136,0,0,0,10.361,2.076c5.105.692,10.245,1.12,15.386,1.423a345.352,345.352,0,0,0,38.125.116c5.316-.275,10.632-.675,15.915-1.335a74.058,74.058,0,0,0,11.013-2.007c1.562-.443,4.113-1.052,4.908-2.678,1.387-2.838-4.772-4.119-6.316-4.493" fill="#fff"/>
    <path id="패스_19398" data-name="패스 19398" d="M88.93,151.987l-.587-17.023,1.1-.011-.278-15.878-.328,0L86.5,119.1l-.636-21.556.991-.509,0,0h0l.016-.011a.36.36,0,0,0,.054-.04.241.241,0,0,0,.021-.024.367.367,0,0,0,.034-.044.3.3,0,0,0,.015-.031.286.286,0,0,0,.02-.048.246.246,0,0,0,.008-.037.284.284,0,0,0,.006-.031.134.134,0,0,0,0-.02l0-.017L86.5,82.275a.326.326,0,0,0-.119-.242l-1.813-1.506,2.744.011L87.262,70.2l1.023.017-.127-28.675-.319-.009-11.221-.34a56.633,56.633,0,0,0,7.891-1.018c1.269-.253,2.3-.479,3.15-.724a10.164,10.164,0,0,0,1.651-.608,4.645,4.645,0,0,0,1.56-1.178l.006,0c.652-.5.6-.854.6-.854l-.024,0h0a9.645,9.645,0,0,0,.587-1.329,4.761,4.761,0,0,0,.272-1.647,9.688,9.688,0,0,0-.825-3.584,13.585,13.585,0,0,0-.8-1.616c-.049-.174-.238-.836-.518-1.554a8.832,8.832,0,0,0-.576-1.227,3.529,3.529,0,0,0-.357-.509,1.812,1.812,0,0,0-.274-.26,1.874,1.874,0,0,0-.16-.131,5.973,5.973,0,0,0-1.525-.721,28.29,28.29,0,0,0-3.236-.87,63.011,63.011,0,0,1-9.767-3.324c-1.5-.626-2.812-1.211-3.748-1.638-.427-.195-.77-.355-1.023-.474l-.16-.2A7.881,7.881,0,0,0,68.3,16.667a5.66,5.66,0,0,0-1.1-.733,3.084,3.084,0,0,0-1.351-.348c-.069,0-.139,0-.21.01h-.02a1.933,1.933,0,0,0-.593.2l-.363-.425a6.3,6.3,0,0,0-.96-.872,5.14,5.14,0,0,0-1.034-.6,3.3,3.3,0,0,0-1.292-.283c-.081,0-.162,0-.244.011h-.02c-.014,0-.027.007-.041.009l-.478-.56a6.361,6.361,0,0,0-.96-.872,5.188,5.188,0,0,0-1.034-.6,3.322,3.322,0,0,0-1.258-.281l-.153-.1-.429-.5a6.3,6.3,0,0,0-.96-.872,5.188,5.188,0,0,0-1.034-.6,3.407,3.407,0,0,0-1.034-.267l-1.25-.81a6.514,6.514,0,0,0-.882-.785,5.142,5.142,0,0,0-1.034-.6,3.823,3.823,0,0,0-.487-.167l-1.338-.863a3.732,3.732,0,0,0-.541-.6A3.547,3.547,0,0,0,46.492,4.3l-.408-.262c-1.249-.8-2.329-1.487-3.148-2-.41-.257-.754-.471-1.023-.635s-.461-.277-.579-.339A3.185,3.185,0,0,0,39.855.682a3.06,3.06,0,0,0-2.633,1.551c-.139.257-.333.649-.55,1.1-.377.783-.817,1.733-1.121,2.394-.007-.016-.01-.031-.018-.047a1.287,1.287,0,0,0-.251-.326.541.541,0,0,0-.207-.126.638.638,0,0,0-.21-.033,1.036,1.036,0,0,0-.312.053,2.515,2.515,0,0,0-.514.242,5.34,5.34,0,0,0-.712.518c-.1.089-.194.175-.271.256a1.219,1.219,0,0,0-.19.246c-.03.054-.058.1-.09.152a1.106,1.106,0,0,0-.135.328A2.307,2.307,0,0,0,32.6,7.5c0,.1,0,.215.008.344-.321.174-.618.335-.879.474-.24.128-.451.238-.623.324s-.31.15-.391.182c-.263.1-.611.255-1.037.427a14.691,14.691,0,0,1-5.424,1.207c-.134,0-.269,0-.4-.008a3.622,3.622,0,0,1-1.872-.609A6.482,6.482,0,0,1,20.1,7.761c-.231-.377-.423-.742-.584-1.054s-.288-.569-.408-.755a7.744,7.744,0,0,0-.82-1.133,3.192,3.192,0,0,0-1.371-.834,1.977,1.977,0,0,0-.63-.1,2.908,2.908,0,0,0-1.571.527,3.919,3.919,0,0,0-1.011.958,6.846,6.846,0,0,0-.972,1.578,27.307,27.307,0,0,0-2.254,11.324c0,.358.008.723.02,1.091-.165,2.1-.206,4.048-.207,5.469,0,.9.017,1.58.029,1.963l-.092,0-.314-.006L9.9,27.1c0,.005-.1,1.43-.1,3.578,0,1.073.024,2.328.1,3.676a4.592,4.592,0,0,0,1.071,2.7,7.619,7.619,0,0,0,2.549,1.924H5.644V78.594l2.111.359-1.785.024a.326.326,0,0,0-.232.1.33.33,0,0,0-.094.236L6.22,120.07a.333.333,0,0,0,.334.326l2.312-.023.875,31.858C4.034,153.292.68,154.589.68,155.989c0,3.593,22.092,6.506,49.345,6.506s49.345-2.913,49.345-6.506c0-1.509-3.9-2.9-10.44-4" fill="#0d0002"/>
    <path id="패스_19399" data-name="패스 19399" d="M29.937,135.544l-6.2.062-.019,0a11.264,11.264,0,0,1-3.362-1.066,12.034,12.034,0,0,1-5.574-5.508,14.021,14.021,0,0,1-.789-1.93l.747,31.377,73.76.092-.639-18.56ZM16.22,156.614a.609.609,0,0,1-.649-.568l0-.032-.347-23.3" fill="#ff5000"/>
    <path id="패스_19400" data-name="패스 19400" d="M18.686,132.747a11.513,11.513,0,0,0,5.08,2.2l65-.646-.255-14.557-27.9.255a6.543,6.543,0,0,1-6.347,5.5H54.15a6.543,6.543,0,0,1-6.439-5.388l-33.87.309.059,2.967a15.23,15.23,0,0,0,1.424,5.253,11.37,11.37,0,0,0,3.362,4.1" fill="#ff5000"/>
    <path id="패스_19401" data-name="패스 19401" d="M52.291,9.369a2.08,2.08,0,0,1,.44-.256l-.493-.32-.049-.019a.236.236,0,0,0-.091-.016.932.932,0,0,0-.437.158,3.358,3.358,0,0,0-.542.415l-.1.1.827.382a2.593,2.593,0,0,1,.447-.44" fill="#ff5000"/>
    <path id="패스_19402" data-name="패스 19402" d="M38.7,2.578a.22.22,0,1,1,.394.2L37.96,5.045a16.321,16.321,0,0,1,2.164-.878,4.8,4.8,0,0,1,1.353-.2,4.7,4.7,0,0,1,2.239.577c.114.062.215.123.307.183a4.217,4.217,0,0,1,1.216-.448c-1.642-1.05-2.945-1.875-3.67-2.317-.264-.16-.455-.272-.541-.317a2.512,2.512,0,0,0-1.173-.3,2.4,2.4,0,0,0-2.052,1.2c-.193.355-.529,1.05-.868,1.769-.267.566-.536,1.148-.748,1.608.38-.2.757-.387,1.125-.568Z" fill="#ff5000"/>
    <path id="패스_19403" data-name="패스 19403" d="M56.125,11.725a2.062,2.062,0,0,1,.325-.2l-.381-.248a1.426,1.426,0,0,0-.208.1,2.5,2.5,0,0,0-.248.17l.466.215c.016-.013.029-.027.046-.04" fill="#ff5000"/>
    <path id="패스_19404" data-name="패스 19404" d="M48.091,6.905a2.067,2.067,0,0,1,.612-.32l-.145-.045a.618.618,0,0,0-.181-.025,1.655,1.655,0,0,0-.652.175A4.713,4.713,0,0,0,47,7.115c-.138.1-.265.2-.379.286l.746.344a2.86,2.86,0,0,1,.722-.84" fill="#ff5000"/>
    <path id="패스_19405" data-name="패스 19405" d="M20.38,16.259c2.889,1.127,6.661,2.567,10.189,3.821,1.061.377,2.145.731,3.229,1.062-.134-1.125-.257-2.235-.367-3.305-1.439-.363-3.012-.761-4.569-1.156-4.674-1.186-9.163-2.332-9.163-2.332h0l-.78-.2c-.841.22-1.716.36-2.516.541l.447.178c.862.345,2.086.83,3.531,1.393" fill="#ff5000"/>
    <path id="패스_19406" data-name="패스 19406" d="M42.7,19.658a17.92,17.92,0,0,1-3.556-.4c-.194-.042-.634-.148-1.269-.305L36.461,18.6c.14,1.192.278,2.312.4,3.27.007.052.013.1.02.154,3.091.825,5.967,1.425,8,1.747a18.469,18.469,0,0,0,2.48.272l.1,0a8.162,8.162,0,0,0,2.241-.321,3.4,3.4,0,0,0,1.439-.867,2.642,2.642,0,0,0,.584-1.068,4.98,4.98,0,0,0,.206-1.441,4.746,4.746,0,0,0-.164-1.267,7.4,7.4,0,0,0-.91-1.891,9.588,9.588,0,0,0-.957-1.27,3.931,3.931,0,0,0-.326-.29c-.146-.117-.321-.25-.509-.385-.376-.27-.8-.55-1.156-.751a3.424,3.424,0,0,0-.539-.265l-.038-.01v.008s.007.575.007,1.225c0,.326,0,.671-.007.974a2.837,2.837,0,0,1-.44,1.536,3.617,3.617,0,0,1-1.7,1.307,6.6,6.6,0,0,1-2.489.4" fill="#ff5000"/>
    <path id="패스_19407" data-name="패스 19407" d="M44.346,41.335a.261.261,0,0,0-.064-.106l0,0V68.84l.557.009c.077-4.209.135-8.824.135-13.075,0-5.171-.087-9.807-.332-12.489a11.97,11.97,0,0,0-.292-1.95" fill="#ff5000"/>
    <path id="패스_19408" data-name="패스 19408" d="M15.575,68.375l26.5.429v-28L15.29,39.992Z" fill="#ff5000"/>
    <path id="패스_19409" data-name="패스 19409" d="M48.384,68.906l39.236.636L87.5,42.181l-39.649-1.2a8.693,8.693,0,0,1,.328,1.216,13.378,13.378,0,0,1,.228,2.508c0,.425-.019.71-.023.772Z" fill="#ff5000"/>
    <path id="패스_19410" data-name="패스 19410" d="M49.779,97.1a1.014,1.014,0,0,1-1.439.387.848.848,0,0,1-.275-.271.886.886,0,0,1-.134-.465v-.47c-11.581-.481-22.251-.921-23.956-.98l-.219-.006-7.092.2h-.1a11.746,11.746,0,0,1-3.546-.619,10.19,10.19,0,0,1-5.239-3.863,11.137,11.137,0,0,1-1.346-2.685l.444,31.4L80.494,119l-.713-21.391c-1.941-.081-13.9-.582-26.281-1.1l-3.638-.151v.464l0,.026a1,1,0,0,1-.079.249" fill="#db2422"/>
    <path id="패스_19411" data-name="패스 19411" d="M11.542,93.526a11.167,11.167,0,0,0,5.023,1.315h.079l7.1-.2.632-.019,1.784-.052,6.369-.186,15.407-.451V91.939a2.709,2.709,0,0,1-.736-.576l-.07-.086-.005-.111s-.012-.309-.032-.793-.048-1.143-.08-1.842c-.063-1.4-.143-2.963-.2-3.594a1.2,1.2,0,0,0-.064-.3h-.091a6.548,6.548,0,0,1-6.143-4.292h-.135L15.248,82.65,6.859,79.626l-.549.007.078,5.509a12,12,0,0,0,1.935,5.5,9.255,9.255,0,0,0,3.219,2.881" fill="#db2422"/>
    <path id="패스_19412" data-name="패스 19412" d="M79.959,92.994h.02L80,93a.383.383,0,0,1,.069.014l.01,0,.028.013.177,0h0l1.352-.038L81.553,90.8l-.409-10.288L52.778,80.4a6.575,6.575,0,0,1-2.293,3,1.215,1.215,0,0,1,.044.2v.014s.188,3.53.282,5.779c.031.751.052,1.355.052,1.653,0,.041,0,.077,0,.108s0,.058-.006.091a.655.655,0,0,1-.089.254.958.958,0,0,1-.154.2,1.7,1.7,0,0,1-.419.3,2.376,2.376,0,0,1-.333.14v1.738l1.987-.058,28.11-.822" fill="#db2422"/>
    <path id="패스_19413" data-name="패스 19413" d="M89.83,28.092a12.6,12.6,0,0,0-.6-1.507,3.918,3.918,0,0,0-.5-.81.9.9,0,0,0-.244-.213,3.634,3.634,0,0,0-1.8-.474,12.713,12.713,0,0,0-2.19.286c-.944.174-2.149.409-3.777.644a50.268,50.268,0,0,1-7.266.588,43.681,43.681,0,0,1-6.562-.53,4.791,4.791,0,0,1-1.731-.574,3.333,3.333,0,0,1-1.083-1,4.265,4.265,0,0,1-.671-2.432,7.383,7.383,0,0,1,.25-1.846l-3.826-1.688a20.033,20.033,0,0,1-4.4,5.889l-.048.036a9.238,9.238,0,0,0-3.626,3.8,5.958,5.958,0,0,0-.533,1.643l.1.013c.274.037.677.089,1.192.151,1.03.126,2.507.292,4.29.459,3.568.334,8.365.667,13.278.667,1.419,0,2.849-.028,4.26-.091,10.682-.481,14.718-2.069,15.643-2.508-.039-.131-.092-.3-.158-.5" fill="#de3a00"/>
    <path id="패스_19414" data-name="패스 19414" d="M17.456,7.138a2.8,2.8,0,0,0-.944-1.367,2.011,2.011,0,0,0-1.2-.412,1.5,1.5,0,0,0-1.112.45,6.25,6.25,0,0,0-.87,1.425,18.863,18.863,0,0,0-1.015,2.684,29.319,29.319,0,0,0-1.174,8.354c0,.042,0,.086,0,.128.388-.575.92-1.337,1.463-2.024a11.761,11.761,0,0,1,1.026-1.159,3.184,3.184,0,0,1,.548-.435,9.912,9.912,0,0,1,3.079-.948,10.675,10.675,0,0,0,3.019-.9A3.027,3.027,0,0,0,21.4,11.926a8.893,8.893,0,0,1-1.368-.995,8.936,8.936,0,0,1-2.573-3.793m-2.61-.563a4.555,4.555,0,0,0-.521.739,11.476,11.476,0,0,0-.765,1.661c-.109.287-.224.572-.316.866s-.2.582-.3.877c-.2.586-.371,1.182-.591,1.771a13.636,13.636,0,0,1,.3-1.852,12.743,12.743,0,0,1,.544-1.8c.053-.148.117-.292.183-.436s.125-.29.2-.43l.231-.417c.076-.139.173-.268.261-.4a4.672,4.672,0,0,1,.3-.377,3.659,3.659,0,0,1,.346-.336,2.036,2.036,0,0,1,.4-.264.933.933,0,0,1,.463-.1,1.437,1.437,0,0,0-.738.5" fill="#de3a00"/>
    <path id="패스_19415" data-name="패스 19415" d="M85.611,111.556,80.5,99.275l.657,19.711H85.83Z" fill="#b32625"/>
    <path id="패스_19416" data-name="패스 19416" d="M59.4,120.168H49.129a.331.331,0,0,0,0,.661H59.4a.331.331,0,1,0,0-.661" fill="#b32625"/>
    <path id="패스_19417" data-name="패스 19417" d="M14.625,39.641H6.305V67.346l8.608.983Z" fill="#ff3600"/>
    <path id="패스_19418" data-name="패스 19418" d="M9.782,129.637l.671,24.449,3.478,3.921-.651-32.575Z" fill="#ff3600"/>
    <path id="패스_19419" data-name="패스 19419" d="M35.093,29.936l.061.169c-.011-.056-.022-.11-.033-.167l-.028,0" fill="#d0cfcd"/>
    <path id="패스_19420" data-name="패스 19420" d="M10.9,28.8l-.422-.02c-.015.532-.026,1.171-.026,1.9,0,.206,0,.42,0,.638l9.569.455a.837.837,0,0,1,.384.11.771.771,0,0,1,.331.411,1.318,1.318,0,0,1,.071.455c0,.056,0,.115-.007.177a.989.989,0,0,1-.143.453.819.819,0,0,1-.286.272,1.124,1.124,0,0,1-.555.136.928.928,0,0,1-.118-.006l-9.193-.33q.018.427.042.869a3.835,3.835,0,0,0,.242,1.148c1.377.06,12.6.547,24.208.966v-6.5c-.311-.024-.6-.042-.868-.055-5.289-.248-19.709-.911-23.232-1.072m23.973,1.69a.331.331,0,0,1-.344.316L11.018,29.8a.331.331,0,0,1,.028-.661l23.516,1.01a.33.33,0,0,1,.316.344" fill="#d0cfcd"/>
    <path id="패스_19421" data-name="패스 19421" d="M90.911,30.592A13.7,13.7,0,0,0,90.25,29.2c-1.074.5-5.21,2.079-15.875,2.561-1.423.064-2.862.092-4.29.092a155.091,155.091,0,0,1-19.272-1.341h0c-1.777-.2-3.463-.413-5.013-.644-2.416-.36-5.121-.669-7.929-.933.062.352.13.713.2,1.077,1.811.212,3.859.489,5.871.771,3.722.521,7.316,1.06,9.007,1.23a157.122,157.122,0,0,0,17.062.949q1.02,0,2.087-.014c13.172-.3,17.208-1.9,18.323-2.451.161-.08.26-.138.327-.172l.1.2c-.058.03-.165.092-.33.174s-.391.186-.694.3a19.059,19.059,0,0,1-2.89.819,82.331,82.331,0,0,1-14.832,1.352h0q-1.069.015-2.091.014a157.409,157.409,0,0,1-17.085-.95c-1.7-.171-5.293-.71-9.014-1.231-1.985-.278-4.006-.551-5.8-.761a23.4,23.4,0,0,0,1.211,4.15A8.521,8.521,0,0,0,40.6,36.587c12.5.426,26.181.795,36.415.795,6.058,0,10.908-.129,13.588-.452a7.353,7.353,0,0,0,.816-1.678,4.1,4.1,0,0,0,.232-1.419,8.963,8.963,0,0,0-.738-3.241m-.6,1.22a14.307,14.307,0,0,1-4.1,1.256,56.4,56.4,0,0,1-5.739.695c-4.134.317-8.641.377-12.022.377-2.043,0-3.676-.022-4.56-.023-.792,0-1.956-.067-3.293-.168s-2.842-.237-4.3-.38c-2.925-.285-5.675-.594-6.54-.7s-3.535-.468-5.989-.807-4.692-.653-4.692-.653a.33.33,0,0,1,.092-.654l.388.054,1.037.145c.866.121,2.039.284,3.265.453,2.452.339,5.123.7,5.977.805,1.289.153,6.829.772,10.816,1.074,1.328.1,2.486.165,3.244.166.892,0,2.52.023,4.559.023,2.53,0,5.69-.034,8.844-.184a69.4,69.4,0,0,0,8.8-.877,13.758,13.758,0,0,0,3.9-1.185.331.331,0,1,1,.32.579" fill="#d0cfcd"/>
    <path id="패스_19422" data-name="패스 19422" d="M19.751,33.342h.016l.057,0a.766.766,0,0,0,.251-.039.4.4,0,0,0,.218-.164.57.57,0,0,0,.076-.254c0-.05.006-.1.006-.14a.881.881,0,0,0-.045-.3.368.368,0,0,0-.09-.144.358.358,0,0,0-.232-.088l-9.477-.45-.065,0c.006.4.016.818.031,1.25l9.234.331Z" fill="#d0cfcd"/>
    <path id="패스_19423" data-name="패스 19423" d="M32.338,28.478,31.1,28.39l-.082-.006-19.951-.91-.529-.012c-.009.161-.02.379-.031.652-.005.136-.01.288-.016.449,2.553.117,18.115.831,23.658,1.092.263.012.551.031.857.053v-.016l.006.017.067.005q-.1-.512-.19-1.039-1.272-.1-2.549-.2" fill="#d0cfcd"/>
    <path id="패스_19424" data-name="패스 19424" d="M65.494,24.931a4.139,4.139,0,0,0,1.495.49,42.835,42.835,0,0,0,6.465.523,49.572,49.572,0,0,0,7.172-.581c1.612-.232,2.8-.464,3.751-.639.564-.1,1.042-.189,1.475-.241-.546-.15-1.19-.31-1.953-.476a63.646,63.646,0,0,1-9.88-3.36l-.334-.14a4.319,4.319,0,0,1-.77.7,5.069,5.069,0,0,1-3,.919,7.821,7.821,0,0,1-2.6-.484c-.6-.211-1.547-.607-2.751-1.138l-.3.038c-.012.053-.026.109-.039.17a6.6,6.6,0,0,0-.152,1.362,4,4,0,0,0,.292,1.578,2.662,2.662,0,0,0,1.134,1.28M78.9,23.2a.443.443,0,1,1-.442.443A.443.443,0,0,1,78.9,23.2m-3.123.206a.443.443,0,1,1-.443.443.444.444,0,0,1,.443-.443m-1.487-1.94a.443.443,0,1,1-.443.443.442.442,0,0,1,.443-.443m-.751,2.911a.443.443,0,1,1-.443.443.443.443,0,0,1,.443-.443m-1.328-1.62a.443.443,0,1,1-.443.443.442.442,0,0,1,.443-.443m-2.674.443a.443.443,0,1,1-.443.443.443.443,0,0,1,.443-.443" fill="#d0cfcd"/>
    <path id="패스_19425" data-name="패스 19425" d="M31.052,27.723h0l.509.037a27.146,27.146,0,0,1,2.394-5.3c-.025-.2-.051-.4-.075-.6C32.7,21.5,31.51,21.116,30.347,20.7c-6.594-2.343-14.017-5.328-15-5.724a4.419,4.419,0,0,0-.829.372,4.465,4.465,0,0,0-.894.836c-.348.4-.722.878-1.069,1.352-.684.935-1.271,1.844-1.41,2.062-.152,2.007-.191,3.867-.191,5.233,0,.914.017,1.606.029,1.976Z" fill="#d0cfcd"/>
    <path id="패스_19426" data-name="패스 19426" d="M36.379,17.9l1.408.351c.176-.109.354-.213.537-.305a12.32,12.32,0,0,0,4.616-4.3,15.564,15.564,0,0,0,1.452-2.756l-.868-.433c-2.606-1.3-4.645-2.344-5.577-2.863L37.8,7.509q-.562.288-1.181.616L35.524,8.7c.075,1.47.241,3.4.444,5.411.128,1.259.269,2.55.411,3.784" fill="#d0cfcd"/>
    <path id="패스_19427" data-name="패스 19427" d="M22.079,14.274c1.358.346,3.215.819,5.21,1.325s4.151,1.054,6.07,1.538c-.213-2.126-.379-4.068-.5-5.615-.041-.515-.076-.984-.106-1.4-.617.3-1.237.592-1.85.858a18.6,18.6,0,0,1-3.7,1.239,14.236,14.236,0,0,1-2.709.289,7.093,7.093,0,0,1-2.4-.365l-.049-.019a3.49,3.49,0,0,1-.985,1.1,4.888,4.888,0,0,1-.983.541l.383.1,1.618.412" fill="#d0cfcd"/>
    <path id="패스_19428" data-name="패스 19428" d="M38.078,32.82a39.829,39.829,0,0,1-1.137-5.526c-.153-1.063-.256-1.935-.336-2.421-.109-.667-.385-2.727-.69-5.266s-.637-5.547-.854-8.1c-.145-1.7-.239-3.191-.239-4.214,0-.069,0-.135,0-.2a6.818,6.818,0,0,0-.249.642,6.334,6.334,0,0,0-.233.938,6.424,6.424,0,0,0-.091.973,6.481,6.481,0,0,1-.073-.987,6.578,6.578,0,0,1,.075-1,6.936,6.936,0,0,1,.218-.989,6.14,6.14,0,0,1,.293-.8.869.869,0,0,0-.149.057,2.953,2.953,0,0,0-.407.233,4.3,4.3,0,0,0-.7.58.58.58,0,0,0-.064.08c-.063.114-.11.182-.13.223a.468.468,0,0,0-.045.167,2.44,2.44,0,0,0-.013.286c0,.109,0,.242.011.408.017.355.191,3.187.538,6.977s.866,8.55,1.574,12.771a49.829,49.829,0,0,0,1.663,7.267,19.357,19.357,0,0,0,1.018,2.525,4.674,4.674,0,0,0,.85.092,1.153,1.153,0,0,0,1.157-.551v0a8.015,8.015,0,0,1-.964-1.5,16.11,16.11,0,0,1-1.029-2.668" fill="#d0cfcd"/>
    <path id="패스_19429" data-name="패스 19429" d="M47.723,79.57V45.426l0-.037c0-.033,0-.082.008-.146.005-.127.011-.312.011-.54a12.774,12.774,0,0,0-.215-2.38,5.771,5.771,0,0,0-1.012-2.462,2.237,2.237,0,0,0-.264-.277,4.072,4.072,0,0,0-1.81-.435,2.794,2.794,0,0,0-2,.757h0c.122.021.242.043.358.066.223.045.433.1.631.148h.035a.323.323,0,0,1,.07.015c.1.03.182.064.27.1.121.041.237.085.344.133a2.461,2.461,0,0,1,.346.186,5.178,5.178,0,0,1,.485.295,3.476,3.476,0,0,1,.6.521,2.317,2.317,0,0,1,.42.657l0,.006-.005,0a2.472,2.472,0,0,0-1-.809,13.245,13.245,0,0,1,.3,2c.083.911.147,2.032.2,3.316.1,2.566.138,5.78.138,9.233,0,8.039-.209,17.374-.352,22.805a2.4,2.4,0,0,0,2.123,1c.119,0,.228-.006.321-.014m-.535-24.308h-.039c-.053-.686-.094-1.373-.135-2.06s-.085-1.373-.115-2.061c-.064-1.374-.144-2.747-.193-4.122s-.1-2.749-.147-4.124a5.9,5.9,0,0,0-.086-.99,4.465,4.465,0,0,0-.278-.942,4.918,4.918,0,0,0-1.136-1.653,3.571,3.571,0,0,1,1.458,1.5,4.111,4.111,0,0,1,.372,1.01A5.042,5.042,0,0,1,47,42.881c.041,1.375.085,2.75.113,4.126s.044,2.751.067,4.127c.013.687.015,1.375.015,2.063s0,1.376-.005,2.065" fill="#d0cfcd"/>
    <path id="패스_19430" data-name="패스 19430" d="M49.923,84.649c-.029-.55-.048-.92-.052-.984h0l-.009-.042a1.013,1.013,0,0,0-.063-.174,1.373,1.373,0,0,0-.459-.527,1.105,1.105,0,0,0-.38-.131,3.655,3.655,0,0,0-.7-.063,4.137,4.137,0,0,0-1.121.15,1.932,1.932,0,0,0-.853.463.991.991,0,0,0-.09.106,1.82,1.82,0,0,1,.243.063c.033.011.066.024.1.038l.054.007a1.773,1.773,0,0,1,.387.109,2.331,2.331,0,0,1,.648.407,3.745,3.745,0,0,1,.509.538c.071.1.144.2.212.3l.191.308L47.388,84.5a1.957,1.957,0,0,1,.075.379c.063.666.142,2.223.206,3.626.052,1.137.093,2.166.107,2.515a1.88,1.88,0,0,0,.166.142,2.6,2.6,0,0,0,.774.408,1.129,1.129,0,0,0,.354.053,1.811,1.811,0,0,0,.6-.11,1.464,1.464,0,0,0,.445-.246.367.367,0,0,0,.09-.1v-.024c0-.021,0-.051,0-.088,0-.41-.047-1.565-.1-2.831s-.129-2.659-.176-3.568m-.371,5.96h-.04c-.145-1.246-.23-2.492-.307-3.738-.031-.623-.069-1.246-.089-1.87l-.037-.935a5.494,5.494,0,0,0-.182-.846.919.919,0,0,1,.621.809l.03.939c.024.626.03,1.253.044,1.88.012,1.253.016,2.507-.04,3.76" fill="#d0cfcd"/>
    <path id="패스_19431" data-name="패스 19431" d="M48.592,96.749v.007a.258.258,0,0,0,.016.078.181.181,0,0,0,.08.094.461.461,0,0,0,.184.058.556.556,0,0,0,.067,0,.252.252,0,0,0,.124-.026.216.216,0,0,0,.07-.059.417.417,0,0,0,.069-.14V92.352h-.61Z" fill="#d0cfcd"/>
    <path id="패스_19432" data-name="패스 19432" d="M60.061,16.471a.9.9,0,0,0,.264.254,1.212,1.212,0,0,0,.651.159,3.5,3.5,0,0,0,1.146-.24c.069-.082.19-.222.346-.384a4.941,4.941,0,0,1,.935-.783,2.564,2.564,0,0,1,.286-.146l-.021-.018a4.926,4.926,0,0,0-1.255-.811,2.648,2.648,0,0,0-1.033-.23c-.058,0-.116,0-.174.008a1.347,1.347,0,0,0-.6.261,2.012,2.012,0,0,0-.442.467,2.874,2.874,0,0,0-.334.633,1.769,1.769,0,0,0,.038.347,1.338,1.338,0,0,0,.2.483" fill="#d0cfcd"/>
    <path id="패스_19433" data-name="패스 19433" d="M64.568,18.445a.879.879,0,0,0,.264.254,1.212,1.212,0,0,0,.651.159,3.529,3.529,0,0,0,1.175-.25c.07-.058.206-.169.386-.3a5.313,5.313,0,0,1,.981-.577,2.836,2.836,0,0,1,.331-.118c-.028-.029-.057-.058-.088-.088a5.656,5.656,0,0,0-1.358-1,2.408,2.408,0,0,0-1.058-.279c-.046,0-.092,0-.139.006a1.347,1.347,0,0,0-.6.261,2.053,2.053,0,0,0-.442.467,2.874,2.874,0,0,0-.334.633,1.761,1.761,0,0,0,.038.347,1.338,1.338,0,0,0,.2.483" fill="#d0cfcd"/>
    <path id="패스_19434" data-name="패스 19434" d="M55.795,13.693a1.338,1.338,0,0,0,.2.483.879.879,0,0,0,.264.254,1.212,1.212,0,0,0,.651.159,3.5,3.5,0,0,0,1.146-.24c.069-.082.19-.222.346-.384a4.942,4.942,0,0,1,.935-.783,2.4,2.4,0,0,1,.286-.145.19.19,0,0,0-.021-.019,4.935,4.935,0,0,0-1.255-.811,2.648,2.648,0,0,0-1.033-.23c-.058,0-.116,0-.174.008a1.347,1.347,0,0,0-.6.261,2.053,2.053,0,0,0-.442.467,2.874,2.874,0,0,0-.334.633,1.762,1.762,0,0,0,.038.347" fill="#d0cfcd"/>
    <path id="패스_19435" data-name="패스 19435" d="M52.158,11.82a.879.879,0,0,0,.264.254,1.212,1.212,0,0,0,.651.159,3.5,3.5,0,0,0,1.146-.24c.069-.082.19-.222.346-.384a4.942,4.942,0,0,1,.935-.783,2.4,2.4,0,0,1,.286-.145.19.19,0,0,0-.021-.019,4.908,4.908,0,0,0-1.255-.811,2.648,2.648,0,0,0-1.033-.23c-.058,0-.116,0-.174.008a1.347,1.347,0,0,0-.6.261,2.053,2.053,0,0,0-.442.467,2.874,2.874,0,0,0-.334.633,1.762,1.762,0,0,0,.038.347,1.338,1.338,0,0,0,.2.483" fill="#d0cfcd"/>
    <path id="패스_19436" data-name="패스 19436" d="M47.761,8.872a1.338,1.338,0,0,0,.2.483.879.879,0,0,0,.264.254,1.194,1.194,0,0,0,.651.159,3.469,3.469,0,0,0,1.146-.24c.069-.082.19-.222.346-.384a4.941,4.941,0,0,1,.935-.783,2.4,2.4,0,0,1,.286-.145L51.565,8.2a4.935,4.935,0,0,0-1.255-.811,2.648,2.648,0,0,0-1.033-.23c-.058,0-.116,0-.173.008a1.357,1.357,0,0,0-.6.261,2.074,2.074,0,0,0-.442.467,2.874,2.874,0,0,0-.334.633,1.762,1.762,0,0,0,.038.347" fill="#d0cfcd"/>
    <path id="패스_19437" data-name="패스 19437" d="M43.5,7.551a1.148,1.148,0,0,0,.713.219A3.335,3.335,0,0,0,45.731,7.3c.074-.068.252-.231.493-.424a6.229,6.229,0,0,1,1.2-.771,2.777,2.777,0,0,1,.6-.2,3.119,3.119,0,0,0-.257-.259,2.89,2.89,0,0,0-1.985-.747c-.077,0-.158,0-.24.008a4.118,4.118,0,0,0-1.849.823A6.63,6.63,0,0,0,42.9,6.4a2.4,2.4,0,0,0,.086.359,1.578,1.578,0,0,0,.515.8" fill="#d0cfcd"/>
    <path id="패스_19438" data-name="패스 19438" d="M10.793,35.467a4.129,4.129,0,0,0,.636,1.111,6.39,6.39,0,0,0,1.8,1.5c.233.135.466.257.694.366l3.788.081V37.206a.221.221,0,0,1,.441,0v1.332l1.382.028v-1.36a.22.22,0,1,1,.44,0v1.369L21.2,38.6V37.218a.221.221,0,0,1,.441,0v1.391l1.429.029V37.212a.22.22,0,1,1,.44,0v1.435l1.382.027V37.212a.221.221,0,0,1,.441,0v1.471l1.228.023V37.224a.221.221,0,0,1,.441,0v1.491l1.274.024V37.206a.221.221,0,0,1,.441,0v1.541l1.381.026V37.206a.221.221,0,0,1,.441,0v1.576l1.228.022V37.218a.221.221,0,0,1,.441,0v1.594l1.429.026V37.213a.221.221,0,1,1,.441,0v1.633l.921.016V36.433c-11.612-.419-22.831-.906-24.208-.966h0" fill="#75777b"/>
    <path id="패스_19439" data-name="패스 19439" d="M90.6,36.93c-2.68.323-7.53.452-13.588.452-10.234,0-23.918-.369-36.415-.795h0a4.45,4.45,0,0,0,.43.445l0,0a.221.221,0,0,1,.362.169v.107a2.543,2.543,0,0,0,.384.171,6.846,6.846,0,0,0,1,.256v-.534a.22.22,0,0,1,.44,0v.616c.4.07.813.14,1.229.235v-.836a.22.22,0,1,1,.441,0v.947a6.433,6.433,0,0,1,.633.211,4.192,4.192,0,0,1,.8.41V37.213a.22.22,0,1,1,.44,0v1.842l1.382.02V37.213a.221.221,0,0,1,.441,0v1.869L49.8,39.1V37.228a.22.22,0,1,1,.441,0V39.1l1.3.018V37.615a.22.22,0,0,1,.44,0v1.514l1.382.018V37.615a.22.22,0,0,1,.441,0v1.538l1.228.015V37.626a.221.221,0,0,1,.441,0v1.548l1.429.017v-1.57a.221.221,0,1,1,.441,0V39.2l1.381.015v-1.59a.22.22,0,1,1,.441,0v1.6l1.229.013v-1.6a.22.22,0,0,1,.44,0v1.6l1.295.013V37.615a.221.221,0,0,1,.441,0V39.25l1.384.012,0-.026V37.615a.221.221,0,0,1,.441,0v1.621l0,.03,1.232.009,0-.027V37.626a.221.221,0,0,1,.441,0v1.622l0,.03,1.436.01a.232.232,0,0,1,0-.046V37.621a.22.22,0,1,1,.441,0v1.621a.252.252,0,0,1,0,.048l1.394.007a.2.2,0,0,1-.007-.055V37.621a.22.22,0,1,1,.44,0v1.621a.212.212,0,0,1-.007.057l1.242.005a.21.21,0,0,1-.006-.051V37.632a.221.221,0,0,1,.441,0v1.621a.224.224,0,0,1-.007.052l1.013,0V38.231a.221.221,0,0,1,.441,0v1.077h1.381V38.231a.221.221,0,0,1,.441,0v1.077c.416,0,.827,0,1.229,0V38.242a.22.22,0,1,1,.44,0V39.3l1.429-.007v-1.06a.221.221,0,1,1,.441,0v1.057l1.382-.013V38.237a.221.221,0,1,1,.441,0v1.039q.636-.008,1.228-.017V38.247a.22.22,0,0,1,.441,0v1c2.111-.039,3.748-.1,4.766-.183.477-.114.9-.228,1.282-.346a6.519,6.519,0,0,0,1.986-.92,3.681,3.681,0,0,0,.821-.845l.02-.028h0" fill="#75777b"/>
    <path id="패스_19440" data-name="패스 19440" d="M46.266,39.589a2.884,2.884,0,0,0-.63-.433,5.321,5.321,0,0,0-1.159-.412c-.835-.208-1.749-.3-2.54-.517a2.925,2.925,0,0,1-1.363-.711,5.153,5.153,0,0,1-.5-.527,1.153,1.153,0,0,1-1.157.551,4.6,4.6,0,0,1-.851-.093c.041.082.083.16.124.236a4.488,4.488,0,0,0,1.045,1.365,2.5,2.5,0,0,0,.714.411,5,5,0,0,0,1.16.252c.464.058.916.121,1.337.195a2.8,2.8,0,0,1,2-.757,4.072,4.072,0,0,1,1.81.435l.011.005" fill="#75777b"/>
    <path id="패스_19441" data-name="패스 19441" d="M45.279,78.579c-.055,2.092-.1,3.6-.119,4.241l.693.017a2.333,2.333,0,0,1,.683-.445,4.059,4.059,0,0,1,1.187-.3V79.571c-.093.007-.2.013-.322.013a2.4,2.4,0,0,1-2.122-1" fill="#75777b"/>
    <path id="패스_19442" data-name="패스 19442" d="M16.957,79.588l6.223.026,3.76-8.4-6.226.1Z" fill="#c5c6c5"/>
    <path id="패스_19443" data-name="패스 19443" d="M35.723,79.666,39.6,71.007l-6.224.1L29.5,79.639" fill="#c5c6c5"/>
    <path id="패스_19444" data-name="패스 19444" d="M44.278,79.9h.305c.042-1.549.094-3.57.147-5.879l.006-.28-.458,1.008Z" fill="#c5c6c5"/>
    <path id="패스_19445" data-name="패스 19445" d="M48.384,79.431,52.245,70.8l-3.861.062Z" fill="#c5c6c5"/>
    <path id="패스_19446" data-name="패스 19446" d="M54.79,79.743l6.223.026L65.2,70.593l-6.22.1Z" fill="#c5c6c5"/>
    <path id="패스_19447" data-name="패스 19447" d="M68.1,79.8l0,0h.412l5.834-.024,4.294-9.4-6.217.1Z" fill="#c5c6c5"/>
    <path id="패스_19448" data-name="패스 19448" d="M86.7,70.246l-1.563.025L80.7,79.85h6.048Z" fill="#c5c6c5"/>
    <path id="패스_19449" data-name="패스 19449" d="M6.328,78.04h0L9.04,78.5l1.067.182,3.73-7.437-4.211-.459Z" fill="#c5c6c5"/>
    <path id="패스_19450" data-name="패스 19450" d="M44.278,74.75l.458-1.009q.03-1.353.06-2.819l-.518.009Z" fill="#75777b"/>
    <path id="패스_19451" data-name="패스 19451" d="M72.423,70.477l-7.219.117-4.192,9.175,7.09.029Z" fill="#75777b"/>
    <path id="패스_19452" data-name="패스 19452" d="M52.245,70.8l-3.861,8.629v.285l6.406.027,4.194-9.05Z" fill="#75777b"/>
    <path id="패스_19453" data-name="패스 19453" d="M15.606,71.394l.082,8.188,1.27.006,3.757-8.276Z" fill="#75777b"/>
    <path id="패스_19454" data-name="패스 19454" d="M33.375,71.107l-6.435.1-3.759,8.4,6.32.026Z" fill="#75777b"/>
    <path id="패스_19455" data-name="패스 19455" d="M78.641,70.377l-4.294,9.4-5.834.024,12.183.05,4.44-9.578Z" fill="#75777b"/>
    <path id="패스_19456" data-name="패스 19456" d="M35.723,79.666l-2.984-.013,9.3.038.039-.086V70.967l-2.476.04Z" fill="#75777b"/>
    <path id="패스_19457" data-name="패스 19457" d="M6.3,70.425v7.611l.023,0,3.3-7.253Z" fill="#75777b"/>
    <path id="패스_19458" data-name="패스 19458" d="M14.944,71.367l-1.107-.121-3.73,7.437,4.919.837Z" fill="#75777b"/>
    <path id="패스_19459" data-name="패스 19459" d="M70.92,150.765l.818-2.226-.125,2.215,1.117.005,1.694-4.634-1.137.005-.753,2.031.183-2.034-1.207.024-1.683,4.626Z" fill="#fff"/>
    <path id="패스_19460" data-name="패스 19460" d="M74.088,150.765l1.693-4.638-1.11,0-1.692,4.635Z" fill="#fff"/>
    <path id="패스_19461" data-name="패스 19461" d="M81.347,151.1l-1.338,4.643.347-4.638-.718,0,5.481-2.349-5.513,1.475.145-.438-1.187.025.387-1.11.993,0,.291-.829-.979.005.338-.923.972,0,.312-.86-3.129.015-1.129,1.341.521-1.346-1.108.014-1.695,4.624,1.118-.016.716-1.978.012,1.989,1.481,0-5.224,1.42a2.91,2.91,0,0,1-2.421-.112c-1.254-.911-.3-2.754.043-3.3a17.913,17.913,0,0,0-1.7,2.075c-.746,1.169-1.069,2.421-.552,3.23.918,1.451,3.1.774,4.479.2l6.287-2.695-2.229,4.26,1.3-.026.271-.6.86,0-.065.613L80,155.809v0l1.247-.01,1.373-4.689Zm-4.129-.647-.075-2.323,1.548-1.845.08-.078Zm1.869,2.655-.168,1.106-.552-.008.494-1.082c.142-.295.246-.6.372-.889l.015,0c-.05.3-.122.574-.161.877" fill="#fff"/>
    <path id="패스_19462" data-name="패스 19462" d="M84.061,151.09H82.833l-1.347,4.7,1.266,0,.373-1.253c.059-.23.118-.457.18-.7l.156,1.948,1.362-.009-.38-1.958a1.689,1.689,0,0,0,1.074-1.164c.343-1.255-.348-1.568-1.456-1.571m.183,1.58a.739.739,0,0,1-.675.6l-.084.008.346-1.154c.34-.038.544.131.413.551" fill="#fff"/>
    <path id="패스_19463" data-name="패스 19463" d="M37.332,102.931v4.487h2.507l4-9.873-2.406,0-1.651,4.025V97.542l-2.65,0-4.009,9.874,2.4.011s1.426-3.536,1.813-4.5" fill="#fff"/>
    <path id="패스_19464" data-name="패스 19464" d="M43.451,107.418l4-9.876H45l-4,9.878Z" fill="#fff"/>
    <path id="패스_19465" data-name="패스 19465" d="M62.582,104.873l-5.574,1.5.337-.86-2.9,0,.9-2.347,2.347,0,.7-1.755-2.322,0,.884-2.126,2.357,0,.707-1.75H55.205l-3.912,9.653-.554-4.848,4.412-4.8H52.513l-2.635,2.773,1.139-2.772-1.631,0a.918.918,0,0,1-.448.112,1.169,1.169,0,0,1-.154-.01,1.325,1.325,0,0,1-.223-.051l-3.986,9.82,2.441,0,1.555-3.957c0,.014.028.294.392,3.944l2.24.011h1.94l-3.7.964c-4.17,1.088-7.182,1.873-9.133,2.327-4.451,1.042-5.684,1.085-6.939.244-.976-.653-1.41-1.766-1.332-3.4a7.4,7.4,0,0,1,.412-1.949,10.347,10.347,0,0,1,.486-1.19c.054-.115.151-.3.151-.3s-.437.408-.809.807c-.22.237-.306.316-.908,1-.661.75-1.4,1.589-2.168,2.638a10.584,10.584,0,0,0-2.212,4.687,5.582,5.582,0,0,0,.322,2.878c1.753,3.453,5.327,2.716,12.188-.108,3.819-1.574,29.626-13.054,29.626-13.054Z" fill="#fff"/>
    <path id="패스_19466" data-name="패스 19466" d="M77.356,51.552l-.659,1.42h.193l.17-.382h.593l.167.382h.194l-.65-1.439Zm-.224.882c.01-.022.213-.473.229-.507.015.034.213.485.222.507Z" fill="#fff"/>
    <path id="패스_19467" data-name="패스 19467" d="M83.052,51.991c0-.256-.173-.38-.528-.38h-.278v1.361h.175v-.589h.1l.42.585.2,0h.018l-.454-.606a.366.366,0,0,0,.35-.375m-.526.242h-.105v-.466h.1c.185,0,.351.018.351.235s-.176.231-.349.231" fill="#fff"/>
    <path id="패스_19468" data-name="패스 19468" d="M80.012,52.972h.176V51.611h-.176Z" fill="#fff"/>
    <path id="패스_19469" data-name="패스 19469" d="M83.479,46.424a.259.259,0,1,0-.276-.259.264.264,0,0,0,.276.259m0-.473a.215.215,0,1,1-.221.214.214.214,0,0,1,.221-.214" fill="#fff"/>
    <path id="패스_19470" data-name="패스 19470" d="M83.422,46.186h.055l.082.129h.053l-.089-.131c.046-.006.082-.028.082-.082s-.037-.084-.111-.084h-.119v.3h.047Zm0-.13h.065c.033,0,.068.007.068.044s-.036.048-.076.048h-.057Z" fill="#fff"/>
    <path id="패스_19471" data-name="패스 19471" d="M77.844,50.688l7.778-3.2-3.346.862.1-.258-.725,0,.247-.648h.59l.179-.479H82.08l.2-.54h.587l.193-.5h-1.9l-.687.789.316-.789h-.676L79.09,48.64h.675l.437-1.159.008,1.159h.947l-3.219.83a1.838,1.838,0,0,1-1.463-.07c-.764-.54-.185-1.62.026-1.942a9.584,9.584,0,0,0-1.036,1.222,1.834,1.834,0,0,0-.342,1.893c.553.855,1.878.464,2.721.115m2.995-2.217-.051-1.358.949-1.088.048-.04Z" fill="#fff"/>
    <path id="패스_19472" data-name="패스 19472" d="M78.936,48.64l1.035-2.713h-.677L78.259,48.64Z" fill="#fff"/>
    <path id="패스_19473" data-name="패스 19473" d="M77.023,48.64l.5-1.3-.082,1.3h.669l1.036-2.713h-.679l-.459,1.191.107-1.191h-.73l-1.03,2.713Z" fill="#fff"/>
    <path id="패스_19474" data-name="패스 19474" d="M38.963,6.93c-.217.1-.451.218-.692.34l.008,0c.413.228,1.011.543,1.754.926,1.235.636,2.874,1.461,4.74,2.387l9.062,4.426c2.012.967,4,1.912,5.824,2.765a.347.347,0,0,1,.142.026l4.389,1.936a.324.324,0,0,1,.175.2c1.378.612,2.458,1.066,3.092,1.289a7.36,7.36,0,0,0,2.453.46,4.641,4.641,0,0,0,2.721-.818,3.915,3.915,0,0,0,.709-.635L69.372,18.4l-.412-.166a.426.426,0,0,0-.153-.024,1.344,1.344,0,0,0-.5.125,3.81,3.81,0,0,0-.577.312,6.529,6.529,0,0,0-.684.505l0,0L67,19.189l-.056.022a5.393,5.393,0,0,1-.739.221,1.533,1.533,0,0,1-2.525-1.685c0-.058,0-.106,0-.142s0-.061,0-.067l0-.041.013-.041a3.209,3.209,0,0,1,.234-.526,3.111,3.111,0,0,1,.6-.778l-.515-.237a1.323,1.323,0,0,0-.242.117,3.416,3.416,0,0,0-.542.415,6.5,6.5,0,0,0-.644.683l0,0-.057.072-.086.032a5.353,5.353,0,0,1-.674.2,1.532,1.532,0,0,1-2.569-1.476,2.575,2.575,0,0,1-.026-.333c0-.038,0-.062,0-.068l0-.041.013-.041a3.316,3.316,0,0,1,.234-.526,3.057,3.057,0,0,1,.68-.849l-.565-.261a3.974,3.974,0,0,0-.377.306,6.726,6.726,0,0,0-.644.683l0,0-.057.072-.086.031a5.446,5.446,0,0,1-.751.226A1.535,1.535,0,0,1,55.1,13.493c0-.065-.005-.119-.006-.156s0-.062,0-.067l0-.042.013-.04a3.156,3.156,0,0,1,.234-.527,3.437,3.437,0,0,1,.4-.567l-.5-.228a6.946,6.946,0,0,0-.57.613l0,0-.057.071-.086.033a5.643,5.643,0,0,1-.67.2,1.535,1.535,0,0,1-2.592-1.638c-.005-.071-.006-.129-.007-.172s0-.061,0-.067l0-.041.013-.041a3.209,3.209,0,0,1,.234-.526c.022-.04.051-.086.077-.129l-.9-.414c-.122.136-.2.235-.217.252l0,0-.057.072-.086.031c-.128.049-.249.089-.368.125a1.671,1.671,0,1,1-2.9-1.645c0-.032,0-.062,0-.083,0-.039,0-.063,0-.068l0-.042.013-.04c0-.008.031-.1.089-.23l-.914-.422c-.052.047-.086.079-.095.088l0,0-.033.032-.04.022a4.82,4.82,0,0,1-1.315.509,1.671,1.671,0,0,1-2.587-2.1,2.7,2.7,0,0,0-.632-.067,4.893,4.893,0,0,0-.99.112,8.224,8.224,0,0,0-1.595.614" fill="#fff"/>
    <path id="패스_19475" data-name="패스 19475" d="M50.552,29.924a6.42,6.42,0,0,1,.582-1.892,9.842,9.842,0,0,1,3.872-4.112,19.4,19.4,0,0,0,4.274-5.759L44.789,11.084a16.049,16.049,0,0,1-1.383,2.654,12.84,12.84,0,0,1-4.884,4.6c-.039.02-.077.043-.116.063.433.106.74.179.879.209A17.152,17.152,0,0,0,42.7,19a6,6,0,0,0,2.231-.342,2.972,2.972,0,0,0,1.4-1.059,2.18,2.18,0,0,0,.333-1.187c.005-.3.006-.639.006-.962s0-.628,0-.852c0-.168,0-.29,0-.341a.863.863,0,0,1-.009-.122.669.669,0,0,1,.047-.255.532.532,0,0,1,.259-.281.63.63,0,0,1,.276-.06,1.077,1.077,0,0,1,.329.058,3.062,3.062,0,0,1,.48.218c.179.1.376.212.58.341.408.256.842.558,1.19.826a5.078,5.078,0,0,1,.557.482,10.07,10.07,0,0,1,1.033,1.366A8.078,8.078,0,0,1,52.4,18.9a5.415,5.415,0,0,1,.188,1.445,5.662,5.662,0,0,1-.235,1.636,3.271,3.271,0,0,1-.744,1.335A4.059,4.059,0,0,1,49.9,24.347a8.786,8.786,0,0,1-2.424.353l-.118,0a19.032,19.032,0,0,1-2.583-.279c-1.147-.182-2.551-.45-4.108-.8-1.162-.257-2.409-.558-3.7-.9.128.975.231,1.7.285,2.035.064.387.136.967.233,1.68.078.577.174,1.242.29,1.952,5.208.53,10.7,1.249,12.772,1.526" fill="#fff"/>
    <path id="패스_19476" data-name="패스 19476" d="M31.984,27.9c.875.056,1.82.13,2.805.216-.261-1.522-.5-3.116-.709-4.715-.009-.071-.018-.143-.028-.214-.087.154-.177.309-.258.462a27.379,27.379,0,0,0-1.81,4.251" fill="#fff"/>
    <path id="패스_19477" data-name="패스 19477" d="M16.712,4.613a1.339,1.339,0,0,0-.423-.066,1.892,1.892,0,0,0-.735.164,2.7,2.7,0,0,1,1.353.531A3.449,3.449,0,0,1,18.08,6.923a8.2,8.2,0,0,0,2,3.154c.2.153.373.292.526.41.243.188.427.326.515.387l.038.025c.059.032.11.067.169.106s.122.082.2.129a4.005,4.005,0,0,0,.592.306,6.122,6.122,0,0,0,2.376.4,13.64,13.64,0,0,0,2.582-.276,21.682,21.682,0,0,0,4.768-1.745c.286-.135.573-.274.858-.415-.021-.327-.041-.607-.055-.833-.406.22-.765.412-1.056.562-.272.139-.48.241-.636.3-.243.1-.6.249-1.032.425s-.954.374-1.538.56a13.734,13.734,0,0,1-4.133.7c-.143,0-.287,0-.431-.009a4.238,4.238,0,0,1-1.97-.571,5.637,5.637,0,0,1-1.44-1.218,12.882,12.882,0,0,1-1.631-2.6c-.092-.178-.17-.321-.224-.4a7.145,7.145,0,0,0-.745-1.038,2.51,2.51,0,0,0-1.1-.663" fill="#fff"/>
    <path id="패스_19478" data-name="패스 19478" d="M35.877,6.832l-.392.207c0,.082,0,.167,0,.258,0,.2.005.43.012.673l1.245-.656c.99-.519,1.877-.971,2.6-1.277a6.035,6.035,0,0,1,1.084-.368,5.5,5.5,0,0,1,1.124-.125,2.959,2.959,0,0,1,1.1.182,7.279,7.279,0,0,1,.6-.5c.048-.036.1-.071.149-.107a4.036,4.036,0,0,0-1.915-.493A4.1,4.1,0,0,0,40.31,4.8a15.05,15.05,0,0,0-1.968.794c-.77.359-1.621.792-2.465,1.236" fill="#fff"/>
    <path id="패스_19479" data-name="패스 19479" d="M41.275,42.359a.331.331,0,1,0,.012-.661l-24.3-.454,24.281,1.115Z" fill="#fff"/>
    <path id="패스_19480" data-name="패스 19480" d="M44.325,121.695a.331.331,0,0,0-.014-.661l-26.4.573,26.407.088Z" fill="#fff"/>
    <path id="패스_19481" data-name="패스 19481" d="M78.714,99.317l-.5,17.323v.044a.61.61,0,0,0,1.219-.051Z" fill="#fff"/>
    <path id="패스_19482" data-name="패스 19482" d="M16.831,43.626l-.3,23.281v.032a.61.61,0,1,0,1.219-.048Z" fill="#fff"/>
    <path id="패스_19483" data-name="패스 19483" d="M15.222,132.716l.348,23.3v.032a.61.61,0,1,0,1.217-.082Z" fill="#fff"/>
    <path id="패스_19484" data-name="패스 19484" d="M63.3,121.6l23.316-.573-23.323-.088h-.009a.331.331,0,0,0,.016.661" fill="#fff"/>
    <path id="패스_19485" data-name="패스 19485" d="M57.02,42.947l29.046.454L57.038,42.286H57.03a.331.331,0,0,0-.01.661" fill="#fff"/>
    <path id="패스_19486" data-name="패스 19486" d="M34.562,30.148,11.046,29.139a.33.33,0,0,0-.028.66l23.516,1.009a.33.33,0,0,0,.028-.66" fill="#fff"/>
    <path id="패스_19487" data-name="패스 19487" d="M86.21,33.068a14.328,14.328,0,0,0,4.1-1.256.331.331,0,0,0-.32-.579,13.768,13.768,0,0,1-3.9,1.185,69.229,69.229,0,0,1-8.8.877c-3.154.15-6.314.184-8.843.184-2.039,0-3.667-.022-4.559-.023-.758,0-1.916-.066-3.245-.166-3.987-.3-9.527-.921-10.815-1.074-.854-.1-3.526-.466-5.977-.8l-3.265-.454-1.037-.145-.388-.054a.33.33,0,1,0-.092.654s2.238.314,4.691.653,5.12.7,5.99.807,3.615.412,6.54.7c1.462.142,2.968.278,4.3.379s2.5.167,3.293.168c.884,0,2.517.023,4.56.023,3.381,0,7.888-.06,12.022-.377a56.4,56.4,0,0,0,5.739-.695" fill="#fff"/>
    <path id="패스_19488" data-name="패스 19488" d="M64.326,26.461a2.454,2.454,0,0,0,.273.2,5.338,5.338,0,0,0,.587.349c.206.09.41.2.623.274a6.756,6.756,0,0,0,.643.218c.216.064.433.133.653.179.439.105.883.175,1.327.246a24.075,24.075,0,0,0,2.675.177q1.329.029,2.663.007a45.889,45.889,0,0,0,5.312-.391A19.7,19.7,0,0,0,84.229,26.4a24.96,24.96,0,0,1-5.194.9c-.875.075-1.755.125-2.634.151s-1.759.043-2.638.044c-1.76-.01-3.529-.023-5.256-.187-.433-.046-.866-.091-1.292-.169-.216-.026-.426-.073-.639-.115s-.42-.1-.63-.15-.411-.124-.62-.185c-.2-.081-.406-.147-.6-.246a2.641,2.641,0,0,1-1.031-.77,1.614,1.614,0,0,0,.376.558,2.3,2.3,0,0,0,.252.232" fill="#fff"/>
    <path id="패스_19489" data-name="패스 19489" d="M41.177,20.567a12,12,0,0,0,1.314.179,8.617,8.617,0,0,0,1.335.018A5.2,5.2,0,0,0,46.409,20a3.135,3.135,0,0,0,.961-.971,3.293,3.293,0,0,0,.45-1.254,4.676,4.676,0,0,1-.666,1.1,3.376,3.376,0,0,1-.961.777,5.007,5.007,0,0,1-1.154.452,7.814,7.814,0,0,1-1.246.2,13.862,13.862,0,0,1-2.565-.068,25.939,25.939,0,0,1-2.572-.42,12.713,12.713,0,0,0,2.521.755" fill="#fff"/>
    <path id="패스_19490" data-name="패스 19490" d="M13.245,9.841c.091-.3.206-.579.314-.866a11.7,11.7,0,0,1,.766-1.661,4.618,4.618,0,0,1,.521-.739,1.437,1.437,0,0,1,.738-.5.917.917,0,0,0-.462.1,2.05,2.05,0,0,0-.406.264,3.783,3.783,0,0,0-.346.336,4.661,4.661,0,0,0-.3.377c-.088.132-.184.261-.262.4l-.23.417c-.074.14-.132.287-.2.43s-.13.288-.183.436a12.88,12.88,0,0,0-.545,1.8,13.488,13.488,0,0,0-.3,1.851c.218-.588.391-1.184.589-1.77.1-.3.192-.587.3-.877" fill="#fff"/>
    <path id="패스_19491" data-name="패스 19491" d="M49.079,84.066l.037.936c.02.623.058,1.246.089,1.87.077,1.246.162,2.491.307,3.738l.04,0c.056-1.253.052-2.507.04-3.76-.014-.626-.02-1.253-.044-1.879l-.03-.94a.921.921,0,0,0-.621-.809,5.615,5.615,0,0,1,.182.846" fill="#fff"/>
    <path id="패스_19492" data-name="패스 19492" d="M46.195,40.964a4.465,4.465,0,0,1,.278.942,6.01,6.01,0,0,1,.086.991c.046,1.374.089,2.749.147,4.124s.129,2.748.193,4.122c.03.687.072,1.374.115,2.06s.082,1.374.134,2.06h.04c.009-.688.006-1.376.005-2.064s0-1.377-.015-2.064c-.023-1.376-.029-2.752-.067-4.127s-.072-2.75-.113-4.125a5.044,5.044,0,0,0-.109-1.061,4.111,4.111,0,0,0-.372-1.01,3.571,3.571,0,0,0-1.458-1.5,4.927,4.927,0,0,1,1.136,1.653" fill="#fff"/>
    <path id="패스_19493" data-name="패스 19493" d="M81.812,80.65l.5,12.482,4.036,2.94-.4-11.1Z" fill="#b32625"/>
  </g>
</svg>
