<svg id="그룹_49" data-name="그룹 49" xmlns="http://www.w3.org/2000/svg" xmlns:xlink="http://www.w3.org/1999/xlink" width="87.001" height="145.441" viewBox="0 0 87.001 145.441">
  <defs>
    <clipPath id="clip-path">
      <rect id="사각형_29" data-name="사각형 29" width="87.001" height="145.441" fill="none"/>
    </clipPath>
  </defs>
  <g id="그룹_48" data-name="그룹 48" clip-path="url(#clip-path)">
    <path id="패스_219" data-name="패스 219" d="M57.641,83.529a.935.935,0,0,0,.44-.5,5.536,5.536,0,0,1-.048-.888c.054-.268.549-.328.685-.621s-.086-.761-.184-1.021c.353-.4.571-.67.559-.918a13.456,13.456,0,0,0-.655-1.217c-.052-.172.237-.53.25-.628.023-.146-.1-.283-.517-.56a4.714,4.714,0,0,0-1.633-.46c-.339-.078-.442-.066-.636-.31a1.037,1.037,0,0,0-.7-.268,2.74,2.74,0,0,0-.913.352c-.329.191-.7.406-.7.406h-.12c-.594-1.026-1.171-2-1.735-2.883.035,0,.072-.009.108-.012a13.743,13.743,0,0,1,2.238-.076,10.45,10.45,0,0,0,2.062.043,17.623,17.623,0,0,1,2.755.093c.962.055,1.924.034,2.887.048,2.066.029,4.13.138,6.193.211a28.852,28.852,0,0,0,5.972-.067,3.448,3.448,0,0,0,2.542-2.509,6.243,6.243,0,0,0,.086-2.308c-.054-.526-.1-1.052-.146-1.58-.014-.2-.1-.576.039-.759.421-.541,1.008-.253,1.186-1.09a2.726,2.726,0,0,1,.283-1.044,6.484,6.484,0,0,1,.742-.712,6.922,6.922,0,0,0,1.479-1.8c.314-.737-.175-1.065-.448-1.684-.266-.6.411-1.483.541-2.085.071-.334-.121-.695-.01-1.012A1.124,1.124,0,0,1,81,57.051c.381-.119.552.123.844.318a1.045,1.045,0,0,0,1-.026c.315-.149.575-.393.875-.567a1.911,1.911,0,0,1,.475-.212c.222-.058.077-.056.226-.186A2.494,2.494,0,0,0,85.05,55.1a8.329,8.329,0,0,0,.766-1.97,3.207,3.207,0,0,0-.32-2.294c-.2-.24-.515-.359-.708-.606A1.367,1.367,0,0,1,84.6,49.4a1.325,1.325,0,0,0-.289-.646c-.181-.281-.6-.282-.766-.573s-.092-.627-.295-.889a2.09,2.09,0,0,0-.886-.65c-.353-.143-.537-.472-.793-.73-.214-.213-.56-.3-.722-.56s.068-.682.262-.878c.232-.233.149-.489.472-.669.61-.338,1.244-.638,1.317-1.416.056-.6-.674-1.041-.843-1.565-.108-.333-.153-.736-.457-.958a1.115,1.115,0,0,1-.459-.835,3.844,3.844,0,0,0-.354-1.14c-.144-.3-.448-.6-.466-.945-.023-.422.132-.777-.22-1.114-.242-.234-.58-.257-.83-.461a1.237,1.237,0,0,1-.334-.74,1.613,1.613,0,0,0-.521-.758c-.365-.385-.058-1.012-.424-1.382a7.863,7.863,0,0,0-.843-.786A35.717,35.717,0,0,0,6.768,29.888a5.645,5.645,0,0,0-.861,2.859c-.083.992-.132,1.968-.178,2.96a5.265,5.265,0,0,1-.872,2.38c-.244.4-.535.766-.766,1.171a8.109,8.109,0,0,0-.435,1.114,17.461,17.461,0,0,1-1,2.168c-.232.414-.536.8-.714,1.2-.2.433-.624.813-.748,1.261a3.377,3.377,0,0,0,.484,2.255,6.132,6.132,0,0,0,1.518,2A4.926,4.926,0,0,0,4.783,50.5a1.717,1.717,0,0,1,.543.364c.136.257.486.276.625.528a2.238,2.238,0,0,0,.369.473,1.631,1.631,0,0,0-.062.536,3.36,3.36,0,0,0-.729,2.111,5.932,5.932,0,0,0,1.013,2.334,4.064,4.064,0,0,0-.52,2.549,2.649,2.649,0,0,0,.818,1.4A2.083,2.083,0,0,0,7.5,62.786a1.1,1.1,0,0,0,.391.505,1.282,1.282,0,0,0-.153,1.632,1.249,1.249,0,0,0,.812.48s-.7-1.079.2-1.1a.747.747,0,0,0,.622.708c.2.009.267.432.938.417.467-.01.547-.3.762-.779.187-.424.378.032.529.423l-.028.028-.05.051c-.026.027-.049.054-.076.083a.694.694,0,0,0-.05.058c-.024.029-.049.059-.073.09s-.033.042-.05.064-.048.065-.071.1-.032.043-.046.066c-.027.039-.052.079-.077.119-.014.02-.026.04-.04.06-.036.063-.073.126-.109.193-2.347,4.329-5.45,13.869,6.782,30.286v-.012l.086.117.009,0c-.006-.019-.012-.041-.017-.06.2,1.167,4.808,5.62,4.808,5.62s1.988.073,5,.105c3.227.033,6.72.061,7.326.035a18.742,18.742,0,0,0,3.145-2.947c4.865-6.463,7.685-14.639,8.428-16.688l.357-.938h-.011l.359-.028a13.681,13.681,0,0,0,.919,1.846c1.086,2.033,3.02,5.153,5.339,6.749,3.051,2.1,4.615,3.355,5.322,4.451a1.468,1.468,0,0,0-.224-.071c-.165-.036,0,.229,0,.366s.023.8.049.9.079.7.08.708h0a3.681,3.681,0,0,0-.341,1.213s.332.961.433,1.36a1.754,1.754,0,0,0,.452.725s-.012.652.459.813a24.115,24.115,0,0,0,3.566-.177c.172,0,3.078.006,3.38.033s2.706.077,2.706.077c.2.05,2.377.06,2.93.042a26.466,26.466,0,0,0,2.9-.315,4.356,4.356,0,0,0,1.571-.694c.139-.207.493-.389.087-1.019-.191-.535-1.808-.888-1.808-.888l-1.221-.422-.276-.109-.972-.387a.354.354,0,0,0-.222-.307c-.213-.074-.206.049-.255.074l-.277-.082s.1-.142-.181-.254c-.206-.082-.247.057-.247.057l-.409-.172s.1-.152-.205-.27a.177.177,0,0,0-.259.121l-.54-.188s.118-.212-.217-.31-.295.114-.295.114l-.255-.089A.232.232,0,0,0,69,95.158s-.206-.107-.279.016c-.114-.048-.467-.213-.467-.213s.016-.09-.141-.155-.186.04-.186.04l-.442-.254s.049-.115-.116-.2-.223.009-.223.009l-.122-.058a12.6,12.6,0,0,0-1.476-.705.713.713,0,0,0-.446.388c-.256-.162-.532-.348-.809-.555C63.422,92.824,59.634,86.255,57.641,83.529Zm-30.694-6.21h0c3.48,1.462,6.823,2.832,7.2,3.023.02.011.046.023.081.039-.609.637-1.375,1.532-2.143,2.463-1.695,2.062-3.4,4.3-3.4,4.3s-.018.019-.049.056l-.009-.118s-3.277-1.641-4.123-3.934a1.187,1.187,0,0,0-.16-.774,2.349,2.349,0,0,0-.107-1.427,1.156,1.156,0,0,0,.184-1.141C24.846,79.528,26.685,78.889,26.947,77.319Z" fill="none"/>
    <path id="패스_220" data-name="패스 220" d="M60.224,36a18.439,18.439,0,0,0-36.841,1.671l0,.009,36.839-1.671Z" fill="#f6eb3f"/>
    <path id="패스_221" data-name="패스 221" d="M17.633,37.936a24.2,24.2,0,1,1,48.345-2.193v.009L71.5,35.5v-.01a29.731,29.731,0,0,0-59.4,2.694v.01l5.529-.252Z" fill="#c5031b"/>
    <path id="패스_222" data-name="패스 222" d="M23.383,37.674A18.439,18.439,0,0,1,60.224,36v.009l5.754-.26v-.01a24.2,24.2,0,1,0-48.345,2.194v.008l5.752-.261,0-.009" fill="#e2a60b"/>
    <path id="패스_223" data-name="패스 223" d="M12.1,38.186a29.731,29.731,0,0,1,59.4-2.695v.01l5.976-.271v-.009A35.713,35.713,0,0,0,6.127,38.457v.009l5.977-.271Z" fill="#0092bf"/>
    <path id="패스_224" data-name="패스 224" d="M26.5,19.624c.286-.013,1.027-.139,1.212.151.089.138.436.214.589.407.2.257.333.594.626.765a2.749,2.749,0,0,0,.858.195,1.649,1.649,0,0,1,.829.492c.221.223.4.474.747.5a11.536,11.536,0,0,1,1.163-.05c.822.139.9.806,1.171,1.464.179.448.966.591,1.373.763a.654.654,0,0,0,.771-.2c.227-.245.489-.462.71-.708s.439-.229.581-.568.187-.691.321-1.005c.239-.558.938.8,1.2.857.5.107,1.007-.716,1.434-.9,1.207-.51,2.949-.578,3.914.452a3.845,3.845,0,0,1,.622,2.3c.126.893.6.693,1.2.294a3.96,3.96,0,0,1,2.206-.63c.4-.017.755.085.945-.321a2.693,2.693,0,0,0,.39-1.007c.384-.018.24-.916.656-.935-.012-.258.781-.673.986-.707a2.286,2.286,0,0,1,1.239.235,4.009,4.009,0,0,1,.754.66,9.094,9.094,0,0,1,1.08.887,2.208,2.208,0,0,1,.433,2.127,3.325,3.325,0,0,1-.587,1.04,5.366,5.366,0,0,0-.72.805c-.134.262.019.474.213.646.255.226.344.133.683.129s.5.307.8.391c.424.119.66-.241,1.033-.307s.689.271,1.129.159c.409-.1.8-.267,1.207-.391a2.847,2.847,0,0,0,1.041-.4c.332-.282.2-.7.386-1.047a.745.745,0,0,1,.92-.262c.427.124.5.3.759.606.24.276.6.242.886.43.381.251.567.677.879,1a3.185,3.185,0,0,1,.824,2.1c.029.29-.07.711.175.936s.663.12.97.146a2.494,2.494,0,0,1,1.747,1.037c.156.209.255.546.558.584.426.053.822-.3,1.25-.315l.507-.023c0-.094.194-.168.262-.171,0-.163.285-.378.415-.441.246-.12.359-.278.618-.316a4.5,4.5,0,0,0,1.365-.507,2.972,2.972,0,0,1,2.376-.31,10.994,10.994,0,0,1,2.575.779,5.985,5.985,0,0,1,1.223,1.046c.366.37.059,1,.424,1.382a1.611,1.611,0,0,1,.521.759,1.237,1.237,0,0,0,.334.739c.25.2.588.228.83.461.352.338.2.692.22,1.114.018.345.322.644.466.945a3.841,3.841,0,0,1,.354,1.141,1.113,1.113,0,0,0,.459.834c.3.222.349.625.457.958.169.524.9.962.843,1.565-.073.779-.707,1.079-1.317,1.417-.324.179-.241.435-.472.668-.194.2-.432.608-.262.879s.508.346.722.559c.256.258.44.588.793.731a2.08,2.08,0,0,1,.886.649c.2.262.135.611.295.89s.585.292.766.572a1.332,1.332,0,0,1,.289.647,1.366,1.366,0,0,0,.191.83c.193.247.5.366.708.607a3.2,3.2,0,0,1,.32,2.293,8.329,8.329,0,0,1-.766,1.97,2.494,2.494,0,0,1-.627,1.277c-.149.13,0,.129-.226.186a1.911,1.911,0,0,0-.475.212c-.3.174-.56.418-.875.567a1.045,1.045,0,0,1-1,.026c-.292-.195-.464-.437-.844-.317a1.12,1.12,0,0,0-.762.614c-.111.317.081.678.01,1.012-.13.6-.807,1.482-.541,2.085.273.619.762.947.448,1.684a6.922,6.922,0,0,1-1.479,1.8,6.571,6.571,0,0,0-.742.712A2.745,2.745,0,0,0,77.649,66c-.177.837-.764.55-1.185,1.09-.139.183-.053.555-.039.759.042.528.092,1.054.146,1.58a6.248,6.248,0,0,1-.086,2.309,3.445,3.445,0,0,1-2.542,2.508,28.783,28.783,0,0,1-5.972.067c-2.063-.073-4.127-.181-6.193-.211-.963-.013-1.925.007-2.887-.047a17.5,17.5,0,0,0-2.755-.094,10.45,10.45,0,0,1-2.062-.043A13.743,13.743,0,0,0,51.836,74a9.808,9.808,0,0,0-2.2.615c-.849.253-1.716.452-2.571.705-.811.24-1.556.553-2.343.854a5.207,5.207,0,0,1-2.771-.162c-1.939-.384-3.9-.633-5.844-.991-1.723-.317-3.453-.529-5.166-.886-1.754-.365-3.579-.634-5.352-.87-1.872-.25-3.729-.623-5.59-.945-.8-.138-1.5-.052-1.9-.834a8.684,8.684,0,0,0-.609-1.315c-.138-.187-.186-.455-.318-.678-.18-.3-.384-.578-.55-.885-.431-.791-.793-1.62-1.217-2.416-.63-1.182-1.117-2.342-1.809-3.483-.431-.712-.682-1.519-1.1-2.241-.508-.875-.908-1.808-1.362-2.711q-.606-1.21-1.236-2.409c-.214-.41-.621-1.184-1.077-1.347-.144-.052-.314-.333-.477-.446a4.244,4.244,0,0,1-.661-.534c-.529-.541-1.353-.957-1.734-1.63-.139-.252-.489-.271-.625-.528a1.717,1.717,0,0,0-.543-.364,4.936,4.936,0,0,1-1.591-1.238,6.146,6.146,0,0,1-1.518-2A3.376,3.376,0,0,1,1.19,45c.124-.448.552-.827.748-1.261.178-.4.482-.787.714-1.2a17.448,17.448,0,0,0,1-2.167,8.072,8.072,0,0,1,.435-1.115c.231-.4.522-.773.766-1.17a5.269,5.269,0,0,0,.872-2.381c.046-.992.095-1.968.178-2.96.146-1.77.616-3.2,2.277-4.061a2.607,2.607,0,0,0,1.189-1.136,2.671,2.671,0,0,1,1.768-1.234,2.54,2.54,0,0,1,1.224.362c.3.163,1.018-.069,1.341-.125a2.841,2.841,0,0,1,2.765.988c.3.33.574.293.832-.05a2.664,2.664,0,0,1,.99-.879,1.224,1.224,0,0,1,1.4.228.959.959,0,0,0,1.23.189c.359-.149.876-.423.74-.9a1.507,1.507,0,0,1-.013-1.2c.419-.8.437-2.242,1.729-2.176.405.021.8.407,1.2.2a1.781,1.781,0,0,0,.722-1.125,6.011,6.011,0,0,1,.412-1.5c.1-.166.791-.571.784-.692" fill="#f6eb3f"/>
    <path id="패스_225" data-name="패스 225" d="M26.5,19.624c.286-.013,1.027-.139,1.212.151.089.138.436.214.589.407.2.257.333.594.626.765a2.749,2.749,0,0,0,.858.195,1.654,1.654,0,0,1,.829.491c.221.223.4.475.747.5a11.536,11.536,0,0,1,1.163-.05c.823.139.9.806,1.171,1.464.179.448.966.591,1.373.763a.654.654,0,0,0,.771-.2c.227-.245.489-.462.71-.708s.439-.229.581-.568.187-.691.321-1.005c.239-.558.938.8,1.2.857.5.107,1.008-.716,1.434-.9,1.207-.51,2.949-.578,3.914.452a3.845,3.845,0,0,1,.622,2.3c.127.893.6.693,1.2.294a3.96,3.96,0,0,1,2.206-.63c.4-.017.755.085.945-.321a2.693,2.693,0,0,0,.39-1.007c.384-.018.24-.916.656-.935-.012-.258.781-.673.986-.707a2.286,2.286,0,0,1,1.239.235,4.009,4.009,0,0,1,.754.66,9.094,9.094,0,0,1,1.08.887,2.208,2.208,0,0,1,.433,2.127,3.325,3.325,0,0,1-.587,1.04,5.366,5.366,0,0,0-.72.805c-.134.262.019.474.213.646.255.226.344.133.683.129s.5.307.8.391c.424.119.66-.241,1.033-.307s.689.271,1.129.159c.409-.1.8-.267,1.207-.391a2.847,2.847,0,0,0,1.041-.4c.332-.282.2-.7.386-1.047a.745.745,0,0,1,.92-.262c.427.124.5.3.759.606.24.276.6.242.886.43.381.251.568.677.879,1a3.185,3.185,0,0,1,.824,2.1c.029.29-.07.711.175.936s.663.12.97.146a2.494,2.494,0,0,1,1.747,1.037c.156.209.255.546.558.584.426.053.822-.3,1.25-.315l.507-.023c0-.094.194-.168.262-.171,0-.163.285-.378.415-.441.246-.12.359-.278.618-.316a4.5,4.5,0,0,0,1.365-.507,2.972,2.972,0,0,1,2.376-.31,10.994,10.994,0,0,1,2.575.779,5.985,5.985,0,0,1,1.223,1.046c.366.37.059,1,.424,1.382a1.611,1.611,0,0,1,.521.759,1.237,1.237,0,0,0,.334.739c.25.2.588.228.83.461.352.338.2.692.22,1.114.018.345.322.644.466.945a3.841,3.841,0,0,1,.354,1.141,1.114,1.114,0,0,0,.459.834c.3.222.349.625.457.958.169.524.9.962.843,1.565-.073.779-.707,1.079-1.317,1.417-.323.179-.24.435-.472.668-.194.2-.432.608-.262.879s.508.346.722.559c.256.258.44.588.793.731a2.08,2.08,0,0,1,.886.649c.2.262.135.611.295.89s.585.292.766.572a1.332,1.332,0,0,1,.289.647,1.366,1.366,0,0,0,.191.83c.193.247.5.366.708.607a3.2,3.2,0,0,1,.32,2.293,8.329,8.329,0,0,1-.766,1.97,2.494,2.494,0,0,1-.627,1.277c-.149.13,0,.129-.226.186a1.911,1.911,0,0,0-.475.212c-.3.174-.56.418-.875.567a1.045,1.045,0,0,1-1,.026c-.292-.195-.463-.437-.844-.317a1.12,1.12,0,0,0-.762.614c-.111.317.081.678.01,1.012-.13.6-.807,1.482-.541,2.085.273.619.762.947.448,1.684a6.922,6.922,0,0,1-1.479,1.8,6.571,6.571,0,0,0-.742.712A2.726,2.726,0,0,0,77.65,66c-.178.837-.765.55-1.186,1.09-.139.183-.053.555-.039.759.042.528.092,1.054.146,1.58a6.248,6.248,0,0,1-.086,2.309,3.445,3.445,0,0,1-2.542,2.508,28.783,28.783,0,0,1-5.972.067c-2.063-.073-4.127-.181-6.193-.211-.963-.013-1.925.007-2.887-.047a17.5,17.5,0,0,0-2.755-.094,10.45,10.45,0,0,1-2.062-.043A13.743,13.743,0,0,0,51.836,74a9.808,9.808,0,0,0-2.2.615c-.849.253-1.716.452-2.571.705-.811.24-1.556.553-2.343.854a5.217,5.217,0,0,1-2.771-.162c-1.939-.384-3.9-.633-5.844-.991-1.723-.317-3.453-.529-5.166-.886-1.754-.365-3.579-.634-5.352-.87-1.872-.25-3.729-.623-5.59-.945-.794-.138-1.5-.052-1.9-.834a8.588,8.588,0,0,0-.609-1.315c-.137-.187-.186-.455-.318-.678-.18-.3-.384-.578-.55-.885-.431-.791-.793-1.62-1.217-2.416-.63-1.182-1.117-2.342-1.809-3.483-.431-.712-.682-1.519-1.1-2.241-.508-.875-.908-1.808-1.362-2.711q-.606-1.21-1.236-2.409c-.214-.41-.62-1.184-1.077-1.347-.144-.052-.314-.333-.477-.446a4.244,4.244,0,0,1-.661-.534c-.529-.541-1.353-.957-1.734-1.63-.139-.252-.489-.271-.625-.528a1.717,1.717,0,0,0-.543-.364,4.936,4.936,0,0,1-1.591-1.238,6.146,6.146,0,0,1-1.518-2A3.376,3.376,0,0,1,1.19,45c.124-.448.552-.827.748-1.261.178-.405.482-.787.714-1.2a17.448,17.448,0,0,0,1-2.167,8.072,8.072,0,0,1,.435-1.115c.231-.4.522-.773.766-1.17a5.273,5.273,0,0,0,.872-2.381c.046-.992.095-1.968.178-2.96.146-1.77.616-3.2,2.277-4.061a2.607,2.607,0,0,0,1.189-1.136,2.671,2.671,0,0,1,1.768-1.234,2.54,2.54,0,0,1,1.224.362c.3.163,1.018-.069,1.341-.125a2.841,2.841,0,0,1,2.765.988c.3.33.574.293.832-.05a2.664,2.664,0,0,1,.99-.879,1.224,1.224,0,0,1,1.4.228.959.959,0,0,0,1.23.189c.359-.149.876-.423.74-.9a1.507,1.507,0,0,1-.013-1.2c.419-.8.437-2.242,1.729-2.176.405.021.8.407,1.2.2a1.781,1.781,0,0,0,.722-1.125,6.011,6.011,0,0,1,.412-1.5c.1-.166.791-.571.784-.692m.271,3.529c.006.126.372.126.378.3.24-.011.251.561.258.734-.067,0-.213.2-.213.216-.018,0-.2.167-.2.232a.671.671,0,0,0-.3.331c-.12.005-.241.106-.422.115a1.805,1.805,0,0,1-.217-.2,3.082,3.082,0,0,0-.352-.777,1.025,1.025,0,0,1,1.068-.954M40.1,23.136c.007.158.6.232.608.448.254-.011.4.776.084.791a.892.892,0,0,1-.261.218c.008.161-.2.188-.186.437a3.376,3.376,0,0,0-.183.531c-.167.009-.192.232-.37.24.009.166-.777.383-.784.195-.332.015-.237-1.418-.479-1.408-.015-.337-.114-.947.323-.967,0-.075.334-.238.417-.241-.008-.168.637-.236.831-.244m10.771.464c.006.135.212.124.219.26.2-.01.083.09.32.081.185-.009.2-.1.362-.112-.015-.291.529.024.588.021.007.187.118.152.127.36s.015.337.024.538c-.148.006-.012.16-.215.169.008.14-.422.114-.554.12-.169.008-.643.133-.633.3-.21.01-.564.516-.556.708-.1,0-.182.231-.308.236.008.144-.625.2-.635-.035-.147.008-.292-.494-.3-.621-.08,0-.278-.564-.284-.694-.011-.22.066-.5.293-.514,0-.094.3-.283.4-.287,0-.06.335-.285.415-.29-.011-.223.5-.228.735-.239m-21.07,2.5c0,.061.207.086.274.083.01.211.112.063.124.312a12.777,12.777,0,0,1,.221,1.364c.019.4.052,2.339-.273,2.354,0,.153-.512.286-.523.071-.3.015-.093-.948-.249-.942,0-.141-.455-.725-.572-.72a1.6,1.6,0,0,0-.547-.5c0-.009-.383-.507-.18-.516-.008-.14.126-.387.252-.392a2.12,2.12,0,0,1,.7-.556c0-.065.256-.282.3-.285,0-.132.353-.268.464-.274m11.805-.218c0-.03.434.457.383.459.021.419.35.676.369,1.095.112,0,.315.99.325,1.191a11.73,11.73,0,0,1,.373,1.255,3.389,3.389,0,0,1,.364,1c.139-.007.25.83.4.823.01.218-.1.314-.091.432a.238.238,0,0,0-.151.166c-.243.011-.354.334-.619.345,0,.132-.526.342-.669.348-.3.014-.459-.3-.695-.286,0-.076-.339-.3-.443-.3-.01-.216-.438-.213-.449-.456-.406.019.261-1.25.252-1.441.021,0-.173-.327-.176-.373-.2.01-.39-.077-.682-.064-.1,0-.79.171-.794.037-.18.008-.132-.155-.277-.147-.014-.268-.275-.408-.288-.686-.121.006-.342-.562-.348-.715-.166.008-.387-.935-.265-.94-.009-.184.291-.394.458-.4-.006-.141.625-.2.619-.346.113,0,.735-.273.731-.35.118,0,.623-.255.619-.345.089,0,.314-.093.31-.173.258-.011.41-.114.741-.129m-16.229,2.8c0-.028.664.542.658.542,0,.079.173.532.027.539.01.224-.107.128-.1.259-.082,0-.064.114-.154.118.009.181-.351.127-.517.134,0-.005-.614-.607-.614-.607-.01-.178-.133-.693.125-.7-.006-.183.372-.271.576-.281M15.52,29.7s.474.519.086.537c.01.214-.307.252-.3.489-.126.007-.3.3-.3.426-.123.007-.142.366-.136.491.01.233.17.3.178.413a4.8,4.8,0,0,1,.583.291c.4-.018.362.949.38,1.348.013.288.092.6.107.964,0,0-.365.376-.375.112-.26.012-.323-.3-.54-.292,0-.078-.318-.3-.376-.3-.009-.157-.439-.178-.445-.345a1.028,1.028,0,0,1-.443-.3c-.213.009-.326-.3-.538-.294,0-.1-.486-.3-.6-.29-.008-.161-.375-.213-.389-.539-.007-.176.122-.927.276-.934-.012-.253.3-.367.292-.552a.767.767,0,0,0,.307-.269c.22-.009.32-.283.573-.3A5.449,5.449,0,0,1,15.52,29.7M44.2,28.46c0-.074.551.452.5.453.016.385.548,1.294-.147,1.325a5.615,5.615,0,0,0-.49-.343c-.012-.217-.172-.229-.183-.468-.133.007-.066-.431-.066-.425-.129.006.029-.525.388-.542M17.135,30.323a2.014,2.014,0,0,0,.326.191c0,.028.085.156.117.154.011.21-.032.305-.025.477a.434.434,0,0,0-.213.216c-.045,0-.089.074-.089.115-.15.007-.221.122-.423.132-.143.005-.478-.056-.486-.2-.152.007-.25-.559-.072-.568-.014-.283.56-.5.865-.515m43.493-1.766a5.842,5.842,0,0,1,.713.65c.015.3.289.393.3.733.112-.006-.043.464-.039.589-.1,0-.161.325-.3.332.012.26-.537.182-.72.191-.008-.169-.389-.128-.4-.3-.131.007-.141.365-.135.484.028,0-.149.252-.149.261-.118.006-.2.326-.349.333.013.272-.544.087-.63.092-.009-.187-.283-.3-.3-.574-.009-.188.1-.255.091-.433a.2.2,0,0,0,.152-.166c.163-.007.151-.261.351-.27-.005-.126.265-.132.268-.076.4-.018.434.158.411-.383-.1,0-.276-1.1-.162-1.106-.015-.319.574-.342.889-.356m-32,1.721a.952.952,0,0,0,.17.246c.017.35-.038.56-.023.859-.067,0-.313,1.173-.043,1.161,0,.1.234.465.339.461,0,.088.092.313.172.31.012.268.176.4.19.694.013.262.025,1.154-.217,1.164.011.241-.615.45-.625.236-.116.005-.331-.309-.335-.414-.136.006-.256-.464-.388-.458a1.279,1.279,0,0,0-.334-.4c-.009-.186-.33-.288-.339-.462a1.058,1.058,0,0,1-.336-.413c-.2.009-.2-.356-.4-.347,0-.119-.229-.371-.333-.366-.012-.245-.373-.2-.382-.4-.3.013-.134-.445-.14-.582.092,0,.313-.1.31-.173.288-.013.458-.132.788-.148.006.137.707.166.7.032.134,0,.192-.325.3-.33a.938.938,0,0,1,.237-.391c-.01-.218.455-.275.685-.286m21.617,1.814c0,.043.176.151.228.149.009.181.01.238.022.475-.181.009-.189.485-.36.493.006.1-.049.272.077.267,0,.118.211.109.206-.011l.744-.033c.008.169.331.272.341.509.153-.008.016.7-.19.707.008.178-.355.195-.348.381-.307.014-.487.658-.763.67.012.281-.615.471-.6.821-.21.01-.234.827-.221,1.053.024.535.272,1.095.294,1.595a2.136,2.136,0,0,1,.352.778c.159-.006.23.466.387.459.006.162.372.3.537.294.25-.012.41-.13.724-.144.226-.01.221.149.386.141.007.1.252.735-.061.749.01.221-.839.38-.845.245-.144.006-.738-.165-.724.144-.177.008-.248.329-.46.338.009.254-1.022-.092-1.012.142-.043,0-.2.1-.2.167l-1,.045c0,.107-.415.179-.53.184,0,.028-.254-.148-.263-.148-.009-.173-.647-.26-.635-.018a.666.666,0,0,0-.3.331c-.2.008-.9.122-.912-.165-.481.022-.468-.884-.832-.868-.005-.088-.441-.3-.538-.292,0-.04-.119-.154-.165-.151-.006-.079-.167-.517.022-.526-.007-.193.146-.594.338-.6-.007-.175,1.12-.32,1.362-.331.142-.007.919.164.922.275.221-.01.991-.184.985-.363.532-.024,1.073.237,1.044-.411-.169.006-.217-.468-.449-.457-.02-.428-1.284-.279-1.3-.622-.105,0-.375-.209-.379-.3-.25.01-.342-.572-.356-.843,0,0,.343-.5.343-.492.115,0,.222-.1.425-.114,0-.072.381.031.572.021.009.182.728-.239.784-.241a.235.235,0,0,1,.15-.165c-.006-.148.146-.3.136-.547a3.416,3.416,0,0,1-.366-1.021c-.005-.1-.1-.482.041-.489-.019-.435.046-.068.036-.319.13-.006.093-.274.191-.278a.882.882,0,0,1,.3-.332c-.009-.162.419-.221.41-.383.083,0,.51-.319.507-.4.2-.009.2-.168.371-.176,0-.116.419-.177.566-.184M22.363,34.58c0-.01.655.288.695.285,0,.048.193.2.23.2.008.173.045-.09.059.22.12-.006.014.287.017.364a2.315,2.315,0,0,0-.3.378c-.055,0-.262.181-.259.235-.175.007-.245.17-.405.176,0,.113-.888.4-.894.248-.4.018-.25-.958-.265-1.259a2.084,2.084,0,0,1,.345-.491.5.5,0,0,0,.2-.168c.163-.008.33-.174.579-.185m11.548.064c0,.079.386.3.489.3.013.281,1.21.08,1.2-.056.078,0,.378-.074.382.03.1-.005-.006.049.1.044.005.088.151.421-.028.43.013.315-.3.49-.285.759-.358.016-.5.658-.872.675a1.606,1.606,0,0,1-.3.378c.01.254.115.837.355.827.005.077.1.217.169.214.006.153.02.418.025.571-.142.007-.192.325-.351.333.011.194-.664.354-.675.142-.209.009-.171-.468-.4-.458-.009-.179-.588-.333-.581-.181-.678.031-.635,0-.674-.827.172-.007-.1-1.472.14-1.483-.011-.242.3-.324.294-.537.183-.009.23-.646.4-.653-.015-.313.285-.49.614-.5m-7.349.427a4,4,0,0,1,.486.248c.007.135.277.167.283.306.2-.01.624.757.634.971.139-.006.2.627.344.62,0,.078.17.532.024.539,0,.083-.069.479-.137.482.011.223-.1.187-.092.417-.041,0-.154.117-.152.166l-.365.017a.358.358,0,0,0-.164-.151,3.858,3.858,0,0,0-.638-1.131c-.007-.146-.5-.882-.629-.876,0,.011-.792-.854-.515-.866-.016-.365.568-.726.921-.742m42.215.532c0,.087.209.075.218.244.176-.008.07.536.245.528.014.294.455,1.251-.054,1.274.008.133-1.133.416-1.362.426-.006-.162-.53-.18-.542-.4-.273.012-.508-.772-.3-.78-.01-.26.525-.327.517-.5.189-.009.319-.381.506-.389,0-.108.154-.11.149-.212.027,0,.155-.085.153-.119.145-.007.276-.061.474-.069m4.98,1.251c-.005-.05.511.612.392.617.009.167.111.742-.061.749.009.183-.354.064-.425.067a.22.22,0,0,0-.166-.151c-.01-.246-.176-.41-.191-.675-.015-.376-.059-.584.451-.607M9.742,39.915a2.556,2.556,0,0,0,.615.608c.028.606,2.006.1,2.017.386.144-.007.434.1.441.248.221-.009.177.406.183.517-.11,0-.043.16-.312.172.006.12-.293.125-.422.131a2.877,2.877,0,0,1-.782.29,4.327,4.327,0,0,1-1.178.593,1.579,1.579,0,0,1-.415.272c.009.225-.575.186-.678.19-.006-.172-.112-.085-.124-.311-.126,0-.022-.482-.025-.565-.024-.532.071-.909.05-1.342.113-.005.052-.8.17-.8-.01-.254.187-.373.46-.387m56.8-2.147c.007.144.11-.069.117.154.105-.006.061.284.065.362-.112.006-.046.431-.188.438.015.275-.659.48-.67.236-.357.017.058-.785.057-.844.12,0,.086-.163.213-.168-.006-.159.246-.17.406-.178m-51.27,2.58c.007.136.258.073.264.21.2-.009.129.387.135.519a3.424,3.424,0,0,1-.565.5c-.339.017.036-.049-.368-.031,0-.035-.145-.152-.164-.151a.1.1,0,0,0-.117-.106c-.009-.215.047-.389.04-.526a.431.431,0,0,0,.2-.231c.153-.006.3-.173.578-.185m10.092.877a3.5,3.5,0,0,1,.37.142c.008.137.077.256.08.361.123-.006-.126.718-.123.8-.066,0-.521.358-.538.025-.115.005-.343-.612-.349-.755a.535.535,0,0,1,.56-.572M67.472,39.41c0-.069.576.4.542.4.006.107.32.352.448.346a1.7,1.7,0,0,0,.538.356c0,.022.2.468.179.469.007.15-.031.35-.021.561.009.166-.09.286.012.28.016.356-.117.847-.5.865a6.023,6.023,0,0,1-1.458.384c.009.184-.943.249-.932.47-.091.005-.357.153-.356.224-.151.006-.308.077-.536.087,0-.087-.129-.1-.209-.1-.008-.134-.166-.157-.177-.388-.016-.332-.034-.761-.057-1.213-.008-.19-.03-1.4-.174-1.4-.006-.124.059-.478.249-.487-.013-.281.94-.257.931-.471.541-.025.933-.359,1.522-.386m5.918-.158c.006.156.685.074.7.4a7.273,7.273,0,0,1,.235,1.621c.006.139,0,.37-.143.376,0,.1-.2.208-.2.121-.233.01-.642-.193-.654-.4-.155.008-.235-.307-.378-.3a1.6,1.6,0,0,0-.406-.553c0-.018-.483-.836-.246-.846-.017-.408.685-.4,1.1-.416M55.148,40.714c0,.052.209.15.258.149.009.165.169.171.175.357a1.742,1.742,0,0,1,.409.617c.1-.005.1.534-.037.54,0,.088-.2.092-.2.216a1.77,1.77,0,0,0-.505.388c-.1.005-.532.153-.54-.024-.1.005-.106-.153-.215-.148-.005-.113-.168-.2-.171-.31-.211.009.02-.565.017-.636.192-.009.217-.533.356-.54-.01-.243.2-.6.452-.609m-16.584.96c0,.091.052.089.047,0,.135-.007.755.2.762.346.218-.011.351.737.362.983.183-.007-.027.454-.026.479-.143.005-.164.165-.4.176-.308.014-.653-.082-.954-.068l-1.088.05c0-.043-.8-.109-.809-.376-.243.011.036-.581.036-.59.047,0,.245-.164.244-.217.107-.005.621-.314.615-.409.2-.009.242-.17.422-.179-.007-.162.6-.185.786-.193M28,42.263a.826.826,0,0,0,.169.2c.01.245.134.535.152.9-.155.007-.055.209-.261.218,0,.118-.36.176-.468.18,0-.082-.256-.052-.265-.242-.176.008.024-.539.019-.636.1-.005.074-.384.188-.389-.009-.216.249-.218.466-.229m33.758-1.482c0,.12.436.17.447.408.067,0,.229.354.064.362.009.222-.194.267-.189.389-.048,0-.2.122-.2.168-.184.009-.538.045-.547-.134-.176.009-.262-.734-.287-.733-.012-.262.429-.448.711-.46M63.085,42.1c0-.067.716.714.35.73a.61.61,0,0,1-.544.6c.009.207-.425-.076-.48-.074,0-.038-.085-.218-.122-.217-.01-.221.033-.346.024-.525.048,0,.211-.286.209-.327a.1.1,0,0,0,.089-.115c.145-.007.277-.06.474-.069m-27.8,1.849c0,.1.261.152.268.377.007.124-.126.616-.224.62a1.289,1.289,0,0,1-.513.611,1.772,1.772,0,0,1-.706.557c.011.22-1.079.658-1.093.366-.275.013-.585-.655-.508-.66-.007-.187.12-.433.3-.442,0-.061.322-.283.4-.288-.008-.1.741-.557.877-.564,0-.067.428-.289.511-.293-.009-.159.52-.277.688-.284m21.3-.649c.009.185.326.208.341.508.111-.005.4.775.407.935.125-.006.418.825.426.98A3.95,3.95,0,0,1,58.17,46.8c.012.27.177.442.189.729.008.156.009.507-.135.513.006.105-.646.4-.776.4a2.073,2.073,0,0,1-.5.4c0,.077-.218.1-.213.216-.221.011.056.046-.252.06.009.176-.119,0-.157.006.012.281-.592-.607-.46-.614-.01-.281-.175-.4-.186-.627-.082,0-.159-.009-.162-.088-.166.008-.243.059-.362.064.009.171-.529.245-.52.453-.315.014-.256.647-.446.655.033.729-1.034,1-1.747,1.032-.007-.165-.44-.26-.455-.566-.126.006-.31-.987-.361-.985-.009-.173.275-.648.446-.656-.008-.2.462-.331.453-.5.2-.009.239-.487.455-.5-.013-.28.781-.3.771-.511.189-.009.269-.441.456-.449-.006-.09.116-.323.207-.328-.016-.323.129-.646.112-1.005-.095,0-.014-.342-.02-.476.048,0,.091-.126.088-.163.161-.006.228-.122.424-.13.656-.03.932-.408,1.566-.436M27.852,44.653c.006.149.847.14.864.485.12-.006.227.435.233.577.19-.009.171,1.311.181,1.559.006.146.053,1.081-.061,1.086.013.318-.722.2-.732-.029-.2.009-.347-.4-.556-.389-.01-.206-.536-.238-.549-.515-.174.008-.073-1.591-.079-1.743.132-.006-.13-.724.079-.734-.012-.243.367-.286.62-.3M38.9,44.58c0,.089.429.048.441.3.15-.007.239.56.074.568.009.18-.275.235-.465.244.009.174-.639-.053-.631.123l-.474.021c0,.092-.043.094-.048,0-.144.006-.391.017-.585.027-.005-.084-.151-.2-.058-.2a.473.473,0,0,1,.348-.381,1.575,1.575,0,0,1,.572-.344c0-.109.695-.349.826-.355m-2.844,1.4c0,.048.21.2.216.2a2.591,2.591,0,0,0,.191.737c.011.227.125.268.14.566-.114.005-.058.273-.194.278,0,.147-.371.281-.365.381-.03,0-.405.193-.405.18-.36.014-.644-.067-.908-.056a.2.2,0,0,0-.164-.15c-.009-.18-.043-.539.134-.547-.006-.1.243-.582.337-.587-.012-.276.3-.394.289-.648.118-.006.086-.162.215-.168-.009-.143.36-.176.514-.183m36.725-.141c-.019.065,0,.084.065.061-.024-.057-.009-.079.045-.065.008.173.324.146.336.412.253-.011.2.809.205.992-.172.008-.23,1.026-.113,1.021,0,.084.283.305.378.3.006.094.112.039.12.153.16-.008.213.2.222.355.167-.007-.187.472-.182.533-.126,0-.172.436-.3.442a1.714,1.714,0,0,1-.291.6c.011.229-.248.455-.24.647-.09,0-.167.1-.361.112a2,2,0,0,0-.214-.149c-.014-.329-.25-.618-.268-1.036a3.965,3.965,0,0,1-.256-1.1c-.1,0-.165-.787.012-.8,0-.059.315-.807.281-.806a5.067,5.067,0,0,1,.215-1.185c-.007-.183.175-.484.344-.492m1.537.993c-.014.049,0,.064.05.046,0-.1.111,0,.114.06.108-.006.1.248.111.359.12-.005-.544.639-.558.3-.236.01-.175-.352-.18-.469.129-.006.236-.28.463-.292m4.644-.209c0,.014.427.568.136.581.009.174-.584.345-.73.351-.005-.12-.313.092-.322-.1-.207.009-.124-.3-.13-.423.136-.006.059-.209.261-.218-.011-.191.585-.186.785-.194m-45.307,2.42c0,.092.277.156.285.305a1.132,1.132,0,0,1,.269.368c.042,0,.93.5.927.483.44-.02.656.47.678.921.116,0,.042.634-.13.641.006.114-.408.289-.51.293.006.129-.47.133-.464.276-.1.005-.578.2-.575.3-.155.008-1.028.744-1.055.208-.167.006-.149-1.259-.163-1.486s-.126-1.408-.126-1.408c-.006-.141-.05-.474.088-.48-.005-.116.109-.067.1-.163.1,0,.038-.114.154-.119-.007-.146.37-.128.517-.134m30.627-.483c0,.07.368.08.377.251.231-.01.136.571.143.724-.019,0-.769.546-.769.512-.751.035-.763-.306-.791-.917.1-.005.2-.262.369-.27,0-.086.564-.3.671-.3m14.292.034a4.09,4.09,0,0,0,.754.187c.006.1.978.163,1.12.156,0-.005.332.3.332.3.006.146.064.584-.086.59.009.151-.1.172-.1.322-.191.009-.362.493-.548.5a2.02,2.02,0,0,1-.769.559c.011.247-1.158.4-1.149.575-.081.005-.468.176-.476.022-.112,0-.17-.088-.257-.083-.014-.266-.249-.587-.263-.87-.029-.668-.521-1.017-.554-1.745-.028,0,.409-.407.412-.337.579-.026,1.052-.158,1.58-.182M51.492,50.138c.006.141.209.071.224.371.13,0-.049.416-.079.417.012.231-.407.42-.4.558a.566.566,0,0,1-.55-.563c-.26.012.024-.546.023-.588.037,0,.155-.052.154-.1.2-.009.364-.079.631-.092m3.217-.145c.008.12.122.237.132.469.008,0-.148.248-.146.277a.22.22,0,0,0-.15.167l-.525.023c0-.044-.188-.2-.069-.2-.014-.221.1-.305.089-.433a.223.223,0,0,0,.151-.167c.133-.005.269-.123.518-.133m-1.889.355c0-.017.612.5.612.5,0,.06.036.222.12.217.009.182-.1.253-.093.418-.018,0-.463.323-.464.291-.426.019-.962-.2-.98-.615a.748.748,0,0,1,.805-.807m-6.159.757c.007.189.153-.113.16.039.1,0,.425-.093.431.044.215-.01.033.045.162.041,0,.085.212.467-.09.48.011.236-.724.668-.97.68.005.117-.475.041-.468.18-.2.008-.47.021-.636.029.005.048-.472-.567-.389-.57-.008-.211.081-.336.074-.48.062,0,.263-.11.262-.172.476-.021.965-.249,1.464-.271m15.23.69c0,.1.046-.01.049.092.13-.005.075.216.078.314-.044,0-.146.257-.142.325-.182.009-.19.486-.36.493.012.264-.3.434-.283.711-.153.007-.15.531-.344.539.01.216-.459.332-.479-.025-.232.01.089-1.576.086-1.655.08,0,.2-.189.194-.264.169-.007.175-.166.374-.176-.009-.192.6-.344.827-.354m-4.707.26c.005.1.277.116.282.259.124-.007.289.426.3.558.009.18-.094.544-.294.552.018.347-.5.023-.584.028-.012-.254-.493-.4-.5-.614-.276.013.025-.486.02-.54.129-.006.052-.1.22-.1-.008-.168.41-.13.564-.138m-7.884,1.2c0,.094.227.135.236.306.07,0,.148.74-.03.749.008.161-.149.225-.145.324-.047,0-.156.046-.153.118a2.819,2.819,0,0,1-.369-.048c0-.1-.163-.141-.17-.309-.107.005-.228-.672-.078-.679-.015-.3.4-.447.709-.461m19.79-.263a1.191,1.191,0,0,0,.218.261c.019.442.158,1.075.181,1.543.019.433.148.817.167,1.2.01.229.064.389.074.656.009.139.088.5.025.507.008.177-.035.29-.029.414a.12.12,0,0,0-.107.115c-.015,0-.731.308-.735.241-.194.009-.943.215-.951,0-.156.006-.192-.2-.329-.192,0-.086-.171-.374-.223-.372-.009-.189.008-.794.171-.8-.017-.373.4-.72.379-1.129.08,0,.184-.466.179-.579.155-.007.092-.64.239-.646a4.375,4.375,0,0,1,.123-.8c-.015-.356.243-.391.618-.409m-13.254.824a2.16,2.16,0,0,1,.4.458c0,.07.077.2.168.2,0,.117.215.166.216.259a4.82,4.82,0,0,1,.541.293c.3-.014.476.3.759.282a1.736,1.736,0,0,0,.443.347c.009.188.108.288.123.56.013.322-.065.718-.049,1.045.006.165-.031,1.887-.074,1.888.007.162.1,1.06-.015,1.064.01.251-.148.24-.144.372a4.142,4.142,0,0,1-.527-.087c0-.073-.135-.151-.212-.149-.009-.169-.39-.183-.4-.347-.257.012.02-.959.013-1.112.206-.009-.265-.979-.27-1.052a1.936,1.936,0,0,1-.338-.462c-.146.007-.209-.355-.382-.346,0-.115-.233-.355-.335-.351a.2.2,0,0,0-.163-.151c-.009-.194-.17-.241-.182-.5-.009-.186.178-1.247.148-1.246-.01-.258-.163-.945.276-.965m6.824-.1c0-.069.323.192.388.189.011.228.129.9-.179.913,0,.115-.208.487-.3.49.012.242-.3.388-.287.649-.082,0-.288.7-.283.807-.122,0-.2.754-.329.761a.784.784,0,0,1-.151.213c.007.138-.252.169-.389.177-.326.014-.368-.3-.567-.293,0-.082-.249-.417-.336-.413-.009-.182-.122-.22-.132-.472-.1.006.05-.256.1-.258-.014-.352.615-.478.6-.821.3-.013.425-.765.711-.778a.652.652,0,0,1,.3-.331c-.015-.3.461-.315.449-.608.176-.008.24-.217.4-.225M35.839,55.136c.007.142.484.212.495.453.139-.005.137.424.228.419.012.238-.03.4-.021.589-.042,0-.1.12-.1.164-.184.007-.172.579-.45.592.019.42-.676-.129-.688-.128-.01-.247-.443-.31-.453-.5-.1.005-.18-.2-.261-.194a.118.118,0,0,0-.119-.106c-.007-.2.033-.334.028-.478.2-.009.258-.376.522-.388-.012-.235.571-.407.823-.419m-2.721.553s.349.412.335.413c.026.561.151,1.238.179,1.823.01.239-.07.491-.3.5.013.268-.667-.017-.682-.016-.006-.089-.114-.073-.117-.153-.1,0-.119-.472-.123-.583a2.659,2.659,0,0,1-.171-1.263c-.016-.408.435-.7.875-.721m15.151-.64c.007.154.381,0,.39.2.1,0,.123.153.215.149.008.221.044-.056.057.252.123-.006.014.282.018.381-.1,0-.175.675-.17.817.016.33.181.477.192.769.2-.009.077.623.08.679-.129.006-.337.491-.453.5,0,.1-.153.169-.147.277-.1,0,.011.048-.092.053.009.187-.226.009-.269.01,0-.028-.3-.732-.193-.737-.037-.792-.08-1.771-.117-2.583-.154.007.024-.554.022-.588a.1.1,0,0,0,.105-.1,2.808,2.808,0,0,1,.362-.08m-7.487.5c0,.146.162.076.169.261.123,0,.177.368.181.517.19-.009.382,1.4.394,1.677.009.192-.149,1.012-.318,1.019.014.321-.356.552-.343.873-.111,0-.047.256-.194.264.01.226-.4.081-.519.086-.007-.135-.171-.261-.18-.468-.014-.29.133-.535.124-.8-.034-.694.142-1.346.108-2.132.023,0,.066-1.008.061-1.115a.106.106,0,0,0,.092-.1c.089,0,.25-.075.425-.083m-13.58.68c0-.038.419.187.437.186.008.158.21.118.222.355.11-.005-.133.641-.382.653.015.318-.739.122-.756-.22-.1,0-.083-.743.077-.75-.007-.167.218-.216.4-.224m11.236,1.236c.006.145.158,0,.169.2.086,0,.176.369.179.468.021.493-.11,1.059-.086,1.607.024.514-.206.47-.612.489,0-.041-.12-.154-.166-.152,0-.017-.167-.2-.233-.195-.005-.167-.158-.011-.167-.215-.114,0-.169-.214-.173-.326-.023-.464.246-.523.229-.883.083,0,.291-.562.288-.649a.6.6,0,0,0,.15-.228c.114-.006.22-.106.422-.116m34.169-1.5a2.248,2.248,0,0,0,.809.328,5.7,5.7,0,0,1,.764.4c.027.626-.232.855-.2,1.484a5.2,5.2,0,0,1-.126.706.831.831,0,0,0-.243.217,1.943,1.943,0,0,0-.729.4c-.154.007-.516.2-.529-.071-.171.008-.083-.479-.092-.631.154-.007.17-1.818-.016-1.81-.023-.447-.34-.984.366-1.016m-40.4,3.1c0,.115.369.063.38.3.185-.007.192.752.2.945a5.025,5.025,0,0,1-.447.655c-.094,0-.621.275-.635.028-.244.011-.115-.443-.12-.581-.034-.721-.126-1.313.621-1.347M26.08,59.5c0,.1.162.033.171.2.164-.008.13.465.137.629-.081,0-.065.114-.152.118,0,.11-.475.074-.479-.026-.227.01-.372-.62-.187-.627-.009-.188.3-.284.51-.293m1.587-.025s.23.212.23.212c.01.211.12.47.132.752,0,.129-.011.354-.142.361.01.221-.564-.039-.574-.037a.389.389,0,0,0-.166-.153c0-.007-.276-.622-.092-.631-.013-.328.273-.488.612-.5M46.6,58.841a1.9,1.9,0,0,0,.374.236c0,.064.3,1,.253,1.005a33.863,33.863,0,0,1,.24,3.9c.011.239.033,1.061-.173,1.071.006.164-.305.284-.464.292-.007-.169-.208.008-.215-.213-.116.005-.123-.235-.127-.359-.113.005-.106-1.154-.307-1.146-.01-.23-.458-1.567-.611-1.56a3.875,3.875,0,0,0-.576-1.15c-.008-.151-.065-.361.1-.368-.009-.213.2-.08.194-.216.141-.007.581-.158.576-.3.264-.012-.04-.84.12-.847-.013-.287.331-.333.621-.345m14.851-.261c.006.12.161.085.169.215.216-.01.086.5.09.631-.126.005-.062.208-.212.215.009.169-.3.173-.468.18,0-.091-.209-.084-.215-.2-.211.01-.07-.513-.076-.631.079,0,.082-.227.2-.232-.009-.183.327-.173.516-.181m6.925-.314c.009.179.961.186.97.383.252-.01.353.35.54.342.007.19.275.844-.12.863.007.13-.43.432-.553.438.009.167-.36.175-.529.183a2.036,2.036,0,0,0-.267-.242c0-.108-.166-.151-.172-.31-.078,0-.235-.286-.24-.37-.155.007-.326-.621-.44-.615-.024-.513.316-.65.811-.672m-1.226.96c0,.017.378.3.378.3,0,.057.209.306.285.3,0,.177.118.15.126.335.008.205.008.213.019.452-.11.005-.185.373-.412.383a4.693,4.693,0,0,1-.443-.3c-.009-.223-.263-.245-.273-.464-.159.007-.319-.558-.185-.564-.015-.343.152-.435.505-.451m-2.644.231c.006.132.75.056.761.283.3-.014.332.355.348.667a3.626,3.626,0,0,0-.559.66c-.178.009-.676.15-.687-.127-.178.008-.159-.358-.334-.35-.012-.24-.281-.258-.3-.606-.021-.471.285-.5.769-.527M27.658,61.383c0-.013.3.208.328.207,0,.082.256.464.117.471.022.514.049,1.088.064,1.426.011.258-.239.334-.232.488-.152.007-.192.214-.371.222.01.231-.584.138-.725.144a1.786,1.786,0,0,0-.5-.517c0-.116-.388-.554-.5-.549a3.728,3.728,0,0,0-.5-.516c-.01-.227-.046-.634.178-.644-.006-.133.311-.161.3-.268.243-.01.332-.237.624-.251,0-.142,1.035-.205,1.213-.213m12.773.484c0-.087.379.189.439.186.009.195.329.317.338.462a4.318,4.318,0,0,0,.7.286c.1,0,.479.044.483.137.178-.009.131.152.276.146.009.208.114.394.127.7.011.234-.075.425-.068.628-.141,0-.163.531-.357.539.013.286-.661.461-.649.712-.108.006-.418.234-.414.338-.256.011-.192,1.437-.094,1.432.028.6.206.973.231,1.53-.088,0-.15.595-.34.6.008.148-.355.334-.508.341-.5.023-.416-.77-.439-1.251-.137.007-.108-2.059-.25-2.053-.04-.87.036-1.657,0-2.459-.024-.471-.044-.941-.067-1.413-.087.005.031-.372.027-.477.09-.005.153-.143.15-.213.173-.008.265-.171.419-.178m29.637-1.3c0-.007.216.26.216.26.008.115.02.84-.054.844.032.751-.049,1.4-.014,2.182.034.712-.046,1.419-.012,2.182.03.663.135,1.57.163,2.2a.191.191,0,0,0-.151.166l-.536.025c-.009-.158-.485-.147-.494-.359-.333.015-.45-.932-.724-.921,0-.087-.273-.462-.34-.459a.75.75,0,0,0-.166-.2c-.012-.221-.049,0-.058-.2-.125.006-.085-.507-.093-.631a8.63,8.63,0,0,0-.249-2c-.01-.232-.114-.438-.124-.654-.009-.188.139-.391.135-.505a5.3,5.3,0,0,0,.3-.49c.16-.008.182-.326.4-.336-.006-.1.319-.332.414-.336-.009-.19.466-.236.459-.4.129-.006.216-.169.356-.175,0-.121.434-.178.579-.185m3.7-.1c0,.038.213.2.228.2.006.1.137.47-.038.479.011.271-.617.426-.621.345-.328.015-.478-.614-.28-.623-.017-.3.4-.383.711-.4M38.045,62.817a2.213,2.213,0,0,0,.219.26c.021.465-.013.8.011,1.269.038.846.167,1.615.2,2.358.021.476-.289.394-.616.408,0,0-.419-.456-.434-.456a1.285,1.285,0,0,0-.175-.358c-.016-.322-.138-.562-.156-.96-.01-.223-.109-1.568.088-1.578-.012-.259.3-.4.29-.6.1-.005.114-.164.2-.168-.007-.135.22-.169.372-.176m14.6-.234s.373.571.279.575c.017.393-.012.777,0,1.112-.08,0-.135.522-.13.641-.018,0-.457.452-.475.069-.087,0-.336-.409-.339-.509-.13.007-.173-.372-.335-.366-.007-.189-.124-.28-.136-.565.062,0,.15-.224.145-.277a1.021,1.021,0,0,0,.3-.379.967.967,0,0,0,.215-.168,3.013,3.013,0,0,1,.471-.133m1.23.533a2.263,2.263,0,0,1,.276.146c.007.138.169.186.175.357.163-.007.406.856.413,1.046s.28,2.257.056,2.267c.014.331.1,1.473-.2,1.487.016.372-.7-.223-.646-.225-.006-.147-.168-.21-.177-.373-.13,0-.068-.452-.071-.521-.04,0-.046-2.069-.061-2.381-.023-.529-.047-1.055-.072-1.583.092,0,.129-.212.308-.22m9.938-.4c.006.094.272.063.281.258.1-.006.2.889.206,1.027.02.437.134.846.152,1.242.01.194-.03.32-.026.462,0,0-.151.162-.151.166-.215.01-.6-.161-.6-.338a5.955,5.955,0,0,1-.544-.4c-.195.01-.232-.148-.434-.139a.322.322,0,0,0-.215-.2c-.009-.21.034-.306.025-.478.085,0,.11-.081.1-.164a.371.371,0,0,0,.2-.231c.179-.008.228-.581.4-.589a.716.716,0,0,1,.606-.616M45.181,63.987c0,.085.164.094.169.2.157-.006.174.419.183.579-.1.006-.044.321-.191.328.008.126-.3.219-.443.226-.45.021-.544-.722-.375-.729-.016-.391.237-.583.657-.6M48.422,64c0-.048.515.611.392.617.023.5.356.856.378,1.349.141-.007.308,1,.048,1.013.007.179-.355.258-.347.429-.147.007-.694.1-.706-.174-.21.009-.345-.581-.354-.778a5.382,5.382,0,0,0,.157-1.484,4.122,4.122,0,0,0,.06-.748c.142-.007.069-.21.372-.224M34.8,64.822a.949.949,0,0,0,.218.26c0,.13.26.988.091,1,.006.145-.049.366-.188.373.005.136-.36.159-.354.285-.15.008-.347-.031-.43-.027,0-.036-.142-.152-.166-.151,0-.13-.176-1.1,0-1.111-.019-.419.4-.606.83-.626m16.422-.587c.006.134.165.109.175.358-.019,0-.241.233-.352.239-.006-.129-.049,0-.054-.11-.129.007-.071-.215-.077-.313.157-.008.074-.162.308-.174m-.286.65a2.829,2.829,0,0,0,.583.974c.007.127.028.426-.092.432.01.2-.156.069-.148.212-.079.005-.983.4-1,.111-.2.008-.569-.642-.578-.833-.268.012.038-.6.034-.637.156-.006.176-.1.363-.111-.009-.169.659-.142.834-.148m7.629,1.194s.16.151.165.151c.009.2.069.518.083.79-.169.007.059,1.316-.1,1.322.009.2.116,1.535-.025,1.542.009.225-.566.474-.577.28-.195.008-.209-.245-.329-.239,0-.061-.222-.308-.283-.3-.009-.224-.489-.305-.5-.519-.092.005-.3-.462-.181-.467-.006-.176.211-.277.2-.423.219-.009.32-.6.5-.609-.007-.133.2-.2.188-.375.094,0,.254-.363.251-.44.14-.006.077-.368.253-.376a.352.352,0,0,1,.351-.333M38.13,68.164c0,.113.324.157.333.351a5.57,5.57,0,0,1,.01,1.651c.014.311-.151.959-.432.972.01.218-.4.225-.624.235a1,1,0,0,0-.378-.254,1.229,1.229,0,0,0-.609-.5c-.011-.233-.584-.309-.6-.5-.356.016-.372-.887.007-.9-.014-.371,1.257-.334,1.247-.533.154-.006.424-.146.416-.289.094,0,.048-.1.156-.1-.008-.153.324-.127.47-.134m23.817-.016c0,.062,1.052.064,1.058.207.125-.007.753.137.757.235.106,0,.532.158.535.246.183-.008.239.243.439.234.01.195.114.073.125.263.134,0,.019.443.022.524-.15.007-.151.547-.291.554.023.476-.5.849-.48,1.339-.069,0-.234.439-.23.535a1.591,1.591,0,0,0-.254.328c-.094,0-.064.115-.2.121.005.1-.31.125-.422.131,0,.033-1.419.25-1.432-.047-.215.01-.17-.469-.29-.463-.028-.6.05-1.336.018-2.057-.027-.576.053-1.277.029-1.8.108-.005.01-.16.15-.166-.005-.128.342-.173.468-.18m4.944.459a4.293,4.293,0,0,1,.421.187c.007.133.163.082.172.262.249-.011.235.672-.064.686.006.13-.468.187-.474.085-.2.01-.153-.264-.282-.257-.012-.29-.147-.947.227-.963m2.913.138c0,.094.2-.078.212.086.2-.009.282.263.289.463.015,0,.085,1.872.092,2.012.071,0,.044.316-.1.322.009.173-.211.28-.372.288l-1.089.049a3.955,3.955,0,0,0-.485-.2c0-.1-.141-.565.022-.572,0-.069.117-.323.208-.328-.014-.309.342-.495.327-.809.184-.009.205-.755.4-.764a.648.648,0,0,1,.5-.546m-16.726,1.33c.01.192.318-.025.326.144.206-.01.281.248.289.464-.2.008-.172,1.071.049,1.061.029.642.546-.184.9-.2-.015-.345.706.127.689.128.005.1.267.465.338.461.009.187.022.447.028.634-.083,0-.152.12-.146.214a1.931,1.931,0,0,0-.461.338c-.177.008-.63.127-.645-.178-.129.006-.341-.538-.348-.666-.009,0-.4-.783-.374-.206-.1.005-.284.755-.278.871a2.293,2.293,0,0,0-.261.217c-.259.013-.363-.1-.528-.086a2.186,2.186,0,0,0-.167-.2c-.012-.257-.016-.35-.031-.682a11.585,11.585,0,0,0,.13-1.651c-.015-.346.162-.649.494-.664m21.215-.422c-.007-.139.683.54.548.547.015.352.14.643.156.985.007.2.038,1.022-.113,1.029.008.175-.172.849-.326.857.008.164-.154.146-.146.276-.109,0-.3.061-.475.07,0-.069-.092-.092-.161-.088a1,1,0,0,0-.4-.363c-.006-.115-.163-.1-.17-.247-.2.009-.082-.754-.086-.9.212-.009-.12-1.521-.131-1.788.113,0,.1-.163.31-.172,0-.132.8-.195.993-.2" fill="#377c41" fill-rule="evenodd"/>
    <path id="패스_226" data-name="패스 226" d="M34.723,97.652a.111.111,0,0,0-.024-.016c.034.292.113.164.832,1.491-2.527-.314-4.482-2.764-4.9-3.253.056.693,1.135,2.087,1.024,3.134s-1.045,1.171-1.6,1.222a3.41,3.41,0,0,1-2.123-.839c-.167.435.479,1.128-.143,1.505a1.641,1.641,0,0,1-1.5-.04c.081.6.838.991,1.311,1.181,3.228.033,6.721.061,7.327.035a18.768,18.768,0,0,0,3.144-2.947,16.594,16.594,0,0,1-3.34-1.473" fill="#6793ce"/>
    <path id="패스_227" data-name="패스 227" d="M35,79.708l-.086.009a30.375,30.375,0,0,0-2.829,3.127,22.468,22.468,0,0,1,4.724-2.416c-.44-.177-1.433-.571-1.809-.72" fill="#6793ce"/>
    <path id="패스_228" data-name="패스 228" d="M25.268,57.179c.184-.948-.7-1.313-.578-1.8.076-.3.225-.407-.107-.606s-.327-.652-.327-.9a1.468,1.468,0,0,1-.829-1.038c-.066-.266.146-1.111.1-1.305a7.74,7.74,0,0,1-2.365-.975l-.04-.062a.5.5,0,0,0,.026.052c-.034-.026-.053-.042-.083-.069-.241-.213-1.311-1.209-1.694-1.66A13.263,13.263,0,0,0,17.9,47.547a8.238,8.238,0,0,1-.919,2.233,1.294,1.294,0,0,0-.007,1.18c.163.505.8.624.979.7.227.309.113.372.11.535s-.206.358-.215.544a2.087,2.087,0,0,0,.119.518c.048.215.1.713.1.713-.033.522.49.624.71.617-.111.474-.615.057-1.073.847-.144-.021-.326-.13-.526-.16s-.513.083-.987.715a1.4,1.4,0,0,0,.044,1.538,1.365,1.365,0,0,0,1.448.415,1.652,1.652,0,0,1-.4.978s.922,1.267,1.491,1.958.12,1.749.123,2,.006.323.283.612a1.374,1.374,0,0,1-.51.466c.906,1.081,1.15.93,2.137,1.528,1.05.633,1.785.622,1.832.38a12.139,12.139,0,0,1-.691-2.829,10.566,10.566,0,0,1,.27-2.938,4.531,4.531,0,0,1,1.857-1.854,2.546,2.546,0,0,0,1.19-1.06" fill="#fff"/>
    <path id="패스_229" data-name="패스 229" d="M25.268,57.179c.184-.948-.7-1.313-.578-1.8.076-.3.225-.407-.107-.606s-.327-.652-.327-.9a1.468,1.468,0,0,1-.829-1.038c-.066-.266.146-1.111.1-1.305a7.74,7.74,0,0,1-2.365-.975l-.04-.062a.5.5,0,0,0,.026.052c-.034-.026-.053-.042-.083-.069-.241-.213-1.311-1.209-1.694-1.66A13.263,13.263,0,0,0,17.9,47.547a8.238,8.238,0,0,1-.919,2.233,1.294,1.294,0,0,0-.007,1.18c.163.505.8.624.979.7.227.309.113.372.11.535s-.206.358-.215.544a2.087,2.087,0,0,0,.119.518c.048.215.1.713.1.713-.033.522.49.624.71.617-.111.474-.615.057-1.073.847-.144-.021-.326-.13-.526-.16s-.513.083-.987.715a1.4,1.4,0,0,0,.044,1.538,1.365,1.365,0,0,0,1.448.415,1.652,1.652,0,0,1-.4.978s.922,1.267,1.491,1.958.12,1.749.123,2,.006.323.283.612a1.374,1.374,0,0,1-.51.466c.906,1.081,1.15.93,2.137,1.528,1.05.633,1.785.622,1.832.38a12.139,12.139,0,0,1-.691-2.829,10.566,10.566,0,0,1,.27-2.938,4.531,4.531,0,0,1,1.857-1.854A2.546,2.546,0,0,0,25.268,57.179Z" fill="none"/>
    <path id="패스_230" data-name="패스 230" d="M21.952,63.037h0v0a.151.151,0,0,1,0-.03h.023a33.846,33.846,0,0,1,5.935,4.774,4.771,4.771,0,0,0-1.355,2.132l.07.187a48.193,48.193,0,0,0-2.4-4.8,13.337,13.337,0,0,0-2.275-2.262" fill="#f6eb3f"/>
    <path id="패스_231" data-name="패스 231" d="M21.952,63.037h0v0a.151.151,0,0,1,0-.03h.023a33.846,33.846,0,0,1,5.935,4.774,4.771,4.771,0,0,0-1.355,2.132l.07.187a48.193,48.193,0,0,0-2.4-4.8A13.337,13.337,0,0,0,21.952,63.037Z" fill="none"/>
    <path id="패스_232" data-name="패스 232" d="M25.086,76.524l-.016-.007v.03a.222.222,0,0,0,.015-.023" fill="#e0d6a2"/>
    <path id="패스_233" data-name="패스 233" d="M25.086,76.524l-.016-.007v.03A.222.222,0,0,0,25.086,76.524Z" fill="none"/>
    <path id="패스_234" data-name="패스 234" d="M26.962,77.267c-.649-.278-1.848-.782-1.848-.782l-.028.039c.619.264,1.245.529,1.866.791a.317.317,0,0,1,.01-.048" fill="#e0d6a2"/>
    <path id="패스_235" data-name="패스 235" d="M26.962,77.267c-.649-.278-1.848-.782-1.848-.782l-.028.039c.619.264,1.245.529,1.866.791A.317.317,0,0,1,26.962,77.267Z" fill="none"/>
    <path id="패스_236" data-name="패스 236" d="M26.685,70.262s.012,0,.016.008c-.02-.049-.049-.107-.078-.174Z" fill="#fff"/>
    <path id="패스_237" data-name="패스 237" d="M26.685,70.262s.012,0,.016.008c-.02-.049-.049-.107-.078-.174Z" fill="none"/>
    <path id="패스_238" data-name="패스 238" d="M23.407,52.687a.5.5,0,0,0,.04.222.889.889,0,0,1-.448.033,1.224,1.224,0,0,1-.44-.229c-.121-.079-.069-.233.024-.218a1.431,1.431,0,0,0,.449-.051,2.872,2.872,0,0,0,.436-.157,2.39,2.39,0,0,0-.061.4" fill="#6793ce"/>
    <path id="패스_239" data-name="패스 239" d="M19.743,50.531a.668.668,0,0,1,.1.242.328.328,0,0,1-.037.188c.769.305.206.721-.247.507a1.565,1.565,0,0,1-.27.412,1.276,1.276,0,0,1-.673.318,2.627,2.627,0,0,0,.568-1.187,3.722,3.722,0,0,1-.036-.408c.073-.24.237-.251.237-.251a.536.536,0,0,1,.356.179" fill="#6793ce"/>
    <path id="패스_240" data-name="패스 240" d="M19.743,50.531a.668.668,0,0,1,.1.242.328.328,0,0,1-.037.188c.769.305.206.721-.247.507a1.565,1.565,0,0,1-.27.412,1.276,1.276,0,0,1-.673.318,2.627,2.627,0,0,0,.568-1.187,3.722,3.722,0,0,1-.036-.408c.073-.24.237-.251.237-.251A.536.536,0,0,1,19.743,50.531Z" fill="none"/>
    <path id="패스_241" data-name="패스 241" d="M17.226,51.295a4.043,4.043,0,0,1,.1-.489,1.421,1.421,0,0,1,.964-.947c.274-.047.493.305.594.378a2.611,2.611,0,0,0-.629.325,1.387,1.387,0,0,0-.358,1.07,1.574,1.574,0,0,1-.67-.337" fill="#6793ce"/>
    <path id="패스_242" data-name="패스 242" d="M17.226,51.295a4.043,4.043,0,0,1,.1-.489,1.421,1.421,0,0,1,.964-.947c.274-.047.493.305.594.378a2.611,2.611,0,0,0-.629.325,1.387,1.387,0,0,0-.358,1.07A1.574,1.574,0,0,1,17.226,51.295Z" fill="none"/>
    <path id="패스_243" data-name="패스 243" d="M18.239,73.459c.486.285,1.864.909,3.622,1.678-.523-3.665,2.595-6,2.595-6" fill="none"/>
    <path id="패스_244" data-name="패스 244" d="M45.572,76.062c2.779.241,5.344.876,7.894.83-1.56-2.69-2.993-5.036-4.453-6.25-1.421-1.181-2.451-2.179-4.493-1.2-1.618.774-3.812,2.958-6.5,5.916,2.591.521,4.9.35,7.55.7" fill="#fff"/>
    <path id="패스_245" data-name="패스 245" d="M45.572,76.062c2.779.241,5.344.876,7.894.83-1.56-2.69-2.993-5.036-4.453-6.25-1.421-1.181-2.451-2.179-4.493-1.2-1.618.774-3.812,2.958-6.5,5.916,2.591.521,4.9.35,7.55.7" fill="#fff"/>
    <path id="패스_246" data-name="패스 246" d="M45.572,76.062c2.779.241,5.344.876,7.894.83-1.56-2.69-2.993-5.036-4.453-6.25-1.421-1.181-2.451-2.179-4.493-1.2-1.618.774-3.812,2.958-6.5,5.916C40.613,75.878,42.921,75.707,45.572,76.062Z" fill="none"/>
    <path id="패스_247" data-name="패스 247" d="M45.572,76.062c2.779.241,5.344.876,7.894.83-1.56-2.69-2.993-5.036-4.453-6.25-1.421-1.181-2.451-2.179-4.493-1.2-1.618.774-3.812,2.958-6.5,5.916C40.613,75.878,42.921,75.707,45.572,76.062Z" fill="none"/>
    <path id="패스_248" data-name="패스 248" d="M36.652,73.106A27.412,27.412,0,0,1,32.48,71.2a30.919,30.919,0,0,1-4.112-2.939c-.151-.165-.305-.325-.461-.484a4.769,4.769,0,0,0-1.354,2.133l.069.187c.03.067.058.125.079.174,1.237.6,2.653,1.252,6.683,3.4a16.656,16.656,0,0,0,4.566,1.674l1.232-1.252c-.685-.257-1.562-.582-2.53-.984" fill="#fff"/>
    <path id="패스_249" data-name="패스 249" d="M36.652,73.106A27.412,27.412,0,0,1,32.48,71.2a30.919,30.919,0,0,1-4.112-2.939c-.151-.165-.305-.325-.461-.484a4.769,4.769,0,0,0-1.354,2.133l.069.187c.03.067.058.125.079.174,1.237.6,2.653,1.252,6.683,3.4a16.656,16.656,0,0,0,4.566,1.674l1.232-1.252C38.5,73.833,37.62,73.508,36.652,73.106Z" fill="none"/>
    <path id="패스_250" data-name="패스 250" d="M18.923,63.783a.048.048,0,0,1,.016-.012.048.048,0,0,0-.016.012m.118-.12.024-.021-.024.021m.037-.292c.03.035.064.071.105.116-.041-.045-.075-.081-.105-.116m-.161-.282h0a.448.448,0,0,0,.069.163.448.448,0,0,1-.069-.163M26.623,70.1a48.079,48.079,0,0,0-2.4-4.8,13.343,13.343,0,0,0-2.274-2.263,12.131,12.131,0,0,0,.69,2.823c-.047.243-.782.254-1.831-.38-.987-.6-1.232-.445-2.137-1.527a1.677,1.677,0,0,1-1.322-.034c-.354.811.8,1.141.953,1.1.056.4-.429.649-.7.785-1.514-.719-2.688-1.26-2.894-1.335l-.052-.018,9.775,4.71.025-.021c.9.464,1.59.817,1.906.97l.323.157Zm-7.566-6.75A.612.612,0,0,1,19,63.271a.612.612,0,0,0,.057.074m-.25.528-.006,0,.006,0" fill="#6793ce"/>
    <path id="패스_251" data-name="패스 251" d="M23.44,48.3c-.548-.308-.832.113-.857.594a1.259,1.259,0,0,1-.26.9.785.785,0,0,0-1.08-.318c-.492.315.025,1.08.025,1.08-.033-.026-.165-.078-.195-.1-.237-.213-1.316-1.176-1.7-1.627A13.364,13.364,0,0,0,17.9,47.547a8.24,8.24,0,0,1-.918,2.233,1.3,1.3,0,0,0-.009,1.181c.163.5.8.623.981.7.227.309.112.373.109.535s-.2.358-.215.545a2.148,2.148,0,0,0,.118.518c.049.214.1.712.1.712-.032.523.49.624.709.618-.111.473-.615.057-1.071.846-.145-.021-.328-.129-.527-.16s-.513.083-.987.715a1.406,1.406,0,0,0,.045,1.539,1.366,1.366,0,0,0,1.448.415,1.651,1.651,0,0,1-.4.977s.921,1.267,1.491,1.958.12,1.75.122,2,.006.322.284.612a1.42,1.42,0,0,1-1.833.431c-.354.811.8,1.141.954,1.1.056.4-.429.65-.7.785-1.516-.718-2.688-1.259-2.894-1.335a2.958,2.958,0,0,0-3.111.609c-.151-.391-.342-.848-.529-.423-.215.481-.3.769-.762.779-.671.015-.741-.408-.938-.417a.746.746,0,0,1-.622-.708c-.9.02-.2,1.1-.2,1.1a1.249,1.249,0,0,1-.812-.48,1.281,1.281,0,0,1,.153-1.632,1.106,1.106,0,0,1-.392-.505,2.085,2.085,0,0,1-.657-1.991,2.658,2.658,0,0,1-.817-1.4,4.064,4.064,0,0,1,.52-2.549A5.932,5.932,0,0,1,5.53,54.508,3.348,3.348,0,0,1,6.259,52.4a.991.991,0,0,1,.212-.756c-.172-.428.045-.91.536-1.44a3.631,3.631,0,0,1,2.282-1.332,9.183,9.183,0,0,1,4-3.044,8.779,8.779,0,0,1,2.826-.544c-.125-.6.473-.655.618-1.232s.351-.669.684-.732a.852.852,0,0,1,.888.249,1.413,1.413,0,0,1,.616-1.509,2.54,2.54,0,0,1,.955-.309c-.087.293.686.76.878.984A2.549,2.549,0,0,1,21,43.883c.341.167.66-.458,1.095-.39,0,.572.332.745.7,1.207s.3,1.3.386,1.476.326.283.673.391c-.788.443-.007,1.039-.414,1.73" fill="#f6eb3f"/>
    <path id="패스_252" data-name="패스 252" d="M23.44,48.3c-.548-.308-.832.113-.857.594a1.259,1.259,0,0,1-.26.9.785.785,0,0,0-1.08-.318c-.492.315.025,1.08.025,1.08-.033-.026-.165-.078-.195-.1-.237-.213-1.316-1.176-1.7-1.627A13.364,13.364,0,0,0,17.9,47.547a8.24,8.24,0,0,1-.918,2.233,1.3,1.3,0,0,0-.009,1.181c.163.5.8.623.981.7.227.309.112.373.109.535s-.2.358-.215.545a2.148,2.148,0,0,0,.118.518c.049.214.1.712.1.712-.032.523.49.624.709.618-.111.473-.615.057-1.071.846-.145-.021-.328-.129-.527-.16s-.513.083-.987.715a1.406,1.406,0,0,0,.045,1.539,1.366,1.366,0,0,0,1.448.415,1.651,1.651,0,0,1-.4.977s.921,1.267,1.491,1.958.12,1.75.122,2,.006.322.284.612a1.42,1.42,0,0,1-1.833.431c-.354.811.8,1.141.954,1.1.056.4-.429.65-.7.785-1.516-.718-2.688-1.259-2.894-1.335a2.958,2.958,0,0,0-3.111.609c-.151-.391-.342-.848-.529-.423-.215.481-.3.769-.762.779-.671.015-.741-.408-.938-.417a.746.746,0,0,1-.622-.708c-.9.02-.2,1.1-.2,1.1a1.249,1.249,0,0,1-.812-.48,1.281,1.281,0,0,1,.153-1.632,1.106,1.106,0,0,1-.392-.505,2.085,2.085,0,0,1-.657-1.991,2.658,2.658,0,0,1-.817-1.4,4.064,4.064,0,0,1,.52-2.549A5.932,5.932,0,0,1,5.53,54.508,3.348,3.348,0,0,1,6.259,52.4a.991.991,0,0,1,.212-.756c-.172-.428.045-.91.536-1.44a3.631,3.631,0,0,1,2.282-1.332,9.183,9.183,0,0,1,4-3.044,8.779,8.779,0,0,1,2.826-.544c-.125-.6.473-.655.618-1.232s.351-.669.684-.732a.852.852,0,0,1,.888.249,1.413,1.413,0,0,1,.616-1.509,2.54,2.54,0,0,1,.955-.309c-.087.293.686.76.878.984A2.549,2.549,0,0,1,21,43.883c.341.167.66-.458,1.095-.39,0,.572.332.745.7,1.207s.3,1.3.386,1.476.326.283.673.391C23.066,47.01,23.847,47.606,23.44,48.3Z" fill="none"/>
    <path id="패스_253" data-name="패스 253" d="M24.2,53.982a3.665,3.665,0,0,0-.526.894,2.04,2.04,0,0,0,.75-.2" fill="#6793ce"/>
    <path id="패스_254" data-name="패스 254" d="M26.28,100.855a1.638,1.638,0,0,0,1.5.04c.623-.376-.024-1.07.144-1.5a3.4,3.4,0,0,0,2.122.839c.559-.05,1.489-.173,1.6-1.221s-.967-2.442-1.024-3.134c.423.489,2.377,2.938,4.9,3.252-.719-1.327-.8-1.2-.831-1.491A12.656,12.656,0,0,1,28.69,87.143s-1.027,1.183-1.38,1.493a4.951,4.951,0,0,0-.728,1.393,6.893,6.893,0,0,0-.278,1.854c-.227-.1-.59-.818-.971-1.132-1.387.11-1.725,1.212-2.208,2.34a1.279,1.279,0,0,1,.32-1.652c-4.483.57-5.344,3.684-5.658,4.872.2,1.167,4.807,5.621,4.807,5.621s1.989.072,5,.1c-.472-.19-1.23-.583-1.311-1.181" fill="#c5031b"/>
    <path id="패스_255" data-name="패스 255" d="M26.28,100.855a1.638,1.638,0,0,0,1.5.04c.623-.376-.024-1.07.144-1.5a3.4,3.4,0,0,0,2.122.839c.559-.05,1.489-.173,1.6-1.221s-.967-2.442-1.024-3.134c.423.489,2.377,2.938,4.9,3.252-.719-1.327-.8-1.2-.831-1.491A12.656,12.656,0,0,1,28.69,87.143s-1.027,1.183-1.38,1.493a4.951,4.951,0,0,0-.728,1.393,6.893,6.893,0,0,0-.278,1.854c-.227-.1-.59-.818-.971-1.132-1.387.11-1.725,1.212-2.208,2.34a1.279,1.279,0,0,1,.32-1.652c-4.483.57-5.344,3.684-5.658,4.872.2,1.167,4.807,5.621,4.807,5.621s1.989.072,5,.1C27.119,101.846,26.361,101.453,26.28,100.855Z" fill="none"/>
    <path id="패스_256" data-name="패스 256" d="M17.787,96.312A6.066,6.066,0,0,1,20.5,92.395c-.322-.2-.568-.344-.691-.408,3.293-.113,4.975-3.994,4.873-4.611s-.834-1.448-2.3-.955c.291-.192,1.759-1.5,1.014-2.879s-3.219-1.42-4.557-1a2.289,2.289,0,0,0-.831-2.287,1.738,1.738,0,0,1-2.087-.324c.537-.118.572-.463.682-.871s-.225-.549-.978-1.351a4.438,4.438,0,0,0,3.567.616c-.563-.3-.969-.617-1.063-.947a5.778,5.778,0,0,0,3.818.953,4.436,4.436,0,0,0,3.115-1.788l0-.03c-1.126-.48-2.226-.953-3.208-1.381a6.828,6.828,0,0,1,2.569-5.981l-9.774-4.711a3.237,3.237,0,0,0-1.832-.085,3.048,3.048,0,0,0-1.9,1.623C8.58,70.312,5.563,79.957,17.794,96.374l.009,0c-.006-.019-.012-.041-.016-.06" fill="#f6eb3f"/>
    <path id="패스_257" data-name="패스 257" d="M18.017,80.259a2.287,2.287,0,0,1,.831,2.287c1.338-.425,3.812-.385,4.557,1s-.723,2.687-1.013,2.879c1.461-.493,2.193.338,2.3.955s-2.115,3.95-5.409,4.062a15.532,15.532,0,0,1,1.233.954,7.463,7.463,0,0,1,2.934-.952,1.279,1.279,0,0,0-.32,1.652c.483-1.129.821-2.231,2.208-2.34.381.313.744,1.031.971,1.131a6.926,6.926,0,0,1,.278-1.853,4.963,4.963,0,0,1,.728-1.393c.307-.27,1.123-1.2,1.331-1.437l-.009-.118s-3.277-1.641-4.123-3.934a1.187,1.187,0,0,0-.16-.774,2.349,2.349,0,0,0-.107-1.427,1.156,1.156,0,0,0,.184-1.141c.42-.278,2.253-.906,2.515-2.477-.647-.275-1.869-.791-1.869-.791a4.327,4.327,0,0,1-3.116,1.8,5.78,5.78,0,0,1-3.818-.953c.094.33.5.648,1.063.948a4.444,4.444,0,0,1-3.567-.617c.753.8,1.085.945.978,1.351s-.145.753-.682.871a1.738,1.738,0,0,0,2.087.324" fill="#6793ce"/>
    <path id="패스_258" data-name="패스 258" d="M27.441,90.11s.4,1.638.55,2.112a2.7,2.7,0,0,1-.635-.453,3.708,3.708,0,0,1,.085-1.659" fill="#6793ce"/>
    <path id="패스_259" data-name="패스 259" d="M20.388,87.879s-.771,1.5-.96,1.961a2.645,2.645,0,0,1-.187-.757,3.715,3.715,0,0,1,1.147-1.2" fill="#6793ce"/>
    <path id="패스_260" data-name="패스 260" d="M66.214,94.665a13.825,13.825,0,0,1-1.923-1.191c-.949-.711-5.4-8.47-7.164-10.587-.119-.114-.228-.225-.335-.334a1.088,1.088,0,0,0-.126-.072,12.428,12.428,0,0,1-1.1-.64c-.6-.4-1.192-.81-1.406-.978-.161.035-2.948.286-5.9.524l-.409.088L47.6,81.44c-.133.01-.265.02-.4.032.341.76,2.892,6.279,6.256,8.6,3.619,2.489,5.152,3.8,5.634,5.052a9.773,9.773,0,0,0,1.344,1.446l6.692.156Z" fill="#fff"/>
    <path id="패스_261" data-name="패스 261" d="M66.214,94.665a13.825,13.825,0,0,1-1.923-1.191c-.949-.711-5.4-8.47-7.164-10.587-.119-.114-.228-.225-.335-.334a1.088,1.088,0,0,0-.126-.072,12.428,12.428,0,0,1-1.1-.64c-.6-.4-1.192-.81-1.406-.978-.161.035-2.948.286-5.9.524l-.409.088L47.6,81.44c-.133.01-.265.02-.4.032.341.76,2.892,6.279,6.256,8.6,3.619,2.489,5.152,3.8,5.634,5.052a9.773,9.773,0,0,0,1.344,1.446l6.692.156Z" fill="none"/>
    <path id="패스_262" data-name="패스 262" d="M41.39,81.822a11.923,11.923,0,0,1-3.468-.024,22.672,22.672,0,0,1-2.43-.871,31.559,31.559,0,0,0-3.406,1.916c-1.695,2.063-3.4,4.3-3.4,4.3A12.658,12.658,0,0,0,34.7,97.635a.166.166,0,0,1,.024.016,16.569,16.569,0,0,0,3.34,1.473c4.865-6.463,7.685-14.639,8.428-16.688l.357-.937c-2.433.187-4.719.338-5.458.323" fill="#fff"/>
    <path id="패스_263" data-name="패스 263" d="M41.39,81.822a11.923,11.923,0,0,1-3.468-.024,22.672,22.672,0,0,1-2.43-.871,31.559,31.559,0,0,0-3.406,1.916c-1.695,2.063-3.4,4.3-3.4,4.3A12.658,12.658,0,0,0,34.7,97.635a.166.166,0,0,1,.024.016,16.569,16.569,0,0,0,3.34,1.473c4.865-6.463,7.685-14.639,8.428-16.688l.357-.937C44.415,81.686,42.129,81.837,41.39,81.822Z" fill="none"/>
    <path id="패스_264" data-name="패스 264" d="M18.239,73.459c.486.285,1.864.909,3.622,1.678-.523-3.665,2.595-6,2.595-6-2.94-1.507-9.246-4.487-9.748-4.672a2.957,2.957,0,0,0-3.781,1.519c-2.347,4.329-5.45,13.868,6.781,30.286" fill="none"/>
    <path id="패스_265" data-name="패스 265" d="M51.312,81.074a12.229,12.229,0,0,0-2.926,2.707,11.292,11.292,0,0,1-1.293-2.753c.77.094,4.219.046,4.219.046" fill="#6793ce"/>
    <path id="패스_266" data-name="패스 266" d="M21.861,75.137c4.354,1.9,11.715,4.916,12.287,5.205A30.265,30.265,0,0,0,37.922,81.8a11.886,11.886,0,0,0,3.468.024c1.78.037,12.454-.89,12.774-.959.215.168.808.576,1.406.978a12.582,12.582,0,0,0,1.1.64,3.312,3.312,0,0,1,.989,1.038.888.888,0,0,0,.427-.494,5.536,5.536,0,0,1-.048-.888c.054-.269.549-.328.685-.621s-.086-.761-.184-1.021c.353-.4.571-.67.559-.919a13.576,13.576,0,0,0-.655-1.216c-.052-.172.237-.531.25-.628.023-.146-.1-.283-.517-.56a4.692,4.692,0,0,0-1.633-.46c-.339-.078-.442-.066-.636-.311a1.042,1.042,0,0,0-.7-.267,2.717,2.717,0,0,0-.913.352c-.329.191-.7.406-.7.406-2.589.067-5.19-.585-8.011-.83-4.111-.55-7.385.164-12.188-2.394-4.4-2.342-5.681-2.911-7.022-3.562-.316-.153-1-.507-1.906-.97,0,0-3.118,2.337-2.595,6" fill="#fff"/>
    <path id="패스_267" data-name="패스 267" d="M21.861,75.137c4.354,1.9,11.715,4.916,12.287,5.205A30.265,30.265,0,0,0,37.922,81.8a11.886,11.886,0,0,0,3.468.024c1.78.037,12.454-.89,12.774-.959.215.168.808.576,1.406.978a12.582,12.582,0,0,0,1.1.64,3.312,3.312,0,0,1,.989,1.038.888.888,0,0,0,.427-.494,5.536,5.536,0,0,1-.048-.888c.054-.269.549-.328.685-.621s-.086-.761-.184-1.021c.353-.4.571-.67.559-.919a13.576,13.576,0,0,0-.655-1.216c-.052-.172.237-.531.25-.628.023-.146-.1-.283-.517-.56a4.692,4.692,0,0,0-1.633-.46c-.339-.078-.442-.066-.636-.311a1.042,1.042,0,0,0-.7-.267,2.717,2.717,0,0,0-.913.352c-.329.191-.7.406-.7.406-2.589.067-5.19-.585-8.011-.83-4.111-.55-7.385.164-12.188-2.394-4.4-2.342-5.681-2.911-7.022-3.562-.316-.153-1-.507-1.906-.97C24.456,69.136,21.338,71.473,21.861,75.137Z" fill="none"/>
    <path id="패스_268" data-name="패스 268" d="M72.548,96.668s-.027.509-.286.464-.219-.436-.219-.436-.172-.051-.342-.1c-.55.74-.443-.119-.443-.119a1.082,1.082,0,0,1-.384-.147c-.559.641-.445-.185-.445-.185s-.361-.158-.544-.229c-.382.568-.448-.154-.448-.154s-.076-.035-.371-.176c-.5.594-.443-.2-.443-.2l-.541-.222a.533.533,0,0,1-.1.176c-.139.152-.24.037-.252-.071a.414.414,0,0,1,.08-.231l-.483-.292a.6.6,0,0,1-.1.169c-.1.123-.279.07-.245-.069a.988.988,0,0,1,.063-.185,1.382,1.382,0,0,0-.129-.1l-.6.291s.871.4,1.031.473.993.473,1.452.7,2.65,1.055,3.487,1.357.992-.205.992-.205.082.022.2.058l.046-.175Z" fill="#6793ce"/>
    <path id="패스_269" data-name="패스 269" d="M59.009,96.409l.058.194a18.344,18.344,0,0,1,2.02.909,3.912,3.912,0,0,1,1.683,2.321,9.562,9.562,0,0,1-2.515.027c-.21-.027-1.027-.145-1.027-.145a1.765,1.765,0,0,1-.452-.725c-.1-.4-.432-1.36-.432-1.36a3.71,3.71,0,0,1,.34-1.214.8.8,0,0,1,.325-.007" fill="#c8262b"/>
    <path id="패스_270" data-name="패스 270" d="M59.687,100.528a24.094,24.094,0,0,0,3.565-.177c.172,0,3.078.006,3.381.033s2.706.077,2.706.077-1.3-.123-1.334-.17-2.693-.363-2.693-.363-2.092-.12-2.543-.087a9.455,9.455,0,0,1-2.514.019c-.211-.027-1.027-.145-1.027-.145s-.012.651.459.813" fill="#6793ce"/>
    <path id="패스_271" data-name="패스 271" d="M66.913,94.557c.116.051.083.058.129.1a1.165,1.165,0,0,0-.064.185c-.032.139.145.192.246.069a.568.568,0,0,0,.1-.169l.484.292a.418.418,0,0,0-.082.231c.013.108.114.223.253.071a.513.513,0,0,0,.1-.176l.541.222s-.053.791.443.2c.295.141.371.176.371.176s.066.722.449.155c.182.07.544.228.544.228s-.114.826.444.185a1.082,1.082,0,0,0,.384.147s-.107.859.443.119c.171.054.342.1.342.1s-.038.393.22.436.284-.464.284-.464a.352.352,0,0,0-.222-.306c-.213-.074-.206.049-.255.073-.058-.016-.277-.082-.277-.082s.1-.141-.181-.253c-.206-.083-.247.057-.247.057l-.409-.172s.1-.153-.205-.271a.178.178,0,0,0-.259.122l-.54-.189s.118-.211-.217-.309-.295.113-.295.113l-.255-.089A.232.232,0,0,0,69,95.157s-.206-.107-.279.016c-.114-.048-.467-.212-.467-.212s.017-.09-.141-.156-.186.041-.186.041l-.442-.255s.049-.114-.115-.2-.224.009-.224.009l-.122-.059a12.439,12.439,0,0,0-1.476-.7c-.518.107-.668,1.027-.736,1.22s.041.517.426.82a2.009,2.009,0,0,0,1.013-.916S66.8,94.507,66.913,94.557Z" fill="none"/>
    <path id="패스_272" data-name="패스 272" d="M66.913,94.557c.116.051.083.058.129.1a1.165,1.165,0,0,0-.064.185c-.032.139.145.192.246.069a.568.568,0,0,0,.1-.169l.484.292a.418.418,0,0,0-.082.231c.013.108.114.223.253.071a.513.513,0,0,0,.1-.176l.541.222s-.053.791.443.2c.295.141.371.176.371.176s.066.722.449.155c.182.07.544.228.544.228s-.114.826.444.185a1.082,1.082,0,0,0,.384.147s-.107.859.443.119c.171.054.342.1.342.1s-.038.393.22.436.284-.464.284-.464a.352.352,0,0,0-.222-.306c-.213-.074-.206.049-.255.073-.058-.016-.277-.082-.277-.082s.1-.141-.181-.253c-.206-.083-.247.057-.247.057l-.409-.172s.1-.153-.205-.271a.178.178,0,0,0-.259.122l-.54-.189s.118-.211-.217-.309-.295.113-.295.113l-.255-.089A.232.232,0,0,0,69,95.157s-.206-.107-.279.016c-.114-.048-.467-.212-.467-.212s.017-.09-.141-.156-.186.041-.186.041l-.442-.255s.049-.114-.115-.2-.224.009-.224.009l-.122-.059a12.439,12.439,0,0,0-1.476-.7c-.518.107-.668,1.027-.736,1.22s.041.517.426.82a2.009,2.009,0,0,0,1.013-.916s.548-.258.665-.208" fill="#fff"/>
    <path id="패스_273" data-name="패스 273" d="M60.133,97.03c.433.208,2.033.8,3.484,1.4a13.434,13.434,0,0,0,3.195.794s2.245.345,2.488-1-1.694-2.575-1.694-2.575.882,1.832-1.036,1.97a10,10,0,0,1-2.468-.138,16.972,16.972,0,0,1-4.654-2.489,1.693,1.693,0,0,0-.9-.547c-.165-.036,0,.229,0,.366s.022.8.049.9.08.708.08.708l.378.186Z" fill="none"/>
    <path id="패스_274" data-name="패스 274" d="M60.133,97.03c.433.208,2.033.8,3.484,1.4a13.434,13.434,0,0,0,3.195.794s2.245.345,2.488-1-1.694-2.575-1.694-2.575.882,1.832-1.036,1.97a10,10,0,0,1-2.468-.138,16.972,16.972,0,0,1-4.654-2.489,1.693,1.693,0,0,0-.9-.547c-.165-.036,0,.229,0,.366s.022.8.049.9.08.708.08.708l.378.186Z" fill="#f6eb3f"/>
    <path id="패스_275" data-name="패스 275" d="M69.339,100.46s-1.3-.123-1.334-.17-2.692-.362-2.692-.362-2.094-.123-2.543-.09a3.992,3.992,0,0,0-1.684-2.327,8.483,8.483,0,0,0-.947-.481c.431.208,2.028.8,3.478,1.4a13.379,13.379,0,0,0,3.195.794s2.245.346,2.488-1-1.693-2.575-1.693-2.575.881,1.832-1.036,1.97a10.012,10.012,0,0,1-2.469-.138,36.859,36.859,0,0,1-4.727-1.636,1.057,1.057,0,0,0,.687-.5c.1.013.928.669,1.042.682,1.35.144,3.106.268,3.973-.282.36-.111.842-.693,1.252-.932.319-.188,2,.977,2.465,1.2a29.2,29.2,0,0,0,3.94,1.272c.262-.148.6-.3.6-.3a8.2,8.2,0,0,1,1.378.781c.359.316.288.778-1.1,1.258s-4.189,1.029-4.272,1.428" fill="#6793ce"/>
    <path id="패스_276" data-name="패스 276" d="M76.824,98.475c-.191-.535-1.808-.888-1.808-.888l-1.221-.423-.276-.109-.046.176a4.108,4.108,0,0,1,1.242.544c.359.315.009.391-.17.409s-1.675.211-1.675.211a7.833,7.833,0,0,0-2.572.587,1.715,1.715,0,0,0-.959,1.478c.2.051,2.377.061,2.93.043a26.45,26.45,0,0,0,2.9-.316,4.362,4.362,0,0,0,1.571-.693c.139-.207.493-.39.087-1.019" fill="#c8262b"/>
    <path id="패스_277" data-name="패스 277" d="M29.769,107.612,29,116.081l3.262-8.469h4.807l-7.337,19.294H24.983l.575-9.279-3.525,9.279h-4.75l7.3-19.294Zm2.5-.015,4.822.02s-7.334,19.294-7.352,19.306l-4.767-.02s.556-8.972.568-9.17c-.357.949-3.489,9.178-3.5,9.19l-4.767-.023,7.307-19.3,5.207.015s-.733,8.144-.752,8.36C29.392,115.018,32.251,107.607,32.264,107.6Zm-3.247,8.492-.025-.01s.76-8.452.777-8.452H24.6c-.077.214-7.292,19.262-7.315,19.262l4.739.011,3.523-9.277.028,0s-.572,9.262-.59,9.262l4.737.011s7.325-19.273,7.351-19.273l-4.794-.01ZM35.6,126.906l7.334-19.294h-4.8l-7.335,19.294ZM38.141,107.6l4.812.02-7.338,19.306-4.822-.023S38.128,107.607,38.141,107.6Zm-7.335,19.292h4.785c.082-.214,7.33-19.262,7.346-19.262l-4.785-.01S30.827,126.889,30.806,126.889Zm25.784-8.44h4.174l1.273-3.416H57.9l1.436-3.835h4.176l1.356-3.586H51.408l-4.869,5.594,2.244-5.594H43.994l-7.308,19.294h4.787l3.091-8.26.065,8.26h6.4l-22.5,5.876c-4.583,1.2-8.3,1.02-10.4-.469-5.4-3.825-1.3-11.528.19-13.821a70.252,70.252,0,0,0-7.334,8.692c-3.222,4.808-4.605,10.065-2.428,13.445,3.927,6.1,13.321,3.285,19.293.843l55.574-22.745-24.09,6.011.631-1.7-5.138,0Zm-1.128-10.157.342-.3-6.716,17.7-.348-9.646Zm-4.054-.695,13.47.02s-1.354,3.584-1.369,3.592l-4.164-.008s-1.424,3.821-1.448,3.821l4.157.016s-1.273,3.415-1.29,3.425l-4.161-.01s-1.741,4.537-1.753,4.576c.228,0,5.114,0,5.132.018,0,0-.63,1.677-.655,1.679l24.092-6.013.011.029L27.861,141.486c-9.86,4.037-16.359,3.752-19.314-.84-2.027-3.146-1.118-8.183,2.422-13.471a70.409,70.409,0,0,1,7.338-8.69l.024.02c-.631.974-6.02,9.663-.193,13.8,2.114,1.5,5.8,1.662,10.381.466,0,0,22.17-5.786,22.394-5.843l-6.3-.017s-.062-8.009-.062-8.172c-.3.785-3.065,8.177-3.078,8.189l-4.8-.023s7.307-19.293,7.324-19.3l4.8.02s-2.137,5.348-2.2,5.507C47.144,112.494,51.4,107.6,51.408,107.6ZM36.686,126.889l4.77.011,3.095-8.256.023,0s.058,6.563.058,7.978c0,.17,0,.265,0,.265h6.4l0,.034-22.5,5.874c-4.586,1.2-8.291,1.033-10.406-.469a6.275,6.275,0,0,1-2.7-5.41c0-3.615,2.207-7.354,2.788-8.294A69.227,69.227,0,0,0,11,127.195c-2.3,3.424-3.482,6.745-3.482,9.5a7.146,7.146,0,0,0,1.056,3.925c2.949,4.582,9.432,4.86,19.276.833,0,0,54.989-22.51,55.376-22.67-2.263.568-23.892,5.967-23.913,5.947,0,0,.63-1.678.652-1.678l-5.158,0,.009-.021s1.759-4.594,1.775-4.605l4.163.011s1.267-3.39,1.284-3.39l-4.156-.023s1.431-3.838,1.452-3.849l4.158.011s1.349-3.563,1.374-3.566l-13.446,0-4.865,5.589-.028-.014s2.226-5.569,2.257-5.572L44,107.617S36.708,126.889,36.686,126.889Zm19.1-18.908.028.018-6.711,17.706-.031-.007-.352-9.651s6.716-7.762,6.725-7.766Zm-.32.321-6.713,7.755c0,.011.344,9.413.347,9.566.052-.145,6.625-17.464,6.664-17.575C55.676,108.125,55.468,108.3,55.471,108.3Z" fill="none"/>
    <path id="패스_278" data-name="패스 278" d="M29.769,107.612,29,116.081l3.262-8.469h4.807l-7.337,19.294H24.983l.575-9.279-3.525,9.279h-4.75l7.3-19.294Zm2.5-.015,4.822.02s-7.334,19.294-7.352,19.306l-4.767-.02s.556-8.972.568-9.17c-.357.949-3.489,9.178-3.5,9.19l-4.767-.023,7.307-19.3,5.207.015s-.733,8.144-.752,8.36c.364-.954,3.223-8.365,3.236-8.375m-3.247,8.492-.025-.01s.76-8.452.777-8.452H24.6c-.077.214-7.292,19.262-7.315,19.262l4.739.011,3.523-9.277.028,0s-.572,9.262-.59,9.262l4.737.011s7.325-19.273,7.351-19.273l-4.794-.01ZM35.6,126.906l7.334-19.294h-4.8l-7.335,19.294ZM38.141,107.6l4.812.02-7.338,19.306-4.822-.023s7.335-19.293,7.348-19.3m-7.335,19.292h4.785c.082-.214,7.33-19.262,7.346-19.262l-4.785-.01s-7.325,19.272-7.346,19.272m25.784-8.44h4.174l1.273-3.416H57.9l1.436-3.835h4.176l1.356-3.586H51.408l-4.869,5.594,2.244-5.594H43.994l-7.308,19.294h4.787l3.091-8.26.065,8.26h6.4l-22.5,5.876c-4.583,1.2-8.3,1.02-10.4-.469-5.4-3.825-1.3-11.528.19-13.821a70.252,70.252,0,0,0-7.334,8.692c-3.222,4.808-4.605,10.065-2.428,13.445,3.927,6.1,13.321,3.285,19.293.843l55.574-22.745-24.09,6.011.631-1.7-5.138,0Zm-1.128-10.157.342-.3-6.716,17.7-.348-9.646Zm-4.054-.695,13.47.02s-1.354,3.584-1.369,3.592l-4.164-.008s-1.424,3.821-1.448,3.821l4.157.016s-1.273,3.415-1.29,3.425l-4.161-.01s-1.741,4.537-1.753,4.576c.228,0,5.114,0,5.132.018,0,0-.63,1.677-.655,1.679l24.092-6.013.011.029L27.861,141.486c-9.86,4.037-16.359,3.752-19.314-.84-2.027-3.146-1.118-8.183,2.422-13.471a70.409,70.409,0,0,1,7.338-8.69l.024.02c-.631.974-6.02,9.663-.193,13.8,2.114,1.5,5.8,1.662,10.381.466,0,0,22.17-5.786,22.394-5.843l-6.3-.017s-.062-8.009-.062-8.172c-.3.785-3.065,8.177-3.078,8.189l-4.8-.023s7.307-19.293,7.324-19.3l4.8.02s-2.137,5.348-2.2,5.507c.553-.63,4.806-5.523,4.817-5.527M36.686,126.889l4.77.011,3.095-8.256.023,0s.058,6.563.058,7.978c0,.17,0,.265,0,.265h6.4l0,.034-22.5,5.874c-4.586,1.2-8.291,1.033-10.406-.469a6.275,6.275,0,0,1-2.7-5.41c0-3.615,2.207-7.354,2.788-8.294A69.227,69.227,0,0,0,11,127.195c-2.3,3.424-3.482,6.745-3.482,9.5a7.146,7.146,0,0,0,1.056,3.925c2.949,4.582,9.432,4.86,19.276.833,0,0,54.989-22.51,55.376-22.67-2.263.568-23.892,5.967-23.913,5.947,0,0,.63-1.678.652-1.678l-5.158,0,.009-.021s1.759-4.594,1.775-4.605l4.163.011s1.267-3.39,1.284-3.39l-4.156-.023s1.431-3.838,1.452-3.849l4.158.011s1.349-3.563,1.374-3.566l-13.446,0-4.865,5.589-.028-.014s2.226-5.569,2.257-5.572L44,107.617s-7.3,19.272-7.318,19.272m19.1-18.908.028.018-6.711,17.706-.031-.007-.352-9.651s6.716-7.762,6.725-7.766Zm-.32.321-6.713,7.755c0,.011.344,9.413.347,9.566.052-.145,6.625-17.464,6.664-17.575-.093.077-.3.254-.3.254" fill="#6793ce"/>
  </g>
</svg>
