<svg id="그룹_11083" data-name="그룹 11083" xmlns="http://www.w3.org/2000/svg" xmlns:xlink="http://www.w3.org/1999/xlink" width="116.229" height="157.583" viewBox="0 0 116.229 157.583">
  <defs>
    <clipPath id="clip-path">
      <rect id="사각형_5671" data-name="사각형 5671" width="116.229" height="157.583" fill="rgba(0,0,0,0)"/>
    </clipPath>
  </defs>
  <g id="그룹_11082" data-name="그룹 11082" clip-path="url(#clip-path)">
    <path id="패스_19589" data-name="패스 19589" d="M78.033,100.631c-.072.59-.14,1.18-.217,1.769q-.492,3.8-.989,7.6c-.26,2-.512,4.008-.782,6.011-.322,2.384-.646,4.769-.993,7.15q-.362,2.469-.792,4.927a20.715,20.715,0,0,1-.839,3.185,9.89,9.89,0,0,1-7.785,6.826c-1.189.253-2.406.383-3.613.55-2.208.3-4.42.584-6.627.9a13.3,13.3,0,0,0-1.735.4,4.974,4.974,0,0,0-1.668.831.574.574,0,0,1-.739.055,10.187,10.187,0,0,0-4.636-1.449c-2.352-.352-4.716-.621-7.072-.941a18.641,18.641,0,0,1-3.226-.671,9.654,9.654,0,0,1-6.2-5.616,18.44,18.44,0,0,1-1.176-4.012c-.342-1.9-.633-3.809-.911-5.719-.356-2.44-.683-4.885-1.012-7.329-.265-1.972-.517-3.947-.772-5.922q-.417-3.227-.83-6.453c-.083-.648-.153-1.3-.245-1.946a1.243,1.243,0,0,1,.425-1.193q1.425-1.282,2.817-2.6a1.238,1.238,0,0,1,1.3-.3c2.238.6,4.5,1.1,6.783,1.525q3.466.638,6.967,1.033a71.922,71.922,0,0,0,9.972.443c2.019-.053,4.036-.195,6.047-.415C62,99,64.5,98.657,66.978,98.15c2.066-.422,4.121-.9,6.175-1.383,1.076-.251,1.071-.273,1.9.486s1.658,1.535,2.5,2.29a1.171,1.171,0,0,1,.484,1.088m-21.25,31.262a4.977,4.977,0,0,0-3.174-4.71A5.646,5.646,0,0,0,50.2,126.9a4.958,4.958,0,0,0-3.983,3.756,5.509,5.509,0,0,0,3.508,6.422,5.166,5.166,0,0,0,2.454.244,5.527,5.527,0,0,0,4.6-5.429m10.606-7.046c-.266.021-.535.024-.8.067a6.96,6.96,0,0,0-5.56,5.134,4.9,4.9,0,0,0,.2,3.056,4.011,4.011,0,0,0,3.164,2.568,4.989,4.989,0,0,0,3.563-.8,7.435,7.435,0,0,0,3.117-3.985,5.9,5.9,0,0,0,.315-2.453,3.772,3.772,0,0,0-1.217-2.591,3.867,3.867,0,0,0-2.781-.991M42,131.272a10.371,10.371,0,0,0-.178-1.226,6.814,6.814,0,0,0-4.452-4.831,5.194,5.194,0,0,0-2.626-.3,3.6,3.6,0,0,0-2.966,2.263,4.063,4.063,0,0,0-.321,1.648,7.183,7.183,0,0,0,2.47,5.329,5.842,5.842,0,0,0,3.236,1.564,3.992,3.992,0,0,0,3.175-.848,4.416,4.416,0,0,0,1.662-3.6M56.878,114.31c.293.276.514.468.716.678.7.727,1.393,1.465,2.1,2.19.609.627.867.62,1.423-.078.816-1.022,1.612-2.06,2.413-3.093a2.927,2.927,0,0,0,.239-.374.454.454,0,0,0-.024-.505,2.5,2.5,0,0,0-.282-.342c-.774-.782-1.547-1.565-2.33-2.336-.553-.545-.813-.531-1.319.041-.118.133-.226.275-.339.413q-.96,1.174-1.92,2.347c-.131.16-.271.315-.414.465a.427.427,0,0,1-.567.082,6.508,6.508,0,0,1-.584-.409q-1.491-1.134-2.977-2.272c-.189-.144-.374-.3-.576-.421a.521.521,0,0,0-.613.022,1.2,1.2,0,0,0-.087.314q-.008,3.342,0,6.685a1.146,1.146,0,0,0,.087.315.5.5,0,0,0,.608.005,5.5,5.5,0,0,0,.491-.384c1.063-.907,2.122-1.819,3.184-2.725.223-.19.457-.367.772-.618m-20.269.926a2.114,2.114,0,0,1-1.184-.115.606.606,0,0,1-.488-.652c0-.208-.005-.416-.005-.624,0-1.248,0-2.5,0-3.743a3.332,3.332,0,0,0-.057-.707c-.089-.41-.453-.61-.976-.573-.274.02-.379.189-.406.683-.012.208-.007.416-.007.624q0,2.318,0,4.635c0,.238,0,.476.013.713.039.532.139.685.665.8,1.074.23,2.157.422,3.236.628a1.576,1.576,0,0,0,.266.024c.4.007.553-.115.579-.5.018-.266.008-.534.011-.8.01-1.039.027-2.079.027-3.118,0-.8-.016-1.6-.038-2.4-.012-.445-.321-.6-.908-.639-.294-.019-.47.209-.5.617-.015.207-.008.415-.008.623,0,1.219,0,2.437,0,3.655a1.1,1.1,0,0,1-.214.877M41.39,115c-.12.37-.421.466-.67.616-.28.168-.57.318-.848.49a.458.458,0,0,0-.24.447.815.815,0,0,0,1.2.7q1.173-.642,2.317-1.334c.608-.37.631-.587.145-1.107-.466-.5-.951-.982-1.424-1.475a7.929,7.929,0,0,1-.536-.6.4.4,0,0,1,.083-.621,5.15,5.15,0,0,1,.459-.274c.282-.164.578-.309.843-.5a.53.53,0,0,0,.207-.366.825.825,0,0,0-1.175-.751c-.817.425-1.622.874-2.421,1.332a2.459,2.459,0,0,0-.44.447,10.344,10.344,0,0,0,1.281,1.522A6.315,6.315,0,0,1,41.39,115m7.065-3.1c.08-.117.118-.163.145-.215a.555.555,0,0,0,.059-.167c.086-.642-.1-.878-.739-.926-.68-.051-1.361-.082-2.042-.127-.473-.032-.945-.079-1.418-.109a.578.578,0,0,0-.549.228.738.738,0,0,0,.49,1.15c.174.032.354.036.528.073.432.094.544.225.572.662.011.177.005.356.005.534q0,1.824,0,3.648a6.737,6.737,0,0,0,.02.711.574.574,0,0,0,.573.568c.465.055.879,0,.862-.694,0-.148,0-.3,0-.445q0-1.824,0-3.648c0-.208-.007-.416.012-.622a.546.546,0,0,1,.568-.563c.319-.033.641-.042.911-.058m25.114-4.269a2.415,2.415,0,0,0-.588.007c-1.094.272-2.184.563-3.275.853a1.6,1.6,0,0,0-.409.164.774.774,0,0,0-.253.95c.1.255.276.333.668.281.117-.016.23-.063.347-.079.421-.06.591.085.617.533.013.207,0,.415,0,.623,0,1.188,0,2.376,0,3.564a4.531,4.531,0,0,0,.051.708.382.382,0,0,0,.377.321.847.847,0,0,0,.994-.869c.009-.177,0-.356,0-.534v-3.475c0-.207,0-.416.006-.623.032-.658.109-.761.705-.971.195-.069.4-.126.586-.205a.561.561,0,0,0,.35-.479.806.806,0,0,0-.187-.769m-42.66,4.9c-.335-.067-.467-.318-.65-.5a5.386,5.386,0,0,0-.493-.508.5.5,0,0,0-.4-.1c-.491.185-.816.606-.411,1.091.038.046.074.094.112.139q1.188,1.383,2.378,2.765a2.386,2.386,0,0,0,.389.363.38.38,0,0,0,.62-.228,3.026,3.026,0,0,0,.045-.53q.024-2.8.04-5.6a5.6,5.6,0,0,0-.034-.62.472.472,0,0,0-.316-.4,2.123,2.123,0,0,0-.513-.13.428.428,0,0,0-.515.372,4.9,4.9,0,0,0-.046.707c-.005.83,0,1.66-.006,2.49,0,.226.057.478-.2.7m37.629.1h0c0-1.037.011-2.073,0-3.109-.008-.552-.284-.737-.815-.591-.454.125-.59.278-.636.732a3.479,3.479,0,0,0-.013.354q0,2.71,0,5.419a2.808,2.808,0,0,0,.061.615.447.447,0,0,0,.2.268.858.858,0,0,0,1.177-.581,4,4,0,0,0,.024-.62q0-1.243,0-2.487m-6.343,9.855a3.065,3.065,0,0,0,.549,1.782,1.777,1.777,0,0,0,1.084.732.414.414,0,0,0,.463-.186.343.343,0,0,0-.14-.457c-.047-.036-.1-.066-.148-.1a1.848,1.848,0,0,1-.874-2.285c.131-.516.339-1.013.495-1.524.147-.482.29-.966.4-1.458a2.566,2.566,0,0,0-.184-1.571,1.749,1.749,0,0,0-.406-.57.475.475,0,0,0-.4-.045c-.156.05-.182.223-.156.377a.918.918,0,0,0,.094.249,2.8,2.8,0,0,1,.067,2.251c-.15.451-.338.89-.475,1.344-.145.481-.25.973-.372,1.461m-12.381-2.6a1.743,1.743,0,0,0-.435-1.368,1.644,1.644,0,0,0-.587-.36c-.074-.031-.238.048-.3.126a.368.368,0,0,0-.042.319,2.466,2.466,0,0,0,.3.433,1.3,1.3,0,0,1,.238,1.175,10.179,10.179,0,0,1-.444,1.155c-.184.435-.393.859-.575,1.3a2.1,2.1,0,0,0-.107,1.136,1.806,1.806,0,0,0,.732,1.272,1.124,1.124,0,0,0,.487.177.371.371,0,0,0,.292-.147.387.387,0,0,0,.012-.326,1.1,1.1,0,0,0-.291-.327,1.215,1.215,0,0,1-.409-1.2,4.717,4.717,0,0,1,.317-1.008c.147-.354.35-.685.511-1.034a2.617,2.617,0,0,0,.3-1.316M34.451,124.23a2.216,2.216,0,0,0,.406-.168,1.753,1.753,0,0,0,.64-.831,2.988,2.988,0,0,0,.148-1.743c-.067-.408-.192-.806-.258-1.214a2.343,2.343,0,0,1,.288-1.874.663.663,0,0,0,.144-.319.412.412,0,0,0-.123-.3.423.423,0,0,0-.319-.059.491.491,0,0,0-.291.186,4.631,4.631,0,0,0-.457.848,3.785,3.785,0,0,0,.039,2.014c.067.378.156.753.2,1.133a1.681,1.681,0,0,1-.494,1.539,1.52,1.52,0,0,0-.275.339c-.11.186.052.451.349.451m25.212-20.2a7.365,7.365,0,0,0-.068-.758,1.351,1.351,0,0,0-.444-.849.538.538,0,0,0-.4-.082.292.292,0,0,0-.189.358,1.217,1.217,0,0,0,.1.337,2.178,2.178,0,0,1,.07,1.566c-.132.455-.281.906-.427,1.357a4.728,4.728,0,0,0-.276,1.748,1.932,1.932,0,0,0,.372,1.076.95.95,0,0,0,.346.259.319.319,0,0,0,.415-.322.89.89,0,0,0-.073-.255,2.744,2.744,0,0,1-.046-2.164c.109-.339.243-.67.333-1.014.119-.457.207-.922.281-1.257M35.378,100.32a3.84,3.84,0,0,0-.687.395,1.9,1.9,0,0,0-.614,1.342,4.934,4.934,0,0,0,.345,1.915,2.467,2.467,0,0,1-.091,2.231.361.361,0,0,0,.1.544.458.458,0,0,0,.548-.176,2.492,2.492,0,0,0,.345-.616,2.181,2.181,0,0,0,.1-1.229c-.1-.4-.2-.806-.3-1.209a9.315,9.315,0,0,1-.237-.948,1.374,1.374,0,0,1,.477-1.362,1.221,1.221,0,0,0,.31-.311.414.414,0,0,0,0-.331c-.043-.09-.167-.143-.3-.245m34.556,20.291c-.1-.887-.208-1.919-.321-2.95,0-.029-.009-.068-.029-.082-.112-.08-.235-.221-.343-.212s-.235.151-.3.265a.657.657,0,0,0-.043.348c.028.473.069.945.1,1.418.037.562.107,1.124.1,1.685a2.138,2.138,0,0,1-.876,1.768.875.875,0,0,0-.268.229.739.739,0,0,0-.1.4c.013.15.242.231.442.178a1.308,1.308,0,0,0,.328-.128,2.345,2.345,0,0,0,.892-.97,4.2,4.2,0,0,0,.422-1.95m-27.074.35a4.268,4.268,0,0,0-.389-1.844,1.716,1.716,0,0,0-.347-.5.349.349,0,0,0-.317-.043.356.356,0,0,0-.195.26,2.051,2.051,0,0,0,.137.6,4.516,4.516,0,0,1-.467,4.237,2.357,2.357,0,0,0-.28.547.307.307,0,0,0,.42.358,1.493,1.493,0,0,0,.461-.392,5.145,5.145,0,0,0,.977-3.216M69.33,99.349c-.141-.112-.242-.258-.353-.265a.89.89,0,0,0-.5.126,1.664,1.664,0,0,0-.787,1.414,5.41,5.41,0,0,0,.116,1.228,2.576,2.576,0,0,1-.236,2.13.12.12,0,0,0-.03.082,1.008,1.008,0,0,0,.119.39c.1.125.268.086.4,0a1.426,1.426,0,0,0,.64-1.116,7.28,7.28,0,0,0-.047-1.233c-.022-.263-.1-.522-.132-.786a1.491,1.491,0,0,1,.545-1.58c.107-.075.158-.229.262-.388M53.806,122.712c-.022-.295-.034-.591-.07-.884a2.45,2.45,0,0,0-.126-.513c-.089-.252-.263-.372-.453-.344s-.31.223-.286.48c.013.147.054.29.078.436a4.975,4.975,0,0,1-.475,3.1c-.079.158-.171.311-.25.469a.79.79,0,0,0-.086.25.311.311,0,0,0,.181.365.384.384,0,0,0,.323-.022,2.3,2.3,0,0,0,.448-.536,5.3,5.3,0,0,0,.716-2.8m-21.4-1.034a7.435,7.435,0,0,0-.5-2.531,2.986,2.986,0,0,0-.3-.544.328.328,0,0,0-.468-.095.523.523,0,0,0-.148.376,5.544,5.544,0,0,0,.243.76,5.5,5.5,0,0,1,.236,2.98,4.073,4.073,0,0,0-.078.528.483.483,0,0,0,.025.261c.051.1.134.214.225.236a.384.384,0,0,0,.313-.1.809.809,0,0,0,.2-.384c.1-.493.167-.991.248-1.487m21.467-18.77a1.458,1.458,0,0,0-.429.214,3.813,3.813,0,0,0-.983,3.619c.02.085.048.2.11.237a.709.709,0,0,0,.389.137c.079,0,.205-.153.213-.245a5.751,5.751,0,0,0-.013-.8,3.316,3.316,0,0,1,.543-2.032c.1-.149.214-.287.3-.442a.549.549,0,0,0,.1-.331,1.291,1.291,0,0,0-.228-.359m-8.586.907c-.014-.1-.031-.244-.055-.389-.044-.26-.055-.551-.394-.612-.226-.04-.389.221-.375.677a7.331,7.331,0,0,1-.473,2.858,1.243,1.243,0,0,0-.07.517.305.305,0,0,0,.514.185,1.8,1.8,0,0,0,.331-.51,8.737,8.737,0,0,0,.522-2.726" fill="#f3f5f0"/>
    <path id="패스_19590" data-name="패스 19590" d="M70.789,45.2a4.165,4.165,0,0,1-1.679-.3,6.279,6.279,0,0,1-4.16-5.235,5.212,5.212,0,0,1,4.719-5.923,1.381,1.381,0,0,1,.355-.023,13.158,13.158,0,0,0,2.922-.042,4.255,4.255,0,0,1,4.348,3.472,4.045,4.045,0,0,1,.031,1.854,2.986,2.986,0,0,1-1.282,1.961,1.583,1.583,0,0,0-.77,1.119A3.522,3.522,0,0,1,73.9,44.116,4.887,4.887,0,0,1,70.789,45.2m2.62-10.012c-.166.306.077.507.164.744a7.161,7.161,0,0,1,.33.912.551.551,0,0,1-.31.593.615.615,0,0,1-.737-.113,3.7,3.7,0,0,1-.354-.509c-.159-.25-.29-.52-.468-.755a2.282,2.282,0,0,0-2.089-.957,4.168,4.168,0,0,0-2.138.811,3.466,3.466,0,0,0-1.558,2.948,5,5,0,0,0,3.371,4.771,3.392,3.392,0,0,0,3.5-.653,3.581,3.581,0,0,0,.649-.83.326.326,0,0,0-.217-.489c-.23-.05-.469-.061-.7-.09a3.9,3.9,0,0,1-3.48-2.989,2.008,2.008,0,0,1-.062-.612.624.624,0,0,1,.5-.555.608.608,0,0,1,.67.323,6.909,6.909,0,0,1,.276.749A2.41,2.41,0,0,0,72.1,39.962a3.765,3.765,0,0,0,2.781.075,1.688,1.688,0,0,0,1.112-1.29,3.228,3.228,0,0,0-1.817-3.52.843.843,0,0,0-.762-.037" fill="#05050e"/>
    <path id="패스_19591" data-name="패스 19591" d="M83.641,84.371a1.2,1.2,0,0,1,.091.912c-.135,1.031-.283,2.061-.43,3.09q-.5,3.531-1.011,7.06-.5,3.441-.993,6.881-.486,3.4-.965,6.8-.492,3.441-.987,6.883-.487,3.4-.97,6.8-.5,3.484-1,6.97-.486,3.4-.968,6.8-.2,1.411-.394,2.825a3.844,3.844,0,0,1-.641,1.645,10.18,10.18,0,0,1-2.353,2.419,20.531,20.531,0,0,1-4.922,2.675,39.438,39.438,0,0,1-8.263,2.172,53.371,53.371,0,0,1-11.566.506,42.082,42.082,0,0,1-12.881-2.63,21.344,21.344,0,0,1-4.8-2.528,10.817,10.817,0,0,1-2.153-1.995A6.073,6.073,0,0,1,27.06,138.6c-.312-2.356-.67-4.707-1.009-7.06q-.5-3.441-.992-6.882-.48-3.353-.957-6.706-.505-3.531-1.012-7.06-.484-3.4-.964-6.8-.49-3.441-.988-6.882-.486-3.4-.97-6.795c-.214-1.5-.44-3-.643-4.5a3.094,3.094,0,0,1-.033-1.521c.138.029.273.018.353.079a25.3,25.3,0,0,0,9.273,4,68.982,68.982,0,0,0,9.117,1.668q4.252.522,8.532.689c1.485.06,2.973.133,4.458.116,3.389-.039,6.777-.128,10.157-.431A85.29,85.29,0,0,0,72.4,88.872a42.21,42.21,0,0,0,6.4-1.914,17.447,17.447,0,0,0,4.3-2.328,2.787,2.787,0,0,1,.54-.259M24.285,100.063c.019.211.024.3.035.389.138,1.061.279,2.121.416,3.182q.393,3.051.782,6.1t.794,6.1c.267,2,.526,4.007.824,6.006.338,2.262.688,4.523,1.089,6.775a17.55,17.55,0,0,0,1.181,3.918,10.4,10.4,0,0,0,6.588,5.977,16.474,16.474,0,0,0,2.955.661c2.357.316,4.72.6,7.074.935,1.057.153,2.1.389,3.144.633a3.12,3.12,0,0,1,2,1.241.682.682,0,0,0,.122.13.443.443,0,0,0,.638-.021,1.469,1.469,0,0,0,.173-.2,2.831,2.831,0,0,1,1.672-1.114,17.928,17.928,0,0,1,2.169-.5c2.3-.327,4.6-.6,6.9-.91a25.4,25.4,0,0,0,3.945-.713,10.476,10.476,0,0,0,6.667-5.395,15.845,15.845,0,0,0,1.177-3.169,60.255,60.255,0,0,0,1.243-6.927q.427-2.957.822-5.916c.27-2,.528-4.007.789-6.011q.409-3.138.815-6.277c.195-1.5.381-3.007.582-4.509a1.2,1.2,0,0,0-.406-1.119c-.287-.259-.566-.527-.85-.79-.829-.768-1.675-1.517-2.481-2.309a1.426,1.426,0,0,0-1.617-.382c-.419.148-.858.24-1.291.347a94.712,94.712,0,0,1-13.607,2.368q-3.6.353-7.214.351a75.079,75.079,0,0,1-10.047-.724A93.8,93.8,0,0,1,30.43,96.049c-.4-.105-.807-.205-1.21-.308a.879.879,0,0,0-.76.155,3.45,3.45,0,0,0-.34.288q-1.608,1.48-3.213,2.963a2.107,2.107,0,0,0-.368.388,4.033,4.033,0,0,0-.254.528" fill="#0075a9"/>
    <path id="패스_19592" data-name="패스 19592" d="M85.057,74.79a1.115,1.115,0,0,1,.07.817c-.088.648-.212,1.291-.288,1.94a2.261,2.261,0,0,1-.673,1.322,9.011,9.011,0,0,1-1.814,1.436,22.059,22.059,0,0,1-4.289,1.967,52.24,52.24,0,0,1-8.2,2.087,96.291,96.291,0,0,1-11.248,1.3c-2.673.162-5.349.21-8.026.2-3.333-.017-6.657-.194-9.975-.51a83.045,83.045,0,0,1-9.7-1.464,43.628,43.628,0,0,1-7.174-2.123,19.049,19.049,0,0,1-2.951-1.469,8.479,8.479,0,0,1-1.867-1.509,2.122,2.122,0,0,1-.578-1.179c-.085-.678-.208-1.351-.3-2.028a.991.991,0,0,1,.114-.822,2.467,2.467,0,0,1,.556.145,48.36,48.36,0,0,0,13.493,4.187,98.145,98.145,0,0,0,9.9,1.264A121.7,121.7,0,0,0,57,80.6a99.6,99.6,0,0,0,14.264-1.563,58.433,58.433,0,0,0,9.305-2.448,32.927,32.927,0,0,0,3.6-1.552,1.163,1.163,0,0,1,.882-.244" fill="#0075a9"/>
    <path id="패스_19593" data-name="패스 19593" d="M33.591,69.019c-.242-.118-.4-.2-.561-.273a3.232,3.232,0,0,0-3.444.389,2.507,2.507,0,0,0-.675.811,1.305,1.305,0,0,1-.89.673,43,43,0,0,0-5.446,1.693,1.068,1.068,0,0,1-.863.029A11.855,11.855,0,0,1,17.906,69.9a2.813,2.813,0,0,1-.011-4.388,9.048,9.048,0,0,1,1.986-1.5A23.581,23.581,0,0,1,24.193,62.1a52.271,52.271,0,0,1,7.684-1.952c1.257-.229,2.523-.413,3.785-.614a2.43,2.43,0,0,1,.53-.046.581.581,0,0,1,.476.719.458.458,0,0,1-.4.311q-1.058.167-2.113.337a57.947,57.947,0,0,0-8.928,2.119,7.347,7.347,0,0,0-.751.279.7.7,0,0,0-.242.248c-.1.148.01.419.186.409a4.082,4.082,0,0,0,.866-.13c1.116-.311,2.221-.666,3.342-.961a66.013,66.013,0,0,1,7.878-1.507,1.413,1.413,0,0,1,1.231.335,4.423,4.423,0,0,0,2.232,1.044,4.873,4.873,0,0,0,4.688-1.544,3.318,3.318,0,0,0,.231-.272,1.033,1.033,0,0,1,.843-.424c.712-.031,1.424-.081,2.136-.11.535-.021,1.071-.025,1.606-.03.843-.009.919.078.929.9.008.712.033,1.424.069,2.136a12.526,12.526,0,0,0,.817,3.821c.309.815.08.989-.739,1-1.309.012-2.618.014-3.925.068-2.733.112-5.463.275-8.179.612a1.93,1.93,0,0,1-1.355-.281,2.562,2.562,0,0,0-2.713-.016c-.261.135-.5.306-.787.48M19.167,66.6a1.443,1.443,0,0,0,.32-.115q1.118-.639,2.224-1.3a1.086,1.086,0,0,0,.3-.311.293.293,0,0,0-.191-.416,1.031,1.031,0,0,0-.51.072c-.726.4-1.443.816-2.151,1.245a1.291,1.291,0,0,0-.354.387c-.125.185.037.442.362.438" fill="#f3f5f0"/>
    <path id="패스_19594" data-name="패스 19594" d="M74.677,146.97c.022.207.074.328.036.408a8.52,8.52,0,0,1-.577,1.1,8.028,8.028,0,0,1-1.43,1.585,19.376,19.376,0,0,1-5.008,3.055,36.488,36.488,0,0,1-8.633,2.489,45.618,45.618,0,0,1-10.406.512,39.415,39.415,0,0,1-12.416-2.673,22.05,22.05,0,0,1-4.63-2.477,10.475,10.475,0,0,1-2.561-2.462,3.155,3.155,0,0,1-.645-1.327.246.246,0,0,1,.4-.07c.145.1.282.218.419.333a17.629,17.629,0,0,0,4.182,2.536,2.148,2.148,0,0,0,.677.194c.106.008.261-.127.326-.237a.335.335,0,0,0-.1-.308,4.7,4.7,0,0,0-.76-.452,19.434,19.434,0,0,1-2.87-1.623,10.667,10.667,0,0,1-2.168-1.978,2.7,2.7,0,0,1-.684-1.611,3.721,3.721,0,0,1-.066-1.547,1.4,1.4,0,0,1,.39.164c.358.313.687.66,1.047.97a18.581,18.581,0,0,0,4.707,2.867,36.018,36.018,0,0,0,8.012,2.4A52.65,52.65,0,0,0,54,149.659a46.379,46.379,0,0,0,12.96-2.268,26.463,26.463,0,0,0,4.407-1.927,16.514,16.514,0,0,0,3.39-2.449c.147-.141.322-.251.538-.417a1.348,1.348,0,0,1,.166.422,4.305,4.305,0,0,1-1.2,3.068,14.012,14.012,0,0,1-2.79,2.208,25.826,25.826,0,0,1-5.4,2.308,42.592,42.592,0,0,1-9.075,1.828,54.387,54.387,0,0,1-8.646.092c-1.808-.115-3.6-.4-5.406-.6-.3-.034-.592-.05-.888-.064a.324.324,0,0,0-.335.241.366.366,0,0,0,.246.424,6.6,6.6,0,0,0,.867.2c.823.123,1.648.245,2.475.338a58.216,58.216,0,0,0,9.352.348A43.593,43.593,0,0,0,68.49,150.6a19.718,19.718,0,0,0,4.2-2.141c.462-.323.893-.691,1.342-1.034.181-.138.372-.262.642-.45m-35.725,4.924c.142-.023.2-.031.258-.042a.305.305,0,0,0,.17-.487.728.728,0,0,0-.279-.206q-1.017-.306-2.042-.583a.575.575,0,0,0-.346.02.489.489,0,0,0-.232.23.262.262,0,0,0,.066.237,1.456,1.456,0,0,0,.441.275c.418.144.845.264,1.27.385.254.072.513.127.694.171" fill="#0075a9"/>
    <path id="패스_19595" data-name="패스 19595" d="M74.266,147.705a1.347,1.347,0,0,1-.387.937,9.3,9.3,0,0,1-1.814,1.834,19.415,19.415,0,0,1-4.054,2.412,34.927,34.927,0,0,1-8.17,2.488,44.255,44.255,0,0,1-10.127.688,40,40,0,0,1-13.135-2.683,22.163,22.163,0,0,1-4.338-2.273,11.1,11.1,0,0,1-2.224-1.917,10.293,10.293,0,0,1-.821-1.161c-.066-.1-.035-.267-.051-.416a1.563,1.563,0,0,1,.9.474,19.8,19.8,0,0,0,3.631,2.08,3.134,3.134,0,0,0,.588.2.44.44,0,0,0,.51-.265.407.407,0,0,0-.162-.473,5.737,5.737,0,0,0-.616-.352c-.76-.406-1.537-.784-2.279-1.22a11.617,11.617,0,0,1-2.626-2.126,3.851,3.851,0,0,1-.854-2.958,3.9,3.9,0,0,1,.451.126.761.761,0,0,1,.207.168,19.136,19.136,0,0,0,6.143,3.722,38.438,38.438,0,0,0,7.723,2.134,52.907,52.907,0,0,0,11.914.683A43.6,43.6,0,0,0,67.6,147.363c.837-.306,1.662-.65,2.471-1.021a17.744,17.744,0,0,0,4.349-2.773c.19-.166.354-.425.736-.3a3.061,3.061,0,0,1-.475,2.251,8.993,8.993,0,0,1-1.884,1.888,15.485,15.485,0,0,1-3.226,1.89,38.64,38.64,0,0,1-9.13,2.693,48.023,48.023,0,0,1-8.438.677,61.546,61.546,0,0,1-9.06-.767,3.653,3.653,0,0,0-.794-.052.379.379,0,0,0-.349.351.389.389,0,0,0,.246.431,2.686,2.686,0,0,0,.682.2c1.682.205,3.364.414,5.049.588a46.948,46.948,0,0,0,6.687.148,42.921,42.921,0,0,0,14.767-3.083,18.314,18.314,0,0,0,4.263-2.4,5.621,5.621,0,0,1,.518-.346.927.927,0,0,1,.257-.034m-35.191,4.366c.212-.011.272-.006.329-.018a.431.431,0,0,0,.38-.322.411.411,0,0,0-.214-.447,1.184,1.184,0,0,0-.317-.156c-.623-.188-1.246-.372-1.874-.544a.82.82,0,0,0-.436-.015.513.513,0,0,0-.312.265.656.656,0,0,0,.094.4.36.36,0,0,0,.206.16c.759.244,1.52.478,2.144.672" fill="#f3f5f0"/>
    <path id="패스_19596" data-name="패스 19596" d="M59.049,59.462A1.289,1.289,0,0,1,59.2,59a.786.786,0,0,1,.451-.244,3.081,3.081,0,0,1,.711.014c2.608.212,5.214.454,7.8.847a58.308,58.308,0,0,1,11.772,2.827,22.2,22.2,0,0,1,3.158,1.451,9.737,9.737,0,0,1,2.02,1.459,2.481,2.481,0,0,1,1.075,1.992,2.2,2.2,0,0,1-.445-.289,10.573,10.573,0,0,0-4.056-2.838c-.544-.238-1.09-.474-1.64-.7a1.206,1.206,0,0,0-.511-.12.505.505,0,0,0-.329.237.333.333,0,0,0,.083.312,2.951,2.951,0,0,0,.606.359c.622.283,1.255.543,1.876.828a10.949,10.949,0,0,1,2.216,1.324,5.737,5.737,0,0,1,1.636,1.976,1.013,1.013,0,0,1-.185,1.3,14.885,14.885,0,0,1-1.2,1.06,14.564,14.564,0,0,1-2.548,1.465,1.408,1.408,0,0,1-1.2.025c-.776-.3-1.562-.577-2.353-.834a1.258,1.258,0,0,1-.881-.786,1.8,1.8,0,0,0-2.049-1.2,1.327,1.327,0,0,1-.35.048.711.711,0,0,1-.383-.184,4.483,4.483,0,0,1-.319-.534,2.779,2.779,0,0,0-3.844-.828c-.247.16-.48.343-.761.544-.2-.129-.4-.246-.589-.378a2.673,2.673,0,0,0-1.41-.5,2.172,2.172,0,0,0-1.989.782,1.04,1.04,0,0,1-1.016.4c-2.132-.177-4.266-.343-6.4-.512-.059-.005-.119,0-.178-.009-.778-.067-.872-.161-.89-.908a16.065,16.065,0,0,1,.894-5.872c.377-1.05.4-1.082,1.547-1.018,1.99.111,3.977.28,5.946.589,2.379.374,4.75.793,7.124,1.2.44.074.874.177,1.315.247a1.018,1.018,0,0,0,.431-.038.3.3,0,0,0,.092-.508,1.691,1.691,0,0,0-.559-.245c-1.164-.239-2.328-.491-3.5-.681-2.142-.346-4.288-.678-6.439-.965-1.266-.168-2.545-.239-3.818-.352a1.7,1.7,0,0,1-1.057-.276" fill="#f3f5f0"/>
    <path id="패스_19597" data-name="패스 19597" d="M18.911,80.064a4.243,4.243,0,0,1,.534.277A20.448,20.448,0,0,0,24.772,83a53.063,53.063,0,0,0,8.194,2.108,87.12,87.12,0,0,0,9.549,1.208c2.015.145,4.037.207,6.056.281,1.337.049,2.676.1,4.012.067,2.942-.068,5.882-.147,8.816-.412,2.578-.232,5.146-.521,7.7-.953a52.751,52.751,0,0,0,10.17-2.622,18.855,18.855,0,0,0,4.414-2.3,2.712,2.712,0,0,1,.38-.228c.124-.062.342.056.335.191a3.924,3.924,0,0,1-.856,2.738,11.626,11.626,0,0,1-1.463,1.3,14.888,14.888,0,0,1-3.143,1.67,40.83,40.83,0,0,1-6.988,2.111,80.533,80.533,0,0,1-9.6,1.465,113.64,113.64,0,0,1-12.915.49c-3.064-.055-6.119-.228-9.165-.541a70.155,70.155,0,0,1-12.522-2.3,28.151,28.151,0,0,1-5.228-2.028,12.389,12.389,0,0,1-2.361-1.591,4.118,4.118,0,0,1-1.38-3.252c0-.076.062-.154.138-.33" fill="#f3f5f0"/>
    <path id="패스_19598" data-name="패스 19598" d="M55.646,70.587a.456.456,0,0,1-.584-.107,12.741,12.741,0,0,1-1.15-1.234,10.026,10.026,0,0,1-1.769-3.959A14.209,14.209,0,0,1,53.6,54.86c.428-.747.9-1.472,1.319-2.223a13.1,13.1,0,0,0,.791-1.592A3.5,3.5,0,0,0,55.879,50a1.228,1.228,0,0,0-.345-.895,2.834,2.834,0,0,0-2.156-.892.635.635,0,0,0-.622.54.645.645,0,0,0,.372.651c.242.108.508.161.76.249.366.127.562.329.512.529-.068.278-.31.339-.54.4a2.5,2.5,0,0,1-2.517-.771,3.39,3.39,0,0,1,1.27-5.445,6.054,6.054,0,0,1,1.123-.274,4.4,4.4,0,0,1,5,3.213c.087.283.139.579.243.856a.622.622,0,0,0,.711.4.587.587,0,0,0,.492-.557,2.657,2.657,0,0,0-.083-.878c-.151-.479-.369-.937-.562-1.4-.089-.213-.184-.423-.307-.7a1.785,1.785,0,0,1,.536-.13,4.115,4.115,0,0,1,3.438,3.4,5.875,5.875,0,0,1-.488,3.558A9.616,9.616,0,0,1,60.768,54.6a18.64,18.64,0,0,0-3.147,4.3,17.432,17.432,0,0,0-1.933,8.067c-.006.772.039,1.544.053,2.317.006.356,0,.712-.012,1.068a.738.738,0,0,1-.083.228m1.721-16.862a1.157,1.157,0,0,0,.294-.1.966.966,0,0,0,.243-.255,11.061,11.061,0,0,0,1.127-2.505.6.6,0,0,0,.009-.347.427.427,0,0,0-.221-.249.39.39,0,0,0-.317.076,1.043,1.043,0,0,0-.244.362q-.514,1.133-1.01,2.272a.842.842,0,0,0-.1.42c.018.119.144.222.22.329m-.651,1.911a1.219,1.219,0,0,0-.224-.259.278.278,0,0,0-.248-.007,1.17,1.17,0,0,0-.6,1.022.3.3,0,0,0,.388.255,1.361,1.361,0,0,0,.684-1.011" fill="#f3f5f0"/>
    <path id="패스_19599" data-name="패스 19599" d="M87.121,66.457a2.822,2.822,0,0,1,1.114,2.428,3.347,3.347,0,0,1-.573,1.666,6.59,6.59,0,0,1-1.378,1.508,16.931,16.931,0,0,1-3.893,2.325,41.367,41.367,0,0,1-6.917,2.337,77.14,77.14,0,0,1-8.756,1.654,101.131,101.131,0,0,1-11.817.911c-1.783.028-3.568.1-5.35.058-2.673-.071-5.345-.167-8.012-.41-2.577-.234-5.145-.523-7.7-.947a59.472,59.472,0,0,1-11.216-2.841A25.3,25.3,0,0,1,18.672,73.3a11.156,11.156,0,0,1-2.536-1.952A4.55,4.55,0,0,1,15.1,69.7a2.983,2.983,0,0,1,.934-3.263c.044.119.083.213.114.311.008.025-.008.058-.014.087a3.929,3.929,0,0,0,1.4,3.829,11.423,11.423,0,0,0,2.556,1.777,30.274,30.274,0,0,0,5.977,2.309,67.1,67.1,0,0,0,8.719,1.825c2.972.439,5.956.76,8.956.917,1.454.076,2.909.142,4.365.181,1.664.044,3.329.093,4.993.066,2.912-.047,5.822-.159,8.726-.411,2.252-.195,4.5-.433,6.731-.774A57.864,57.864,0,0,0,80.307,73.7a21.852,21.852,0,0,0,3.462-1.636,9.8,9.8,0,0,0,2.11-1.633,3.779,3.779,0,0,0,1.166-3.566.99.99,0,0,1,0-.261c0-.026.026-.051.079-.144" fill="#f3f5f0"/>
    <path id="패스_19600" data-name="패스 19600" d="M44.062,59.3a2.042,2.042,0,0,1-.1.455,2.7,2.7,0,0,1-.8.94,3.8,3.8,0,0,1-4.042.261A2.014,2.014,0,0,1,38,58.9,4.446,4.446,0,0,1,39.2,56.18a2.647,2.647,0,0,1,2.068-.873c.326.009.653.036.979.025a.587.587,0,0,0,.631-.506.638.638,0,0,0-.421-.707,3.34,3.34,0,0,0-1.491-.189,4.222,4.222,0,0,0-3.1,1.709,9.464,9.464,0,0,0-.6.984c-.089.153-.148.324-.235.479-.234.415-.5.439-.846.09a2.559,2.559,0,0,1-.624-1.066,4.081,4.081,0,0,1,.705-3.948,5.821,5.821,0,0,1,6.339-1.891,4.11,4.11,0,0,1,2.961,3.547,5.078,5.078,0,0,1-.026,1.769,2.687,2.687,0,0,1-1.963,2.2,9.344,9.344,0,0,1-1.047.2,5.37,5.37,0,0,0-.611.1.629.629,0,0,0-.492.655.641.641,0,0,0,.587.578,4.859,4.859,0,0,0,.886-.007c.236-.015.47-.076.706-.09a2.506,2.506,0,0,1,.468.061" fill="#f3f5f0"/>
    <path id="패스_19601" data-name="패스 19601" d="M71.926,71.421a1.923,1.923,0,0,1-1.515-.687,1.378,1.378,0,0,1,.257-2.038,2.015,2.015,0,0,1,2.6.257A1.374,1.374,0,0,1,73.137,71a1.808,1.808,0,0,1-1.211.417" fill="#f3f5f0"/>
    <path id="패스_19602" data-name="패스 19602" d="M31.85,69.218a4.33,4.33,0,0,1,.773.254.635.635,0,0,1,.229.979,1.648,1.648,0,0,1-.164.208,2.523,2.523,0,0,1-2.466.559c-.67-.255-.8-.8-.3-1.306a2.669,2.669,0,0,1,1.931-.694" fill="#f3f5f0"/>
    <path id="패스_19603" data-name="패스 19603" d="M48.067,59.59H46.205a.437.437,0,0,1-.443-.231.518.518,0,0,1,.207-.619,1.452,1.452,0,0,1,.583-.174c1.152-.037,2.306-.052,3.459-.072a1.311,1.311,0,0,1,.263.031.387.387,0,0,1,.343.35.508.508,0,0,1-.259.518,1.755,1.755,0,0,1-.431.081c-.619.038-1.239.066-1.859.1v.017" fill="#f3f5f0"/>
    <path id="패스_19604" data-name="패스 19604" d="M67.695,69.824a1.762,1.762,0,0,1-1.256-.331.5.5,0,0,1,.045-.831,1.786,1.786,0,0,1,1.928.089.514.514,0,0,1-.118.924,2.869,2.869,0,0,1-.6.149" fill="#f3f5f0"/>
    <path id="패스_19605" data-name="패스 19605" d="M35.9,69.011a2.884,2.884,0,0,1,.591.148.49.49,0,0,1,.134.812,1.75,1.75,0,0,1-1.975.25.507.507,0,0,1-.078-.828,1.758,1.758,0,0,1,1.328-.382" fill="#f3f5f0"/>
    <path id="패스_19606" data-name="패스 19606" d="M75.638,70.278a2.2,2.2,0,0,1,.294.071.7.7,0,0,1,.492.821.753.753,0,0,1-.75.493,1.217,1.217,0,0,1-.34-.078.717.717,0,0,1-.55-.789c.055-.326.391-.542.854-.518" fill="#f3f5f0"/>
    <path id="패스_19607" data-name="패스 19607" d="M12.714,38.623a1.57,1.57,0,0,1,1.025-.018,5.552,5.552,0,0,0,4.281-1.112,3.091,3.091,0,0,0,.588-.654.343.343,0,0,0-.044-.316.407.407,0,0,0-.308-.112.686.686,0,0,0-.317.142c-.2.135-.376.293-.57.429A4.89,4.89,0,0,1,9.955,34.6c-.069-.2-.111-.4-.18-.6a1.209,1.209,0,0,0-.194-.4.378.378,0,0,0-.308-.107.371.371,0,0,0-.241.222,1.292,1.292,0,0,0-.008.522,4.589,4.589,0,0,0,.754,1.8,5.48,5.48,0,0,0,.913,1.087,1.528,1.528,0,0,1,.565,1.486,7.8,7.8,0,0,0,.185,2.835c.2.743.477,1.466.736,2.193.08.225.207.433.048.681a1.436,1.436,0,0,1-.854.146,9.411,9.411,0,0,1-9.258-7.861A9.258,9.258,0,0,1,5.1,27.98c.194-.184.412-.343.6-.534a.694.694,0,0,0,.162-.958.678.678,0,0,0-.963-.073,7.6,7.6,0,0,0-1.089.917c-.673.707-.889.671-1.356-.186a9.021,9.021,0,0,1,2.71-11.674,3.059,3.059,0,0,1,.3-.19c.34-.185.546-.12.709.242.122.271.206.558.331.827a3.143,3.143,0,0,0,.358.612.6.6,0,0,0,.72.193.631.631,0,0,0,.382-.724,5.108,5.108,0,0,0-.242-.67,10.489,10.489,0,0,1-.639-2.5,9.081,9.081,0,0,1,6.248-9.679,15.761,15.761,0,0,1,1.828-.38.552.552,0,0,1,.35.026.559.559,0,0,1,.267.3c.053.225,0,.479.062.7a.574.574,0,0,0,1,.209,2.685,2.685,0,0,0,.364-.7,3.7,3.7,0,0,1,1.5-1.83,3.646,3.646,0,0,1,4.1.223,3.592,3.592,0,0,1-2.13,6.422c-.178,0-.357,0-.535-.009a.933.933,0,0,1-.989-.729,2.14,2.14,0,0,0-.2-.493.668.668,0,0,0-.815-.371.653.653,0,0,0-.409.791c.04.2.109.4.164.6A5.676,5.676,0,0,1,15.15,14.9a5.767,5.767,0,0,0-.616.356.662.662,0,0,0-.215.867.625.625,0,0,0,.779.266,8.965,8.965,0,0,0,1.265-.646c.8-.489.925-.481,1.563.237a5.626,5.626,0,0,1,1.379,2.755c.11.6,0,.779-.562.888A9.05,9.05,0,0,0,15.9,20.633a1,1,0,0,1-1.089-.022,2.745,2.745,0,0,0-1.628-.378,2.387,2.387,0,0,0-.749.237.318.318,0,0,0,.1.548c.292.035.591.018.887.029a2.168,2.168,0,0,1,2.07,1.766,4.089,4.089,0,0,1,.024.71c0,.118-.025.237-.027.355,0,.29.111.462.3.466a.446.446,0,0,0,.434-.378,2.317,2.317,0,0,0,.1-1.054c-.156-.759-.115-.951.763-1.36A7.447,7.447,0,0,1,25.3,22.88a8.187,8.187,0,0,1,.584.688c-.1.253-.172.473-.266.685-.157.353-.334.7-.486,1.052a1.933,1.933,0,0,0-.146.51.656.656,0,0,0,.377.735.63.63,0,0,0,.773-.275,5.062,5.062,0,0,0,.285-.553c.174-.345.33-.7.524-1.033A9.116,9.116,0,0,1,41.98,23.646c.166.21.315.433.488.637a1.141,1.141,0,0,0,.336.284.594.594,0,0,0,.671-.055.575.575,0,0,0,.218-.636,1.719,1.719,0,0,0-.272-.555c-.343-.447-.706-.881-1.072-1.31-.153-.181-.343-.331-.5-.509-.285-.323-.293-.49-.057-.879a3.987,3.987,0,0,1,.256-.365,11.909,11.909,0,0,1,10.218-4.85,11.527,11.527,0,0,1,4.8,1.238c.213.1.425.215.627.34.468.29.524.465.311.953-.2.463-.433.914-.616,1.384a1.5,1.5,0,0,1-.764.825,6.649,6.649,0,0,0-.987.6,4.259,4.259,0,0,0-1.429,1.9.929.929,0,0,0-.07.429.386.386,0,0,0,.209.258.35.35,0,0,0,.32-.05,4.593,4.593,0,0,0,.424-.67,3.775,3.775,0,0,1,2.183-1.869,3.86,3.86,0,0,1,4.046.919c.2.18.376.38.587.539a.37.37,0,0,0,.324-.009.288.288,0,0,0,.14-.38,2.684,2.684,0,0,0-.382-.593,4.427,4.427,0,0,0-2.013-1.269c-.227-.069-.462-.114-.689-.185-.358-.111-.458-.326-.323-.688a3.022,3.022,0,0,1,.19-.4,10.845,10.845,0,0,1,8.45-5.859,10.673,10.673,0,0,1,5.832.889c.109.048.215.1.323.151.879.4.85.673.376,1.34a5.673,5.673,0,0,0-.5.843.652.652,0,0,0,.219.865.688.688,0,0,0,.879-.2,7.95,7.95,0,0,0,.459-.657,18.11,18.11,0,0,1,22.859-6.34c.375.179.737.387,1.11.571a3.051,3.051,0,0,0,.575.236.62.62,0,0,0,.69-.292.577.577,0,0,0-.1-.733,2.736,2.736,0,0,0-.569-.422c-.441-.246-.9-.467-1.347-.7-.159-.08-.327-.143-.482-.231-.331-.187-.366-.426-.1-.729a3.957,3.957,0,0,1,.382-.373,9.024,9.024,0,0,1,6.021-2.34,8.924,8.924,0,0,1,4.992,1.423,6.667,6.667,0,0,0,.766.453.629.629,0,0,0,.8-.2.645.645,0,0,0-.1-.815,3.856,3.856,0,0,0-.621-.5c-.3-.2-.616-.36-.917-.551-.415-.262-.433-.5-.074-.847a2.875,2.875,0,0,1,1.138-.684A3.5,3.5,0,0,1,114.188,4.2a3.382,3.382,0,0,1-.081,4.142,3.489,3.489,0,0,1-4.04.988,1.638,1.638,0,0,1-.593-.517.659.659,0,0,0-1.173.025c-.162.211-.287.451-.437.672a9.846,9.846,0,0,1-7.286,4.458,10,10,0,0,1-5.051-.789c-.193-.079-.377-.181-.573-.247a.682.682,0,0,0-.922.29c-.147.285-.051.585.285.845.116.091.256.151.378.236.353.246.4.439.193.83a4.111,4.111,0,0,1-.236.378,13.7,13.7,0,0,1-9.461,6.1,13.54,13.54,0,0,1-7.354-.826A5.523,5.523,0,0,0,77,20.5a.619.619,0,0,0-.736.36.668.668,0,0,0,.267.782,2.725,2.725,0,0,0,.547.3c.469.188.945.358,1.419.532.662.244.734.406.413,1.056a11.189,11.189,0,0,1-1.455,2.24A12.162,12.162,0,0,1,60.627,27.7c-.213-.162-.41-.344-.625-.5a2.371,2.371,0,0,0-.455-.274.59.59,0,0,0-.722.175.565.565,0,0,0-.053.669,2.833,2.833,0,0,0,.524.6A11.816,11.816,0,0,0,61.8,30.059c1.015.514,1.042.606.4,1.6a15.241,15.241,0,0,1-21.177,4.763,7.4,7.4,0,0,0-.768-.45.623.623,0,0,0-.741.965,2.415,2.415,0,0,0,.537.462c.634.387,1.264.787,1.928,1.117.735.365.734.62.318,1.233a10.947,10.947,0,0,1-11.256,4.692c-.088-.016-.177-.026-.263-.048-.626-.161-.739-.356-.5-.951a10.6,10.6,0,0,0,.679-2.211,2.165,2.165,0,0,0,.014-.7.612.612,0,0,0-.57-.483.6.6,0,0,0-.576.353,4.642,4.642,0,0,0-.226.765,8.492,8.492,0,0,1-3.618,5.329,8.591,8.591,0,0,1-13.263-5.552,4.166,4.166,0,0,1-.012-2.32" fill="#f3f5f0"/>
    <path id="패스_19608" data-name="패스 19608" d="M73.409,35.19a.843.843,0,0,1,.762.037,3.228,3.228,0,0,1,1.817,3.52,1.688,1.688,0,0,1-1.112,1.29,3.765,3.765,0,0,1-2.781-.075,2.41,2.41,0,0,1-1.339-1.473,6.909,6.909,0,0,0-.276-.749.608.608,0,0,0-.67-.323.624.624,0,0,0-.5.555,2.008,2.008,0,0,0,.062.612,3.9,3.9,0,0,0,3.48,2.989c.235.029.474.04.7.09a.326.326,0,0,1,.217.489,3.581,3.581,0,0,1-.649.83,3.392,3.392,0,0,1-3.5.653,5,5,0,0,1-3.371-4.771,3.466,3.466,0,0,1,1.558-2.948,4.168,4.168,0,0,1,2.138-.811,2.282,2.282,0,0,1,2.089.957c.178.235.309.505.468.755a3.7,3.7,0,0,0,.354.509.615.615,0,0,0,.737.113.551.551,0,0,0,.31-.593,7.161,7.161,0,0,0-.33-.912c-.087-.237-.33-.438-.164-.744" fill="#f3f5f0"/>
    <path id="패스_19609" data-name="패스 19609" d="M24.285,100.063a4.127,4.127,0,0,1,.255-.529,2.128,2.128,0,0,1,.367-.387q1.6-1.485,3.212-2.963a3.711,3.711,0,0,1,.341-.288.885.885,0,0,1,.761-.156c.4.1.807.2,1.21.309a94,94,0,0,0,10.934,2.135,74.9,74.9,0,0,0,10.046.723q3.614,0,7.214-.351a94.685,94.685,0,0,0,13.607-2.367c.433-.108.872-.2,1.291-.348a1.423,1.423,0,0,1,1.616.383c.806.791,1.653,1.541,2.482,2.309.284.262.562.53.849.789a1.192,1.192,0,0,1,.406,1.119c-.2,1.5-.387,3.007-.581,4.51q-.406,3.138-.815,6.277c-.261,2-.519,4.008-.789,6.01q-.4,2.961-.822,5.917a60.236,60.236,0,0,1-1.243,6.926,15.879,15.879,0,0,1-1.178,3.17,10.47,10.47,0,0,1-6.666,5.394,25.4,25.4,0,0,1-3.945.713c-2.3.3-4.6.583-6.9.91a18.149,18.149,0,0,0-2.168.5,2.843,2.843,0,0,0-1.673,1.115,1.282,1.282,0,0,1-.173.2.443.443,0,0,1-.638.022.707.707,0,0,1-.12-.131,3.12,3.12,0,0,0-2-1.24c-1.041-.244-2.088-.481-3.143-.633-2.354-.34-4.718-.62-7.075-.936a16.3,16.3,0,0,1-2.955-.661,10.4,10.4,0,0,1-6.587-5.976,17.5,17.5,0,0,1-1.181-3.918c-.4-2.252-.751-4.513-1.089-6.776-.3-2-.557-4-.824-6-.271-2.033-.532-4.066-.8-6.1s-.52-4.068-.782-6.1c-.136-1.061-.278-2.122-.416-3.183-.011-.088-.015-.177-.035-.388m53.749.568a1.174,1.174,0,0,0-.485-1.088c-.84-.755-1.666-1.526-2.5-2.29s-.822-.737-1.9-.486c-2.054.479-4.109.961-6.174,1.383C64.5,98.657,62,99,59.485,99.274c-2.012.22-4.028.362-6.047.415a71.929,71.929,0,0,1-9.973-.443q-3.5-.395-6.966-1.033c-2.282-.42-4.546-.919-6.784-1.525a1.238,1.238,0,0,0-1.3.3q-1.4,1.315-2.817,2.6a1.244,1.244,0,0,0-.425,1.194c.092.647.161,1.3.245,1.945q.414,3.227.83,6.454c.254,1.974.507,3.949.772,5.922.328,2.443.655,4.888,1.012,7.328.278,1.91.569,3.82.911,5.72a18.337,18.337,0,0,0,1.176,4.011,9.653,9.653,0,0,0,6.2,5.616,18.767,18.767,0,0,0,3.227.672c2.356.319,4.72.588,7.071.94a10.2,10.2,0,0,1,4.637,1.449.572.572,0,0,0,.738-.055,4.974,4.974,0,0,1,1.668-.831,13.335,13.335,0,0,1,1.735-.4c2.208-.316,4.419-.6,6.627-.9,1.207-.167,2.424-.3,3.613-.55a9.89,9.89,0,0,0,7.785-6.826,20.715,20.715,0,0,0,.839-3.185q.432-2.457.792-4.927c.347-2.381.671-4.766.993-7.15.27-2,.522-4.007.782-6.011q.495-3.8.989-7.6c.077-.589.145-1.179.218-1.769" fill="#05050e"/>
    <path id="패스_19610" data-name="패스 19610" d="M19.167,66.6c-.325,0-.487-.253-.362-.438a1.291,1.291,0,0,1,.354-.387c.708-.429,1.425-.846,2.151-1.245a1.031,1.031,0,0,1,.51-.072.293.293,0,0,1,.191.416,1.086,1.086,0,0,1-.3.311q-1.1.663-2.224,1.3a1.443,1.443,0,0,1-.32.115" fill="#05050e"/>
    <path id="패스_19611" data-name="패스 19611" d="M38.952,151.894c-.181-.044-.44-.1-.694-.171-.425-.121-.852-.241-1.27-.385a1.456,1.456,0,0,1-.441-.275.262.262,0,0,1-.066-.237.489.489,0,0,1,.232-.23.575.575,0,0,1,.346-.02q1.025.277,2.042.583a.728.728,0,0,1,.279.206.305.305,0,0,1-.17.487c-.058.011-.116.019-.258.042" fill="#05050e"/>
    <path id="패스_19612" data-name="패스 19612" d="M57.367,53.725c-.076-.107-.2-.21-.219-.329a.834.834,0,0,1,.1-.419q.5-1.142,1.01-2.273a1.081,1.081,0,0,1,.244-.362.39.39,0,0,1,.317-.076.43.43,0,0,1,.221.249.6.6,0,0,1-.009.347A11.025,11.025,0,0,1,57.9,53.368a.981.981,0,0,1-.243.255,1.163,1.163,0,0,1-.294.1" fill="#05050e"/>
    <path id="패스_19613" data-name="패스 19613" d="M56.716,55.636a1.361,1.361,0,0,1-.684,1.011.3.3,0,0,1-.388-.255,1.17,1.17,0,0,1,.6-1.022.278.278,0,0,1,.248.007,1.219,1.219,0,0,1,.224.259" fill="#05050e"/>
    <path id="패스_19614" data-name="패스 19614" d="M56.784,131.894a5.531,5.531,0,0,1-4.6,5.429,5.174,5.174,0,0,1-2.453-.245,5.509,5.509,0,0,1-3.509-6.422A4.959,4.959,0,0,1,50.2,126.9a5.646,5.646,0,0,1,3.406.283,4.98,4.98,0,0,1,3.175,4.711m-7.951-.157v-.031c-.387-.018-.772-.04-1.158-.05a3.038,3.038,0,0,0-.619.028.364.364,0,0,0-.241.211.261.261,0,0,0,.218.328,4.4,4.4,0,0,0,.788.126c.771.037,1.544.045,2.315.079a1.94,1.94,0,0,1,.6.12.368.368,0,0,1,.189.27.364.364,0,0,1-.156.288,2.49,2.49,0,0,1-.58.2,5.854,5.854,0,0,0-1.8.745,1.87,1.87,0,0,0-.472.4.479.479,0,0,0-.045.4c.065.15.244.153.388.075.233-.128.456-.277.69-.4a3.559,3.559,0,0,1,1.589-.53.425.425,0,0,1,.483.414c.025.415.009.831.025,1.247a4.448,4.448,0,0,0,.092.79.338.338,0,0,0,.267.181.347.347,0,0,0,.262-.183,1.583,1.583,0,0,0,.086-.519c.011-.415-.006-.831.008-1.247.02-.628.22-.781.847-.662a2.158,2.158,0,0,1,.51.151c.4.187.795.4,1.194.59a2.571,2.571,0,0,0,.486.195.271.271,0,0,0,.22-.112.264.264,0,0,0,.022-.242,2.014,2.014,0,0,0-.415-.448,5.354,5.354,0,0,0-1.863-.821c-.173-.044-.352-.062-.522-.113-.255-.076-.4-.259-.365-.432a.469.469,0,0,1,.468-.341c.176-.021.356-.013.534-.018.743-.024,1.486-.032,2.226-.08a3.756,3.756,0,0,0,.852-.2c.054-.017.1-.152.1-.227a.261.261,0,0,0-.14-.2,2.635,2.635,0,0,0-.611-.07c-.8.018-1.6.055-2.406.076a4.538,4.538,0,0,1-.709-.027c-.186-.025-.355-.142-.336-.344a.491.491,0,0,1,.219-.346,3.508,3.508,0,0,1,.673-.218,5.165,5.165,0,0,0,1.969-1.007,2.3,2.3,0,0,0,.387-.475c.078-.114-.06-.329-.2-.323a.718.718,0,0,0-.335.072c-.2.122-.384.279-.581.412a3.988,3.988,0,0,1-1.368.628c-.621.136-.83-.021-.85-.644-.013-.415.005-.831-.009-1.247a1.52,1.52,0,0,0-.092-.516.351.351,0,0,0-.267-.181.336.336,0,0,0-.259.19,3.244,3.244,0,0,0-.087.7c-.015.415,0,.832-.017,1.247-.021.365-.228.521-.6.471a1.753,1.753,0,0,1-.514-.132c-.375-.177-.741-.372-1.1-.576-.178-.1-.334-.247-.509-.358a.35.35,0,0,0-.482.037c-.118.189-.018.347.106.475a3.515,3.515,0,0,0,.473.4,5.483,5.483,0,0,0,1.678.808c.2.059.4.109.6.178a.383.383,0,0,1,.285.4.362.362,0,0,1-.345.345,3.771,3.771,0,0,1-.532.034c-.415,0-.831,0-1.246,0" fill="#ca6d4f"/>
    <path id="패스_19615" data-name="패스 19615" d="M67.389,124.847a3.872,3.872,0,0,1,2.781.992,3.77,3.77,0,0,1,1.217,2.591,5.9,5.9,0,0,1-.315,2.453,7.435,7.435,0,0,1-3.117,3.985,4.988,4.988,0,0,1-3.562.805,4.012,4.012,0,0,1-3.165-2.569,4.9,4.9,0,0,1-.2-3.055,6.959,6.959,0,0,1,5.56-5.134c.262-.043.531-.046.8-.068m-.7,3.255a1.157,1.157,0,0,1-.224-.83c-.009-.356,0-.713-.011-1.069a1.127,1.127,0,0,0-.085-.338.253.253,0,0,0-.38-.036.95.95,0,0,0-.154.4c-.022.475-.03.951-.015,1.426.027.828-.335,1.08-1.1.961a7.271,7.271,0,0,1-1.03-.273c-.169-.053-.322-.153-.486-.222-.277-.117-.471-.082-.539.089s0,.35.252.507a2.351,2.351,0,0,0,.553.283c.425.125.86.222,1.294.314.173.037.356.023.532.046s.347.094.388.3a.423.423,0,0,1-.321.47,3.25,3.25,0,0,1-.512.146c-.873.18-1.749.346-2.619.535a1.906,1.906,0,0,0-.551.252.264.264,0,0,0-.054.236c.02.072.106.174.168.178a2.914,2.914,0,0,0,.705-.018c.7-.127,1.4-.286,2.1-.418a4.223,4.223,0,0,1,.793-.08.336.336,0,0,1,.251.19.351.351,0,0,1-.091.311,3.074,3.074,0,0,1-.61.357,7.018,7.018,0,0,0-1.856,1.217,3.325,3.325,0,0,0-.514.608.324.324,0,0,0,.048.308.339.339,0,0,0,.314.065,3.243,3.243,0,0,0,.563-.424,5.916,5.916,0,0,1,1.543-1.045c.483-.215.727-.072.765.464.025.355,0,.713.014,1.07a3.322,3.322,0,0,0,.073.614.245.245,0,0,0,.185.154.4.4,0,0,0,.284-.145.985.985,0,0,0,.092-.426c.013-.386,0-.773.011-1.159a5.041,5.041,0,0,1,.081-.7.471.471,0,0,1,.416-.408,2.435,2.435,0,0,1,.7-.056c.437.069.866.2,1.3.3a2.507,2.507,0,0,0,.426.1.282.282,0,0,0,.205-.135.277.277,0,0,0,.02-.245,1.341,1.341,0,0,0-.39-.343,3.716,3.716,0,0,0-1.641-.353,3.394,3.394,0,0,1-.783-.106.289.289,0,0,1-.072-.5,1.526,1.526,0,0,1,.387-.209c.224-.077.458-.126.687-.192.769-.224,1.541-.442,2.306-.684a1.745,1.745,0,0,0,.516-.317.274.274,0,0,0,.029-.243.271.271,0,0,0-.181-.158,1.9,1.9,0,0,0-.521.065c-.8.223-1.6.461-2.4.685a3.238,3.238,0,0,1-.61.109.286.286,0,0,1-.327-.237.394.394,0,0,1,.1-.316,4.988,4.988,0,0,1,.685-.4,6.682,6.682,0,0,0,2.162-1.689,1.389,1.389,0,0,0,.224-.468.256.256,0,0,0-.341-.264,2.637,2.637,0,0,0-.474.387,6.866,6.866,0,0,1-1.525,1.223.8.8,0,0,1-.76.143" fill="#ca6d4f"/>
    <path id="패스_19616" data-name="패스 19616" d="M42,131.272a4.413,4.413,0,0,1-1.662,3.6,3.991,3.991,0,0,1-3.175.848,5.829,5.829,0,0,1-3.235-1.564,7.182,7.182,0,0,1-2.471-5.329,4.067,4.067,0,0,1,.321-1.648,3.6,3.6,0,0,1,2.966-2.263,5.194,5.194,0,0,1,2.626.3,6.814,6.814,0,0,1,4.452,4.831A10.4,10.4,0,0,1,42,131.272m-5.868-3.2a.587.587,0,0,1-.667-.07c-.433-.312-.861-.629-1.276-.963-.231-.186-.423-.419-.649-.61a.278.278,0,0,0-.4.008.3.3,0,0,0-.029.406,3.619,3.619,0,0,0,.387.486,6.86,6.86,0,0,0,2.076,1.515c.28.134.656.222.61.657-.026.249-.319.289-.943.12-.746-.2-1.486-.422-2.23-.63a2.2,2.2,0,0,0-.517-.113.391.391,0,0,0-.287.154.26.26,0,0,0,.123.376,3.059,3.059,0,0,0,.646.287c.711.213,1.429.4,2.143.607.256.073.515.145.763.243a.4.4,0,0,1,.3.395c-.018.213-.2.3-.372.322-.234.034-.474.023-.711.036a3.81,3.81,0,0,0-1.543.394c-.295.152-.425.383-.3.547.156.213.362.163.559.073A3.661,3.661,0,0,1,35.552,132c.542.029.7.165.727.686.023.445,0,.891.014,1.337a2.86,2.86,0,0,0,.088.61.281.281,0,0,0,.33.229.367.367,0,0,0,.218-.242,4.4,4.4,0,0,0,.059-.709c.01-.3-.007-.594.011-.891.038-.58.28-.711.83-.46a2.2,2.2,0,0,1,.392.21c.431.314.854.64,1.28.961a2.373,2.373,0,0,0,.427.309.343.343,0,0,0,.31-.06.337.337,0,0,0,.058-.313,2.491,2.491,0,0,0-.441-.55,7.108,7.108,0,0,0-1.924-1.273,2.614,2.614,0,0,1-.625-.333c-.107-.09-.122-.289-.175-.429a1.193,1.193,0,0,1,1-.052c.7.132,1.4.286,2.1.419a4.4,4.4,0,0,0,.707.064c.158,0,.307-.077.3-.253a.378.378,0,0,0-.166-.283,2.513,2.513,0,0,0-.589-.18c-.872-.182-1.749-.346-2.619-.537a2.117,2.117,0,0,1-.64-.278.345.345,0,0,1,.111-.566,3.793,3.793,0,0,1,.616-.069,4.449,4.449,0,0,0,1.869-.539,1.44,1.44,0,0,0,.377-.362.271.271,0,0,0-.01-.244c-.038-.065-.147-.144-.207-.132a3.086,3.086,0,0,0-.583.192,3.847,3.847,0,0,1-1.455.381c-.719.019-.917-.153-.945-.854-.019-.475-.01-.951-.024-1.426a1.062,1.062,0,0,0-.077-.431.424.424,0,0,0-.282-.164.256.256,0,0,0-.2.131,1.17,1.17,0,0,0-.112.421c-.016.326,0,.654-.009.98a1.138,1.138,0,0,1-.153.768" fill="#ca6d4f"/>
    <path id="패스_19617" data-name="패스 19617" d="M56.878,114.31c-.315.251-.549.428-.772.618-1.062.906-2.121,1.818-3.184,2.725a5.5,5.5,0,0,1-.491.384.5.5,0,0,1-.608-.005,1.146,1.146,0,0,1-.087-.315q-.009-3.342,0-6.685a1.164,1.164,0,0,1,.086-.314.523.523,0,0,1,.613-.022c.2.125.387.277.576.421q1.488,1.136,2.977,2.272a6.508,6.508,0,0,0,.584.409.427.427,0,0,0,.567-.082c.143-.15.283-.305.414-.465q.963-1.171,1.92-2.347c.113-.138.221-.28.34-.413.505-.572.765-.586,1.318-.041.784.771,1.556,1.555,2.33,2.336a2.5,2.5,0,0,1,.282.342.454.454,0,0,1,.024.505,2.927,2.927,0,0,1-.239.374c-.8,1.033-1.6,2.071-2.413,3.093-.556.7-.814.706-1.423.078-.7-.725-1.4-1.463-2.1-2.19-.2-.21-.424-.4-.717-.678m3.574,1.366a8.84,8.84,0,0,0,1.447-1.831.472.472,0,0,0-.1-.574c-.319-.348-.636-.7-.978-1.023a.419.419,0,0,0-.693.023c-.381.45-.738.92-1.1,1.389a.493.493,0,0,0-.005.655,5.452,5.452,0,0,0,1.422,1.361m-7.214-.4a1.787,1.787,0,0,0,1.319-.98c-.141-.466-.533-.643-.869-.864-.1-.066-.264-.039-.42-.057a5.8,5.8,0,0,0-.03,1.9" fill="#ca6d4f"/>
    <path id="패스_19618" data-name="패스 19618" d="M36.61,115.236a1.1,1.1,0,0,0,.214-.877c0-1.218,0-2.436,0-3.655,0-.208-.007-.416.008-.623.03-.408.205-.636.5-.617.587.038.9.194.908.639.022.8.038,1.6.038,2.4,0,1.039-.017,2.079-.027,3.118,0,.268.007.536-.011.8-.026.386-.176.509-.579.5a1.576,1.576,0,0,1-.266-.024c-1.079-.205-2.162-.4-3.236-.628-.526-.112-.626-.265-.665-.8-.017-.237-.013-.475-.013-.713q0-2.317,0-4.635c0-.208-.005-.416.007-.624.027-.494.132-.663.406-.683.523-.037.887.163.976.573a3.337,3.337,0,0,1,.057.707c.005,1.248,0,2.5,0,3.743,0,.208,0,.416.005.624a.606.606,0,0,0,.488.652,2.114,2.114,0,0,0,1.184.115" fill="#ca6d4f"/>
    <path id="패스_19619" data-name="패스 19619" d="M41.39,115a6.285,6.285,0,0,0-1.218-1.46,10.307,10.307,0,0,1-1.282-1.523,2.462,2.462,0,0,1,.441-.447c.8-.458,1.6-.907,2.42-1.331a.825.825,0,0,1,1.176.75.533.533,0,0,1-.207.366c-.266.187-.561.332-.844.5-.154.089-.314.171-.458.274a.4.4,0,0,0-.084.621,7.929,7.929,0,0,0,.536.6c.473.494.958.976,1.424,1.475.486.521.464.738-.144,1.107q-1.143.693-2.318,1.334a.814.814,0,0,1-1.2-.7.459.459,0,0,1,.239-.447c.278-.171.569-.321.849-.49.249-.149.549-.246.669-.616" fill="#ca6d4f"/>
    <path id="패스_19620" data-name="패스 19620" d="M48.456,111.9c-.27.016-.593.026-.912.058a.546.546,0,0,0-.567.563c-.019.206-.012.415-.012.622q0,1.824,0,3.649c0,.148-.006.3,0,.444.016.691-.4.749-.863.694a.572.572,0,0,1-.572-.568,6.461,6.461,0,0,1-.021-.71q0-1.826,0-3.649c0-.178.006-.356-.006-.533-.028-.438-.14-.569-.571-.662-.174-.037-.354-.042-.528-.074a.738.738,0,0,1-.491-1.149.574.574,0,0,1,.549-.228c.473.029.945.077,1.418.108.681.046,1.363.076,2.042.127.643.049.825.285.74.927a.561.561,0,0,1-.06.166c-.027.052-.065.1-.144.215" fill="#ca6d4f"/>
    <path id="패스_19621" data-name="패스 19621" d="M73.569,107.63a.8.8,0,0,1,.187.769.557.557,0,0,1-.349.478c-.191.08-.391.136-.586.205-.6.211-.673.314-.705.972-.01.207-.006.415-.006.623q0,1.737,0,3.475c0,.178.006.356,0,.534a.848.848,0,0,1-1,.869.382.382,0,0,1-.376-.321,4.536,4.536,0,0,1-.052-.709c0-1.187,0-2.375,0-3.563,0-.208.007-.417,0-.624-.026-.448-.2-.593-.618-.533-.117.017-.23.064-.347.079-.392.053-.571-.025-.668-.28a.775.775,0,0,1,.253-.95,1.606,1.606,0,0,1,.41-.164c1.09-.29,2.18-.581,3.275-.853a2.407,2.407,0,0,1,.587-.007" fill="#ca6d4f"/>
    <path id="패스_19622" data-name="패스 19622" d="M30.91,112.535c.256-.219.2-.471.2-.7.009-.83,0-1.661.006-2.491a4.639,4.639,0,0,1,.046-.707.427.427,0,0,1,.514-.371,2.065,2.065,0,0,1,.513.129.477.477,0,0,1,.317.4,5.354,5.354,0,0,1,.033.62q-.015,2.8-.039,5.6a3.134,3.134,0,0,1-.045.53.38.38,0,0,1-.62.228,2.434,2.434,0,0,1-.389-.363q-1.194-1.378-2.378-2.766c-.039-.045-.074-.092-.112-.138-.405-.485-.08-.906.41-1.091a.505.505,0,0,1,.4.1,5.386,5.386,0,0,1,.493.508c.183.187.315.438.65.505" fill="#ca6d4f"/>
    <path id="패스_19623" data-name="패스 19623" d="M68.538,112.629q0,1.244,0,2.487a3.892,3.892,0,0,1-.024.621.859.859,0,0,1-1.177.581.45.45,0,0,1-.2-.268,2.759,2.759,0,0,1-.06-.615q-.006-2.71,0-5.419a3.488,3.488,0,0,1,.013-.355c.047-.454.182-.607.637-.732.53-.145.806.039.814.591.015,1.036,0,2.073,0,3.109Z" fill="#ca6d4f"/>
    <path id="패스_19624" data-name="패스 19624" d="M62.195,122.484c.122-.487.227-.98.372-1.46.137-.455.325-.894.475-1.344a2.8,2.8,0,0,0-.067-2.252.918.918,0,0,1-.094-.249c-.026-.154,0-.327.156-.376a.477.477,0,0,1,.4.044,1.74,1.74,0,0,1,.4.571,2.565,2.565,0,0,1,.184,1.571c-.11.491-.254.976-.4,1.458-.156.511-.364,1.007-.495,1.524A1.848,1.848,0,0,0,64,124.256c.049.034.1.063.148.1.177.137.23.319.14.458a.416.416,0,0,1-.463.186,1.772,1.772,0,0,1-1.083-.732,3.064,3.064,0,0,1-.55-1.783" fill="#ca6d4f"/>
    <path id="패스_19625" data-name="패스 19625" d="M49.815,119.888a2.62,2.62,0,0,1-.3,1.316c-.161.349-.364.68-.512,1.034a4.735,4.735,0,0,0-.316,1.008,1.215,1.215,0,0,0,.409,1.2,1.1,1.1,0,0,1,.291.326.387.387,0,0,1-.012.326.369.369,0,0,1-.292.148,1.124,1.124,0,0,1-.487-.177,1.8,1.8,0,0,1-.732-1.272,2.086,2.086,0,0,1,.107-1.136c.181-.436.391-.86.575-1.3a10.371,10.371,0,0,0,.444-1.155,1.3,1.3,0,0,0-.238-1.176,2.423,2.423,0,0,1-.3-.432.371.371,0,0,1,.042-.32.355.355,0,0,1,.3-.126,1.646,1.646,0,0,1,.587.361,1.743,1.743,0,0,1,.435,1.368" fill="#ca6d4f"/>
    <path id="패스_19626" data-name="패스 19626" d="M34.452,124.23c-.3,0-.46-.264-.349-.451a1.514,1.514,0,0,1,.275-.338,1.681,1.681,0,0,0,.493-1.539c-.047-.38-.135-.756-.2-1.134a3.785,3.785,0,0,1-.039-2.014,4.659,4.659,0,0,1,.456-.848.491.491,0,0,1,.291-.185.42.42,0,0,1,.32.059.4.4,0,0,1,.122.3.646.646,0,0,1-.144.319,2.347,2.347,0,0,0-.287,1.874c.066.408.19.807.258,1.215a2.988,2.988,0,0,1-.148,1.743,1.751,1.751,0,0,1-.64.83,2.216,2.216,0,0,1-.406.168" fill="#ca6d4f"/>
    <path id="패스_19627" data-name="패스 19627" d="M59.663,104.028c-.074.335-.162.8-.281,1.257-.09.343-.224.675-.333,1.014a2.749,2.749,0,0,0,.046,2.164.891.891,0,0,1,.074.255.319.319,0,0,1-.415.322.934.934,0,0,1-.346-.259,1.925,1.925,0,0,1-.373-1.076,4.748,4.748,0,0,1,.276-1.748c.147-.451.295-.9.427-1.357a2.177,2.177,0,0,0-.069-1.566,1.219,1.219,0,0,1-.1-.337.293.293,0,0,1,.189-.358.541.541,0,0,1,.4.082,1.348,1.348,0,0,1,.443.849,7.365,7.365,0,0,1,.068.758" fill="#ca6d4f"/>
    <path id="패스_19628" data-name="패스 19628" d="M35.379,100.32c.13.1.254.154.3.245a.41.41,0,0,1,0,.331,1.226,1.226,0,0,1-.311.311,1.375,1.375,0,0,0-.478,1.361c.048.321.159.633.238.949.1.4.208.805.3,1.209a2.182,2.182,0,0,1-.1,1.229,2.492,2.492,0,0,1-.345.616.459.459,0,0,1-.547.176.36.36,0,0,1-.1-.544,2.47,2.47,0,0,0,.091-2.231,4.92,4.92,0,0,1-.346-1.915,1.9,1.9,0,0,1,.615-1.342,3.771,3.771,0,0,1,.687-.395" fill="#ca6d4f"/>
    <path id="패스_19629" data-name="패스 19629" d="M69.935,120.612a4.2,4.2,0,0,1-.423,1.95,2.344,2.344,0,0,1-.892.97,1.337,1.337,0,0,1-.327.127c-.2.054-.43-.027-.443-.177a.745.745,0,0,1,.1-.4.86.86,0,0,1,.268-.228,2.135,2.135,0,0,0,.875-1.768c.012-.561-.057-1.123-.1-1.685-.031-.473-.073-.945-.1-1.419a.654.654,0,0,1,.044-.347c.068-.114.193-.256.3-.265s.23.131.343.211a.131.131,0,0,1,.029.082c.113,1.032.225,2.063.321,2.951" fill="#ca6d4f"/>
    <path id="패스_19630" data-name="패스 19630" d="M42.86,120.961a5.154,5.154,0,0,1-.976,3.217,1.5,1.5,0,0,1-.462.391.307.307,0,0,1-.42-.357,2.417,2.417,0,0,1,.28-.547,4.516,4.516,0,0,0,.467-4.237,2.032,2.032,0,0,1-.136-.6.354.354,0,0,1,.194-.261.349.349,0,0,1,.317.044,1.712,1.712,0,0,1,.347.5,4.274,4.274,0,0,1,.389,1.844" fill="#ca6d4f"/>
    <path id="패스_19631" data-name="패스 19631" d="M69.33,99.349c-.1.159-.154.313-.261.388a1.491,1.491,0,0,0-.546,1.58c.033.264.11.522.132.786a7.28,7.28,0,0,1,.047,1.233,1.425,1.425,0,0,1-.639,1.116c-.134.087-.3.127-.4,0a.992.992,0,0,1-.12-.39.125.125,0,0,1,.03-.082,2.577,2.577,0,0,0,.236-2.13,5.414,5.414,0,0,1-.115-1.228,1.66,1.66,0,0,1,.786-1.414.9.9,0,0,1,.5-.127c.111.008.212.154.353.266" fill="#ca6d4f"/>
    <path id="패스_19632" data-name="패스 19632" d="M53.806,122.712a5.294,5.294,0,0,1-.715,2.8,2.324,2.324,0,0,1-.448.537.394.394,0,0,1-.324.022.313.313,0,0,1-.181-.366.787.787,0,0,1,.087-.249c.078-.159.17-.311.25-.469a4.984,4.984,0,0,0,.474-3.1c-.023-.145-.064-.289-.078-.435-.024-.258.1-.453.287-.481s.363.093.452.344a2.413,2.413,0,0,1,.126.514c.036.293.048.588.07.883" fill="#ca6d4f"/>
    <path id="패스_19633" data-name="패스 19633" d="M32.406,121.679c-.08.5-.151.994-.247,1.487a.816.816,0,0,1-.2.384.385.385,0,0,1-.313.1c-.091-.022-.174-.141-.225-.236a.494.494,0,0,1-.025-.261,4.45,4.45,0,0,1,.078-.528,5.482,5.482,0,0,0-.236-2.98,5.847,5.847,0,0,1-.243-.761.525.525,0,0,1,.149-.376.328.328,0,0,1,.467.1,2.926,2.926,0,0,1,.3.544,7.43,7.43,0,0,1,.5,2.531" fill="#ca6d4f"/>
    <path id="패스_19634" data-name="패스 19634" d="M53.874,102.908a1.277,1.277,0,0,1,.227.359.544.544,0,0,1-.1.332c-.087.155-.2.293-.3.442a3.3,3.3,0,0,0-.543,2.031,5.914,5.914,0,0,1,.013.8.336.336,0,0,1-.213.245.7.7,0,0,1-.389-.136c-.063-.04-.09-.152-.11-.237a3.812,3.812,0,0,1,.983-3.62,1.483,1.483,0,0,1,.429-.214" fill="#ca6d4f"/>
    <path id="패스_19635" data-name="패스 19635" d="M45.287,103.815a8.737,8.737,0,0,1-.522,2.726,1.8,1.8,0,0,1-.331.51.305.305,0,0,1-.514-.185,1.243,1.243,0,0,1,.07-.517,7.331,7.331,0,0,0,.473-2.858c-.014-.456.149-.717.375-.677.339.061.35.352.394.612.024.145.041.291.055.389" fill="#ca6d4f"/>
    <path id="패스_19636" data-name="패스 19636" d="M48.833,131.737c.415,0,.831,0,1.246,0a3.771,3.771,0,0,0,.532-.034.362.362,0,0,0,.345-.345.383.383,0,0,0-.285-.4c-.2-.069-.4-.119-.6-.178a5.483,5.483,0,0,1-1.678-.808,3.515,3.515,0,0,1-.473-.4c-.124-.128-.224-.286-.106-.475a.35.35,0,0,1,.482-.037c.175.111.331.256.509.358.361.2.727.4,1.1.576a1.753,1.753,0,0,0,.514.132c.374.05.581-.106.6-.471.021-.415,0-.832.017-1.247a3.244,3.244,0,0,1,.087-.7.336.336,0,0,1,.259-.19.351.351,0,0,1,.267.181,1.52,1.52,0,0,1,.092.516c.014.416,0,.832.009,1.247.02.623.229.78.85.644a3.988,3.988,0,0,0,1.368-.628c.2-.133.378-.29.581-.412a.718.718,0,0,1,.335-.072c.142-.006.28.209.2.323a2.3,2.3,0,0,1-.387.475,5.165,5.165,0,0,1-1.969,1.007,3.508,3.508,0,0,0-.673.218.491.491,0,0,0-.219.346c-.019.2.15.319.336.344a4.538,4.538,0,0,0,.709.027c.8-.021,1.6-.058,2.406-.076a2.635,2.635,0,0,1,.611.07.261.261,0,0,1,.14.2c.007.075-.042.21-.1.227a3.756,3.756,0,0,1-.852.2c-.74.048-1.483.056-2.226.08-.178,0-.358,0-.534.018a.469.469,0,0,0-.468.341c-.04.173.11.356.365.432.17.051.349.069.522.113a5.354,5.354,0,0,1,1.863.821,2.014,2.014,0,0,1,.415.448.264.264,0,0,1-.022.242.271.271,0,0,1-.22.112,2.571,2.571,0,0,1-.486-.195c-.4-.194-.791-.4-1.194-.59a2.158,2.158,0,0,0-.51-.151c-.627-.119-.827.034-.847.662-.014.416,0,.832-.008,1.247a1.583,1.583,0,0,1-.086.519.347.347,0,0,1-.262.183.338.338,0,0,1-.267-.181,4.448,4.448,0,0,1-.092-.79c-.016-.416,0-.832-.025-1.247a.425.425,0,0,0-.483-.414,3.559,3.559,0,0,0-1.589.53c-.234.128-.457.277-.69.4-.144.078-.323.075-.388-.075a.479.479,0,0,1,.045-.4,1.87,1.87,0,0,1,.472-.4,5.854,5.854,0,0,1,1.8-.745,2.49,2.49,0,0,0,.58-.2.364.364,0,0,0,.156-.288.368.368,0,0,0-.189-.27,1.94,1.94,0,0,0-.6-.12c-.771-.034-1.544-.042-2.315-.079a4.4,4.4,0,0,1-.788-.126.261.261,0,0,1-.218-.328.364.364,0,0,1,.241-.211,3.038,3.038,0,0,1,.619-.028c.386.01.771.032,1.158.05v.031" fill="#f3f5f0"/>
    <path id="패스_19637" data-name="패스 19637" d="M66.692,128.1a.8.8,0,0,0,.76-.143,6.866,6.866,0,0,0,1.525-1.223,2.637,2.637,0,0,1,.474-.387.256.256,0,0,1,.341.264,1.389,1.389,0,0,1-.224.468,6.682,6.682,0,0,1-2.162,1.689,4.988,4.988,0,0,0-.685.4.394.394,0,0,0-.1.316.286.286,0,0,0,.327.237,3.238,3.238,0,0,0,.61-.109c.8-.224,1.6-.462,2.4-.685a1.9,1.9,0,0,1,.521-.065.271.271,0,0,1,.181.158.274.274,0,0,1-.029.243,1.745,1.745,0,0,1-.516.317c-.765.242-1.537.46-2.306.684-.229.066-.463.115-.687.192a1.526,1.526,0,0,0-.387.209.289.289,0,0,0,.072.5,3.394,3.394,0,0,0,.783.106,3.716,3.716,0,0,1,1.641.353,1.341,1.341,0,0,1,.39.343.277.277,0,0,1-.02.245.282.282,0,0,1-.205.135,2.507,2.507,0,0,1-.426-.1c-.431-.1-.86-.231-1.3-.3a2.435,2.435,0,0,0-.7.056.471.471,0,0,0-.416.408,5.041,5.041,0,0,0-.081.7c-.014.386,0,.773-.011,1.159a.985.985,0,0,1-.092.426.4.4,0,0,1-.284.145.245.245,0,0,1-.185-.154,3.322,3.322,0,0,1-.073-.614c-.013-.357.011-.715-.014-1.07-.038-.536-.282-.679-.765-.464A5.916,5.916,0,0,0,63.5,133.6a3.243,3.243,0,0,1-.563.424.339.339,0,0,1-.314-.065.324.324,0,0,1-.048-.308,3.325,3.325,0,0,1,.514-.608,7.018,7.018,0,0,1,1.856-1.217,3.074,3.074,0,0,0,.61-.357.351.351,0,0,0,.091-.311.336.336,0,0,0-.251-.19,4.223,4.223,0,0,0-.793.08c-.7.132-1.4.291-2.1.418a2.914,2.914,0,0,1-.705.018c-.062,0-.148-.106-.168-.178a.264.264,0,0,1,.054-.236,1.906,1.906,0,0,1,.551-.252c.87-.189,1.746-.355,2.619-.535a3.25,3.25,0,0,0,.512-.146.423.423,0,0,0,.321-.47c-.041-.21-.2-.28-.388-.3s-.359-.009-.532-.046c-.434-.092-.869-.189-1.294-.314a2.351,2.351,0,0,1-.553-.283c-.251-.157-.325-.325-.252-.507s.262-.206.539-.089c.164.069.317.169.486.222a7.271,7.271,0,0,0,1.03.273c.761.119,1.123-.133,1.1-.961-.015-.475-.007-.951.015-1.426a.95.95,0,0,1,.154-.4.253.253,0,0,1,.38.036,1.127,1.127,0,0,1,.085.338c.012.356,0,.713.011,1.069a1.157,1.157,0,0,0,.224.83" fill="#f3f5f0"/>
    <path id="패스_19638" data-name="패스 19638" d="M36.135,128.069a1.138,1.138,0,0,0,.153-.768c.006-.326-.007-.654.009-.98a1.17,1.17,0,0,1,.112-.421.256.256,0,0,1,.2-.131.424.424,0,0,1,.282.164,1.062,1.062,0,0,1,.077.431c.014.475.005.951.024,1.426.028.7.226.873.945.854a3.847,3.847,0,0,0,1.455-.381,3.086,3.086,0,0,1,.583-.192c.06-.012.169.067.207.132a.271.271,0,0,1,.01.244,1.44,1.44,0,0,1-.377.362,4.449,4.449,0,0,1-1.869.539,3.793,3.793,0,0,0-.616.069.345.345,0,0,0-.111.566,2.117,2.117,0,0,0,.64.278c.87.191,1.747.355,2.619.537a2.513,2.513,0,0,1,.589.18.378.378,0,0,1,.166.283c.009.176-.14.257-.3.253a4.4,4.4,0,0,1-.707-.064c-.7-.133-1.4-.287-2.1-.419a1.193,1.193,0,0,0-1,.052c.053.14.068.339.175.429a2.614,2.614,0,0,0,.625.333,7.108,7.108,0,0,1,1.924,1.273,2.491,2.491,0,0,1,.441.55.337.337,0,0,1-.058.313.343.343,0,0,1-.31.06,2.373,2.373,0,0,1-.427-.309c-.426-.321-.849-.647-1.28-.961a2.2,2.2,0,0,0-.392-.21c-.55-.251-.792-.12-.83.46-.018.3,0,.6-.011.891a4.4,4.4,0,0,1-.059.709.367.367,0,0,1-.218.242.281.281,0,0,1-.33-.229,2.86,2.86,0,0,1-.088-.61c-.014-.446.009-.892-.014-1.337-.026-.521-.185-.657-.727-.686a3.661,3.661,0,0,0-1.739.308c-.2.09-.4.14-.559-.073-.12-.164.01-.395.3-.547a3.81,3.81,0,0,1,1.543-.394c.237-.013.477,0,.711-.036.176-.026.354-.109.372-.322a.4.4,0,0,0-.3-.395c-.248-.1-.507-.17-.763-.243-.714-.2-1.432-.394-2.143-.607a3.059,3.059,0,0,1-.646-.287.26.26,0,0,1-.123-.376.391.391,0,0,1,.287-.154,2.2,2.2,0,0,1,.517.113c.744.208,1.484.427,2.23.63.624.169.917.129.943-.12.046-.435-.33-.523-.61-.657a6.86,6.86,0,0,1-2.076-1.515,3.619,3.619,0,0,1-.387-.486.3.3,0,0,1,.029-.406.278.278,0,0,1,.4-.008c.226.191.418.424.649.61.415.334.843.651,1.276.963a.587.587,0,0,0,.667.07" fill="#f3f5f0"/>
    <path id="패스_19639" data-name="패스 19639" d="M60.452,115.676a5.468,5.468,0,0,1-1.422-1.361.5.5,0,0,1,.005-.655c.358-.469.715-.939,1.1-1.389a.419.419,0,0,1,.693-.023c.341.324.658.675.977,1.023a.471.471,0,0,1,.1.574,8.846,8.846,0,0,1-1.448,1.831" fill="#f3f5f0"/>
    <path id="패스_19640" data-name="패스 19640" d="M53.238,115.28a5.8,5.8,0,0,1,.03-1.9c.156.018.319-.009.42.057.336.221.728.4.869.864a1.787,1.787,0,0,1-1.319.98" fill="#f3f5f0"/>
    <path id="패스_19641" data-name="패스 19641" d="M27.673,145.823s6.818,4.361,11,5.16,10.012,2.273,15.848,1.843,11.855-1.782,15.664-3.624a32.266,32.266,0,0,0,5.221-2.949,6.826,6.826,0,0,1-2.518,4.607c-2.273,1.6-12.47,6.819-22.176,6.02s-16.769-3.993-18.182-4.853-4.792-5.835-4.853-6.2" fill="#0075a9"/>
    <path id="패스_19642" data-name="패스 19642" d="M34.574,57.9c.161-.263.041-.474-.048-.7a7.522,7.522,0,0,1-.4-1.085,5.356,5.356,0,0,1,1.12-4.854,7.114,7.114,0,0,1,7.989-2.188,5.4,5.4,0,0,1,3.708,4.984,5.63,5.63,0,0,1-.128,2.038,2.247,2.247,0,0,0-.037.494.689.689,0,0,0,.659.272c1.01-.029,2.019-.091,3.029-.089a.975.975,0,0,0,1.015-.685,22.508,22.508,0,0,1,1.665-3.15.828.828,0,0,0,.2-.79,3.844,3.844,0,0,0-.549-.162,4.076,4.076,0,0,1-3.4-2.792,4.768,4.768,0,0,1,1.731-5.614,6.221,6.221,0,0,1,3.044-.906,5.036,5.036,0,0,1,2.767.547,2.718,2.718,0,0,0,1.627.3,5.229,5.229,0,0,1,3.718.951,5.619,5.619,0,0,1,2.343,4.32,7.425,7.425,0,0,1-.959,4.2,11.751,11.751,0,0,1-1.862,2.494q-.461.484-.892,1a2.142,2.142,0,0,0-.208.426,1.512,1.512,0,0,0,.405.205c.53.072,1.064.12,1.6.171A77.42,77.42,0,0,1,79.4,60.5a30.561,30.561,0,0,1,5.173,2.174A12.431,12.431,0,0,1,88,65.2a7.791,7.791,0,0,1,1.049,1.432A4.266,4.266,0,0,1,89,70.975a6.878,6.878,0,0,1-1.6,1.907,1.9,1.9,0,0,0-.7,1.284c-.194,1.5-.428,3-.644,4.5q-.5,3.486-1,6.971-.486,3.4-.968,6.795t-.966,6.795q-.5,3.53-1.011,7.059-.5,3.441-.993,6.881-.486,3.4-.965,6.8-.49,3.441-.987,6.882-.486,3.4-.969,6.795c-.333,2.323-.672,4.646-1,6.97q-.409,2.913-.8,5.828a6,6,0,0,1-.782,2.259,9.617,9.617,0,0,1-1.94,2.315,20.518,20.518,0,0,1-5.444,3.356,36.581,36.581,0,0,1-8.183,2.448,46.257,46.257,0,0,1-10.926.7,42.449,42.449,0,0,1-12.466-2.449,24.773,24.773,0,0,1-5.71-2.9,12.517,12.517,0,0,1-2.807-2.594,6.781,6.781,0,0,1-1.413-3.5c-.193-1.83-.5-3.649-.764-5.473q-.49-3.441-.982-6.883-.484-3.4-.969-6.794-.494-3.441-.989-6.882-.5-3.486-1-6.971-.486-3.4-.968-6.795t-.966-6.8q-.5-3.529-1.01-7.059c-.33-2.294-.666-4.587-.994-6.881-.324-2.265-.64-4.531-.964-6.8-.219-1.529-.456-3.056-.659-4.588a1.923,1.923,0,0,0-.638-1.224,11.265,11.265,0,0,1-1.37-1.518,4.4,4.4,0,0,1-.893-2.57,4.68,4.68,0,0,1,.876-2.757,8.625,8.625,0,0,1,1.988-2.029,18.959,18.959,0,0,1,3.613-2.11,42.547,42.547,0,0,1,7.333-2.5q3.112-.791,6.286-1.293a2.117,2.117,0,0,0,.911-.256M83.641,84.371a2.845,2.845,0,0,0-.54.258,17.381,17.381,0,0,1-4.3,2.328,42.133,42.133,0,0,1-6.4,1.915,85.29,85.29,0,0,1-11.018,1.643c-3.38.3-6.768.392-10.157.431-1.485.017-2.973-.057-4.458-.116q-4.279-.171-8.533-.689a69.161,69.161,0,0,1-9.116-1.668,25.3,25.3,0,0,1-9.273-4c-.08-.061-.215-.05-.353-.079a3.094,3.094,0,0,0,.033,1.521c.2,1.5.429,3,.643,4.5q.486,3.4.97,6.8.493,3.441.988,6.882.484,3.4.964,6.8.5,3.529,1.012,7.059.48,3.354.957,6.707.494,3.441.992,6.882c.339,2.353.7,4.7,1.009,7.06a6.081,6.081,0,0,0,1.375,3.045,10.782,10.782,0,0,0,2.153,1.994,21.307,21.307,0,0,0,4.8,2.529A42.076,42.076,0,0,0,48.27,148.8a53.312,53.312,0,0,0,11.566-.507,39.375,39.375,0,0,0,8.263-2.171,20.5,20.5,0,0,0,4.922-2.676,10.157,10.157,0,0,0,2.353-2.418,3.844,3.844,0,0,0,.641-1.645q.2-1.413.394-2.825.483-3.4.968-6.8.5-3.484,1-6.971.486-3.4.97-6.8.492-3.441.987-6.882.484-3.4.965-6.8.494-3.441.993-6.882Q82.8,91.9,83.3,88.373c.147-1.029.295-2.059.43-3.09a1.2,1.2,0,0,0-.091-.912m1.415-9.581a1.16,1.16,0,0,0-.882.244,32.646,32.646,0,0,1-3.6,1.551,58.209,58.209,0,0,1-9.3,2.448A99.333,99.333,0,0,1,57,80.6a121.7,121.7,0,0,1-14.89-.253,97.881,97.881,0,0,1-9.906-1.265,48.327,48.327,0,0,1-13.493-4.187,2.562,2.562,0,0,0-.556-.145,1,1,0,0,0-.114.822c.09.678.213,1.351.3,2.029a2.119,2.119,0,0,0,.578,1.178,8.484,8.484,0,0,0,1.867,1.51,19.088,19.088,0,0,0,2.951,1.468,43.643,43.643,0,0,0,7.175,2.124,83.241,83.241,0,0,0,9.7,1.464c3.318.315,6.642.492,9.975.51,2.678.014,5.353-.035,8.027-.2a96.315,96.315,0,0,0,11.248-1.3,52.228,52.228,0,0,0,8.2-2.087,22.09,22.09,0,0,0,4.289-1.967,9.011,9.011,0,0,0,1.814-1.436,2.252,2.252,0,0,0,.673-1.323c.077-.649.2-1.292.288-1.94a1.1,1.1,0,0,0-.07-.816M33.591,69.019c.283-.175.526-.345.786-.481a2.566,2.566,0,0,1,2.714.016,1.928,1.928,0,0,0,1.354.282c2.717-.338,5.447-.5,8.179-.613,1.307-.054,2.617-.055,3.925-.067.82-.008,1.049-.182.739-1a12.561,12.561,0,0,1-.816-3.822c-.037-.711-.062-1.424-.07-2.136-.009-.819-.086-.906-.928-.9-.536.006-1.071.009-1.606.031-.713.028-1.424.078-2.137.109a1.035,1.035,0,0,0-.842.424,3.318,3.318,0,0,1-.231.272,4.874,4.874,0,0,1-4.688,1.545,4.434,4.434,0,0,1-2.233-1.044,1.406,1.406,0,0,0-1.231-.335,65.815,65.815,0,0,0-7.878,1.507c-1.12.294-2.225.649-3.341.96a4.083,4.083,0,0,1-.867.131c-.175.01-.29-.262-.186-.409a.708.708,0,0,1,.243-.249,7.341,7.341,0,0,1,.751-.278,57.819,57.819,0,0,1,8.927-2.119c.7-.115,1.409-.226,2.113-.338a.458.458,0,0,0,.4-.311.581.581,0,0,0-.477-.719,2.5,2.5,0,0,0-.53.046c-1.262.2-2.527.386-3.785.614A52.465,52.465,0,0,0,24.192,62.1a23.539,23.539,0,0,0-4.312,1.916,9.1,9.1,0,0,0-1.985,1.5,2.813,2.813,0,0,0,.011,4.388,11.889,11.889,0,0,0,3.806,2.438,1.072,1.072,0,0,0,.863-.03,43.145,43.145,0,0,1,5.445-1.692,1.3,1.3,0,0,0,.89-.673,2.512,2.512,0,0,1,.676-.811,3.234,3.234,0,0,1,3.444-.39c.16.075.319.156.561.274M74.677,146.97c-.27.188-.461.312-.642.45-.449.343-.88.711-1.342,1.034a19.741,19.741,0,0,1-4.2,2.141,43.632,43.632,0,0,1-13.837,2.812,58.228,58.228,0,0,1-9.353-.348c-.827-.093-1.651-.216-2.475-.338a6.673,6.673,0,0,1-.867-.2.368.368,0,0,1-.246-.424.325.325,0,0,1,.336-.241c.3.014.593.03.887.064,1.8.2,3.6.489,5.406.6a54.5,54.5,0,0,0,8.646-.092,42.567,42.567,0,0,0,9.075-1.828,25.785,25.785,0,0,0,5.4-2.309,13.993,13.993,0,0,0,2.789-2.207,4.307,4.307,0,0,0,1.2-3.068,1.357,1.357,0,0,0-.165-.422c-.216.166-.392.276-.539.416a16.475,16.475,0,0,1-3.389,2.45,26.473,26.473,0,0,1-4.408,1.927A46.335,46.335,0,0,1,54,149.658a52.544,52.544,0,0,1-12.079-.836,36,36,0,0,1-8.012-2.4,18.581,18.581,0,0,1-4.707-2.867c-.36-.31-.688-.657-1.046-.97a1.411,1.411,0,0,0-.391-.164,3.738,3.738,0,0,0,.066,1.547,2.7,2.7,0,0,0,.684,1.611,10.672,10.672,0,0,0,2.169,1.978,19.424,19.424,0,0,0,2.869,1.623,4.71,4.71,0,0,1,.761.452.331.331,0,0,1,.1.308c-.065.11-.22.245-.326.237a2.135,2.135,0,0,1-.676-.194,17.616,17.616,0,0,1-4.183-2.536c-.136-.115-.274-.229-.418-.333a.246.246,0,0,0-.4.07,3.167,3.167,0,0,0,.645,1.327,10.493,10.493,0,0,0,2.561,2.462,22.033,22.033,0,0,0,4.631,2.477,39.415,39.415,0,0,0,12.416,2.673,45.667,45.667,0,0,0,10.4-.512,36.544,36.544,0,0,0,8.634-2.489,19.37,19.37,0,0,0,5.007-3.055,8.028,8.028,0,0,0,1.43-1.585,8.526,8.526,0,0,0,.578-1.1c.037-.08-.015-.2-.036-.408M59.048,59.462a1.713,1.713,0,0,0,1.057.277c1.274.112,2.553.183,3.819.351,2.151.287,4.3.619,6.439.965,1.173.19,2.336.442,3.5.681a1.7,1.7,0,0,1,.559.246.3.3,0,0,1-.093.507,1,1,0,0,1-.431.038c-.44-.07-.875-.172-1.315-.247-2.373-.4-4.745-.822-7.124-1.195-1.969-.309-3.955-.479-5.945-.59-1.145-.063-1.171-.031-1.547,1.018a16.087,16.087,0,0,0-.895,5.872c.018.748.113.841.89.908.06.006.119,0,.179.009,2.133.17,4.267.335,6.4.513a1.038,1.038,0,0,0,1.015-.4,2.171,2.171,0,0,1,1.989-.783,2.676,2.676,0,0,1,1.41.5c.188.132.386.249.589.379.281-.2.514-.385.762-.544a2.777,2.777,0,0,1,3.844.828,4.417,4.417,0,0,0,.319.533.719.719,0,0,0,.383.185,1.371,1.371,0,0,0,.349-.049,1.8,1.8,0,0,1,2.049,1.2,1.26,1.26,0,0,0,.881.787q1.188.384,2.353.833a1.406,1.406,0,0,0,1.2-.025,14.592,14.592,0,0,0,2.547-1.465,14.368,14.368,0,0,0,1.2-1.06,1.01,1.01,0,0,0,.185-1.3,5.72,5.72,0,0,0-1.635-1.975,10.908,10.908,0,0,0-2.216-1.325c-.622-.285-1.255-.545-1.877-.828a2.978,2.978,0,0,1-.606-.359.332.332,0,0,1-.082-.312.5.5,0,0,1,.329-.237,1.2,1.2,0,0,1,.51.121c.55.224,1.1.46,1.641.7a10.591,10.591,0,0,1,4.056,2.839,2.257,2.257,0,0,0,.445.288,2.49,2.49,0,0,0-1.076-1.992,9.747,9.747,0,0,0-2.02-1.459,22.356,22.356,0,0,0-3.157-1.451A58.308,58.308,0,0,0,68.16,59.614c-2.589-.393-5.194-.635-7.8-.847a3.139,3.139,0,0,0-.711-.014.787.787,0,0,0-.452.245,1.283,1.283,0,0,0-.147.464m-40.137,20.6c-.076.176-.139.253-.138.33a4.118,4.118,0,0,0,1.38,3.252,12.389,12.389,0,0,0,2.361,1.591,28.151,28.151,0,0,0,5.228,2.028,70.161,70.161,0,0,0,12.521,2.3c3.047.313,6.1.486,9.166.541a113.871,113.871,0,0,0,12.915-.49,80.332,80.332,0,0,0,9.6-1.466,40.768,40.768,0,0,0,6.988-2.111,14.884,14.884,0,0,0,3.143-1.669,11.626,11.626,0,0,0,1.463-1.3,3.926,3.926,0,0,0,.856-2.738c.007-.135-.211-.254-.335-.191a2.712,2.712,0,0,0-.38.228,18.893,18.893,0,0,1-4.414,2.3A52.675,52.675,0,0,1,69.1,85.3c-2.551.432-5.12.722-7.7.954-2.934.264-5.875.343-8.816.412-1.336.031-2.675-.018-4.012-.067-2.019-.074-4.041-.136-6.056-.282a86.877,86.877,0,0,1-9.549-1.208A52.991,52.991,0,0,1,24.771,83a20.424,20.424,0,0,1-5.326-2.658,4.243,4.243,0,0,0-.534-.277m36.735-9.477a.759.759,0,0,0,.083-.227c.012-.356.018-.713.012-1.069-.015-.772-.06-1.544-.053-2.316a17.424,17.424,0,0,1,1.933-8.068,18.666,18.666,0,0,1,3.146-4.3,9.611,9.611,0,0,0,1.945-2.751,5.876,5.876,0,0,0,.488-3.558,4.113,4.113,0,0,0-3.438-3.4,1.811,1.811,0,0,0-.535.129c.122.281.218.491.306.7.193.466.411.923.563,1.4a2.636,2.636,0,0,1,.082.879.587.587,0,0,1-.491.557.625.625,0,0,1-.712-.405c-.1-.278-.155-.573-.243-.857a4.4,4.4,0,0,0-5-3.212,6.054,6.054,0,0,0-1.123.274,3.389,3.389,0,0,0-1.27,5.444,2.5,2.5,0,0,0,2.516.771c.23-.056.472-.118.541-.4.049-.2-.147-.4-.512-.529-.252-.087-.518-.141-.76-.249a.62.62,0,0,1,.25-1.191,2.833,2.833,0,0,1,2.155.893,1.218,1.218,0,0,1,.345.894,3.51,3.51,0,0,1-.169,1.043,13.179,13.179,0,0,1-.792,1.592c-.423.75-.891,1.475-1.319,2.223a14.212,14.212,0,0,0-1.455,10.426,10.017,10.017,0,0,0,1.768,3.959,12.76,12.76,0,0,0,1.15,1.235.457.457,0,0,0,.585.106m31.475-4.13c-.053.093-.078.118-.08.144a1.034,1.034,0,0,0,0,.261,3.778,3.778,0,0,1-1.167,3.566,9.729,9.729,0,0,1-2.109,1.632A21.945,21.945,0,0,1,80.307,73.7a57.93,57.93,0,0,1-11.759,2.86c-2.234.34-4.48.579-6.732.774-2.9.252-5.813.364-8.726.411-1.663.027-3.329-.023-4.993-.067-1.455-.038-2.91-.1-4.364-.18-3-.157-5.984-.479-8.956-.917a67.285,67.285,0,0,1-8.72-1.825,30.289,30.289,0,0,1-5.976-2.309,11.423,11.423,0,0,1-2.556-1.777,3.93,3.93,0,0,1-1.4-3.83.2.2,0,0,0,.013-.087c-.03-.1-.069-.192-.113-.31A2.981,2.981,0,0,0,15.1,69.7a4.542,4.542,0,0,0,1.04,1.644A11.11,11.11,0,0,0,18.672,73.3a25.329,25.329,0,0,0,3.953,1.846,59.57,59.57,0,0,0,11.216,2.842c2.553.424,5.121.713,7.7.947,2.666.243,5.339.339,8.012.41,1.781.047,3.566-.031,5.35-.058a100.949,100.949,0,0,0,11.817-.912,77.179,77.179,0,0,0,8.756-1.653,41.325,41.325,0,0,0,6.916-2.337,16.951,16.951,0,0,0,3.894-2.325,6.633,6.633,0,0,0,1.378-1.508,3.347,3.347,0,0,0,.573-1.666,2.824,2.824,0,0,0-1.114-2.428M44.062,59.3a2.6,2.6,0,0,0-.468-.062c-.236.015-.47.076-.706.091a4.859,4.859,0,0,1-.886.007.641.641,0,0,1-.587-.578.628.628,0,0,1,.492-.655,5.157,5.157,0,0,1,.611-.1,9.344,9.344,0,0,0,1.047-.2,2.687,2.687,0,0,0,1.963-2.2,5.072,5.072,0,0,0,.026-1.768,4.112,4.112,0,0,0-2.961-3.548,5.823,5.823,0,0,0-6.339,1.891,4.082,4.082,0,0,0-.705,3.948,2.562,2.562,0,0,0,.624,1.067c.35.349.612.325.846-.09.087-.155.146-.326.235-.479a9.464,9.464,0,0,1,.6-.984,4.227,4.227,0,0,1,3.1-1.71,3.368,3.368,0,0,1,1.491.189.64.64,0,0,1,.421.708.587.587,0,0,1-.631.506c-.326.01-.653-.016-.979-.025a2.644,2.644,0,0,0-2.068.873A4.443,4.443,0,0,0,38,58.9a2.014,2.014,0,0,0,1.113,2.062,3.8,3.8,0,0,0,4.042-.262,2.692,2.692,0,0,0,.8-.939,2.056,2.056,0,0,0,.1-.455M71.926,71.421A1.808,1.808,0,0,0,73.137,71a1.374,1.374,0,0,0,.134-2.051,2.016,2.016,0,0,0-2.6-.257,1.379,1.379,0,0,0-.256,2.038,1.923,1.923,0,0,0,1.515.687m-40.076-2.2a2.671,2.671,0,0,0-1.931.694c-.5.5-.367,1.051.3,1.306a2.523,2.523,0,0,0,2.466-.559,1.484,1.484,0,0,0,.164-.208.635.635,0,0,0-.229-.979,4.388,4.388,0,0,0-.773-.254M48.067,59.59v-.018c.62-.032,1.239-.06,1.859-.1a1.754,1.754,0,0,0,.431-.08.511.511,0,0,0,.259-.519.389.389,0,0,0-.343-.35,1.474,1.474,0,0,0-.264-.031c-1.153.02-2.306.036-3.458.073a1.436,1.436,0,0,0-.583.174.518.518,0,0,0-.207.619.437.437,0,0,0,.443.231h1.862M67.695,69.825a2.9,2.9,0,0,0,.6-.15.513.513,0,0,0,.118-.923,1.787,1.787,0,0,0-1.929-.089.5.5,0,0,0-.044.829,1.757,1.757,0,0,0,1.256.333M35.9,69.011a1.758,1.758,0,0,0-1.328.382.507.507,0,0,0,.077.828,1.752,1.752,0,0,0,1.976-.25.49.49,0,0,0-.134-.812,2.884,2.884,0,0,0-.591-.148m39.736,1.267c-.463-.024-.8.192-.854.518a.717.717,0,0,0,.55.789,1.217,1.217,0,0,0,.34.078.753.753,0,0,0,.75-.493.7.7,0,0,0-.492-.821,2.2,2.2,0,0,0-.294-.071" fill="#05050e"/>
    <path id="패스_19643" data-name="패스 19643" d="M26.821,22.362c.312-.272.561-.478.8-.7A10.4,10.4,0,0,1,35.089,18.8a9.764,9.764,0,0,1,4.217,1.017c.949.469.982.522,1.663-.382a13.076,13.076,0,0,1,7.493-4.994,13.243,13.243,0,0,1,9.6,1.188c.21.111.416.23.628.339a.523.523,0,0,0,.654-.1c.149-.145.292-.3.433-.45a12.312,12.312,0,0,1,14.533-2.8c.293.144.584.293.877.438a.556.556,0,0,0,.661-.1c.176-.159.335-.337.5-.506a19.557,19.557,0,0,1,18.7-5.275c.174.042.344.1.519.128a.7.7,0,0,0,.655-.2c.145-.149.28-.308.425-.457a10.348,10.348,0,0,1,7.56-3.282,8.234,8.234,0,0,1,2.129.181,1.249,1.249,0,0,0,1.4-.477,4.585,4.585,0,0,1,3.874-1.656,4.817,4.817,0,0,1,4.572,4.248,4.692,4.692,0,0,1-3.5,5.131,4.775,4.775,0,0,1-2.728-.072,6.133,6.133,0,0,1-.582-.225.505.505,0,0,0-.635.168c-.136.157-.256.328-.388.489A11.193,11.193,0,0,1,101,15.294a10.2,10.2,0,0,1-3.289-.06c-.088-.017-.178-.022-.264-.046a1.091,1.091,0,0,0-1.384.617,14.72,14.72,0,0,1-6.6,5.927,14.7,14.7,0,0,1-7.814,1.35c-.148-.016-.3-.024-.445-.037a.694.694,0,0,0-.732.4c-.082.158-.154.321-.235.48a13.407,13.407,0,0,1-9.6,7.414,12.892,12.892,0,0,1-5.317-.03c-1.124-.231-1.085-.374-1.762.748a16.326,16.326,0,0,1-11.09,7.852,16.106,16.106,0,0,1-7.254-.2c-.2-.051-.406-.093-.606-.15a.626.626,0,0,0-.758.311c-.145.225-.281.456-.435.675a12.226,12.226,0,0,1-10.369,5.479,12.1,12.1,0,0,1-2.912-.386c-.2-.047-.4-.105-.607-.136a.7.7,0,0,0-.647.224c-.2.217-.4.436-.613.649a9.961,9.961,0,0,1-13.994.159c-.992-.964-.868-.8-2.027-.717A10.838,10.838,0,0,1,1.7,30.254c.114-.241.233-.481.346-.723a2.3,2.3,0,0,0,.071-.258c-.129-.225-.279-.51-.451-.782a10.413,10.413,0,0,1,1.148-12.77,9.418,9.418,0,0,1,2.064-1.692c.152-.093.3-.187.45-.289a.767.767,0,0,0,.358-.677c0-.357,0-.714,0-1.071A10.456,10.456,0,0,1,15.994,1.786a1.788,1.788,0,0,0,1.282-.5A4.878,4.878,0,0,1,19.64.1a4.984,4.984,0,0,1,5.907,4.684,5,5,0,0,1-5.283,5.138c-.059,0-.118-.027-.176-.028a.537.537,0,0,0-.618.5c-.037.2-.043.415-.08.619a7.381,7.381,0,0,1-.863,2.423c-.075.129-.144.26-.216.39a.521.521,0,0,0,.082.655c.181.2.365.391.545.589a7.3,7.3,0,0,1,1.736,3.467c.03.145.043.294.072.44a.71.71,0,0,0,.59.593c.232.048.47.071.7.123a8.875,8.875,0,0,1,3.947,1.975c.244.212.5.413.836.694M12.714,38.623a4.166,4.166,0,0,0,.012,2.32,8.591,8.591,0,0,0,13.263,5.552,8.492,8.492,0,0,0,3.618-5.329,4.642,4.642,0,0,1,.226-.765.6.6,0,0,1,.576-.353.612.612,0,0,1,.57.483,2.165,2.165,0,0,1-.014.7,10.6,10.6,0,0,1-.679,2.211c-.244.595-.131.79.5.951.086.022.175.032.263.048A10.947,10.947,0,0,0,42.3,39.749c.416-.613.417-.868-.318-1.233-.664-.33-1.294-.73-1.928-1.117a2.415,2.415,0,0,1-.537-.462.623.623,0,0,1,.741-.965,7.4,7.4,0,0,1,.768.45A15.241,15.241,0,0,0,62.2,31.659c.642-.994.615-1.086-.4-1.6A11.816,11.816,0,0,1,59.3,28.365a2.833,2.833,0,0,1-.524-.6.565.565,0,0,1,.053-.669.59.59,0,0,1,.722-.175A2.371,2.371,0,0,1,60,27.2c.215.16.412.342.625.5a12.162,12.162,0,0,0,16.824-1.933,11.189,11.189,0,0,0,1.455-2.24c.321-.65.249-.812-.413-1.056-.474-.174-.95-.344-1.419-.532a2.725,2.725,0,0,1-.547-.3.668.668,0,0,1-.267-.782A.619.619,0,0,1,77,20.5a5.523,5.523,0,0,1,.841.287,13.54,13.54,0,0,0,7.354.826,13.7,13.7,0,0,0,9.461-6.1,4.111,4.111,0,0,0,.236-.378c.205-.391.16-.584-.193-.83-.122-.085-.262-.145-.378-.236-.336-.26-.432-.56-.285-.845a.682.682,0,0,1,.922-.29c.2.066.38.168.573.247a10,10,0,0,0,5.051.789,9.846,9.846,0,0,0,7.286-4.458c.15-.221.275-.461.437-.672a.659.659,0,0,1,1.173-.025,1.638,1.638,0,0,0,.593.517,3.489,3.489,0,0,0,4.04-.988,3.382,3.382,0,0,0,.081-4.142,3.5,3.5,0,0,0-3.982-1.225,2.875,2.875,0,0,0-1.138.684c-.359.351-.341.585.074.847.3.191.621.353.917.551a3.856,3.856,0,0,1,.621.5.645.645,0,0,1,.1.815.629.629,0,0,1-.8.2,6.667,6.667,0,0,1-.766-.453,8.924,8.924,0,0,0-4.992-1.423,9.024,9.024,0,0,0-6.021,2.34,3.957,3.957,0,0,0-.382.373c-.262.3-.227.542.1.729.155.088.323.151.482.231.451.229.906.45,1.347.7a2.736,2.736,0,0,1,.569.422.577.577,0,0,1,.1.733.62.62,0,0,1-.69.292,3.051,3.051,0,0,1-.575-.236c-.373-.184-.735-.392-1.11-.571A18.11,18.11,0,0,0,75.2,16.056a7.95,7.95,0,0,1-.459.657.688.688,0,0,1-.879.2.652.652,0,0,1-.219-.865,5.673,5.673,0,0,1,.5-.843c.474-.667.5-.937-.376-1.34-.108-.049-.214-.1-.323-.151a10.673,10.673,0,0,0-5.832-.889,10.845,10.845,0,0,0-8.45,5.859,3.022,3.022,0,0,0-.19.4c-.135.362-.035.577.323.688.227.071.462.116.689.185a4.427,4.427,0,0,1,2.013,1.269,2.684,2.684,0,0,1,.382.593.288.288,0,0,1-.14.38.37.37,0,0,1-.324.009c-.211-.159-.391-.359-.587-.539a3.86,3.86,0,0,0-4.046-.919,3.775,3.775,0,0,0-2.183,1.869,4.593,4.593,0,0,1-.424.67.35.35,0,0,1-.32.05.386.386,0,0,1-.209-.258.929.929,0,0,1,.07-.429,4.259,4.259,0,0,1,1.429-1.9,6.649,6.649,0,0,1,.987-.6,1.5,1.5,0,0,0,.764-.825c.183-.47.414-.921.616-1.384.213-.488.157-.663-.311-.953-.2-.125-.414-.235-.627-.34a11.527,11.527,0,0,0-4.8-1.238,11.909,11.909,0,0,0-10.218,4.85,3.987,3.987,0,0,0-.256.365c-.236.389-.228.556.057.879.157.178.347.328.5.509.366.429.729.863,1.072,1.31a1.719,1.719,0,0,1,.272.555.575.575,0,0,1-.218.636.594.594,0,0,1-.671.055,1.141,1.141,0,0,1-.336-.284c-.173-.2-.322-.427-.488-.637a9.116,9.116,0,0,0-15.036,1.043c-.194.332-.35.688-.524,1.033a5.062,5.062,0,0,1-.285.553.63.63,0,0,1-.773.275.656.656,0,0,1-.377-.735,1.933,1.933,0,0,1,.146-.51c.152-.355.329-.7.486-1.052.094-.212.169-.432.266-.685a8.187,8.187,0,0,0-.584-.688,7.447,7.447,0,0,0-8.215-1.328c-.878.409-.919.6-.763,1.36a2.317,2.317,0,0,1-.1,1.054.446.446,0,0,1-.434.378c-.19,0-.3-.176-.3-.466,0-.118.027-.237.027-.355a4.089,4.089,0,0,0-.024-.71,2.168,2.168,0,0,0-2.07-1.766c-.3-.011-.595.006-.887-.029a.318.318,0,0,1-.1-.548,2.387,2.387,0,0,1,.749-.237,2.745,2.745,0,0,1,1.628.378,1,1,0,0,0,1.089.022,9.05,9.05,0,0,1,2.843-1.013c.565-.109.672-.292.562-.888a5.626,5.626,0,0,0-1.379-2.755c-.638-.718-.759-.726-1.563-.237a8.965,8.965,0,0,1-1.265.646.625.625,0,0,1-.779-.266.662.662,0,0,1,.215-.867,5.767,5.767,0,0,1,.616-.356,5.676,5.676,0,0,0,2.736-6.553c-.055-.2-.124-.4-.164-.6a.653.653,0,0,1,.409-.791.668.668,0,0,1,.815.371,2.14,2.14,0,0,1,.2.493.933.933,0,0,0,.989.729c.178.005.357.013.535.009A3.592,3.592,0,0,0,22.8,2.13a3.646,3.646,0,0,0-4.1-.223,3.7,3.7,0,0,0-1.5,1.83,2.685,2.685,0,0,1-.364.7.574.574,0,0,1-1-.209c-.065-.218-.009-.472-.062-.7a.559.559,0,0,0-.267-.3.552.552,0,0,0-.35-.026,15.761,15.761,0,0,0-1.828.38,9.081,9.081,0,0,0-6.248,9.679,10.489,10.489,0,0,0,.639,2.5,5.108,5.108,0,0,1,.242.67.631.631,0,0,1-.382.724.6.6,0,0,1-.72-.193,3.143,3.143,0,0,1-.358-.612c-.125-.269-.209-.556-.331-.827-.163-.362-.369-.427-.709-.242a3.059,3.059,0,0,0-.3.19,9.021,9.021,0,0,0-2.71,11.674c.467.857.683.893,1.356.186A7.6,7.6,0,0,1,4.9,26.415a.678.678,0,0,1,.963.073.694.694,0,0,1-.162.958c-.187.191-.4.35-.6.534a9.258,9.258,0,0,0-2.987,8.633,9.411,9.411,0,0,0,9.258,7.861,1.436,1.436,0,0,0,.854-.146c.159-.248.032-.456-.048-.681-.259-.727-.537-1.45-.736-2.193a7.8,7.8,0,0,1-.185-2.835,1.528,1.528,0,0,0-.565-1.486,5.48,5.48,0,0,1-.913-1.087,4.589,4.589,0,0,1-.754-1.8,1.292,1.292,0,0,1,.008-.522.371.371,0,0,1,.241-.222.378.378,0,0,1,.308.107,1.209,1.209,0,0,1,.194.4c.069.2.111.4.18.6a4.89,4.89,0,0,0,7.414,2.377c.194-.136.374-.294.57-.429a.686.686,0,0,1,.317-.142.407.407,0,0,1,.308.112.343.343,0,0,1,.044.316,3.091,3.091,0,0,1-.588.654A5.552,5.552,0,0,1,13.739,38.6a1.57,1.57,0,0,0-1.025.018" fill="#05050e"/>
  </g>
</svg>
