<svg id="그룹_11079" data-name="그룹 11079" xmlns="http://www.w3.org/2000/svg" xmlns:xlink="http://www.w3.org/1999/xlink" width="148.51" height="128.914" viewBox="0 0 148.51 128.914">
  <defs>
    <clipPath id="clip-path">
      <rect id="사각형_5666" data-name="사각형 5666" width="148.51" height="128.914" fill="rgba(0,0,0,0)"/>
    </clipPath>
  </defs>
  <g id="그룹_11078" data-name="그룹 11078" clip-path="url(#clip-path)">
    <path id="패스_19506" data-name="패스 19506" d="M145.874,122.523a25.337,25.337,0,0,0-2.56-.487,9.169,9.169,0,0,0,2.053-2.6,10.91,10.91,0,0,0,1-4.436c.13-1.828.249-3.663.284-5.5.027-1.4.14-2.946-.711-4.023a21.111,21.111,0,0,0,2.568-9.984,2.018,2.018,0,0,0-.975-1.523,46.94,46.94,0,0,0-.3-12.259,23.292,23.292,0,0,0-1.968-6.478c-.085-.172-.214-.347-.281-.526-.1-.281-.15-.682-.235-1a9.577,9.577,0,0,1-.495-1.691,7.233,7.233,0,0,1,.283-1.482q.171-.879.315-1.763.287-1.774.472-3.563a57.842,57.842,0,0,0-.142-13.079,58.638,58.638,0,0,0-7.558-22.343A60.512,60.512,0,0,0,101.216,2.1,62.141,62.141,0,0,0,76.705.58,60.508,60.508,0,0,0,36.884,23.668,58.344,58.344,0,0,0,25.79,70.27,57.559,57.559,0,0,0,27.2,76.044a4.787,4.787,0,0,1-.937.309.828.828,0,0,0-.3.141,1.476,1.476,0,0,0-.025,2.52,4.034,4.034,0,0,0,1.29.734,8.959,8.959,0,0,1-1.242.844c-.259.149-.526.281-.793.416-.077.038-.431.22-.068.037a1.594,1.594,0,0,0-.851.761c-.646,1.376.744,2.175,2.193,2.549A10.908,10.908,0,0,1,24.594,85.5c.058-.028-.5.231-.326.153s-.133.063-.069.028a1.609,1.609,0,0,0-.679.581,1.509,1.509,0,0,0,.53,1.956,6.6,6.6,0,0,0,6.158,1.116l0,.354a65.812,65.812,0,0,1-10.314.787c-2.369.031-4.739.016-7.109-.016q-1.57-.021-3.14-.054c-.563-.012-1.148-.067-1.717-.055a3.239,3.239,0,0,0-2.61-.019,4.774,4.774,0,0,0-2.955,2.517A38.068,38.068,0,0,0,.978,97.072a11.2,11.2,0,0,0-.593,4,4.249,4.249,0,0,0-.358,2.437,7.368,7.368,0,0,0,1.226,3.643A25.013,25.013,0,0,0,5.5,111.785a42.117,42.117,0,0,0,12.636,7.552l.007,0h0q1.119.435,2.258.813c.616.2,1.238.392,1.862.571-4.223.227-8.443.532-12.638,1.02-.979.114-8.546.529-6.928,3.128a3.453,3.453,0,0,0,2.23,1.106,39.457,39.457,0,0,0,4.231.675c4.751.579,9.542.863,14.32,1.12,15.613.839,31.262,1.076,46.894,1.131,16.658.058,33.327-.118,49.972-.811,6.1-.253,12.208-.552,18.281-1.136,1.724-.166,3.448-.356,5.159-.624a14.682,14.682,0,0,0,2.955-.664c.7-.268,1.463-.739,1.337-1.611-.147-1.009-1.367-1.327-2.2-1.535M4.246,124.767a.255.255,0,0,1-.043.023.288.288,0,0,0,.035-.026l.008,0m142.107-1.081-.024-.009a.02.02,0,0,1,.024.009" fill="#fff"/>
    <path id="패스_19507" data-name="패스 19507" d="M147.527,95.493v-.038a.418.418,0,0,0-.136-.3s-.33-.3-.879-.754a55.2,55.2,0,0,0,.3-5.663c0-8.787-2.379-13.034-2.713-13.585-.256-1.049-.545-2.1-.881-3.129a57.567,57.567,0,0,0-16-53.966,60.264,60.264,0,0,0-84.073,0A57.564,57.564,0,0,0,28.376,76.541a6.03,6.03,0,0,1-1.585.695c-.088.024-.158.041-.2.051l-.051.01-.012,0h0a.414.414,0,0,0-.239.683,3.023,3.023,0,0,0,1.31.866,4.048,4.048,0,0,0,1.292.2c.1,0,.195-.005.286-.01a4.955,4.955,0,0,1-.63.825,9.064,9.064,0,0,1-2.06,1.573c-.318.182-.6.322-.793.416-.1.046-.176.081-.229.1l-.06.026-.014.006h0a.415.415,0,0,0-.095.715,4.67,4.67,0,0,0,2.865.943c.178,0,.341-.01.5-.025a9.535,9.535,0,0,1-2.293,2.011,12.416,12.416,0,0,1-1.266.711c-.161.079-.292.137-.381.176l-.1.042-.024.01-.007,0a.415.415,0,0,0-.128.694A5.26,5.26,0,0,0,28.071,88.7a7.172,7.172,0,0,0,3.108-.776l.02,2.58a51.992,51.992,0,0,1-7.459.837c-1.762.1-4.142.133-6.525.133s-4.775-.033-6.568-.066c-.9-.017-1.645-.034-2.168-.047l-.822-.02a.081.081,0,0,0-.016,0c-.027-.025-.053-.052-.081-.075a.992.992,0,0,0-.381-.214.409.409,0,0,0-.092-.014H7.038a5.038,5.038,0,0,0-1.835.378,3.847,3.847,0,0,0-1.269.848,3.661,3.661,0,0,0-.909,1.611c-.337,1.224-.758,2.386-1.1,3.459a10.34,10.34,0,0,0-.611,2.959c0,.1,0,.194.01.289h0c.02.276.035.548.059.824a.369.369,0,0,0-.113.071.413.413,0,0,0-.115.175l0,.007c-.008.025-.012.042-.019.068a5.632,5.632,0,0,0-.141,1.315,6.394,6.394,0,0,0,.754,3.041,11.137,11.137,0,0,0,1.078,1.542,34.861,34.861,0,0,0,9.743,7.992c.008.005.014.011.022.015a43.435,43.435,0,0,0,5.811,2.761,47.146,47.146,0,0,0,4.935,1.613h0c1.163.31,2.377.589,3.643.829a.415.415,0,0,0,.37-.114l.52-.517,3.442.068.027,1.025c-16.944.678-27.853,1.738-27.853,2.929,0,2.046,32.152,3.7,71.813,3.7,24.757,0,46.587-.646,59.5-1.629.155,0,.282,0,.372.006h.038a1.279,1.279,0,0,0,.419-.071c7.265-.579,11.486-1.269,11.486-2.01,0-.544-2.273-1.06-6.355-1.525.37-.221.733-.454,1.078-.71a9.335,9.335,0,0,0,2.342-2.46,7.212,7.212,0,0,0,1.118-3.329s.048-.581.109-1.46c.1-1.364.224-3.441.259-5.175a.37.37,0,0,0,.007-.067c0-.016,0-.031,0-.046,0-.254.007-.5.007-.736a12.521,12.521,0,0,0-.1-1.859v0a1.614,1.614,0,0,0-.493-.92,1.856,1.856,0,0,0-.385-.27,19.048,19.048,0,0,0,2.42-6.386,20.986,20.986,0,0,0,.412-3.788" fill="#0d0002"/>
    <path id="패스_19508" data-name="패스 19508" d="M73.688,45.238a25.531,25.531,0,0,1-3.125,1.712,9.22,9.22,0,0,0,3.61,1.818A3.891,3.891,0,0,0,76.3,46.419a2.044,2.044,0,0,1-2-.369A4.755,4.755,0,0,0,77.589,43s1.261,2.584,3.446,3.138A3.959,3.959,0,0,1,79,46.388a4.8,4.8,0,0,0,1.461,1.9,14.153,14.153,0,0,0,2.724-1.3.415.415,0,0,1,.637.351v5.285c.037-.023.077-.049.111-.069a8.737,8.737,0,0,1,2.687-1.016V48.025a.414.414,0,0,1,.507-.405l.08.018a.431.431,0,0,1,.129.054l0,0,.02.012.088.05c.081.045.2.111.37.19a12.071,12.071,0,0,0,1.492.589,18.946,18.946,0,0,0,5.868.867,7.736,7.736,0,0,0,2.959-.52,4.917,4.917,0,0,0,1.69-1.125,4.267,4.267,0,0,0,.824-1.2,10.81,10.81,0,0,1-3.966-1.216,12.032,12.032,0,0,1-3.059-2.362,12.885,12.885,0,0,1-2.3-3.314.416.416,0,0,1,.445-.576,18.55,18.55,0,0,0,2.833.245,6.723,6.723,0,0,0,2.988-.544,2.134,2.134,0,0,0,.994-.894l.021-.044a12.045,12.045,0,0,1-6.343-4.309,11.323,11.323,0,0,1-1.76-3.193.415.415,0,0,1,.432-.536c.378.032.731.047,1.059.047a6.094,6.094,0,0,0,3.449-.837,2.972,2.972,0,0,0,.526-.442,13.105,13.105,0,0,1-5.749-4.226A11.733,11.733,0,0,1,88.5,21.417a.415.415,0,0,1,.463-.549,7.84,7.84,0,0,0,1.351.114,10.245,10.245,0,0,0,2.573-.349,11.94,11.94,0,0,1-2.75-1.567,17.293,17.293,0,0,1-2.907-2.827,22.124,22.124,0,0,1-1.95-2.792,10.447,10.447,0,0,1-1.844,3.13,12.725,12.725,0,0,1-2.983,2.532,15.357,15.357,0,0,1-3.028,1.446,3.963,3.963,0,0,0,.934.455,4.788,4.788,0,0,0,1.517.235,5.738,5.738,0,0,0,1.777-.278.416.416,0,0,1,.54.513,9.9,9.9,0,0,1-2.171,3.783A11.428,11.428,0,0,1,77.153,27.5a13.336,13.336,0,0,1-2.832,1.173,4.869,4.869,0,0,0,1.559.867,6.7,6.7,0,0,0,2.163.335,7.869,7.869,0,0,0,1.871-.215h0a.415.415,0,0,1,.5.537,9.7,9.7,0,0,1-2.151,3.385,17.491,17.491,0,0,1-2.957,2.466A24.184,24.184,0,0,1,72.239,37.8a8.1,8.1,0,0,0,4.349,1.213,8.694,8.694,0,0,0,2.652-.391.415.415,0,0,1,.5.6,18.255,18.255,0,0,1-6.052,6.019" fill="#006726"/>
    <path id="패스_19509" data-name="패스 19509" d="M143.429,75.641a12.078,12.078,0,0,0-5.222-1.151,21.12,21.12,0,0,0-7.232,1.5,70.1,70.1,0,0,0-8.951,4.223q-.429.235-.844.478c-.019,2.675-.125,6.783-.266,11.126,1.256-.284,2.54-.569,3.819-.844a2.691,2.691,0,0,1-1.4-.829,5.691,5.691,0,0,0,4.234-3.618,2.733,2.733,0,0,1-2.672-.493s3.535-.863,4.4-4.07c0,0,1.685,3.453,4.6,4.193a5.286,5.286,0,0,1-2.713.329,6.457,6.457,0,0,0,2.4,2.869,23.583,23.583,0,0,1,2.835-.219h.158a7.774,7.774,0,0,1,2.656.6,18.492,18.492,0,0,1,2.721,1.37,36.211,36.211,0,0,1,3.79,2.659c.172-1.826.246-3.5.246-5.037,0-8.339-2.172-12.431-2.558-13.094" fill="#006726"/>
    <path id="패스_19510" data-name="패스 19510" d="M137.867,120.418a5.173,5.173,0,0,1-.8.294h0a3.132,3.132,0,0,1-.311.05c-.123.015-.269.029-.437.042-.337.028-.765.054-1.27.079-1.01.051-2.328.1-3.82.142-2.731.08-6.044.151-9.1.214a5.079,5.079,0,0,0,.85.728,6.327,6.327,0,0,0,1.591.764,10.514,10.514,0,0,0,2.632.455,1.264,1.264,0,0,1,.72.287,1.462,1.462,0,0,1,.3.338h4.87c1.067,0,1.929,0,2.1,0h.019a1.356,1.356,0,0,1,.364.052l.018,0a17.162,17.162,0,0,0,4.41-1.663,9.566,9.566,0,0,0,3.49-3.108,6.4,6.4,0,0,0,.873-2.132c-.51.293-1.237.707-2.043,1.156-1.53.851-3.325,1.819-4.44,2.307" fill="#006726"/>
    <path id="패스_19511" data-name="패스 19511" d="M120.119,112.127c-.007.363-.011.715-.011,1.049a22.327,22.327,0,0,0,.3,4.057,2.657,2.657,0,0,0,1.256-.817,2.622,2.622,0,0,0-1.541-4.289" fill="#006726"/>
    <path id="패스_19512" data-name="패스 19512" d="M114.845,121.4h0c-.726.021-1.867.03-3.326.03-8.064,0-25.8-.273-35.161-.273-2.03,0-3.666.013-4.716.044-1.7.049-3.357.069-4.984.069-4.893,0-9.553-.18-14.7-.271-6.9-.121-18.085-1.044-27.348-3.792a74.4,74.4,0,0,1-12.734-4.768A24.113,24.113,0,0,1,2.5,104.565l0,0h0l0,0-.038-.059,0-.006c-.064-.1-.127-.2-.19-.3l-.015-.022-.01-.018h0l-.007-.014,0-.006v0a6.155,6.155,0,0,1-.387-.762,5.5,5.5,0,0,0,.644,2.32,10.527,10.527,0,0,0,.995,1.417,25.49,25.49,0,0,0,2.062,2.247,36.692,36.692,0,0,0,6.9,5.225v-.739a.363.363,0,0,1,.725,0V115a42.454,42.454,0,0,0,5.031,2.415v-1.043a.363.363,0,1,1,.725,0V117.7c1.29.5,2.661.951,4.114,1.358v-.91a.415.415,0,0,1,.831,0v1.137q1.476.383,3.062.693l.488-.486a.419.419,0,0,1,.3-.121l4.015.081a.415.415,0,0,1,.407.4l.033,1.28,4.291.906.587-1.338a.415.415,0,0,1,.427-.245l4.217.481a.416.416,0,0,1,.343.271l.6,1.642,4.2.422.313-1.223a.415.415,0,0,1,.415-.312l6.549.2a.417.417,0,0,1,.388.305l.478,1.743h4.847c.061-.124.142-.286.233-.465.2-.387.44-.84.644-1.149a2.122,2.122,0,0,1,.178-.239.748.748,0,0,1,.128-.117.767.767,0,0,1,.2-.1,1.728,1.728,0,0,1,.192-.056,4.579,4.579,0,0,1,.457-.082,8.371,8.371,0,0,1,1.066-.073c.143,0,.278,0,.4.016a1.663,1.663,0,0,1,.355.067.627.627,0,0,1,.266.16.49.49,0,0,1,.129.266v0h0c.009.067.012.131.017.221s.008.2.011.316c.006.239.01.528.012.809,0,.244,0,.478,0,.668h6.349c0-.1,0-.209-.008-.324-.01-.4-.02-.838-.02-1.029a.9.9,0,0,1,.135-.471,1.063,1.063,0,0,1,.337-.337,1.83,1.83,0,0,1,.987-.252,3.869,3.869,0,0,1,.646.07c.225.04.454.093.661.145.414.1.741.207.746.208a.413.413,0,0,1,.206.145l1.4,1.845h2.926l.47-2.078a.415.415,0,1,1,.809.183l-.428,1.9h6.924l.468-2.019a.415.415,0,0,1,.809.187l-.425,1.832h5.073a.774.774,0,0,0,.256-.029h0l.005-.019a.967.967,0,0,0,.017-.208c0-.075,0-.167-.01-.271v0c0-.077-.007-.154-.007-.229a2.564,2.564,0,0,1,.092-.721,1.139,1.139,0,0,1,.383-.6.834.834,0,0,1,.508-.171c.459,0,1.378.04,1.382.04a.413.413,0,0,1,.4.428s0,.127-.008.307-.009.411-.009.614c0,.1,0,.195,0,.27s.007.133.008.135v0c.018.118.013.174.018.212s.009.04.011.044a.124.124,0,0,0,.031.028.741.741,0,0,0,.247.1,3.854,3.854,0,0,0,.892.08h4.86a1.9,1.9,0,0,0,.421-.048.653.653,0,0,0,.349-.181.292.292,0,0,0,.062-.2v-1.688a.415.415,0,0,1,.415-.415h1.245a.415.415,0,0,1,.415.415v1.768a.41.41,0,0,0,.01.114l.013.016a.384.384,0,0,0,.1.053,1.7,1.7,0,0,0,.362.092,6.9,6.9,0,0,0,.96.074c.569.013,1.362.017,2.189.017,1.656,0,3.447-.017,3.906-.017a.111.111,0,0,0,.038-.005l.02-.016a.512.512,0,0,0,.095-.2,3.5,3.5,0,0,0,.077-.861c0-.065,0-.128,0-.187a2.446,2.446,0,0,1,.047-.529,1.034,1.034,0,0,1,.684-.787,1.99,1.99,0,0,1,.689-.1h1.486a.415.415,0,0,1,.415.415v2.3l1.107.017c.767.011,1.795.024,3,.036a9.975,9.975,0,0,1-1.783-2.972c-1.088.025-1.944.046-2.725.067" fill="#006726"/>
    <path id="패스_19513" data-name="패스 19513" d="M115.445,93.068c.49-.111,1-.23,1.534-.352.132-1.87.226-3.652.225-5.02,0-.285,0-.552-.012-.8-.027-.773-.033-1.611-.033-2.47,0-.3,0-.607,0-.911a41.891,41.891,0,0,0-6.2,6.374,44.6,44.6,0,0,0-3.295,4.761c3.314-.637,6.09-1.2,7.775-1.585" fill="#006726"/>
    <path id="패스_19514" data-name="패스 19514" d="M114.907,116.9a3.386,3.386,0,0,0,1.12.445h.426a36.042,36.042,0,0,1-.583-5.244c-.028.011-.061.023-.1.04a3.888,3.888,0,0,0-.5.252,3.2,3.2,0,0,0-1.157,1.123,2.533,2.533,0,0,0-.331,1.282v.011a.285.285,0,0,1,0,.029.2.2,0,0,1,0,.024v.027l0,.022a2.412,2.412,0,0,0,.371,1.257,2.445,2.445,0,0,0,.753.732" fill="#006726"/>
    <path id="패스_19515" data-name="패스 19515" d="M113.469,116.636a3.176,3.176,0,0,1-.491-1.386h-3.784a3.541,3.541,0,0,1-.3,1.1,3.6,3.6,0,0,1-.671.989h5.884a3.132,3.132,0,0,1-.641-.705" fill="#006726"/>
    <path id="패스_19516" data-name="패스 19516" d="M109.188,114.42h3.783a3.306,3.306,0,0,1,.421-1.32,3.732,3.732,0,0,1,.874-1.016h-6.518a4.416,4.416,0,0,1,1.021,1.154,3.17,3.17,0,0,1,.419,1.182" fill="#006726"/>
    <path id="패스_19517" data-name="패스 19517" d="M39.548,90.255a1.821,1.821,0,0,0,.181.756.859.859,0,0,0,.327.359,2.376,2.376,0,0,0,.7.291,9.855,9.855,0,0,0,2.4.227c2.754,0,6.683-.529,10.437-.72,1.488-.076,3.126-.183,4.857-.183l.471,0a23.467,23.467,0,0,1,8.8,1.613,21.191,21.191,0,0,1,8.665,6.809c.276.015.556.024.843.024q.621,0,1.277-.05c2.538-.193,7.212-.875,12.44-1.738,5.162-.851,10.871-1.878,15.646-2.787a42.33,42.33,0,0,1,3.156-4.749c-.46.088-1.142.228-2.131.45-2.36.53-6.453,1.523-13.365,3.372a43.271,43.271,0,0,1-10.775,1.754,11.227,11.227,0,0,1-5.279-1.06,5.612,5.612,0,0,1-2.7-3.061,8.679,8.679,0,0,1-.505-2.9c0-.04,0-.08,0-.119A7.2,7.2,0,0,1,76.6,84.22a15.893,15.893,0,0,1,3.446-3.23A27.469,27.469,0,0,1,85.008,78.2a.415.415,0,0,1,.528.57v0l-.006.012-.024.053c-.022.047-.054.118-.092.21-.077.185-.181.454-.285.785a8.652,8.652,0,0,0-.414,2.543,5.417,5.417,0,0,0,.691,2.75,1.963,1.963,0,0,0,.576.618,3.347,3.347,0,0,0,.9.433,8.741,8.741,0,0,0,2.618.329,30.48,30.48,0,0,0,5.06-.535c1.715-.3,3.354-.667,4.621-.924,2.529-.512,7.906-1.77,11.705-2.671-.108,0-.213,0-.322,0a88.514,88.514,0,0,1-12.426-.953,31.217,31.217,0,0,1-6.9-2.018,88.416,88.416,0,0,1-15.081-8.177c-.3-.209-.51-.36-.633-.459a1.958,1.958,0,0,0-.613-.364l-.009,0a.993.993,0,0,0-.338-.061,1.267,1.267,0,0,0-.514.124,5.071,5.071,0,0,0-.538.29c.28.565.582,1.078.766,1.384.075.126.129.213.164.275h0c.044.08.1.189.158.335s.131.32.2.514a4.184,4.184,0,0,1,.252,1.268,1.437,1.437,0,0,1-.1.568,1.047,1.047,0,0,1-.4.449,2.181,2.181,0,0,1-.534.25A4.151,4.151,0,0,1,72.748,76a3.256,3.256,0,0,1-.741-.078,1.543,1.543,0,0,1-.643-.3h0a2.461,2.461,0,0,1-.365-.4,5.607,5.607,0,0,1-.357-.545A10.036,10.036,0,0,1,70,73.327l-.624-.574-1.288.72c.119.285.361.716.625,1.195a12.106,12.106,0,0,1,.828,1.758,3.846,3.846,0,0,1,.242,1.253,2.055,2.055,0,0,1-.188.893,1.915,1.915,0,0,1-.637.744h0a2.436,2.436,0,0,1-1.406.422,2.667,2.667,0,0,1-1.365-.372,2.828,2.828,0,0,1-1.1-1.231h0a5.881,5.881,0,0,1-.325-.909c-.014-.049-.027-.1-.041-.153a1.625,1.625,0,0,1-.229.183,1.856,1.856,0,0,1-1.03.291c-.064,0-.127,0-.187-.008a5.085,5.085,0,0,1,.208,1.328,2.588,2.588,0,0,1-.075.649,1.514,1.514,0,0,1-.273.567,1.76,1.76,0,0,1-.771.547,2.533,2.533,0,0,1-.889.15,3.5,3.5,0,0,1-1.1-.184,2.217,2.217,0,0,1-.84-.479c-.121-.121-.3-.316-.52-.554-.151-.165-.32-.352-.492-.542l-.452.264-.035.019-.005,0-.03.016a1.131,1.131,0,0,0-.111.07.826.826,0,0,0-.233.235.3.3,0,0,0-.046.154l0,.056c.015.078.061.241.126.441s.148.443.237.709c.178.531.38,1.152.517,1.74a5.2,5.2,0,0,1,.154,1.117c0,.044,0,.087,0,.13a1.348,1.348,0,0,1-.248.717,1.559,1.559,0,0,1-.524.454,2.652,2.652,0,0,1-1.245.294,2.5,2.5,0,0,1-.531-.054,1.257,1.257,0,0,1-.461-.193h0a6.73,6.73,0,0,1-.855-.758,5.065,5.065,0,0,1-.955-1.372,3.093,3.093,0,0,1-.286-1.189l-1.457.529c0,.077,0,.165,0,.267,0,.344,0,.819,0,1.345a5.191,5.191,0,0,1-.1,1.22,2.093,2.093,0,0,1-.709,1.152,3.2,3.2,0,0,1-1,.538h0a2.646,2.646,0,0,1-.852.154,1.619,1.619,0,0,1-.574-.1,1.138,1.138,0,0,1-.508-.37,1.17,1.17,0,0,1-.2-.41h0A5.628,5.628,0,0,1,48,85.367c-.02-.189-.035-.39-.048-.594-.33.141-1.325.565-1.86.772h0a.629.629,0,0,0-.33.252.471.471,0,0,0-.067.175h0v.016l0,.02c0,.018,0,.045-.006.082,0,.073-.009.181-.009.314a5.653,5.653,0,0,0,.131,1.22h0a1.725,1.725,0,0,1,.044.376,1.268,1.268,0,0,1-.1.5,1.254,1.254,0,0,1-.257.378,2.429,2.429,0,0,1-.612.424c-.124.066-.232.123-.3.172h0a1.508,1.508,0,0,1-.49.2,2.45,2.45,0,0,1-.546.06,2.419,2.419,0,0,1-.609-.075,1.533,1.533,0,0,1-.565-.269,1.021,1.021,0,0,1-.289-.348,2.177,2.177,0,0,1-.185-.635c-.009-.054-.013-.111-.02-.167-.231.09-.563.216-.966.366l-.029.012h0a3.093,3.093,0,0,0-.531.307,2.111,2.111,0,0,0-.634.688,1.334,1.334,0,0,0-.162.637" fill="#006726"/>
    <path id="패스_19518" data-name="패스 19518" d="M104.739,117.338l.009,0h2.147l.057-.032a2.979,2.979,0,0,0,.355-.246,2.905,2.905,0,0,0,.834-1.055,2.794,2.794,0,0,0,.245-1.174,2.262,2.262,0,0,0-.323-1.158,3.508,3.508,0,0,0-.752-.877,5.253,5.253,0,0,0-1.1-.716h-1.469c-.022.01-.046.021-.077.037a3.018,3.018,0,0,0-.381.226,2.808,2.808,0,0,0-.9,1.007,2.67,2.67,0,0,0-.291,1.161v.02q0,.042,0,.09v.078a2.933,2.933,0,0,0,.711,1.9,3.067,3.067,0,0,0,.941.73" fill="#006726"/>
    <path id="패스_19519" data-name="패스 19519" d="M97.9,112.946a2.834,2.834,0,0,1,.427,1.142h3.969a3.411,3.411,0,0,1,.349-1.115,3.473,3.473,0,0,1,.664-.889H97.1a3.56,3.56,0,0,1,.8.862" fill="#006726"/>
    <path id="패스_19520" data-name="패스 19520" d="M102.634,116.335a3.875,3.875,0,0,1-.361-1.417H98.334a4.266,4.266,0,0,1-.975,2.266c-.047.056-.092.107-.138.158h6.127a3.735,3.735,0,0,1-.714-1.007" fill="#006726"/>
    <path id="패스_19521" data-name="패스 19521" d="M96.476,112.652a4.292,4.292,0,0,0-1.093-.565,2.627,2.627,0,0,0,.057,5.254H96c.04-.029.088-.066.149-.116a4.242,4.242,0,0,0,.565-.568,3.371,3.371,0,0,0,.809-2.155,2,2,0,0,0-.316-1.093,2.788,2.788,0,0,0-.734-.757" fill="#006726"/>
    <path id="패스_19522" data-name="패스 19522" d="M94.426,74.133l1.862-2.569c-2.375-1.723-4.816-3.58-6.831-4.924a17.4,17.4,0,0,0-3.379-1.832,7.81,7.81,0,0,0-2.784-.552,7.056,7.056,0,0,1,1.042,1.682,3.014,3.014,0,0,1,.367.069,2.874,2.874,0,0,1,1.062.511,2.552,2.552,0,0,1,.671.784c.128.23.22.417.291.562s.122.249.155.3a.315.315,0,0,0,.03.044l.042.01a4.172,4.172,0,0,0,.485.029h0a6.6,6.6,0,0,1,1.166.135,4.362,4.362,0,0,1,1.479.586,2.958,2.958,0,0,1,.853.836,3.206,3.206,0,0,1,.5,1.813,5.061,5.061,0,0,1-.057.7,6.105,6.105,0,0,0,1.2,1.033,5.945,5.945,0,0,0,1.842.775" fill="#006726"/>
    <path id="패스_19523" data-name="패스 19523" d="M96.8,60.789a2.432,2.432,0,0,0-.494-.9c-.228-.249-.593-.615-1.037-1.046s-.968-.931-1.522-1.456c-1.108-1.049-2.336-2.2-3.29-3.115-.637-.613-1.148-1.117-1.437-1.437a1.518,1.518,0,0,0-.624-.414,2.071,2.071,0,0,0-.353-.092l1.037,1,.03.03c1.837,1.762,4.5,4.32,5.265,5.049h0a10.614,10.614,0,0,1,1.494,1.647,3.919,3.919,0,0,1,.75,2.25,4.039,4.039,0,0,1-.139,1.029,5.878,5.878,0,0,1-1.859,2.723,9.994,9.994,0,0,1-.866.684q.363.253.722.51a7,7,0,0,0,2.52-5.122,4.358,4.358,0,0,0-.2-1.335" fill="#006726"/>
    <path id="패스_19524" data-name="패스 19524" d="M76.158,68.514a11.847,11.847,0,0,0-.6,1.284,3.21,3.21,0,0,1,.487.334c.083.068.289.218.581.42s.678.461,1.141.762c.926.6,2.161,1.376,3.6,2.219a80.431,80.431,0,0,0,9.88,4.985L92,77.475a10.6,10.6,0,0,1-2.42-1.4,10.449,10.449,0,0,1-1.339-1.25c-.05,0-.105,0-.171,0a4.177,4.177,0,0,1-2.435-.863h0a2.575,2.575,0,0,1-.714-.853c-.168-.3-.291-.589-.4-.783a.911.911,0,0,0-.135-.206.7.7,0,0,0-.246-.033,4.4,4.4,0,0,0-.554.053,4.675,4.675,0,0,1-.615.061H82.96a3.237,3.237,0,0,1-1.128-.2,2.592,2.592,0,0,1-.987-.661h0a2.725,2.725,0,0,1-.429-3.122,9.774,9.774,0,0,0-2.367-2.208,9.511,9.511,0,0,0-1.891,2.5" fill="#006726"/>
    <path id="패스_19525" data-name="패스 19525" d="M79.644,57.087c-.454.395-.908.795-1.349,1.185v.392l.959,1a29.623,29.623,0,0,1,2.5-2.329l.1-.084a3.707,3.707,0,0,1-.452.029,7.747,7.747,0,0,1-1.759-.193" fill="#006726"/>
    <path id="패스_19526" data-name="패스 19526" d="M88.036,53.478c-.525-.5-.94-.9-1.159-1.116l-.018-.017a7.8,7.8,0,0,0-2.512.934h0a10.531,10.531,0,0,0-1.075.764c-.434.337-.947.756-1.5,1.219a3.963,3.963,0,0,0,1.875.625,21.618,21.618,0,0,1,4.39-2.41" fill="#006726"/>
    <path id="패스_19527" data-name="패스 19527" d="M34.308,90.685c-.814.181-1.545.346-2.267.5a2.1,2.1,0,0,0,.27.8A2.813,2.813,0,0,0,33.976,93.2h0a7.722,7.722,0,0,0,2.6.381c.415,0,.846-.014,1.321-.014a14.744,14.744,0,0,1,2.9.264A18.922,18.922,0,0,1,46.27,95.69,11.711,11.711,0,0,1,50.8,99.92c.413-.609.808-1.3,1.222-1.983a10.963,10.963,0,0,1,1.827-2.421A7.616,7.616,0,0,1,59.1,93.549a10.073,10.073,0,0,1,1.853.185,7.529,7.529,0,0,0-2.141-1.916l-.362,0c-1.7,0-3.318.1-4.815.182-3.711.187-7.629.719-10.479.72a12.973,12.973,0,0,1-2.045-.135,3.9,3.9,0,0,1-1.512-.52,1.7,1.7,0,0,1-.625-.71,2.671,2.671,0,0,1-.254-1.1,2.148,2.148,0,0,1,.218-.937,46.309,46.309,0,0,1-4.628,1.367" fill="#006726"/>
    <path id="패스_19528" data-name="패스 19528" d="M121.872,69.407a19.513,19.513,0,0,1-2.23,1.234,6.787,6.787,0,0,0,4.249,1.458,10.17,10.17,0,0,0,5.07-1.534.415.415,0,0,1,.637.345l.064,4.688,1.854-.742V71.433a.414.414,0,0,1,.507-.4l.061.014a.4.4,0,0,1,.128.053h0l0,0,.014.008.064.037c.06.033.151.082.275.141a8.933,8.933,0,0,0,1.118.441,14.238,14.238,0,0,0,4.414.652,4.765,4.765,0,0,0,3.211-.992,3.2,3.2,0,0,0,.782-.98,8.309,8.309,0,0,1-2.9-.916,9.207,9.207,0,0,1-2.343-1.81,9.831,9.831,0,0,1-1.758-2.539.415.415,0,0,1,.444-.576,13.884,13.884,0,0,0,2.131.184,4.871,4.871,0,0,0,2.261-.423,1.555,1.555,0,0,0,.621-.535,9.215,9.215,0,0,1-4.734-3.266,8.72,8.72,0,0,1-1.35-2.45.416.416,0,0,1,.432-.537c.284.024.549.035.794.035a4.585,4.585,0,0,0,2.514-.588,2.346,2.346,0,0,0,.316-.243,10.035,10.035,0,0,1-4.253-3.176,8.984,8.984,0,0,1-1.324-2.253.415.415,0,0,1,.463-.549,5.791,5.791,0,0,0,1.006.085,7.393,7.393,0,0,0,1.624-.189,9.308,9.308,0,0,1-1.819-1.082A13.19,13.19,0,0,1,132,47.419a16.717,16.717,0,0,1-1.378-1.947,8.044,8.044,0,0,1-1.342,2.2A9.737,9.737,0,0,1,127,49.614a11.748,11.748,0,0,1-2.112,1.033,2.99,2.99,0,0,0,.5.226,3.523,3.523,0,0,0,1.118.173,4.288,4.288,0,0,0,1.312-.2.415.415,0,0,1,.539.513,7.592,7.592,0,0,1-1.666,2.9,8.718,8.718,0,0,1-2.2,1.718,10.26,10.26,0,0,1-1.979.843,3.625,3.625,0,0,0,1,.519,4.994,4.994,0,0,0,1.606.249,5.876,5.876,0,0,0,1.391-.16.416.416,0,0,1,.5.538,7.448,7.448,0,0,1-1.652,2.6,13.289,13.289,0,0,1-2.257,1.883,18.539,18.539,0,0,1-2.169,1.251,6.067,6.067,0,0,0,3.083.808,6.487,6.487,0,0,0,1.974-.29.415.415,0,0,1,.5.6,13.923,13.923,0,0,1-4.618,4.6" fill="#006726"/>
    <path id="패스_19529" data-name="패스 19529" d="M26.8,86.336a13.574,13.574,0,0,1-1.285.727,4.361,4.361,0,0,0,2.552.806,6.631,6.631,0,0,0,3.3-1,.415.415,0,0,1,.637.348l.024,3.1L33,90.085V87.566a.416.416,0,0,1,.507-.4l.04.009a.423.423,0,0,1,.128.053h0l.007,0,.04.023c.037.02.1.051.175.089a5.818,5.818,0,0,0,.727.287,9.33,9.33,0,0,0,2.891.426,3.715,3.715,0,0,0,1.4-.239,2.276,2.276,0,0,0,.78-.509,1.9,1.9,0,0,0,.255-.316,5.614,5.614,0,0,1-1.768-.594,6.232,6.232,0,0,1-1.593-1.23,6.654,6.654,0,0,1-1.2-1.728.416.416,0,0,1,.445-.576,9.1,9.1,0,0,0,1.4.121,3.179,3.179,0,0,0,1.412-.252,1.136,1.136,0,0,0,.266-.18,6.282,6.282,0,0,1-3.02-2.152,5.93,5.93,0,0,1-.92-1.673.415.415,0,0,1,.432-.536c.185.015.357.023.516.023a2.911,2.911,0,0,0,1.6-.369l.011-.008a6.819,6.819,0,0,1-2.662-2.062,6.1,6.1,0,0,1-.9-1.537.415.415,0,0,1,.463-.549,3.724,3.724,0,0,0,.644.054,4.378,4.378,0,0,0,.643-.047,6.564,6.564,0,0,1-.856-.547,8.9,8.9,0,0,1-1.5-1.457,11.357,11.357,0,0,1-.787-1.085,5.515,5.515,0,0,1-.807,1.258,6.666,6.666,0,0,1-1.551,1.317,8.046,8.046,0,0,1-1.121.577.219.219,0,0,0,.023.009,2.213,2.213,0,0,0,.7.108,2.792,2.792,0,0,0,.762-.108c.041-.012.063-.02.063-.02h0a.414.414,0,0,1,.538.513,5.2,5.2,0,0,1-1.137,1.983,5.982,5.982,0,0,1-1.5,1.169,6.97,6.97,0,0,1-1.059.478,2.439,2.439,0,0,0,.384.174,3.178,3.178,0,0,0,1.023.158,3.836,3.836,0,0,0,.887-.1h0a.415.415,0,0,1,.5.537,5.081,5.081,0,0,1-1.127,1.778,9.038,9.038,0,0,1-1.524,1.272,12.334,12.334,0,0,1-1.22.72,3.943,3.943,0,0,0,1.749.394,4.224,4.224,0,0,0,1.267-.185.415.415,0,0,1,.5.6,9.383,9.383,0,0,1-3.116,3.1" fill="#006726"/>
    <path id="패스_19530" data-name="패스 19530" d="M96.989,74.347a14,14,0,0,0,2.742-.387c-.885-.577-1.817-1.226-2.769-1.911l-1.628,2.246a9.28,9.28,0,0,0,1.107.065c.177,0,.36,0,.548-.013" fill="#fff"/>
    <path id="패스_19531" data-name="패스 19531" d="M105.964,76.869a16.979,16.979,0,0,1-7.651,1.762c-.56,0-1.142-.025-1.743-.08a16.191,16.191,0,0,1-3.762-.772l-.765,1.056a29.329,29.329,0,0,0,6.218,1.772,87.546,87.546,0,0,0,12.307.944c1.635,0,3.176-.061,4.578-.186h0c.712-.062,1.385-.143,2.02-.239a34.6,34.6,0,0,0-.141-3.587,21.448,21.448,0,0,1-2.984.318q-.423.016-.866.017a27.229,27.229,0,0,1-7.215-1" fill="#fff"/>
    <path id="패스_19532" data-name="패스 19532" d="M144.755,107a.768.768,0,0,0-.239-.455,1.422,1.422,0,0,0-.559-.29,8.7,8.7,0,0,0-2.141-.208,10.549,10.549,0,0,1-2.343-.2,22.318,22.318,0,0,1-3.041-1.277,18.971,18.971,0,0,0-4.481-1.409q-.791-.144-1.714-.258v-2.772l.041.009a8.232,8.232,0,0,0,4.111.9c2.672,0,3.083-1.85,3.083-1.85a6,6,0,0,1-4.851-3.412c3.7.576,3.782-.986,3.782-.986a6.012,6.012,0,0,1-4.193-3.741c2.426.205,2.919-.946,2.919-.946a6.511,6.511,0,0,1-3.947-3.618,5.291,5.291,0,0,0,2.714-.329c-2.919-.74-4.6-4.193-4.6-4.193-.863,3.207-4.4,4.07-4.4,4.07a2.735,2.735,0,0,0,2.673.493,5.693,5.693,0,0,1-4.235,3.618,2.707,2.707,0,0,0,1.4.83,4.267,4.267,0,0,0,1.928-.008c-.863,2.467-4.4,3.906-4.4,3.906a4.605,4.605,0,0,0,4.07.658,10.83,10.83,0,0,1-4.892,3.987c2.9,2.635,6.38.619,6.948.259v2.933c-1.9-.154-4.146-.234-6.82-.234-.343,0-.694,0-1.051.005-.035.817-.071,1.6-.1,2.336-.072,1.6-.142,3.006-.195,4.265h24.624c0-.125,0-.248,0-.367a11.823,11.823,0,0,0-.088-1.717" fill="#fff"/>
    <path id="패스_19533" data-name="패스 19533" d="M120.138,111.29a3.458,3.458,0,0,1,.445,6.756,11.908,11.908,0,0,0,.566,1.7,5.221,5.221,0,0,0,.352.679c4.561-.095,9.829-.2,12.907-.34,1.042-.045,1.838-.1,2.244-.144.106-.013.186-.026.22-.034a4.051,4.051,0,0,0,.553-.2c.248-.105.547-.243.878-.406.664-.324,1.457-.741,2.254-1.173,1.593-.863,3.2-1.785,3.833-2.151l.1-.055c0-.052.009-.111.014-.18.012-.161.028-.37.045-.61H125.96a.416.416,0,0,1,0-.831H144.6c.084-1.239.183-2.91.223-4.383H120.184q-.027.722-.046,1.375" fill="#fff"/>
    <path id="패스_19534" data-name="패스 19534" d="M120.9,76.576a8.122,8.122,0,0,1,.266,1.819h0c.012.352.018.805.018,1.345.147-.083.293-.169.441-.25h0c2.612-1.416,5-2.607,7.211-3.539l-.059-4.321c-.081.043-.167.087-.259.133-.446.366-.87.73-1.267,1.077a23.222,23.222,0,0,1-2.209,1.8,17.052,17.052,0,0,1-4.144,1.938" fill="#fff"/>
    <path id="패스_19535" data-name="패스 19535" d="M139.586,68.756a7.407,7.407,0,0,0,1.8.681c-.166-.406-.355-.829-.566-1.226a14.839,14.839,0,0,0-2.473-.278,7.89,7.89,0,0,0,1.237.823" fill="#fff"/>
    <path id="패스_19536" data-name="패스 19536" d="M143.1,74.6c-.258-.994-.545-1.979-.881-2.943a4.409,4.409,0,0,1-1.573,1.093,6.557,6.557,0,0,1-2.551.462,13.917,13.917,0,0,1-5.754-1.112v2.561a19.863,19.863,0,0,1,5.86-1,12.915,12.915,0,0,1,4.9.935" fill="#fff"/>
    <path id="패스_19537" data-name="패스 19537" d="M138,67.093a15.139,15.139,0,0,1,2.226.171c-.038-.048-.075-.1-.113-.139a2.209,2.209,0,0,0-.674-.554,1.711,1.711,0,0,0-.523-.138,5.591,5.591,0,0,0-.706-.037c-.324,0-.658.015-.964.015h-.283c-.033,0-.065,0-.1,0,.174.225.372.458.594.693.178-.006.358-.012.54-.012" fill="#fff"/>
    <path id="패스_19538" data-name="패스 19538" d="M124.586,73.945a17.3,17.3,0,0,0,1.656-1.326,9.909,9.909,0,0,1-1.674.28,17.872,17.872,0,0,1-4.209,2.244c.1.205.2.419.288.642a16.26,16.26,0,0,0,3.939-1.84" fill="#fff"/>
    <path id="패스_19539" data-name="패스 19539" d="M135.454,124.718l0,0a.416.416,0,0,0-.257-.074h-.01c-.179,0-1.035,0-2.1,0l-4.587,0q.009.093.009.186a1.931,1.931,0,0,1-.112.646c1,0,2.8-.01,4.324-.01,1.116,0,2.074,0,2.471.013h.022a.381.381,0,0,0,.307-.116.441.441,0,0,0,.1-.289.518.518,0,0,0-.044-.209.379.379,0,0,0-.116-.146" fill="#fff"/>
    <path id="패스_19540" data-name="패스 19540" d="M127.388,124.115a.42.42,0,0,0-.248-.1,12.747,12.747,0,0,1-1.968-.258,7.732,7.732,0,0,1-2.666-1.1,5.777,5.777,0,0,1-1.57-1.568l-.007-.009,0-.006a6.046,6.046,0,0,1-.541-1.007,12.906,12.906,0,0,1-.709-2.241h0a21.638,21.638,0,0,1-.4-4.647c0-.474.007-.974.02-1.5.016-.678.041-1.4.072-2.19.055-1.373.133-2.922.213-4.7.039-.855.08-1.773.122-2.735h0c.122-2.991.252-6.407.362-9.718.155-4.7.271-9.195.285-11.946,0-.208,0-.406,0-.593,0-.557-.006-1.019-.018-1.368h0a7.177,7.177,0,0,0-.34-1.988h0a5.981,5.981,0,0,0-.588-1.3h0a4.473,4.473,0,0,0-1.294-1.4,2.6,2.6,0,0,0-1.436-.48,1.97,1.97,0,0,0-.3.022,2.075,2.075,0,0,0-1.042.493,3.726,3.726,0,0,0-.758.916,5.89,5.89,0,0,0-.425.859h.008c.34-.016.746-.037.993-.054.178-.013.476-.05.764-.09s.568-.084.735-.111l.155-.025a.419.419,0,0,1,.33.092,1.577,1.577,0,0,1,.43.69,5.186,5.186,0,0,1,.222.947v0A30.685,30.685,0,0,1,118,81.284v.2c0,.364,0,.734,0,1.1a.41.41,0,0,1,0,.116c0,.577-.005,1.157-.005,1.726,0,.855.007,1.684.033,2.441.009.257.013.533.013.826,0,1.481-.106,3.394-.249,5.386-.25,3.432-.613,7.094-.756,9.084-.027.393-.046.718-.054.961-.021.622-.1,1.564-.176,2.747s-.144,2.6-.144,4.15c0,.529.008,1.075.027,1.631a35.06,35.06,0,0,0,.677,6A24.214,24.214,0,0,0,118,120.1c.074.227.146.441.222.641v0a8.586,8.586,0,0,0,2.364,3.619,6.05,6.05,0,0,0,2.362,1.251,8.428,8.428,0,0,0,2.25.276c.543,0,1.024-.036,1.415-.052h0a1.132,1.132,0,0,0,.736-.257l0,0a.893.893,0,0,0,.237-.334,1.094,1.094,0,0,0,.079-.415,1.119,1.119,0,0,0-.087-.436.731.731,0,0,0-.2-.276" fill="#fff"/>
    <path id="패스_19541" data-name="패스 19541" d="M117.212,120.355c-.232-.718-.424-1.449-.588-2.183H95.439a3.459,3.459,0,0,1,0-6.918h20.4c-.01-.417-.017-.83-.017-1.23,0-.037,0-.073,0-.109H76.181a.415.415,0,1,1,0-.83h39.653c.021-1.207.077-2.314.137-3.263.075-1.191.156-2.141.175-2.722,0-.153.014-.334.026-.535q-1.966.06-4.129.16h0c-4.724.22-10.963.821-17.109,1.658a146.307,146.307,0,0,0-16.548,3.069c-3.276.872-4.932,1.44-6.264,1.9a34.177,34.177,0,0,1-4.305,1.273c-1.3.3-3,.625-5.5,1.048-.514.087-1.02.165-1.521.239l.713,1.833a.415.415,0,0,1-.774.3l-.784-2.017c-.831.111-1.643.2-2.44.278l.542,1.7a.415.415,0,1,1-.791.252l-.6-1.879c-2,.167-3.9.236-5.722.236-4.813,0-9.085-.459-13.307-.739-3.159-.21-7.173-.6-10.97-1.008v-1.805l.027.007a5.413,5.413,0,0,0,2.7.594c1.757,0,2.027-1.216,2.027-1.216a3.943,3.943,0,0,1-3.189-2.243c2.433.378,2.487-.649,2.487-.649a3.951,3.951,0,0,1-2.757-2.459c1.595.135,1.919-.621,1.919-.621a4.263,4.263,0,0,1-2.594-2.379,3.469,3.469,0,0,0,1.783-.216c-1.918-.486-3.027-2.756-3.027-2.756a4.174,4.174,0,0,1-2.891,2.675,1.8,1.8,0,0,0,1.756.325,3.743,3.743,0,0,1-2.783,2.378,2.32,2.32,0,0,0,2.189.54c-.568,1.622-2.892,2.567-2.892,2.567a3.029,3.029,0,0,0,2.676.433,7.117,7.117,0,0,1-3.216,2.621c1.905,1.732,4.193.407,4.567.171v1.9c-4.488-.492-8.5-.983-10.174-1.192-1.2-.151-2.743-.308-4.337-.574a21.3,21.3,0,0,1-4.533-1.2,27.82,27.82,0,0,0,5.849,3.923,73.69,73.69,0,0,0,12.591,4.71c9.138,2.714,20.287,3.64,27.125,3.757,5.162.092,9.817.272,14.689.272,1.621,0,3.265-.02,4.96-.069,1.067-.032,2.706-.045,4.74-.045,9.369,0,27.11.274,35.162.274,1.454,0,2.593-.009,3.3-.03h0c.714-.019,1.487-.038,2.443-.061-.017-.053-.037-.1-.054-.157Zm-27.647-5.227H65.848a.415.415,0,0,1,0-.83H89.565a.415.415,0,0,1,0,.83" fill="#fff"/>
    <path id="패스_19542" data-name="패스 19542" d="M108.984,75.945h0c-.067-.013-.139-.027-.214-.044l-.12-.028h0c-.249-.053-.509-.116-.758-.184a10.373,10.373,0,0,1-.88.6,26.543,26.543,0,0,0,6.17.756q.426,0,.834-.016a20.778,20.778,0,0,0,2.886-.309,3.243,3.243,0,0,0-.11-.4,1.29,1.29,0,0,0-.089-.2,18.762,18.762,0,0,1-3.3.294,20.962,20.962,0,0,1-2.58-.165q-.579-.072-1.148-.169h-.01l-.01,0h-.016l-.071-.013c-.059-.01-.12-.022-.185-.036h0l-.008,0h0c-.1-.021-.238-.046-.387-.078h0" fill="#fff"/>
    <path id="패스_19543" data-name="패스 19543" d="M97.028,75.176c-.2.01-.4.014-.588.014A9.45,9.45,0,0,1,94.517,75h0a6.864,6.864,0,0,1-2.383-.95,7.081,7.081,0,0,1-1.505-1.323v0c-.243-.282-.447-.553-.624-.79s-.326-.439-.449-.579a2.629,2.629,0,0,0-.655-.551,1.191,1.191,0,0,0-.585-.177.706.706,0,0,0-.417.132,1.316,1.316,0,0,0-.4.508,1.014,1.014,0,0,0-.1.456,2.47,2.47,0,0,0,.318,1.09,4.155,4.155,0,0,0,.7.963c.088.089.182.194.291.317l0,0a10.158,10.158,0,0,0,1.389,1.325A10.016,10.016,0,0,0,92.8,76.9a15.059,15.059,0,0,0,3.848.828c.576.053,1.132.077,1.667.077a16.122,16.122,0,0,0,7.416-1.743,10.258,10.258,0,0,0,1.794-1.137h0l0,0a.354.354,0,0,1,.073-.048l.028-.013a.3.3,0,0,1,.06-.021l.031-.008a.416.416,0,0,1,.071-.006h.022a.457.457,0,0,1,.089.014c.307.082.613.16.921.227l.025.007c.017,0,.051.012.093.021h.007l.111.023a6.1,6.1,0,0,0-.651-1.125,3.128,3.128,0,0,0-1.349-1.071,3.447,3.447,0,0,0-1.286-.226c-.116,0-.236,0-.361.013a3.919,3.919,0,0,0-1.185.295c-.4.159-.811.373-1.283.609a15.257,15.257,0,0,1-2.117.9,14.05,14.05,0,0,1-3.8.668" fill="#fff"/>
    <path id="패스_19544" data-name="패스 19544" d="M82.5,63.457q.372-.031.741-.032a8.637,8.637,0,0,1,3.135.607,18.3,18.3,0,0,1,3.543,1.917c2.145,1.432,4.725,3.406,7.193,5.186,1.282.927,2.529,1.8,3.664,2.511.4-.142.771-.294,1.11-.45a82.775,82.775,0,0,1-7.624-5.083h0q-.737-.529-1.482-1.047h0a41.579,41.579,0,0,0-6.458-3.82,7.69,7.69,0,0,0-3.229-.7,8.7,8.7,0,0,0-1.8.195,6.179,6.179,0,0,1,1.185.725l.028-.005" fill="#fff"/>
    <path id="패스_19545" data-name="패스 19545" d="M72.176,64.164a4.653,4.653,0,0,1,1.554-.27,8.081,8.081,0,0,1,2.516.495c.431.14.887.307,1.383.493h0a4.626,4.626,0,0,1,.51.231c.008,0,.015.008.024.011a.264.264,0,0,0,.029.015h0a10.322,10.322,0,0,1,3.049,2.8h0v0h0c.372.478.637.876.772,1.086a6.523,6.523,0,0,0,1.13.117,1.924,1.924,0,0,0,.955-.185.446.446,0,0,0,.214-.228.341.341,0,0,0,.013-.046,12.014,12.014,0,0,0-.636-2.147,5.792,5.792,0,0,0-1.6-2.314A6.182,6.182,0,0,0,79.9,63.09h0c-.968-.306-2.05-.5-3.17-.826a8.1,8.1,0,0,0-2.255-.394c-.107,0-.209,0-.308.012h0a3.031,3.031,0,0,0-1.461.478A10.873,10.873,0,0,0,71.4,63.414h0a3.761,3.761,0,0,0-.527.567q.2.153.422.293a4.228,4.228,0,0,1,.882-.109" fill="#fff"/>
    <path id="패스_19546" data-name="패스 19546" d="M77.253,65.628c-.35-.131-.677-.251-.983-.355-.055.047-.111.095-.161.142h0A6.589,6.589,0,0,0,75.1,66.679a16.267,16.267,0,0,0-.878,1.591c-.281.576-.513,1.118-.678,1.526.056-.029.11-.06.169-.085a2.093,2.093,0,0,1,.846-.193,1.669,1.669,0,0,1,.209.018,12.646,12.646,0,0,1,.608-1.327,10.714,10.714,0,0,1,1.874-2.581" fill="#fff"/>
    <path id="패스_19547" data-name="패스 19547" d="M70.729,72.924l.006.012a7.842,7.842,0,0,0,.927,1.786,1.656,1.656,0,0,0,.237.264.74.74,0,0,0,.3.124,2.5,2.5,0,0,0,.552.056,3.539,3.539,0,0,0,.73-.077,2.042,2.042,0,0,0,.56-.2.438.438,0,0,0,.139-.111l0,0a.655.655,0,0,0,.035-.241,2.906,2.906,0,0,0-.126-.741,6.278,6.278,0,0,0-.255-.716c-.053-.125-.1-.223-.119-.254h0c-.017-.032-.075-.127-.15-.252s-.173-.289-.281-.477c-.216-.376-.475-.853-.7-1.358l0-.006-.082-.187,0,0a6.764,6.764,0,0,1-.385-1.142,8.762,8.762,0,0,1-.157-1.1c-.038-.417-.065-.87-.083-1.313,0-.062,0-.123-.007-.184a4.536,4.536,0,0,1-1.1.128c-.223,0-.435-.008-.641-.02-.015.278-.031.6-.042.951-.009.314-.016.647-.016.984A15.026,15.026,0,0,0,70.18,70.9a9.629,9.629,0,0,0,.549,2.019" fill="#fff"/>
    <path id="패스_19548" data-name="패스 19548" d="M67.951,70.312,69.5,71.739c-.055-.237-.1-.475-.139-.712a15.649,15.649,0,0,1-.125-2.183q0-.313.006-.615a.407.407,0,0,1-.143-.08l-.6-.512h-.026a4.262,4.262,0,0,0-1.5.313h0a1.429,1.429,0,0,0-.346.187V69.1l1.323,1.216Z" fill="#fff"/>
    <path id="패스_19549" data-name="패스 19549" d="M65.3,75.909c.08.4.167.771.257,1.091a5.079,5.079,0,0,0,.275.775,2,2,0,0,0,.774.878,1.853,1.853,0,0,0,.941.256,1.628,1.628,0,0,0,.923-.267h0a1.094,1.094,0,0,0,.369-.424,1.251,1.251,0,0,0,.108-.538,3.95,3.95,0,0,0-.415-1.524c-.248-.552-.566-1.108-.833-1.6a7.281,7.281,0,0,1-.431-.887h0v0a3.02,3.02,0,0,1-.1-.312h0v0h0A5.247,5.247,0,0,1,67.009,72a7.129,7.129,0,0,1,.082-1.075c-.094-.076-.212-.171-.345-.276-.294-.232-.647-.5-.851-.64l-.056-.036-.03,0c-.07.01-.162.027-.263.051a2.1,2.1,0,0,0-.6.235.592.592,0,0,0-.212.2.276.276,0,0,0-.033.11h0c0,.03,0,.082,0,.148,0,.343.045,1.041.128,1.862.1,1.032.269,2.271.478,3.322" fill="#fff"/>
    <path id="패스_19550" data-name="패스 19550" d="M61.7,74.687a5.96,5.96,0,0,1,1.266,1.954l.035.01a1.823,1.823,0,0,0,.463.065,1.025,1.025,0,0,0,.574-.155,1.145,1.145,0,0,0,.432-.6c-.2-1.043-.359-2.221-.461-3.226-.009-.019-.017-.04-.03-.069-.033-.078-.08-.185-.133-.3-.092-.2-.207-.438-.3-.592-.117.042-.27.1-.442.179a7.261,7.261,0,0,0-1.153.631,2.24,2.24,0,0,0-.521.469h0a.706.706,0,0,0-.119.429,2.271,2.271,0,0,0,.192.813,3.763,3.763,0,0,0,.195.4" fill="#fff"/>
    <path id="패스_19551" data-name="패스 19551" d="M67.406,93.369a21.463,21.463,0,0,0-7.1-1.505,9.542,9.542,0,0,1,1.871,2.166c.419.124.843.27,1.273.445,1.759.717,3.545,1.87,5.6,2.878a19.075,19.075,0,0,0,6.195,1.959,20.033,20.033,0,0,0-7.835-5.943" fill="#fff"/>
    <path id="패스_19552" data-name="패스 19552" d="M57.61,76.748l.4.458c.243.275.568.641.9,1,.25.278.5.555.716.79s.4.428.495.528a1.457,1.457,0,0,0,.52.28,2.67,2.67,0,0,0,.833.14,1.744,1.744,0,0,0,.6-.1.927.927,0,0,0,.414-.289h0a.7.7,0,0,0,.117-.257,1.77,1.77,0,0,0,.049-.44,5.03,5.03,0,0,0-.387-1.741h0a5.254,5.254,0,0,0-1.182-1.877,3.185,3.185,0,0,0-.706-.517,1.017,1.017,0,0,0-.451-.128.493.493,0,0,0-.3.1.939.939,0,0,0-.253.3h0a1.881,1.881,0,0,1-.656.638,6.513,6.513,0,0,1-.707.365c-.138.064-.256.121-.327.164a.454.454,0,0,0-.058.039.567.567,0,0,0-.117.31.337.337,0,0,0,.1.234Z" fill="#fff"/>
    <path id="패스_19553" data-name="패스 19553" d="M54.582,82.718a3.79,3.79,0,0,0,.5.8,5.825,5.825,0,0,0,1.043,1,.241.241,0,0,0,.04.019.692.692,0,0,0,.111.033,1.652,1.652,0,0,0,.35.035,2.017,2.017,0,0,0,.66-.109.9.9,0,0,0,.435-.292.5.5,0,0,0,.093-.278c0-.027,0-.056,0-.086a5.994,5.994,0,0,0-.277-1.483c-.162-.566-.364-1.145-.518-1.607a7.049,7.049,0,0,1-.224-.761,1.187,1.187,0,0,1-.02-.212,1.123,1.123,0,0,1,.162-.576,1.469,1.469,0,0,1,.314-.37,1.93,1.93,0,0,1,.407-.273l.2-.117a1.538,1.538,0,0,0-.659-.256h-.041a1.182,1.182,0,0,0-.434.106,3.253,3.253,0,0,0-.572.319,5.568,5.568,0,0,0-1.072.966,4.522,4.522,0,0,0-.459.606,1.618,1.618,0,0,0-.206.583,4.353,4.353,0,0,0-.051.633c0,.064,0,.134,0,.207s0,.148,0,.227a2.259,2.259,0,0,0,.214.884" fill="#fff"/>
    <path id="패스_19554" data-name="패스 19554" d="M48.753,84.3c.015.334.038.68.069.982a5.047,5.047,0,0,0,.108.7.347.347,0,0,0,.057.122.258.258,0,0,0,.082.07.687.687,0,0,0,.341.072,1.824,1.824,0,0,0,.579-.107h0a1.925,1.925,0,0,0,.954-.607,1.534,1.534,0,0,0,.277-.8,7.03,7.03,0,0,0,.026-.721c0-1.056.008-1.906.008-1.907a.416.416,0,0,1,.273-.386l1.174-.426a2.037,2.037,0,0,0-.819-.2,1.334,1.334,0,0,0-.189.013,2.151,2.151,0,0,0-.455.136,5.784,5.784,0,0,0-.6.289,9.1,9.1,0,0,0-1.234.81,4.178,4.178,0,0,0-.557.511.812.812,0,0,0-.112.154c0,.074,0,.178,0,.3,0,.265.008.619.026.988Z" fill="#fff"/>
    <path id="패스_19555" data-name="패스 19555" d="M8.692,92.576a.77.77,0,0,0,.118.089,2.565,2.565,0,0,0,.233.133c.183.1.412.2.647.3.469.195.967.37,1.207.448l.121.037h0l.054.013.166.036c.147.033.368.081.66.141.583.122,1.452.3,2.591.507,2.276.42,5.629.984,9.93,1.554,8.615,1.145,9,1.271,12.79,1.931,1.417.248,2.316.369,2.994.483a6.223,6.223,0,0,1,1.658.457,8.858,8.858,0,0,1,1.107.628,19.3,19.3,0,0,1,1.685,1.317,6.384,6.384,0,0,0,1.68,1.06,3.7,3.7,0,0,0,1.361.253,4.521,4.521,0,0,0,.6-.041,2.488,2.488,0,0,0,1.141-.473,4.613,4.613,0,0,0,.828-.8,10.8,10.8,0,0,0-4.39-4.224,18.086,18.086,0,0,0-5.236-1.775,14.053,14.053,0,0,0-2.741-.25c-.458,0-.888.015-1.321.015a8.552,8.552,0,0,1-2.858-.423A3.645,3.645,0,0,1,31.594,92.4a2.915,2.915,0,0,1-.368-1.059,53.308,53.308,0,0,1-7.438.826c-1.793.1-4.18.134-6.573.134-3.668,0-7.342-.078-8.857-.115a4.694,4.694,0,0,0,.332.386Z" fill="#fff"/>
    <path id="패스_19556" data-name="패스 19556" d="M42.66,87.7a4.508,4.508,0,0,0,.048.583,1.455,1.455,0,0,0,.108.393.2.2,0,0,0,.059.067.611.611,0,0,0,.154.083,1.455,1.455,0,0,0,.507.083,1.577,1.577,0,0,0,.358-.039.685.685,0,0,0,.219-.083h0c.193-.127.385-.213.54-.306a.855.855,0,0,0,.31-.264A.4.4,0,0,0,45.016,88a.923.923,0,0,0-.024-.194h0a6.406,6.406,0,0,1-.151-1.4c0-.3.02-.5.021-.509h0A1.2,1.2,0,0,1,45,85.447a1.442,1.442,0,0,1,.79-.677h0c.314-.121.814-.329,1.228-.5a1.15,1.15,0,0,0-.461-.113.7.7,0,0,0-.239.04h0c-.5.173-1.735.66-2.526,1.023a6.364,6.364,0,0,0-.587.295h0a.716.716,0,0,0-.208.195,1.13,1.13,0,0,0-.145.284,3.4,3.4,0,0,0-.146.7,6.478,6.478,0,0,0-.046.8c0,.068,0,.136,0,.205Z" fill="#fff"/>
    <path id="패스_19557" data-name="패스 19557" d="M81.957,49.1s-.369.862-2.184.708a4.5,4.5,0,0,0,3.138,2.8s-.062,1.169-2.831.738a4.885,4.885,0,0,0,1.025,1.4c.609-.512,1.175-.976,1.656-1.349.082-.064.157-.121.234-.179V48.066a15.608,15.608,0,0,1-1.647.78,4.962,4.962,0,0,0,.609.25" fill="#fcde00"/>
    <path id="패스_19558" data-name="패스 19558" d="M101.454,71.993v-3.2a9.109,9.109,0,0,1-3.11,1.2c1.022.7,2.055,1.379,3.11,2" fill="#fcde00"/>
    <path id="패스_19559" data-name="패스 19559" d="M120.229,72.538v1.768a17.419,17.419,0,0,0,2.207-1.028,6.743,6.743,0,0,1-2.166-.731Z" fill="#fcde00"/>
    <path id="패스_19560" data-name="패스 19560" d="M123.292,65.3a5.973,5.973,0,0,0,1.079.982,11.07,11.07,0,0,0,.855-1.042,8.037,8.037,0,0,1-1.211.1c-.23,0-.472-.011-.723-.035" fill="#fcde00"/>
    <path id="패스_19561" data-name="패스 19561" d="M118.379,72.919V72.19a7.07,7.07,0,0,1-.726.394,3.682,3.682,0,0,1,.726.335" fill="#fcde00"/>
    <path id="패스_19562" data-name="패스 19562" d="M66.626,66.018V67.2l.052-.022a5.087,5.087,0,0,1,1.79-.367,2.143,2.143,0,0,1,.241.011.419.419,0,0,1,.217.1l.348.3c.006-.135.013-.262.02-.381a7.125,7.125,0,0,1-2.627-.8Z" fill="#fcde00"/>
    <path id="패스_19563" data-name="패스 19563" d="M78.3,56.6v.568l.421-.37a3.108,3.108,0,0,1-.39-.191Z" fill="#fcde00"/>
    <path id="패스_19564" data-name="패스 19564" d="M136.293,65.6c.222-.012.443-.022.666-.022h.283c.109,0,.229,0,.353,0a13.607,13.607,0,0,1-1.371-.086l.069.111" fill="#fcde00"/>
    <path id="패스_19565" data-name="패스 19565" d="M126.646,18.648a59.437,59.437,0,0,0-82.912,0A56.731,56.731,0,0,0,28.286,73.171l.046-.015a6.806,6.806,0,0,0,.775-.318,6.182,6.182,0,0,0,2.021-1.514,4.609,4.609,0,0,0,.953-1.8.415.415,0,0,1,.774-.074v0l.008.014.029.057c.027.051.068.127.123.222.108.19.271.46.486.767a8.731,8.731,0,0,0,1.851,1.973,5.029,5.029,0,0,0,1.779.885.416.416,0,0,1,.064.783,5.84,5.84,0,0,1-2.13.42h-.019a5.834,5.834,0,0,0,.466.69,5.973,5.973,0,0,0,2.865,2.014.415.415,0,0,1,.251.558,1.686,1.686,0,0,1-.59.655,3.574,3.574,0,0,1-2.032.551,5.587,5.587,0,0,0,.541.855c.107.139.231.281.362.423a10.884,10.884,0,0,0,4.558-3.948,4.9,4.9,0,0,1-4.328-.7s3.759-1.53,4.677-4.154a3.75,3.75,0,0,1-3.541-.874,6.056,6.056,0,0,0,4.5-3.848,2.908,2.908,0,0,1-2.842-.525s3.76-.918,4.679-4.328c0,0,1.792,3.673,4.9,4.46a5.621,5.621,0,0,1-2.885.349,6.9,6.9,0,0,0,4.2,3.848S50.3,71.82,47.72,71.6a6.4,6.4,0,0,0,4.461,3.979s-.089,1.661-4.023,1.049a6.38,6.38,0,0,0,5.159,3.629,1.766,1.766,0,0,1-.131.344c.044.022.087.045.128.067.1.053.183.105.26.153a3.026,3.026,0,0,1,.1-.511,2.489,2.489,0,0,1,.393-.79c.115-.157.241-.309.383-.478a6.36,6.36,0,0,1,.9-.865,4.686,4.686,0,0,1,1.066-.652,2.083,2.083,0,0,1,.637-.162l-.06-.068h0a1.175,1.175,0,0,1-.309-.784,1.392,1.392,0,0,1,.285-.81h0a.781.781,0,0,1,.166-.165,1.519,1.519,0,0,1,.169-.11c.115-.065.237-.122.364-.182a4.533,4.533,0,0,0,.719-.384.939.939,0,0,0,.271-.276h0a1.735,1.735,0,0,1,.486-.559,1.331,1.331,0,0,1,.786-.256,1.686,1.686,0,0,1,.6.117,2.29,2.29,0,0,1-.042-.411,1.529,1.529,0,0,1,.279-.919h0A2.789,2.789,0,0,1,61.33,72a6.049,6.049,0,0,1,.7-.45,8.76,8.76,0,0,1,1.272-.581c.09-.031.163-.054.231-.07a.615.615,0,0,1,.148-.02.461.461,0,0,1,.171.034l.014.007c0-.072,0-.139,0-.2,0-.08,0-.148.006-.211h0a1.139,1.139,0,0,1,.318-.7,1.82,1.82,0,0,1,.558-.386l.034-.015v-3.74c-.567.359-4.033,2.366-6.92-.258a10.787,10.787,0,0,0,4.872-3.972,4.586,4.586,0,0,1-4.053-.655s3.521-1.433,4.381-3.89a3.513,3.513,0,0,1-3.317-.819,5.671,5.671,0,0,0,4.218-3.6,2.724,2.724,0,0,1-2.662-.492s3.522-.86,4.382-4.054c0,0,1.678,3.44,4.586,4.177a5.281,5.281,0,0,1-2.7.328,6.461,6.461,0,0,0,3.931,3.6s-.492,1.147-2.907.942A5.986,5.986,0,0,0,72.769,60.7s-.082,1.556-3.768.983a6.422,6.422,0,0,0,1.247,1.746,4.555,4.555,0,0,1,.6-.644h0a11.544,11.544,0,0,1,1.413-1.132,3.876,3.876,0,0,1,1.676-.585c.315-.289,1.5-1.373,2.969-2.68V56.336c-.425.269-3.03,1.778-5.2-.194a8.113,8.113,0,0,0,3.661-2.985,3.448,3.448,0,0,1-3.047-.492s2.554-1.042,3.254-2.831c-.1-.008-.2-.02-.3-.031a2.625,2.625,0,0,1-1.8-.366,10.3,10.3,0,0,1-3.972-2.3.418.418,0,0,1-.13-.383.414.414,0,0,1,.258-.311l.015-.007.053-.021c.047-.019.117-.048.208-.088.181-.078.446-.2.773-.356a25.176,25.176,0,0,0,2.557-1.436,18.4,18.4,0,0,0,5.239-4.872,10.332,10.332,0,0,1-1.891.176,8.861,8.861,0,0,1-5.442-1.79.414.414,0,0,1,.1-.714l.007,0,.031-.013.123-.053c.109-.047.269-.119.467-.213.4-.19.961-.472,1.6-.841a18.491,18.491,0,0,0,4.187-3.2,9.546,9.546,0,0,0,1.684-2.4,9.241,9.241,0,0,1-1.3.093,7.536,7.536,0,0,1-2.431-.38,5.612,5.612,0,0,1-2.429-1.6.415.415,0,0,1,.241-.683l.005,0,.027-.005c.024,0,.061-.012.11-.023.1-.021.243-.056.427-.106a12.2,12.2,0,0,0,1.48-.51,11.188,11.188,0,0,0,3.94-2.695,9.047,9.047,0,0,0,1.729-2.748,6.8,6.8,0,0,1-1.264.121A5.627,5.627,0,0,1,78.1,21.8a4.82,4.82,0,0,1-1.826-1.109.415.415,0,0,1,.188-.7l.008,0,.029-.008.121-.033c.105-.03.263-.078.46-.145a14.271,14.271,0,0,0,1.584-.65,12.663,12.663,0,0,0,4.145-3.11A9.541,9.541,0,0,0,84.784,12.3a.414.414,0,0,1,.773-.075l0,.009.014.029.061.12c.056.1.139.259.25.453.221.387.552.932.985,1.554A17.82,17.82,0,0,0,90.637,18.4a10.416,10.416,0,0,0,3.678,1.827.415.415,0,0,1,.066.782,11.188,11.188,0,0,1-4.066.8c-.243,0-.491-.009-.744-.03.023.046.047.091.072.141a12.445,12.445,0,0,0,7.118,6.054.415.415,0,0,1,.252.558,2.915,2.915,0,0,1-1.028,1.128A6.792,6.792,0,0,1,92,30.688c-.153,0-.313,0-.475-.01.039.089.082.183.131.288a11.719,11.719,0,0,0,1.27,2.07,11.222,11.222,0,0,0,6.3,4.123.415.415,0,0,1,.314.425,1.933,1.933,0,0,1-.337.9A3.448,3.448,0,0,1,97.3,39.8a8.739,8.739,0,0,1-2.693.361,17.993,17.993,0,0,1-2.156-.142,12.87,12.87,0,0,0,.816,1.241,11.712,11.712,0,0,0,3.809,3.347,10.028,10.028,0,0,0,4.172,1.167.415.415,0,0,1,.381.5,4.242,4.242,0,0,1-.59,1.286A5.538,5.538,0,0,1,98.5,49.632a8.5,8.5,0,0,1-3.316.6,17.993,17.993,0,0,1-7.728-1.541v2.767l.08,0a3.3,3.3,0,0,1,1.143.187,2.35,2.35,0,0,1,.957.638c.189.211.526.55.946.96s.93.9,1.475,1.411c1.091,1.032,2.328,2.19,3.317,3.14.66.635,1.209,1.174,1.542,1.536a3.262,3.262,0,0,1,.669,1.2,6.288,6.288,0,0,0,1.765-2.487s-2.559.7-4.063-1c0,0,4.014-.7,5.167-4.414a3.338,3.338,0,0,1-3.261-.6s4.314-1.054,5.368-4.967c0,0,2.056,4.214,5.618,5.117a6.455,6.455,0,0,1-3.311.4,7.919,7.919,0,0,0,4.816,4.414s-.6,1.4-3.562,1.154a7.333,7.333,0,0,0,5.117,4.565s-.1,1.907-4.615,1.2a7.32,7.32,0,0,0,5.92,4.164s-.5,2.258-3.763,2.258a10.04,10.04,0,0,1-5.017-1.1l-.05-.011v3.1c.069-.03.138-.061.207-.088a4.731,4.731,0,0,1,1.433-.353c.144-.011.285-.016.422-.016a4.287,4.287,0,0,1,1.594.285,3.759,3.759,0,0,1,1.223.8,6.632,6.632,0,0,1,1.453,2.355c.293.047.586.093.882.129a20.413,20.413,0,0,0,2.329.157,7.043,7.043,0,0,1,.272-.68,5.325,5.325,0,0,1,1.136-1.641,4.9,4.9,0,0,1-3.231-1.331,10.836,10.836,0,0,0,4.892-3.988,4.605,4.605,0,0,1-4.07-.658s3.536-1.438,4.4-3.905a3.528,3.528,0,0,1-3.33-.822,5.694,5.694,0,0,0,4.234-3.618,2.733,2.733,0,0,1-2.672-.493s3.536-.864,4.4-4.07c0,0,1.686,3.453,4.6,4.193a5.286,5.286,0,0,1-2.713.329,6.407,6.407,0,0,0,1.933,2.529A11.794,11.794,0,0,0,124.753,60a7.285,7.285,0,0,0,1.178-1.627,7.124,7.124,0,0,1-.814.048,5.807,5.807,0,0,1-1.875-.293,4.358,4.358,0,0,1-1.883-1.243.415.415,0,0,1,.24-.683h0l.018,0,.082-.017c.072-.016.181-.041.318-.079a9.039,9.039,0,0,0,1.11-.383A8.366,8.366,0,0,0,126.08,53.7a6.764,6.764,0,0,0,1.223-1.885,5.294,5.294,0,0,1-.8.064,4.345,4.345,0,0,1-1.38-.216A3.751,3.751,0,0,1,123.7,50.8a.416.416,0,0,1,.19-.7h.005l.021-.006.089-.024c.079-.023.2-.059.343-.109a10.678,10.678,0,0,0,1.19-.488,9.491,9.491,0,0,0,3.107-2.33,7.129,7.129,0,0,0,1.478-2.793.415.415,0,0,1,.773-.074l0,.005.011.022.046.089c.042.079.1.195.187.34.167.292.417.7.742,1.17a13.418,13.418,0,0,0,2.83,3.017,7.8,7.8,0,0,0,2.751,1.366.416.416,0,0,1,.064.783,8.565,8.565,0,0,1-3.119.614c-.129,0-.262-.008-.394-.016a9.314,9.314,0,0,0,5.309,4.49.417.417,0,0,1,.252.558,2.342,2.342,0,0,1-.814.9,5.257,5.257,0,0,1-3.075.8c-.065,0-.134,0-.2-.005.011.024.021.047.033.072a8.794,8.794,0,0,0,.951,1.55,8.4,8.4,0,0,0,4.718,3.086.416.416,0,0,1,.314.425,1.562,1.562,0,0,1-.272.73,2.712,2.712,0,0,1-1.5,1.039,6.179,6.179,0,0,1-1.638.268h.1a6.348,6.348,0,0,1,.813.044,2.571,2.571,0,0,1,.779.214h0a3.033,3.033,0,0,1,.938.757,6.3,6.3,0,0,1,.72,1.055h0a15.429,15.429,0,0,1,.888,1.961c.12.012.239.024.362.032a.389.389,0,0,1,.155.042,56.75,56.75,0,0,0-16.214-51.023" fill="#fcde00"/>
    <path id="패스_19566" data-name="패스 19566" d="M39.921,82.318a1.194,1.194,0,0,1-.2.554,1.936,1.936,0,0,1-1.068.747,4.58,4.58,0,0,1-1.42.192c-.212,0-.44-.009-.687-.03.055.081.112.165.179.254a5.685,5.685,0,0,0,1.848,1.627,4.845,4.845,0,0,0,2.017.564.415.415,0,0,1,.38.5,2.291,2.291,0,0,1-.325.716,2.819,2.819,0,0,1-.48.556l.4-.145.028-.012.011,0,.009-.005c.6-.223,1.038-.393,1.224-.466a6.926,6.926,0,0,1,.053-.794,4.892,4.892,0,0,1,.113-.627,2.2,2.2,0,0,1,.327-.73,1.559,1.559,0,0,1,.45-.417h0a7.318,7.318,0,0,1,.673-.341l.21-.1V80.884a7.55,7.55,0,0,1-3.836,1.143.419.419,0,0,1,.1.291" fill="#fcde00"/>
    <path id="패스_19567" data-name="패스 19567" d="M97.584,63.852A7.9,7.9,0,0,1,96.2,66.613a10.267,10.267,0,0,0,2.75-3.007,5.426,5.426,0,0,1-1.362.246" fill="#fcde00"/>
    <path id="패스_19568" data-name="패스 19568" d="M28.848,74.553c-.072-.024-.144-.054-.217-.085q.216.777.453,1.545a4.61,4.61,0,0,0,.34-.332,4.347,4.347,0,0,0,.677-.991c-.092.008-.188.014-.291.014a3.022,3.022,0,0,1-.962-.151" fill="#fcde00"/>
    <path id="패스_19569" data-name="패스 19569" d="M34.687,88.512q.321.534.654,1.06c.754-.206,1.54-.447,2.3-.694-.041,0-.078.005-.12.005a10.377,10.377,0,0,1-2.83-.371" fill="#fcde00"/>
    <path id="패스_19570" data-name="패스 19570" d="M45.622,81.255v2.309c.162-.061.307-.114.42-.153h0a1.549,1.549,0,0,1,.515-.088,2.1,2.1,0,0,1,.973.269,3.488,3.488,0,0,1,.375.236c0-.189-.008-.364-.008-.515s0-.278.008-.378a.82.82,0,0,1,.12-.364,1.862,1.862,0,0,1,.212-.285c.051-.057.108-.115.167-.173a7.575,7.575,0,0,1-2.738-.848Z" fill="#fcde00"/>
  </g>
</svg>
