<svg xmlns="http://www.w3.org/2000/svg" xmlns:xlink="http://www.w3.org/1999/xlink" width="121.323" height="155.257" viewBox="0 0 121.323 155.257">
  <defs>
    <clipPath id="clip-path">
      <rect id="사각형_5668" data-name="사각형 5668" width="121.323" height="155.257" fill="rgba(0,0,0,0)"/>
    </clipPath>
  </defs>
  <g id="그룹_11081" data-name="그룹 11081" transform="translate(7)">
    <g id="그룹_11080" data-name="그룹 11080" transform="translate(-7)" clip-path="url(#clip-path)">
      <path id="패스_19571" data-name="패스 19571" d="M121.278,120.913a1.024,1.024,0,0,0-.045-.253.976.976,0,0,0-.089-.245,3.424,3.424,0,0,0-3.932-2.119c-.3.057-.609.122-.913.188l-.451.1-26.494,5.514a11.825,11.825,0,0,0-2.964-10.864,9.516,9.516,0,0,0-8.788-2.548,1,1,0,0,0-.255.036.8.8,0,0,0-.214.088c-.106.031-.215.065-.323.1a12.133,12.133,0,0,0,.021-1.231c0-.169-.007-.336-.007-.5v-6.649a3.475,3.475,0,0,0-2.947-3.708,10.118,10.118,0,0,0-1.916.02c-.237.018-.472.035-.7.046-1.062.049-2.123.106-3.185.163l-.107.006q.947-1.97,1.9-3.938.753.051,1.5.051A20.109,20.109,0,0,0,86.8,88.331,18.932,18.932,0,0,0,90,69.625a22.021,22.021,0,0,0-5.6-8.406,9.886,9.886,0,0,0,2.545-2.481c4.465,4.036,10.232,5.56,15.451,4.072a13.975,13.975,0,0,0,10.1-13.567,3.483,3.483,0,0,0-2.13-3.429l-.131-.052a3.181,3.181,0,0,0,.575-1.511,10.442,10.442,0,0,0,.036-1.376c0-.168-.006-.337-.006-.5V35.723a3.476,3.476,0,0,0-2.948-3.708,10.118,10.118,0,0,0-1.916.02c-.237.017-.472.035-.7.046-1.042.048-2.084.1-3.125.16l-.167.009q.934-1.943,1.871-3.884c.131-.271.279-.548.437-.841a6.393,6.393,0,0,0,1.106-3.612,3.377,3.377,0,0,0-3.068-2.895q-.9-.116-1.809-.229l-5.2-.656c-.273-.035-.555-.079-.839-.122-1.715-.266-3.657-.568-4.911,1.015a18.02,18.02,0,0,0-1.822,3.088c-.193.384-.376.747-.568,1.1-.774,1.443-1.44,2.8-2.033,4.145A13.949,13.949,0,0,0,77.222,24.1a11.836,11.836,0,0,0-6.4.384.977.977,0,0,0-.262.034.76.76,0,0,0-.342.177l-.013.01a15.267,15.267,0,0,0-3.04,1.623l-.393-6.037a4.262,4.262,0,0,0-.793-2.61c-1.348-1.658-3.254-1.187-4.935-.773-.166.041-.331.082-.5.12l-6.516,1.535c-.3.071-.617.133-.95.2-1.432.285-3.053.608-3.987,1.746q-2.643-.313-5.287-.62l-4.019-.467a4.42,4.42,0,0,0-2.552.33,12.569,12.569,0,0,0,2.3-8.785,12.685,12.685,0,0,0-4.66-8.7A10.281,10.281,0,0,0,24.215.92a11.224,11.224,0,0,0-6.14,8.51,13.568,13.568,0,0,0,.391,5.851l0,.032a.52.52,0,0,0,.013.087.819.819,0,0,0,.083.2,12.757,12.757,0,0,0,3.177,5.209,12.4,12.4,0,0,0-.426,2.4c-.036.32-.07.621-.111.916-.069.48-.117.97-.165,1.444L19.965,36.024a11.892,11.892,0,0,0-2.53-.115c-.34.009-.661.018-.968.013q-1.1-.015-2.207-.026c-.928-.009-1.872-.029-2.787-.048-1.832-.039-3.726-.078-5.584-.039A3.42,3.42,0,0,0,3.17,37.132,4.994,4.994,0,0,0,2.4,39.048l-.065.265c-.4,1.565-.808,3.255-1.135,5-.939,5-1.993,12.463-.328,19.464a16.98,16.98,0,0,0,4.79,8.745A13.975,13.975,0,0,0,13.618,76,18.131,18.131,0,0,0,15.9,89.231,20.634,20.634,0,0,0,26.715,97.87,20.306,20.306,0,0,0,34.7,98.948a3.293,3.293,0,0,0,1.732,1.226,12.17,12.17,0,0,0,.089,3.53,1.041,1.041,0,0,0,.03.3.851.851,0,0,0,.07.185,11.655,11.655,0,0,0,1.974,4.386l-6.2,23.957c-.089.346-.184.692-.278,1.038-.142.52-.289,1.056-.418,1.589-2.669-.038-4.5-.789-5.6-2.295-1.824-2.495-1.044-5.794-.417-7.539a12.284,12.284,0,0,1,.75-1.677c.082-.149.169-.3.258-.441a4.9,4.9,0,0,0,.541-1.1,3.33,3.33,0,0,0-3.76-4.226,4.851,4.851,0,0,0-2.569,1.678c-.1.105-.209.211-.313.314-3.444,3.4-7.311,7.539-9.876,12.445-1.72,3.29-4.17,9.692-1.254,15.6a12.67,12.67,0,0,0,5.323,5.544,16.814,16.814,0,0,0,7.992,1.795l.294,0a43.164,43.164,0,0,0,13.212-2.736q1.759-.6,3.52-1.185l1.762-.59,72.624-24.41q.805-.27,1.614-.531c1.064-.348,2.165-.707,3.232-1.1a3.405,3.405,0,0,0,2.257-3.793" transform="translate(0 0)" fill="#fff"/>
      <path id="패스_19572" data-name="패스 19572" d="M19.57,15.219h0Z" transform="translate(-0.11 -0.086)" fill="#0d0002"/>
      <path id="패스_19573" data-name="패스 19573" d="M37.74,104.329h0Z" transform="translate(-0.213 -0.588)" fill="#0d0002"/>
      <path id="패스_19574" data-name="패스 19574" d="M71.23,25.638h0Z" transform="translate(-0.401 -0.144)" fill="#0d0002"/>
      <path id="패스_19575" data-name="패스 19575" d="M120.262,120.929a2.323,2.323,0,0,0-2.712-1.665L87.9,125.436a10.705,10.705,0,0,0,.771-4.012,11.2,11.2,0,0,0-.2-2.114h0a10.611,10.611,0,0,0-1.516-3.794,9.343,9.343,0,0,0-2.847-2.822l0,0a8.26,8.26,0,0,0-4.371-1.271,8.04,8.04,0,0,0-2.106.281,8.159,8.159,0,0,0-2.374,1.077c-.156.1-.306.213-.454.325l-.566-.214a2.31,2.31,0,0,0,1.593-2.2v-8.567A2.319,2.319,0,0,0,73.4,99.8s-1.893.078-4.218.195c-.916.046-1.9.1-2.863.154.4-.837.819-1.706,1.225-2.55.634-1.317,1.239-2.568,1.709-3.54a21.032,21.032,0,0,0,2.145.113,19.91,19.91,0,0,0,10-2.635A17.474,17.474,0,0,0,90.19,76.358,19.319,19.319,0,0,0,87,65.862a21.183,21.183,0,0,0-4.287-4.792,11.286,11.286,0,0,0,1.825-1.17,7.866,7.866,0,0,0,1.91-2.209c.107-.182.2-.368.3-.555A20.108,20.108,0,0,0,88.6,58.85a15.418,15.418,0,0,0,9.7,3.517,13.774,13.774,0,0,0,5.651-1.189,12.694,12.694,0,0,0,6.84-7.49,13.265,13.265,0,0,0,.7-4.295q0-.288-.012-.573a2.315,2.315,0,0,0-1.5-2.074l-1.743-.66a2.307,2.307,0,0,0,1.593-2.2V35.32A2.321,2.321,0,0,0,107.422,33s-1.893.079-4.218.195c-.916.047-1.9.1-2.863.154.559-1.165,1.149-2.391,1.7-3.525.593-1.227,1.133-2.345,1.525-3.154.2-.406.355-.734.464-.962l.171-.352a2.32,2.32,0,0,0-1.8-3.314l-3.2-.4-6.729-.849a2.326,2.326,0,0,0-2.3,1.141c-.006.011-.861,1.491-1.842,3.3-.491.9-1.012,1.89-1.48,2.825-.234.468-.453.924-.65,1.355s-.371.837-.516,1.224c-.082.219-.193.5-.323.831-.053-.087-.1-.176-.157-.262a14.581,14.581,0,0,0-4.82-4.77,11.277,11.277,0,0,0-5.738-1.6,11.419,11.419,0,0,0-3.811.668,12.578,12.578,0,0,0-2.581,1.291,16.974,16.974,0,0,0-1.965,1.488l-.563-8.644a2.319,2.319,0,0,0-2.847-2.107L51.188,20.28a2.316,2.316,0,0,0-1.581,1.306l-2.254-.268h-.006l-8.29-.964a2.318,2.318,0,0,0-2.225,1.062l-2.217-.376c.144-.11.289-.22.427-.338a10.161,10.161,0,0,0,2.683-3.712,11.653,11.653,0,0,0,.923-4.583A12.48,12.48,0,0,0,38.1,8.777a11.874,11.874,0,0,0-2.135-4.044,10.406,10.406,0,0,0-3.486-2.8l0,0A9.226,9.226,0,0,0,28.441.992a8.917,8.917,0,0,0-3.226.6,9.222,9.222,0,0,0-2.689,1.618,10.152,10.152,0,0,0-2.684,3.711,11.66,11.66,0,0,0-.922,4.581,12.5,12.5,0,0,0,.544,3.631A11.846,11.846,0,0,0,21.6,19.183a10.784,10.784,0,0,0,1.34,1.371,2.308,2.308,0,0,0-.308.855L22.173,24.5l-.013.1L20.84,37.434a2.314,2.314,0,0,0-1.343-.454l-4.023-.053h-.006l-9.62-.1a2.318,2.318,0,0,0-2.272,1.751l-.621,2.455c-.152.6-.622,2.542-1.058,5.207a60.587,60.587,0,0,0-.839,9.588,34.907,34.907,0,0,0,.63,6.907,18.767,18.767,0,0,0,2.451,6.393,12.937,12.937,0,0,0,3.6,3.747A12.453,12.453,0,0,0,12.5,74.831h0a16.658,16.658,0,0,0,2.4.268,15.781,15.781,0,0,0-.7,4.649,17.353,17.353,0,0,0,2.866,9.427A19.686,19.686,0,0,0,33.39,98a18.591,18.591,0,0,0,1.872-.1,2.3,2.3,0,0,0,2.1,1.442l.221,0a10.791,10.791,0,0,0-.254,2.314,11.041,11.041,0,0,0,.2,2.082,10.257,10.257,0,0,0,2.167,4.626l-.347,1.341h0l-6.812,26.3c-.013.053-.022.106-.032.159-.144,0-.294.012-.436.012a12.544,12.544,0,0,1-3.627-.471,5.65,5.65,0,0,1-2.194-1.169,6.9,6.9,0,0,1-1.8-2.563,7.711,7.711,0,0,1-.514-2.862,12.064,12.064,0,0,1,.667-3.793,13.312,13.312,0,0,1,1.367-2.9,2.32,2.32,0,0,0-3.566-2.923c-1.555,1.516-2.8,2.758-4.008,4.068s-2.35,2.673-3.684,4.406a31.1,31.1,0,0,0-4.1,6.9,18.341,18.341,0,0,0-1.536,7.02,12.342,12.342,0,0,0,1.132,5.276h0a12.02,12.02,0,0,0,2.315,3.364,11.251,11.251,0,0,0,2.262,1.772,13.125,13.125,0,0,0,3.871,1.51,18.756,18.756,0,0,0,4.1.426,31.908,31.908,0,0,0,6.953-.86,56.667,56.667,0,0,0,6.222-1.82l82.82-27.835a2.325,2.325,0,0,0,1.5-2.806" transform="translate(-0.006 -0.006)" fill="#0d0002"/>
      <path id="패스_19576" data-name="패스 19576" d="M78.052,112.328h0Z" transform="translate(-0.44 -0.633)" fill="#0d0002"/>
      <path id="패스_19577" data-name="패스 19577" d="M31.425,5.257a3.008,3.008,0,0,0-2.458-.141c-1.985.771-2.952,3.511-2.163,6.115a5.044,5.044,0,0,0,2.476,3.138,3.006,3.006,0,0,0,2.462.141C33.724,13.738,34.7,11,33.906,8.4a5.075,5.075,0,0,0-2.481-3.14" transform="translate(-0.149 -0.028)" fill="#ec0127"/>
      <path id="패스_19578" data-name="패스 19578" d="M8.687,55.084c.017.611.051,1.217.1,1.815a15.242,15.242,0,0,0,1.956,6.809A6.326,6.326,0,0,0,14.369,66.5a6.725,6.725,0,0,0,.66.157,8.872,8.872,0,0,0,7.072-1.38A11.281,11.281,0,0,0,25,62.085h0s6.072-9.232,7.2-19.024c.45-3.894,2.5-17.411,2.5-17.411l-6.84-1.163S27.078,37.316,25.4,45.31c-1.046,4.966-3.146,5.974-3.735,6.051a4.68,4.68,0,0,1-4.343-1.325,7.461,7.461,0,0,1-1.5-4.771,18.834,18.834,0,0,1,.342-3.971l-5.916-.062A60.242,60.242,0,0,0,8.687,55.084" transform="translate(-0.049 -0.138)" fill="#ec0127"/>
      <path id="패스_19579" data-name="패스 19579" d="M71.983,109.3c-.025-.571-.222-4.6-.251-5.206-.68.063-11.573,1.045-11.573,1.045l5.687-12.1-5.473-.693s-5.072,6.676-6.112,18.772a10.586,10.586,0,0,0,4.248,9.343c4.015,3.267,9.678,2.956,12.649-.7a7.848,7.848,0,0,0,1.593-3.39l-4.5-1.545A3.5,3.5,0,0,1,65.62,117.1c-2.091.274-4.1-1.906-4.492-4.87a7.115,7.115,0,0,1,.226-2.99l9.575.129,1.054-.071" transform="translate(-0.305 -0.52)" fill="#ec0127"/>
      <path id="패스_19580" data-name="패스 19580" d="M40,36.671a15.044,15.044,0,0,0,.989,7.629,5.475,5.475,0,0,0,3.427,2.932,7.7,7.7,0,0,0,6.227-.545c4.215-2.4,5.808-8.556,5.823-8.618l.868.105s.024,7.263.025,8.172c.814-.125,5.16-.817,5.806-.922-.05-.759-1.42-21.886-1.485-22.863l-4.914,1.156a20.817,20.817,0,0,1,.124,4.15A9.118,9.118,0,0,1,55.2,32.939a4.68,4.68,0,0,1-3.664,1.7A4.067,4.067,0,0,1,47.9,33.1a6.476,6.476,0,0,1-.861-4.254,16.361,16.361,0,0,1,.658-3.394c-.826-.1-4.534-.528-5.1-.593A52.261,52.261,0,0,0,40,36.671" transform="translate(-0.225 -0.127)" fill="#cb0b86"/>
      <path id="패스_19581" data-name="패스 19581" d="M44.646,101.492a4.377,4.377,0,0,0,1.85,2.934,2.614,2.614,0,0,0,2.111.346c1.78-.486,2.87-2.759,2.425-5.077a4.4,4.4,0,0,0-1.854-2.935,2.609,2.609,0,0,0-2.107-.347c-1.783.484-2.869,2.76-2.424,5.079" transform="translate(-0.251 -0.543)" fill="#cb0b86"/>
      <path id="패스_19582" data-name="패스 19582" d="M46.439,110.763c-.216.833-5.263,20.318-5.529,21.35.923.013,5.884.1,6.509.112.138-.7,3.819-19.3,3.971-20.074-.638-.177-4.253-1.194-4.952-1.388" transform="translate(-0.23 -0.624)" fill="#cb0b86"/>
      <path id="패스_19583" data-name="패스 19583" d="M77.96,120.887a3.9,3.9,0,0,0,1.981,2.515,3.332,3.332,0,0,0,2.214.326,3.38,3.38,0,0,0,2.46-4.265,3.929,3.929,0,0,0-1.986-2.515,3.319,3.319,0,0,0-2.21-.326,3.375,3.375,0,0,0-2.459,4.265" transform="translate(-0.439 -0.657)" fill="#ffa600"/>
      <path id="패스_19584" data-name="패스 19584" d="M78.779,29.7a6.88,6.88,0,0,0-5.943-.585,7.9,7.9,0,0,0-5.08,5.787,7.011,7.011,0,0,0,2.033,6.615A19.422,19.422,0,0,0,74.87,44.7a25.814,25.814,0,0,1,2.572,1.322c.726.458,1.57,1.066,1.638,2,.08,1.076-.825,1.532-1.76,1.636a5.1,5.1,0,0,1-4.2-2.041,5.8,5.8,0,0,1-1.358-2.736l-4.093.883.214.919a10.206,10.206,0,0,0,4.633,6.725,9.64,9.64,0,0,0,4.891,1.347,8.831,8.831,0,0,0,2.275-.292,6.762,6.762,0,0,0,4.978-4.829A6.951,6.951,0,0,0,82.5,42.84a19.663,19.663,0,0,0-5.157-3.231A15.034,15.034,0,0,1,73.66,37.4a1.329,1.329,0,0,1-.368-1.324A2.71,2.71,0,0,1,74.6,34.25a3.293,3.293,0,0,1,3.125.267,4.22,4.22,0,0,1,1.392,1.53,5.814,5.814,0,0,1,.808,1.814l.16.929,3.749-.489-.159-.93A11.123,11.123,0,0,0,78.779,29.7" transform="translate(-0.381 -0.162)" fill="#ffa600"/>
      <path id="패스_19585" data-name="패스 19585" d="M55.428,137.446l-21.27,3.7c-4.691.818-8.441.161-10.561-1.85a8.693,8.693,0,0,1-2.7-7.249c.007-.1.036-.191.045-.289-.523.6-1.062,1.228-1.661,1.979-2.307,2.892-3.6,5.725-3.792,8.166a6.529,6.529,0,0,0,.5,3.2c1.909,4.261,7.308,4.954,16.05,2.06l41.806-13.2c-9.535,1.8-18.414,3.477-18.422,3.481" transform="translate(-0.087 -0.742)" fill="#ffa600"/>
      <path id="패스_19586" data-name="패스 19586" d="M29.477,89.338a12.011,12.011,0,0,0,13.577-1.793L41.8,93.288l7.46.132,7-38.312-5.8-1.628L45.438,76.588a12.593,12.593,0,0,0-6.418-7c-6-2.9-13-.828-15.63,4.625s.089,12.223,6.087,15.121m-.842-15.859c1.18-2.443,4.946-3.067,8.41-1.392S42.36,77.1,41.18,79.541s-4.946,3.067-8.41,1.392-5.315-5.012-4.135-7.455" transform="translate(-0.126 -0.301)" fill="#e6d800"/>
      <path id="패스_19587" data-name="패스 19587" d="M88.473,43.939a10.588,10.588,0,0,0,4.248,9.343c4.015,3.267,9.679,2.956,12.65-.694a7.85,7.85,0,0,0,1.592-3.391l-4.5-1.545a3.5,3.5,0,0,1-2.633,2.272c-2.091.274-4.1-1.906-4.492-4.871a7.1,7.1,0,0,1,.225-2.99l9.575.13,1.054-.072c-.024-.57-.222-4.6-.251-5.206L94.371,37.961l5.688-12.1-5.474-.692s-5.072,6.676-6.112,18.771" transform="translate(-0.498 -0.142)" fill="#e6d800"/>
      <path id="패스_19588" data-name="패스 19588" d="M58.122,66.874c-2.981,6.167.1,13.824,6.884,17.1s14.7.936,17.677-5.231-.1-13.824-6.884-17.1-14.7-.936-17.677,5.23m8.064-1.545c1.335-2.763,5.594-3.468,9.512-1.574s6.011,5.668,4.675,8.431-5.593,3.468-9.512,1.574-6.011-5.668-4.676-8.431" transform="translate(-0.321 -0.339)" fill="#fff"/>
    </g>
  </g>
</svg>
