<svg id="그룹_11077" data-name="그룹 11077" xmlns="http://www.w3.org/2000/svg" xmlns:xlink="http://www.w3.org/1999/xlink" width="172.212" height="108.932" viewBox="0 0 172.212 108.932">
  <defs>
    <clipPath id="clip-path">
      <rect id="사각형_5664" data-name="사각형 5664" width="172.212" height="108.932" transform="translate(0 0)" fill="none"/>
    </clipPath>
  </defs>
  <g id="그룹_11076" data-name="그룹 11076" clip-path="url(#clip-path)">
    <path id="패스_19494" data-name="패스 19494" d="M171.963,43.967a5.146,5.146,0,0,0-6.227-3.256L123.544,52.067l6-16.76a12.369,12.369,0,0,0,2.505.785,12.653,12.653,0,0,0,2.461.242,12.982,12.982,0,0,0,7.271-2.239,7.824,7.824,0,0,0,3.205-4.056l.086-.262a1.167,1.167,0,0,0,.047-.194l.173-1.146.006-.047a8.223,8.223,0,0,0,1.545-4.776,8.116,8.116,0,0,0-.15-1.557,9.414,9.414,0,0,0-6.586-6.975,11.8,11.8,0,0,0-3.369-.47h-.06a10.16,10.16,0,0,0-5-3.65,13.035,13.035,0,0,0-3.336-.617,9.232,9.232,0,0,0-3.671-3.64A9.034,9.034,0,0,0,120.6,5.669a10.74,10.74,0,0,0-1.013-1.618A10.3,10.3,0,0,0,111.491,0h0a9.149,9.149,0,0,0-1.646.144,9.457,9.457,0,0,0-5.941,3.7A13.052,13.052,0,0,0,97,7.532a12.613,12.613,0,0,0-3.266,5.358,8.094,8.094,0,0,0-3.394,2.192,7.789,7.789,0,0,0-.75.964l-.875,0a1.428,1.428,0,0,0-.186-.015l-44.64-.064a1.562,1.562,0,0,0-1.471,1.036l-3.7,10.36a9.174,9.174,0,0,0-3.6-1.485,9.462,9.462,0,0,0-1.589-.136,9.981,9.981,0,0,0-7.848,3.928,10.226,10.226,0,0,0-.9,1.409,8.661,8.661,0,0,0-7.264,4.4,12.722,12.722,0,0,0-3.06.586A9.853,9.853,0,0,0,9.71,39.489a11.433,11.433,0,0,0-3.171.455A9.042,9.042,0,0,0,.153,46.712l-.035.175C.112,46.923.106,46.959.1,47l-.1.973A.987.987,0,0,0,0,48.1l0,.169A8.014,8.014,0,0,0,1.47,52.848l.165,1.085a1.19,1.19,0,0,0,.047.2l.09.27a7.64,7.64,0,0,0,3.121,3.945,12.492,12.492,0,0,0,7,2.154,11.986,11.986,0,0,0,2.383-.234c.083-.016.166-.034.248-.052q-.276.414-.541.82l-.013.021C5.59,74.519,3.718,87.092,8.832,95.547c4.093,6.861,10.783,10.343,19.881,10.343a54.937,54.937,0,0,0,17.3-3.271,7.929,7.929,0,0,0,5.006,2.955,11.705,11.705,0,0,0,7.575,3.318h.031l.372.007h.023a11.335,11.335,0,0,0,5.2-1.291,9.838,9.838,0,0,0,4.895,1.323h.106l.516-.018.039,0a9.262,9.262,0,0,0,5.021-1.9c.335.158.672.3,1.006.428a11.406,11.406,0,0,0,4.007.748,9.436,9.436,0,0,0,4.378-1.039,8.144,8.144,0,0,0,1.1-.689,11.865,11.865,0,0,0,2.139.644,12.241,12.241,0,0,0,2.383.232,12.55,12.55,0,0,0,7.021-2.164,7.7,7.7,0,0,0,3.1-3.941l.09-.277a1.185,1.185,0,0,0,.045-.187l.164-1.079a8.062,8.062,0,0,0,1.468-4.6,7.7,7.7,0,0,0-.149-1.528,9.048,9.048,0,0,0-6.393-6.78,11.429,11.429,0,0,0-3.166-.452,9.948,9.948,0,0,0-2.455-2.3L95.8,81.28a7.867,7.867,0,0,0,4.735.956,8.123,8.123,0,0,0,3.671,1.916,8.432,8.432,0,0,0,1.877.21,8.636,8.636,0,0,0,3.406-.718,7.111,7.111,0,0,0,2.283.4l.16,0h.016c.035,0,.069,0,.1,0l.576-.051.057-.006.3-.042.052-.008a6.875,6.875,0,0,0,1.764-.573,6.879,6.879,0,0,0,1.61,3.45A7.4,7.4,0,0,0,122,89.278a7.98,7.98,0,0,0,1.68-.181l.022,0c.093-.022.186-.045.278-.069a7.146,7.146,0,0,0,3.208.805l.1,0h.026l.076,0,.555-.036c.031,0,.061,0,.092-.009a7.088,7.088,0,0,0,3.587-1.5,6.64,6.64,0,0,0,4.415-2.087,7.616,7.616,0,0,0,2.021-5.123,6.684,6.684,0,0,0-1.746-4.581,6.864,6.864,0,0,0-4.861-2.189h-.026l-.249,0h-.026a6.671,6.671,0,0,0-.721.04,6.766,6.766,0,0,0,.038-.768,7.164,7.164,0,0,0-3.381-5.958L169.537,49.48a4.415,4.415,0,0,0,2.426-5.513" fill="#0d0002"/>
    <path id="패스_19495" data-name="패스 19495" d="M91.66,32.721l2.326-2.838a3.766,3.766,0,0,1-1.053-.517Z" fill="#d0cfcd"/>
    <path id="패스_19496" data-name="패스 19496" d="M102.293,33.487c-.1,0-.208,0-.312-.007a7.274,7.274,0,0,1-1.17-.152l-4.577,5.6.524,21.434,10.221-28.5a7.758,7.758,0,0,1-1.126.728,7.629,7.629,0,0,1-3.56.9" fill="#d0cfcd"/>
    <path id="패스_19497" data-name="패스 19497" d="M170.849,44.358a3.964,3.964,0,0,0-4.8-2.508L122.372,53.6a.4.4,0,0,1-.1.014.378.378,0,0,1-.358-.495l6.633-18.541a.917.917,0,0,1,.463-.611.349.349,0,0,1,.122-.018,1.674,1.674,0,0,1,.557.123,11.222,11.222,0,0,0,2.589.856,11.378,11.378,0,0,0,2.23.219,11.777,11.777,0,0,0,6.6-2.032,6.688,6.688,0,0,0,2.75-3.448l.087-.265.173-1.147v-.276a7.036,7.036,0,0,0,1.539-4.372,6.881,6.881,0,0,0-.13-1.33,8.214,8.214,0,0,0-5.764-6.069,10.639,10.639,0,0,0-3.031-.42c-.151,0-.3,0-.457.009h-.015a.376.376,0,0,1-.315-.17,8.942,8.942,0,0,0-4.643-3.548,11.769,11.769,0,0,0-3.465-.574L127.5,11.3a8.033,8.033,0,0,0-3.394-3.55,7.849,7.849,0,0,0-3.681-.9c-.1,0-.207,0-.31.005h-.014a.382.382,0,0,1-.35-.225,9.572,9.572,0,0,0-1.1-1.863,9.1,9.1,0,0,0-7.159-3.585,8.06,8.06,0,0,0-1.435.125,8.248,8.248,0,0,0-5.381,3.5.375.375,0,0,1-.259.161,11.82,11.82,0,0,0-6.588,3.411,11.452,11.452,0,0,0-3.073,5.25.381.381,0,0,1-.266.268,6.938,6.938,0,0,0-3.276,1.986,6.6,6.6,0,0,0-.841,1.151.378.378,0,0,1-.326.192l-1.52.008,0-.016-44.64-.064a.379.379,0,0,0-.357.251L39.462,28.817a.374.374,0,0,1-.355.25.381.381,0,0,1-.255-.1,7.994,7.994,0,0,0-3.934-1.924,8.1,8.1,0,0,0-1.382-.118,8.787,8.787,0,0,0-6.911,3.465,9.117,9.117,0,0,0-.994,1.647.377.377,0,0,1-.339.22h-.159a7.638,7.638,0,0,0-3.58.878,7.733,7.733,0,0,0-3.2,3.3.377.377,0,0,1-.328.206,11.36,11.36,0,0,0-3.194.551,8.619,8.619,0,0,0-4.4,3.315.377.377,0,0,1-.313.164h-.01q-.156,0-.312,0a10.231,10.231,0,0,0-2.92.406,7.862,7.862,0,0,0-5.566,5.87l-.032.166-.1.974,0,.168a6.82,6.82,0,0,0,1.449,4.177v.2L2.8,53.755l.09.27A6.51,6.51,0,0,0,5.561,57.37a11.306,11.306,0,0,0,6.33,1.947,10.864,10.864,0,0,0,2.147-.21,10.735,10.735,0,0,0,2.345-.757.363.363,0,0,1,.157-.035.386.386,0,0,1,.246.091l.005,0a.377.377,0,0,1,.059.506c-.675.951-1.292,1.856-1.88,2.76-8.133,13.074-10,25.2-5.128,33.259,3.869,6.484,10.219,9.774,18.871,9.774,5.052,0,10.8-1.115,17.477-3.4a.366.366,0,0,1,.121-.02.384.384,0,0,1,.32.173,6.747,6.747,0,0,0,4.81,2.976.367.367,0,0,1,.221.109,10.452,10.452,0,0,0,6.982,3.163l.371.007a10.2,10.2,0,0,0,5.038-1.365.38.38,0,0,1,.187-.05.375.375,0,0,1,.2.06,8.723,8.723,0,0,0,4.673,1.387h.062l.517-.018a8.145,8.145,0,0,0,4.75-1.953.384.384,0,0,1,.247-.092.379.379,0,0,1,.172.042,12.8,12.8,0,0,0,1.356.607,10.209,10.209,0,0,0,3.589.671,8.259,8.259,0,0,0,3.836-.906,6.841,6.841,0,0,0,1.268-.855.381.381,0,0,1,.247-.091.372.372,0,0,1,.156.034,10.693,10.693,0,0,0,2.338.757,10.99,10.99,0,0,0,2.152.21,11.337,11.337,0,0,0,6.355-1.958,6.558,6.558,0,0,0,2.648-3.338l.088-.27.17-1.123v-.2a6.838,6.838,0,0,0,1.449-4.189,6.628,6.628,0,0,0-.127-1.294,7.863,7.863,0,0,0-5.575-5.879,10.235,10.235,0,0,0-2.909-.4c-.1,0-.208,0-.313,0h-.01a.379.379,0,0,1-.314-.165,8.634,8.634,0,0,0-4.412-3.319l-.162-.049,9.2-4.03c.088.06.178.118.268.173a6.649,6.649,0,0,0,3.5.983,6.769,6.769,0,0,0,1.088-.091l.061,0a.38.38,0,0,1,.269.111,7.01,7.01,0,0,0,3.4,1.88,7.218,7.218,0,0,0,1.61.18,7.408,7.408,0,0,0,3.212-.747.366.366,0,0,1,.162-.037.379.379,0,0,1,.14.027,6,6,0,0,0,2.186.434l.166,0,.576-.051.305-.041a5.718,5.718,0,0,0,1.968-.751.37.37,0,0,1,.194-.055h.025c.116.008.232.011.35.011.186,0,.378-.06.566-.08-.008.122-.033.24-.033.364a5.724,5.724,0,0,0,1.4,3.772A6.22,6.22,0,0,0,122,88.1a6.878,6.878,0,0,0,1.437-.154c.177-.041.353-.088.527-.143a.4.4,0,0,1,.112-.017.375.375,0,0,1,.189.051,5.959,5.959,0,0,0,2.941.815l.1,0,.555-.036.028,0A5.921,5.921,0,0,0,131.07,87.2a.375.375,0,0,1,.235-.09,5.437,5.437,0,0,0,3.865-1.721,6.43,6.43,0,0,0,1.707-4.325,5.529,5.529,0,0,0-1.43-3.774,5.7,5.7,0,0,0-4.043-1.813l-.249,0a5.822,5.822,0,0,0-2.058.388c-.088-.032-.182-.045-.272-.072l.011-.018a5.325,5.325,0,0,0,.45-2.2,5.955,5.955,0,0,0-4.02-5.531c-.1-.032-.2-.062-.3-.09a.377.377,0,0,1-.043-.709l44.148-18.852a3.226,3.226,0,0,0,1.775-4.036M129.017,78.781a3.1,3.1,0,0,1,.673.477,2.9,2.9,0,0,1,.527-.431,2.794,2.794,0,0,1,1.48-.434l.113,0a3.005,3.005,0,0,1,1.06.23,2.313,2.313,0,0,1,.8.56,2.448,2.448,0,0,1,.62,1.677,3.32,3.32,0,0,1-.889,2.218,2.129,2.129,0,0,1-.8.541,2.5,2.5,0,0,1-.907.167,2.547,2.547,0,0,1-1.258-.332,3.143,3.143,0,0,1-.532.856,2.9,2.9,0,0,1-1.851,1,2.7,2.7,0,0,1-.283.015,2.983,2.983,0,0,1-1.968-.778,3.079,3.079,0,0,1-.655-.825,5.074,5.074,0,0,1-.408.319,4.146,4.146,0,0,1-1.454.65,3.44,3.44,0,0,1-.75.082,3.353,3.353,0,0,1-1.268-.244,2.849,2.849,0,0,1-1.081-.761,2.631,2.631,0,0,1-.63-1.714,2.311,2.311,0,0,1,.6-1.6,2.39,2.39,0,0,1,1.128-.628,5.232,5.232,0,0,1,1.376-.165,8.256,8.256,0,0,1,1.694.183,7.884,7.884,0,0,1,1.065.3,1.672,1.672,0,0,1,.189-.742,1.7,1.7,0,0,1,.508-.576,2.422,2.422,0,0,1,1.419-.419,3.223,3.223,0,0,1,1.478.366M116.352,67.365c0,.062.011.124.011.187a3.889,3.889,0,0,1-.032.482,4.08,4.08,0,0,1,.821-.085,5.133,5.133,0,0,1,2.219.551,4.927,4.927,0,0,1,1.8,1.485,5.005,5.005,0,0,1,.654,1.166,3.29,3.29,0,0,1,.409-.22,3.689,3.689,0,0,1,1.466-.3,3.625,3.625,0,0,1,1.129.176A2.8,2.8,0,0,1,126.7,73.4a2.279,2.279,0,0,1-.188.915,2.159,2.159,0,0,1-.888.994,2.427,2.427,0,0,1-1.17.328,2.337,2.337,0,0,1,.041.416,2.129,2.129,0,0,1-.786,1.653,3.069,3.069,0,0,1-1.987.64h-.066a4.6,4.6,0,0,1-1.834-.442,7.868,7.868,0,0,1-1.051-.588c-.1.093-.208.187-.335.285a6.065,6.065,0,0,1-1.417.81,3.218,3.218,0,0,1-1.15.242,1.78,1.78,0,0,1-1.026-.3,1.686,1.686,0,0,1-.166-.138c-.045.07-.093.139-.143.205a2.775,2.775,0,0,1-1.73,1.078,2.677,2.677,0,0,1-.454.039,2.963,2.963,0,0,1-1.84-.667,3.019,3.019,0,0,1-.541-.565,4.493,4.493,0,0,1-3.365,1.554,3.987,3.987,0,0,1-3.115-1.492,6,6,0,0,1-.84-1.392,4.849,4.849,0,0,1-.76.429,4.155,4.155,0,0,1-1.7.38,3.507,3.507,0,0,1-1.852-.52,3.606,3.606,0,0,1-1.306-1.432L80.159,83.217a4.764,4.764,0,0,1,.855,1.095,4.975,4.975,0,0,1,.65,2.439c0,.034,0,.068,0,.1.123-.055.247-.108.374-.152a5.905,5.905,0,0,1,1.928-.3,8.139,8.139,0,0,1,2.47.4A5.577,5.577,0,0,1,89,88.572,5.651,5.651,0,0,1,90.1,90.74a9,9,0,0,1,2.333-.313,7.127,7.127,0,0,1,2.024.275,5.257,5.257,0,0,1,2.171,1.279,4.316,4.316,0,0,1,1.231,2.22,3.534,3.534,0,0,1,.065.679,3.859,3.859,0,0,1-.686,2.181,3.407,3.407,0,0,1-1,.96l.006.011a2.111,2.111,0,0,1,.237.982,2.148,2.148,0,0,1-.1.662,2.844,2.844,0,0,1-.621,1.034,4.868,4.868,0,0,1-.848.72,8.116,8.116,0,0,1-4.567,1.4,7.847,7.847,0,0,1-1.535-.15,8.1,8.1,0,0,1-4.043-2.141,3.923,3.923,0,0,1-.491,1.165,4.015,4.015,0,0,1-1.541,1.425,5.155,5.155,0,0,1-2.388.553,7.11,7.11,0,0,1-2.494-.475,14.39,14.39,0,0,1-3.376-1.972,5.679,5.679,0,0,1-1.465,1.954,5.122,5.122,0,0,1-2.994,1.222c-.12.008-.241.012-.361.012a5.854,5.854,0,0,1-4.715-2.477,7.307,7.307,0,0,1-5.4,2.446c-.1,0-.2,0-.295-.007a7.289,7.289,0,0,1-5.712-3.3,3.794,3.794,0,0,1-.745.078,3.6,3.6,0,0,1-2.159-.715,3.81,3.81,0,0,1-1.345-1.922,3.668,3.668,0,0,1-.168-1.107,4.017,4.017,0,0,1,.078-.768c-12.176,4.687-28.682,8.543-35.948-3.638-4.531-7.5-1.58-19.038,5.1-29.774,1.416-2.171,2.954-4.308,4.572-6.417-.164.012-.328.021-.493.021a5.155,5.155,0,0,1-2.388-.553A4.008,4.008,0,0,1,18.5,54.867,3.918,3.918,0,0,1,18,53.7a8.106,8.106,0,0,1-4.043,2.142,7.846,7.846,0,0,1-1.535.15,8.124,8.124,0,0,1-4.567-1.4,4.868,4.868,0,0,1-.848-.72,2.844,2.844,0,0,1-.621-1.034,2.148,2.148,0,0,1-.1-.662,2.113,2.113,0,0,1,.236-.983l.007-.01a3.4,3.4,0,0,1-1-.96,3.867,3.867,0,0,1-.687-2.181,3.553,3.553,0,0,1,.066-.68,4.317,4.317,0,0,1,1.231-2.219,5.257,5.257,0,0,1,2.171-1.279,7.127,7.127,0,0,1,2.024-.275,8.948,8.948,0,0,1,2.332.313,5.667,5.667,0,0,1,1.109-2.168,5.577,5.577,0,0,1,2.564-1.775,8.1,8.1,0,0,1,2.47-.4,5.9,5.9,0,0,1,1.928.3c.127.044.251.1.374.152,0-.033,0-.067,0-.1a4.984,4.984,0,0,1,.651-2.439,4.561,4.561,0,0,1,1.808-1.788,4.492,4.492,0,0,1,2.106-.509,5,5,0,0,1,2.208.517,4.927,4.927,0,0,1,.489.279,6.512,6.512,0,0,1,1.28-3.893A5.739,5.739,0,0,1,31.6,30.454a5.464,5.464,0,0,1,2.469-.608,4.8,4.8,0,0,1,3.481,1.487,4.632,4.632,0,0,1,1.176,2.06,5.526,5.526,0,0,1,.837-.064,6.289,6.289,0,0,1,2.159.4l4.8-13.459,10.681-.137-1.752,18.76L62.244,20.2l10.07.034L58.877,57.71a4.175,4.175,0,0,1,1.652-.349,3.916,3.916,0,0,1,.471.028c.066.009.13.023.195.035L74.5,20.294l9.817.045L69.029,63.033l-2.324-.02c.038.064.08.127.115.193a3.186,3.186,0,0,1,.352,1.45,2.813,2.813,0,0,1-.166.966,2.378,2.378,0,0,1-.539.863,2.2,2.2,0,0,1-1.563.628,2.162,2.162,0,0,1-.992-.233c-.023-.012-.044-.028-.066-.04a3.926,3.926,0,0,1-3.235,1.781,3.443,3.443,0,0,1-.622-.056,3.731,3.731,0,0,1-2.179-1.317c-.072-.087-.139-.177-.2-.27-.053.068-.109.134-.168.2a3.079,3.079,0,0,1-1.8.973,3.446,3.446,0,0,1-.5.036,4.068,4.068,0,0,1-1.956-.534,5.281,5.281,0,0,1-.907-.637,3.418,3.418,0,0,1-1.1,1.065,4.427,4.427,0,0,1-2.3.628,4.13,4.13,0,0,1-2.014-.5A3.182,3.182,0,0,1,45.453,66.6a3.07,3.07,0,0,1-.212-1.142,3.758,3.758,0,0,1,.426-1.714,3.467,3.467,0,0,1,1.176-1.323,1.615,1.615,0,0,1,.314-.151l.381-6.2c-.184.14-.373.274-.57.4a7.158,7.158,0,0,1-3.448,1.085c-.1,0-.2.006-.3.006s-.215-.005-.323-.01L41,62.823l-9.667.031,1.881-5.272c-.034,0-.067,0-.1,0-.12,0-.241,0-.361-.012a5.122,5.122,0,0,1-2.994-1.222,5.571,5.571,0,0,1-1.065-1.223c-1.94,6.678-2.2,14.549,4.269,19.527,4.375,3.419,11.981,3.831,21.4,1.2l46.321-12.746-13.1-.084.028-18.363L81.145,62.871l-9.908.078,15.308-42.56,6.528-.035a3.887,3.887,0,0,1,.98-2.569,3.94,3.94,0,0,1,2.906-1.233,4.032,4.032,0,0,1,1.105.154c-.012-.166-.02-.333-.02-.5a8.239,8.239,0,0,1,2.5-5.8,10.189,10.189,0,0,1,2.587-1.858,6.943,6.943,0,0,1,3.054-.748,5.945,5.945,0,0,1,.917.074,4.891,4.891,0,0,1,1.25-2.207A5.048,5.048,0,0,1,112.024,4.1a5.775,5.775,0,0,1,2.609.642,6.087,6.087,0,0,1,2.07,1.717,6.9,6.9,0,0,1,1.356,4.18v.009a4.969,4.969,0,0,1,.572-.335,5.3,5.3,0,0,1,2.332-.546,4.74,4.74,0,0,1,2.222.537,4.806,4.806,0,0,1,1.907,1.886,5.262,5.262,0,0,1,.687,2.576c0,.055,0,.109-.007.164.147-.068.3-.13.45-.183a6.232,6.232,0,0,1,2.037-.319,8.578,8.578,0,0,1,2.616.423,5.892,5.892,0,0,1,2.709,1.875,5.982,5.982,0,0,1,1.18,2.328,9.494,9.494,0,0,1,2.508-.342,7.54,7.54,0,0,1,2.141.291,5.542,5.542,0,0,1,2.292,1.35,4.545,4.545,0,0,1,1.3,2.342,3.663,3.663,0,0,1,.069.715,4.072,4.072,0,0,1-.723,2.3,3.569,3.569,0,0,1-1.088,1.03c.008.014.018.027.025.04a2.209,2.209,0,0,1,.247,1.027,2.243,2.243,0,0,1-.108.692,2.972,2.972,0,0,1-.652,1.086,5.1,5.1,0,0,1-.9.761,8.6,8.6,0,0,1-4.834,1.484,8.307,8.307,0,0,1-1.626-.159,8.579,8.579,0,0,1-4.327-2.313,4.1,4.1,0,0,1-.533,1.292,4.225,4.225,0,0,1-1.623,1.5,5.455,5.455,0,0,1-2.523.584,7.506,7.506,0,0,1-2.638-.5,15.376,15.376,0,0,1-3.62-2.119,6.018,6.018,0,0,1-1.506,2.052l-1.692,4.689,8.668.022-2.634,7.643-8.781-.1-3.5,10.218,10.5-.154-1.3,4.036L166.78,45.279Z" fill="#d0cfcd"/>
    <path id="패스_19498" data-name="패스 19498" d="M38.411,34.66a.591.591,0,0,1-.739-.514,3.34,3.34,0,0,0-.965-1.989,3.609,3.609,0,0,0-2.634-1.13,4.3,4.3,0,0,0-1.933.479,4.568,4.568,0,0,0-1.556,1.289,5.343,5.343,0,0,0-1.04,3.236A5.879,5.879,0,0,0,29.7,37.38a.591.591,0,0,1-1.063.467,3.33,3.33,0,0,0-1.285-1.1,3.833,3.833,0,0,0-1.685-.4,3.3,3.3,0,0,0-1.552.372,3.371,3.371,0,0,0-1.334,1.327,3.807,3.807,0,0,0-.5,1.856A3.232,3.232,0,0,0,22.5,41.1a.59.59,0,0,1-.982.618,2.85,2.85,0,0,0-1.175-.741,4.747,4.747,0,0,0-1.541-.237,6.956,6.956,0,0,0-2.1.341,4.5,4.5,0,0,0-3,3.652.591.591,0,0,1-.79.485,7.652,7.652,0,0,0-2.583-.449,5.972,5.972,0,0,0-1.686.226,4.064,4.064,0,0,0-1.679.988,3.138,3.138,0,0,0-.9,1.607,2.411,2.411,0,0,0-.043.451,2.693,2.693,0,0,0,.475,1.507,2.044,2.044,0,0,0,1.187.854A.59.59,0,0,1,7.8,51.51a.509.509,0,0,0-.228.233.937.937,0,0,0-.1.432.983.983,0,0,0,.045.3,1.685,1.685,0,0,0,.37.6,3.71,3.71,0,0,0,.644.542,6.942,6.942,0,0,0,3.9,1.195,6.721,6.721,0,0,0,1.305-.127,6.938,6.938,0,0,0,4.4-2.978.591.591,0,0,1,1.058.5,2.167,2.167,0,0,0-.1.665,2.592,2.592,0,0,0,.41,1.366,2.84,2.84,0,0,0,1.084,1.005,3.98,3.98,0,0,0,1.845.42A5.75,5.75,0,0,0,24,55.431C27.016,51.6,30.275,47.87,33.551,44.2A48.54,48.54,0,0,0,29.2,53.505a4.578,4.578,0,0,0,1.32,1.948,3.935,3.935,0,0,0,2.308.943c.093.006.187.009.28.009a4.357,4.357,0,0,0,.535-.036l7.681-21.532a5.125,5.125,0,0,0-1.762-.328,4.526,4.526,0,0,0-1.156.151" fill="#fff"/>
    <path id="패스_19499" data-name="패스 19499" d="M47.642,54.38l.715-11.636c-.039,0-.077-.005-.116-.005h-.006l-4.91,13.633.143,0a5.983,5.983,0,0,0,2.877-.908,6.148,6.148,0,0,0,1.3-1.08" fill="#fff"/>
    <path id="패스_19500" data-name="패스 19500" d="M121.721,77.162a1.9,1.9,0,0,0,1.233-.367.945.945,0,0,0,.36-.745,1.564,1.564,0,0,0-.508-1.063l0,0a.652.652,0,0,1-.069-.088.591.591,0,0,1-.084-.211v0a.6.6,0,0,1,0-.231v0a.587.587,0,0,1,.09-.209.566.566,0,0,1,.167-.161A.587.587,0,0,1,123.12,74h0a.6.6,0,0,1,.231,0h0a.578.578,0,0,1,.207.09.612.612,0,0,1,.087.073l0,0a1.02,1.02,0,0,0,.742.292,1.254,1.254,0,0,0,.627-.168.965.965,0,0,0,.406-.449,1.087,1.087,0,0,0,.09-.443,1.626,1.626,0,0,0-1.062-1.466,2.49,2.49,0,0,0-.761-.117,2.528,2.528,0,0,0-.994.2,1.7,1.7,0,0,0-.71.551.591.591,0,0,1-1.062-.247,3.817,3.817,0,0,0-2.071-2.753,3.964,3.964,0,0,0-1.708-.435,2.922,2.922,0,0,0-1.451.389.59.59,0,0,1-.805-.8,2.324,2.324,0,0,0,.264-.831L98.116,75.352a2.407,2.407,0,0,0,.836.9,2.319,2.319,0,0,0,1.234.345,2.964,2.964,0,0,0,1.218-.276,3.731,3.731,0,0,0,1.082-.746.591.591,0,0,1,.975.23,5.683,5.683,0,0,0,.938,1.8,2.807,2.807,0,0,0,2.2,1.063,3.294,3.294,0,0,0,1.73-.509,3.063,3.063,0,0,0,1.185-1.327.591.591,0,0,1,1.12.134,1.666,1.666,0,0,0,.611.974,1.788,1.788,0,0,0,1.1.406,1.489,1.489,0,0,0,.25-.021,1.594,1.594,0,0,0,.993-.628,1.969,1.969,0,0,0,.395-1.175c0-.031,0-.063,0-.1a.041.041,0,0,1,0-.011.545.545,0,0,1,.006-.107.237.237,0,0,1,.009-.036.5.5,0,0,1,.019-.076c.006-.016.014-.029.021-.044a.638.638,0,0,1,.028-.059.6.6,0,0,1,.153-.169.518.518,0,0,1,.059-.036c.013-.008.025-.017.039-.024s.051-.019.077-.028l.031-.011a.589.589,0,0,1,.236-.012l.032.008a.718.718,0,0,1,.08.02c.015.006.028.014.042.02a.534.534,0,0,1,.23.183.4.4,0,0,1,.035.056c.008.014.018.026.025.041a.574.574,0,0,1,.026.073c0,.012.01.023.013.036a.549.549,0,0,1,.015.1l0,.017a1.89,1.89,0,0,0,.184.812.485.485,0,0,0,.256.239.709.709,0,0,0,.264.043,2.271,2.271,0,0,0,.862-.22,4.9,4.9,0,0,0,.891-.517,3.444,3.444,0,0,0,.4-.329l.028-.03a.628.628,0,0,1,.039-.118.563.563,0,0,1,.058-.1.584.584,0,0,1,.077-.087.591.591,0,0,1,.647-.106.637.637,0,0,1,.08.046c.007.005.014.007.02.012a8.029,8.029,0,0,0,1.342.807,3.44,3.44,0,0,0,1.364.337Z" fill="#fff"/>
    <path id="패스_19501" data-name="패스 19501" d="M141.844,22.922a3.367,3.367,0,0,0-.97-1.729,4.362,4.362,0,0,0-1.8-1.06,6.377,6.377,0,0,0-1.8-.242,8.215,8.215,0,0,0-2.759.48.591.591,0,0,1-.79-.485,4.827,4.827,0,0,0-3.213-3.914,7.424,7.424,0,0,0-2.25-.365,5.076,5.076,0,0,0-1.651.254,3.061,3.061,0,0,0-1.265.8.591.591,0,0,1-.982-.619,3.473,3.473,0,0,0,.237-1.276,4.083,4.083,0,0,0-.534-1.993,3.619,3.619,0,0,0-1.433-1.426,3.56,3.56,0,0,0-1.668-.4,4.1,4.1,0,0,0-1.809.423,3.575,3.575,0,0,0-1.38,1.178.591.591,0,0,1-1.063-.468,6.293,6.293,0,0,0,.167-1.442,5.72,5.72,0,0,0-1.113-3.464A4.9,4.9,0,0,0,114.1,5.793a4.594,4.594,0,0,0-2.072-.514,3.95,3.95,0,0,0-.687.059,3.994,3.994,0,0,0-2.142,1.153,3.6,3.6,0,0,0-1.036,2.138.59.59,0,0,1-.739.514,4.816,4.816,0,0,0-1.238-.161,5.765,5.765,0,0,0-2.534.627,8.976,8.976,0,0,0-2.282,1.644,7.063,7.063,0,0,0-2.141,4.954,5.894,5.894,0,0,0,.156,1.355.59.59,0,0,1-.911.621,2.656,2.656,0,0,0-1.512-.451,2.772,2.772,0,0,0-2.034.849,2.712,2.712,0,0,0-.67,1.766l2.106-.011L93.373,28.2c.057.051.112.1.172.151a2.6,2.6,0,0,0,1.282.5l6.908-8.428,27.686.062-2.813,7.917-8.59-.045-.082.227a.578.578,0,0,1,.3.111,16.719,16.719,0,0,0,3.957,2.425,6.368,6.368,0,0,0,2.22.427,4.27,4.27,0,0,0,1.979-.452,3.04,3.04,0,0,0,1.168-1.082A2.8,2.8,0,0,0,128,28.546a2.389,2.389,0,0,0-.11-.718.59.59,0,0,1,1.057-.5,7.416,7.416,0,0,0,4.7,3.183,7.163,7.163,0,0,0,1.4.136,7.428,7.428,0,0,0,4.167-1.277,3.968,3.968,0,0,0,.691-.583,1.8,1.8,0,0,0,.4-.655,1.056,1.056,0,0,0,.051-.327,1.041,1.041,0,0,0-.111-.476.58.58,0,0,0-.26-.265.59.59,0,0,1,.115-1.108,2.209,2.209,0,0,0,1.283-.922,2.9,2.9,0,0,0,.512-1.625,2.526,2.526,0,0,0-.047-.486" fill="#fff"/>
    <path id="패스_19502" data-name="패스 19502" d="M105.3,31.542a6.393,6.393,0,0,0,2.313-2.063.588.588,0,0,1,.3-.224l2.859-7.972-.706.729-8.391,10.26c.12.013.239.023.359.028.086,0,.173.006.26.006a6.458,6.458,0,0,0,3.007-.764" fill="#fff"/>
    <path id="패스_19503" data-name="패스 19503" d="M95.8,92.822a4.078,4.078,0,0,0-1.678-.988,5.979,5.979,0,0,0-1.687-.226,7.7,7.7,0,0,0-2.582.449.59.59,0,0,1-.79-.485,4.5,4.5,0,0,0-3-3.651,6.968,6.968,0,0,0-2.106-.342,4.747,4.747,0,0,0-1.541.237,2.841,2.841,0,0,0-1.175.742.591.591,0,0,1-.982-.619,3.223,3.223,0,0,0,.22-1.187,3.79,3.79,0,0,0-.5-1.857,3.371,3.371,0,0,0-1.334-1.327A3.309,3.309,0,0,0,77.1,83.2a3.821,3.821,0,0,0-1.685.394,3.323,3.323,0,0,0-1.284,1.1.591.591,0,0,1-1.063-.468,5.919,5.919,0,0,0,.156-1.348,5.348,5.348,0,0,0-1.04-3.236,4.576,4.576,0,0,0-1.556-1.289,4.277,4.277,0,0,0-1.933-.479,3.793,3.793,0,0,0-.639.054,3.722,3.722,0,0,0-2,1.075,3.344,3.344,0,0,0-.964,1.99.591.591,0,0,1-.739.513,4.536,4.536,0,0,0-1.156-.15,5.376,5.376,0,0,0-2.368.587A8.4,8.4,0,0,0,58.7,83.474a6.608,6.608,0,0,0-2,4.634,5.468,5.468,0,0,0,.146,1.267.591.591,0,0,1-.912.621,2.458,2.458,0,0,0-1.4-.418,2.572,2.572,0,0,0-1.887.786,2.532,2.532,0,0,0-.624,1.7,2.506,2.506,0,0,0,.555,1.608.59.59,0,0,1-.282.945,2.742,2.742,0,0,0-1.425,1.07,3.062,3.062,0,0,0-.565,1.734,2.469,2.469,0,0,0,.114.751,2.628,2.628,0,0,0,.925,1.332,2.413,2.413,0,0,0,1.453.48,2.667,2.667,0,0,0,.841-.138.587.587,0,0,1,.7.276,6.1,6.1,0,0,0,4.965,3.086c.082,0,.163,0,.244,0a6.1,6.1,0,0,0,4.974-2.643.59.59,0,0,1,1.025.079,4.511,4.511,0,0,0,1.687,1.876,4.6,4.6,0,0,0,2.425.72c.093,0,.187,0,.28-.01a3.943,3.943,0,0,0,2.309-.942,4.625,4.625,0,0,0,1.4-2.166.589.589,0,0,1,.917-.3,15.73,15.73,0,0,0,3.712,2.276,5.954,5.954,0,0,0,2.076.4,3.987,3.987,0,0,0,1.845-.421,2.832,2.832,0,0,0,1.084-1,2.578,2.578,0,0,0,.41-1.366,2.19,2.19,0,0,0-.1-.664.591.591,0,0,1,1.058-.5,6.935,6.935,0,0,0,4.4,2.977,6.63,6.63,0,0,0,1.305.128,6.949,6.949,0,0,0,3.9-1.195,3.714,3.714,0,0,0,.644-.543,1.655,1.655,0,0,0,.37-.6.98.98,0,0,0-.054-.728.51.51,0,0,0-.229-.233.591.591,0,0,1,.115-1.109,2.043,2.043,0,0,0,1.186-.853,2.691,2.691,0,0,0,.475-1.508,2.312,2.312,0,0,0-.043-.45,3.126,3.126,0,0,0-.9-1.608" fill="#fff"/>
    <path id="패스_19504" data-name="패스 19504" d="M51.531,65.841a.591.591,0,0,1,1.017-.226,4.446,4.446,0,0,0,1.213,1A2.9,2.9,0,0,0,55.148,67a2.234,2.234,0,0,0,.326-.024,1.909,1.909,0,0,0,1.1-.6,1.751,1.751,0,0,0,.432-.79,3.574,3.574,0,0,1-.078-.719c0-.059,0-.119.005-.178a.59.59,0,0,1,1.143-.175,2.275,2.275,0,0,1,.143.8c0,.074-.006.146-.012.218a2.744,2.744,0,0,0,.517.97A2.56,2.56,0,0,0,60.2,67.4a2.219,2.219,0,0,0,.408.037,2.694,2.694,0,0,0,1.532-.5,2.518,2.518,0,0,0,.961-1.267.59.59,0,0,1,1.086-.092.587.587,0,0,0,.263.253.993.993,0,0,0,.451.1,1.029,1.029,0,0,0,.721-.275,1.217,1.217,0,0,0,.271-.439,1.621,1.621,0,0,0,.094-.562,2,2,0,0,0-.22-.908,3.474,3.474,0,0,0-.809-.972,5.7,5.7,0,0,0-1.125-.762.592.592,0,0,1-.323-.512,3.157,3.157,0,0,0-2.658-2.941,2.73,2.73,0,0,0-.326-.02,3.14,3.14,0,0,0-1.85.638,3.011,3.011,0,0,0-1.12,1.585.59.59,0,0,1-.949.295,3.669,3.669,0,0,0-2.345-.831,3.519,3.519,0,0,0-1.366.27,3.686,3.686,0,0,0-2.188,3.049c0,.012,0,.022-.006.033a.739.739,0,0,1-.014.082.587.587,0,0,1-.1.2h0a.636.636,0,0,1-.08.084.592.592,0,0,1-.313.139.561.561,0,0,1-.116,0,.554.554,0,0,1-.115-.02.585.585,0,0,1-.289-.183.525.525,0,0,1-.067-.1v0a.581.581,0,0,1-.074-.326v-.033c0-.057-.009-.058-.014-.068a.219.219,0,0,0-.088-.065,1.682,1.682,0,0,0-.7-.118,3.852,3.852,0,0,0-1.1.166.929.929,0,0,0-.151.061h0a2.284,2.284,0,0,0-.767.873,2.585,2.585,0,0,0-.294,1.172,1.908,1.908,0,0,0,.127.705,2,2,0,0,0,.9,1.013,2.958,2.958,0,0,0,1.436.351,3.255,3.255,0,0,0,1.678-.453,2.1,2.1,0,0,0,.965-1.231" fill="#fff"/>
    <path id="패스_19505" data-name="패스 19505" d="M132.4,79.71a1.836,1.836,0,0,0-.646-.135H131.7a1.655,1.655,0,0,0-1.448.909.591.591,0,0,1-1.044.042,1.81,1.81,0,0,0-.736-.7,2.037,2.037,0,0,0-.93-.232,1.436,1.436,0,0,0-.6.118.6.6,0,0,0-.289.251.479.479,0,0,0-.054.238,1.12,1.12,0,0,0,.088.4,2.7,2.7,0,0,0,.347.6l.011.018a.606.606,0,0,1,.048.082.579.579,0,0,1,.054.222h0a.574.574,0,0,1-.035.228.593.593,0,0,1-.119.2.577.577,0,0,1-.086.078.6.6,0,0,1-.439.108h0a.54.54,0,0,1-.112-.028h0a.607.607,0,0,1-.2-.118.564.564,0,0,1-.065-.073l-.012-.014a1.182,1.182,0,0,0-.247-.231,2.788,2.788,0,0,0-.446-.258A5.856,5.856,0,0,0,124.114,81l.122-.577-.122.577a7.186,7.186,0,0,0-1.45-.157,4.116,4.116,0,0,0-1.062.123,1.248,1.248,0,0,0-.581.3,1.137,1.137,0,0,0-.284.787,1.453,1.453,0,0,0,.339.938,1.667,1.667,0,0,0,.637.444,2.186,2.186,0,0,0,.822.156,2.259,2.259,0,0,0,.494-.054,2.973,2.973,0,0,0,1.039-.468,4.276,4.276,0,0,0,.882-.831.59.59,0,0,1,1.048.317,1.733,1.733,0,0,0,.591,1.111,1.816,1.816,0,0,0,1.181.478,1.361,1.361,0,0,0,.156-.009,1.721,1.721,0,0,0,1.089-.6,1.819,1.819,0,0,0,.466-1.173,1.59,1.59,0,0,0-.011-.183.59.59,0,0,1,1.156-.226.777.777,0,0,0,.36.462,1.354,1.354,0,0,0,.708.192,1.3,1.3,0,0,0,.477-.086.951.951,0,0,0,.358-.239,2.154,2.154,0,0,0,.579-1.42,1.371,1.371,0,0,0-.177-.7,1.1,1.1,0,0,0-.527-.452" fill="#fff"/>
  </g>
</svg>
