<svg xmlns="http://www.w3.org/2000/svg" xmlns:xlink="http://www.w3.org/1999/xlink" width="133.921" height="70.968" viewBox="0 0 133.921 70.968">
  <defs>
    <clipPath id="clip-path">
      <path id="패스_20328" data-name="패스 20328" d="M369.612,41.6,357.043,75.692h8.23L377.838,41.6Zm-10.075,0-5.574,14.97,1.31-14.97h-8.891L333.873,75.691h8.141L348.053,59.3l-.977,16.393h8.142L367.781,41.6Zm28.245,14.911L399.295,42.8l.591-.524-11.5,31.282ZM392.349,41.6,384,51.484l3.836-9.886h-8.2L367.117,75.691h8.2l5.3-14.589.114,14.589H391.7L353.139,86.076c-7.868,2.114-14.206,1.8-17.81-.831-9.252-6.754-2.232-20.366.317-24.416-4.537,4.961-9.049,9.931-12.565,15.353-5.518,8.5-7.883,17.792-4.15,23.772,6.714,10.764,22.824,5.832,33.057,1.475l94.528-40.195L405.924,71.866l1.095-3-8.8,0,3.01-8.12h7.164l2.177-6.031h-7.1l2.464-6.784h7.16L415.4,41.6Z" transform="translate(-317.122 -41.598)" fill="none"/>
    </clipPath>
    <clipPath id="clip-path-2">
      <path id="패스_20404" data-name="패스 20404" d="M377.68,41.6,365.112,75.692h8.23L385.906,41.6Zm-10.075,0-5.574,14.97,1.31-14.97H354.45L341.941,75.691h8.141L356.121,59.3l-.977,16.393h8.142L375.849,41.6ZM395.85,56.509,407.363,42.8l.591-.524-11.5,31.282ZM400.417,41.6l-8.345,9.886,3.836-9.886h-8.2L375.185,75.691h8.2l5.3-14.589.114,14.589h23.771l2.512-6.829-8.8,0,3.01-8.12h7.164l2.177-6.031h-7.1l2.464-6.784h7.16l2.32-6.334Z" transform="translate(-341.941 -41.598)" fill="none"/>
    </clipPath>
  </defs>
  <g id="NEM_8" transform="translate(0 0)">
    <line id="선_802" data-name="선 802" x2="0.001" transform="translate(85.02 2.947)" fill="#f6f6f6"/>
    <path id="패스_20322" data-name="패스 20322" d="M439.749,43.909h0Z" transform="translate(-354.729 -40.082)" fill="#f6f6f6"/>
    <path id="패스_20323" data-name="패스 20323" d="M414.319,38.238H391.262a2.263,2.263,0,0,0-1.733.805l-.624.74a2.271,2.271,0,0,0-2.148-1.545h-8.2a2.253,2.253,0,0,0-.9.19,2.228,2.228,0,0,0-.9-.19h-8.229a2.255,2.255,0,0,1-1.83,0h-8.245a2.278,2.278,0,0,0-2.125,1.477l-.006.017a2.271,2.271,0,0,0-2.131-1.494h-8.893a2.277,2.277,0,0,0-2.129,1.487l-6.827,18.607a2.267,2.267,0,0,0-1.751-.864h-.079a2.276,2.276,0,0,0-1.021.269h0a2.281,2.281,0,0,0-.585.452l-.008.009-.007.008c-4.263,4.661-9.095,9.945-12.792,15.648-6.554,10.094-8.114,19.891-4.171,26.206,3.124,5.007,8.223,7.546,15.159,7.546,5.661,0,12.628-1.745,20.71-5.185l94.487-40.177a2.268,2.268,0,0,0-.645-4.364c-.065-.005-.133-.009-.2-.009a2.257,2.257,0,0,0-.271.016,2.217,2.217,0,0,0-.343.068l-36.626,9.593a2.27,2.27,0,0,0-2.256-2.048l-5.547,0,1.328-3.582H407.3a2.273,2.273,0,0,0,2.133-1.5l2.177-6.032a2.269,2.269,0,0,0-2.133-3.038h-3.868l.817-2.247H412a2.276,2.276,0,0,0,2.13-1.488l2.295-6.263a2.27,2.27,0,0,0-2.1-3.119m-38.527,38a2.251,2.251,0,0,0,.569-.867l1-2.761.016,2a2.25,2.25,0,0,0,.305,1.115Zm-43.006.626h8.142a2.276,2.276,0,0,0,2.128-1.484l.733-1.99-.064,1.071a2.268,2.268,0,0,0,2.264,2.4h8.142a2.248,2.248,0,0,0,.91-.192,2.275,2.275,0,0,0,.917.193h8.23a2.264,2.264,0,0,1,1.843,0h7.44l-22.007,5.926a34.45,34.45,0,0,1-8.806,1.313c-3.032,0-5.479-.618-7.077-1.784a8.66,8.66,0,0,1-3.508-5.57,2.279,2.279,0,0,0,.713.115m56.206-20.659,3.321-3.954-3.157,8.588Z" transform="translate(-313.778 -38.238)" fill="#fff"/>
    <path id="패스_20324" data-name="패스 20324" d="M443.171,119.353a2.935,2.935,0,0,0-.362-2.629,2.841,2.841,0,0,0-2.424-1.06H430.33a4.245,4.245,0,0,0-3.873,2.435l.416-1.551a.882.882,0,0,0-.851-1.109H421.8a.881.881,0,0,0-.851.653l-1.334,4.98h-1.86a.882.882,0,0,0-.654.29q.066-.259.138-.528l1.076-4.017a.881.881,0,0,0-.851-1.11h-3.973a.881.881,0,0,0-.851.653l-1.077,4.017a20.416,20.416,0,0,1-2.368,5.877,5.311,5.311,0,0,1-2.651,2.287.881.881,0,0,0-.609.956l.445,3.366a.881.881,0,0,0,.873.766.828.828,0,0,0,.147-.013,7.108,7.108,0,0,0,2.646-1.13,11.373,11.373,0,0,0,1.683-1.366,5.364,5.364,0,0,0,.9,1.245,4.184,4.184,0,0,0,2.258,1.249.9.9,0,0,0,.158.014.882.882,0,0,0,.733-.392l.969-1.451-.377,1.407a.882.882,0,0,0,.851,1.109h4.22a.881.881,0,0,0,.851-.653l.025-.094a.871.871,0,0,0,.867.746h15.531a.882.882,0,0,0,.851-.653l.584-2.183a.886.886,0,0,0-.049-.655l0-.011,1.348-5.034c.007-.022.013-.045.019-.068a.882.882,0,0,0,.615-.621l.655-2.447a.881.881,0,0,0-.851-1.109h-.041a4.321,4.321,0,0,0,1.321-2.168" transform="translate(-343.735 -63.334)" fill="#fff"/>
    <path id="패스_20325" data-name="패스 20325" d="M354.45,41.6,341.941,75.691h8.142L356.121,59.3l-.978,16.393h8.142L375.85,41.6H367.6l-5.574,14.97L363.34,41.6Z" transform="translate(-322.933 -39.33)" fill="#f3a58f"/>
    <path id="패스_20326" data-name="패스 20326" d="M384.5,75.692,397.066,41.6H388.84L376.272,75.692Z" transform="translate(-334.094 -39.331)" fill="#f3a58f"/>
    <path id="패스_20327" data-name="패스 20327" d="M398.214,68.867l8.806,0-1.1,3,40.593-10.631-94.529,40.194c-10.233,4.357-26.343,9.289-33.056-1.475-3.734-5.98-1.369-15.272,4.15-23.771,3.515-5.423,8.027-10.392,12.564-15.354-2.549,4.051-9.569,17.663-.317,24.417,3.6,2.634,9.942,2.944,17.81.83L391.7,75.691H380.737l-.115-14.59-5.3,14.59h-8.2L379.64,41.6h8.2L384,51.485l8.345-9.887H415.4l-2.32,6.334h-7.16l-2.465,6.784h7.1l-2.176,6.031h-7.164ZM387.782,56.509l.6,17.05,11.5-31.282-.59.524Z" transform="translate(-314.865 -39.33)" fill="#f3a58f"/>
    <g id="그룹_11126" data-name="그룹 11126" transform="translate(2.257 2.268)">
      <g id="그룹_11125" data-name="그룹 11125" transform="translate(0 0)" clip-path="url(#clip-path)">
        <rect id="사각형_5800" data-name="사각형 5800" width="145.916" height="20.896" transform="translate(-37.121 43.938)" fill="#0f1214"/>
        <rect id="사각형_5801" data-name="사각형 5801" width="125.287" height="14.236" transform="translate(-26.806 47.269)" fill="#97001e"/>
        <rect id="사각형_5802" data-name="사각형 5802" width="104.658" height="7.576" transform="translate(-16.492 50.599)" fill="#f5b2a0"/>
        <rect id="사각형_5803" data-name="사각형 5803" width="84.03" height="0.917" transform="translate(-6.177 53.928)" fill="#feeee9"/>
        <rect id="사각형_5804" data-name="사각형 5804" width="175.244" height="25.367" transform="translate(-37.121 18.657)" fill="#0f1214"/>
        <rect id="사각형_5805" data-name="사각형 5805" width="150.47" height="14.236" transform="translate(-24.733 26.457)" fill="#97001e"/>
        <rect id="사각형_5806" data-name="사각형 5806" width="125.694" height="7.576" transform="translate(-12.345 29.787)" fill="#f5b2a0"/>
        <rect id="사각형_5807" data-name="사각형 5807" width="100.919" height="0.917" transform="translate(0.043 33.117)" fill="#feeee9"/>
      </g>
    </g>
    <g id="그룹_11128" data-name="그룹 11128" transform="translate(19.008 2.268)">
      <g id="그룹_11127" data-name="그룹 11127" transform="translate(0 0)" clip-path="url(#clip-path-2)">
        <path id="패스_20329" data-name="패스 20329" d="M350.219,74.482a20.281,20.281,0,0,1-4.259-2.255,20.373,20.373,0,0,1-4.685-1.159,19.9,19.9,0,0,1-11.484-25.661,20.3,20.3,0,0,1,2.222-4.211,20.247,20.247,0,0,1,1.147-4.616,19.886,19.886,0,0,1,29.467-9.541c.246.083.489.17.726.261q.168.065.335.132a19.885,19.885,0,0,1,13.755,30.335c-.065.188-.134.376-.2.561-.094.248-.2.5-.3.744a19.89,19.89,0,0,1-26.717,15.411" transform="translate(-337.566 -35.808)" fill="#171212"/>
        <path id="패스_20330" data-name="패스 20330" d="M351.86,73.6a18.278,18.278,0,0,1-4.236-2.315,18.326,18.326,0,0,1-4.709-1.1,17.943,17.943,0,0,1-10.353-23.135,18.256,18.256,0,0,1,2.281-4.189,18.261,18.261,0,0,1,1.088-4.639,17.927,17.927,0,0,1,26.774-8.463c.3.1.6.2.892.314q.257.1.512.2a17.926,17.926,0,0,1,12.5,27.575c-.08.244-.167.485-.257.721-.113.3-.237.6-.368.892A17.935,17.935,0,0,1,351.86,73.6" transform="translate(-338.509 -36.751)" fill="#c6900d"/>
        <path id="패스_20331" data-name="패스 20331" d="M353.5,72.71a16.233,16.233,0,0,1-4.089-2.3l-.252-.1a16.306,16.306,0,0,1-4.6-1.013,15.983,15.983,0,0,1-9.223-20.609,16.209,16.209,0,0,1,2.356-4.16A16.218,16.218,0,0,1,338.7,39.86a15.97,15.97,0,0,1,24.079-7.382c.359.109.715.231,1.061.363.23.088.46.182.687.281a15.972,15.972,0,0,1,11.246,24.811c-.095.3-.2.595-.308.883-.133.348-.28.7-.439,1.039A15.977,15.977,0,0,1,353.5,72.71" transform="translate(-339.452 -37.693)" fill="#4eb2a2"/>
        <path id="패스_20332" data-name="패스 20332" d="M359.058,73.885a16.127,16.127,0,0,1-5.762-1.066,16.529,16.529,0,0,1-4.124-2.314l-.185-.074a16.578,16.578,0,0,1-4.635-1.026,16.228,16.228,0,0,1-9.364-20.924,16.515,16.515,0,0,1,2.346-4.164,16.5,16.5,0,0,1,1.023-4.664,16.218,16.218,0,0,1,24.416-7.519c.354.109.7.229,1.039.358.223.085.446.175.666.271a16.214,16.214,0,0,1,11.4,25.156c-.091.288-.192.578-.3.863-.13.34-.275.684-.43,1.02a16.226,16.226,0,0,1-16.091,14.081m-5.549-44.177a15.78,15.78,0,0,0-14.695,10.12,16.027,16.027,0,0,0-1,4.6l0,.075-.047.059a16.027,16.027,0,0,0-2.32,4.1,15.738,15.738,0,0,0,9.082,20.293,16.07,16.07,0,0,0,4.533,1l.075.018.309.133a16.024,16.024,0,0,0,4.027,2.266,15.735,15.735,0,0,0,21.2-12.659l.02-.072c.157-.337.3-.682.432-1.023.109-.283.211-.574.3-.869l.031-.064a15.726,15.726,0,0,0-11.073-24.43l-.068-.019c-.223-.1-.45-.19-.676-.277-.337-.129-.688-.249-1.045-.358l-.07-.034a15.794,15.794,0,0,0-9.015-2.85" transform="translate(-339.334 -37.573)" fill="#1a1311"/>
        <path id="패스_20333" data-name="패스 20333" d="M355.141,71.825a14.208,14.208,0,0,1-3.813-2.2l-.2-.074q-.293-.111-.58-.236a14.231,14.231,0,0,1-4.355-.907A14.024,14.024,0,0,1,338.1,50.329a14.207,14.207,0,0,1,2.454-4.122,14.2,14.2,0,0,1,.915-4.706,14.014,14.014,0,0,1,21.381-6.3c.418.117.831.253,1.233.407.29.111.579.232.862.362a14.013,14.013,0,0,1,9.985,22.037c-.1.355-.223.707-.353,1.049-.153.4-.326.8-.516,1.184a14.018,14.018,0,0,1-18.925,11.58" transform="translate(-340.394 -38.636)" fill="#1f2b1d"/>
        <path id="패스_20334" data-name="패스 20334" d="M356.782,70.939a12.172,12.172,0,0,1-3.533-2.1c-.161-.053-.319-.111-.477-.171-.279-.106-.555-.223-.826-.351a12.052,12.052,0,0,1-8.661-20.233c.04-.113.081-.227.123-.339l.047-.119A12.045,12.045,0,0,1,359.8,36.18a11.971,11.971,0,0,1,3.122,1.761,12.3,12.3,0,0,1,1.409.442c.351.134.7.285,1.035.452a12.055,12.055,0,0,1,8.721,19.252,12.074,12.074,0,0,1-.992,2.546,12.064,12.064,0,0,1-16.314,10.307" transform="translate(-341.337 -39.579)" fill="#e75937"/>
        <path id="패스_20335" data-name="패스 20335" d="M360.945,71.858a12.24,12.24,0,0,1-4.371-.809,12.472,12.472,0,0,1-3.568-2.111c-.148-.05-.3-.1-.441-.159-.269-.1-.537-.216-.8-.336a12.5,12.5,0,0,1-4.14-.808,12.311,12.311,0,0,1-7.1-15.872,12.483,12.483,0,0,1,2.425-3.925q.054-.15.11-.3l.029-.076a12.461,12.461,0,0,1,.805-4.529A12.3,12.3,0,0,1,362.913,37.6a12.62,12.62,0,0,1,1.386.439c.343.131.684.279,1.014.44a12.3,12.3,0,0,1,8.879,19.6,12.26,12.26,0,0,1-.388,1.2,12.463,12.463,0,0,1-.589,1.309,12.313,12.313,0,0,1-12.271,11.275m-4.2-1.266a11.817,11.817,0,0,0,15.983-10.1l.028-.094a12.064,12.064,0,0,0,.588-1.3,12.212,12.212,0,0,0,.385-1.194l.04-.084a11.813,11.813,0,0,0-8.544-18.861l-.09-.024c-.329-.163-.67-.311-1.014-.443a12.222,12.222,0,0,0-1.381-.433l-.092-.045a11.811,11.811,0,0,0-18.3,5.095,11.951,11.951,0,0,0-.773,4.394v.048l-.063.162c-.042.111-.082.221-.122.333l-.051.084a11.985,11.985,0,0,0-2.362,3.806,11.82,11.82,0,0,0,6.821,15.24,12.011,12.011,0,0,0,4.027.776h.052l.048.022c.263.124.535.239.809.344.154.059.31.115.466.167l.081.046a12.011,12.011,0,0,0,3.462,2.057" transform="translate(-341.217 -39.461)" fill="#fff"/>
        <path id="패스_20336" data-name="패스 20336" d="M358.832,69.831a9.64,9.64,0,0,1-3.173-1.994c-.283-.079-.563-.171-.836-.276a9.546,9.546,0,0,1-1.13-.517,9.607,9.607,0,0,1-7.072-16.49c.074-.256.159-.51.253-.758q.105-.274.227-.542a9.6,9.6,0,0,1,13.006-9.612A9.521,9.521,0,0,1,363,41.38a9.706,9.706,0,0,1,2.887,1.047,9.608,9.608,0,0,1,7.128,15.744,9.68,9.68,0,0,1-1.151,2.941,9.614,9.614,0,0,1-13.03,8.719" transform="translate(-342.515 -40.757)" fill="#8e0c25"/>
        <path id="패스_20337" data-name="패스 20337" d="M360.883,68.724a7.126,7.126,0,0,1-2.791-1.925,7.212,7.212,0,0,1-2.644-1.08A7.163,7.163,0,0,1,347.8,56.07,7.188,7.188,0,0,1,350,53.051a7.143,7.143,0,0,1,.792-2.161,7.157,7.157,0,0,1,12.265-6.022,7.193,7.193,0,0,1,3.34,1.193A7.161,7.161,0,0,1,371.9,58.239a7.211,7.211,0,0,1-1.317,3.34,7.164,7.164,0,0,1-9.7,7.145" transform="translate(-343.694 -41.936)" fill="#278576"/>
        <path id="패스_20338" data-name="패스 20338" d="M363.313,69.324a7.419,7.419,0,0,1-5.467-2.418,7.375,7.375,0,0,1-1.178-.341,7.462,7.462,0,0,1-1.4-.709,7.41,7.41,0,0,1-7.815-9.991,7.421,7.421,0,0,1,2.2-3.065,7.392,7.392,0,0,1,.761-2.074,7.4,7.4,0,0,1,9.967-7.965,7.332,7.332,0,0,1,2.666,1.755,7.452,7.452,0,0,1,3.294,1.18,7.405,7.405,0,0,1,5.672,12.539,7.461,7.461,0,0,1-1.3,3.3,7.423,7.423,0,0,1-7.4,7.791m-7.925-3.977.077.051a6.9,6.9,0,0,0,1.377.71,6.977,6.977,0,0,0,1.176.333l.082.016.055.062a6.918,6.918,0,0,0,12.063-5.042l-.006-.088.052-.072a6.954,6.954,0,0,0,1.272-3.225l.01-.082.059-.059a6.916,6.916,0,0,0-5.32-11.762l-.082,0-.068-.047a6.963,6.963,0,0,0-3.225-1.152l-.092-.009-.063-.067a6.841,6.841,0,0,0-2.549-1.7,6.911,6.911,0,0,0-9.3,7.517l.013.083-.042.074a6.921,6.921,0,0,0-.765,2.088l-.017.088-.069.057a6.918,6.918,0,0,0,1.877,11.841,6.818,6.818,0,0,0,3.389.395Z" transform="translate(-343.575 -41.818)" fill="#1a1311"/>
        <path id="패스_20339" data-name="패스 20339" d="M362.524,67.839a5.223,5.223,0,0,1-2.447-1.936,5.214,5.214,0,0,1-3.2-1.338,5.2,5.2,0,0,1-4.1-9.469,5.19,5.19,0,0,1,1.042-2.883,5.2,5.2,0,0,1,9.242-4.466,5.216,5.216,0,0,1,3.719,1.3,5.2,5.2,0,0,1,4.161,9.22,5.2,5.2,0,0,1-1.463,3.664,5.2,5.2,0,0,1-6.95,5.914" transform="translate(-344.636 -42.878)" fill="#1d2a1d"/>
        <path id="패스_20340" data-name="패스 20340" d="M363,52.775a3.733,3.733,0,1,1-2.156-4.819A3.733,3.733,0,0,1,363,52.775m6.788-1.405a3.733,3.733,0,1,0,2.156,4.82,3.734,3.734,0,0,0-2.156-4.82m-12.315,5.414a3.734,3.734,0,1,0,2.157,4.82,3.733,3.733,0,0,0-2.157-4.82m8.945,3.414a3.733,3.733,0,1,0,2.156,4.819,3.733,3.733,0,0,0-2.156-4.819m1.1-5.241a3.716,3.716,0,1,0-4.8,2.147,3.716,3.716,0,0,0,4.8-2.147m-2.977,7.8a3.716,3.716,0,1,0-4.8,2.147,3.716,3.716,0,0,0,4.8-2.147m-4.558-10.186a3.716,3.716,0,1,0,2.147,4.8,3.717,3.717,0,0,0-2.147-4.8m7.8,2.977a3.716,3.716,0,1,0,2.147,4.8,3.716,3.716,0,0,0-2.147-4.8" transform="translate(-345.343 -43.585)" fill="#3e9f87"/>
        <path id="패스_20341" data-name="패스 20341" d="M364.962,67.546a3.975,3.975,0,0,1-3.6-2.293,3.964,3.964,0,0,1-3.568-1.541,3.976,3.976,0,1,1-3.187-7.275,3.97,3.97,0,0,1,1.2-3.381c-.017-.034-.034-.07-.049-.105A3.977,3.977,0,0,1,363,49.662,3.961,3.961,0,0,1,366.989,51a3.977,3.977,0,0,1,3.254,7.232,3.952,3.952,0,0,1-1.578,3.876,3.976,3.976,0,0,1-3.7,5.438m-3.094-2.38a3.488,3.488,0,0,0,6.377-2.793,3.953,3.953,0,0,1-3.317.229c-.068-.026-.136-.054-.2-.084q-.033.1-.073.207a3.96,3.96,0,0,1-2.785,2.441m-3.641-1.7a3.469,3.469,0,0,0,2.953,1.315,3.969,3.969,0,0,1,1.471-4.442,3.956,3.956,0,0,1-.2-2.157c-.083-.039-.168-.076-.256-.109s-.174-.062-.262-.088a3.937,3.937,0,0,1-1.769,1.56c-.064.028-.128.055-.193.08a3.98,3.98,0,0,1-1.739,3.842m4.633-2.675a3.482,3.482,0,0,0-1.188,3.92,3.471,3.471,0,0,0,2.524-2.157q.05-.131.089-.263a3.954,3.954,0,0,1-1.425-1.5m-8.153-3.865a3.487,3.487,0,1,0,2.818,6.377,3.973,3.973,0,0,1-.273-3.4c.026-.069.054-.136.084-.2-.07-.023-.138-.047-.207-.073a3.935,3.935,0,0,1-2.2-2.083,4.019,4.019,0,0,1-.219-.619m3.111,2.9c-.039.084-.076.169-.109.255a3.464,3.464,0,0,0,.244,2.983,3.491,3.491,0,0,0,1.539-3.288,3.893,3.893,0,0,1-1.674.049m7.031,2.216c.083.04.168.076.255.109a3.469,3.469,0,0,0,2.943-.221,3.488,3.488,0,0,0-3.326-1.837,3.916,3.916,0,0,1,.128,1.948m-1.578-1.515a3.439,3.439,0,0,0,1.124,1.257,3.439,3.439,0,0,0-.167-1.619,3.53,3.53,0,0,0-.957.362m1.7-.931a3.971,3.971,0,0,1,3.482,2.066,3.468,3.468,0,0,0,1.328-3.21,3.976,3.976,0,0,1-4.532-1.2,3.906,3.906,0,0,1-2.044.161q-.06.126-.109.255c-.033.087-.063.175-.088.263a3.931,3.931,0,0,1,1.522,1.688,3.994,3.994,0,0,1,.441-.024M362.9,58.438a3.432,3.432,0,0,0,.173,1.635,4,4,0,0,1,.956-.369,3.444,3.444,0,0,0-1.129-1.266m-4.824.929a3.441,3.441,0,0,0,1.328-.078,3.561,3.561,0,0,0-.2-.56c-.049-.109-.1-.215-.161-.318a3.442,3.442,0,0,0-.97.956m-2.9-2.6a3.5,3.5,0,0,0,.2.572,3.445,3.445,0,0,0,1.931,1.825c.086.033.174.063.263.089a3.918,3.918,0,0,1,1.207-1.253,3.489,3.489,0,0,0-3.6-1.233m4.3,1.4c.065.115.126.234.181.356a4.005,4.005,0,0,1,.215.6l.091-.039a3.451,3.451,0,0,0,1.458-1.222,3.452,3.452,0,0,0-1.883.273l-.061.028m6.245-1.125a3.5,3.5,0,0,0,3.963.912,3.466,3.466,0,0,0-2.1-2.3c-.087-.034-.175-.063-.263-.089a3.924,3.924,0,0,1-1.6,1.478m-9.691-.872a3.957,3.957,0,0,1,1.414.262h0a3.95,3.95,0,0,1,1.76,1.323c.044-.022.088-.043.133-.063a3.935,3.935,0,0,1,2.341-.28c.039-.083.076-.168.109-.254s.063-.174.089-.263a3.928,3.928,0,0,1-1.533-1.71,3.983,3.983,0,0,1-4.282-1.692,3.476,3.476,0,0,0-.972,2.791,3.948,3.948,0,0,1,.94-.113m11.727-.975a3.956,3.956,0,0,1,2.372,2.535,3.488,3.488,0,0,0-2.838-6.322,3.96,3.96,0,0,1,.344,3.512c-.026.069-.054.136-.084.2.069.022.138.047.207.072m-5.6,2.339c.07.022.138.047.207.072s.136.055.2.084c.022-.069.046-.138.072-.207s.054-.136.084-.2c-.069-.023-.138-.047-.207-.073s-.136-.054-.2-.084q-.033.1-.073.207c-.026.069-.054.136-.084.2m1.307-.585a3.424,3.424,0,0,0,1.49-.124,3.973,3.973,0,0,1-.412-.9,3.444,3.444,0,0,0-1.079,1.024m-1.029-.307c.084.04.169.076.256.109s.174.063.263.089a3.922,3.922,0,0,1,1.467-1.409,3.972,3.972,0,0,1,2.1-4.234,3.472,3.472,0,0,0-3.339-1.081,3.98,3.98,0,0,1-1.064,4.1,3.955,3.955,0,0,1,.319,2.422m2.548-.942a3.491,3.491,0,0,0,.169.458,3.547,3.547,0,0,0,.265.486,3.445,3.445,0,0,0,1.389-1.191,3.431,3.431,0,0,0-1.822.246m-4.172-.665a3.433,3.433,0,0,0,1.171,1.348,3.446,3.446,0,0,0-.255-1.842,4.033,4.033,0,0,1-.711.409c-.068.03-.136.059-.205.085m6.012-3.443a3.489,3.489,0,0,0-1.944,3.622,3.933,3.933,0,0,1,2.185-.214c.039-.083.076-.168.109-.254a3.468,3.468,0,0,0-.349-3.153M356.43,53.169a3.483,3.483,0,0,0,3.728,1.56,3.931,3.931,0,0,1-.125-1.938c-.083-.04-.168-.076-.255-.109h0a3.475,3.475,0,0,0-3.348.488m4.057-.121a3.435,3.435,0,0,0,.139,1.539,3.527,3.527,0,0,0,.872-.481,3.446,3.446,0,0,0-1.011-1.058m.109-.51a3.951,3.951,0,0,1,1.273,1.243,3.485,3.485,0,0,0,.842-3.52c-.068.026-.135.053-.2.083a3.449,3.449,0,0,0-1.826,1.931c-.033.087-.063.175-.088.263m-1.2-4.7a3.486,3.486,0,0,0-3.2,4.894,3.96,3.96,0,0,1,3.753-.507c.069.026.136.054.2.084q.033-.1.073-.207a3.937,3.937,0,0,1,2.083-2.2c.072-.032.146-.062.219-.09a3.486,3.486,0,0,0-3.135-1.97" transform="translate(-345.225 -43.467)" fill="#1a1311"/>
        <path id="패스_20342" data-name="패스 20342" d="M375.842,59.038a1.4,1.4,0,1,1,.7-1.845,1.4,1.4,0,0,1-.7,1.845" transform="translate(-352.322 -46.4)" fill="#1d2a1d"/>
        <path id="패스_20343" data-name="패스 20343" d="M358.709,66.679a1.4,1.4,0,1,1,.7-1.845,1.4,1.4,0,0,1-.7,1.845" transform="translate(-346.753 -48.883)" fill="#1d2a1d"/>
        <path id="패스_20344" data-name="패스 20344" d="M361.664,53.4a1.4,1.4,0,1,1,1.845.7,1.395,1.395,0,0,1-1.845-.7" transform="translate(-348.313 -44.795)" fill="#1d2a1d"/>
        <path id="패스_20345" data-name="패스 20345" d="M371.118,71.415a1.4,1.4,0,1,0-1.845-.7,1.4,1.4,0,0,0,1.845.7" transform="translate(-350.787 -50.423)" fill="#1d2a1d"/>
        <path id="패스_20346" data-name="패스 20346" d="M369.005,56.61a3.745,3.745,0,0,0-.475-.142,3.716,3.716,0,1,0-6.876-2.624,3.589,3.589,0,0,0-.449-.211,3.716,3.716,0,1,0-2.175,7.087,3.592,3.592,0,0,0-.211.449,3.716,3.716,0,1,0,7.087,2.175,3.715,3.715,0,1,0,3.1-6.734m-5.864,2.269a3.69,3.69,0,0,0,.211-.449,3.745,3.745,0,0,0,.142-.475,3.69,3.69,0,0,0,.449.211,3.606,3.606,0,0,0,.475.142,3.746,3.746,0,0,0-.211.449,3.82,3.82,0,0,0-.142.475,3.694,3.694,0,0,0-.449-.211,3.854,3.854,0,0,0-.475-.142" transform="translate(-346.564 -44.647)" fill="#f5b29d"/>
        <path id="패스_20347" data-name="패스 20347" d="M362.175,66.34a3.964,3.964,0,0,1-3.7-5.376c.026-.067.054-.134.086-.2-.073-.022-.142-.046-.209-.071a3.962,3.962,0,0,1,2.825-7.4c.067.026.134.054.2.086.022-.073.046-.142.072-.209a3.961,3.961,0,1,1,7.4,2.825c-.026.067-.053.135-.086.2.073.022.142.047.209.072a3.961,3.961,0,0,1-2.825,7.4c-.067-.025-.134-.053-.2-.085-.022.072-.046.141-.072.208a3.972,3.972,0,0,1-3.7,2.552m-2.409-12.824a3.471,3.471,0,0,0-1.242,6.715,3.327,3.327,0,0,0,.444.134l.311.074-.152.281a3.569,3.569,0,0,0-.2.419,3.472,3.472,0,1,0,6.488,2.476,3.5,3.5,0,0,0,.132-.443l.074-.311.281.152a3.574,3.574,0,0,0,.42.2A3.473,3.473,0,0,0,368.8,56.72a3.523,3.523,0,0,0-.444-.132l-.312-.074.153-.281a3.41,3.41,0,0,0,.2-.42,3.472,3.472,0,1,0-6.488-2.476,3.571,3.571,0,0,0-.132.445l-.074.31-.281-.153a3.623,3.623,0,0,0-.42-.2,3.464,3.464,0,0,0-1.234-.227m4.346,5.966-.281-.153a3.489,3.489,0,0,0-.419-.2,3.321,3.321,0,0,0-.445-.133l-.31-.074.152-.281a3.114,3.114,0,0,0,.329-.863l.074-.312.281.154a3.4,3.4,0,0,0,.419.2,3.3,3.3,0,0,0,.444.134l.312.074-.153.281a3.058,3.058,0,0,0-.33.864Zm-.735-.879c.074.024.142.047.209.072s.134.055.2.086c.022-.074.046-.142.072-.209s.054-.134.086-.2c-.073-.022-.142-.046-.209-.071s-.134-.054-.2-.086c-.022.072-.046.142-.072.209s-.054.134-.086.2" transform="translate(-346.446 -44.529)" fill="#fff"/>
        <path id="패스_20348" data-name="패스 20348" d="M370.01,56.915a1.391,1.391,0,1,1-.8-1.8,1.391,1.391,0,0,1,.8,1.8" transform="translate(-350.191 -45.963)" fill="#8f001d"/>
        <path id="패스_20349" data-name="패스 20349" d="M365.941,67.578a1.391,1.391,0,1,1-.8-1.8,1.391,1.391,0,0,1,.8,1.8" transform="translate(-348.868 -49.43)" fill="#8f001d"/>
        <path id="패스_20350" data-name="패스 20350" d="M360.848,61.016a1.391,1.391,0,1,1,1.8-.8,1.39,1.39,0,0,1-1.8.8" transform="translate(-347.796 -47.035)" fill="#8f001d"/>
        <rect id="사각형_5808" data-name="사각형 5808" width="7.702" height="0.489" transform="matrix(0.357, -0.934, 0.934, 0.357, 15.542, 17.563)" fill="#0f1214"/>
        <path id="패스_20351" data-name="패스 20351" d="M373.307,64.281a1.391,1.391,0,1,0-1.8.8,1.391,1.391,0,0,0,1.8-.8" transform="translate(-351.262 -48.358)" fill="#8f001d"/>
        <rect id="사각형_5809" data-name="사각형 5809" width="0.489" height="7.702" transform="translate(13.461 12.909) rotate(-69.107)" fill="#0f1214"/>
        <path id="패스_20352" data-name="패스 20352" d="M368.642,62.119a2.918,2.918,0,1,1-1.686-3.767,2.919,2.919,0,0,1,1.686,3.767" transform="translate(-348.786 -46.982)" fill="#d49300"/>
        <path id="패스_20353" data-name="패스 20353" d="M365.794,64.122a3.163,3.163,0,1,1,2.959-2.035,3.151,3.151,0,0,1-2.959,2.035m0-5.838a2.678,2.678,0,1,0,.954.178,2.665,2.665,0,0,0-.954-.178" transform="translate(-348.668 -46.863)" fill="#0f1214"/>
        <path id="패스_20354" data-name="패스 20354" d="M426.242,49.208a20.271,20.271,0,0,1-4.783-.588,20.328,20.328,0,0,1-4.791.588,19.9,19.9,0,0,1-19.88-19.879,20.321,20.321,0,0,1,.574-4.727,20.284,20.284,0,0,1-.574-4.722A19.886,19.886,0,0,1,420.917.459c.259-.01.517-.016.771-.016.12,0,.24,0,.361,0a19.884,19.884,0,0,1,23.667,23.437c.007.2.009.4.009.6,0,.265-.005.534-.016.8a19.892,19.892,0,0,1-19.466,23.925" transform="translate(-359.771 -28.076)" fill="#171212"/>
        <path id="패스_20355" data-name="패스 20355" d="M427.185,48.193a18.245,18.245,0,0,1-4.782-.653,18.31,18.31,0,0,1-4.791.653,17.942,17.942,0,0,1-17.922-17.922,18.269,18.269,0,0,1,.638-4.727,18.244,18.244,0,0,1-.638-4.722,17.93,17.93,0,0,1,22-17.455c.319-.016.635-.024.946-.024q.275,0,.552.008a17.928,17.928,0,0,1,21.511,21.306c.011.256.017.512.017.765,0,.318-.009.641-.026.964a17.937,17.937,0,0,1-17.5,21.807" transform="translate(-360.714 -29.018)" fill="#c6900d"/>
        <path id="패스_20356" data-name="패스 20356" d="M428.128,47.178a16.244,16.244,0,0,1-4.641-.691l-.271,0a16.28,16.28,0,0,1-4.662.7,15.983,15.983,0,0,1-15.965-15.965,16.2,16.2,0,0,1,.718-4.726,16.193,16.193,0,0,1-.718-4.722A15.97,15.97,0,0,1,422.453,6.281c.375-.026.75-.039,1.12-.039.247,0,.5.006.742.018a15.97,15.97,0,0,1,19.353,19.17c.019.314.028.626.028.935,0,.373-.013.751-.039,1.128a15.977,15.977,0,0,1-15.529,19.687" transform="translate(-361.657 -29.96)" fill="#4eb2a2"/>
        <path id="패스_20357" data-name="패스 20357" d="M428.01,47.306a16.54,16.54,0,0,1-4.678-.692l-.2,0a16.593,16.593,0,0,1-4.7.694A16.228,16.228,0,0,1,402.227,31.1a16.542,16.542,0,0,1,.707-4.727,16.52,16.52,0,0,1-.707-4.722,16.216,16.216,0,0,1,20.129-15.73,16.566,16.566,0,0,1,1.818-.021A16.218,16.218,0,0,1,443.8,25.333c.018.306.026.612.026.914,0,.364-.013.737-.037,1.107A16.225,16.225,0,0,1,428.01,47.306m-4.945-1.185.375.015a16.033,16.033,0,0,0,4.57.681A15.733,15.733,0,0,0,443.3,27.431l-.009-.036,0-.037c.026-.371.039-.744.039-1.11,0-.3-.009-.612-.027-.921l0-.036.008-.034A15.727,15.727,0,0,0,424.256,6.38l-.034.008h-.036a15.62,15.62,0,0,0-1.835.021l-.038,0-.038-.009a15.728,15.728,0,0,0-19.559,15.246,16.025,16.025,0,0,0,.707,4.65l.022.072-.022.072a16.047,16.047,0,0,0-.707,4.655,15.738,15.738,0,0,0,15.721,15.72,16.1,16.1,0,0,0,4.591-.684Z" transform="translate(-361.539 -29.843)" fill="#1a1311"/>
        <path id="패스_20358" data-name="패스 20358" d="M429.07,46.164a14.232,14.232,0,0,1-4.346-.692h-.209c-.209,0-.418,0-.626-.014a14.237,14.237,0,0,1-4.392.705,14.024,14.024,0,0,1-14.009-14.007,14.175,14.175,0,0,1,.823-4.727A14,14,0,0,1,419.5,8.7a14,14,0,0,1,3.722.5c.432-.039.866-.059,1.3-.059.31,0,.624.009.935.03A14.015,14.015,0,0,1,442.638,26.2c.029.371.044.74.044,1.107,0,.429-.02.862-.059,1.29A14.019,14.019,0,0,1,429.07,46.164" transform="translate(-362.599 -30.903)" fill="#1f2b1d"/>
        <path id="패스_20359" data-name="패스 20359" d="M430.013,45.15a12.177,12.177,0,0,1-4.05-.7c-.169.007-.337.011-.505.011-.3,0-.6-.011-.9-.034a12.194,12.194,0,0,1-4.122.725,12.051,12.051,0,0,1-11.184-16.54c0-.12-.005-.24-.005-.36,0-.043,0-.086,0-.128A12.046,12.046,0,0,1,420.439,11.6a11.987,11.987,0,0,1,3.545.532,12.213,12.213,0,0,1,1.474-.089c.376,0,.753.018,1.128.053A12.058,12.058,0,0,1,441.6,26.971a12.164,12.164,0,0,1-.02,2.733A12.064,12.064,0,0,1,430.013,45.15" transform="translate(-363.542 -31.846)" fill="#e75937"/>
        <path id="패스_20360" data-name="패스 20360" d="M429.9,45.277a12.482,12.482,0,0,1-4.087-.7,12,12,0,0,1-1.332-.021,12.511,12.511,0,0,1-4.156.721,12.309,12.309,0,0,1-12.295-12.3,12.456,12.456,0,0,1,.866-4.532c0-.106,0-.211,0-.317v-.082a12.455,12.455,0,0,1-.862-4.518,12.3,12.3,0,0,1,15.863-11.769,12.5,12.5,0,0,1,2.556-.035,12.3,12.3,0,0,1,15.285,15.147,12.271,12.271,0,0,1-.019,2.69A12.306,12.306,0,0,1,429.9,45.277m-4.012-1.193.045.016a12,12,0,0,0,3.968.688,11.818,11.818,0,0,0,11.332-15.133l-.014-.048.006-.05a11.831,11.831,0,0,0,.019-2.677l0-.047.013-.046a11.812,11.812,0,0,0-14.708-14.575l-.045.013-.047,0a12.024,12.024,0,0,0-2.55.036l-.052.007-.05-.016a11.81,11.81,0,0,0-15.279,11.285,11.955,11.955,0,0,0,.846,4.382l.018.045v.173c0,.118,0,.236.006.354v.051l-.018.047a11.967,11.967,0,0,0-.85,4.4,11.82,11.82,0,0,0,11.806,11.806,12.013,12.013,0,0,0,4.039-.71l.049-.018.053,0a11.8,11.8,0,0,0,1.373.022Z" transform="translate(-363.424 -31.728)" fill="#fff"/>
        <path id="패스_20361" data-name="패스 20361" d="M431.191,43.881a9.627,9.627,0,0,1-3.676-.732q-.439.042-.879.041a9.628,9.628,0,0,1-1.24-.08,9.607,9.607,0,0,1-12.488-12.884q-.033-.4-.033-.8,0-.293.018-.587a9.6,9.6,0,0,1,8.725-13.617,9.5,9.5,0,0,1,3.321.593,9.659,9.659,0,0,1,3.071-.051,9.609,9.609,0,0,1,12.273,12.167,9.662,9.662,0,0,1-.027,3.158,9.613,9.613,0,0,1-9.064,12.792" transform="translate(-364.72 -33.024)" fill="#8e0c25"/>
        <path id="패스_20362" data-name="패스 20362" d="M432.37,42.614a7.129,7.129,0,0,1-3.294-.8,7.174,7.174,0,0,1-2.855-.067,7.163,7.163,0,0,1-10.584-6.288,7.186,7.186,0,0,1,.972-3.6,7.1,7.1,0,0,1-.031-2.3,7.156,7.156,0,0,1,6.218-10.7,7.129,7.129,0,0,1,3.093.7,7.2,7.2,0,0,1,3.546-.076,7.161,7.161,0,0,1,9.488,9.413,7.2,7.2,0,0,1-.04,3.59,7.165,7.165,0,0,1-6.514,10.135" transform="translate(-365.898 -34.203)" fill="#278576"/>
        <path id="패스_20363" data-name="패스 20363" d="M432.252,42.741a7.321,7.321,0,0,1-3.332-.792,7.476,7.476,0,0,1-2.781-.063,7.293,7.293,0,0,1-3.461.856,7.405,7.405,0,0,1-6.443-11.051,7.41,7.41,0,0,1-.029-2.208,7.4,7.4,0,0,1,6.472-11,7.328,7.328,0,0,1,3.116.688,7.481,7.481,0,0,1,3.5-.073,7.406,7.406,0,0,1,9.77,9.692,7.457,7.457,0,0,1-.038,3.546,7.408,7.408,0,0,1-6.772,10.4M429,41.437l.074.038a6.828,6.828,0,0,0,3.18.775,6.919,6.919,0,0,0,6.291-9.788l-.036-.08.023-.085a6.964,6.964,0,0,0,.038-3.467l-.02-.081.034-.076a6.917,6.917,0,0,0-9.164-9.092l-.075.034-.08-.018a6.967,6.967,0,0,0-3.424.073l-.088.025-.083-.04a6.849,6.849,0,0,0-2.988-.68,6.912,6.912,0,0,0-6.005,10.337l.042.074-.013.084a6.92,6.92,0,0,0,.03,2.223l.016.088-.045.078a6.915,6.915,0,0,0,5.976,10.393,6.811,6.811,0,0,0,3.308-.84l.082-.045.09.021a6.981,6.981,0,0,0,2.758.064Z" transform="translate(-365.781 -34.085)" fill="#1a1311"/>
        <path id="패스_20364" data-name="패스 20364" d="M433.312,41.6a5.224,5.224,0,0,1-2.976-.937,5.2,5.2,0,0,1-3.468-.109,5.2,5.2,0,0,1-7.21-7.383A5.187,5.187,0,0,1,419.6,30.1a5.2,5.2,0,0,1,7.041-7.468,5.208,5.208,0,0,1,3.937-.116,5.2,5.2,0,0,1,7.176,7.131A5.206,5.206,0,0,1,437.7,33.6a5.2,5.2,0,0,1-4.385,8" transform="translate(-366.841 -35.145)" fill="#1d2a1d"/>
        <path id="패스_20365" data-name="패스 20365" d="M428.179,27.656a3.734,3.734,0,1,1-3.734-3.734,3.734,3.734,0,0,1,3.734,3.734m5.841-3.734a3.734,3.734,0,1,0,3.733,3.734,3.734,3.734,0,0,0-3.733-3.734m-9.574,9.45a3.733,3.733,0,1,0,3.734,3.733,3.733,3.733,0,0,0-3.734-3.733m9.574,0a3.733,3.733,0,1,0,3.733,3.733,3.733,3.733,0,0,0-3.733-3.733m-.838-5.29a3.717,3.717,0,1,0-3.717,3.716,3.717,3.717,0,0,0,3.717-3.716m0,8.349a3.717,3.717,0,1,0-3.717,3.716,3.717,3.717,0,0,0,3.717-3.716m-7.891-7.891a3.716,3.716,0,1,0,3.717,3.717,3.717,3.717,0,0,0-3.717-3.717m8.349,0a3.716,3.716,0,1,0,3.717,3.717,3.717,3.717,0,0,0-3.717-3.717" transform="translate(-367.548 -35.852)" fill="#3e9f87"/>
        <path id="패스_20366" data-name="패스 20366" d="M433.9,40.965a3.963,3.963,0,0,1-2.764-1.12,3.953,3.953,0,0,1-3.881-.169,3.976,3.976,0,1,1-5.571-5.66,3.953,3.953,0,0,1-.086-3.586,3.976,3.976,0,1,1,5.51-5.733,3.954,3.954,0,0,1,4.2-.173,3.976,3.976,0,0,1,5.619,5.594,3.956,3.956,0,0,1-.091,4.187,3.976,3.976,0,0,1-2.935,6.661m-2.326-1.38a3.487,3.487,0,0,0,4.961-4.882,3.952,3.952,0,0,1-3.016,1.4c-.074,0-.146,0-.219-.006,0,.072.006.146.006.219a3.96,3.96,0,0,1-1.732,3.273m-9.628-5.148a3.487,3.487,0,1,0,4.907,4.952,3.954,3.954,0,0,1-1.469-3.077c0-.074,0-.147.006-.219-.073,0-.146.006-.219.006a3.957,3.957,0,0,1-3.224-1.662m5.619,4.855a3.471,3.471,0,0,0,3.227.175,3.972,3.972,0,0,1-.21-4.675,3.952,3.952,0,0,1-.96-1.942,3.461,3.461,0,0,0-.555,0,3.964,3.964,0,0,1-1.25,2.231,3.972,3.972,0,0,1-.252,4.21m3.375-4.151a3.482,3.482,0,0,0,.288,4.087,3.472,3.472,0,0,0,1.589-2.916c0-.094,0-.186-.011-.277a3.945,3.945,0,0,1-1.866-.894m-5.056.894c-.007.091-.011.184-.011.277a3.467,3.467,0,0,0,1.291,2.7,3.481,3.481,0,0,0,.263-3.62,3.952,3.952,0,0,1-1.544.643m7.358-.436c.092.007.184.011.277.011a3.469,3.469,0,0,0,2.669-1.254,3.486,3.486,0,0,0-3.763-.531,3.952,3.952,0,0,1,.817,1.774M422.33,34.129a3.471,3.471,0,0,0,2.843,1.481c.093,0,.186,0,.277-.011a3.947,3.947,0,0,1,.681-1.6,3.482,3.482,0,0,0-3.8.127m4.2.155a3.466,3.466,0,0,0-.564,1.234,3.443,3.443,0,0,0,1.208-.545,3.5,3.5,0,0,0-.644-.689m4.7.461a3.466,3.466,0,0,0,1.5.773,3.46,3.46,0,0,0-.734-1.45,3.525,3.525,0,0,0-.763.677m-4.386-.836a4.04,4.04,0,0,1,.709.754,3.474,3.474,0,0,0,1-1.73,3.473,3.473,0,0,0-1.708.977m3.3-.977a3.452,3.452,0,0,0,.744,1.464,4.019,4.019,0,0,1,.759-.684,3.471,3.471,0,0,0-1.5-.78m3.761.077a3.958,3.958,0,0,1,2.576.949,3.468,3.468,0,0,0,.1-3.474,3.971,3.971,0,0,1-4.662.5,3.937,3.937,0,0,1-1.85.879c-.007.092-.011.184-.011.278s0,.186.011.277a3.955,3.955,0,0,1,2.022,1.034,3.957,3.957,0,0,1,1.82-.441m-11.914-2.255a3.469,3.469,0,0,0,.088,2.955,3.972,3.972,0,0,1,4.368-.089,3.956,3.956,0,0,1,2.189-1.2c.007-.092.011-.184.011-.277s0-.186-.011-.278a3.951,3.951,0,0,1-2.042-1.053,3.972,3.972,0,0,1-4.6-.053m7.359,1.6c.074,0,.146,0,.219.006,0-.073-.006-.146-.006-.219s0-.147.006-.219a4.323,4.323,0,0,1-.439,0c0,.072.006.146.006.219s0,.146-.006.219c.072,0,.146-.006.219-.006m-.277-.927a3.461,3.461,0,0,0,.555,0,3.949,3.949,0,0,1,.869-1.837,3.971,3.971,0,0,1,.45-4.706,3.467,3.467,0,0,0-3.5.182,3.97,3.97,0,0,1,.466,4.211,3.959,3.959,0,0,1,1.164,2.15m-2.09-.923a3.467,3.467,0,0,0,1.573.843,3.463,3.463,0,0,0-.9-1.63,4.009,4.009,0,0,1-.676.787m3.8-.5a3.461,3.461,0,0,0-.642,1.338,3.463,3.463,0,0,0,1.344-.647,4.054,4.054,0,0,1-.7-.691m1.495.62a3.485,3.485,0,0,0,4.027-.561,3.469,3.469,0,0,0-2.783-1.4c-.094,0-.186,0-.277.011a3.957,3.957,0,0,1-.966,1.948m-10.06-.31a3.482,3.482,0,0,0,4.04.127,3.957,3.957,0,0,1-.809-1.765c-.092-.007-.184-.011-.277-.011a3.473,3.473,0,0,0-2.954,1.649m8.9-.679a3.519,3.519,0,0,0,.739.726,3.471,3.471,0,0,0,.872-1.6,3.48,3.48,0,0,0-1.611.879m-5.149-.879a3.46,3.46,0,0,0,.679,1.386,3.534,3.534,0,0,0,.64-.758,3.467,3.467,0,0,0-1.319-.628m-1.639-4.708a3.487,3.487,0,0,0-2.481,5.939,3.962,3.962,0,0,1,3.326-1.811c.074,0,.146,0,.219.006,0-.073-.006-.146-.006-.219A3.953,3.953,0,0,1,426.721,25a3.477,3.477,0,0,0-2.393-.952m9.194,4.128A3.955,3.955,0,0,1,436.64,29.7a3.487,3.487,0,0,0-4.9-4.892,3.958,3.958,0,0,1,1.573,3.159c0,.074,0,.146-.006.219.073,0,.146-.006.219-.006m-2.154-3.035a3.484,3.484,0,0,0-.522,4.078,3.952,3.952,0,0,1,1.963-.979c.007-.092.011-.184.011-.277a3.47,3.47,0,0,0-1.451-2.822m-5.482,3.1a3.953,3.953,0,0,1,1.633.707,3.484,3.484,0,0,0-.467-3.587,3.466,3.466,0,0,0-1.176,2.6c0,.093,0,.186.011.277" transform="translate(-367.43 -35.734)" fill="#1a1311"/>
        <path id="패스_20367" data-name="패스 20367" d="M440.567,29.981a1.4,1.4,0,1,1,0-1.974,1.4,1.4,0,0,1,0,1.974" transform="translate(-373.228 -37.047)" fill="#1d2a1d"/>
        <path id="패스_20368" data-name="패스 20368" d="M427.286,43.229a1.4,1.4,0,1,1,0-1.974,1.4,1.4,0,0,1,0,1.974" transform="translate(-368.911 -41.354)" fill="#1d2a1d"/>
        <path id="패스_20369" data-name="패스 20369" d="M425.312,29.769a1.4,1.4,0,1,1,1.974,0,1.4,1.4,0,0,1-1.974,0" transform="translate(-368.911 -36.978)" fill="#1d2a1d"/>
        <path id="패스_20370" data-name="패스 20370" d="M440.567,43.229a1.4,1.4,0,1,0-1.974,0,1.4,1.4,0,0,0,1.974,0" transform="translate(-373.228 -41.354)" fill="#1d2a1d"/>
        <path id="패스_20371" data-name="패스 20371" d="M434.055,28.752a3.735,3.735,0,0,0-.495.036,3.717,3.717,0,1,0-7.36,0,3.717,3.717,0,1,0,0,7.36,3.717,3.717,0,1,0,7.36,0,3.715,3.715,0,1,0,.495-7.4m-4.669,4.211a3.372,3.372,0,0,0,0-.989,3.371,3.371,0,0,0,.989,0,3.372,3.372,0,0,0,0,.989,3.372,3.372,0,0,0-.989,0" transform="translate(-367.963 -36.065)" fill="#f5b29d"/>
        <path id="패스_20372" data-name="패스 20372" d="M429.762,40.487a3.966,3.966,0,0,1-3.962-3.961c0-.072,0-.144.008-.221-.076,0-.149.007-.221.007a3.961,3.961,0,0,1,0-7.922c.072,0,.145,0,.221.007-.005-.076-.008-.149-.008-.221a3.961,3.961,0,1,1,7.922,0c0,.072,0,.144-.007.221.076,0,.149-.007.221-.007a3.961,3.961,0,0,1,0,7.922c-.072,0-.145,0-.221-.007.006.076.007.149.007.221a3.965,3.965,0,0,1-3.96,3.961m-3.4-4.741-.043.317a3.47,3.47,0,1,0,6.909.462,3.32,3.32,0,0,0-.034-.462l-.042-.318.317.043a3.435,3.435,0,0,0,.462.034,3.472,3.472,0,1,0-.462-6.909l-.317.042.042-.317a3.327,3.327,0,0,0,.034-.462,3.472,3.472,0,1,0-6.909.462l.043.317-.317-.042a3.472,3.472,0,1,0,0,6.875Zm2.615-2.616.043-.317a3.174,3.174,0,0,0,0-.923l-.043-.317.317.042a3.038,3.038,0,0,0,.925,0l.317-.042-.043.317a3.122,3.122,0,0,0,0,.925l.043.317-.317-.042a3.038,3.038,0,0,0-.925,0Zm.78-.566c.071,0,.144,0,.221.007-.005-.076-.008-.149-.008-.221s0-.144.008-.221a3.221,3.221,0,0,1-.442,0c.006.076.008.149.008.221s0,.144-.008.221c.076,0,.149-.007.221-.007" transform="translate(-367.845 -35.947)" fill="#fff"/>
        <path id="패스_20373" data-name="패스 20373" d="M434.362,30.078a1.391,1.391,0,1,1-1.391-1.391,1.391,1.391,0,0,1,1.391,1.391" transform="translate(-371.081 -37.401)" fill="#8f001d"/>
        <path id="패스_20374" data-name="패스 20374" d="M434.362,41.49a1.391,1.391,0,1,1-1.391-1.391,1.391,1.391,0,0,1,1.391,1.391" transform="translate(-371.081 -41.111)" fill="#8f001d"/>
        <path id="패스_20375" data-name="패스 20375" d="M427.264,37.176a1.391,1.391,0,1,1,1.392-1.391,1.391,1.391,0,0,1-1.392,1.391" transform="translate(-369.226 -39.256)" fill="#8f001d"/>
        <rect id="사각형_5810" data-name="사각형 5810" width="0.489" height="7.702" transform="translate(61.645 -7.323)" fill="#0f1214"/>
        <path id="패스_20376" data-name="패스 20376" d="M440.068,35.784a1.391,1.391,0,1,0-1.391,1.391,1.392,1.392,0,0,0,1.391-1.391" transform="translate(-372.936 -39.255)" fill="#8f001d"/>
        <rect id="사각형_5811" data-name="사각형 5811" width="7.703" height="0.489" transform="translate(58.038 -3.716)" fill="#0f1214"/>
        <path id="패스_20377" data-name="패스 20377" d="M435.154,35.116a2.918,2.918,0,1,1-2.918-2.918,2.918,2.918,0,0,1,2.918,2.918" transform="translate(-370.345 -38.542)" fill="#d49300"/>
        <path id="패스_20378" data-name="패스 20378" d="M432.118,38.162A3.163,3.163,0,1,1,435.28,35a3.167,3.167,0,0,1-3.163,3.163m0-5.837A2.674,2.674,0,1,0,434.791,35a2.676,2.676,0,0,0-2.673-2.673" transform="translate(-370.228 -38.425)" fill="#0f1214"/>
        <path id="패스_20379" data-name="패스 20379" d="M420.2,102.383a20.271,20.271,0,0,1-4.783-.588,20.328,20.328,0,0,1-4.791.588A19.9,19.9,0,0,1,390.745,82.5a20.322,20.322,0,0,1,.574-4.727,20.286,20.286,0,0,1-.574-4.722,19.886,19.886,0,0,1,24.128-19.421c.259-.01.517-.016.771-.016.12,0,.24,0,.361,0a19.884,19.884,0,0,1,23.667,23.437c.007.2.009.4.009.6,0,.265-.005.534-.016.8A19.893,19.893,0,0,1,420.2,102.383" transform="translate(-357.806 -45.362)" fill="#171212"/>
        <path id="패스_20380" data-name="패스 20380" d="M421.141,101.368a18.244,18.244,0,0,1-4.782-.653,18.31,18.31,0,0,1-4.791.653,17.942,17.942,0,0,1-17.922-17.922,18.271,18.271,0,0,1,.638-4.727A18.246,18.246,0,0,1,393.645,74a17.93,17.93,0,0,1,22-17.455c.319-.016.635-.024.946-.024q.275,0,.552.008a17.928,17.928,0,0,1,21.511,21.306c.011.256.017.512.017.765,0,.318-.009.641-.026.964a17.936,17.936,0,0,1-17.5,21.807" transform="translate(-358.749 -46.304)" fill="#c6900d"/>
        <path id="패스_20381" data-name="패스 20381" d="M422.084,100.354a16.244,16.244,0,0,1-4.641-.691l-.271,0a16.28,16.28,0,0,1-4.662.7,15.983,15.983,0,0,1-15.965-15.965,16.2,16.2,0,0,1,.718-4.726,16.191,16.191,0,0,1-.718-4.722,15.972,15.972,0,0,1,19.863-15.483c.375-.026.75-.039,1.12-.039.247,0,.5.006.742.018A15.97,15.97,0,0,1,437.624,78.6c.019.314.028.626.028.935,0,.373-.013.751-.039,1.127a15.977,15.977,0,0,1-15.529,19.687" transform="translate(-359.692 -47.247)" fill="#4eb2a2"/>
        <path id="패스_20382" data-name="패스 20382" d="M421.965,100.48a16.516,16.516,0,0,1-4.678-.692l-.2,0a16.59,16.59,0,0,1-4.7.694,16.228,16.228,0,0,1-16.209-16.21,16.534,16.534,0,0,1,.707-4.726,16.525,16.525,0,0,1-.707-4.722,16.214,16.214,0,0,1,20.129-15.73,16.048,16.048,0,0,1,1.818-.021,16.217,16.217,0,0,1,19.623,19.436c.018.306.026.612.026.914,0,.364-.013.737-.037,1.107a16.225,16.225,0,0,1-15.776,19.952m-4.945-1.185.375.015a16.006,16.006,0,0,0,4.57.681,15.732,15.732,0,0,0,15.291-19.385l-.009-.037,0-.037c.026-.371.039-.744.039-1.11,0-.3-.009-.612-.027-.921l0-.036.008-.034a15.727,15.727,0,0,0-19.056-18.877l-.035.009-.036,0a15.733,15.733,0,0,0-1.834.022l-.039,0-.038-.009a15.725,15.725,0,0,0-19.558,15.246,16.029,16.029,0,0,0,.707,4.65l.022.072-.022.072a16.046,16.046,0,0,0-.707,4.655,15.737,15.737,0,0,0,15.72,15.72,16.1,16.1,0,0,0,4.591-.684Z" transform="translate(-359.574 -47.129)" fill="#1a1311"/>
        <path id="패스_20383" data-name="패스 20383" d="M423.026,99.34a14.233,14.233,0,0,1-4.346-.692h-.209c-.209,0-.418,0-.626-.014a14.237,14.237,0,0,1-4.392.705,14.024,14.024,0,0,1-14.009-14.008,14.178,14.178,0,0,1,.823-4.727,14,14,0,0,1,13.185-18.73,13.971,13.971,0,0,1,3.722.5c.432-.04.866-.059,1.3-.059.311,0,.624.01.935.031a14.015,14.015,0,0,1,17.187,17.027c.029.37.044.74.044,1.106,0,.43-.02.862-.059,1.29A14.019,14.019,0,0,1,423.026,99.34" transform="translate(-360.634 -48.19)" fill="#1f2b1d"/>
        <path id="패스_20384" data-name="패스 20384" d="M423.969,98.325a12.176,12.176,0,0,1-4.049-.7c-.169.007-.337.011-.506.011-.3,0-.6-.011-.9-.034a12.194,12.194,0,0,1-4.122.725,12.051,12.051,0,0,1-11.184-16.54c0-.12-.005-.24-.005-.36,0-.043,0-.086,0-.128A12.046,12.046,0,0,1,414.4,64.774a11.987,11.987,0,0,1,3.545.532,12.215,12.215,0,0,1,1.474-.089c.376,0,.753.018,1.128.053a12.058,12.058,0,0,1,15.013,14.877,12.166,12.166,0,0,1-.02,2.733,12.064,12.064,0,0,1-11.567,15.446" transform="translate(-361.577 -49.132)" fill="#e75937"/>
        <path id="패스_20385" data-name="패스 20385" d="M423.851,98.452a12.476,12.476,0,0,1-4.087-.7,11.97,11.97,0,0,1-1.332-.022,12.494,12.494,0,0,1-4.156.722,12.31,12.31,0,0,1-12.3-12.3,12.47,12.47,0,0,1,.866-4.532c0-.106,0-.212,0-.317v-.082a12.456,12.456,0,0,1-.863-4.518A12.3,12.3,0,0,1,417.844,64.94,12.389,12.389,0,0,1,420.4,64.9a12.3,12.3,0,0,1,15.286,15.147,12.384,12.384,0,0,1-.019,2.69,12.308,12.308,0,0,1-11.815,15.711m-4.012-1.193.045.016a12,12,0,0,0,3.968.688A11.816,11.816,0,0,0,435.182,82.83l-.013-.048.005-.05a11.827,11.827,0,0,0,.086-1.425,12.037,12.037,0,0,0-.067-1.253l-.005-.047.013-.046a11.812,11.812,0,0,0-14.708-14.575l-.046.013-.047,0a12.01,12.01,0,0,0-2.549.036l-.052.007-.05-.016A11.81,11.81,0,0,0,402.47,76.708a11.962,11.962,0,0,0,.845,4.381l.018.046v.173c0,.117,0,.236.005.354v.051l-.019.047a11.98,11.98,0,0,0-.85,4.4,11.82,11.82,0,0,0,11.806,11.806,12.006,12.006,0,0,0,4.039-.71l.049-.018.053,0a11.772,11.772,0,0,0,1.374.022Z" transform="translate(-361.459 -49.014)" fill="#fff"/>
        <path id="패스_20386" data-name="패스 20386" d="M425.147,97.056a9.627,9.627,0,0,1-3.676-.732q-.439.042-.879.041a9.63,9.63,0,0,1-1.241-.08A9.607,9.607,0,0,1,406.864,83.4q-.033-.4-.033-.8,0-.293.018-.587A9.6,9.6,0,0,1,415.574,68.4a9.5,9.5,0,0,1,3.321.593,9.658,9.658,0,0,1,3.071-.051,9.609,9.609,0,0,1,12.273,12.167,9.657,9.657,0,0,1-.027,3.158,9.613,9.613,0,0,1-9.064,12.792" transform="translate(-362.755 -50.31)" fill="#8e0c25"/>
        <path id="패스_20387" data-name="패스 20387" d="M426.326,95.789a7.129,7.129,0,0,1-3.294-.8,7.174,7.174,0,0,1-2.855-.067,7.163,7.163,0,0,1-10.584-6.288,7.191,7.191,0,0,1,.971-3.6,7.185,7.185,0,0,1-.109-1.247,7.075,7.075,0,0,1,.079-1.055,7.156,7.156,0,0,1,6.218-10.7,7.129,7.129,0,0,1,3.093.7,7.2,7.2,0,0,1,3.546-.076,7.161,7.161,0,0,1,9.488,9.413,7.2,7.2,0,0,1-.04,3.59,7.165,7.165,0,0,1-6.514,10.135" transform="translate(-363.933 -51.489)" fill="#278576"/>
        <path id="패스_20388" data-name="패스 20388" d="M426.208,95.916a7.313,7.313,0,0,1-3.332-.793,7.461,7.461,0,0,1-2.781-.063,7.294,7.294,0,0,1-3.462.856,7.405,7.405,0,0,1-6.443-11.051,7.416,7.416,0,0,1-.029-2.209,7.4,7.4,0,0,1,6.472-10.994,7.328,7.328,0,0,1,3.117.688,7.489,7.489,0,0,1,3.5-.073,7.406,7.406,0,0,1,9.769,9.692,7.445,7.445,0,0,1-.038,3.546,7.41,7.41,0,0,1-6.772,10.4m-3.254-1.3.074.038a6.833,6.833,0,0,0,3.181.775,6.919,6.919,0,0,0,6.291-9.788l-.036-.08.023-.085a6.963,6.963,0,0,0,.038-3.467l-.02-.081.034-.076a6.917,6.917,0,0,0-9.164-9.092l-.075.034-.081-.018a6.964,6.964,0,0,0-3.424.073l-.088.025-.084-.04a6.847,6.847,0,0,0-2.988-.68,6.911,6.911,0,0,0-6,10.337l.041.074-.012.084a6.924,6.924,0,0,0,.03,2.223l.016.088-.045.078a6.914,6.914,0,0,0,5.975,10.393,6.812,6.812,0,0,0,3.308-.84l.081-.045.09.021a6.984,6.984,0,0,0,2.758.064Z" transform="translate(-363.816 -51.371)" fill="#1a1311"/>
        <path id="패스_20389" data-name="패스 20389" d="M427.268,94.774a5.224,5.224,0,0,1-2.976-.937,5.2,5.2,0,0,1-3.468-.109,5.2,5.2,0,0,1-7.209-7.383,5.186,5.186,0,0,1-.055-3.065,5.2,5.2,0,0,1,7.041-7.468,5.208,5.208,0,0,1,3.937-.116,5.2,5.2,0,0,1,7.176,7.131,5.207,5.207,0,0,1-.061,3.945,5.2,5.2,0,0,1-4.385,8" transform="translate(-364.876 -52.431)" fill="#1d2a1d"/>
        <path id="패스_20390" data-name="패스 20390" d="M422.134,80.831A3.733,3.733,0,1,1,418.4,77.1a3.733,3.733,0,0,1,3.733,3.734m5.841-3.734a3.734,3.734,0,1,0,3.733,3.734,3.734,3.734,0,0,0-3.733-3.734m-9.574,9.45a3.733,3.733,0,1,0,3.733,3.733,3.734,3.734,0,0,0-3.733-3.733m9.574,0a3.733,3.733,0,1,0,3.733,3.733,3.733,3.733,0,0,0-3.733-3.733m-.838-5.29a3.717,3.717,0,1,0-3.717,3.716,3.717,3.717,0,0,0,3.717-3.716m0,8.349a3.717,3.717,0,1,0-3.717,3.716,3.717,3.717,0,0,0,3.717-3.716m-7.891-7.891a3.716,3.716,0,1,0,3.717,3.717,3.717,3.717,0,0,0-3.717-3.717m8.349,0a3.716,3.716,0,1,0,3.716,3.717,3.717,3.717,0,0,0-3.716-3.717" transform="translate(-365.583 -53.138)" fill="#3e9f87"/>
        <path id="패스_20391" data-name="패스 20391" d="M427.858,94.14a3.963,3.963,0,0,1-2.764-1.12,3.957,3.957,0,0,1-3.881-.169,3.976,3.976,0,1,1-5.571-5.661,3.953,3.953,0,0,1-.086-3.586,3.976,3.976,0,1,1,5.51-5.733,3.958,3.958,0,0,1,4.2-.173,3.976,3.976,0,0,1,5.619,5.6,3.955,3.955,0,0,1-.091,4.186,3.976,3.976,0,0,1-2.935,6.661m-2.326-1.38a3.487,3.487,0,0,0,4.961-4.882,3.953,3.953,0,0,1-3.016,1.4c-.074,0-.147,0-.219-.006,0,.073.006.146.006.219a3.961,3.961,0,0,1-1.732,3.273M415.9,87.613a3.487,3.487,0,1,0,4.906,4.952,3.956,3.956,0,0,1-1.469-3.077c0-.074,0-.146.006-.219-.073,0-.146.006-.219.006a3.96,3.96,0,0,1-3.224-1.662m5.619,4.855a3.471,3.471,0,0,0,3.227.175,3.972,3.972,0,0,1-.21-4.675,3.948,3.948,0,0,1-.96-1.942,3.469,3.469,0,0,0-.555,0,3.96,3.96,0,0,1-1.249,2.231,3.972,3.972,0,0,1-.252,4.21m3.375-4.151a3.482,3.482,0,0,0,.288,4.087,3.471,3.471,0,0,0,1.589-2.916c0-.093,0-.186-.011-.277a3.945,3.945,0,0,1-1.866-.894m-5.056.894c-.007.091-.011.184-.011.277a3.468,3.468,0,0,0,1.291,2.7,3.483,3.483,0,0,0,.263-3.621,3.951,3.951,0,0,1-1.544.643m7.358-.436c.091.007.184.011.277.011a3.466,3.466,0,0,0,2.669-1.254,3.482,3.482,0,0,0-3.763-.53,3.952,3.952,0,0,1,.816,1.774M416.286,87.3a3.47,3.47,0,0,0,2.843,1.481c.093,0,.186,0,.277-.011a3.946,3.946,0,0,1,.681-1.6,3.482,3.482,0,0,0-3.8.127m8.9.617a3.464,3.464,0,0,0,1.5.773,3.463,3.463,0,0,0-.734-1.45,3.51,3.51,0,0,0-.763.678m-4.7-.462a3.453,3.453,0,0,0-.564,1.234,3.439,3.439,0,0,0,1.207-.545,3.5,3.5,0,0,0-.644-.689m.313-.375a3.98,3.98,0,0,1,.71.754,3.474,3.474,0,0,0,1-1.73,3.478,3.478,0,0,0-1.709.977m3.3-.977a3.457,3.457,0,0,0,.745,1.464,4.019,4.019,0,0,1,.759-.684,3.471,3.471,0,0,0-1.5-.78m3.761.077a3.963,3.963,0,0,1,2.576.949,3.468,3.468,0,0,0,.1-3.474,3.973,3.973,0,0,1-4.662.5,3.952,3.952,0,0,1-1.85.879c-.007.091-.011.184-.011.277s0,.186.011.277a3.951,3.951,0,0,1,2.022,1.035,3.949,3.949,0,0,1,1.82-.441m-11.914-2.255a3.468,3.468,0,0,0,.088,2.955A3.97,3.97,0,0,1,420.4,86.8a3.957,3.957,0,0,1,2.189-1.2c.007-.092.011-.184.011-.277s0-.186-.011-.277a3.958,3.958,0,0,1-2.041-1.054,3.972,3.972,0,0,1-4.6-.053m7.139,1.165c0,.073.006.146.006.219s0,.146-.006.219a3.97,3.97,0,0,1,.439,0c0-.073-.006-.146-.006-.219s0-.146.006-.219a3.962,3.962,0,0,1-.439,0m-.059-.494a3.635,3.635,0,0,0,.555,0,3.951,3.951,0,0,1,.869-1.838,3.971,3.971,0,0,1,.45-4.706,3.469,3.469,0,0,0-3.5.183,3.97,3.97,0,0,1,.466,4.211,3.949,3.949,0,0,1,1.163,2.15m1.714-1.419a3.456,3.456,0,0,0-.642,1.338,3.463,3.463,0,0,0,1.344-.647,4.029,4.029,0,0,1-.7-.691m-3.8.5a3.467,3.467,0,0,0,1.573.843,3.467,3.467,0,0,0-.9-1.629,4.026,4.026,0,0,1-.676.786m5.3.125a3.485,3.485,0,0,0,4.027-.561,3.469,3.469,0,0,0-2.783-1.4c-.094,0-.186,0-.277.011a3.957,3.957,0,0,1-.966,1.948m-10.06-.31a3.482,3.482,0,0,0,4.04.127,3.958,3.958,0,0,1-.809-1.765c-.092-.007-.184-.011-.277-.011a3.473,3.473,0,0,0-2.954,1.649m8.9-.679a3.52,3.52,0,0,0,.739.726,3.467,3.467,0,0,0,.872-1.6,3.477,3.477,0,0,0-1.611.879m-5.149-.879a3.461,3.461,0,0,0,.679,1.386,3.534,3.534,0,0,0,.64-.758,3.467,3.467,0,0,0-1.319-.628m-1.639-4.708a3.487,3.487,0,0,0-2.481,5.939,3.961,3.961,0,0,1,3.326-1.811c.074,0,.146,0,.219.006,0-.073-.006-.146-.006-.219a3.953,3.953,0,0,1,1.334-2.963,3.476,3.476,0,0,0-2.393-.952m9.194,4.128a3.955,3.955,0,0,1,3.118,1.521,3.487,3.487,0,0,0-4.9-4.893,3.958,3.958,0,0,1,1.573,3.159c0,.074,0,.146-.006.219.072,0,.146-.006.219-.006m-2.154-3.035a3.484,3.484,0,0,0-.522,4.078,3.946,3.946,0,0,1,1.963-.979c.007-.092.011-.184.011-.277a3.469,3.469,0,0,0-1.451-2.822m-5.482,3.1a3.95,3.95,0,0,1,1.633.707,3.485,3.485,0,0,0-.467-3.587,3.466,3.466,0,0,0-1.176,2.6c0,.093,0,.186.011.277" transform="translate(-365.466 -53.02)" fill="#1a1311"/>
        <path id="패스_20392" data-name="패스 20392" d="M434.523,83.156a1.4,1.4,0,1,1,0-1.974,1.4,1.4,0,0,1,0,1.974" transform="translate(-371.263 -54.333)" fill="#1d2a1d"/>
        <path id="패스_20393" data-name="패스 20393" d="M421.242,96.4a1.4,1.4,0,1,1,0-1.974,1.4,1.4,0,0,1,0,1.974" transform="translate(-366.946 -58.64)" fill="#1d2a1d"/>
        <path id="패스_20394" data-name="패스 20394" d="M419.268,82.944a1.4,1.4,0,1,1,1.974,0,1.4,1.4,0,0,1-1.974,0" transform="translate(-366.946 -54.264)" fill="#1d2a1d"/>
        <path id="패스_20395" data-name="패스 20395" d="M434.523,96.4a1.4,1.4,0,1,0-1.974,0,1.4,1.4,0,0,0,1.974,0" transform="translate(-371.263 -58.64)" fill="#1d2a1d"/>
        <path id="패스_20396" data-name="패스 20396" d="M428.01,81.928a3.736,3.736,0,0,0-.495.036,3.717,3.717,0,1,0-7.36,0,3.717,3.717,0,1,0,0,7.36,3.717,3.717,0,1,0,7.36,0,3.715,3.715,0,1,0,.495-7.4m-4.669,4.211a3.369,3.369,0,0,0,0-.989,3.371,3.371,0,0,0,.989,0,3.372,3.372,0,0,0,0,.989,3.371,3.371,0,0,0-.989,0" transform="translate(-365.998 -53.352)" fill="#f5b29d"/>
        <path id="패스_20397" data-name="패스 20397" d="M423.717,93.663a3.966,3.966,0,0,1-3.961-3.962c0-.072,0-.144.007-.221-.076,0-.149.007-.221.007a3.961,3.961,0,0,1,0-7.922c.072,0,.144,0,.221.007,0-.076-.007-.149-.007-.221a3.961,3.961,0,1,1,7.922,0c0,.072,0,.144-.007.221.076,0,.149-.007.221-.007a3.961,3.961,0,0,1,0,7.922c-.072,0-.144,0-.221-.007.005.076.007.149.007.221a3.966,3.966,0,0,1-3.961,3.962m-3.4-4.741-.042.317a3.472,3.472,0,1,0,6.875,0l-.043-.317.317.042a3.472,3.472,0,1,0,0-6.875l-.317.043.043-.317a3.472,3.472,0,1,0-6.875,0l.042.317L420,82.089a3.426,3.426,0,0,0-.462-.034,3.472,3.472,0,1,0,.462,6.909Zm4.174-2.616-.317-.043a3.025,3.025,0,0,0-.923,0l-.317.043.042-.317a3.124,3.124,0,0,0,0-.925l-.042-.317.317.043a3.025,3.025,0,0,0,.923,0l.317-.043-.042.317a3.122,3.122,0,0,0,0,.925Zm-.779-.566c.072,0,.144,0,.221.007,0-.076-.007-.149-.007-.221s0-.144.007-.221a3.209,3.209,0,0,1-.441,0c.005.077.007.15.007.221s0,.144-.007.221c.076,0,.149-.007.221-.007" transform="translate(-365.88 -53.234)" fill="#fff"/>
        <path id="패스_20398" data-name="패스 20398" d="M428.318,83.253a1.391,1.391,0,1,1-1.391-1.391,1.391,1.391,0,0,1,1.391,1.391" transform="translate(-369.116 -54.687)" fill="#8f001d"/>
        <path id="패스_20399" data-name="패스 20399" d="M428.318,94.666a1.391,1.391,0,1,1-1.391-1.391,1.391,1.391,0,0,1,1.391,1.391" transform="translate(-369.116 -58.397)" fill="#8f001d"/>
        <path id="패스_20400" data-name="패스 20400" d="M421.22,90.351a1.391,1.391,0,1,1,1.391-1.391,1.391,1.391,0,0,1-1.391,1.391" transform="translate(-367.261 -56.542)" fill="#8f001d"/>
        <rect id="사각형_5812" data-name="사각형 5812" width="0.489" height="7.703" transform="translate(57.566 28.566)" fill="#0f1214"/>
        <path id="패스_20401" data-name="패스 20401" d="M434.024,88.959a1.391,1.391,0,1,0-1.391,1.391,1.391,1.391,0,0,0,1.391-1.391" transform="translate(-370.971 -56.542)" fill="#8f001d"/>
        <rect id="사각형_5813" data-name="사각형 5813" width="7.702" height="0.489" transform="translate(53.96 32.173)" fill="#0f1214"/>
        <path id="패스_20402" data-name="패스 20402" d="M429.109,88.291a2.918,2.918,0,1,1-2.918-2.918,2.918,2.918,0,0,1,2.918,2.918" transform="translate(-368.38 -55.828)" fill="#d49300"/>
        <path id="패스_20403" data-name="패스 20403" d="M426.073,91.336a3.163,3.163,0,1,1,3.163-3.162,3.166,3.166,0,0,1-3.163,3.162m0-5.837a2.674,2.674,0,1,0,2.673,2.675,2.678,2.678,0,0,0-2.673-2.675" transform="translate(-368.263 -55.71)" fill="#0f1214"/>
      </g>
    </g>
    <path id="패스_20405" data-name="패스 20405" d="M375.182,40.93,362.617,75.023h-8.142l.977-16.393-6.038,16.393h-8.142L353.782,40.93h8.891L361.363,55.9l5.573-14.97Zm-12.509,0h0m12.507-1.387h-8.245a1.388,1.388,0,0,0-1.3.9l-2,5.372.412-4.71a1.29,1.29,0,0,0,.011-.178,1.386,1.386,0,0,0-1.386-1.387h-8.893a1.387,1.387,0,0,0-1.3.909L339.971,74.546a1.386,1.386,0,0,0,1.3,1.864h8.142a1.386,1.386,0,0,0,1.3-.907l2.794-7.586-.418,7.024a1.386,1.386,0,0,0,1.384,1.469h8.142a1.386,1.386,0,0,0,1.3-.907L376.483,41.41a1.387,1.387,0,0,0-1.3-1.867m0,2.774h0Z" transform="translate(-322.265 -38.662)" fill="#1b1617"/>
    <path id="패스_20406" data-name="패스 20406" d="M396.4,40.931h0m0,0L383.834,75.024H375.6l12.568-34.093H396.4m0-1.387h-8.229a1.388,1.388,0,0,0-1.3.907L374.3,74.545a1.386,1.386,0,0,0,1.3,1.866h8.23a1.386,1.386,0,0,0,1.3-.907L397.68,41.465a1.387,1.387,0,0,0-1.28-1.921m0,2.774h0Z" transform="translate(-333.425 -38.663)" fill="#1b1617"/>
    <path id="패스_20407" data-name="패스 20407" d="M414.739,40.93h0m0,0-2.32,6.334h-7.16l-2.464,6.784h7.1l-2.177,6.031h-7.164l-3.011,8.12,8.806,0-1.1,3,40.593-10.631-94.529,40.195c-5.668,2.413-13.142,5-19.821,5-5.378,0-10.241-1.679-13.235-6.48-3.733-5.98-1.369-15.272,4.15-23.771,3.516-5.422,8.027-10.392,12.564-15.353-2.548,4.05-9.569,17.663-.317,24.417,2.018,1.475,4.894,2.22,8.414,2.22a36.756,36.756,0,0,0,9.4-1.391l38.56-10.384H380.07l-.114-14.59-5.3,14.59h-8.2L378.975,40.93h8.2l-3.836,9.886,8.344-9.886h23.056m-15.519.679-.591.524L387.115,55.84l.605,17.05,11.5-31.282m-12.045-.679h0m-52.2,19.23h0m110.869.406h0m-39.5,7.629h0m8.384-28.652H391.683a1.386,1.386,0,0,0-1.06.493l-2.987,3.538.811-2.089a1.388,1.388,0,0,0-1.27-1.942h-8.2a1.387,1.387,0,0,0-1.3.908L365.149,74.545a1.386,1.386,0,0,0,1.3,1.865h8.2a1.387,1.387,0,0,0,1.3-.913l2.675-7.356.054,6.893a1.387,1.387,0,0,0,1.387,1.376h.48l-28.437,7.658a35.323,35.323,0,0,1-9.036,1.343c-3.22,0-5.847-.676-7.6-1.954-3.495-2.551-4.747-6.535-3.724-11.84a33.935,33.935,0,0,1,4.373-10.681A1.387,1.387,0,0,0,335,58.773h-.049a1.392,1.392,0,0,0-.624.164h0a1.4,1.4,0,0,0-.358.276h0l-.007.008c-4.241,4.637-9.047,9.892-12.7,15.533-6.363,9.8-7.919,19.243-4.163,25.261,2.951,4.732,7.8,7.131,14.411,7.131,5.541,0,12.393-1.72,20.365-5.115l94.5-40.181a1.387,1.387,0,0,0-.386-2.671c-.041,0-.082-.005-.124-.005a1.369,1.369,0,0,0-.166.01,1.352,1.352,0,0,0-.217.043l-38,9.952.168-.46a1.387,1.387,0,0,0-1.28-1.917h0l-6.811,0,1.982-5.345h6.2a1.386,1.386,0,0,0,1.3-.916l2.177-6.031a1.387,1.387,0,0,0-1.3-1.858h-5.125l1.456-4.01h6.188a1.386,1.386,0,0,0,1.3-.91l2.3-6.279a1.388,1.388,0,0,0-1.28-1.919m0,2.774h0ZM388.521,56.324l6.778-8.071-6.443,17.528Z" transform="translate(-314.199 -38.662)" fill="#1b1617"/>
    <path id="패스_20408" data-name="패스 20408" d="M416.813,121.03a17.088,17.088,0,0,0-.8,6.138,2.922,2.922,0,0,0,1.706,2.638l-2.249,3.366a3.3,3.3,0,0,1-1.786-1,5.345,5.345,0,0,1-1.231-2.233,11.772,11.772,0,0,1-2.461,2.233,6.215,6.215,0,0,1-2.31,1l-.445-3.366a6.115,6.115,0,0,0,3.119-2.638,21.132,21.132,0,0,0,2.486-6.138l1.077-4.018h3.973Zm5.413-4.287h4.219l-4.582,17.1h-4.22l2.171-8.1h-2.536l.9-3.366h2.536Z" transform="translate(-344.159 -63.759)" fill="#3e9f87"/>
    <path id="패스_20409" data-name="패스 20409" d="M449.545,125.38h-5.993l-.175.651h5.544l-1.359,5.073H436.475l-.168.628h11.311l-.6,2.222H431.492l1.359-5.072h11.088l.174-.651H433.025l.589-2.2h5.544l.174-.651H433.34l.656-2.447h16.2Zm-12.288-3.142a2,2,0,0,1-1.718-.707,2.1,2.1,0,0,1-.217-1.874,3.429,3.429,0,0,1,1.221-1.874,3.314,3.314,0,0,1,2.1-.707h10.054a2,2,0,0,1,1.718.707,2.1,2.1,0,0,1,.217,1.874,3.428,3.428,0,0,1-1.221,1.874,3.318,3.318,0,0,1-2.1.707Zm2.769-2.962a.508.508,0,0,0-.484.381.3.3,0,0,0,.04.269.275.275,0,0,0,.239.112h6.1a.458.458,0,0,0,.31-.112.525.525,0,0,0,.173-.269.321.321,0,0,0-.026-.28.293.293,0,0,0-.253-.1Z" transform="translate(-352.044 -63.867)" fill="#3e9f87"/>
  </g>
</svg>
