<svg id="NEM_4" xmlns="http://www.w3.org/2000/svg" xmlns:xlink="http://www.w3.org/1999/xlink" width="140.814" height="89.072" viewBox="0 0 140.814 89.072">
  <defs>
    <clipPath id="clip-path">
      <rect id="사각형_5797" data-name="사각형 5797" width="140.814" height="89.072" fill="none"/>
    </clipPath>
  </defs>
  <g id="그룹_11119" data-name="그룹 11119" clip-path="url(#clip-path)">
    <path id="패스_20250" data-name="패스 20250" d="M140.611,35.95a4.208,4.208,0,0,0-5.092-2.662l-34.5,9.285,4.9-13.7a10.134,10.134,0,0,0,2.048.642,10.309,10.309,0,0,0,2.012.2,10.612,10.612,0,0,0,5.946-1.831,6.394,6.394,0,0,0,2.62-3.316l.071-.214a.967.967,0,0,0,.038-.159l.141-.937,0-.038a6.728,6.728,0,0,0,1.264-3.9,6.6,6.6,0,0,0-.123-1.273,7.7,7.7,0,0,0-5.385-5.7,9.659,9.659,0,0,0-2.755-.384h-.049a8.3,8.3,0,0,0-4.09-2.985,10.686,10.686,0,0,0-2.728-.5,7.549,7.549,0,0,0-3-2.976,7.38,7.38,0,0,0-3.321-.848,8.8,8.8,0,0,0-.829-1.323A8.417,8.417,0,0,0,91.165,0h0a7.514,7.514,0,0,0-1.346.118,7.734,7.734,0,0,0-4.858,3.03,10.67,10.67,0,0,0-5.642,3.012,10.315,10.315,0,0,0-2.671,4.381,6.615,6.615,0,0,0-2.775,1.792,6.329,6.329,0,0,0-.613.788l-.715,0a1.014,1.014,0,0,0-.153-.012l-36.5-.052a1.279,1.279,0,0,0-1.2.847l-3.021,8.471a7.491,7.491,0,0,0-2.944-1.214,7.668,7.668,0,0,0-1.3-.111A8.162,8.162,0,0,0,21,24.263a8.466,8.466,0,0,0-.736,1.153,7.082,7.082,0,0,0-5.94,3.6,10.419,10.419,0,0,0-2.5.48,8.053,8.053,0,0,0-3.887,2.8,9.313,9.313,0,0,0-2.593.372A7.394,7.394,0,0,0,.125,38.195L.1,38.338c-.006.029-.01.059-.013.089l-.079.8a.96.96,0,0,0,0,.109l0,.138a6.553,6.553,0,0,0,1.2,3.743l.135.887a.985.985,0,0,0,.039.16l.074.221A6.25,6.25,0,0,0,4,47.706a10.216,10.216,0,0,0,5.721,1.761,9.793,9.793,0,0,0,1.948-.191l.2-.042q-.226.338-.442.67l-.011.017c-6.85,11.011-8.38,21.291-4.2,28.205,3.347,5.61,8.817,8.457,16.256,8.457a44.914,44.914,0,0,0,14.143-2.675,6.481,6.481,0,0,0,4.093,2.416,9.568,9.568,0,0,0,6.194,2.713h.025l.3.006h.019a9.272,9.272,0,0,0,4.254-1.056,8.05,8.05,0,0,0,4,1.082H56.6l.422-.015.031,0A7.577,7.577,0,0,0,61.16,87.5c.274.129.549.246.822.35a9.317,9.317,0,0,0,3.277.612,7.718,7.718,0,0,0,3.58-.849,6.6,6.6,0,0,0,.9-.564,9.682,9.682,0,0,0,1.749.527,10,10,0,0,0,1.949.19A10.267,10.267,0,0,0,79.174,86a6.3,6.3,0,0,0,2.536-3.222l.074-.227a.966.966,0,0,0,.036-.153l.134-.883a6.586,6.586,0,0,0,1.2-3.764,6.322,6.322,0,0,0-.122-1.249,7.4,7.4,0,0,0-5.228-5.544,9.33,9.33,0,0,0-2.588-.369A8.124,8.124,0,0,0,73.21,68.7l5.125-2.245a6.42,6.42,0,0,0,3.155.822,6.356,6.356,0,0,0,.717-.041,6.644,6.644,0,0,0,3,1.567,6.9,6.9,0,0,0,1.534.172,7.057,7.057,0,0,0,2.785-.587,5.832,5.832,0,0,0,1.867.323l.13,0h.013c.028,0,.056,0,.085,0l.472-.042.046-.005.249-.034.042-.007a5.637,5.637,0,0,0,1.442-.468,5.629,5.629,0,0,0,1.316,2.821A6.051,6.051,0,0,0,99.759,73a6.573,6.573,0,0,0,1.374-.147l.017,0c.076-.018.152-.036.227-.056A5.839,5.839,0,0,0,104,73.45l.078,0h.021l.062,0,.454-.029.076-.007a5.8,5.8,0,0,0,2.933-1.23,5.433,5.433,0,0,0,3.61-1.706,6.232,6.232,0,0,0,1.652-4.189,5.463,5.463,0,0,0-1.428-3.746,5.61,5.61,0,0,0-3.975-1.79h-.021l-.2,0h-.021a5.648,5.648,0,0,0-.59.033,5.318,5.318,0,0,0,.031-.628,5.858,5.858,0,0,0-2.765-4.871l34.712-14.823a3.61,3.61,0,0,0,1.983-4.508" transform="translate(0 0.001)" fill="#0d0002"/>
    <path id="패스_20251" data-name="패스 20251" d="M452.622,147.756l1.9-2.321a3.091,3.091,0,0,1-.861-.422Z" transform="translate(-377.674 -121.001)" fill="#d0cfcd"/>
    <path id="패스_20252" data-name="패스 20252" d="M480.162,158.647c-.085,0-.17,0-.255-.006a5.93,5.93,0,0,1-.956-.125l-3.743,4.577.429,17.526,8.357-23.306a6.413,6.413,0,0,1-.92.6,6.242,6.242,0,0,1-2.911.737" transform="translate(-396.52 -131.265)" fill="#d0cfcd"/>
    <path id="패스_20253" data-name="패스 20253" d="M144.566,41.136a3.242,3.242,0,0,0-3.924-2.051L104.928,48.7a.313.313,0,0,1-.083.011.31.31,0,0,1-.293-.4l5.423-15.161a.749.749,0,0,1,.379-.5.269.269,0,0,1,.1-.015,1.362,1.362,0,0,1,.455.1,9.2,9.2,0,0,0,2.117.7,9.352,9.352,0,0,0,1.824.179,9.632,9.632,0,0,0,5.4-1.662,5.466,5.466,0,0,0,2.248-2.82l.072-.217.141-.937v-.226a5.746,5.746,0,0,0,1.258-3.574,5.667,5.667,0,0,0-.106-1.088,6.718,6.718,0,0,0-4.713-4.962,8.692,8.692,0,0,0-2.479-.343c-.124,0-.248,0-.374.007h-.012a.311.311,0,0,1-.258-.139,7.307,7.307,0,0,0-3.8-2.9,9.632,9.632,0,0,0-2.834-.469l-.274-.173a6.575,6.575,0,0,0-2.775-2.9,6.426,6.426,0,0,0-3.01-.736c-.085,0-.17,0-.254,0h-.011a.312.312,0,0,1-.286-.184,7.845,7.845,0,0,0-.9-1.523A7.441,7.441,0,0,0,96.03,5.83a6.559,6.559,0,0,0-1.173.1,6.746,6.746,0,0,0-4.4,2.862.3.3,0,0,1-.212.132,9.662,9.662,0,0,0-5.386,2.789,9.365,9.365,0,0,0-2.513,4.293.308.308,0,0,1-.218.219A5.677,5.677,0,0,0,79.45,17.85a5.41,5.41,0,0,0-.688.942.31.31,0,0,1-.266.157l-1.243.006,0-.013-36.5-.052h0a.31.31,0,0,0-.291.205l-3.329,9.333a.309.309,0,0,1-.5.124,6.54,6.54,0,0,0-3.217-1.573,6.657,6.657,0,0,0-1.13-.1,7.187,7.187,0,0,0-5.651,2.833,7.47,7.47,0,0,0-.813,1.347.308.308,0,0,1-.277.18h-.13a6.239,6.239,0,0,0-2.927.718,6.321,6.321,0,0,0-2.62,2.7.308.308,0,0,1-.268.169,9.3,9.3,0,0,0-2.612.45,7.048,7.048,0,0,0-3.595,2.71.309.309,0,0,1-.256.135h-.008c-.085,0-.17,0-.254,0a8.359,8.359,0,0,0-2.388.332,6.428,6.428,0,0,0-4.551,4.8l-.026.136-.079.8,0,.138a5.573,5.573,0,0,0,1.185,3.416V47.9l.139.919.074.221a5.323,5.323,0,0,0,2.182,2.735,9.242,9.242,0,0,0,5.175,1.592,8.812,8.812,0,0,0,3.673-.791.305.305,0,0,1,.128-.028.311.311,0,0,1,.2.075l0,0a.309.309,0,0,1,.048.413c-.552.778-1.056,1.518-1.537,2.257-6.65,10.69-8.176,20.609-4.193,27.2,3.163,5.3,8.355,7.991,15.43,7.991A44.729,44.729,0,0,0,42.635,87.7a.3.3,0,0,1,.1-.017A.315.315,0,0,1,43,87.83a5.519,5.519,0,0,0,3.934,2.434.3.3,0,0,1,.18.089,8.547,8.547,0,0,0,5.709,2.586l.3.006a8.335,8.335,0,0,0,4.119-1.116.307.307,0,0,1,.319.008,7.131,7.131,0,0,0,3.821,1.134h.051l.422-.015a6.66,6.66,0,0,0,3.885-1.6.311.311,0,0,1,.2-.076.305.305,0,0,1,.141.034,10.526,10.526,0,0,0,1.109.5,8.343,8.343,0,0,0,2.935.549,6.751,6.751,0,0,0,3.137-.741,5.609,5.609,0,0,0,1.037-.7.312.312,0,0,1,.2-.075.306.306,0,0,1,.128.028,8.764,8.764,0,0,0,1.912.619,9.027,9.027,0,0,0,1.76.172,9.269,9.269,0,0,0,5.2-1.6,5.359,5.359,0,0,0,2.165-2.729l.072-.221.139-.918v-.16a5.591,5.591,0,0,0,1.185-3.425,5.367,5.367,0,0,0-.1-1.058,6.43,6.43,0,0,0-4.558-4.807,8.381,8.381,0,0,0-2.378-.328c-.085,0-.17,0-.256,0h-.008a.31.31,0,0,1-.257-.135,7.063,7.063,0,0,0-3.608-2.714l-.132-.04,7.524-3.3c.072.049.145.1.219.141a5.441,5.441,0,0,0,2.859.8,5.551,5.551,0,0,0,.89-.074l.05,0a.31.31,0,0,1,.22.091,5.732,5.732,0,0,0,2.777,1.537,5.909,5.909,0,0,0,1.317.147,6.051,6.051,0,0,0,2.626-.611.3.3,0,0,1,.133-.03.313.313,0,0,1,.115.022,4.9,4.9,0,0,0,1.787.355l.136,0,.472-.041.249-.034a4.672,4.672,0,0,0,1.609-.614.3.3,0,0,1,.159-.045h.02c.094.006.189.009.286.009.152,0,.309-.049.463-.066-.006.1-.027.2-.027.3a4.676,4.676,0,0,0,1.149,3.084,5.085,5.085,0,0,0,3.84,1.69,5.618,5.618,0,0,0,1.175-.126c.145-.033.289-.072.431-.116a.3.3,0,0,1,.246.028,4.881,4.881,0,0,0,2.405.666l.085,0,.453-.029.024,0a4.846,4.846,0,0,0,2.6-1.152.305.305,0,0,1,.192-.074,4.448,4.448,0,0,0,3.161-1.407,5.26,5.26,0,0,0,1.4-3.536,4.524,4.524,0,0,0-1.169-3.086,4.66,4.66,0,0,0-3.306-1.483l-.2,0a4.747,4.747,0,0,0-1.682.317c-.072-.026-.149-.036-.222-.059l.009-.015a4.359,4.359,0,0,0,.368-1.8,4.87,4.87,0,0,0-3.288-4.523c-.08-.026-.161-.051-.243-.073a.308.308,0,0,1-.035-.58l36.1-15.415a2.637,2.637,0,0,0,1.452-3.3M110.36,69.283a2.5,2.5,0,0,1,.551.39,2.357,2.357,0,0,1,.431-.353,2.289,2.289,0,0,1,1.21-.355l.092,0a2.451,2.451,0,0,1,.867.188,1.9,1.9,0,0,1,.652.458,2,2,0,0,1,.508,1.372,2.722,2.722,0,0,1-.727,1.814,1.743,1.743,0,0,1-.652.442,2.039,2.039,0,0,1-.742.137,2.078,2.078,0,0,1-1.029-.271,2.581,2.581,0,0,1-.435.7,2.372,2.372,0,0,1-1.514.816,2.128,2.128,0,0,1-.231.012A2.439,2.439,0,0,1,107.733,74a2.529,2.529,0,0,1-.536-.674,4.081,4.081,0,0,1-.333.261,3.4,3.4,0,0,1-1.189.532,2.833,2.833,0,0,1-.614.067,2.755,2.755,0,0,1-1.037-.2,2.335,2.335,0,0,1-.884-.622,2.146,2.146,0,0,1-.515-1.4,1.892,1.892,0,0,1,.493-1.3,1.958,1.958,0,0,1,.923-.513,4.294,4.294,0,0,1,1.125-.135,6.79,6.79,0,0,1,1.385.149h0a6.425,6.425,0,0,1,.87.249,1.364,1.364,0,0,1,.155-.607,1.385,1.385,0,0,1,.415-.471,1.979,1.979,0,0,1,1.16-.343,2.623,2.623,0,0,1,1.208.3m-10.355-9.335c0,.051.009.1.009.153a3.123,3.123,0,0,1-.026.394,3.278,3.278,0,0,1,.671-.07,4.2,4.2,0,0,1,1.815.451,4.035,4.035,0,0,1,1.469,1.214,4.116,4.116,0,0,1,.535.954,2.576,2.576,0,0,1,.335-.18,3.011,3.011,0,0,1,1.2-.244,2.981,2.981,0,0,1,.922.144,2.292,2.292,0,0,1,1.534,2.116,1.873,1.873,0,0,1-.153.748,1.764,1.764,0,0,1-.727.813,1.979,1.979,0,0,1-.957.268,1.865,1.865,0,0,1,.034.34,1.743,1.743,0,0,1-.643,1.351,2.508,2.508,0,0,1-1.625.523h-.054a3.768,3.768,0,0,1-1.5-.361,6.5,6.5,0,0,1-.86-.481c-.081.076-.17.153-.274.233a4.916,4.916,0,0,1-1.159.662,2.632,2.632,0,0,1-.94.2,1.457,1.457,0,0,1-.839-.246,1.278,1.278,0,0,1-.136-.113c-.037.058-.075.114-.116.168a2.27,2.27,0,0,1-1.414.881,2.141,2.141,0,0,1-.372.032,2.427,2.427,0,0,1-1.5-.545,2.474,2.474,0,0,1-.443-.462,3.613,3.613,0,0,1-.825.708,3.66,3.66,0,0,1-1.926.563,3.256,3.256,0,0,1-2.547-1.22A4.905,4.905,0,0,1,88.8,67.8a3.938,3.938,0,0,1-.621.351,3.4,3.4,0,0,1-1.393.311,2.868,2.868,0,0,1-1.514-.426,2.948,2.948,0,0,1-1.068-1.17L70.411,72.909a3.887,3.887,0,0,1,.7.9,4.067,4.067,0,0,1,.532,1.995c0,.027,0,.055,0,.082.1-.045.2-.088.306-.124a4.828,4.828,0,0,1,1.576-.247,6.632,6.632,0,0,1,2.02.326,4.562,4.562,0,0,1,2.1,1.451,4.635,4.635,0,0,1,.906,1.773,7.338,7.338,0,0,1,1.908-.256,5.844,5.844,0,0,1,1.655.225,4.291,4.291,0,0,1,1.775,1.046,3.522,3.522,0,0,1,1.007,1.815,2.858,2.858,0,0,1,.054.555,3.159,3.159,0,0,1-.561,1.784,2.788,2.788,0,0,1-.821.785l.005.008a1.727,1.727,0,0,1,.193.8,1.754,1.754,0,0,1-.084.541,2.325,2.325,0,0,1-.508.846,3.98,3.98,0,0,1-.694.589,6.641,6.641,0,0,1-3.734,1.146,6.432,6.432,0,0,1-1.255-.123,6.634,6.634,0,0,1-3.306-1.751,3.184,3.184,0,0,1-.4.953,3.281,3.281,0,0,1-1.26,1.166,4.219,4.219,0,0,1-1.953.452,5.822,5.822,0,0,1-2.039-.388,11.771,11.771,0,0,1-2.761-1.612,4.647,4.647,0,0,1-1.2,1.6,4.193,4.193,0,0,1-2.448,1q-.148.01-.3.01a4.789,4.789,0,0,1-3.855-2.025,5.978,5.978,0,0,1-4.412,2q-.12,0-.241-.005a5.961,5.961,0,0,1-4.671-2.7,3.1,3.1,0,0,1-.609.064A2.941,2.941,0,0,1,46.267,87a3.115,3.115,0,0,1-1.1-1.572,3,3,0,0,1-.138-.905,3.3,3.3,0,0,1,.064-.628c-9.956,3.833-23.453,6.985-29.394-2.974-3.706-6.13-1.292-15.567,4.166-24.346,1.158-1.775,2.416-3.523,3.739-5.247-.134.01-.268.017-.4.018a4.219,4.219,0,0,1-1.953-.452,3.28,3.28,0,0,1-1.26-1.166,3.185,3.185,0,0,1-.4-.953,6.633,6.633,0,0,1-3.306,1.751,6.43,6.43,0,0,1-1.255.123A6.641,6.641,0,0,1,11.293,49.5a3.98,3.98,0,0,1-.694-.589,2.326,2.326,0,0,1-.508-.846,1.751,1.751,0,0,1-.084-.541,1.729,1.729,0,0,1,.193-.8l.005-.008a2.783,2.783,0,0,1-.821-.785,3.157,3.157,0,0,1-.561-1.784,2.861,2.861,0,0,1,.054-.555,3.523,3.523,0,0,1,1.007-1.815,4.291,4.291,0,0,1,1.775-1.046,5.836,5.836,0,0,1,1.655-.225,7.34,7.34,0,0,1,1.908.256,4.635,4.635,0,0,1,.906-1.773,4.56,4.56,0,0,1,2.1-1.451,6.627,6.627,0,0,1,2.02-.327,4.828,4.828,0,0,1,1.576.247c.1.036.205.079.306.124,0-.027,0-.055,0-.083a4.068,4.068,0,0,1,.532-1.995,3.723,3.723,0,0,1,1.478-1.461,3.669,3.669,0,0,1,1.722-.416,4.1,4.1,0,0,1,1.806.423,3.945,3.945,0,0,1,.4.228A5.324,5.324,0,0,1,29.106,31.1a4.7,4.7,0,0,1,1.6-1.329,4.471,4.471,0,0,1,2.019-.5,3.916,3.916,0,0,1,2.846,1.216,3.791,3.791,0,0,1,.962,1.685,4.626,4.626,0,0,1,.684-.052,5.141,5.141,0,0,1,1.765.324l3.926-11.005,8.733-.112-1.432,15.34,5.55-15.281L64,21.411,53.009,52.054a3.417,3.417,0,0,1,1.351-.286,3.138,3.138,0,0,1,.385.024c.054.007.106.019.159.028l10.879-30.36,8.028.037-12.5,34.91-1.9-.016c.032.052.066.1.094.157a2.6,2.6,0,0,1,.288,1.186,2.31,2.31,0,0,1-.135.79,1.952,1.952,0,0,1-.441.7,1.8,1.8,0,0,1-1.278.514,1.771,1.771,0,0,1-.811-.19c-.019-.01-.036-.023-.054-.033a3.207,3.207,0,0,1-2.645,1.457,2.81,2.81,0,0,1-.508-.046,3.05,3.05,0,0,1-1.782-1.077c-.058-.071-.114-.145-.166-.221-.044.056-.089.11-.137.161a2.522,2.522,0,0,1-1.469.8,2.811,2.811,0,0,1-.4.029,3.331,3.331,0,0,1-1.6-.436,4.4,4.4,0,0,1-.742-.521,2.8,2.8,0,0,1-.9.87,3.616,3.616,0,0,1-1.878.513,3.376,3.376,0,0,1-1.647-.41,2.6,2.6,0,0,1-1.162-1.313,2.517,2.517,0,0,1-.173-.934,3.079,3.079,0,0,1,.349-1.4,2.831,2.831,0,0,1,.961-1.082,1.35,1.35,0,0,1,.257-.123l.312-5.071c-.151.115-.305.224-.466.324a5.857,5.857,0,0,1-2.82.887q-.12.005-.241.005c-.088,0-.176,0-.264-.009l-1.555,4.317-7.9.025,1.538-4.31-.083,0q-.147,0-.3-.01a4.191,4.191,0,0,1-2.448-1,4.544,4.544,0,0,1-.87-1c-1.586,5.461-1.8,11.9,3.49,15.966,3.577,2.8,9.8,3.133,17.5.983L87.194,56.47,76.478,56.4,76.5,41.387,71.217,56.273l-8.1.064,12.517-34.8,5.338-.029a3.181,3.181,0,0,1,.8-2.1A3.225,3.225,0,0,1,84.148,18.4a3.293,3.293,0,0,1,.9.126c-.009-.136-.016-.272-.016-.408a6.735,6.735,0,0,1,2.042-4.742,8.291,8.291,0,0,1,2.115-1.519,5.677,5.677,0,0,1,2.5-.612,4.905,4.905,0,0,1,.75.06,3.994,3.994,0,0,1,1.022-1.8,4.135,4.135,0,0,1,3-1.283,4.725,4.725,0,0,1,2.133.525,4.973,4.973,0,0,1,1.693,1.4,5.64,5.64,0,0,1,1.108,3.418v.007a4.169,4.169,0,0,1,.467-.273,4.324,4.324,0,0,1,1.907-.446,3.871,3.871,0,0,1,1.816.439,3.925,3.925,0,0,1,1.559,1.542,4.3,4.3,0,0,1,.562,2.106c0,.045,0,.089-.006.134a3.95,3.95,0,0,1,.368-.15,5.1,5.1,0,0,1,1.666-.261,7.021,7.021,0,0,1,2.139.346,4.818,4.818,0,0,1,2.215,1.534,4.894,4.894,0,0,1,.965,1.9,7.769,7.769,0,0,1,2.051-.28,6.187,6.187,0,0,1,1.751.238,4.532,4.532,0,0,1,1.875,1.1,3.717,3.717,0,0,1,1.062,1.914,3.018,3.018,0,0,1,.056.585,3.329,3.329,0,0,1-.591,1.879,2.926,2.926,0,0,1-.89.843c.006.011.014.021.02.032a1.81,1.81,0,0,1,.2.84,1.843,1.843,0,0,1-.088.566,2.44,2.44,0,0,1-.533.888,4.2,4.2,0,0,1-.732.622,7.031,7.031,0,0,1-3.953,1.214,6.809,6.809,0,0,1-1.329-.13,7.025,7.025,0,0,1-3.539-1.891,3.346,3.346,0,0,1-.435,1.056,3.458,3.458,0,0,1-1.328,1.228,4.455,4.455,0,0,1-2.063.478,6.162,6.162,0,0,1-2.157-.411,12.58,12.58,0,0,1-2.959-1.733,4.929,4.929,0,0,1-1.232,1.678L98.863,35l7.088.018L103.8,41.265l-7.18-.085-2.86,8.355,8.585-.126-1.066,3.3L141.24,41.888Z" transform="translate(-4.866 -4.865)" fill="#d0cfcd"/>
    <path id="패스_20254" data-name="패스 20254" d="M56.214,156.185a.483.483,0,0,1-.6-.42,2.739,2.739,0,0,0-.789-1.627,2.952,2.952,0,0,0-2.154-.923,3.51,3.51,0,0,0-1.581.392,3.74,3.74,0,0,0-1.272,1.054,4.37,4.37,0,0,0-.85,2.646,4.821,4.821,0,0,0,.127,1.1.483.483,0,0,1-.869.383,2.724,2.724,0,0,0-1.05-.9,3.136,3.136,0,0,0-1.378-.323,2.705,2.705,0,0,0-1.269.3,2.757,2.757,0,0,0-1.091,1.085,3.105,3.105,0,0,0-.406,1.518,2.634,2.634,0,0,0,.18.971.483.483,0,0,1-.8.506,2.322,2.322,0,0,0-.961-.606,3.868,3.868,0,0,0-1.26-.194,5.675,5.675,0,0,0-1.721.279,3.681,3.681,0,0,0-2.451,2.986.483.483,0,0,1-.646.4,6.279,6.279,0,0,0-2.112-.367,4.892,4.892,0,0,0-1.379.185,3.328,3.328,0,0,0-1.372.808,2.56,2.56,0,0,0-.738,1.315,1.893,1.893,0,0,0-.035.368,2.2,2.2,0,0,0,.389,1.233,1.669,1.669,0,0,0,.97.7.483.483,0,0,1,.094.906.415.415,0,0,0-.187.191.768.768,0,0,0-.082.353.789.789,0,0,0,.037.243,1.364,1.364,0,0,0,.3.493,3.034,3.034,0,0,0,.526.443,5.678,5.678,0,0,0,3.188.977,5.46,5.46,0,0,0,1.067-.1,5.672,5.672,0,0,0,3.6-2.435.483.483,0,0,1,.865.41,1.788,1.788,0,0,0-.083.543,2.117,2.117,0,0,0,.335,1.117,2.317,2.317,0,0,0,.887.822,3.254,3.254,0,0,0,1.508.344,4.693,4.693,0,0,0,1.289-.19c2.466-3.128,5.131-6.183,7.809-9.186a39.708,39.708,0,0,0-3.554,7.611,3.746,3.746,0,0,0,1.079,1.593,3.221,3.221,0,0,0,1.888.771q.114.008.229.008a3.417,3.417,0,0,0,.437-.03L58.6,156.331a4.179,4.179,0,0,0-1.441-.268,3.67,3.67,0,0,0-.945.123" transform="translate(-24.806 -127.845)" fill="#fff"/>
    <path id="패스_20255" data-name="패스 20255" d="M217.469,220.565l.585-9.514c-.032,0-.063,0-.1,0h-.005l-4.015,11.147.117,0a4.893,4.893,0,0,0,2.352-.743,5.039,5.039,0,0,0,1.061-.883" transform="translate(-178.513 -176.099)" fill="#fff"/>
    <path id="패스_20256" data-name="패스 20256" d="M503.806,342.817a1.553,1.553,0,0,0,1.008-.3.77.77,0,0,0,.294-.609,1.28,1.28,0,0,0-.415-.869l0,0a.477.477,0,0,1-.125-.244v0a.482.482,0,0,1,0-.189v0a.48.48,0,0,1,.074-.17.488.488,0,0,1,.061-.073.47.47,0,0,1,.075-.059.48.48,0,0,1,.171-.068h0a.487.487,0,0,1,.188,0h0a.479.479,0,0,1,.241.133l0,0a.833.833,0,0,0,.607.238,1.02,1.02,0,0,0,.513-.138.793.793,0,0,0,.332-.367.9.9,0,0,0,.073-.362,1.328,1.328,0,0,0-.868-1.2,2.012,2.012,0,0,0-.622-.1,2.053,2.053,0,0,0-.812.163,1.384,1.384,0,0,0-.58.45.483.483,0,0,1-.868-.2,3.123,3.123,0,0,0-1.694-2.251,3.238,3.238,0,0,0-1.4-.355,2.39,2.39,0,0,0-1.186.317.483.483,0,0,1-.659-.654,1.9,1.9,0,0,0,.216-.68l-13.936,6.1a1.967,1.967,0,0,0,.684.737,1.9,1.9,0,0,0,1.009.283,2.442,2.442,0,0,0,1-.226,3.043,3.043,0,0,0,.885-.61.483.483,0,0,1,.8.188,4.648,4.648,0,0,0,.767,1.475,2.291,2.291,0,0,0,1.8.87,2.7,2.7,0,0,0,1.415-.416,2.506,2.506,0,0,0,.969-1.085.483.483,0,0,1,.915.109,1.361,1.361,0,0,0,.5.8,1.466,1.466,0,0,0,.9.333,1.158,1.158,0,0,0,.2-.018,1.3,1.3,0,0,0,.812-.513,1.612,1.612,0,0,0,.323-.961c0-.025,0-.051,0-.077,0,0,0-.006,0-.009a.509.509,0,0,1,0-.087c0-.01.005-.02.007-.029a.472.472,0,0,1,.016-.062c0-.013.011-.024.017-.036a.477.477,0,0,1,.023-.048.488.488,0,0,1,.125-.138.5.5,0,0,1,.048-.029c.011-.006.02-.014.032-.019a.48.48,0,0,1,.063-.023c.009,0,.017-.007.026-.009a.487.487,0,0,1,.1-.015.482.482,0,0,1,.1,0l.027.007a.467.467,0,0,1,.065.017c.012,0,.023.011.034.016a.472.472,0,0,1,.05.024.485.485,0,0,1,.138.125.5.5,0,0,1,.028.046c.007.011.015.022.02.034a.5.5,0,0,1,.022.06c0,.01.008.019.011.029a.514.514,0,0,1,.012.081s0,.009,0,.014a1.54,1.54,0,0,0,.151.664.4.4,0,0,0,.209.2.592.592,0,0,0,.216.035,1.854,1.854,0,0,0,.7-.18,4.049,4.049,0,0,0,.729-.423,2.874,2.874,0,0,0,.325-.27l.023-.024a.467.467,0,0,1,.032-.1.478.478,0,0,1,.047-.082.491.491,0,0,1,.063-.071.471.471,0,0,1,.594-.049l.017.009h0a6.541,6.541,0,0,0,1.1.659,2.807,2.807,0,0,0,1.116.276Z" transform="translate(-404.276 -279.723)" fill="#fff"/>
    <path id="패스_20257" data-name="패스 20257" d="M500.719,40.5a2.753,2.753,0,0,0-.793-1.414,3.57,3.57,0,0,0-1.472-.866,5.214,5.214,0,0,0-1.475-.2,6.7,6.7,0,0,0-2.256.392.483.483,0,0,1-.646-.4,3.945,3.945,0,0,0-2.628-3.2,6.065,6.065,0,0,0-1.84-.3,4.149,4.149,0,0,0-1.35.208,2.5,2.5,0,0,0-1.034.653.483.483,0,0,1-.8-.506,2.831,2.831,0,0,0,.194-1.044,3.335,3.335,0,0,0-.436-1.629,2.965,2.965,0,0,0-1.172-1.166,2.91,2.91,0,0,0-1.364-.326,3.362,3.362,0,0,0-1.479.346,2.926,2.926,0,0,0-1.129.963.483.483,0,0,1-.869-.383,5.157,5.157,0,0,0,.136-1.179,4.679,4.679,0,0,0-.91-2.832,4,4,0,0,0-1.363-1.129,3.759,3.759,0,0,0-1.695-.42,3.169,3.169,0,0,0-2.313.991,2.938,2.938,0,0,0-.847,1.748.483.483,0,0,1-.6.42,3.935,3.935,0,0,0-1.013-.132,4.718,4.718,0,0,0-2.072.513,7.337,7.337,0,0,0-1.866,1.344,5.777,5.777,0,0,0-1.751,4.051A4.787,4.787,0,0,0,466,36.116a.483.483,0,0,1-.745.508,2.165,2.165,0,0,0-1.236-.369,2.265,2.265,0,0,0-1.663.694,2.218,2.218,0,0,0-.548,1.444l1.721-.009-2.442,6.434c.047.041.091.086.14.123a2.122,2.122,0,0,0,1.048.41l5.648-6.891,22.639.051-2.3,6.474-7.024-.037-.067.185a.48.48,0,0,1,.243.091,13.686,13.686,0,0,0,3.235,1.983,5.2,5.2,0,0,0,1.816.349,3.49,3.49,0,0,0,1.618-.369,2.494,2.494,0,0,0,.954-.885,2.281,2.281,0,0,0,.361-1.2,1.932,1.932,0,0,0-.09-.587.483.483,0,0,1,.865-.41,6.062,6.062,0,0,0,3.845,2.6,5.85,5.85,0,0,0,1.141.111,6.068,6.068,0,0,0,3.407-1.044,3.257,3.257,0,0,0,.565-.476,1.485,1.485,0,0,0,.328-.536.879.879,0,0,0,.041-.268.847.847,0,0,0-.091-.389.471.471,0,0,0-.213-.216.483.483,0,0,1,.094-.906,1.806,1.806,0,0,0,1.049-.754,2.367,2.367,0,0,0,.419-1.328,2.055,2.055,0,0,0-.038-.4" transform="translate(-384.736 -21.755)" fill="#fff"/>
    <path id="패스_20258" data-name="패스 20258" d="M505.037,113.489a5.224,5.224,0,0,0,1.891-1.687.479.479,0,0,1,.245-.184l2.337-6.518-.577.6-6.861,8.39c.1.01.2.019.293.023q.107,0,.213,0a5.278,5.278,0,0,0,2.459-.625" transform="translate(-418.935 -87.697)" fill="#fff"/>
    <path id="패스_20259" data-name="패스 20259" d="M285.59,396.739a3.328,3.328,0,0,0-1.372-.808,4.881,4.881,0,0,0-1.379-.185,6.272,6.272,0,0,0-2.112.367.483.483,0,0,1-.646-.4,3.681,3.681,0,0,0-2.451-2.986,5.668,5.668,0,0,0-1.721-.279,3.87,3.87,0,0,0-1.26.194,2.321,2.321,0,0,0-.961.606.483.483,0,0,1-.8-.506,2.635,2.635,0,0,0,.18-.971,3.106,3.106,0,0,0-.406-1.518,2.76,2.76,0,0,0-1.091-1.085,2.7,2.7,0,0,0-1.269-.3,3.131,3.131,0,0,0-1.378.323,2.723,2.723,0,0,0-1.05.9A.483.483,0,0,1,267,389.7a4.821,4.821,0,0,0,.127-1.1,4.37,4.37,0,0,0-.85-2.646,3.737,3.737,0,0,0-1.272-1.054,3.507,3.507,0,0,0-1.581-.392,2.951,2.951,0,0,0-2.154.924,2.735,2.735,0,0,0-.789,1.627.483.483,0,0,1-.6.42,3.676,3.676,0,0,0-.945-.123,4.407,4.407,0,0,0-1.936.48,6.865,6.865,0,0,0-1.747,1.258,5.4,5.4,0,0,0-1.638,3.788,4.482,4.482,0,0,0,.12,1.036.483.483,0,0,1-.745.508,2.009,2.009,0,0,0-1.146-.342,2.1,2.1,0,0,0-1.543.643,2.142,2.142,0,0,0-.056,2.705.483.483,0,0,1-.23.773,2.238,2.238,0,0,0-1.166.874,2.5,2.5,0,0,0-.462,1.418,2.036,2.036,0,0,0,.093.614,2.151,2.151,0,0,0,.757,1.089,1.974,1.974,0,0,0,1.188.393,2.185,2.185,0,0,0,.687-.113.482.482,0,0,1,.575.226,4.983,4.983,0,0,0,4.06,2.523q.1,0,.2,0a4.934,4.934,0,0,0,2.3-.584,4.88,4.88,0,0,0,1.768-1.577.483.483,0,0,1,.838.064,3.682,3.682,0,0,0,1.379,1.534,3.755,3.755,0,0,0,1.983.589q.115,0,.229-.008a3.222,3.222,0,0,0,1.888-.771,3.783,3.783,0,0,0,1.141-1.771.483.483,0,0,1,.75-.244,12.845,12.845,0,0,0,3.035,1.861,4.862,4.862,0,0,0,1.7.326,3.254,3.254,0,0,0,1.508-.344,2.317,2.317,0,0,0,.887-.822,2.116,2.116,0,0,0,.335-1.117,1.785,1.785,0,0,0-.083-.543.483.483,0,0,1,.865-.41,5.672,5.672,0,0,0,3.6,2.435,5.482,5.482,0,0,0,1.067.1,5.678,5.678,0,0,0,3.188-.977,3.035,3.035,0,0,0,.526-.443,1.365,1.365,0,0,0,.3-.493.791.791,0,0,0,.037-.243.769.769,0,0,0-.082-.353.415.415,0,0,0-.187-.191.483.483,0,0,1,.094-.906,1.669,1.669,0,0,0,.97-.7,2.2,2.2,0,0,0,.389-1.233,1.909,1.909,0,0,0-.035-.368,2.561,2.561,0,0,0-.738-1.315" transform="translate(-207.254 -320.84)" fill="#fff"/>
    <path id="패스_20260" data-name="패스 20260" d="M233.411,295.052a.483.483,0,0,1,.832-.185,3.645,3.645,0,0,0,.992.818,2.368,2.368,0,0,0,1.134.317,1.845,1.845,0,0,0,.266-.019,1.564,1.564,0,0,0,.9-.495,1.442,1.442,0,0,0,.353-.646,2.883,2.883,0,0,1-.064-.588q0-.073,0-.146a.483.483,0,0,1,.935-.143,1.862,1.862,0,0,1,.117.652c0,.06,0,.119-.01.178a2.241,2.241,0,0,0,.423.793,2.088,2.088,0,0,0,1.211.741,1.841,1.841,0,0,0,.334.03,2.2,2.2,0,0,0,1.253-.412,2.065,2.065,0,0,0,.786-1.036.483.483,0,0,1,.888-.075.484.484,0,0,0,.215.207.812.812,0,0,0,.368.083.839.839,0,0,0,.59-.225.988.988,0,0,0,.222-.358,1.351,1.351,0,0,0,.077-.46,1.641,1.641,0,0,0-.18-.742,2.857,2.857,0,0,0-.662-.795,4.631,4.631,0,0,0-.92-.623.484.484,0,0,1-.264-.419,2.581,2.581,0,0,0-2.174-2.4,2.173,2.173,0,0,0-.267-.016,2.568,2.568,0,0,0-1.512.521,2.459,2.459,0,0,0-.916,1.3.483.483,0,0,1-.776.241,3,3,0,0,0-1.917-.679,2.877,2.877,0,0,0-1.118.221,3.016,3.016,0,0,0-1.789,2.494c0,.009,0,.018,0,.027a.441.441,0,0,1-.1.233h0a.482.482,0,0,1-.065.069h0a.487.487,0,0,1-.351.116.473.473,0,0,1-.094-.016.483.483,0,0,1-.237-.15h0a.49.49,0,0,1-.054-.077v0a.477.477,0,0,1-.058-.176.468.468,0,0,1,0-.09.038.038,0,0,1,0,0h0v-.022c0-.046-.007-.047-.011-.055a.19.19,0,0,0-.073-.053,1.364,1.364,0,0,0-.57-.1,3.128,3.128,0,0,0-.9.135.753.753,0,0,0-.124.05h0a1.871,1.871,0,0,0-.627.715,2.119,2.119,0,0,0-.241.958,1.555,1.555,0,0,0,.1.576,1.63,1.63,0,0,0,.738.829,2.414,2.414,0,0,0,1.174.287,2.656,2.656,0,0,0,1.372-.37,1.717,1.717,0,0,0,.789-1.006" transform="translate(-191.275 -241.215)" fill="#fff"/>
    <path id="패스_20261" data-name="패스 20261" d="M605.748,393.052a1.493,1.493,0,0,0-.528-.11h-.05a1.326,1.326,0,0,0-.7.207,1.3,1.3,0,0,0-.487.536.483.483,0,0,1-.854.035,1.482,1.482,0,0,0-.6-.57,1.663,1.663,0,0,0-.76-.189,1.157,1.157,0,0,0-.486.1.491.491,0,0,0-.237.2.4.4,0,0,0-.044.194.911.911,0,0,0,.072.329,2.236,2.236,0,0,0,.284.493s.006.01.009.015a.5.5,0,0,1,.039.067.481.481,0,0,1,.045.182h0a.482.482,0,0,1-.029.186h0a.48.48,0,0,1-.1.16.488.488,0,0,1-.071.064.484.484,0,0,1-.359.088.489.489,0,0,1-.092-.024h0a.458.458,0,0,1-.213-.156l-.01-.011a.928.928,0,0,0-.2-.189,2.305,2.305,0,0,0-.365-.211,4.813,4.813,0,0,0-1.044-.338l.1-.472-.1.472a5.836,5.836,0,0,0-1.186-.129,3.35,3.35,0,0,0-.869.1,1.026,1.026,0,0,0-.475.243.928.928,0,0,0-.232.643,1.187,1.187,0,0,0,.277.767,1.37,1.37,0,0,0,.52.363,1.794,1.794,0,0,0,.672.128,1.86,1.86,0,0,0,.4-.044,2.428,2.428,0,0,0,.85-.383,3.489,3.489,0,0,0,.722-.68.483.483,0,0,1,.857.26,1.413,1.413,0,0,0,.484.908,1.479,1.479,0,0,0,.965.391,1.169,1.169,0,0,0,.127-.007,1.41,1.41,0,0,0,.891-.491,1.487,1.487,0,0,0,.381-.959,1.2,1.2,0,0,0-.009-.15.483.483,0,0,1,.946-.184.635.635,0,0,0,.294.378,1.108,1.108,0,0,0,.579.157,1.071,1.071,0,0,0,.39-.07.777.777,0,0,0,.293-.2,1.763,1.763,0,0,0,.473-1.161,1.117,1.117,0,0,0-.144-.573.9.9,0,0,0-.431-.37" transform="translate(-497.484 -327.875)" fill="#fff"/>
  </g>
</svg>
