<svg id="NEM_11" xmlns="http://www.w3.org/2000/svg" width="158.636" height="30.369" viewBox="0 0 158.636 30.369">
  <path id="패스_20317" data-name="패스 20317" d="M1393.551,106.144l-7.909.9-.02-.02c.226.237,6.52,7.445-6.168,14.4l7.109,2.3c14.423-10.583,7.308-17.263,6.988-17.581" transform="translate(-1335.703 -93.701)" fill="#0092e5"/>
  <path id="패스_20318" data-name="패스 20318" d="M1381.372,100.11c1.279.938,3.635,1.411,7.016,1.411q.665,0,1.383-.024c4.316-.148,6.927-.777,7.758-1.873.572-.753.118-1.586-1.215-2.227a17.947,17.947,0,0,0-8.221-1.1l-.15-1.541a10.454,10.454,0,0,0-6.625,2.309c-1.125,1.083-1.105,2.192.055,3.043m3.9-1.591c.139-.291.616-.525.8-.769l.86,2.374c2.333-.553,6.294-.537,7.255.048a9.826,9.826,0,0,1-4.355.872c-3.531.111-4.233-.571-4.471-.951a1.715,1.715,0,0,1-.085-1.573" transform="translate(-1336.013 -90.279)" fill="#0092e5"/>
  <path id="패스_20319" data-name="패스 20319" d="M1510.8,109.17c-8.232,5.983-21.413,6.36-25.257,6.334-5.31-.037-8.6-.8-9.135-1.2-1.1-1.282-.319-1.88-.025-2.106,1.189-.913,6.267-3.083,27.673-3.51l-.018-3.2H1504l-4.04-.106c-17.457-.626-26.089-3.29-27.456-4.947-.185-.225-.531-.644.907-1.361.337-.168,1.8-.707,6.476-.6a114.2,114.2,0,0,1,12.588,1.159c8.765,1.215,16.727,2.944,16.806,2.961l1.745-1.9,1.745-1.9c-.344-.075-8.671-1.469-18.012-2.769-13.966-1.943-22.851-2.157-27.451.136-3.386,1.688-3.764,3.247-1.736,5.172,2.459,2.335,13.777,3.866,24.352,4.316-.9.127-7.3.149-11.162.883s-7.724,2.006-9.576,3.429c-1.585,1.217-2.979,3.24-.617,5.967,1.715,1.979,6.8,4.224,13.992,4.56,1.047.048,2.144.074,3.28.074,10.24,0,25.63-1.916,34-8Z" transform="translate(-1361.204 -90.208)" fill="#0092e5"/>
  <path id="패스_20320" data-name="패스 20320" d="M1444.277,105.26a19.85,19.85,0,0,0-3.221-1.817,21.4,21.4,0,0,0,3.4-3.653,21.04,21.04,0,0,0,3.84-8.854l-9.7-.269a11.231,11.231,0,0,1-2.23,7.794,16.935,16.935,0,0,1-2.305,2.834c-9.005-1.518-15.348-1.06-20.955.614-.433.129-1.031.309-1.673.541,1.687-5.929,6.413-10.376,6.484-10.467l-7.947-1.316c-.564.717-13.653,17.687-1.34,28.676l7.533-2.136a14.663,14.663,0,0,1-5.181-8.825,16.268,16.268,0,0,0,1.841.51,41.481,41.481,0,0,0,9.04.725c4.182-.045,8.58-.023,14.231-3.685,1.315,1.058,6.33,5.822-.765,11.281l9.251,1.862c2.645-2.732,3.892-5.354,3.7-7.793-.172-2.24-1.523-4.266-4.015-6.022m-23.511.482a18.122,18.122,0,0,1-9.595-2.208l.021-.1a35.3,35.3,0,0,1,11.51-2.211c5.887-.122,9.238,2.11,9.238,2.11-1.936,1.533-3.948,2.193-11.175,2.4" transform="translate(-1342.891 -89.05)" fill="#0092e5"/>
  <path id="패스_20321" data-name="패스 20321" d="M1361.791,100.545a63.265,63.265,0,0,0-3.367-10.86l-11.935,1.056c.021.049,4.525,5.03,5.637,10.48,2.3,11.259-3.182,14.189-6.922,13.691-.206-.027-4.943-.173-11.79-10.465.227-7.279-2.513-11.751-3.525-13.014-1.468-1.833-5.145-4.646-7.024-1.983-1.008,1.429-.514,4.287,1.429,6.79,1.514,1.951,3.31,4.554,3.31,4.554-.069,5.641-4.178,10.006-10.693,14.891l7.156,2.264a31.293,31.293,0,0,0,9.032-9.868c5.122,6.784,10.786,9.973,17.595,9.973a14.645,14.645,0,0,0,7.489-1.773c4.1-2.453,5.276-7.6,3.609-15.736m-37.172-9.111c1.9.229,3.3,7.4,3.3,7.4s-6.261-7.762-3.3-7.4" transform="translate(-1316.911 -88.356)" fill="#0092e5"/>
</svg>
