<svg xmlns="http://www.w3.org/2000/svg" width="138.898" height="86.385" viewBox="0 0 138.898 86.385">
  <g id="NEM_6" transform="translate(0 0)">
    <path id="패스_20532" data-name="패스 20532" d="M117.687,608.728H21.211A15.541,15.541,0,0,0,5.67,624.27v43.963a15.541,15.541,0,0,0,15.541,15.541h96.476a15.542,15.542,0,0,0,15.542-15.541V624.27a15.542,15.542,0,0,0-15.542-15.542" transform="translate(0 -603.059)" fill="#0d0002"/>
    <path id="패스_20533" data-name="패스 20533" d="M62.73,621.267a.234.234,0,1,1,.228.408,6.272,6.272,0,0,0-1.483,1.1,2.253,2.253,0,0,0-.7,1.531v.016a3.4,3.4,0,0,0,.34,1.342.234.234,0,0,1-.432.18c-.043-.1-.085-.208-.125-.314a1.7,1.7,0,0,0-.236.21c-.142.15-.276.329-.407.481a6.512,6.512,0,0,0-1.484,3.745,3.689,3.689,0,0,1,1.588-.879.234.234,0,0,1,.124.451,3.162,3.162,0,0,0-1.514.893,2.375,2.375,0,0,0-.235.309.162.162,0,0,1-.019.031,2.106,2.106,0,0,0-.321,1.122,2.632,2.632,0,0,0,.255,1.1.234.234,0,1,1-.425.194c-.047-.1-.087-.2-.122-.3a2.638,2.638,0,0,0-.638.6,3.663,3.663,0,0,0-.535,1.081,2.879,2.879,0,0,0-.148.9,3.691,3.691,0,0,0,.47,1.693,18.232,18.232,0,0,0,1.033,1.651.234.234,0,0,1-.39.258,18.971,18.971,0,0,1-1.039-1.658,14.579,14.579,0,0,0-1.529,1.917,6.2,6.2,0,0,0-.991,2.464A8.172,8.172,0,0,0,53.9,642.9a3.223,3.223,0,0,0,.052.611,1.166,1.166,0,0,0,.11.321h4.116a3.274,3.274,0,0,0,.608-.068,1.97,1.97,0,0,0,.928-.425.977.977,0,0,0,.312-.606,5.7,5.7,0,0,0,.051-.754,4.552,4.552,0,0,0-.244-1.524,4.044,4.044,0,0,1-.693.3.234.234,0,0,1-.14-.447,3.913,3.913,0,0,0,2.252-1.938,6.288,6.288,0,0,0,.731-2.823,4.155,4.155,0,0,1-1.822.395.233.233,0,1,1,0-.467,3.634,3.634,0,0,0,1.692-.383,2.167,2.167,0,0,0,1.058-1.268,1.461,1.461,0,0,0,.058-.435,2.418,2.418,0,0,0-.427-1.368.234.234,0,1,1,.377-.276,2.486,2.486,0,0,1,.274.486,5.28,5.28,0,0,0,1.208-1.17,2.981,2.981,0,0,0,.581-1.659c0-.052,0-.106,0-.16a2.165,2.165,0,0,0-.056-.528.763.763,0,0,0-.17-.331,2.866,2.866,0,0,1-.427.328.234.234,0,0,1-.247-.4,2.869,2.869,0,0,0,1-1.141,3.448,3.448,0,0,0,.384-1.553A2.318,2.318,0,0,0,65,624.146a.234.234,0,1,1,.364-.293,2.772,2.772,0,0,1,.578,1.749,7.812,7.812,0,0,0,.766-.831,2.287,2.287,0,0,0,.532-1.417c0-.069,0-.139-.01-.211a4.155,4.155,0,0,0-.331-1.317,2.766,2.766,0,0,1-.624.074h-.043a.234.234,0,0,1,0-.468h.043a2.31,2.31,0,0,0,1.455-.516,1.566,1.566,0,0,0,.547-1.755,1.339,1.339,0,0,0-.223-.42.959.959,0,0,0-.324-.277.5.5,0,0,0-.216-.053.48.48,0,0,0-.315.128c-.006.005-.013.006-.018.01a.2.2,0,0,1-.041.022.208.208,0,0,1-.042.014.3.3,0,0,1-.043.005.223.223,0,0,1-.045,0,.208.208,0,0,1-.041-.012.24.24,0,0,1-.043-.02l-.018-.009a2.922,2.922,0,0,0-1.777-.614,3.389,3.389,0,0,0-2.357,1.034,3.452,3.452,0,0,0-1.041,2.415,3.151,3.151,0,0,0,.043.509,8.317,8.317,0,0,1,.958-.623" transform="translate(0 -603.059)" fill="#fff"/>
    <path id="패스_20534" data-name="패스 20534" d="M128.027,630.73l-.364.092c-1.051.265-2.492.632-4.052,1.036-3.119.808-6.718,1.768-8.613,2.368a20.655,20.655,0,0,0-2.674,1c-.091.044-.167.083-.236.12.257.054.511.113.762.181a.234.234,0,0,1-.123.451,12.8,12.8,0,0,0-1.271-.274h0a14.767,14.767,0,0,0-2.393-.191,16.425,16.425,0,0,0-7.383,1.744c-.109.056-.36.183-.656.346s-.637.361-.918.552a3.125,3.125,0,0,0-.445.354l-.01.012c.436.04.863.094,1.272.159a.234.234,0,0,1-.073.462,16.635,16.635,0,0,0-2.6-.218,9.769,9.769,0,0,0-3.265.5,5.442,5.442,0,0,0-2.576,1.826.233.233,0,0,1-.325.046,2.254,2.254,0,0,1-.444.678,2.278,2.278,0,0,1-1.613.664,2.1,2.1,0,0,1-.262-.018,2.094,2.094,0,0,1-.324.749,2.735,2.735,0,0,1-.713.7,3.421,3.421,0,0,1-1.884.6,2.538,2.538,0,0,1-.511-.05,2.161,2.161,0,0,1-.695-.271c-.195-.117-.362-.249-.554-.387a.234.234,0,1,1,.272-.38c.2.145.362.27.522.365a1.673,1.673,0,0,0,.55.215,2,2,0,0,0,.416.04,2.889,2.889,0,0,0,1.241-.3,2.483,2.483,0,0,0,.97-.8,1.63,1.63,0,0,0,.255-.594,1.985,1.985,0,0,1-.417-.2.234.234,0,0,1,.254-.393,1.617,1.617,0,0,0,.88.25,1.811,1.811,0,0,0,1.279-.524,1.9,1.9,0,0,0,.414-.7,3.233,3.233,0,0,0,.172-.835c.005-.075.009-.151.009-.228a1.59,1.59,0,0,0-.23-.905,1.568,1.568,0,0,0-.653-.533,2.066,2.066,0,0,0-.843-.17,2.394,2.394,0,0,0-1.437.467.234.234,0,0,1-.069.034,1.277,1.277,0,0,1,.232.5.234.234,0,0,1-.458.1.78.78,0,0,0-.18-.361,1.039,1.039,0,0,0-.342-.247,2.562,2.562,0,0,0-1.051-.193,3.991,3.991,0,0,0-1.456.265c-.1.045-.366.173-.6.286l-.436.215c-.008,0-.018,0-.026.007a.185.185,0,0,1-.046.012.158.158,0,0,1-.043,0,.214.214,0,0,1-.086-.021.205.205,0,0,1-.038-.022.2.2,0,0,1-.034-.031.192.192,0,0,1-.021-.019c0-.005,0-.012-.008-.018s-.009-.009-.012-.015a.2.2,0,0,1-.007-.026.241.241,0,0,1-.012-.046.3.3,0,0,1,0-.043.213.213,0,0,1,.006-.044.248.248,0,0,1,.015-.041.185.185,0,0,1,.022-.039.2.2,0,0,1,.031-.034.12.12,0,0,1,.019-.02A6.088,6.088,0,0,0,86,636.617a7.145,7.145,0,0,0,.688-3,5.569,5.569,0,0,0-.226-1.6.234.234,0,1,1,.448-.134,5.584,5.584,0,0,1,.177.808.237.237,0,0,1,.041.048,1.081,1.081,0,0,0,.294.356,1.106,1.106,0,0,0,.365.182,3.15,3.15,0,0,0,.877.084h.016a5.294,5.294,0,0,0,2.092-.449,3.412,3.412,0,0,0,1.586-1.314.234.234,0,1,1,.4.237,3.421,3.421,0,0,1-.982,1.041,1.243,1.243,0,0,0,.331.239,1.154,1.154,0,0,0,.508.113,1.79,1.79,0,0,0,.809-.218,2.928,2.928,0,0,0,.767-.59,2.627,2.627,0,0,0,.77-1.71,1.451,1.451,0,0,0-.177-.711,1.563,1.563,0,0,0-.315-.39c-.015.081-.032.163-.05.249a.234.234,0,0,1-.458-.095,4.157,4.157,0,0,0,.117-.812,1.125,1.125,0,0,0-.09-.461,1.648,1.648,0,0,0-.346-.483,2.473,2.473,0,0,0-1.784-.727,2.662,2.662,0,0,0-.345.022,5.338,5.338,0,0,0-2.367.9c-.129.128-.261.254-.4.379a.234.234,0,1,1-.311-.35l.014-.013a.239.239,0,0,1,.06-.1,4.029,4.029,0,0,1,.335-.273,6.719,6.719,0,0,0,1.3-1.748,5.57,5.57,0,0,0,.574-2.537,7.639,7.639,0,0,0-.062-.958.234.234,0,0,1,.464-.058,8.151,8.151,0,0,1,.066,1.016v.045a2.663,2.663,0,0,0,.372.226,1.452,1.452,0,0,0,.492.141,1.308,1.308,0,0,0,.135.007,2.6,2.6,0,0,0,.743-.122,1.4,1.4,0,0,0,.606-.345.472.472,0,0,0,.1-.175,2.262,2.262,0,0,1-.363-.1,1.8,1.8,0,0,1-.822-.6.234.234,0,1,1,.374-.28,1.335,1.335,0,0,0,.613.447,2.4,2.4,0,0,0,.835.135,4.531,4.531,0,0,0,1.678-.355,4.158,4.158,0,0,0,2.627-2.7,3.119,3.119,0,0,0,.171-.942,1.553,1.553,0,0,0-.029-.3c-.013.022-.024.044-.038.065a3.518,3.518,0,0,1-.425.525.234.234,0,0,1-.339-.323,3.114,3.114,0,0,0,.37-.454.823.823,0,0,0,.155-.419.323.323,0,0,0-.041-.162.566.566,0,0,0-.168-.174.686.686,0,0,0-.392-.1,1.6,1.6,0,0,0-.475.079,1.576,1.576,0,0,0-.275.114,2.805,2.805,0,0,1,.182.32,2.58,2.58,0,0,1,.284,1.08,1.363,1.363,0,0,1-.208.743.234.234,0,0,1-.394-.252.892.892,0,0,0,.134-.491,2.127,2.127,0,0,0-.238-.878,1.824,1.824,0,0,0-.618-.753,2.407,2.407,0,0,0-.945-.355,3.755,3.755,0,0,0-.672-.06,3.337,3.337,0,0,0-1.031.154,2.127,2.127,0,0,0-.632.327v.1a2.357,2.357,0,0,1,.821.835.234.234,0,0,1-.4.235,1.917,1.917,0,0,0-.9-.8,3.184,3.184,0,0,0-1.309-.249,6.022,6.022,0,0,0-2.4.552,4.334,4.334,0,0,0-1.725,1.289.234.234,0,0,1-.382-.27A4.53,4.53,0,0,1,88.316,618a.587.587,0,0,0-.085-.129.958.958,0,0,0-.278-.214,2.01,2.01,0,0,0-1.435-.1,1.071,1.071,0,0,0-.3.15,2.043,2.043,0,0,1,.11.674,3.854,3.854,0,0,1-.363,1.492,6.2,6.2,0,0,1-.876,1.431c0,.017,0,.034,0,.05a1.739,1.739,0,0,0,.08.578.639.639,0,0,0,.174.264,11.84,11.84,0,0,1,1.266-.84.234.234,0,1,1,.236.4,11.392,11.392,0,0,0-1.3.875.238.238,0,0,1-.094.073l-.026.02a4.255,4.255,0,0,0-1.074,1.236,1.973,1.973,0,0,0-.244.925,2.072,2.072,0,0,0,.295,1.027.234.234,0,1,1-.407.231,2.773,2.773,0,0,1-.3-.746,3.236,3.236,0,0,0-.712,1.051,4.486,4.486,0,0,0-.377,1.617h0c0,.013,0,.031,0,.052,0,.108.008.286.028.471a3.108,3.108,0,0,0,.092.52q.011.035.021.063a4.734,4.734,0,0,1,1.265-.607.234.234,0,0,1,.134.448,5.023,5.023,0,0,0-2.431,1.755,7.815,7.815,0,0,0-1.385,2.759,5.389,5.389,0,0,0-.223,1.371,2.064,2.064,0,0,0,.173.873,9.076,9.076,0,0,1,2.04-1.812.234.234,0,1,1,.25.4,8.613,8.613,0,0,0-2.07,1.885,4.323,4.323,0,0,0-1.057,2.54,2.312,2.312,0,0,0,.219.995h0a.234.234,0,1,1-.423.2,2.772,2.772,0,0,1-.25-.9,4.52,4.52,0,0,0-.986,1.019,2.662,2.662,0,0,0-.49,1.471c.008.1.014.192.015.283v.009a2.78,2.78,0,0,0,.263.892,1.212,1.212,0,0,0,.424.48,1.113,1.113,0,0,0,.6.191h.011a.23.23,0,0,1,.179.088,11.075,11.075,0,0,1,2.433-.281,9.083,9.083,0,0,1,2.948.478.234.234,0,1,1-.151.443,8.616,8.616,0,0,0-2.8-.453,13.162,13.162,0,0,0-6.111,1.719c-.14.075-.408.209-.707.372a9.006,9.006,0,0,0-.868.521,2.03,2.03,0,0,0-.25.2.228.228,0,0,1,.027.178.234.234,0,0,1-.284.169,15.244,15.244,0,0,0-3.769-.453,21.843,21.843,0,0,0-7.241,1.337,11.044,11.044,0,0,0-4.153,2.489,16.825,16.825,0,0,1,2.056-.125,23.844,23.844,0,0,1,3.815.34.234.234,0,1,1-.075.461,23.4,23.4,0,0,0-3.74-.333,16.025,16.025,0,0,0-5.63,1.006,20.965,20.965,0,0,0-2.576,1.1,7.864,7.864,0,0,0-2.208,1.627h0a.234.234,0,0,1-.349-.313,7.54,7.54,0,0,1,1.729-1.384,13.773,13.773,0,0,0-1.815-.783c-.807-.29-1.634-.538-2.294-.731a19,19,0,0,0-5.3-.826c-.148,0-.295,0-.443.007a11.675,11.675,0,0,0-3.937.9,8.334,8.334,0,0,0-3.3,2.286.234.234,0,0,1-.366-.291,7.315,7.315,0,0,1,1.912-1.627,13.714,13.714,0,0,1-3.8-9.073,9.525,9.525,0,0,1,.668-3.127,25.37,25.37,0,0,1,1.452-3.172c.77-1.436,1.536-2.622,1.9-3.16a7.609,7.609,0,0,0-.9-.053,11.431,11.431,0,0,0-5.36,1.5,11.263,11.263,0,0,0-4.065,3.651,5.546,5.546,0,0,0-.943,2.941,4.3,4.3,0,0,0,.683,2.311.234.234,0,0,1-.4.248,4.762,4.762,0,0,1-.753-2.559c0-.068.006-.135.008-.2a4,4,0,0,0-1.289.644,6.862,6.862,0,0,0-1.355,1.358,12.2,12.2,0,0,0-1.787,3.388,6.759,6.759,0,0,0-.481,2.219,3.966,3.966,0,0,0,.1.864,7.6,7.6,0,0,1,2.169-1.384.234.234,0,1,1,.177.433,7.628,7.628,0,0,0-3.131,2.5,6.382,6.382,0,0,0-1.347,3.731,4.618,4.618,0,0,0,.232,1.46,3.126,3.126,0,0,0,.792,1.346,1.826,1.826,0,0,0,1.291.479c.062,0,.126,0,.191-.007h0a.228.228,0,0,1,.079.01,4.215,4.215,0,0,1,.638-1.619.234.234,0,0,1,.389.26,3.935,3.935,0,0,0-.635,2.212,5.751,5.751,0,0,0,.8,2.835,5.408,5.408,0,0,0,2.048,2.059,3.729,3.729,0,0,0,1.784.469l.158,0a.234.234,0,0,1,.018.467c-.058,0-.117,0-.176,0a4.207,4.207,0,0,1-2.007-.525,5.244,5.244,0,0,1-1.084-.787,3.462,3.462,0,0,0-.223,1.221,3.905,3.905,0,0,0,1.931,3.341,4.407,4.407,0,0,0,2.2.558,5.456,5.456,0,0,0,.97-.089,9.326,9.326,0,0,0,1.089-.273l-.088-.256a9.513,9.513,0,0,1-1.34-4.186h0a.234.234,0,1,1,.466-.039,8.744,8.744,0,0,0,2.322,5.349,7.093,7.093,0,0,0,5.2,2.217c.206,0,.415-.009.627-.025a11.285,11.285,0,0,0,6.249-2.787,17.532,17.532,0,0,0,5.452-7.608.234.234,0,1,1,.445.145,15.69,15.69,0,0,1-2.643,4.787.552.552,0,0,0,.069.143.9.9,0,0,0,.206.2,2.4,2.4,0,0,0,.73.323,7.5,7.5,0,0,0,1.918.233,5.288,5.288,0,0,0,.763-.046,5.213,5.213,0,0,0,2.616-1.24,3.5,3.5,0,0,0,1.225-2.631,3.7,3.7,0,0,0-.041-.547.259.259,0,0,1,0-.079c-.02-.023-.042-.045-.062-.069a1.458,1.458,0,0,1-.365-.727h0a.234.234,0,1,1,.464-.062,1.009,1.009,0,0,0,.257.486,4.353,4.353,0,0,0,.477.458,4.415,4.415,0,0,0,2.873.935,5.744,5.744,0,0,0,1.873-.31,10.847,10.847,0,0,0,2.986-1.666,8.33,8.33,0,0,0,2.291-2.639,4.48,4.48,0,0,0,.534-2.054,3.967,3.967,0,0,0-.476-1.865.234.234,0,0,1,.415-.217,4.433,4.433,0,0,1,.529,2.082,4.746,4.746,0,0,1-.368,1.792.234.234,0,0,1,.057.077,1.71,1.71,0,0,0,.539.668,2.745,2.745,0,0,0,.822.413,6.459,6.459,0,0,0,1.949.259l.216,0a7.682,7.682,0,0,0,6.278-3.678.234.234,0,1,1,.394.251,8.906,8.906,0,0,1-1.133,1.427,1.461,1.461,0,0,0,.356.4,2.46,2.46,0,0,0,.685.371,5.016,5.016,0,0,0,1.685.272,4.766,4.766,0,0,0,.757-.056,5.515,5.515,0,0,0,2.725-1.289,4.345,4.345,0,0,0,1.384-2.256c-.3.026-.7.046-1.147.046a12.966,12.966,0,0,1-2.01-.146.234.234,0,1,1,.073-.462,12.639,12.639,0,0,0,1.937.14,12.044,12.044,0,0,0,1.329-.066,16.036,16.036,0,0,0,8.125-3.682,11.242,11.242,0,0,0,3.4-4.261.234.234,0,1,1,.437.166,7,7,0,0,1-.321.714,1.967,1.967,0,0,0,.779.516,3.084,3.084,0,0,0,1.055.172,4.553,4.553,0,0,0,1.679-.335,4.8,4.8,0,0,0,2.062-1.477A3.435,3.435,0,0,0,98,644.171a5.147,5.147,0,0,0-.185-1.324.234.234,0,1,1,.452-.12,5.612,5.612,0,0,1,.2,1.444v.016c.063,0,.127,0,.19,0a8.755,8.755,0,0,0,5-1.527,9.761,9.761,0,0,0,3.349-4.094.234.234,0,0,1,.427.192c-.15.334-.319.653-.5.964a8.847,8.847,0,0,0,2.9-.824c1.671-.637,3.329-1.329,4.959-2.065.944-.427,2.72-1.151,4.759-2.021s4.334-1.888,6.3-2.894c.787-.4,1.519-.8,2.162-1.19M37.054,662.248a17.044,17.044,0,0,1-3.315.355,8.8,8.8,0,0,1-4.428-1.034,6.515,6.515,0,0,1-2.424-2.412,9.557,9.557,0,0,1-1.182-4.645q0-.147,0-.24a2.871,2.871,0,0,1-.989-.986,2.455,2.455,0,0,1-.318-1.237,4.648,4.648,0,0,1,.688-2.218,7.056,7.056,0,0,1,.682-.993.234.234,0,1,1,.355.3l0,0-.009.011-.039.048c-.034.043-.084.106-.143.187a7.025,7.025,0,0,0-.437.671,4.208,4.208,0,0,0-.626,1.986,1.979,1.979,0,0,0,.256,1,2.465,2.465,0,0,0,.941.89.236.236,0,0,1,.116.22v.02l0,.067c0,.06,0,.148,0,.262a9.669,9.669,0,0,0,.521,3.11,6.368,6.368,0,0,0,2.848,3.54,8.329,8.329,0,0,0,4.2.973,16.572,16.572,0,0,0,3.224-.346.234.234,0,1,1,.091.459m45.135-13.786a6.867,6.867,0,0,1-3.126,3.225,8.269,8.269,0,0,1-3.683.793,12.444,12.444,0,0,1-3.946-.665.234.234,0,1,1,.165-.438l.017.006.055.02.219.071c.191.059.469.139.812.219a12.064,12.064,0,0,0,2.678.319,7.8,7.8,0,0,0,3.475-.745,6.391,6.391,0,0,0,2.915-3.012.234.234,0,1,1,.419.207" transform="translate(0 -603.059)" fill="#fff"/>
    <path id="패스_20535" data-name="패스 20535" d="M62.677,643.6a1.242,1.242,0,0,0,.5.086h1.66c.1,0,.206,0,.305,0a4.734,4.734,0,0,0,2.011-.355,2.392,2.392,0,0,0,1.138-1.11,4.6,4.6,0,0,0,.412-1.268,13.4,13.4,0,0,0,.184-2.456c0-.059,0-.119,0-.179a2.431,2.431,0,0,1-.543.329.234.234,0,0,1-.181-.432,2.706,2.706,0,0,0,.949-.77,5.966,5.966,0,0,0,.71-1.073,6.7,6.7,0,0,0,.717-3.184q0-.4-.029-.809a.239.239,0,0,1,0-.028.192.192,0,0,1,.007-.048.25.25,0,0,1,.016-.041.215.215,0,0,1,.023-.038.178.178,0,0,1,.033-.034c.008-.007.012-.016.021-.021l.013-.006a.262.262,0,0,1,.042-.017.242.242,0,0,1,.046-.013l.013,0c.01,0,.019,0,.029,0a.205.205,0,0,1,.088.023.3.3,0,0,1,.039.022.268.268,0,0,1,.034.034c.006.007.015.012.02.021a.8.8,0,0,0,.4.293,1.8,1.8,0,0,0,.627.1,3.36,3.36,0,0,0,.865-.122,2.6,2.6,0,0,0,.635-.258l.042-.024a.183.183,0,0,1,.039-.013.2.2,0,0,1,.044-.015.226.226,0,0,1,.045,0,.309.309,0,0,1,.043,0,.189.189,0,0,1,.041.018.3.3,0,0,1,.041.019.245.245,0,0,1,.031.033.206.206,0,0,1,.029.03l0,.005,0,0a.243.243,0,0,1,.013.038.254.254,0,0,1,.015.044.226.226,0,0,1,0,.045.314.314,0,0,1,0,.044.3.3,0,0,1-.018.041.187.187,0,0,1-.02.04.2.2,0,0,1-.032.033.4.4,0,0,1-.03.028l-.009.005h0a12.9,12.9,0,0,0-1.322.831,3.365,3.365,0,0,0-.972,1.059,2.149,2.149,0,0,0-.255.919c0,.05,0,.1,0,.15a2.471,2.471,0,0,0,.323,1.259,1.445,1.445,0,0,0,.132.2c.042.047.063.058.093.064a.234.234,0,1,1-.074.462.582.582,0,0,1-.286-.135,4.656,4.656,0,0,0-.437,1.561,2.923,2.923,0,0,0-.022.354,1.808,1.808,0,0,0,.58,1.416,2.3,2.3,0,0,0,1.545.5l.147,0a.234.234,0,0,1,.016.468l-.163,0a2.919,2.919,0,0,1-1.58-.419,1.929,1.929,0,0,0-.041.231,2.455,2.455,0,0,0-.036.414,1.506,1.506,0,0,0,.3.958,1.35,1.35,0,0,0,.586.42,2.147,2.147,0,0,0,.762.131l.122,0a1.926,1.926,0,0,0,1-.322,5.141,5.141,0,0,0,.851-.759.234.234,0,0,1,.337.324c-.146.152-.29.3-.438.435a.334.334,0,0,0,.045.049.743.743,0,0,0,.211.123,1.748,1.748,0,0,0,.621.108,1.649,1.649,0,0,0,.3-.027.73.73,0,0,0,.2-.063,1.4,1.4,0,0,0,.523-.559,2,2,0,0,0,.244-.768c0-.052.007-.108.007-.167-.009-.09-.016-.18-.016-.268v-.008a2.889,2.889,0,0,0-.112-.561,1.706,1.706,0,0,0-.306-.591,1.3,1.3,0,0,1-.238.035.234.234,0,0,1-.022-.467.759.759,0,0,0,.339-.093.738.738,0,0,0,.235-.214,1.186,1.186,0,0,0,.2-.678,1.208,1.208,0,0,0-.1-.482.728.728,0,0,0-.141-.209l-.016-.016a.449.449,0,0,0-.087-.067.441.441,0,0,0-.23-.059.731.731,0,0,0-.218.037.234.234,0,1,1-.144-.445,1.181,1.181,0,0,1,.362-.06.933.933,0,0,1,.431.105,5.467,5.467,0,0,0,.624-2.479,3.815,3.815,0,0,0-.926-2.58c-.017.03-.034.06-.052.089-.052.079-.129.2-.223.325a2.013,2.013,0,0,1-.332.361.773.773,0,0,1-.305.159.234.234,0,0,1-.1-.457.315.315,0,0,0,.114-.066,1.3,1.3,0,0,0,.168-.171,4.379,4.379,0,0,0,.288-.4,2.943,2.943,0,0,0,.463-1.575v-.006a3.079,3.079,0,0,0-.193-1.055,1.64,1.64,0,0,0-.586-.81.234.234,0,0,1,.256-.392,1.858,1.858,0,0,1,.574.629,5.416,5.416,0,0,0,1.033-.392,2.594,2.594,0,0,0,.854-.753,7.848,7.848,0,0,0,1.188-3.338.234.234,0,0,1,.459.087q-.046.245-.1.492a2.948,2.948,0,0,0,1.666-.746,2.514,2.514,0,0,0,.838-1.468,1.978,1.978,0,0,1-.6.161h0a.234.234,0,0,1-.04-.467,2.339,2.339,0,0,0,1.041-.464,9.618,9.618,0,0,0,.95-.788,6.028,6.028,0,0,0,1.468-2.019,3.4,3.4,0,0,0,.324-1.306,1.556,1.556,0,0,0-.09-.539,1.194,1.194,0,0,0-.638-.654,2.367,2.367,0,0,0-1-.212h-.071a3.189,3.189,0,0,0-.649.1,1.727,1.727,0,0,0-.624.278.538.538,0,0,0-.106.109,1.887,1.887,0,0,1,.148.148,3.359,3.359,0,0,1,.657,1.329.234.234,0,0,1-.45.129,3.505,3.505,0,0,0-.383-.916,1.332,1.332,0,0,0-1.206-.675H81.4a3.652,3.652,0,0,0-1.361.271,3.091,3.091,0,0,0-1.094.816,1.948,1.948,0,0,0-.528,1.234,1.183,1.183,0,0,0,.172.613,2.092,2.092,0,0,1,.546-.1.234.234,0,1,1,.022.467,1.725,1.725,0,0,0-.854.276,2.378,2.378,0,0,0-.673.672,3.621,3.621,0,0,0-.59,1.776h.015a4.334,4.334,0,0,1,.833.08.234.234,0,0,1-.09.459,3.8,3.8,0,0,0-.743-.071,3.157,3.157,0,0,0-2.309.894,4.306,4.306,0,0,0-.623.825.99.99,0,0,0-.1.248.234.234,0,0,1-.459-.089,1.374,1.374,0,0,1,.141-.376c.036-.069.077-.137.12-.2a7.625,7.625,0,0,1-1.6.6.234.234,0,0,1-.115-.454,7.178,7.178,0,0,0,1.5-.56,3.227,3.227,0,0,0,1.216-1,1.6,1.6,0,0,0,.282-.907c0-.026,0-.051,0-.078a2.27,2.27,0,0,0-.152-.664,1.743,1.743,0,0,0-.332-.569c-.131.008-.266.012-.4.014a.234.234,0,1,1-.006-.468,4.187,4.187,0,0,0,1.033-.11,1.521,1.521,0,0,0,.731-.416,2,2,0,0,0,.372-.569,1.816,1.816,0,0,0,.178-.751A1.879,1.879,0,0,0,76,618.112a1.924,1.924,0,0,0-.483-.43.826.826,0,0,0-.426-.123,1.317,1.317,0,0,0-.759.309,2.788,2.788,0,0,1-.718.4,2.154,2.154,0,0,1-.731.115c-.153,0-.314-.011-.491-.028a5.452,5.452,0,0,1-.667-.124,2.78,2.78,0,0,0-.587-.085H71.1a.8.8,0,0,0-.378.1.845.845,0,0,0-.267.247,2.028,2.028,0,0,0-.289,1.009.7.7,0,0,0,.041.252,2.054,2.054,0,0,0,.1.22,6,6,0,0,1,1.535-.7.234.234,0,1,1,.131.449,5.547,5.547,0,0,0-1.712.853,4.044,4.044,0,0,0-1.226,1.394,2.5,2.5,0,0,0-.274,1.117,2.4,2.4,0,0,0,.124.753,5.333,5.333,0,0,1,.434-.316,4.841,4.841,0,0,1,2.635-.8l.117,0a.234.234,0,0,1-.016.468l-.1,0a4.368,4.368,0,0,0-2.381.727,5.47,5.47,0,0,0-1.737,1.846,3.926,3.926,0,0,0-.51,2,5.746,5.746,0,0,0,.478,2.223.234.234,0,0,1-.43.184c-.044-.1-.085-.209-.125-.316a10.532,10.532,0,0,0-1.434,1.552,3.573,3.573,0,0,0-.759,2.076,2.871,2.871,0,0,0,.074.645c.028.121.065.288.109.447.01.04.022.079.033.117a6.271,6.271,0,0,1,1.141-.637.234.234,0,0,1,.189.428,4.578,4.578,0,0,0-1.813,1.3,4.009,4.009,0,0,0-.648,1.279,2.48,2.48,0,0,0-.127.765,2.425,2.425,0,0,0,.175.887h0a.234.234,0,1,1-.436.168,2.939,2.939,0,0,1-.2-.947,6.57,6.57,0,0,0-1.461,3.856,4.465,4.465,0,0,0,.1.939,2.672,2.672,0,0,0,.157.549.631.631,0,0,0,.331.334" transform="translate(0 -603.059)" fill="#fff"/>
    <path id="패스_20536" data-name="패스 20536" d="M51.657,643.191a6.614,6.614,0,0,0,.447-1.158c.074-.248.13-.462.173-.605a17.219,17.219,0,0,0,.532-5.035c0-.162,0-.326,0-.49a.234.234,0,1,1,.468,0c0,.164,0,.328,0,.491s0,.331,0,.495c.014-.009.026-.014.041-.024a2.069,2.069,0,0,0,.311-.3,5.429,5.429,0,0,0,.5-.7A5.872,5.872,0,0,0,54.852,633a3.743,3.743,0,0,0-.345-1.694.234.234,0,1,1,.415-.216,3.7,3.7,0,0,1,.365,1.306,3.307,3.307,0,0,0,.5-.239,2.113,2.113,0,0,0,.554-.484A3.008,3.008,0,0,0,57,629.816a2.56,2.56,0,0,0-.2-1.011,8.5,8.5,0,0,1-1.627,1.546.234.234,0,1,1-.285-.372,7.74,7.74,0,0,0,1.61-1.548,3.35,3.35,0,0,0,.654-2.015v-.005a3.848,3.848,0,0,0-.163-1.165,2.044,2.044,0,0,0-.6-.934.234.234,0,1,1,.308-.352,2.518,2.518,0,0,1,.733,1.141,3.973,3.973,0,0,1,.169.908,3.413,3.413,0,0,0,1.5-1.317,4.236,4.236,0,0,0,.577-2.242c0-.175-.008-.355-.024-.537a3.222,3.222,0,0,0-.276-1.01,1.987,1.987,0,0,0-.6-.792.884.884,0,0,0-.515-.173,1.072,1.072,0,0,0-.453.112.235.235,0,0,1-.333-.216c0-.048,0-.094,0-.139a2.694,2.694,0,0,0-.075-.724,1.028,1.028,0,0,0-.3-.506,1.448,1.448,0,0,0-.425-.259,2.307,2.307,0,0,0-.887-.191,1.825,1.825,0,0,0-1.126.391,2.223,2.223,0,0,0-.569.662,1.722,1.722,0,0,0-.243.83,1.084,1.084,0,0,0,.056.351,2.838,2.838,0,0,1,.923-.148q.123,0,.252.009a.234.234,0,0,1-.036.467c-.074-.006-.146-.008-.216-.008a2.271,2.271,0,0,0-1.482.516,3.157,3.157,0,0,0-.92,1.366,2.556,2.556,0,0,0-.148.9,5.3,5.3,0,0,0,.49,2.054.234.234,0,0,1-.157.321.758.758,0,0,0-.311.171,1.5,1.5,0,0,0-.28.346,4.1,4.1,0,0,0-.416,1.036,9.868,9.868,0,0,0-.283,1.71l0,.032a.234.234,0,0,1-.467,0c-.138-3.166-.95-4.4-.976-4.442h0a.236.236,0,0,1-.028-.211,9.1,9.1,0,0,0,.593-2.911,3.138,3.138,0,0,0-.274-1.383,1.962,1.962,0,0,0-.664-.78,3.2,3.2,0,0,0-1.8-.472,5.106,5.106,0,0,0-.625.039,2.639,2.639,0,0,1,.689.878.234.234,0,0,1-.419.209,2.058,2.058,0,0,0-.817-.9,2.167,2.167,0,0,0-1.087-.27,3.5,3.5,0,0,0-1.464.35,4.015,4.015,0,0,0-1.238.9,4.675,4.675,0,0,0-.784,1.4,5.832,5.832,0,0,0-.409,2.041,3.08,3.08,0,0,0,.333,1.466,8.917,8.917,0,0,1,3.092-2.341.234.234,0,0,1,.189.428,8.575,8.575,0,0,0-3.324,2.713,6.822,6.822,0,0,0-1.442,3.988,4.993,4.993,0,0,0,.3,1.718.234.234,0,1,1-.439.16c-.027-.072-.046-.145-.069-.217a3.506,3.506,0,0,0-.639.266,2.918,2.918,0,0,0-.685.551,4.011,4.011,0,0,0-.858,1.251,3.246,3.246,0,0,0-.248,1.269,6.912,6.912,0,0,0,.525,2.345,3.716,3.716,0,0,1,1.722-.489.234.234,0,0,1,.01.468,3.4,3.4,0,0,0-1.831.628,6.09,6.09,0,0,0-1.534,1.552,7.592,7.592,0,0,0-1.423,4.088,3.865,3.865,0,0,0,.029.49.942.942,0,0,0,.158.469.614.614,0,0,0,.212.163,1.237,1.237,0,0,0,.3.1,10.33,10.33,0,0,0,2.151.241,6.272,6.272,0,0,0,2.42-.436,1.957,1.957,0,0,0,.836-.68,3.711,3.711,0,0,0,.5-1.031,12.627,12.627,0,0,0,.67-3.74,3.57,3.57,0,0,1-1.027.518.234.234,0,1,1-.134-.448,3.39,3.39,0,0,0,1.195-.69.234.234,0,0,1,.106-.093,7.43,7.43,0,0,0,.85-.91c.635-.792,1.178-1.705,1.65-2.414a.245.245,0,0,1,.036-.036,8.624,8.624,0,0,1,1.27-3.393.234.234,0,1,1,.4.246,7.778,7.778,0,0,0-1.268,4.1,6.837,6.837,0,0,0,1.112,3.686.234.234,0,1,1-.4.249,8.216,8.216,0,0,1-.526-.97,5.014,5.014,0,0,0-.6,2.4,4.255,4.255,0,0,0,.042.615,3.4,3.4,0,0,0,1.254,2.191l4.639-.177a.48.48,0,0,0,.257-.153,1.842,1.842,0,0,0,.289-.416" transform="translate(0 -603.059)" fill="#fff"/>
    <path id="패스_20537" data-name="패스 20537" d="M57.94,619.509a1.389,1.389,0,0,1,.322-.039,1.351,1.351,0,0,1,.784.259,2.137,2.137,0,0,1,.559.607,3.342,3.342,0,0,1,.294.608,2.013,2.013,0,0,0,.227-.931,2.138,2.138,0,0,0-.272-1.043,1.942,1.942,0,0,0-.777-.766,1.834,1.834,0,0,0-.844-.2,1.47,1.47,0,0,0-.494.08,1.044,1.044,0,0,0-.236.126,1.434,1.434,0,0,1,.254.378,2.328,2.328,0,0,1,.183.925" transform="translate(0 -603.059)" fill="#fff"/>
    <path id="패스_20538" data-name="패스 20538" d="M96.562,622.8a1.4,1.4,0,0,0,.351.264,1.153,1.153,0,0,0,.535.13,1.639,1.639,0,0,0,1.135-.527,1.723,1.723,0,0,0,.518-1.174,1.284,1.284,0,0,0-.248-.759l-.229.2a4.968,4.968,0,0,1-2.062,1.867" transform="translate(0 -603.059)" fill="#fff"/>
    <path id="패스_20539" data-name="패스 20539" d="M73.207,645.345a1.963,1.963,0,0,1-.4-1.263,2.2,2.2,0,0,1-1.6-.773h0a2.077,2.077,0,0,1-.136-.2,3.976,3.976,0,0,1-1.021,2.219,2.773,2.773,0,0,1-.624.463h.035a16.087,16.087,0,0,1,3.539.382,2.589,2.589,0,0,1,.565-.466l.022-.014a1.736,1.736,0,0,1-.374-.346" transform="translate(0 -603.059)" fill="#eaa1d4"/>
    <path id="패스_20540" data-name="패스 20540" d="M63.634,644.984a5.226,5.226,0,0,1-.1-.686h-.359a1.823,1.823,0,0,1-.737-.137,6.17,6.17,0,0,1-.054.762c-.2,1.474-2.134,1.507-2.307,1.507H55.717l-.07-.089a2.753,2.753,0,0,1-.288-1.894H54.276c-.005.014-.009.027-.013.041a5.786,5.786,0,0,1-.459,1.092,1.774,1.774,0,0,1-.47.56.83.83,0,0,1-.378.156l-.022,0-4.746.182a.237.237,0,0,1-.152-.049,3.874,3.874,0,0,1-1.336-1.892l-.3.011h-.01a.371.371,0,0,1-.229-.078,4.015,4.015,0,0,1-1.482-2.312,14.286,14.286,0,0,1-.61,2.673,4.168,4.168,0,0,1-.566,1.161,2.443,2.443,0,0,1-1.033.836,6.745,6.745,0,0,1-2.6.472,10.779,10.779,0,0,1-2.249-.251,1.7,1.7,0,0,1-.412-.14,1.085,1.085,0,0,1-.369-.291,1.374,1.374,0,0,1-.255-.7,4.258,4.258,0,0,1-.033-.548c0-.038,0-.079,0-.118-.256-.038-.509-.081-.754-.134a1.886,1.886,0,0,1-.445-.151,1.218,1.218,0,0,1-.416-.33h0a1.516,1.516,0,0,1-.285-.771,4.564,4.564,0,0,1-.034-.566,7.715,7.715,0,0,1,.9-3.378,7.511,7.511,0,0,1,2.2-2.667c-.108-.289-.2-.575-.288-.859-1.213,1.952-3.3,5.679-3.3,8.2a12.473,12.473,0,0,0,1.966,6.49,12.451,12.451,0,0,1,5.152-1.425c.156-.005.313-.007.471-.007a19.492,19.492,0,0,1,5.459.85,22.165,22.165,0,0,1,4.413,1.674A20.734,20.734,0,0,1,54.3,651h0a16.69,16.69,0,0,1,2.958-.794,11.225,11.225,0,0,1,4.773-3.048,25.109,25.109,0,0,1,3.068-.882H65.07c-1.155,0-1.324-.781-1.436-1.3" transform="translate(0 -603.059)" fill="#eaa1d4"/>
    <path id="패스_20541" data-name="패스 20541" d="M128.067,613.89a14.63,14.63,0,0,0-10.38-4.3H21.211a14.681,14.681,0,0,0-14.68,14.68v43.963a14.681,14.681,0,0,0,14.68,14.68h96.476a14.681,14.681,0,0,0,14.68-14.68V624.27a14.628,14.628,0,0,0-4.3-10.38m1.046,18.615c-2.484,1.653-10.082,5.915-12.225,6.879-1.646.749-3.326,1.446-4.982,2.077-.146.056-.29.113-.44.173a7.346,7.346,0,0,1-2.667.684c-.08,0-.154,0-.234-.005a9.333,9.333,0,0,1-8.005,4.468h-.225a4.341,4.341,0,0,1-3.013,3.556,4.976,4.976,0,0,1-1.848.37,2.939,2.939,0,0,1-2.082-.735,13.676,13.676,0,0,1-2.976,3.322,16.653,16.653,0,0,1-8.118,3.743,5.392,5.392,0,0,1-4.519,4.071,4.822,4.822,0,0,1-.842.065,3.705,3.705,0,0,1-3.056-1.193,7.953,7.953,0,0,1-5.193,2.148h-.225c-1.82,0-3.05-.478-3.6-1.385a10.507,10.507,0,0,1-5.521,4.51,6.339,6.339,0,0,1-2.04.332,4.821,4.821,0,0,1-3.168-1.048h0a4.97,4.97,0,0,1-4.193,4.52,6.077,6.077,0,0,1-.851.051c-1.086,0-2.709-.2-3.233-.973a21.574,21.574,0,0,1-2.625,2.639,11.809,11.809,0,0,1-6.517,2.9q-.324.029-.646.028a7.722,7.722,0,0,1-6.345-3.317l.056.164a9.84,9.84,0,0,1-1.291.332,5.826,5.826,0,0,1-1.048.1,4.49,4.49,0,0,1-4.177-2.507,4.436,4.436,0,0,1-2.028-2.074h0a4.389,4.389,0,0,1-.441-1.9,4.074,4.074,0,0,1,.314-1.564,6.573,6.573,0,0,1-.785-1.113v0a6.447,6.447,0,0,1-.751-2.075,3.7,3.7,0,0,1-.741-1.3,2.342,2.342,0,0,1-1.035-.509,3.642,3.642,0,0,1-1.03-1.673,5.294,5.294,0,0,1-.265-1.663,7.334,7.334,0,0,1,2.27-5.013,2.96,2.96,0,0,1-.2-1.125,7.713,7.713,0,0,1,.48-2.409,12.609,12.609,0,0,1,1.892-3.577,5.85,5.85,0,0,1,3.04-2.219,6.622,6.622,0,0,1,1.1-2.664,11.984,11.984,0,0,1,4.358-3.756,12.135,12.135,0,0,1,5.489-1.473,7.69,7.69,0,0,1,1.327.111h0l.585.1-.34.492v0l-.006.008-.022.031c-.019.027-.045.067-.08.117-.068.1-.165.246-.284.429-.183.282-.419.653-.683,1.088a9.293,9.293,0,0,1,1.74-.1,3.813,3.813,0,0,1,.291-1.425,4.63,4.63,0,0,1,.983-1.442,3.593,3.593,0,0,1,.824-.658,3.918,3.918,0,0,1,.652-.28,5.608,5.608,0,0,1-.117-1.115,7.423,7.423,0,0,1,1.562-4.35c.016-.023.032-.043.048-.063a3.632,3.632,0,0,1-.458-1.841,6.441,6.441,0,0,1,.449-2.259,5.256,5.256,0,0,1,.9-1.589,4.62,4.62,0,0,1,1.429-1.036,4.121,4.121,0,0,1,1.722-.408,2.875,2.875,0,0,1,1.04.19.327.327,0,0,1,.081-.032h.01l.019,0,.067-.013c.057-.011.138-.025.239-.039a5.748,5.748,0,0,1,.8-.056,4.237,4.237,0,0,1,1.608.288,2.638,2.638,0,0,1,1.407,1.308,3.293,3.293,0,0,1,.267.871c.02.008.041.015.061.024a2.525,2.525,0,0,1,1.119.879,3.446,3.446,0,0,1,.8-.962,2.793,2.793,0,0,1,.35-.242,1.685,1.685,0,0,1-.069-.475,2.323,2.323,0,0,1,.322-1.13h0a2.861,2.861,0,0,1,.731-.847,2.439,2.439,0,0,1,1.491-.515H55.8a2.892,2.892,0,0,1,1.11.238c.07.029.135.061.2.094a1.609,1.609,0,0,1,.422-.23,2.082,2.082,0,0,1,.7-.118,2.461,2.461,0,0,1,1.132.277,2.63,2.63,0,0,1,1.351,2.047,2.073,2.073,0,0,1,.371.149,2.4,2.4,0,0,1,.281.179A4.239,4.239,0,0,1,63,617.991a3.791,3.791,0,0,1,2.1-.658,3.545,3.545,0,0,1,1.905.559,1.237,1.237,0,0,1,.351-.054,1.3,1.3,0,0,1,.359.051l-.013,0,.013,0h0a1.757,1.757,0,0,1,.7.415,1.646,1.646,0,0,1,.436.669h0a2.291,2.291,0,0,1,.108.688,2.142,2.142,0,0,1-.059.5,1.115,1.115,0,0,1,.666-.011,1.343,1.343,0,0,1,.167.061l0,0a2.084,2.084,0,0,1-.12-.277,1.287,1.287,0,0,1-.066-.428,2.522,2.522,0,0,1,.015-.261,2.19,2.19,0,0,1,.48-1.218,1.389,1.389,0,0,1,1.03-.485h.039a3.634,3.634,0,0,1,.818.116,4.57,4.57,0,0,0,.508.1c.161.014.3.023.424.023a1.565,1.565,0,0,0,.543-.083,2.161,2.161,0,0,0,.553-.312,1.922,1.922,0,0,1,1.125-.432,1.412,1.412,0,0,1,.712.2,2.935,2.935,0,0,1,1.327,2.077,1.456,1.456,0,0,1,.731.333,2.554,2.554,0,0,1,.626-1.394h0a3.682,3.682,0,0,1,1.268-.957,4.211,4.211,0,0,1,1.621-.336h.072a2.065,2.065,0,0,1,.814.158,1.881,1.881,0,0,1,.863-.5,3.634,3.634,0,0,1,.926-.157h.066a3.114,3.114,0,0,1,1.08.189,2.03,2.03,0,0,1,.85.586,2.344,2.344,0,0,1,.97-.2,2.9,2.9,0,0,1,.761.1h0a1.808,1.808,0,0,1,.952.6,6.487,6.487,0,0,1,2.411-.5c.079,0,.157,0,.235.005a3.934,3.934,0,0,1,1.005.175,3.137,3.137,0,0,1,2.218-.788,4.309,4.309,0,0,1,.8.073l-.015,0,.016,0h0a2.784,2.784,0,0,1,1.417.644,2.286,2.286,0,0,1,1.03-.265,1.275,1.275,0,0,1,.739.21,1.037,1.037,0,0,1,.453.657l.016.022a1.772,1.772,0,0,1,.311,1.06,3.15,3.15,0,0,1-.027.364,1.357,1.357,0,0,1,1.06.138.876.876,0,0,1,.407.65v.019l.028-.024c.58.8.136,2.04-.14,2.639l.322-.281a1.811,1.811,0,0,1,.328,1.858,2.329,2.329,0,0,1-1.741,1.469,1.635,1.635,0,0,1-.257.024,1.716,1.716,0,0,1-1.319-.66,5.072,5.072,0,0,1-1.867.393c-.075,0-.145-.005-.22-.01a1.225,1.225,0,0,1-.29.407,2.656,2.656,0,0,1-1.624.646,1.139,1.139,0,0,1-.126-.009,2.032,2.032,0,0,1-.842-.29c-.016.2-.045.4-.08.6a2.979,2.979,0,0,1,1.109.711h0a2.2,2.2,0,0,1,.472.672,1.679,1.679,0,0,1,.133.68c0,.022,0,.043,0,.065a2.277,2.277,0,0,1,.185.151,2.818,2.818,0,0,1,1,.655,1.674,1.674,0,0,1,.562,1.385,1.983,1.983,0,0,1,.865,1.993,3.411,3.411,0,0,1-2.283,2.569,1.925,1.925,0,0,1-.5.07,1.654,1.654,0,0,1-1.24-.575,5.721,5.721,0,0,1-2.7.706h-.014a2.434,2.434,0,0,1-1.511-.388,7.313,7.313,0,0,1-.417,2.631,3.878,3.878,0,0,1,1.683-.4,3.1,3.1,0,0,1,.445.032h0a2.034,2.034,0,0,1,1.409.817,2.1,2.1,0,0,1,.341,1.243c0,.063,0,.128-.007.193.043,0,.087.006.13.012l.035.007a6.414,6.414,0,0,1,2.28-1.3,10.456,10.456,0,0,1,3.287-.479c.268,0,.535.009.8.023a1.779,1.779,0,0,1,.542-.554,13.3,13.3,0,0,1,1.769-1.04l.052-.028a17.066,17.066,0,0,1,7.674-1.8,15.5,15.5,0,0,1,2.3.168,12.575,12.575,0,0,1,3.446-1.432c2.546-.8,7.6-2.03,10.686-2.755,2.17-.555,3.76-.951,3.761-.951a.234.234,0,0,1,.193.417,22.551,22.551,0,0,1-2.415,1.476c-.421.243-.893.5-1.408.764-.924.476-1.972.978-3.046,1.475,3.263-1.023,6.337-1.981,6.362-1.981l.74-.047Z" transform="translate(0 -603.059)" fill="#eaa1d4"/>
    <path id="패스_20542" data-name="패스 20542" d="M117.687,608.728a15.543,15.543,0,0,1,15.541,15.542v43.963a15.542,15.542,0,0,1-15.541,15.542H21.211A15.543,15.543,0,0,1,5.669,668.233V624.27a15.543,15.543,0,0,1,15.542-15.542Zm0-5.669H21.211A21.236,21.236,0,0,0,0,624.27v43.963a21.236,21.236,0,0,0,21.211,21.211h96.476A21.237,21.237,0,0,0,138.9,668.233V624.27a21.237,21.237,0,0,0-21.211-21.211" transform="translate(0 -603.059)" fill="#fff"/>
  </g>
</svg>
