<svg id="NEM_3" xmlns="http://www.w3.org/2000/svg" xmlns:xlink="http://www.w3.org/1999/xlink" width="135.064" height="120.59" viewBox="0 0 135.064 120.59">
  <defs>
    <clipPath id="clip-path">
      <rect id="사각형_5662" data-name="사각형 5662" width="135.064" height="120.59" fill="none"/>
    </clipPath>
  </defs>
  <g id="그룹_11071" data-name="그룹 11071" clip-path="url(#clip-path)">
    <path id="패스_19267" data-name="패스 19267" d="M134.964,68.673a.373.373,0,0,0,.1-.275l-.232-4.038a.369.369,0,0,0-.395-.347l-3.44.245-.42-7.243L130.97,57a.369.369,0,0,0,.353-.387l-.146-3.183a.369.369,0,0,0-.385-.353l-5.828.253-.179-6.193.132.015a.371.371,0,0,0,.412-.383l-.114-2.859a.368.368,0,0,0-.323-.352l-1.9-.239-.2-6.223h.319a.37.37,0,0,0,.37-.37V33.408a.37.37,0,0,0-.37-.37H104.144a.371.371,0,0,0-.157.035l-6.261,2.943a.37.37,0,0,0-.211.365l.234,2.9a.369.369,0,0,0,.464.327l.253-.067.16,4.26-2.658.169c0-.054-.008-.108-.011-.161-.013-.17-.027-.338-.041-.507-.008-.1-.016-.2-.025-.3-.009-.12-.019-.239-.028-.358l-.008-.1c-.014-.169-.028-.336-.042-.5-.018-.214-.036-.429-.055-.643l-.008-.085c-.01-.121-.021-.241-.032-.361,0-.026,0-.052-.007-.078-.019-.205-.036-.412-.056-.618-.016-.168-.031-.336-.047-.5-.014-.142-.027-.284-.041-.425-.006-.071-.013-.141-.02-.212h0q-.025-.263-.051-.526l-.029-.283c-.016-.158-.032-.315-.048-.472-.012-.123-.025-.247-.038-.369q-.034-.328-.071-.651c0-.031-.007-.063-.01-.093l-.034-.308c0-.02,0-.04-.006-.059-.04-.358-.08-.716-.123-1.071l-.019-.155c-.018-.148-.036-.294-.054-.442q-.057-.473-.117-.943c-.019-.156-.04-.311-.059-.465q-.066-.506-.135-1.006c-.016-.112-.03-.224-.046-.335q-.093-.662-.189-1.312c-.013-.092-.027-.182-.041-.272q-.078-.517-.16-1.028c-.021-.135-.043-.269-.065-.4q-.075-.463-.154-.917c-.021-.124-.042-.249-.064-.374-.073-.415-.147-.828-.224-1.233a.37.37,0,0,0-.152-.234s-4.434-3.1-10.737-6.869S68.442,11.1,60.927,8.444a.246.246,0,0,0-.034-.009.165.165,0,0,0-.03-.007l-.028,0h-.046a.389.389,0,0,0-.055.008h0l-.015,0h0a.345.345,0,0,0-.071.026l-4.616,2.21a.37.37,0,0,0-.2.423l.112.448L44.234,17.672l.035-.371.236.038.025,0a.408.408,0,0,0,.073,0h0l.017,0a.3.3,0,0,0,.056-.009c.009,0,.016-.005.025-.008a.378.378,0,0,0,.044-.017.224.224,0,0,0,.025-.014.36.36,0,0,0,.039-.025l.005,0,.017-.017a.339.339,0,0,0,.026-.024l0,0,0,0,.02-.026c.008-.011.016-.021.023-.033s.011-.021.015-.032.009-.017.012-.026l0-.011a.231.231,0,0,0,.01-.035.2.2,0,0,0,.006-.025v-.013l0-.012L45.226,14a.37.37,0,0,0-.307-.4l-6.249-1.065.4-4.1.113.05a.37.37,0,0,0,.517-.3l.355-3.066a.37.37,0,0,0-.189-.366L33.844,1.429l0,0a.354.354,0,0,0-.08-.032l-.015,0a.331.331,0,0,0-.053-.009L15.184,0a.37.37,0,0,0-.395.326l-.365,3.141v0h0v0a.365.365,0,0,0,.089.286.359.359,0,0,0,.233.122L14.09,9.924l-1.915.1a.37.37,0,0,0-.352.359l-.085,2.812a.369.369,0,0,0,.1.269.313.313,0,0,0,.041.035l-.591,6.372-5.949-.757a.371.371,0,0,0-.414.323l-.394,3.3a.37.37,0,0,0,.318.411l.62.083-.717,7.344-3.823-.6a.369.369,0,0,0-.424.317L0,34.132a.375.375,0,0,0,.074.275.37.37,0,0,0,.248.14l.247.031L0,40.321a.37.37,0,0,0,.316.4l1.333.186.925.13-.266,2.9a.37.37,0,0,0,.313.4l.19.029L2.332,50.4a.369.369,0,0,0,.314.395l5.87.874a.52.52,0,0,0,.122.291,1.846,1.846,0,0,1,.216.323,7.536,7.536,0,0,0-2.418-.343,13.425,13.425,0,0,0-1.867.138,4.262,4.262,0,0,0-2.736,1.492,4,4,0,0,0-.94,2.514,2.677,2.677,0,0,0,.637,1.807,2.258,2.258,0,0,0,.82.578,2.877,2.877,0,0,0,1.113.207,7.691,7.691,0,0,1,4.431,1.426,8.389,8.389,0,0,1,1.167.984c.131.133.229.243.294.319.031.036.054.063.069.083a7.836,7.836,0,0,0,1.991,2.776,9.239,9.239,0,0,0,5.211,2.173,31.731,31.731,0,0,0,9.043,3.576,23.644,23.644,0,0,0,5.01.559A15.794,15.794,0,0,0,35,70.047a15.825,15.825,0,0,0,6.89,3.432l.015,0,.038.007c.114.024.227.044.339.065l.067.011a14.922,14.922,0,0,0,1.485.195c-.062,1.495-.132,2.845-.2,4.019-.017.273-.033.533-.049.788-.071-.005-.2-.013-.394-.016h-.132a15.087,15.087,0,0,0-8.449,2.825A19.851,19.851,0,0,0,29.23,87.13a34.076,34.076,0,0,0-4.2,10.563,63.806,63.806,0,0,0-2.01,14.079c0,3.681.679,5.822,1.542,7.089a4.159,4.159,0,0,0,1.356,1.295,3.305,3.305,0,0,0,1.149.405,2.575,2.575,0,0,0,.393.03,3.485,3.485,0,0,0,2.19-.873,3.948,3.948,0,0,0,.771-.87,2.934,2.934,0,0,0,.379-.856,15.663,15.663,0,0,0,2.428-2.2,14.212,14.212,0,0,0,3.42-6.37c.062-.074.164-.2.276-.348.088-.117.182-.248.267-.379.042-.067.083-.133.119-.2l.063-.014a2.406,2.406,0,0,0,.589-.232,1.723,1.723,0,0,0,.91-1.577,2.591,2.591,0,0,0-.038-.424,3.244,3.244,0,0,0,.446-.337,2.429,2.429,0,0,0,.5-.62,1.877,1.877,0,0,0,.237-.912,1.927,1.927,0,0,0-.021-.271c-.007-.049-.015-.1-.026-.149a2.9,2.9,0,0,0,.331-.235,2.082,2.082,0,0,0,.444-.5,1.394,1.394,0,0,0,.175-1.1,2.542,2.542,0,0,0,.3-.241,2.091,2.091,0,0,0,.417-.541,1.739,1.739,0,0,0,.166-.487c.026.059.053.118.08.177a27.9,27.9,0,0,0,2.7,4.764c-.1,1.279-.152,2.426-.153,3.454,0,3.882.676,6.09,1.533,7.373a3.907,3.907,0,0,0,1.348,1.287,3,3,0,0,0,1.132.361,2.342,2.342,0,0,0,.248.012,2.685,2.685,0,0,0,1.082-.239,3.588,3.588,0,0,0,1.3-.993,2.926,2.926,0,0,0,.625-1.229,13.974,13.974,0,0,0,2.059-2.041,12.661,12.661,0,0,0,2.786-5.8c.052-.069.136-.182.227-.314.074-.108.152-.228.223-.349.033-.056.063-.112.091-.167a2.186,2.186,0,0,0,.538-.23,1.658,1.658,0,0,0,.539-.51,1.6,1.6,0,0,0,.251-.886,2.313,2.313,0,0,0-.048-.446,2.794,2.794,0,0,0,.346-.287,2.234,2.234,0,0,0,.42-.556,1.718,1.718,0,0,0,.2-.806,1.8,1.8,0,0,0-.055-.429,2.454,2.454,0,0,0,.25-.2,1.892,1.892,0,0,0,.379-.453,1.323,1.323,0,0,0,.189-.674,1.3,1.3,0,0,0-.048-.348,2.318,2.318,0,0,0,.224-.2,1.917,1.917,0,0,0,.353-.484,1.563,1.563,0,0,0,.168-.706,1.7,1.7,0,0,0-.043-.369c.118-.093.283-.221.478-.377a41.734,41.734,0,0,0,2.248,4.007,21.528,21.528,0,0,0,4,4.789,10.062,10.062,0,0,0,2.4,1.546,6.542,6.542,0,0,0,2.658.588,6.075,6.075,0,0,0,1.534-.2,5.925,5.925,0,0,0,2.251-1.121,6.172,6.172,0,0,0,1.6-1.98,10.468,10.468,0,0,0,.982-4.818,26.468,26.468,0,0,0-.687-5.573c-.135-.617-.281-1.211-.428-1.769l5.65-3.063,1.6,1.058v1.789l0,.019,0,.03.008.041c0,.009,0,.017.008.026a.421.421,0,0,0,.017.042c0,.007.006.014.011.021a.272.272,0,0,0,.028.042l.008.012,0,0a.335.335,0,0,0,.047.047l0,0a.335.335,0,0,0,.06.04l.006,0a.328.328,0,0,0,.057.024l.025.006.036.008,3.894.534a.349.349,0,0,0,.049.046,10.978,10.978,0,0,0,1.406.8,9.021,9.021,0,0,0,3.183.92,12.074,12.074,0,0,1,2.745.441,3.733,3.733,0,0,1,1.679,1,8.714,8.714,0,0,0,1.452,1.378,4.515,4.515,0,0,0,2.663.828,7.458,7.458,0,0,0,2.714-.576,20.689,20.689,0,0,1,7.639-1.6c.255,0,.494.006.718.016.063,0,.125,0,.188,0a8.009,8.009,0,0,0,3.138-.772,6.982,6.982,0,0,0,2.543-1.821c.426-.539.738-1,1.022-1.4a7.105,7.105,0,0,1,1.406-1.582,13.649,13.649,0,0,1,2.989-1.7,5.605,5.605,0,0,1,2.289-.447,7.654,7.654,0,0,1,1.153.089c.143.023.256.045.332.062l.085.019.02.005h0a.369.369,0,0,0,.275-.034,3.116,3.116,0,0,0,.829-.749,3.8,3.8,0,0,0,.8-2.406,4.931,4.931,0,0,0-.027-.512,4.247,4.247,0,0,0-.45-1.563,3.094,3.094,0,0,0-.884-1.042l2.032-.133a.37.37,0,0,0,.345-.369V78.732h.2a.37.37,0,0,0,.37-.369v-3.2l2.358-.1a.37.37,0,0,0,.353-.383l-.231-5.888h.078a.371.371,0,0,0,.269-.115M42.812,52.018a6.207,6.207,0,0,0-1.623-.2c-.127,0-.251,0-.375.011l.2-1.669.261-.072a.372.372,0,0,0,.268-.313l.486-4.131a.37.37,0,0,0-.293-.405l-5.441-1.1.723-5.232H37.1a.371.371,0,0,0,.368-.327l.352-2.994a.371.371,0,0,0-.086-.283.36.36,0,0,0-.149-.1l1.5-.077a.37.37,0,0,0,.35-.339L40.02,27.3A134.248,134.248,0,0,1,43.673,52.38a3.328,3.328,0,0,0-.861-.362m30.5,52.43a.97.97,0,0,1-.259.339.767.767,0,0,1-.288.13.963.963,0,0,1-.239.029,1.8,1.8,0,0,1-.829-.247,7.342,7.342,0,0,1-1.9-1.645,27.2,27.2,0,0,1-3.127-4.628c-.567-1.026-1.11-2.119-1.612-3.234.208-.328.422-.687.624-1.06.166-.308.321-.626.458-.944L72.8,96.082c.1.375.189.753.275,1.133a23.288,23.288,0,0,1,.642,4.863,5.4,5.4,0,0,1-.41,2.371" transform="translate(0 0)" fill="#0d0002"/>
    <path id="패스_19268" data-name="패스 19268" d="M137.632,65.1l-21.4,1.311.122,7.538.121,0,27.573-1.965-.42-7.257Z" transform="translate(-13.792 -7.681)" fill="#47545d"/>
    <path id="패스_19269" data-name="패스 19269" d="M143.922,63.539l.395-.017-.112-2.444-5.471.238v.014a.369.369,0,0,1-.369.381H129.9l-14.021.6v2.949l28.041-1.72Z" transform="translate(-13.749 -7.247)" fill="#47545d"/>
    <path id="패스_19270" data-name="패스 19270" d="M6.228,33.827,32.956,37.8l.813-7.757L6.947,26.467Z" transform="translate(-0.739 -3.14)" fill="#47545d"/>
    <path id="패스_19271" data-name="패스 19271" d="M6.03,25.138,34.242,28.9l.247-2.755L6.336,22.568Z" transform="translate(-0.715 -2.678)" fill="#47545d"/>
    <path id="패스_19272" data-name="패스 19272" d="M130.107,45.3l5.158-.114a.29.29,0,0,1,.3.284l.052,2.167a.29.29,0,0,1-.284.3l-1.027.023,2.078.26-.2-6.124-17.093.316.375,5.845,10.4-.841-.043-1.817a.29.29,0,0,1,.284-.3" transform="translate(-14.131 -4.995)" fill="#ff3600"/>
    <path id="패스_19273" data-name="패스 19273" d="M136.5,40.9h.338V38.325H118.826l.186,2.9Z" transform="translate(-14.099 -4.547)" fill="#ff3600"/>
    <path id="패스_19274" data-name="패스 19274" d="M122.214,99.222c-1.09.316-1.972.566-2.41.677l-.031,4.312,7.641-2.225c.039-.308.087-.622.15-.94.041-.2.089-.408.142-.613l.294-2.9-1.712.489c-1.376.408-2.853.843-4.074,1.2" transform="translate(-14.212 -11.573)" fill="#ff3600"/>
    <path id="패스_19275" data-name="패스 19275" d="M107.975,99.484l-3.555,4.04,1.783.186,10.8,1.016.033-4.575-9.058-.672,0,.005" transform="translate(-12.39 -11.804)" fill="#ff3600"/>
    <path id="패스_19276" data-name="패스 19276" d="M115.771,86.839h0l-5.75.331v3.109l.582-.025,33.631-2.15h.219V85.19Z" transform="translate(-13.054 -10.108)" fill="#ff3600"/>
    <path id="패스_19277" data-name="패스 19277" d="M111.122,91.464v5.194l18.611-1.22a6.716,6.716,0,0,1,2.44-.54,3.372,3.372,0,0,1,1.265.227c.047.019.089.041.133.062l10.447-.685V89.361Z" transform="translate(-13.185 -10.603)" fill="#ff3600"/>
    <path id="패스_19278" data-name="패스 19278" d="M49.1,25.813a.376.376,0,0,1-.137.253.371.371,0,0,1-.276.079l-2.15-.257v2.535a.33.33,0,0,1-.007.072.18.18,0,0,1-.011.037c0,.011-.005.022-.01.033s-.011.022-.018.033-.011.021-.017.031-.014.017-.021.026a.37.37,0,0,1-.025.03h0c-.008.008-.018.014-.026.021s-.019.017-.03.024-.022.011-.033.018-.02.011-.031.016l-.034.011-.035.011h-.01A138.157,138.157,0,0,1,50,55.908L53.928,57l.021.008.025.01a.26.26,0,0,1,.041.021l.02.012a.193.193,0,0,1,.038.031l.014.01,0,0a.526.526,0,0,1,.04.047l0,.007a.36.36,0,0,1,.055.13.045.045,0,0,1,0,.019c0,.017,0,.033.006.05v3.666a.37.37,0,0,1-.37.37h-.247V65.7a.37.37,0,0,1-.344.368l-2.987.2c0,1.816-.025,3.54-.063,5.158.155.006.308.01.458.011a12.873,12.873,0,0,0,6.332-1.723h0a1.888,1.888,0,0,1,1-.309,1.594,1.594,0,0,1,.865.257,2.229,2.229,0,0,1,.661.691,2.586,2.586,0,0,1,.412,1.353,1.8,1.8,0,0,1-.18.8,1.616,1.616,0,0,1-.587.645c-.01.006-.072.046-.183.111l-3.742,7.111.14-.088c3.528-2.223,7.721-4.9,10.47-6.763.367-5.738.524-11.121.524-16.118,0-25.276-3.979-40.775-4.735-43.49L49.635,20.2Z" transform="translate(-5.485 -1.652)" fill="#ff3600"/>
    <path id="패스_19279" data-name="패스 19279" d="M51.061,83.7h-.071c-.066,0-.134,0-.2,0l-.156,0-.133,0c-.171,4.151-.412,7.17-.53,8.491l.232-.144,4.208-8.679a16.944,16.944,0,0,1-3.35.341" transform="translate(-5.929 -9.891)" fill="#ff3600"/>
    <path id="패스_19280" data-name="패스 19280" d="M66.472,82.67l-.011,0c-.01-.006-.018-.016-.027-.023a.372.372,0,0,1-.041-.033.385.385,0,0,1-.029-.035.2.2,0,0,1-.017-.021c-2.759,1.856-6.731,4.389-10.1,6.51-2.333,1.47-4.372,2.741-5.512,3.449l-.005,0-.355.22,2.772,1.2-.015-.032a2.246,2.246,0,0,1-.24-.967,1.747,1.747,0,0,1,.444-1.155,3.276,3.276,0,0,1,1.087-.78,3.823,3.823,0,0,1,1.612-.411,2.035,2.035,0,0,1,1.015.249,1.852,1.852,0,0,1,.754.833c.067.142,1.08,2.272,2.252,5.263l18.47,8.021c-.279-.982-.583-1.912-.887-2.714a2.2,2.2,0,0,1-.152-.776,1.687,1.687,0,0,1,.145-.69,1.868,1.868,0,0,1,.395-.561,3.513,3.513,0,0,1,1.247-.748,4.027,4.027,0,0,1,1.387-.286,2.006,2.006,0,0,1,1.077.283,1.85,1.85,0,0,1,.743.946c.032.084.532,1.413,1.066,3.312l7.829-4.245a.649.649,0,0,1,.069-.078,1.344,1.344,0,0,1,.164-.13c.12-.084.273-.177.455-.28.363-.207.837-.455,1.311-.694s.914-.456,1.265-.625l-28.162-15-.01-.007" transform="translate(-5.978 -9.795)" fill="#ff3600"/>
    <path id="패스_19281" data-name="패스 19281" d="M97.443,90.115c-.907-.537-1.853-1.084-2.819-1.633a4.025,4.025,0,0,1-.55.574,4.948,4.948,0,0,1-6.275,0,3.654,3.654,0,0,1-1.328-2.773,3.5,3.5,0,0,1,.6-1.95C81.2,81.2,75.983,78.6,74.783,78l-.039-.019a47.725,47.725,0,0,1-5.059,3.8l29.077,15.49.637-.346,4.657-2.528a76.506,76.506,0,0,0-6.614-4.282" transform="translate(-8.268 -9.253)" fill="#ff3600"/>
    <path id="패스_19282" data-name="패스 19282" d="M69.822,11.144c.1.319.218.7.348,1.143,1.629,5.533,5.339,20.627,5.339,43.34q0,3.338-.113,6.895-.053,1.643-.133,3.331-.045.939-.1,1.89c-.029.525-.062,1.056-.1,1.587,1.736.861,13.417,6.687,22.161,11.814a83.363,83.363,0,0,1,7.151,4.586l0-.1c.012-.535.03-1.319.048-2.319.035-2,.071-4.856.071-8.291,0-5.166-.08-11.638-.357-18.454l-.189.007a.37.37,0,0,1-.382-.343l-.513-7.18V48.9a.369.369,0,0,1-.271-.324l-.242-2.86a.37.37,0,0,1,.345-.4l.6-.038a165.436,165.436,0,0,0-2.12-17.333L101.3,27.9c-.133-.091-.33-.227-.585-.4-.511-.348-1.259-.851-2.2-1.473-1.89-1.241-4.564-2.953-7.7-4.828A133.765,133.765,0,0,0,69.67,10.672l.013.041c.041.128.088.272.138.432" transform="translate(-8.267 -1.266)" fill="#ff3600"/>
    <path id="패스_19283" data-name="패스 19283" d="M69.237,57.014c0,4.992-.157,10.368-.522,16.1.278-.18.638-.42,1.072-.722a48.594,48.594,0,0,0,3.9-3.027q.054-.841.1-1.672c.237-4.235.342-8.263.342-12.076,0-20.17-2.937-34.3-4.717-41.008l-.114-.427q-.226-.834-.42-1.5c-.294-1.014-.525-1.724-.661-2.124l-3.971,1.9.108.428c.113.375,4.887,16.4,4.887,44.126" transform="translate(-7.623 -1.253)" fill="#ff3600"/>
    <path id="패스_19284" data-name="패스 19284" d="M23.7,68.947l6.715,3.525V67.955L23.7,64.969Z" transform="translate(-2.813 -7.709)" fill="#ff3600"/>
    <path id="패스_19285" data-name="패스 19285" d="M51.173,67.778l-19.011.546v4.719l19.011-1.3Z" transform="translate(-3.816 -8.042)" fill="#ff3600"/>
    <path id="패스_19286" data-name="패스 19286" d="M30.151,63.6l-7.24-2.854v2.588l.484.228,6.756,3Z" transform="translate(-2.718 -7.208)" fill="#ff3600"/>
    <path id="패스_19287" data-name="패스 19287" d="M51.178,66.546h.589v-2.91l-19.8.418V67.1l19.2-.553Z" transform="translate(-3.793 -7.551)" fill="#ff3600"/>
    <path id="패스_19288" data-name="패스 19288" d="M39.4,54.667l.181-1.208.248-1.66-3.287-.517-.416-.059h0l-4.314-.611L3.726,46.681,3.494,49.2,39.37,54.662Z" transform="translate(-0.415 -5.539)" fill="#ff3600"/>
    <path id="패스_19289" data-name="패스 19289" d="M38.254,59.98l.137-1.044.414-3.162L3.964,50.467l-.45,5.639,34.574,5.149Z" transform="translate(-0.417 -5.988)" fill="#ff3600"/>
    <path id="패스_19290" data-name="패스 19290" d="M35.138,5.057l.182-2.86L17.53.868l-.279,2.387,17.826,1.8Z" transform="translate(-2.047 -0.103)" fill="#ff3600"/>
    <path id="패스_19291" data-name="패스 19291" d="M22.5,11.718l-8.27.414-.063,2.091h8.248Z" transform="translate(-1.682 -1.39)" fill="#ff3600"/>
    <path id="패스_19292" data-name="패스 19292" d="M35.144,13.592,24.452,11.771l-.085,2.514L46.888,17.9h0l.258.042.2-2.275L41.1,14.607h0l-5.953-1.014h0" transform="translate(-2.891 -1.397)" fill="#ff3600"/>
    <path id="패스_19293" data-name="패스 19293" d="M43.83,25.323l1.862.223.624-6.531L24.028,15.433l-.606,7.451,15.031,1.8,5.029.283a.369.369,0,0,1,.348.36" transform="translate(-2.779 -1.831)" fill="#ff3600"/>
    <path id="패스_19294" data-name="패스 19294" d="M21.527,22.789l.6-7.39H14.24l-.592,6.388,4.558.58Z" transform="translate(-1.619 -1.827)" fill="#ff3600"/>
    <path id="패스_19295" data-name="패스 19295" d="M108.4,53.981l.486,6.811,3.179-.114,16.559-.708-.2-7.449-19.548,1.3h0l-.478.033Z" transform="translate(-12.862 -6.232)" fill="#ff3600"/>
    <path id="패스_19296" data-name="패스 19296" d="M131.847,49.677l.069,1.7,8.163.793h.006l.128.014-.084-2.115-8.308-1.042Z" transform="translate(-15.641 -5.817)" fill="#ff3600"/>
    <path id="패스_19297" data-name="패스 19297" d="M108.026,52.709l.735-.039,19.57-1.3-.1-2.362-16.4,1.325h-.006l-3.983.253Z" transform="translate(-12.796 -5.814)" fill="#ff3600"/>
    <path id="패스_19298" data-name="패스 19298" d="M132.155,59.958h7.737L139.7,53.29l-7.743-.752Z" transform="translate(-15.657 -6.234)" fill="#ff3600"/>
    <path id="패스_19299" data-name="패스 19299" d="M22.806,10.116l.378-.019h0a.2.2,0,0,1,.023,0,.271.271,0,0,1,.054,0h0l10.722,1.827L34.6,6.182l-17.12-1.73-.646,5.962,5.2-.26Z" transform="translate(-1.998 -0.528)" fill="#ff3600"/>
    <path id="패스_19300" data-name="패스 19300" d="M145.766,97.644a2.406,2.406,0,0,0-.55-.715,2.087,2.087,0,0,0-.251-.189l-6.958.766a2.589,2.589,0,0,1,.113.329,6.593,6.593,0,0,1,.175,1.615,17.3,17.3,0,0,1-.707,4.52,8.352,8.352,0,0,1,.841-.607,18.737,18.737,0,0,1,2.361-1.233,6.346,6.346,0,0,1,2.592-.512,8.039,8.039,0,0,1,1.617.162l.068-.051a2.75,2.75,0,0,0,.435-.439,3.045,3.045,0,0,0,.64-1.946,4.2,4.2,0,0,0-.023-.435,3.522,3.522,0,0,0-.353-1.263" transform="translate(-16.325 -11.479)" fill="#fff"/>
    <path id="패스_19301" data-name="패스 19301" d="M134.852,97.4a2.211,2.211,0,0,0-.4-.491c-.014-.012-.027-.019-.041-.031a1.9,1.9,0,0,0-.4-.221,2.629,2.629,0,0,0-.989-.174,6.051,6.051,0,0,0-2.217.507,3.561,3.561,0,0,0-1.525,1.2,6.129,6.129,0,0,0-.905,1.844,13.475,13.475,0,0,0-.523,3.886c0,.409.015.742.028.959a2.462,2.462,0,0,1,.264.078,2.04,2.04,0,0,1,1.006.736,1.925,1.925,0,0,1,.334,1.061.37.37,0,0,1-.739.024,1.21,1.21,0,0,0-.176-.625,1.115,1.115,0,0,0-.367-.354,1.8,1.8,0,0,0-.622-.227l-.972.377a14.843,14.843,0,0,1-1.328,1.151,5.833,5.833,0,0,1-2.358.958,11.653,11.653,0,0,0-2.343.665,4.186,4.186,0,0,0-1.846,1.379,2.9,2.9,0,0,0-.457,1.064c.2-.063.4-.133.617-.217a21.408,21.408,0,0,1,7.908-1.656c.266,0,.516.006.75.017l.156,0a7.31,7.31,0,0,0,2.833-.706A6.3,6.3,0,0,0,132.8,107q.238-.3.464-.614a6.149,6.149,0,0,0,1.033-1.747c.078-.259.167-.516.247-.776.115-.368.233-.819.339-1.309a15.514,15.514,0,0,0,.376-3.131,5.868,5.868,0,0,0-.151-1.429,2.259,2.259,0,0,0-.26-.591" transform="translate(-14.034 -11.448)" fill="#fff"/>
    <path id="패스_19302" data-name="패스 19302" d="M131.338,47.831a.355.355,0,0,1,.075,0h0l4.332.543,1.027-.022a.291.291,0,0,0,.285-.3l-.052-2.167a.29.29,0,0,0-.3-.284l-5.157.113a.291.291,0,0,0-.285.3l.044,1.818Z" transform="translate(-15.575 -5.411)" fill="#fff"/>
    <path id="패스_19303" data-name="패스 19303" d="M115.42,76a.4.4,0,0,1-.085.008l-4.557-.158,0,3.08h4.69V76Z" transform="translate(-13.144 -9)" fill="#fff"/>
    <path id="패스_19304" data-name="패스 19304" d="M147.992,73.5l-3.439.245L116.94,75.71v2.917l31.146-1.857h.093Z" transform="translate(-13.876 -8.721)" fill="#fff"/>
    <path id="패스_19305" data-name="패스 19305" d="M116.94,79.912v5.06l19.685-.869,9-.516a.369.369,0,0,1,.275.1l.006.007,2.068-.091-.218-5.527Z" transform="translate(-13.876 -9.264)" fill="#fff"/>
    <path id="패스_19306" data-name="패스 19306" d="M65.058,119.343a7.8,7.8,0,0,1-.362,1.045c-.028.065-.06.127-.09.191.034-.011.071-.025.111-.041a1.034,1.034,0,0,0,.478-.37.853.853,0,0,0,.13-.482,1.561,1.561,0,0,0-.033-.3c-.078-.015-.158-.027-.234-.045" transform="translate(-7.666 -14.161)" fill="#fff"/>
    <path id="패스_19307" data-name="패스 19307" d="M59.455,116.054a.99.99,0,0,0-.186.572,1.141,1.141,0,0,0,.108.472,1.228,1.228,0,0,0,.115.2,7.116,7.116,0,0,0,.132-1.4.2.2,0,0,0-.041.017.42.42,0,0,0-.128.131" transform="translate(-7.033 -13.753)" fill="#fff"/>
    <path id="패스_19308" data-name="패스 19308" d="M65.493,116.791a11.777,11.777,0,0,1-.182,1.519c.1.024.2.045.3.064.045-.029.1-.065.16-.114a1.658,1.658,0,0,0,.441-.51.987.987,0,0,0,.118-.462,1.085,1.085,0,0,0-.04-.277,6.957,6.957,0,0,1-.8-.221" transform="translate(-7.749 -13.858)" fill="#fff"/>
    <path id="패스_19309" data-name="패스 19309" d="M65.5,114.512c.025.394.039.776.039,1.146,0,.022,0,.042,0,.064a8.353,8.353,0,0,0,1,.308c.035-.022.075-.048.119-.08a1.359,1.359,0,0,0,.369-.384.592.592,0,0,0,.088-.3.567.567,0,0,0-.024-.158,5.109,5.109,0,0,1-1.59-.595" transform="translate(-7.772 -13.587)" fill="#fff"/>
    <path id="패스_19310" data-name="패스 19310" d="M66.08,111.887c-.317-.257-.628-.54-1.029-.887.142.762.249,1.487.321,2.178.1.066.194.129.287.185a4.393,4.393,0,0,0,1.565.608c.032-.021.066-.046.106-.078a1.274,1.274,0,0,0,.339-.4.823.823,0,0,0,.09-.375.955.955,0,0,0-.032-.236,6.791,6.791,0,0,1-1.647-.991" transform="translate(-7.719 -13.171)" fill="#fff"/>
    <path id="패스_19311" data-name="패스 19311" d="M40.934,119.657c-.062-.029-.121-.059-.181-.089s-.1-.052-.153-.079a9.325,9.325,0,0,1-1.88-1.3,8.634,8.634,0,0,1-1.318-1.457,1.464,1.464,0,0,0-.248-.189.512.512,0,0,0-.247-.083.223.223,0,0,0-.111.029.528.528,0,0,0-.16.152,1.15,1.15,0,0,0-.249.711,1.367,1.367,0,0,0,.1.5,1.468,1.468,0,0,0,.141.275l.01.015.019.027a7.66,7.66,0,0,0,2.419,2.592,6.06,6.06,0,0,0,1.882.769c.127.026.253.054.388.076l.029.005.019.005c.038-.007.094-.019.16-.037a1.537,1.537,0,0,0,.465-.212,1,1,0,0,0,.265-.266,1.044,1.044,0,0,0,.164-.6,1.982,1.982,0,0,0-.031-.31,7.221,7.221,0,0,1-1.482-.529" transform="translate(-4.317 -13.819)" fill="#fff"/>
    <path id="패스_19312" data-name="패스 19312" d="M41,116.331a8.466,8.466,0,0,1-1.772-1.626l-.2-.224.015-.012-.015.012a1.913,1.913,0,0,0-.391-.36.493.493,0,0,0-.259-.093.329.329,0,0,0-.182.058,1.082,1.082,0,0,0-.274.264.9.9,0,0,0-.193.57,1.492,1.492,0,0,0,.124.563,2.232,2.232,0,0,0,.285.491l.016.023,0,0,.012.019.056.078c.05.069.126.17.228.294a8.593,8.593,0,0,0,.919.954,8.077,8.077,0,0,0,3.473,1.851,2.393,2.393,0,0,0,.216-.141,1.878,1.878,0,0,0,.541-.587,1.146,1.146,0,0,0,.146-.557,1.274,1.274,0,0,0-.039-.3A8.144,8.144,0,0,1,41,116.331" transform="translate(-4.477 -13.53)" fill="#fff"/>
    <path id="패스_19313" data-name="패스 19313" d="M42.891,114.68a12.146,12.146,0,0,1-2.48-2.332,2.966,2.966,0,0,0-.486-.464.383.383,0,0,0-.21-.065.4.4,0,0,0-.293.137.689.689,0,0,0-.158.479,2.6,2.6,0,0,0,.711,1.538,7.9,7.9,0,0,0,2.469,2,9.141,9.141,0,0,0,1.7.679c.048-.026.1-.058.168-.1a1.518,1.518,0,0,0,.449-.441.675.675,0,0,0,.111-.367.72.72,0,0,0-.027-.192,5.768,5.768,0,0,1-1.959-.87" transform="translate(-4.659 -13.268)" fill="#fff"/>
    <path id="패스_19314" data-name="패스 19314" d="M44.07,112.138c-.524-.465-1.026-1-1.9-1.774A1.321,1.321,0,0,0,41.3,110a.743.743,0,0,0-.493.165.537.537,0,0,0-.179.425,1.73,1.73,0,0,0,.491,1.046,11.473,11.473,0,0,0,2.34,2.211,5,5,0,0,0,1.764.774,1.644,1.644,0,0,0,.152-.1,1.464,1.464,0,0,0,.419-.472.966.966,0,0,0,.114-.458,1.228,1.228,0,0,0-.033-.256,7.628,7.628,0,0,1-1.809-1.2" transform="translate(-4.821 -13.052)" fill="#fff"/>
    <path id="패스_19315" data-name="패스 19315" d="M35.981,102.74a4.615,4.615,0,0,0,1.029-.939c.806-.916,1.9-2.432,3.767-4.7a12.879,12.879,0,0,1,3.364-3.042c.055-.032.108-.057.16-.086a1.654,1.654,0,0,0-.127-.442A1.844,1.844,0,0,0,43.81,93a3.4,3.4,0,0,0-1.182-.74,7.345,7.345,0,0,0-1.941-.451H40.68a.359.359,0,0,1-.156-.048c-.383.2-.774.416-1.169.663-3.021,1.889-6.3,5.344-8.6,11.716a6.713,6.713,0,0,1,.818-.474,6.644,6.644,0,0,1,2.842-.7c.12,0,.241.005.361.014H34.8c.083.006.161.01.237.01a1.73,1.73,0,0,0,.946-.254m-1.214-1.255a1.11,1.11,0,0,1-1-1.6,18.076,18.076,0,0,1,1.333-2.2,17.456,17.456,0,0,1,3.637-3.878h0a1.109,1.109,0,0,1,1.341,1.768,15.245,15.245,0,0,0-3.159,3.385,16.34,16.34,0,0,0-1.159,1.9,1.108,1.108,0,0,1-1,.623" transform="translate(-3.649 -10.888)" fill="#fff"/>
    <path id="패스_19316" data-name="패스 19316" d="M39.764,95.673a1.031,1.031,0,0,1-.2-.137.977.977,0,0,1-.277-.429,18.321,18.321,0,0,0-4.363,5.5.367.367,0,0,0-.038.161.372.372,0,0,0,.208.333.371.371,0,0,0,.494-.17c.006-.012.033-.067.085-.167s.13-.241.231-.418c.2-.352.5-.837.882-1.391a16.48,16.48,0,0,1,2.975-3.287" transform="translate(-4.14 -11.285)" fill="#fff"/>
    <path id="패스_19317" data-name="패스 19317" d="M48.567,89.976c-.086,0-.217-.01-.385-.01a13.554,13.554,0,0,0-5,1.044l.067.013a6.067,6.067,0,0,1,2,.791,2.879,2.879,0,0,1,1.061,1.173,2.331,2.331,0,0,1,.157.451,4.027,4.027,0,0,1,1.437-.3,2.669,2.669,0,0,1,.49.044l.247-3.171-.048-.037-.026,0" transform="translate(-5.124 -10.675)" fill="#fff"/>
    <path id="패스_19318" data-name="패스 19318" d="M9.521,60.742c-.04-.145-.079-.284-.118-.413L9.362,60.3a2.973,2.973,0,0,0-.474-.208,6.778,6.778,0,0,0-2.232-.321,12.831,12.831,0,0,0-1.764.131,3.522,3.522,0,0,0-2.269,1.232,3.274,3.274,0,0,0-.77,2.041,2.1,2.1,0,0,0,.256,1.045,1.511,1.511,0,0,0,.746.657,2.156,2.156,0,0,0,.829.15,8.434,8.434,0,0,1,4.854,1.56c.281.2.529.393.742.576q-.028-.292-.028-.587a19.306,19.306,0,0,1,.56-3.669,1.717,1.717,0,0,0,.027-.329,5.111,5.111,0,0,0-.1-.882c-.058-.321-.138-.654-.221-.96" transform="translate(-0.22 -7.093)" fill="#fff"/>
    <path id="패스_19319" data-name="패스 19319" d="M41.423,74.36a5.09,5.09,0,0,0,1.127,1.365,12.01,12.01,0,0,0,2.59-2.052l-3.94.268c.061.125.134.265.223.419" transform="translate(-4.889 -8.742)" fill="#fff"/>
    <path id="패스_19320" data-name="패스 19320" d="M49.218,60.754a.7.7,0,0,0-.189-.448,1.563,1.563,0,0,0-.546-.363,4.84,4.84,0,0,0-1.82-.31c-.158,0-.314.006-.467.018l-.074.6,3.115.87c-.006-.142-.012-.264-.018-.366" transform="translate(-5.472 -7.076)" fill="#fff"/>
    <path id="패스_19321" data-name="패스 19321" d="M15.172,68.476a4.847,4.847,0,0,1,.08-.878,12.021,12.021,0,0,0,.229-2.038,2.39,2.39,0,0,0-.1-.8c-.161-.424-.4-.9-.6-1.38a3.913,3.913,0,0,1-.379-1.454,1.556,1.556,0,0,1,.085-.524,1.335,1.335,0,0,1,.294-.473,1.919,1.919,0,0,1,.91-.5,3.6,3.6,0,0,1,.751-.107,8.015,8.015,0,0,0-.535-.764l-5.2-.775a3.274,3.274,0,0,1,.293.628,3.449,3.449,0,0,1,.114.4,14.8,14.8,0,0,1,.4,1.566,5.972,5.972,0,0,1,.12,1.085,2.491,2.491,0,0,1-.041.472,18.75,18.75,0,0,0-.546,3.526,4.026,4.026,0,0,0,.308,1.655l0,0,0,0a7.091,7.091,0,0,0,1.791,2.533,7.7,7.7,0,0,0,2.173,1.363,9.023,9.023,0,0,0,1.692.521c-.288-.356-.605-.78-.905-1.2a4.913,4.913,0,0,1-.931-2.871" transform="translate(-1.269 -6.975)" fill="#fff"/>
    <path id="패스_19322" data-name="패스 19322" d="M55.558,77.342a1.865,1.865,0,0,0-.3-.96,1.461,1.461,0,0,0-.435-.461.848.848,0,0,0-.464-.142,1.156,1.156,0,0,0-.608.2h0a13.585,13.585,0,0,1-6.724,1.834A12.208,12.208,0,0,1,39.273,75l0,0a5.587,5.587,0,0,1-1.509-1.727,7.234,7.234,0,0,1-.375-.737l-7.445.508a.374.374,0,0,1-.1.016.368.368,0,0,1-.281-.132l-6.967-3.658a4.916,4.916,0,0,1-.432.763,6.32,6.32,0,0,1-.42.552.37.37,0,1,1-.557-.486v0l.005-.005.021-.025.08-.1c.067-.085.16-.208.258-.351a3.375,3.375,0,0,0,.466-.924V64.974a5.058,5.058,0,0,0-.339-.927l-.147-.07a.372.372,0,0,1-.212-.335v-.207q-.123-.176-.256-.333L21,63.033c-.059-.066-.137-.151-.232-.243A4.716,4.716,0,0,0,20,62.184a5.729,5.729,0,0,0-1.878-.742l-.048-.009c-.044-.007-.11-.018-.191-.028a5.069,5.069,0,0,0-.635-.041,3.076,3.076,0,0,0-.773.086,1.2,1.2,0,0,0-.565.3.581.581,0,0,0-.131.21.818.818,0,0,0-.042.274,3.277,3.277,0,0,0,.321,1.166c.19.45.431.932.613,1.4a3.089,3.089,0,0,1,.151,1.065,12.8,12.8,0,0,1-.241,2.173,4.067,4.067,0,0,0-.068.743,4.173,4.173,0,0,0,.791,2.439c.224.31.457.625.676.906s.427.531.59.7a1.663,1.663,0,0,0,.232.213c.274.158.546.308.815.455a30.307,30.307,0,0,0,8.37,3.138,22.81,22.81,0,0,0,4.564.48,15.632,15.632,0,0,0,3.937-.449l.195-.055.1-.032.016-.005a1.913,1.913,0,0,0,.344-.244c.115-.1.2-.189.219-.2l0,0a.37.37,0,0,1,.534.511c-.005.005-.1.108-.247.233l-.087.073c.293.237.587.464.881.672a15.559,15.559,0,0,0,2.514,1.451,14.24,14.24,0,0,0,1.858.7c.227.068.453.128.679.182q.226.056.449.1A15.282,15.282,0,0,0,47,80.352a16.186,16.186,0,0,0,3.837-.469.38.38,0,0,1,.114-.048l.022-.005.071-.016c.063-.015.155-.037.271-.068.234-.061.564-.152.95-.279l.078-.026a15.755,15.755,0,0,0,2.329-1.009c.071-.04.142-.079.211-.122a.264.264,0,0,1,.028-.011c.143-.083.221-.133.225-.136a.862.862,0,0,0,.321-.35,1.053,1.053,0,0,0,.1-.473" transform="translate(-1.867 -7.281)" fill="#fff"/>
    <path id="패스_19323" data-name="패스 19323" d="M95.783,89.537a3.555,3.555,0,0,1-2.165.962,3.884,3.884,0,0,0,2.551-.442,3.506,3.506,0,0,0,.741-.576l-.745-.419a2.654,2.654,0,0,1-.382.475" transform="translate(-11.108 -10.568)" fill="#fff"/>
    <path id="패스_19324" data-name="패스 19324" d="M63.78,118.409a.369.369,0,0,0-.448.27,5.843,5.843,0,0,1-.8,1.87,4.46,4.46,0,0,1-1.308,1.281c-.116.074-.234.145-.351.21a.37.37,0,1,0,.358.647c.131-.073.263-.151.392-.234a5.2,5.2,0,0,0,1.522-1.49,6.584,6.584,0,0,0,.9-2.1.37.37,0,0,0-.27-.448" transform="translate(-7.2 -14.048)" fill="#fff"/>
    <path id="패스_19325" data-name="패스 19325" d="M88.038,116.951a.369.369,0,0,0-.405.33,7.8,7.8,0,0,1-.764,2.794,4.87,4.87,0,0,1-.977,1.313.369.369,0,1,0,.508.537,5.609,5.609,0,0,0,1.126-1.51,8.535,8.535,0,0,0,.842-3.058.37.37,0,0,0-.33-.405" transform="translate(-10.178 -13.877)" fill="#fff"/>
    <path id="패스_19326" data-name="패스 19326" d="M32,43.519,14.05,41.068,1.408,39.342.877,44.708l30.361,4.249Z" transform="translate(-0.104 -4.668)" fill="#fff"/>
    <path id="패스_19327" data-name="패스 19327" d="M1.131,38.03l30.794,4.2.254-2.453L1.3,34.9.891,38l.235.029Z" transform="translate(-0.106 -4.141)" fill="#fff"/>
    <path id="패스_19328" data-name="패스 19328" d="M41.417,40.7l-4.225-.179-.253,2.451H41.15Z" transform="translate(-4.383 -4.808)" fill="#fff"/>
    <path id="패스_19329" data-name="패스 19329" d="M79.35,43.06A8.677,8.677,0,0,0,80.721,45.3a5.662,5.662,0,0,0,1.843,1.434,3.228,3.228,0,0,0,1.754.384,1.81,1.81,0,0,0,1.289-.846,5.816,5.816,0,0,0,.794-2.253,22.184,22.184,0,0,0,.27-3.816v-.631l-4.226-2.029v3.234l1.095.525a2.846,2.846,0,0,1-.293,1.477.543.543,0,0,1-.772.23,2.062,2.062,0,0,1-.884-1.523,15.932,15.932,0,0,1-.27-3.283,12.3,12.3,0,0,1,.27-3.024q.27-.968.884-.673a1.422,1.422,0,0,1,.7.765,4.454,4.454,0,0,1,.3,1.283L86.43,36.5q-1.214-4.386-3.866-5.661a2.888,2.888,0,0,0-1.813-.322,2.226,2.226,0,0,0-1.371.918,5.619,5.619,0,0,0-.869,2.085A14.238,14.238,0,0,0,78.2,36.7a19.3,19.3,0,0,0,.293,3.456,13.265,13.265,0,0,0,.854,2.9" transform="translate(-9.279 -3.617)" fill="#fff"/>
    <path id="패스_19330" data-name="패스 19330" d="M89.47,47.86a9.272,9.272,0,0,0,1.356,2.269,5.257,5.257,0,0,0,1.761,1.415,2.63,2.63,0,0,0,1.754.272,2.366,2.366,0,0,0,1.363-.963,5.7,5.7,0,0,0,.877-2.091,13.736,13.736,0,0,0,.307-3.087,18.068,18.068,0,0,0-.307-3.382A14.052,14.052,0,0,0,95.7,39.36a9.408,9.408,0,0,0-1.363-2.282,5.231,5.231,0,0,0-1.754-1.422,2.567,2.567,0,0,0-1.761-.265,2.431,2.431,0,0,0-1.356.977,5.689,5.689,0,0,0-.876,2.091,13.681,13.681,0,0,0-.308,3.087,17.987,17.987,0,0,0,.308,3.382,14,14,0,0,0,.876,2.933m2.278-7.684q.3-.914.839-.655t.839,1.46a13.563,13.563,0,0,1,.3,3.175,9.952,9.952,0,0,1-.3,2.877q-.3.9-.839.644t-.839-1.451a13.421,13.421,0,0,1-.3-3.164,10.061,10.061,0,0,1,.3-2.887" transform="translate(-10.476 -4.192)" fill="#fff"/>
    <path id="패스_19331" data-name="패스 19331" d="M97.706,41.885l1.723.828V54.369l3.057,1.468V44.18l1.723.828V41.326l-6.5-3.123Z" transform="translate(-11.593 -4.533)" fill="#fff"/>
    <path id="패스_19332" data-name="패스 19332" d="M80.368,49.073,78.39,55.508l3,1.439,1.394-6.716Z" transform="translate(-9.301 -5.823)" fill="#fff"/>
    <path id="패스_19333" data-name="패스 19333" d="M83.883,65.97l5.664,2.72V65.008l-2.622-1.259v-2.34l2.352,1.13V59.081l-2.352-1.129V55.694l2.622,1.259v-3.6l-5.664-2.72Z" transform="translate(-9.953 -6.008)" fill="#fff"/>
    <path id="패스_19334" data-name="패스 19334" d="M97.846,57.422l-.779,5.18q-.075.555-.143,1.172c-.045.412-.082.85-.112,1.309q-.045-.754-.09-1.415t-.12-1.289l-.69-5.883-3.791-1.821L90.8,69.378l3.237,1.554.255-6.875c.02-.464.04-.92.06-1.364s.035-.9.045-1.372q.045.836.12,1.6t.15,1.475l.809,7.224,2.488,1.194.959-6.374q.09-.629.173-1.32t.127-1.486c.02.486.033.955.038,1.413s.017.926.037,1.411l.225,7.1,3.192,1.533-1.109-15.87Z" transform="translate(-10.774 -6.487)" fill="#fff"/>
    <path id="패스_19335" data-name="패스 19335" d="M58.553,51.122l5.712.476-.193-1.322L58.4,49.789Z" transform="translate(-6.93 -5.908)" fill="#fff"/>
    <path id="패스_19336" data-name="패스 19336" d="M58.066,46.867l2.707.249-2.6.557L58.316,49l5.662.491-.2-1.332-2.451-.231,2.36-.43-.225-1.379-5.558-.507Z" transform="translate(-6.871 -5.412)" fill="#fff"/>
    <path id="패스_19337" data-name="패스 19337" d="M61.99,63.839l-2.724-6.764.558.021-.213-1.513,1.4.08.156,1.27,1.051.059-.172-1.246,1.161.087.173,1.237,1.081.075-.58-3.92-1.764-.917,1.662.17-.208-1.34-5.7-.48.175,1.362,2.47.191-2.38.714.214,1.856-2.421-5.936a3.468,3.468,0,0,1-.166-2.888c.911-1.72,3.169-1.189,3.844-.965a17.192,17.192,0,0,0-2.622-1.308,3.874,3.874,0,0,0-3.85.341c-1.645,1.505-.6,3.858.244,5.332Zm-.572-10.654,2.44,1.265.107.071-5.322-.411Z" transform="translate(-6.202 -5.144)" fill="#fff"/>
    <path id="패스_19338" data-name="패스 19338" d="M74.8,95.329l1.108.542,5.146-2.934-1.112-.54Z" transform="translate(-8.875 -10.963)" fill="#fff"/>
    <path id="패스_19339" data-name="패스 19339" d="M72.318,94.117l2.474-1.406-1.773,1.735L74.131,95l5.144-2.931-1.14-.552L75.87,92.793l1.7-1.56-1.224-.571-5.126,2.93Z" transform="translate(-8.45 -10.757)" fill="#fff"/>
    <path id="패스_19340" data-name="패스 19340" d="M81.263,97.839l-1.2-.56,1.213-.712.99.488.909-.531-.983-.475,1.026-.583.972.474.952-.546L82,93.879l-2.127.535,1.523-.836-1.118-.531L75.14,95.968l1.13.534,2.188-1.254L76.99,96.867l1.48.723-6.278-1.4c-1.281-.283-2.11-.734-2.335-1.275-.575-1.352,1.75-2.381,2.5-2.655a29.529,29.529,0,0,0-3.247.85c-1.616.583-2.871,1.441-2.956,2.351-.163,1.626,2.518,2.141,4.327,2.352L87.4,99.623l-6.607-1.5Zm-3.02-.706L79.9,95.212l2.92-.739.138-.025Z" transform="translate(-7.849 -10.947)" fill="#fff"/>
    <path id="패스_19341" data-name="패스 19341" d="M18.234,22.034l2.842.33a.3.3,0,0,0,.328-.271l.131-1.876a.294.294,0,0,0-.271-.314l-2.834-.226a.3.3,0,0,0-.317.271l-.138,1.771a.3.3,0,0,0,.259.316" transform="translate(-2.133 -2.335)" fill="#fff"/>
    <path id="패스_19342" data-name="패스 19342" d="M47.313,69.522a.339.339,0,0,0-.315.33l-.012,1.586a.287.287,0,0,0,.309.291l4.767-.291a.339.339,0,0,0,.315-.33l.012-1.586a.287.287,0,0,0-.31-.291Z" transform="translate(-5.575 -8.215)" fill="#fff"/>
    <path id="패스_19343" data-name="패스 19343" d="M130.464,91.452a.252.252,0,0,0-.249-.248.237.237,0,0,0-.23.282.241.241,0,0,0,.238.223.253.253,0,0,0,.241-.257" transform="translate(-15.423 -10.822)" fill="#fff"/>
    <path id="패스_19344" data-name="패스 19344" d="M126.59,91.465a10.427,10.427,0,0,0-1.085,1.362,2.992,2.992,0,0,0-.521,1.5,1.217,1.217,0,0,0,.163.645,1.161,1.161,0,0,0,.508.46,1.557,1.557,0,0,0,.659.134,4.577,4.577,0,0,0,1.734-.447l1.646-.7-.04.131.005.008.319-.02.012-.009.08-.271.321-.137c.022.107.04.19.042.2a.651.651,0,0,0,.041.144c.1.175.26.054.338-.013.106-.091.457-.424.509-.482.034-.024.043,0,.05.028a.565.565,0,0,0,.214.435c.188.109.436-.026.628-.252a1.241,1.241,0,0,0,.278-.478.281.281,0,0,0-.084-.134l-.011,0c-.087.292-.3.616-.535.642-.309.036-.137-.613-.13-.659.028-.011.061-.026.1-.045l5.092-2.166-.032-.093-4.278,1.182a.353.353,0,0,0-.338-.219.868.868,0,0,0-.572.47l-.332.092a.454.454,0,0,0,.018-.062c.036-.182.04-.33-.063-.392a.414.414,0,0,0-.324.013,1.636,1.636,0,0,0-.442.366c-.017.019-.026.016-.026.016l.4-1.348a.586.586,0,0,0,.023-.215c-.026-.063-.077-.053-.077-.053s-.379.029-.516.034c-.067.006-.073.13-.01.141.031.006.148-.022.2.036s.012.22.012.22l-.485,1.6-.576.16c.033-.108.11-.36.139-.508.037-.19-.02-.282-.082-.323a.221.221,0,0,0-.217,0,1.049,1.049,0,0,0-.223.246l-.481.825-.42.115.182-.588a1.117,1.117,0,0,0,.068-.311.222.222,0,0,0-.243-.23.613.613,0,0,0-.31.171,1.978,1.978,0,0,0-.334.426l-.024-.012a.9.9,0,0,0,0-.427.191.191,0,0,0-.224-.094c-.19.078-.331.338-.379.409a2.1,2.1,0,0,0-.212.476s.078.12.1.151l.01,0c.033-.07.112-.309.174-.43s.1-.13.145-.126.03.152.03.152l-.169.564a.934.934,0,0,1-.412-.165.953.953,0,0,1-.38-.813,2.752,2.752,0,0,1,.42-1.275Zm6.048,1.157a.263.263,0,0,0,0-.083v-.009l3.567-.985-3.96,1.684.014-.011.091-.086a.962.962,0,0,0,.287-.509m-.3-.166a.078.078,0,0,1,.055.041l-.281.078c.058-.094.121-.144.227-.12m-.357.368c.02-.041.041-.078.057-.115l.007-.012.365-.1v.01a.931.931,0,0,1-.245.489,1.613,1.613,0,0,1-.221.213l-.143.061-.007-.024a2.643,2.643,0,0,1,.188-.52m-.62.935a3.584,3.584,0,0,1-.42.365.14.14,0,0,1-.232-.083l-.01-.045.666-.283c0,.023,0,.039,0,.046m-.056-.844.011-.018.32-.088-.008.015-.058.108a2.084,2.084,0,0,0-.183.611l-.008.057-.7.3-.009-.049c-.028-.156-.062-.345-.067-.358s-.009-.041,0-.055a1.127,1.127,0,0,0,.493-.289,2.446,2.446,0,0,0,.2-.233m-.4-.237c.115-.019.21.048.211.126l0,.049-.653.18c.056-.076.246-.323.444-.355m-.5.489.006-.019.645-.178-.013.019a1.16,1.16,0,0,1-.091.1.944.944,0,0,1-.553.276c-.012,0-.053,0-.048-.029Zm-.274.911.136-.457.012-.01.014.005s.038.182.074.362l.011.048-.265.112Zm-.66-.65.006-.023.576-.16-.006.02-.293.973-.019.06-.348.148.078-.085a1.112,1.112,0,0,0,.193-.37.5.5,0,0,0-.092-.133l-.006,0a.762.762,0,0,1-.121.262c-.189.271-.2.11-.178.029.012-.049.152-.528.209-.724m-.3-.554c.027-.044.057-.084.088-.069s.023.087-.011.218c-.029.1-.067.236-.108.373l-.31.085c.172-.308.328-.587.341-.607m-.981.886.383-.106-.018.031c-.13.223-.239.411-.272.466-.078.132-.152.208-.2.2-.078-.011,0-.235,0-.235l.1-.329Zm-.81.017c.02-.055.233-.412.251-.443.078-.12.292-.487.434-.464.052.008.037.139.037.139l-.224.728a2.794,2.794,0,0,1-.505.061Zm-1.228-.979a1.054,1.054,0,0,0,.419.892,1.018,1.018,0,0,0,.442.181l-.017.058-.25.836.009.009.311-.016.011-.013c.02-.074.127-.459.242-.8l.017-.049a2.854,2.854,0,0,0,.509-.055l-.011.036c-.091.3-.17.56-.175.583-.041.176.071.319.215.289a.843.843,0,0,0,.486-.424l.389-.7.015-.029.343-.094-.007.024c-.113.371-.229.739-.229.739a.526.526,0,0,0,.013.338l.048.033-.921.391a4.491,4.491,0,0,1-1.695.44,1.484,1.484,0,0,1-.617-.124,1.064,1.064,0,0,1-.465-.422,1.118,1.118,0,0,1-.15-.594,2.888,2.888,0,0,1,.507-1.452,8.119,8.119,0,0,1,.8-1.044,2.458,2.458,0,0,0-.241.962" transform="translate(-14.83 -10.81)" fill="#fff"/>
    <path id="패스_19345" data-name="패스 19345" d="M26.363,7.338a.221.221,0,0,0,.031-.44c-.186-.01-.219.145-.222.227a.213.213,0,0,0,.191.212" transform="translate(-3.105 -0.818)" fill="#fff"/>
    <path id="패스_19346" data-name="패스 19346" d="M22.07,10.282a1.363,1.363,0,0,0,.531.163l.766-.039a5.525,5.525,0,0,0,.808-.212l1.486-.482-.044.111,0,.008.279.007.011-.007L26,9.6l.29-.093c.011.093.019.168.021.178a.512.512,0,0,0,.025.127c.076.16.221.068.294.016.1-.071.429-.334.48-.381.031-.018.037,0,.041.029a.5.5,0,0,0,.152.394c.155.11.382.011.566-.17a1.084,1.084,0,0,0,.279-.395.245.245,0,0,0-.063-.123h-.01c-.1.248-.312.513-.515.517-.271.008-.071-.543-.062-.583a.686.686,0,0,0,.088-.032l4.6-1.489-.021-.083-3.812.7A.307.307,0,0,0,28.075,8a.76.76,0,0,0-.533.365l-.3.054.02-.053c.046-.155.06-.283-.025-.345A.362.362,0,0,0,26.957,8a1.449,1.449,0,0,0-.412.284l-.023.012.453-1.142a.5.5,0,0,0,.036-.184c-.018-.057-.062-.052-.062-.052s-.332,0-.451-.01c-.059,0-.074.107-.019.122.026.007.13-.008.17.047s-.006.192-.006.192L26.1,8.624l-.513.094c.037-.092.124-.306.16-.431.047-.162,0-.247-.047-.287a.191.191,0,0,0-.188-.018.908.908,0,0,0-.213.2l-.482.68-.375.069.2-.5a.959.959,0,0,0,.083-.266.194.194,0,0,0-.193-.219.545.545,0,0,0-.284.125,1.735,1.735,0,0,0-.323.345L23.909,8.4a.772.772,0,0,0,.034-.372.168.168,0,0,0-.187-.1c-.172.053-.314.269-.361.326a1.842,1.842,0,0,0-.22.4s.058.11.078.139l.008,0c.034-.058.121-.261.184-.36s.1-.1.136-.1.014.134.014.134l-.19.478a.815.815,0,0,1-.345-.175.83.83,0,0,1-.267-.736,2.394,2.394,0,0,1,.463-1.076L23.19,6.9A9.068,9.068,0,0,0,22.142,8a2.611,2.611,0,0,0-.569,1.267,1.061,1.061,0,0,0,.093.574,1.014,1.014,0,0,0,.405.439m6.29-1.906a.293.293,0,0,0,.008-.072V8.3l3.178-.581L27.972,8.873l.013-.009L28.07,8.8a.839.839,0,0,0,.29-.42m-.252-.167a.07.07,0,0,1,.044.041l-.25.046c.058-.077.116-.115.206-.086M27.77,8.5l.059-.1.006-.011.325-.06v.009a.831.831,0,0,1-.251.406,1.428,1.428,0,0,1-.209.167l-.129.042,0-.021a2.271,2.271,0,0,1,.2-.438m-.613.765a3.192,3.192,0,0,1-.394.286.122.122,0,0,1-.195-.09l0-.041.6-.195-.007.04m.017-.738.011-.015.286-.052-.009.012-.058.09a1.818,1.818,0,0,0-.207.517l-.011.049-.63.2,0-.044c-.013-.137-.027-.3-.031-.316s0-.037.008-.048a.985.985,0,0,0,.45-.213,2.174,2.174,0,0,0,.2-.186m-.333-.238c.1-.008.179.058.174.126l-.005.042-.582.107a.772.772,0,0,1,.413-.275m-.469.387.007-.016.574-.1-.012.015a1.1,1.1,0,0,1-.087.078.822.822,0,0,1-.5.2c-.011,0-.047,0-.04-.03Zm-.156.383.011-.007.012.006s.019.161.036.32l.005.043-.239.078.02-.052Zm-.677-.227.008-.02.513-.093-.007.016-.33.824-.021.051-.314.1.074-.069a.974.974,0,0,0,.2-.307.432.432,0,0,0-.07-.123l-.005,0a.651.651,0,0,1-.125.219c-.185.221-.182.08-.157.011.014-.042.173-.447.237-.613m-.214-.505c.027-.037.056-.069.081-.053s.013.078-.026.188c-.033.089-.077.2-.123.316l-.276.05c.174-.255.331-.486.344-.5m-.922.695.342-.063-.018.025c-.13.184-.24.339-.273.384-.078.109-.149.169-.192.16-.068-.015.017-.2.017-.2l.115-.278ZM23.7,8.973c.022-.046.234-.341.253-.367.078-.1.291-.4.413-.37.044.011.021.124.021.124s-.125.308-.251.615a2.485,2.485,0,0,1-.444.014Zm-2.039.3a2.527,2.527,0,0,1,.553-1.223,7.154,7.154,0,0,1,.78-.845,2.155,2.155,0,0,0-.285.818.919.919,0,0,0,.3.807.881.881,0,0,0,.37.192l-.019.049-.282.707.007.008.272.011.011-.011c.024-.063.146-.39.273-.675l.018-.041a2.412,2.412,0,0,0,.448-.009l-.012.032c-.1.249-.191.472-.2.493-.049.15.037.283.165.268a.735.735,0,0,0,.455-.331c.016-.023.2-.3.392-.574l.015-.025.3-.056-.008.02c-.126.314-.256.625-.256.625a.458.458,0,0,0-.014.294l.039.033-.831.27a3.909,3.909,0,0,1-1.507.25,1.287,1.287,0,0,1-.528-.156.931.931,0,0,1-.372-.4.969.969,0,0,1-.084-.528" transform="translate(-2.559 -0.819)" fill="#fff"/>
    <path id="패스_19347" data-name="패스 19347" d="M131.825,69.806l1.016-3.3-.775.042-1.015,3.3Z" transform="translate(-15.55 -7.891)" fill="#fac126"/>
    <path id="패스_19348" data-name="패스 19348" d="M129.318,69.925l.491-1.583-.008,1.55.78-.036,1.017-3.3-.793.044-.453,1.445.055-1.426-.842.059-1.009,3.29Z" transform="translate(-15.254 -7.898)" fill="#fac126"/>
    <path id="패스_19349" data-name="패스 19349" d="M135.16,69.212l.085-.311-.828.06.231-.789.693-.033.174-.59-.683.039.2-.657.679-.036.187-.612-2.183.123-.74.977.316-.958-.773.049L131.5,69.763l.78-.051.429-1.407.079,1.388,1.034-.054-3.6,1.177a2.036,2.036,0,0,1-1.693.008c-.908-.591-.308-1.912-.088-2.3a12.372,12.372,0,0,0-1.115,1.51,2.237,2.237,0,0,0-.27,2.274c.693.98,2.188.429,3.134-.02l8.761-4.3Zm-1.66.238-.136-1.619,1.014-1.342.053-.058Z" transform="translate(-15.051 -7.865)" fill="#fac126"/>
    <path id="패스_19350" data-name="패스 19350" d="M20.749,32.4l1.44-2.865-.717-.081-1.439,2.863Z" transform="translate(-2.377 -3.494)" fill="#fac126"/>
    <path id="패스_19351" data-name="패스 19351" d="M18.432,32.13l.694-1.375-.247,1.42.72.087L21.04,29.4l-.733-.082-.638,1.253.271-1.3-.781-.075-1.432,2.858Z" transform="translate(-2.103 -3.464)" fill="#fac126"/>
    <path id="패스_19352" data-name="패스 19352" d="M23.979,32.211l-.768-.073.333-.687.64.077.249-.514-.632-.07.288-.57.627.071.265-.531-2.019-.224-.828.78.437-.829-.717-.074-1.44,2.856.723.073.611-1.222-.142,1.284.955.11-3.477.524a1.892,1.892,0,0,1-1.553-.255c-.74-.681.013-1.8.276-2.125a11.525,11.525,0,0,0-1.254,1.211,2.076,2.076,0,0,0-.6,2.042c.483,1,1.939.731,2.874.464l8.69-2.585-3.666.538Zm-1.683.234.126-1.5,1.137-1.074.057-.044Z" transform="translate(-1.881 -3.508)" fill="#fac126"/>
    <path id="패스_19353" data-name="패스 19353" d="M114.4,65.4V62.714l-.381.167-4.309,1.886v.019l.008.241c.9.073,3.294.264,4.567.364l.114.009" transform="translate(-13.018 -7.441)" fill="#252f38"/>
    <path id="패스_19354" data-name="패스 19354" d="M114.894,66.894l-3.772,1.733V73.2l3.889.909Z" transform="translate(-13.185 -7.937)" fill="#252f38"/>
    <path id="패스_19355" data-name="패스 19355" d="M43.542,30.776h-.007l-5.027-.1-.041,0-.265-.035-.807,7.69,5.758-.294.576-7.258Z" transform="translate(-4.437 -3.635)" fill="#252f38"/>
    <path id="패스_19356" data-name="패스 19356" d="M38.9,29.449l6.029.113V27.018L39.271,26.7Z" transform="translate(-4.616 -3.168)" fill="#252f38"/>
    <path id="패스_19357" data-name="패스 19357" d="M51.112,96.353,46.938,94.54l-.017-.01-.014-.006h0l-.02-.01a.963.963,0,0,0-.114-.041,1.842,1.842,0,0,0-.51-.066,3.205,3.205,0,0,0-1.083.212c.1.1.2.219.32.354a7.369,7.369,0,0,1,1.216,1.955,4.758,4.758,0,0,1,.369,1.79,4,4,0,0,1-.115.96,3.154,3.154,0,0,1,.569-.061l.074,0a.37.37,0,0,1-.05.739h-.024a3.347,3.347,0,0,0-1.385.368,6.4,6.4,0,0,0-2.512,2.347.37.37,0,0,1-.617-.409,7.135,7.135,0,0,1,2.808-2.6c.1-.046.188-.085.278-.123a3.356,3.356,0,0,0,.224-.992L46.271,99l-.988.825c-.832.7-1.978,1.653-3.233,2.7-2.509,2.1-5.456,4.579-7.2,6.07a9.621,9.621,0,0,0-1.4,1.469,5.358,5.358,0,0,0-.758,1.305,1.823,1.823,0,0,0-.135.619.6.6,0,0,0,.029.2.228.228,0,0,0,.061.1.4.4,0,0,0,.143.074,1.558,1.558,0,0,0,.294.063c.233.032.512.038.773.053a2.683,2.683,0,0,1,.5.067.793.793,0,0,1,.289.137.551.551,0,0,1,.145.169.54.54,0,0,1,.063.25.655.655,0,0,1-.053.247,1.049,1.049,0,0,1-.115.2,2.789,2.789,0,0,1-.377.412,5.841,5.841,0,0,1-1.564,1.082,3.334,3.334,0,0,1-1.367.312,2.886,2.886,0,0,1-1.715-.576l-.014-.011c-.084.88-.156,2.045-.212,3.3-.071,1.617-.112,3.39-.112,4.915,0,1.353.033,2.519.1,3.19a7.455,7.455,0,0,0,.13.838,1.77,1.77,0,0,0,.144.43.328.328,0,0,0,.035.055l.033-.011a1.135,1.135,0,0,0,.165-.1c.135-.1.306-.25.5-.42a1.076,1.076,0,0,1,.36-.211,1.2,1.2,0,0,1,.395-.064,2.112,2.112,0,0,1,.906.243,4.973,4.973,0,0,1,.848.542,8.2,8.2,0,0,1,1.066.994c.118-.088.27-.205.45-.353a15.934,15.934,0,0,0,1.693-1.616,13.633,13.633,0,0,0,3.153-5.64c-.042,0-.086,0-.128,0a3.4,3.4,0,0,1-1.128-.174,2.329,2.329,0,0,1-.808-.476,2.552,2.552,0,0,1-.746-1.363,3.943,3.943,0,0,1-.087-.836c0-.174.011-.32.022-.427a9.99,9.99,0,0,1-1.238-1.643,2.071,2.071,0,0,1-.192-.342,2.135,2.135,0,0,1-.194-.87,1.9,1.9,0,0,1,.4-1.155,1.245,1.245,0,0,1,.4-.355.955.955,0,0,1,.459-.12,2.015,2.015,0,0,1-.07-.51,1.643,1.643,0,0,1,.347-1.023,1.792,1.792,0,0,1,.472-.442,1.084,1.084,0,0,1,.568-.167c.02,0,.039,0,.058,0a2.246,2.246,0,0,1-.092-.6,1.433,1.433,0,0,1,.349-.977,1.139,1.139,0,0,1,.84-.379c.015,0,.029,0,.043,0a1.629,1.629,0,0,1-.026-.274,1.28,1.28,0,0,1,.431-.98,1.475,1.475,0,0,1,.98-.348,2.061,2.061,0,0,1,1.353.546c.9.795,1.416,1.343,1.9,1.774a6.674,6.674,0,0,0,1.493,1.015,48.027,48.027,0,0,1-1.687-4.76,2.584,2.584,0,0,1,.415-2.254,2.582,2.582,0,0,1,1.37-.943,2.617,2.617,0,0,1,.708-.1,2.59,2.59,0,0,1,2.489,1.883c.244.859.558,1.811.924,2.789.308-.386.724-.94,1.136-1.561a12.57,12.57,0,0,0,1.209-2.225,3.722,3.722,0,0,0,.3-1.3,1.079,1.079,0,0,0-.191-.672c-.005-.007-.009-.015-.013-.022s-.011-.016-.017-.024a4.012,4.012,0,0,0-.46-.713,1.3,1.3,0,0,0-.591-.4,2.07,2.07,0,0,0-.654-.093,3.988,3.988,0,0,0-.456.029.37.37,0,0,1-.087-.734,4.615,4.615,0,0,1,.543-.034,2.793,2.793,0,0,1,.888.13,2.016,2.016,0,0,1,.663.371,2.811,2.811,0,0,1,.573.694,3.08,3.08,0,0,0,.721-1.2c-.546-1.363-1.041-2.5-1.382-3.264m-8.9,10.2a.47.47,0,1,1,.471-.471.471.471,0,0,1-.471.471" transform="translate(-3.48 -11.202)" fill="#50cc1a"/>
    <path id="패스_19358" data-name="패스 19358" d="M32.566,129.649a5.08,5.08,0,0,0-1.073-.754,1.388,1.388,0,0,0-.582-.168.469.469,0,0,0-.152.023.351.351,0,0,0-.114.067c-.142.125-.279.249-.416.359a2.082,2.082,0,0,1-.429.281.857.857,0,0,1-.359.085.682.682,0,0,1-.244-.045.721.721,0,0,1-.214-.132,1.127,1.127,0,0,1-.275-.411,5.224,5.224,0,0,1-.291-1.4c-.078-.73-.109-1.9-.109-3.269,0-1.54.041-3.319.113-4.948s.17-3.086.288-4.028v-.026c0-.025,0-.026,0-.031v-.039l0-.013v0l0-.005a10.409,10.409,0,0,1,1.39-3.829,14.359,14.359,0,0,1,2.2-2.838c.432-.944,1.094-2.425,1.439-3.2a5.768,5.768,0,0,0-1.711.364,6.057,6.057,0,0,0-1.615.887,3.027,3.027,0,0,0-.624.643q-.465,1.475-.858,3.143a63,63,0,0,0-1.99,13.911,14.727,14.727,0,0,0,.878,5.675,4.074,4.074,0,0,0,1.648,2.067,2.587,2.587,0,0,0,.894.316,1.86,1.86,0,0,0,.28.021,2.555,2.555,0,0,0,1.318-.411,3.3,3.3,0,0,0,1.021-.992,2.276,2.276,0,0,0,.273-.585,7.359,7.359,0,0,0-.7-.71" transform="translate(-3.198 -12.497)" fill="#50cc1a"/>
    <path id="패스_19359" data-name="패스 19359" d="M44.064,107.651h0" transform="translate(-5.228 -12.773)" fill="#50cc1a"/>
    <path id="패스_19360" data-name="패스 19360" d="M38.219,121.5a2.866,2.866,0,0,0,.079.5,1.864,1.864,0,0,0,.368.747,1.488,1.488,0,0,0,.472.371,2.4,2.4,0,0,0,1.1.225c.123,0,.257-.009.4-.022l.335-.485a6.476,6.476,0,0,1-1.625-.569,6.105,6.105,0,0,1-1.125-.767" transform="translate(-4.535 -14.416)" fill="#50cc1a"/>
    <path id="패스_19361" data-name="패스 19361" d="M28.973,116.456a.184.184,0,0,0-.008.024l.007-.019v0" transform="translate(-3.437 -13.818)" fill="#50cc1a"/>
    <path id="패스_19362" data-name="패스 19362" d="M28.977,116.448v0h0l0,0,0,0" transform="translate(-3.438 -13.817)" fill="#50cc1a"/>
    <path id="패스_19363" data-name="패스 19363" d="M37.434,103.9c1.445-1.014,2.972-1.988,4.366-2.839,2.788-1.7,5.044-2.9,5.048-2.906a.37.37,0,0,1,.056-.023,4.349,4.349,0,0,0-.241-.831,6.085,6.085,0,0,0-.7-1.252,7.484,7.484,0,0,0-.88-1.029c-.041.022-.079.041-.122.065A12.168,12.168,0,0,0,41.8,97.959c-1.394,1.69-2.348,2.955-3.094,3.888a8,8,0,0,1-1.893,1.913,2.479,2.479,0,0,1-1.326.359l-.031,0c-.166.372-.51,1.146-.867,1.94.86-.719,1.829-1.447,2.841-2.157" transform="translate(-4.105 -11.275)" fill="#50cc1a"/>
    <path id="패스_19364" data-name="패스 19364" d="M29.26,116.2l-.01,0,.006,0h0" transform="translate(-3.471 -13.788)" fill="#50cc1a"/>
    <path id="패스_19365" data-name="패스 19365" d="M29.154,116.243l-.007,0h0l.007,0" transform="translate(-3.458 -13.793)" fill="#50cc1a"/>
    <path id="패스_19366" data-name="패스 19366" d="M28.962,116.493l0,.005h0v-.005" transform="translate(-3.436 -13.822)" fill="#50cc1a"/>
    <path id="패스_19367" data-name="패스 19367" d="M53.633,111.554a12.844,12.844,0,0,1,1.843-2.611c.335-.829.84-2.113,1.121-2.827a5.062,5.062,0,0,0-1.323.341,5.416,5.416,0,0,0-1.46.863,2.706,2.706,0,0,0-.542.6c-.235.884-.449,1.82-.635,2.817-.015.078-.028.154-.042.233.209.472.427.939.652,1.393.117-.275.247-.546.386-.81" transform="translate(-6.241 -12.591)" fill="#0071c2"/>
    <path id="패스_19368" data-name="패스 19368" d="M63.255,100.66q-.422.575-.772,1.068c.162.458.324.926.483,1.4.36-.249.715-.494,1.059-.726.447-.3.879-.587,1.285-.851Z" transform="translate(-7.414 -11.944)" fill="#0071c2"/>
    <path id="패스_19369" data-name="패스 19369" d="M61.087,123.506a6.451,6.451,0,0,1-3.5,1.081,6.144,6.144,0,0,1-2.187-.411,7.864,7.864,0,0,1-2.1-1.22c.014.616.033,1.225.056,1.8.055,1.33.137,2.49.234,3.13a5.936,5.936,0,0,0,.169.808,1.178,1.178,0,0,0,.13.308.892.892,0,0,0,.124-.085c.115-.089.262-.234.428-.395a.994.994,0,0,1,.354-.221,1.14,1.14,0,0,1,.39-.066,2.025,2.025,0,0,1,.815.2,4.637,4.637,0,0,1,.766.451,7.334,7.334,0,0,1,.94.8c.1-.08.216-.182.355-.307a14.153,14.153,0,0,0,1.433-1.5,12.083,12.083,0,0,0,2.55-5.062l-.1,0a5.849,5.849,0,0,1-.864.679" transform="translate(-6.325 -14.574)" fill="#0071c2"/>
    <path id="패스_19370" data-name="패스 19370" d="M68.3,103.152a2.42,2.42,0,0,1,.286-.085l-.645-.28a6.491,6.491,0,0,0-1.332,1.624.37.37,0,0,1-.635-.38,7.5,7.5,0,0,1,1.223-1.567l-.241-.1c-.538.493-1.146,1.05-1.788,1.64l-.243.223c-.025.161-.048.326-.064.5-.053.522-.07,1.068-.07,1.551,0,.737.04,1.324.049,1.455l0,.027a.368.368,0,0,1-.237.373q.083.349.159.689c.81.656,1.288,1.116,1.73,1.472a5.948,5.948,0,0,0,1.432.868l.085-.066c.137-.108.324-.256.538-.427-.881-1.851-1.489-3.41-1.775-4.179a2.585,2.585,0,0,1,1.525-3.328" transform="translate(-7.666 -12.145)" fill="#0071c2"/>
    <path id="패스_19371" data-name="패스 19371" d="M57.918,106.945c-.039-.127-.078-.253-.118-.379-.125.318-.285.724-.451,1.145q.307-.276.633-.555c-.022-.071-.041-.139-.063-.211" transform="translate(-6.805 -12.645)" fill="#0071c2"/>
    <path id="패스_19372" data-name="패스 19372" d="M56.415,129.52a4.6,4.6,0,0,0-.957-.62,1.324,1.324,0,0,0-.511-.137.411.411,0,0,0-.137.022.237.237,0,0,0-.093.058c-.123.119-.242.236-.363.342a1.828,1.828,0,0,1-.388.275.79.79,0,0,1-.345.086.654.654,0,0,1-.229-.042.687.687,0,0,1-.2-.122,1.061,1.061,0,0,1-.261-.368,4.734,4.734,0,0,1-.311-1.229c-.107-.7-.187-1.865-.242-3.211-.033-.79-.056-1.64-.071-2.488a12.972,12.972,0,0,1-.964-1.037l-.01-.012q-.093,1.4-.091,2.575a15.955,15.955,0,0,0,.876,5.946,3.89,3.89,0,0,0,1.622,2.068,2.256,2.256,0,0,0,.852.272,1.552,1.552,0,0,0,.169.009,2.155,2.155,0,0,0,1.162-.382,2.885,2.885,0,0,0,.888-.921,1.99,1.99,0,0,0,.219-.514,6.425,6.425,0,0,0-.615-.569" transform="translate(-6.08 -14.362)" fill="#0071c2"/>
    <path id="패스_19373" data-name="패스 19373" d="M72.382,104.578a2.511,2.511,0,0,1,.167.362c.228.612.476,1.226.736,1.837a12.793,12.793,0,0,0,.766-1.474Z" transform="translate(-8.588 -12.409)" fill="#0071c2"/>
    <path id="패스_19374" data-name="패스 19374" d="M63.947,106.377c0-.331.017-.684.042-1.039l-.273.251q.12.4.231.788" transform="translate(-7.56 -12.499)" fill="#0071c2"/>
    <path id="패스_19375" data-name="패스 19375" d="M56.223,113.08a1.731,1.731,0,0,0-.109.549.555.555,0,0,0,.028.192.175.175,0,0,0,.049.076.328.328,0,0,0,.116.052,1.32,1.32,0,0,0,.259.042c.205.019.455.012.69.016a2.358,2.358,0,0,1,.46.042.725.725,0,0,1,.281.125.526.526,0,0,1,.143.167.511.511,0,0,1,.06.242.62.62,0,0,1-.045.227.992.992,0,0,1-.1.187,2.536,2.536,0,0,1-.318.38,5.142,5.142,0,0,1-1.422,1.064,3.321,3.321,0,0,1-.325.136,6.531,6.531,0,0,0,.705.714,3,3,0,0,0,.858.539.97.97,0,0,0,.345.072,1.323,1.323,0,0,0,.712-.262.643.643,0,0,0,.177-.189c-.083-.113-.166-.228-.249-.35a2,2,0,0,1-.4-1.161,1.729,1.729,0,0,1,.315-.988,1.138,1.138,0,0,1,.37-.356.9.9,0,0,1,.35-.115A1.775,1.775,0,0,1,59.1,114a1.48,1.48,0,0,1,.047-.362,27.392,27.392,0,0,0-.635-3.516L58,110.6a6.75,6.75,0,0,0-1.78,2.485" transform="translate(-6.644 -13.066)" fill="#0071c2"/>
    <path id="패스_19376" data-name="패스 19376" d="M127.1,103.774l-1.191.346c-.395.822-.846,1.741-1.275,2.606l-.18.36,1.318-.51c.007-.013.014-.027.02-.041.4-.828.863-1.809,1.308-2.761" transform="translate(-14.767 -12.313)" fill="#adadad"/>
    <path id="패스_19377" data-name="패스 19377" d="M128.313,106.016l0-.149-.085.181Z" transform="translate(-15.215 -12.562)" fill="#adadad"/>
    <path id="패스_19378" data-name="패스 19378" d="M119.339,106.1v1.553c.3-.569.64-1.237.942-1.827Z" transform="translate(-14.16 -12.557)" fill="#adadad"/>
    <path id="패스_19379" data-name="패스 19379" d="M123.544,104.8l-1.161.338c-.4.8-.863,1.7-1.3,2.546q-.221.424-.43.823l1.3-.5q.134-.263.28-.557c.4-.8.867-1.737,1.312-2.646" transform="translate(-14.316 -12.435)" fill="#adadad"/>
    <path id="패스_19380" data-name="패스 19380" d="M114.549,105.947q-.217.353-.44.714l-1.136,1.851,1.608.217c.446-.728,1.032-1.683,1.612-2.626Z" transform="translate(-13.405 -12.571)" fill="#adadad"/>
    <path id="패스_19381" data-name="패스 19381" d="M117.868,106.947c-.435.707-.873,1.42-1.252,2.039l1.66.224V106.3l-.039,0v.049l-.37.6" transform="translate(-13.837 -12.613)" fill="#adadad"/>
    <path id="패스_19382" data-name="패스 19382" d="M110.832,105.595l-.48.78c-.349.568-.7,1.139-1.021,1.662l1.608.217c.44-.718.993-1.62,1.537-2.5Z" transform="translate(-12.973 -12.529)" fill="#adadad"/>
    <path id="패스_19383" data-name="패스 19383" d="M103.4,104.89c-.183.3-.371.6-.561.911l-.791,1.287,1.607.217,1.388-2.26Z" transform="translate(-12.108 -12.446)" fill="#adadad"/>
    <path id="패스_19384" data-name="패스 19384" d="M99.679,104.538l-.6.977c-.227.369-.455.74-.675,1.1l1.607.216,1.313-2.137Z" transform="translate(-11.676 -12.404)" fill="#adadad"/>
    <path id="패스_19385" data-name="패스 19385" d="M97.908,104.34l-.19-.018-.412-.146v1.143l.6-.979" transform="translate(-11.546 -12.361)" fill="#adadad"/>
    <path id="패스_19386" data-name="패스 19386" d="M107.114,105.242c-.17.277-.345.559-.52.845-.308.5-.617,1-.906,1.475l1.607.217c.432-.7.953-1.553,1.463-2.382Z" transform="translate(-12.54 -12.487)" fill="#adadad"/>
    <path id="패스_19387" data-name="패스 19387" d="M97.3,105.341v.382l-.012.738.979.132.675-1.1c.2-.331.406-.66.6-.977l-1.641-.155-.6.979" transform="translate(-11.544 -12.383)" fill="#505257"/>
    <path id="패스_19388" data-name="패스 19388" d="M100.227,106.851l1.6.216.791-1.287.561-.911-1.641-.154c-.448.727-.908,1.477-1.312,2.136" transform="translate(-11.892 -12.425)" fill="#505257"/>
    <path id="패스_19389" data-name="패스 19389" d="M103.869,107.326l1.6.216c.289-.472.6-.975.906-1.474l.52-.846-1.641-.155-1.388,2.26" transform="translate(-12.325 -12.467)" fill="#505257"/>
    <path id="패스_19390" data-name="패스 19390" d="M107.512,107.8l1.6.216,1.021-1.663.48-.779-1.642-.155c-.509.829-1.031,1.678-1.462,2.381" transform="translate(-12.757 -12.508)" fill="#505257"/>
    <path id="패스_19391" data-name="패스 19391" d="M111.154,108.275l1.6.216,1.136-1.851c.148-.241.3-.479.44-.714l-1.642-.155c-.544.884-1.1,1.786-1.537,2.5" transform="translate(-13.189 -12.55)" fill="#505257"/>
    <path id="패스_19392" data-name="패스 19392" d="M114.8,108.749l1.6.216c.379-.619.816-1.331,1.252-2.039l.37-.6v-.049l-1.613-.152c-.579.943-1.166,1.9-1.612,2.626" transform="translate(-13.621 -12.592)" fill="#505257"/>
    <path id="패스_19393" data-name="패스 19393" d="M120.271,105.765c-.31.6-.631,1.223-.933,1.8v1.445l1.155-.457c.139-.266.273-.528.42-.81.442-.85.9-1.749,1.3-2.546Z" transform="translate(-14.16 -12.482)" fill="#505257"/>
    <path id="패스_19394" data-name="패스 19394" d="M123.72,104.725c-.445.909-.913,1.849-1.312,2.646q-.147.293-.28.557l2.052-.794c.06-.119.119-.238.18-.36.43-.865.881-1.783,1.275-2.605Z" transform="translate(-14.491 -12.36)" fill="#505257"/>
    <path id="패스_19395" data-name="패스 19395" d="M127.278,103.743c-.445.952-.911,1.934-1.308,2.761-.006.014-.013.028-.02.041l2.009-.777c.028-.058.056-.118.084-.176l0,0,.022-2.075Z" transform="translate(-14.945 -12.282)" fill="#505257"/>
  </g>
</svg>
