<svg id="NEM_10" xmlns="http://www.w3.org/2000/svg" width="90.934" height="111.973" viewBox="0 0 90.934 111.973">
  <path id="패스_20525" data-name="패스 20525" d="M30.78,61.549s.675-15.025-7.589-23.081S10.154,28.473,16.8,23.6,46.693,32,44.46,46.795Z" transform="translate(-13.132 -14.768)" fill="#005dab"/>
  <path id="패스_20526" data-name="패스 20526" d="M30.367,61.683a.527.527,0,0,1-.206-.042.533.533,0,0,1-.328-.517c.006-.148.565-14.883-7.428-22.675-1.485-1.448-2.861-2.7-4.074-3.806-3.57-3.252-5.725-5.214-5.608-7.439.076-1.428,1.109-2.8,3.35-4.441,2.978-2.185,9.207-1.1,15.5,2.709,6.836,4.134,14.343,12.115,13,21a.53.53,0,0,1-.137.283L30.759,61.511a.533.533,0,0,1-.392.172M20.152,22.712a5.8,5.8,0,0,0-3.447.914c-1.932,1.417-2.858,2.572-2.914,3.635-.091,1.72,2.037,3.658,5.259,6.592,1.22,1.111,2.6,2.37,4.1,3.831C30.1,44.453,30.868,55.8,30.916,59.77L43.542,46.152c1.146-8.3-6.009-15.826-12.521-19.764C27.077,24,23.11,22.712,20.152,22.712" transform="translate(-12.719 -14.367)" fill="#1a1311"/>
  <path id="패스_20527" data-name="패스 20527" d="M45.955,119.079s4.836-16.877-5-28.3S23.909,79.195,29.747,60.951c5.819-18.182,40.461-46.907,40.7-47.1,2.519-2.087,5.78-4.094,9.15-4.157s6.385,2.741,7.58,5.761c1.919,4.85-1.744,8.761-4.489,12.345-2.889,3.772-5.853,7.488-8.826,11.2q-5.769,7.192-11.618,14.32C66.577,48.034,70.719,41.808,77.247,39c3.5-1.5,9.619-.383,10.042,4.138a11.635,11.635,0,0,1-2.658,8.637c-2.65,3.4-4.609,6.759-8.013,10.809,0,0,12.325-20.671,19.063-13.572,0,0,8.447,3.986-7.343,23.822,1.126-1.415,1.975-3.141,3.014-4.628a51.106,51.106,0,0,1,6.907-8.282,8.01,8.01,0,0,1,7.1-1.8c3.652.842,4.745,6.276,4.083,9.175-1.617,7.086-5.507,12.436-7.684,19.4-1.739,5.559-1.883,11.419-3.151,17.087-.894,3.994-2.181,10.155-6.1,12.366Z" transform="translate(-19.225 -9.157)" fill="#005dab"/>
  <path id="패스_20528" data-name="패스 20528" d="M45.543,119.2a.535.535,0,0,1-.514-.682c.047-.166,4.638-16.738-4.893-27.8-2.161-2.508-4.2-4.476-6-6.211-6.422-6.2-9.96-9.609-5.312-24.132,5.8-18.121,39.434-46.165,40.863-47.35C73.05,10.24,76.24,8.8,79.17,8.745c3.686-.065,6.867,3.016,8.087,6.1,1.85,4.676-1.133,8.484-3.765,11.843-.27.345-.537.686-.8,1.024-3.007,3.926-6.136,7.842-8.833,11.2l-1.106,1.377a20.831,20.831,0,0,1,3.867-2.2,9.627,9.627,0,0,1,8.1.487,5.209,5.209,0,0,1,2.684,4.092,11.852,11.852,0,0,1-1.133,6.416A10.681,10.681,0,0,1,91.4,46.617,4.869,4.869,0,0,1,95.6,48.17a5.086,5.086,0,0,1,2.258,3.368c.424,1.819.293,4.584-1.493,8.675q.546-.558,1.12-1.093a8.576,8.576,0,0,1,7.587-1.927c4.195.967,5.149,6.9,4.485,9.815A53.149,53.149,0,0,1,105.4,77.9a66.848,66.848,0,0,0-3.54,8.549,61.913,61.913,0,0,0-1.945,9.916c-.328,2.344-.667,4.767-1.2,7.128l-.069.306c-.9,4.037-2.263,10.136-6.291,12.409a.532.532,0,0,1-.229.068L45.576,119.2h-.034M79.293,9.813h-.1c-2.682.05-5.649,1.407-8.819,4.034C68.951,15.025,35.549,42.874,29.844,60.7,25.4,74.591,28.568,77.648,34.88,83.738c1.815,1.751,3.872,3.736,6.066,6.282,8.746,10.153,6.074,24.675,5.292,28.067l45.7-2.873c3.535-2.091,4.818-7.836,5.67-11.651l.068-.307c.519-2.319.855-4.721,1.181-7.043a62.779,62.779,0,0,1,1.983-10.086,67.722,67.722,0,0,1,3.593-8.685,51.572,51.572,0,0,0,4.08-10.671c.587-2.574-.365-7.771-3.683-8.535A7.481,7.481,0,0,0,98.21,59.9a39.664,39.664,0,0,0-3.79,4.114,72.108,72.108,0,0,1-6.066,8.725l-.01.014h0a.535.535,0,0,1-.836-.666,24.974,24.974,0,0,0,1.736-2.62c.4-.661.813-1.345,1.258-1.981.874-1.252,1.906-2.682,3.079-4.134,3.342-5.81,3.721-9.388,3.245-11.522a3.944,3.944,0,0,0-1.789-2.751.569.569,0,0,1-.156-.113,3.813,3.813,0,0,0-3.361-1.29c-2.569.286-5.455,2.7-7.995,5.491-.647.883-1.269,1.772-1.914,2.693-1.459,2.084-2.967,4.239-5,6.653a.534.534,0,0,1-.868-.617,65.625,65.625,0,0,1,6.97-9.433c.35-.476.708-.951,1.081-1.43a11.092,11.092,0,0,0,2.547-8.259A4.207,4.207,0,0,0,84.179,39.5a8.47,8.47,0,0,0-7.133-.424,25.9,25.9,0,0,0-8.957,6.995q-2.963,3.653-5.848,7.166a.534.534,0,1,1-.826-.678c.675-.823,1.346-1.669,2.022-2.522,1.249-1.573,2.511-3.166,3.852-4.677q2.847-3.511,5.739-7.117c2.693-3.358,5.818-7.268,8.818-11.186.261-.341.531-.685.8-1.033,2.574-3.287,5.237-6.685,3.612-10.79-1.073-2.711-3.8-5.424-6.97-5.424" transform="translate(-18.812 -8.744)" fill="#1a1311"/>
  <path id="패스_20529" data-name="패스 20529" d="M55.862,175.356c4.382-2.863,12.523-1.189,16.42-1.275L98,173.51c3.8-.084,13.783-2.53,16.476.887,2.1,2.667,1.29,11.786-.771,14.457-2.694,3.491-15.1,1.981-19.112,2.182q-15.471.775-30.943.337c-3.516-.1-9.353,1.469-10.937-2.919-.876-2.425-.179-7.93.8-10.292a6.064,6.064,0,0,1,2.344-2.807" transform="translate(-29.971 -80.127)" fill="#dc000c"/>
  <path id="패스_20530" data-name="패스 20530" d="M58.266,191.691c-2.721,0-5.413-.545-6.466-3.464-.962-2.662-.172-8.313.81-10.678a6.625,6.625,0,0,1,2.545-3.051c3.42-2.235,8.781-1.846,13.089-1.533,1.42.1,2.645.192,3.612.17l25.723-.571c.9-.019,2.159-.177,3.621-.358,4.669-.58,11.062-1.375,13.287,1.449,2.267,2.879,1.447,12.244-.768,15.115-2.23,2.891-9.948,2.633-15.583,2.444-1.614-.054-3.007-.1-3.925-.055-10.284.515-20.71.63-30.986.337-.718-.018-1.547.032-2.426.087-.813.051-1.674.106-2.532.106m-2.526-16.3a5.5,5.5,0,0,0-2.143,2.565c-.9,2.172-1.629,7.587-.792,9.906,1.114,3.084,4.733,2.855,7.926,2.655.9-.057,1.758-.113,2.523-.089,10.249.291,20.646.178,30.9-.337.963-.049,2.377,0,4.014.054,5.1.171,12.806.428,14.7-2.029,1.933-2.507,2.73-11.316.774-13.8-1.852-2.35-8.149-1.567-12.316-1.05-1.491.186-2.779.345-3.729.367l-25.723.57c-1.016.021-2.265-.068-3.713-.173-4.148-.3-9.309-.675-12.426,1.362" transform="translate(-29.556 -79.718)" fill="#1a1311"/>
  <path id="패스_20531" data-name="패스 20531" d="M99.242,187.556a9.828,9.828,0,0,0,1.487-.354c2.141-.867,4.266-1.777,6.4-2.662.7-.29,1.411-.547,2.112-.832a1.029,1.029,0,0,1,1.251.213,1,1,0,0,1,.112,1.266,4.28,4.28,0,0,1-1.02,1.194,47.868,47.868,0,0,1-8.416,5.175,6.133,6.133,0,0,1-3.082.638,2.577,2.577,0,0,1-2.611-2.92,5.637,5.637,0,0,1,2.085-4.259,5.359,5.359,0,0,1,1.067-.63.872.872,0,0,1,1.122.272.894.894,0,0,1,.009,1.152c-.288.462-.518.959-.773,1.441l.26.306" transform="translate(-48.772 -84.923)" fill="#fff"/>
</svg>
