<svg xmlns="http://www.w3.org/2000/svg" xmlns:xlink="http://www.w3.org/1999/xlink" width="139.085" height="69.435" viewBox="0 0 139.085 69.435">
  <defs>
    <clipPath id="clip-path">
      <path id="패스_20487" data-name="패스 20487" d="M1077.545,127.711c-7.827,2.127-14.141,1.9-17.748-.7-9.262-6.665-2.359-20.276.148-24.328-4.482,4.973-8.943,9.958-12.412,15.384-5.434,8.5-7.729,17.78-3.968,23.712,6.772,10.675,22.767,5.616,32.946,1.234l94.572-40.718Z" transform="translate(-1041.715 -102.298)" fill="none"/>
    </clipPath>
    <clipPath id="clip-path-2">
      <path id="패스_20524" data-name="패스 20524" d="M1108.568,82.209l-1.464,5.462h13.38l-.389,1.453h-12.377l-1.316,4.911h24.754l-.39,1.454h-24.754l-3.034,11.324h34.676l1.33-4.961h-25.256l.376-1.4h24.755l3.034-11.325h-12.377l.391-1.453h13.379l1.463-5.462ZM1081.344,69.23l-2.4,8.969q-2.416,9.02-5.552,13.706t-6.964,5.888l.992,7.516a13.866,13.866,0,0,0,5.157-2.23,26.3,26.3,0,0,0,5.5-4.985,11.946,11.946,0,0,0,2.748,4.985,7.38,7.38,0,0,0,3.988,2.23l5.021-7.516q-3.186-1.2-3.81-5.888T1087.81,78.2l2.4-8.969Zm39.7,6.264a.672.672,0,0,1-.09-.6,1.091,1.091,0,0,1,.419-.626,1.1,1.1,0,0,1,.662-.226h13.63a.654.654,0,0,1,.566.226.713.713,0,0,1,.057.626,1.18,1.18,0,0,1-.386.6,1.029,1.029,0,0,1-.693.25h-13.63a.617.617,0,0,1-.534-.25m-2.1-6.364a7.408,7.408,0,0,0-4.683,1.579,7.663,7.663,0,0,0-2.724,4.184,4.681,4.681,0,0,0,.483,4.184,4.477,4.477,0,0,0,3.836,1.579H1138.3a7.406,7.406,0,0,0,4.682-1.579,7.655,7.655,0,0,0,2.725-4.184,4.682,4.682,0,0,0-.483-4.184,4.479,4.479,0,0,0-3.836-1.579Zm-19.041-.5-3.37,12.578h-5.664l-2.013,7.516h5.662l-4.848,18.09h9.421l10.232-38.184Z" transform="translate(-1066.425 -68.629)" fill="none"/>
    </clipPath>
  </defs>
  <g id="NEM_9" transform="translate(0 0)">
    <g id="그룹_11479" data-name="그룹 11479" transform="translate(9.717 0)">
      <g id="그룹_11478" data-name="그룹 11478">
        <path id="패스_20422" data-name="패스 20422" d="M1171.083,102.3l-94.571,40.717c-10.178,4.382-26.173,9.442-32.945-1.234-3.763-5.931-1.467-15.206,3.968-23.71,3.468-5.427,7.929-10.412,12.411-15.385-2.507,4.051-9.41,17.663-.148,24.328,3.606,2.595,9.921,2.824,17.748.7Z" transform="translate(-1041.714 -78.698)" fill="#1d2a1d"/>
        <path id="패스_20423" data-name="패스 20423" d="M1195.7,110.053a4.512,4.512,0,0,0-.586-.142,4.518,4.518,0,1,0-8.381-3.324,4.372,4.372,0,0,0-.141.586,4.518,4.518,0,1,0-3.324,8.381,4.391,4.391,0,0,0,.586.142,4.52,4.52,0,1,0,8.523,2.738,4.518,4.518,0,1,0,3.324-8.381m-6.973,3.14a4.505,4.505,0,0,0,.226-.559,4.618,4.618,0,0,0,.141-.587,4.071,4.071,0,0,0,1.145.368,4.091,4.091,0,0,0-.368,1.145,4.092,4.092,0,0,0-1.145-.368" transform="translate(-1083.107 -79.042)" fill="#f5b29d"/>
        <path id="패스_20424" data-name="패스 20424" d="M1187.8,122.33a4.819,4.819,0,0,1-4.584-6.292c.027-.083.057-.167.091-.253-.09-.022-.175-.047-.259-.074a4.818,4.818,0,1,1,2.947-9.174c.083.027.167.056.253.09.022-.09.047-.176.074-.259a4.818,4.818,0,1,1,9.174,2.947c-.027.083-.056.166-.09.253.09.022.175.047.259.074a4.818,4.818,0,1,1-2.948,9.174c-.083-.027-.166-.057-.252-.09-.023.09-.047.175-.074.258a4.827,4.827,0,0,1-4.59,3.345m-3.283-15.43a4.224,4.224,0,0,0-1.286,8.245,4.128,4.128,0,0,0,.548.132l.383.069-.167.351a4.057,4.057,0,0,0-.212.522,4.223,4.223,0,1,0,8.041,2.583,4.258,4.258,0,0,0,.132-.548l.069-.383.352.167a4,4,0,0,0,.522.212,4.223,4.223,0,0,0,2.583-8.041h0a4.118,4.118,0,0,0-.547-.132l-.383-.069.167-.352a4.221,4.221,0,1,0-7.829-3.105,4.26,4.26,0,0,0-.132.548l-.069.383-.351-.168a4.108,4.108,0,0,0-1.819-.416m5.452,6.969-.351-.167a4.365,4.365,0,0,0-.523-.212,4.25,4.25,0,0,0-.548-.131l-.383-.069.167-.351a3.764,3.764,0,0,0,.344-1.071l.069-.383.351.168a4.353,4.353,0,0,0,.522.212,4.264,4.264,0,0,0,.549.132l.383.069-.167.351a4.192,4.192,0,0,0-.212.522,4.25,4.25,0,0,0-.132.548Zm-.951-1.018c.09.022.175.046.259.073s.166.057.252.091c.022-.09.047-.175.074-.259s.057-.166.091-.252c-.09-.022-.176-.047-.259-.074s-.166-.057-.253-.09c-.022.09-.046.175-.073.258s-.057.166-.091.253" transform="translate(-1082.979 -78.915)" fill="#fff"/>
        <path id="패스_20425" data-name="패스 20425" d="M1196.3,110.419a1.692,1.692,0,1,1-1.093-2.128,1.692,1.692,0,0,1,1.093,2.128" transform="translate(-1086.955 -80.466)" fill="#8f001d"/>
        <path id="패스_20426" data-name="패스 20426" d="M1192.208,123.145a1.692,1.692,0,1,1-1.094-2.129,1.693,1.693,0,0,1,1.094,2.129" transform="translate(-1085.732 -84.271)" fill="#8f001d"/>
        <path id="패스_20427" data-name="패스 20427" d="M1185.761,115.832a1.692,1.692,0,1,1,2.129-1.093,1.692,1.692,0,0,1-2.129,1.093" transform="translate(-1084.441 -81.757)" fill="#8f001d"/>
        <rect id="사각형_5814" data-name="사각형 5814" width="9.369" height="0.595" transform="translate(104.584 38.266) rotate(-72.231)" fill="#0f1214"/>
        <path id="패스_20428" data-name="패스 20428" d="M1200.615,118.826a1.692,1.692,0,1,0-2.129,1.093,1.693,1.693,0,0,0,2.129-1.093" transform="translate(-1088.246 -82.98)" fill="#8f001d"/>
        <rect id="사각형_5815" data-name="사각형 5815" width="0.595" height="9.368" transform="translate(101.747 32.747) rotate(-72.19)" fill="#0f1214"/>
        <path id="패스_20429" data-name="패스 20429" d="M1195.2,116.633a3.55,3.55,0,1,1-2.294-4.465,3.549,3.549,0,0,1,2.294,4.465" transform="translate(-1085.543 -81.598)" fill="#d49300"/>
        <path id="패스_20430" data-name="패스 20430" d="M1191.7,119.269a3.852,3.852,0,1,1,1.754-.427,3.849,3.849,0,0,1-1.754.427m0-7.1a3.253,3.253,0,1,0,.993.156,3.257,3.257,0,0,0-.993-.156" transform="translate(-1085.416 -81.472)" fill="#0f1214"/>
        <g id="그룹_11132" data-name="그룹 11132" transform="translate(0 23.6)">
          <g id="그룹_11131" data-name="그룹 11131" transform="translate(0 0)" clip-path="url(#clip-path)">
            <path id="패스_20431" data-name="패스 20431" d="M1026.141,120.663l54.8,2.261.473.02.02.482c.12,3.04.238,6.08.323,9.121l.123,4.562.08,4.563c.057,3.042.111,6.084.123,9.128q.046,4.564.008,9.131l-.109,0q-.32-4.556-.553-9.114c-.174-3.039-.308-6.079-.437-9.118l-.2-4.56-.157-4.561c-.1-3.041-.171-6.082-.238-9.124l.492.5-54.759-3.187Z" transform="translate(-1037.055 -107.79)" fill="#c6900d"/>
            <path id="패스_20432" data-name="패스 20432" d="M1111.969,133.717c1.056,2.537,1.8,5.247,3.431,7.447a16.339,16.339,0,0,0,2.732,3l.8.622c.135.1.265.21.4.308l.429.271.857.54.9.458.452.227.471.184.941.368.972.278.485.138.5.092.992.184,1,.087.5.043.5,0,1.005-.011a15.864,15.864,0,0,0,3.928-.761c.631-.19,1.275-.445,1.921-.688l1.937-.72-.332.737q-1.5-3.734-2.881-7.516c-.47-1.257-.9-2.53-1.35-3.794s-.867-2.542-1.276-3.824l.1-.041c.588,1.21,1.164,2.424,1.713,3.649s1.113,2.444,1.639,3.678q1.613,3.689,3.1,7.43l.217.545-.548.191-1.951.682c-.649.226-1.3.451-1.992.636a17.31,17.31,0,0,1-4.186.672l-1.061-.017-.53-.011-.526-.06-1.051-.121-1.035-.219-.517-.111-.5-.158-1.007-.318-.973-.41-.485-.206-.465-.248-.927-.5-.875-.584-.437-.294c-.14-.106-.273-.22-.409-.33l-.813-.667c-.254-.24-.5-.493-.744-.74l-.37-.372c-.12-.127-.224-.268-.337-.4l-.664-.81c-.209-.279-.391-.578-.588-.866a16.025,16.025,0,0,1-1.037-1.812,10.344,10.344,0,0,1-.415-.956c-.127-.322-.271-.641-.383-.966l-1.366-3.9Z" transform="translate(-1062.694 -110.986)" fill="#c6900d"/>
            <path id="패스_20433" data-name="패스 20433" d="M1121.258,142.062l-.627.633-.129-.14.683-.573Z" transform="translate(-1065.276 -114.166)" fill="#c6900d"/>
            <path id="패스_20434" data-name="패스 20434" d="M1119.421,143.815l-.632.629-.229-.248.679-.578Z" transform="translate(-1064.696 -114.655)" fill="#c6900d"/>
            <path id="패스_20435" data-name="패스 20435" d="M1117.579,145.565l-.632.629-.324-.352.679-.577Z" transform="translate(-1064.116 -115.147)" fill="#c6900d"/>
            <path id="패스_20436" data-name="패스 20436" d="M1115.739,147.314l-.636.623-.408-.443.674-.583Z" transform="translate(-1063.54 -115.64)" fill="#c6900d"/>
            <path id="패스_20437" data-name="패스 20437" d="M1113.891,149.057l-.637.623-.482-.524.674-.582Z" transform="translate(-1062.965 -116.137)" fill="#c6900d"/>
            <path id="패스_20438" data-name="패스 20438" d="M1112.042,150.8l-.637.623-.557-.6.674-.582Z" transform="translate(-1062.39 -116.634)" fill="#c6900d"/>
            <path id="패스_20439" data-name="패스 20439" d="M1110.193,152.544l-.634.626-.638-.693.677-.58Z" transform="translate(-1061.813 -117.131)" fill="#c6900d"/>
            <path id="패스_20440" data-name="패스 20440" d="M1108.348,154.292l-.631.629-.734-.8.679-.576Z" transform="translate(-1061.234 -117.625)" fill="#c6900d"/>
            <path id="패스_20441" data-name="패스 20441" d="M1106.511,156.036c-.212.208-.437.4-.655.6l-.762-.829c.218-.2.43-.409.656-.6Z" transform="translate(-1060.669 -118.121)" fill="#c6900d"/>
            <path id="패스_20442" data-name="패스 20442" d="M1104.644,157.745l-.684.572-.67-.728.627-.634Z" transform="translate(-1060.129 -118.643)" fill="#c6900d"/>
            <path id="패스_20443" data-name="패스 20443" d="M1102.744,159.423c-.231.188-.468.368-.7.55l-.5-.538c.2-.221.4-.442.606-.656Z" transform="translate(-1059.607 -119.189)" fill="#c6900d"/>
            <path id="패스_20444" data-name="패스 20444" d="M1100.824,161.075c-.239.179-.486.348-.732.52l-.221-.24c.191-.231.381-.462.579-.686Z" transform="translate(-1059.107 -119.754)" fill="#c6900d"/>
            <path id="패스_20445" data-name="패스 20445" d="M1048.141,135.247l.883-.121.017.2-.891.029Z" transform="translate(-1043.636 -112.115)" fill="#c6900d"/>
            <path id="패스_20446" data-name="패스 20446" d="M1050.661,134.909l.884-.115.031.367-.89.035Z" transform="translate(-1044.39 -112.016)" fill="#c6900d"/>
            <path id="패스_20447" data-name="패스 20447" d="M1053.183,134.581l.884-.115.044.526-.89.035Z" transform="translate(-1045.144 -111.918)" fill="#c6900d"/>
            <path id="패스_20448" data-name="패스 20448" d="M1055.706,134.266l.885-.107.055.655-.89.043Z" transform="translate(-1045.899 -111.826)" fill="#c6900d"/>
            <path id="패스_20449" data-name="패스 20449" d="M1058.23,133.963l.885-.106.066.78-.89.043Z" transform="translate(-1046.653 -111.736)" fill="#c6900d"/>
            <path id="패스_20450" data-name="패스 20450" d="M1060.753,133.659l.885-.109.076.912-.889.041Z" transform="translate(-1047.408 -111.644)" fill="#c6900d"/>
            <path id="패스_20451" data-name="패스 20451" d="M1063.276,133.338l.883-.118.091,1.075-.891.031Z" transform="translate(-1048.163 -111.545)" fill="#c6900d"/>
            <path id="패스_20452" data-name="패스 20452" d="M1065.8,133.048c.3-.029.592-.052.887-.071l.095,1.115c-.3.032-.591.059-.887.079Z" transform="translate(-1048.917 -111.473)" fill="#c6900d"/>
            <path id="패스_20453" data-name="패스 20453" d="M1068.335,132.91c.3-.007.594-.023.892-.023l.079.941c-.294.05-.588.084-.882.127Z" transform="translate(-1049.676 -111.446)" fill="#c6900d"/>
            <path id="패스_20454" data-name="패스 20454" d="M1070.882,132.885c.3.006.6.006.9.021l.051.6c-.292.065-.586.114-.879.171Z" transform="translate(-1050.437 -111.445)" fill="#c6900d"/>
            <path id="패스_20455" data-name="패스 20455" d="M1073.439,132.982c.233.018.466.039.7.067l.009.109c-.226.067-.452.126-.678.183Z" transform="translate(-1051.202 -111.474)" fill="#c6900d"/>
            <path id="패스_20456" data-name="패스 20456" d="M1082.292,131.359l.282.847-.236.06-.152-.88Z" transform="translate(-1053.818 -110.989)" fill="#c6900d"/>
            <path id="패스_20457" data-name="패스 20457" d="M1082.98,133.779l.273.85-.461.116-.161-.878Z" transform="translate(-1053.951 -111.713)" fill="#c6900d"/>
            <path id="패스_20458" data-name="패스 20458" d="M1083.661,136.2l.261.852-.653.164-.173-.875Z" transform="translate(-1054.09 -112.438)" fill="#c6900d"/>
            <path id="패스_20459" data-name="패스 20459" d="M1084.331,138.637l.261.852-.829.208-.172-.875Z" transform="translate(-1054.238 -113.165)" fill="#c6900d"/>
            <path id="패스_20460" data-name="패스 20460" d="M1085,141.067l.277.848-1.048.264-.157-.878Z" transform="translate(-1054.383 -113.892)" fill="#c6900d"/>
            <path id="패스_20461" data-name="패스 20461" d="M1085.671,143.5c.072.288.131.58.181.873l-1.024.257q-.143-.424-.253-.855Z" transform="translate(-1054.532 -114.62)" fill="#c6900d"/>
            <path id="패스_20462" data-name="패스 20462" d="M1086.224,146.006c.043.3.069.594.1.894l-.625.157c-.117-.276-.235-.552-.336-.833Z" transform="translate(-1054.767 -115.369)" fill="#c6900d"/>
            <path id="패스_20463" data-name="패스 20463" d="M1086.673,148.576c0,.107,0,.216-.006.324l-.106.027c-.053-.094-.11-.187-.158-.282Z" transform="translate(-1055.079 -116.138)" fill="#c6900d"/>
            <path id="패스_20464" data-name="패스 20464" d="M1061.026,145.126l1.968,6.011,1.916,6.027c.632,2.01,1.354,3.995,1.864,6.041a59.288,59.288,0,0,1,1.289,6.208l-.1.03a59.3,59.3,0,0,1-2.23-5.935c-.663-2-1.114-4.065-1.654-6.1l-1.6-6.117-1.55-6.132Z" transform="translate(-1047.459 -115.106)" fill="#c6900d"/>
            <path id="패스_20465" data-name="패스 20465" d="M1093.359,118.3l54.8,2.261.473.02.02.482c.12,3.04.238,6.08.322,9.121l.123,4.562.08,4.563c.057,3.042.111,6.084.123,9.128q.047,4.564.008,9.131l-.109,0q-.32-4.556-.553-9.114c-.173-3.039-.308-6.079-.437-9.118l-.2-4.56-.157-4.561c-.1-3.041-.171-6.082-.238-9.124l.492.5-54.759-3.187Z" transform="translate(-1057.157 -107.083)" fill="#c6900d"/>
            <path id="패스_20466" data-name="패스 20466" d="M1180.1,131.279c1.056,2.537,1.8,5.247,3.431,7.447a16.335,16.335,0,0,0,2.732,3l.8.622c.135.1.265.21.4.308l.429.271.857.54.9.458.452.227.471.184.941.368.971.278.485.138.5.092.992.184,1,.087.5.044.5,0,1.005-.011a15.867,15.867,0,0,0,3.928-.761c.631-.19,1.275-.445,1.921-.688l1.937-.72-.332.737q-1.5-3.734-2.881-7.516c-.47-1.257-.9-2.53-1.35-3.794s-.867-2.542-1.276-3.824l.1-.041c.588,1.21,1.164,2.424,1.713,3.649s1.113,2.444,1.64,3.678q1.613,3.689,3.1,7.43l.217.545-.548.191-1.95.682c-.65.226-1.3.451-1.993.636a17.344,17.344,0,0,1-4.186.671l-1.06-.017-.53-.011-.526-.06-1.052-.12-1.035-.22-.517-.111-.5-.158-1.006-.318-.973-.41-.485-.206-.465-.248-.927-.5-.875-.584-.437-.293c-.14-.107-.273-.221-.409-.331l-.813-.667c-.254-.24-.5-.493-.744-.74l-.37-.371c-.12-.127-.224-.268-.337-.4l-.663-.81c-.21-.279-.392-.578-.589-.866a16.075,16.075,0,0,1-1.037-1.811,10.2,10.2,0,0,1-.414-.957c-.128-.322-.271-.641-.384-.966l-1.366-3.9Z" transform="translate(-1083.069 -110.257)" fill="#c6900d"/>
            <path id="패스_20467" data-name="패스 20467" d="M1189.389,139.624l-.627.633-.13-.14.683-.573Z" transform="translate(-1085.651 -113.437)" fill="#c6900d"/>
            <path id="패스_20468" data-name="패스 20468" d="M1187.552,141.377l-.632.629-.229-.248.679-.578Z" transform="translate(-1085.071 -113.926)" fill="#c6900d"/>
            <path id="패스_20469" data-name="패스 20469" d="M1185.71,143.127l-.631.629-.324-.352.679-.577Z" transform="translate(-1084.491 -114.418)" fill="#c6900d"/>
            <path id="패스_20470" data-name="패스 20470" d="M1183.87,144.876l-.637.623-.408-.443.674-.583Z" transform="translate(-1083.914 -114.911)" fill="#c6900d"/>
            <path id="패스_20471" data-name="패스 20471" d="M1182.021,146.619l-.636.623-.482-.524.674-.582Z" transform="translate(-1083.339 -115.408)" fill="#c6900d"/>
            <path id="패스_20472" data-name="패스 20472" d="M1180.173,148.363l-.637.623-.557-.6.674-.582Z" transform="translate(-1082.765 -115.905)" fill="#c6900d"/>
            <path id="패스_20473" data-name="패스 20473" d="M1178.324,150.106l-.634.626-.638-.693.677-.58Z" transform="translate(-1082.188 -116.402)" fill="#c6900d"/>
            <path id="패스_20474" data-name="패스 20474" d="M1176.479,151.854l-.631.629-.734-.8.68-.576Z" transform="translate(-1081.609 -116.895)" fill="#c6900d"/>
            <path id="패스_20475" data-name="패스 20475" d="M1174.641,153.6c-.212.208-.437.4-.655.6l-.763-.829c.219-.2.431-.409.656-.6Z" transform="translate(-1081.043 -117.392)" fill="#c6900d"/>
            <path id="패스_20476" data-name="패스 20476" d="M1172.774,155.307l-.683.572-.67-.728.627-.634Z" transform="translate(-1080.504 -117.914)" fill="#c6900d"/>
            <path id="패스_20477" data-name="패스 20477" d="M1170.875,156.985c-.23.188-.468.368-.7.55l-.5-.538c.2-.221.4-.442.606-.656Z" transform="translate(-1079.982 -118.46)" fill="#c6900d"/>
            <path id="패스_20478" data-name="패스 20478" d="M1168.955,158.637c-.239.178-.486.348-.732.52l-.221-.24c.191-.231.381-.462.579-.686Z" transform="translate(-1079.481 -119.025)" fill="#c6900d"/>
            <path id="패스_20479" data-name="패스 20479" d="M1150.423,128.921l.282.847-.236.059-.152-.88Z" transform="translate(-1074.193 -110.26)" fill="#c6900d"/>
            <path id="패스_20480" data-name="패스 20480" d="M1151.112,131.341l.273.85-.461.116-.161-.878Z" transform="translate(-1074.326 -110.984)" fill="#c6900d"/>
            <path id="패스_20481" data-name="패스 20481" d="M1151.792,133.766l.261.852-.653.164-.172-.875Z" transform="translate(-1074.465 -111.709)" fill="#c6900d"/>
            <path id="패스_20482" data-name="패스 20482" d="M1152.462,136.2l.261.852-.829.208-.172-.875Z" transform="translate(-1074.613 -112.436)" fill="#c6900d"/>
            <path id="패스_20483" data-name="패스 20483" d="M1153.135,138.629l.277.849-1.048.263-.157-.878Z" transform="translate(-1074.758 -113.163)" fill="#c6900d"/>
            <path id="패스_20484" data-name="패스 20484" d="M1153.8,141.062q.107.432.18.873l-1.023.257q-.143-.423-.253-.854Z" transform="translate(-1074.907 -113.891)" fill="#c6900d"/>
            <path id="패스_20485" data-name="패스 20485" d="M1154.355,143.568c.043.3.069.594.1.894l-.625.157c-.117-.277-.235-.552-.336-.833Z" transform="translate(-1075.142 -114.64)" fill="#c6900d"/>
            <path id="패스_20486" data-name="패스 20486" d="M1154.8,146.138c0,.107,0,.216-.006.324l-.106.027c-.053-.094-.11-.187-.158-.282Z" transform="translate(-1075.453 -115.409)" fill="#c6900d"/>
          </g>
        </g>
        <g id="그룹_11136" data-name="그룹 11136" transform="translate(17.321 0)">
          <g id="그룹_11135" data-name="그룹 11135" transform="translate(0 0)" clip-path="url(#clip-path-2)">
            <path id="패스_20498" data-name="패스 20498" d="M1055.438,85.889l10.558.636,10.555.683.386.025-.007.4-.107,6.112c-.026,2.038-.077,4.075-.173,6.111s-.214,4.07-.361,6.1l-.244,3.049c-.1,1.016-.187,2.033-.309,3.048l-.109,0c-.053-1.021-.069-2.041-.1-3.062l-.034-3.059c-.008-2.039.007-4.077.057-6.114s.132-4.073.245-6.108l.312-6.105.379.424-10.53-.993L1055.429,86Z" transform="translate(-1063.137 -73.791)" fill="#c6900d"/>
            <path id="패스_20499" data-name="패스 20499" d="M1109.615,104.742l-5.009-13.41-4.962-13.415-.139-.376.381-.149,7.713-3.029,3.859-1.507c1.285-.505,2.586-.97,3.878-1.457l.555-.209.166.567c.381,1.3.731,2.617,1.1,3.925l1.058,3.938,1.02,3.948c.32,1.322.657,2.64.957,3.967l-.1.031c-.468-1.279-.9-2.568-1.347-3.852l-1.283-3.871-1.247-3.883c-.4-1.3-.819-2.591-1.2-3.894l.72.358c-1.29.491-2.573,1-3.871,1.476l-3.89,1.425-7.786,2.836.242-.526,4.673,13.534,4.625,13.539Z" transform="translate(-1076.318 -69.395)" fill="#c6900d"/>
            <path id="패스_20500" data-name="패스 20500" d="M1128.973,67.415l3.907,11.278,3.856,11.294c1.279,3.767,2.643,7.506,3.8,11.312.58,1.9,1.159,3.806,1.693,5.724l.8,2.877c.247.966.512,1.925.741,2.9l-.1.034c-.388-.92-.74-1.851-1.11-2.776l-1.05-2.8c-.7-1.864-1.353-3.743-2.006-5.622-1.307-3.758-2.41-7.582-3.6-11.379l-3.545-11.4-3.494-11.413Z" transform="translate(-1085.099 -68.266)" fill="#c6900d"/>
            <path id="패스_20501" data-name="패스 20501" d="M1156.7,74.278a35.977,35.977,0,0,1,4.929-.069c1.636.06,3.253.341,4.878.527l4.873.582c1.623.212,3.247.409,4.869.636l-.009.108c-1.637-.053-3.271-.135-4.906-.2l-4.9-.257c-1.633-.093-3.274-.091-4.9-.311a35.853,35.853,0,0,1-4.845-.906Z" transform="translate(-1093.419 -70.282)" fill="#c6900d"/>
            <path id="패스_20502" data-name="패스 20502" d="M1099.272,65.644l.392,6.137.338,6.14c.105,2.047.3,4.091.283,6.141a56.038,56.038,0,0,1-.315,6.158l-.109,0a55.96,55.96,0,0,1-.664-6.13c-.138-2.046-.055-4.1-.066-6.147l-.011-6.149.043-6.15Z" transform="translate(-1076.202 -67.736)" fill="#c6900d"/>
            <path id="패스_20503" data-name="패스 20503" d="M1107.969,114.243l.7-.835.161.15-.782.759Z" transform="translate(-1078.849 -82.02)" fill="#c6900d"/>
            <path id="패스_20504" data-name="패스 20504" d="M1109.974,111.871l.706-.829.3.281-.776.764Z" transform="translate(-1079.449 -81.313)" fill="#c6900d"/>
            <path id="패스_20505" data-name="패스 20505" d="M1111.989,109.507l.711-.825.433.4-.772.768Z" transform="translate(-1080.051 -80.607)" fill="#c6900d"/>
            <path id="패스_20506" data-name="패스 20506" d="M1114.021,107.158l.713-.822.541.5-.768.772Z" transform="translate(-1080.659 -79.906)" fill="#c6900d"/>
            <path id="패스_20507" data-name="패스 20507" d="M1116.058,104.812l.713-.823.653.606-.77.771Z" transform="translate(-1081.268 -79.204)" fill="#c6900d"/>
            <path id="패스_20508" data-name="패스 20508" d="M1118.086,102.455l.7-.832.791.736-.778.762Z" transform="translate(-1081.875 -78.496)" fill="#c6900d"/>
            <path id="패스_20509" data-name="패스 20509" d="M1120.119,100.127q.37-.4.754-.784l.8.747c-.237.275-.481.543-.728.809Z" transform="translate(-1082.483 -77.814)" fill="#c6900d"/>
            <path id="패스_20510" data-name="패스 20510" d="M1122.307,97.94c.261-.252.533-.5.8-.744l.612.569c-.229.283-.451.571-.684.85Z" transform="translate(-1083.137 -77.172)" fill="#c6900d"/>
            <path id="패스_20511" data-name="패스 20511" d="M1124.62,95.871q.416-.355.85-.7l.23.214q-.307.457-.632.9Z" transform="translate(-1083.828 -76.568)" fill="#c6900d"/>
            <path id="패스_20512" data-name="패스 20512" d="M1085.437,64.65a12.033,12.033,0,0,1-3.328,8.562,12.218,12.218,0,0,1-8.561,3.708,12.57,12.57,0,0,1-4.735-.839,11.332,11.332,0,0,1-4.018-2.678,11.217,11.217,0,0,1-3.136-8.753h.109a13.337,13.337,0,0,0,1.2,4.382,12.253,12.253,0,0,0,2.6,3.6,11.98,11.98,0,0,0,7.984,3.416,11.512,11.512,0,0,0,8.177-3.223,11.7,11.7,0,0,0,3.6-8.177Z" transform="translate(-1064.984 -67.439)" fill="#c6900d"/>
            <path id="패스_20513" data-name="패스 20513" d="M1151.782,79.571l1.023.373-.081.195-.984-.468Z" transform="translate(-1091.939 -71.901)" fill="#c6900d"/>
            <path id="패스_20514" data-name="패스 20514" d="M1154.667,80.641l1.021.379-.151.36-.987-.461Z" transform="translate(-1092.779 -72.221)" fill="#c6900d"/>
            <path id="패스_20515" data-name="패스 20515" d="M1157.551,81.724l1.02.381-.217.518-.988-.458Z" transform="translate(-1093.621 -72.545)" fill="#c6900d"/>
            <path id="패스_20516" data-name="패스 20516" d="M1160.431,82.822l1.017.388-.27.645-.99-.452Z" transform="translate(-1094.465 -72.874)" fill="#c6900d"/>
            <path id="패스_20517" data-name="패스 20517" d="M1163.311,83.93l1.017.388-.323.771-.99-.451Z" transform="translate(-1095.31 -73.205)" fill="#c6900d"/>
            <path id="패스_20518" data-name="패스 20518" d="M1166.19,85.034l1.02.381-.383.917-.988-.458Z" transform="translate(-1096.155 -73.535)" fill="#c6900d"/>
            <path id="패스_20519" data-name="패스 20519" d="M1169.073,86.118l1.013.4-.437,1.045-.995-.443Z" transform="translate(-1096.997 -73.859)" fill="#c6900d"/>
            <path id="패스_20520" data-name="패스 20520" d="M1170.341,86.86c-.064-.357-.108-.718-.163-1.077l.991-.193c.084.353.179.7.254,1.059Z" transform="translate(-1097.453 -73.701)" fill="#c6900d"/>
            <path id="패스_20521" data-name="패스 20521" d="M1169.926,83.8c-.048-.36-.079-.723-.118-1.086l.677-.132c.1.35.208.7.3,1.05Z" transform="translate(-1097.342 -72.803)" fill="#c6900d"/>
            <path id="패스_20522" data-name="패스 20522" d="M1169.666,80.742c-.024-.362-.04-.727-.044-1.093l.107-.021c.134.341.256.685.37,1.03Z" transform="translate(-1097.287 -71.918)" fill="#c6900d"/>
            <path id="패스_20523" data-name="패스 20523" d="M1128.82,107.834a14.972,14.972,0,0,1,4.2-10.659,15.161,15.161,0,0,1,10.659-4.578,15.564,15.564,0,0,1,5.87,1.065c.462.193.911.42,1.367.63.44.242.869.5,1.3.765.408.293.8.6,1.2.906l1.11,1.018a14.2,14.2,0,0,1,4.005,10.851h-.109q-.1-.722-.175-1.436c-.09-.472-.2-.939-.3-1.4-.124-.46-.275-.913-.409-1.366-.164-.444-.362-.877-.538-1.313a15.368,15.368,0,0,0-3.242-4.563,14.947,14.947,0,0,0-10.082-4.284A14.482,14.482,0,0,0,1133.4,97.56a14.645,14.645,0,0,0-4.474,10.274Z" transform="translate(-1085.084 -75.796)" fill="#c6900d"/>
          </g>
        </g>
      </g>
    </g>
    <path id="패스_20488" data-name="패스 20488" d="M1048.335,136.334a5.872,5.872,0,0,0-.751-.182,5.786,5.786,0,1,0-10.733-4.256,5.765,5.765,0,0,0-.181.751,5.944,5.944,0,0,0-.716-.29,5.789,5.789,0,1,0-2.791,11.2,5.786,5.786,0,1,0,10.733,4.257,5.891,5.891,0,0,0,.182-.751,5.85,5.85,0,0,0,.716.29,5.789,5.789,0,0,0,3.541-11.023m-8.929,4.021a5.885,5.885,0,0,0,.29-.716,5.806,5.806,0,0,0,.181-.751,5.253,5.253,0,0,0,1.466.471,5.858,5.858,0,0,0-.29.716,5.769,5.769,0,0,0-.181.751,5.254,5.254,0,0,0-1.466-.471" transform="translate(-1028.014 -86.347)" fill="#f5b29d"/>
    <path id="패스_20489" data-name="패스 20489" d="M1038.22,152.054a6.17,6.17,0,0,1-5.87-8.057c.034-.106.072-.213.116-.323-.116-.029-.225-.06-.331-.094a6.17,6.17,0,1,1,3.774-11.749c.106.034.213.072.324.116.029-.116.06-.225.093-.331a6.17,6.17,0,1,1,11.748,3.774c-.034.106-.072.212-.116.324.116.029.225.06.331.093h0a6.17,6.17,0,1,1-3.774,11.748c-.106-.034-.213-.072-.324-.116-.029.116-.06.225-.093.331a6.182,6.182,0,0,1-5.879,4.283m-4.2-19.759a5.409,5.409,0,0,0-1.648,10.559,5.472,5.472,0,0,0,.7.169l.49.088-.214.45a5.317,5.317,0,0,0-.271.669,5.408,5.408,0,1,0,10.467,2.605l.088-.49.45.214a5.285,5.285,0,0,0,.669.271,5.408,5.408,0,1,0,3.308-10.3,5.477,5.477,0,0,0-.7-.168l-.49-.089.214-.45a5.29,5.29,0,0,0,.271-.669,5.408,5.408,0,1,0-10.3-3.308,5.559,5.559,0,0,0-.169.7l-.088.49-.45-.214a5.285,5.285,0,0,0-.669-.271,5.433,5.433,0,0,0-1.66-.261m6.981,8.926-.45-.214a5.6,5.6,0,0,0-.669-.271,5.486,5.486,0,0,0-.7-.169l-.49-.088.214-.45a5.464,5.464,0,0,0,.271-.669,5.388,5.388,0,0,0,.169-.7l.088-.491.45.214a5.464,5.464,0,0,0,.669.271,5.373,5.373,0,0,0,.7.169l.49.088-.214.45a5.462,5.462,0,0,0-.271.669,5.4,5.4,0,0,0-.169.7Zm-1.217-1.305c.116.029.225.06.331.094s.213.073.324.116c.029-.116.06-.225.094-.331s.072-.213.116-.324c-.116-.029-.225-.06-.332-.094s-.212-.072-.323-.116c-.029.116-.06.225-.094.332s-.072.212-.116.323" transform="translate(-1027.852 -86.185)" fill="#fff"/>
    <path id="패스_20490" data-name="패스 20490" d="M1049.1,136.8a2.167,2.167,0,1,1-1.4-2.726,2.167,2.167,0,0,1,1.4,2.726" transform="translate(-1032.941 -88.17)" fill="#8f001d"/>
    <path id="패스_20491" data-name="패스 20491" d="M1043.865,153.1a2.167,2.167,0,1,1-1.4-2.726,2.167,2.167,0,0,1,1.4,2.726" transform="translate(-1031.375 -93.044)" fill="#8f001d"/>
    <path id="패스_20492" data-name="패스 20492" d="M1035.609,143.734a2.167,2.167,0,1,1,2.726-1.4,2.167,2.167,0,0,1-2.726,1.4" transform="translate(-1029.722 -89.824)" fill="#8f001d"/>
    <rect id="사각형_5817" data-name="사각형 5817" width="11.997" height="0.762" transform="matrix(0.306, -0.952, 0.952, 0.306, 10.062, 59.274)" fill="#0f1214"/>
    <path id="패스_20493" data-name="패스 20493" d="M1054.63,147.567a2.167,2.167,0,1,0-2.726,1.4,2.167,2.167,0,0,0,2.726-1.4" transform="translate(-1034.595 -91.389)" fill="#8f001d"/>
    <rect id="사각형_5818" data-name="사각형 5818" width="0.762" height="11.997" transform="translate(6.433 52.209) rotate(-72.194)" fill="#0f1214"/>
    <path id="패스_20494" data-name="패스 20494" d="M1047.7,144.759a4.545,4.545,0,1,1-2.938-5.718,4.546,4.546,0,0,1,2.938,5.718" transform="translate(-1031.134 -89.621)" fill="#d49300"/>
    <path id="패스_20495" data-name="패스 20495" d="M1043.208,148.133a4.927,4.927,0,1,1,4.693-3.42,4.9,4.9,0,0,1-4.693,3.42m0-9.093a4.169,4.169,0,1,0,1.278.2,4.146,4.146,0,0,0-1.278-.2" transform="translate(-1030.971 -89.457)" fill="#0f1214"/>
    <path id="패스_20496" data-name="패스 20496" d="M1087.811,78.2q-2.417,9.02-1.794,13.7t3.81,5.888l-5.021,7.517a7.38,7.38,0,0,1-3.987-2.23,11.943,11.943,0,0,1-2.748-4.986,26.322,26.322,0,0,1-5.5,4.986,13.887,13.887,0,0,1-5.157,2.23l-.993-7.517q3.828-1.2,6.964-5.888t5.552-13.7l2.4-8.969h8.87Zm12.086-9.571h9.42l-10.231,38.184h-9.421l4.847-18.089h-5.662l2.014-7.517h5.663Z" transform="translate(-1039.388 -68.629)" fill="#1e2a1f"/>
    <path id="패스_20497" data-name="패스 20497" d="M1158.88,87.885H1145.5l-.389,1.453h12.377l-3.034,11.325H1129.7l-.376,1.4h25.256l-1.329,4.961h-34.676l3.034-11.324h24.755l.389-1.454H1122l1.316-4.911h12.377l.389-1.453H1122.7l1.464-5.462h36.18Zm-27.435-7.016a4.475,4.475,0,0,1-3.836-1.579,4.681,4.681,0,0,1-.482-4.184,7.655,7.655,0,0,1,2.724-4.184,7.405,7.405,0,0,1,4.682-1.579h22.449a4.478,4.478,0,0,1,3.836,1.579,4.682,4.682,0,0,1,.483,4.184,7.654,7.654,0,0,1-2.725,4.184,7.4,7.4,0,0,1-4.682,1.579Zm6.182-6.614a1.1,1.1,0,0,0-.662.226,1.091,1.091,0,0,0-.418.626.673.673,0,0,0,.09.6.619.619,0,0,0,.534.25h13.63a1.032,1.032,0,0,0,.693-.25,1.19,1.19,0,0,0,.387-.6.715.715,0,0,0-.058-.626.654.654,0,0,0-.566-.226Z" transform="translate(-1054.982 -68.843)" fill="#1e2a1f"/>
  </g>
</svg>
