<svg id="NEM_7" xmlns="http://www.w3.org/2000/svg" width="151.818" height="86.333" viewBox="0 0 151.818 86.333">
  <path id="패스_20410" data-name="패스 20410" d="M790.058,77.615c-.141-.74-.888-.937-1.576-.831a13.851,13.851,0,0,0-2.667.6c-6.949,2.554-14.1,4.443-21.212,6.453-.3.086-3.409.995-7.153,2.092a9.357,9.357,0,0,0,.58-2.876c-2.508,0-4.575-.044-6.7-.136-6.526-.281-12.6.386-19.123.048-.33-.294-.177-1.435.264-1.452,8.191-.319,16.98-.088,25.207.161a.709.709,0,0,0,.544-.26c.163-.2,1.126-3.656,1.83-6.411a38.3,38.3,0,0,0,.968-5.059c-.216-.054-2.988-.169-3.211-.176-3.069-.091-5.958.079-9.017,0-.159,0-.037-1.408.366-1.408h9.668c1.6,0,3.822-.048,3.91-.268a17.254,17.254,0,0,0,.792-2.859c.074-.3.772-2.5.528-2.683a5.608,5.608,0,0,0-1.61-.152c-10.472-.04-19.856.592-30.853.152-1.778-.071-5.015,0-5.015,0-.4.308-1.677,5.434-1.628,5.543.11.244,13.953-.107,13.9.264-.044.308.062,1.008-.269,1.183-4-.2-12.767.1-12.985.379a27.744,27.744,0,0,0-1.263,4.9c8.211-.018,17.479.062,25.69.044-.176.66-.279,1.221-.528,1.408a10.888,10.888,0,0,1-2.43.18l-21.627-.672a1.242,1.242,0,0,0-1.52,1.156l-2.735,9.182a1.824,1.824,0,0,0-.005,1.08c.219.678.7.7,1.153.712l5.385.155c5.865.169,11.736.338,17.6.088,1.706-.073,3.247-.084,4.786-.077l-6.677,1.959a461.4,461.4,0,0,1-45.929,11.218,38.362,38.362,0,0,1-7.986.821c-4.491-.13-8.093-2.128-10.03-6.376a16.448,16.448,0,0,1-.307-13.171c.658-1.705,1.533-3.326,2.293-4.993A5.558,5.558,0,0,0,682,76.082a1.325,1.325,0,0,0-1.954-1.511,5.584,5.584,0,0,0-1.608,1.094c-2.706,2.57-5.482,5.077-8.046,7.784-5.357,5.654-9.38,12.04-10.837,19.884-.941,5.062-.765,9.876,1.685,14.506a9.148,9.148,0,0,0,2.941,3.35,23.465,23.465,0,0,0,15.714,4.288c6.266-.568,12.453-2.811,18.357-4.867a138.035,138.035,0,0,0,17.369-7.176c3.784-1.929,7.7-3.609,11.578-5.345,3.523-1.576,7.109-3.014,10.617-4.62,8.565-3.92,17.082-7.948,25.656-11.848,8.036-3.655,16.127-7.193,24.179-10.814a6,6,0,0,0,2.07-1.406,2.376,2.376,0,0,0,.337-1.785" transform="translate(-638.786 -40.711)" fill="#fff"/>
  <path id="패스_20411" data-name="패스 20411" d="M677.3,125.643a24.014,24.014,0,0,1-13.842-4.475,9.671,9.671,0,0,1-3.1-3.529c-2.267-4.287-2.819-9-1.734-14.833,1.333-7.17,4.92-13.758,10.967-20.139,1.95-2.059,4.05-4.029,6.081-5.935q.995-.932,1.984-1.868a6.066,6.066,0,0,1,1.758-1.191,1.823,1.823,0,0,1,2.651,2.044,5.106,5.106,0,0,1-.491,1.416l-.085.185c-.267.587-.553,1.176-.828,1.744-.508,1.048-1.033,2.131-1.454,3.223a15.942,15.942,0,0,0,.3,12.781c1.756,3.848,5.07,5.951,9.586,6.082a38.171,38.171,0,0,0,7.88-.814,461.134,461.134,0,0,0,45.879-11.206l3.193-.936q-.553.015-1.139.04c-5.878.251-11.85.079-17.626-.086l-5.392-.156a1.509,1.509,0,0,1-1.618-1.06,2.321,2.321,0,0,1,0-1.378L723,76.367a2.109,2.109,0,0,1,.8-1.284,1.485,1.485,0,0,1,.463-.185H723.9a.5.5,0,0,1-.5-.558,25.588,25.588,0,0,1,1.366-5.159c.161-.208.314-.4,5.456-.563,2.315-.072,5.488-.114,7.66-.022.01-.082.014-.184.016-.269-1.14-.094-4.736-.08-7.447-.071-6.208.024-6.21.022-6.393-.384-.07-.153-.13-.286.62-3.036.765-2.806,1-2.989,1.158-3.111a.508.508,0,0,1,.3-.106c.133,0,3.274-.07,5.046,0,6.739.269,12.988.132,19.032,0,3.813-.084,7.752-.164,11.8-.155,1.465,0,1.74.124,1.913.255.389.295.34.844-.267,2.937-.037.127-.065.223-.077.269-.1.414-.176.734-.237,1.007a10.525,10.525,0,0,1-.576,1.916c-.14.352-.234.585-4.377.585l-9.494,0a2.064,2.064,0,0,0-.09.41c1.327.021,2.64,0,3.915-.016,1.513-.021,3.076-.044,4.668,0,.029,0,3.012.115,3.318.191a.538.538,0,0,1,.32.239c.312.524-.91,5.385-.922,5.433a67.535,67.535,0,0,1-1.931,6.607,1.2,1.2,0,0,1-.947.442c-8.656-.262-17.087-.471-25.061-.165a1.107,1.107,0,0,0-.066.465c3.231.152,6.412.062,9.492-.025,3.018-.085,6.139-.175,9.326-.037,2.172.093,4.231.135,6.677.135a.5.5,0,0,1,.5.513,8.512,8.512,0,0,1-.326,2.12c4.019-1.177,6.014-1.76,6.258-1.829q1.635-.462,3.272-.919c5.918-1.655,12.037-3.367,17.9-5.522a14.156,14.156,0,0,1,2.764-.63,1.714,1.714,0,0,1,2.147,1.234h0a2.862,2.862,0,0,1-.451,2.208,6.33,6.33,0,0,1-2.244,1.535c-3.339,1.5-6.74,3.014-10.03,4.477-4.643,2.064-9.444,4.2-14.147,6.337-4.656,2.118-9.374,4.31-13.936,6.43-3.837,1.783-7.805,3.626-11.719,5.418-1.932.884-3.917,1.731-5.836,2.549-1.573.671-3.2,1.364-4.785,2.073q-1.091.488-2.184.972c-3.1,1.376-6.307,2.8-9.371,4.362a136.209,136.209,0,0,1-17.431,7.2l-.869.3c-5.7,1.989-11.588,4.045-17.609,4.59q-1.109.1-2.2.1m3.041-51.164a1.381,1.381,0,0,0-.533.12,5.057,5.057,0,0,0-1.459,1q-.99.94-1.988,1.872c-2.02,1.9-4.109,3.857-6.04,5.893-5.909,6.236-9.412,12.657-10.708,19.63-1.04,5.6-.521,10.1,1.635,14.178a8.679,8.679,0,0,0,2.782,3.172,22.86,22.86,0,0,0,15.382,4.2c5.9-.534,11.729-2.57,17.368-4.538l.87-.3a135.347,135.347,0,0,0,17.306-7.149c3.088-1.575,6.307-3,9.42-4.385q1.091-.485,2.181-.972c1.593-.713,3.224-1.408,4.8-2.08,1.913-.816,3.892-1.659,5.812-2.538,3.911-1.79,7.878-3.632,11.714-5.415,4.564-2.121,9.284-4.314,13.943-6.433,4.707-2.141,9.51-4.277,14.155-6.341,3.288-1.462,6.689-2.974,10.027-4.474a5.462,5.462,0,0,0,1.9-1.277,1.927,1.927,0,0,0,.223-1.36c-.1-.538-.855-.45-1-.428a13.382,13.382,0,0,0-2.57.579c-5.9,2.17-12.042,3.887-17.979,5.548q-1.636.457-3.27.919c-.34.095-4.242,1.238-7.148,2.09a.5.5,0,0,1-.619-.644,9.884,9.884,0,0,0,.524-2.212c-2.231-.006-4.16-.049-6.187-.136-3.15-.135-6.253-.047-9.254.039-3.194.091-6.5.184-9.873.01a.506.506,0,0,1-.309-.128,1.6,1.6,0,0,1-.232-1.629.911.911,0,0,1,.812-.7c8.039-.313,16.527-.1,25.242.16a.219.219,0,0,0,.116-.053c.2-.469,1.051-3.487,1.755-6.239.188-.735.782-3.437.937-4.479-.781-.049-2.414-.12-2.707-.128-1.57-.047-3.122-.024-4.623,0-1.424.021-2.9.042-4.392.006-.17,0-.566-.091-.557-.806.007-.6.212-1.608.937-1.608h9.668a25.752,25.752,0,0,0,3.518-.144,9.546,9.546,0,0,0,.453-1.571c.063-.28.137-.606.243-1.03.013-.052.044-.161.086-.306a15.7,15.7,0,0,0,.463-1.858,11.15,11.15,0,0,0-1.117-.046c-4.063-.017-8,.071-11.806.154-6.06.132-12.326.269-19.095,0-1.444-.057-3.9-.019-4.711,0a42.771,42.771,0,0,0-1.32,4.608c.97.037,3.268.029,5.34.022,8.032-.029,8.1.047,8.344.334a.538.538,0,0,1,.124.417,2.027,2.027,0,0,0-.009.236c0,.418-.013,1.051-.522,1.32a.505.505,0,0,1-.261.058,109.79,109.79,0,0,0-12.589.288,34.22,34.22,0,0,0-1.05,3.987c3.941-.005,8.169.01,12.263.023,4.3.016,8.737.033,12.842.023h0a.5.5,0,0,1,.486.633c-.029.108-.055.212-.081.313a2.363,2.363,0,0,1-.632,1.368,9.076,9.076,0,0,1-2.747.281l-21.627-.671a1.339,1.339,0,0,0-.653.078,1.3,1.3,0,0,0-.37.717l-2.735,9.183a1.318,1.318,0,0,0-.009.781c.1.317.214.35.689.363l5.385.155c5.766.165,11.721.337,17.562.088,1.867-.08,3.479-.084,4.81-.078a.5.5,0,0,1,.139.987l-6.678,1.958a461.84,461.84,0,0,1-45.979,11.23,38.941,38.941,0,0,1-8.093.83c-4.925-.144-8.547-2.449-10.473-6.671a16.916,16.916,0,0,1-.319-13.561c.435-1.131.97-2.233,1.486-3.3.274-.563.555-1.146.818-1.722l.088-.191a4.3,4.3,0,0,0,.408-1.134,1,1,0,0,0-.276-.959.728.728,0,0,0-.45-.138m46.075.417,20.232.629a15.489,15.489,0,0,0,2.134-.114,2.606,2.606,0,0,0,.157-.467c-3.924.006-8.126-.009-12.2-.022-3.425-.013-6.943-.025-10.308-.025Zm11.5-7.038v0" transform="translate(-638.349 -40.275)" fill="#1a1311"/>
  <path id="패스_20412" data-name="패스 20412" d="M704.573,73.316a6.475,6.475,0,0,0,.484,1.628,2.608,2.608,0,0,0,1.112-.235,31.22,31.22,0,0,0,9.709-7.155c1.047,2.2,2.48,5.109,4.4,6.612a3.055,3.055,0,0,0,1.991.838c1.132-.078,1.847-1.214,2.372-2.22.795-1.523,1.662-2.563,2.457-4.086.275-.528,1.254-1.4.7-1.628-.748-.308-2.009-2.079-2.729-3a3.945,3.945,0,0,1-.649-1.743c-.53-2.85-.147-3.089-.1-5.987a34.986,34.986,0,0,1,1.012-6.467c.364-1.314.7-2.859,1.1-4.575.586-2.54,1.447-5.133,1.979-7.685-2.5-.394-5.31,0-7.83-.189-.448-.034-.954-.145-1.144.044a3.175,3.175,0,0,0-.522,1.145A84.922,84.922,0,0,1,714.7,52.93c-1.926,4.6-3.807,9.032-7.536,12.337a9.607,9.607,0,0,1-2.6,1.32,1.772,1.772,0,0,0-.616.264c-.195.185-.155.216-.132.484.22,2.551.44,3.695.748,5.982" transform="translate(-659.582 -29.079)" fill="#fff"/>
  <path id="패스_20413" data-name="패스 20413" d="M721.717,75.074a3.694,3.694,0,0,1-2.186-.949c-1.755-1.375-3.1-3.81-4.218-6.117a32.326,32.326,0,0,1-9.366,6.72,3.108,3.108,0,0,1-1.326.282c-.671,0-.936-1.719-.983-2.064-.084-.625-.162-1.165-.234-1.671-.191-1.325-.355-2.469-.516-4.336l-.009-.091a.819.819,0,0,1,.3-.8,1.741,1.741,0,0,1,.711-.348l.1-.029a9.173,9.173,0,0,0,2.418-1.218c3.676-3.258,5.572-7.78,7.406-12.154a85.5,85.5,0,0,0,4.187-14.236,3.554,3.554,0,0,1,.658-1.39,1.483,1.483,0,0,1,1.269-.217c.09.01.181.02.269.027,1.05.08,2.188.055,3.288.03a26.27,26.27,0,0,1,4.582.164.5.5,0,0,1,.415.6c-.3,1.417-.7,2.861-1.082,4.257-.314,1.132-.638,2.3-.9,3.438l-.211.92c-.305,1.333-.594,2.591-.894,3.676a34.474,34.474,0,0,0-.994,6.341c-.017.961-.07,1.649-.114,2.2a11.347,11.347,0,0,0,.2,3.686,3.556,3.556,0,0,0,.551,1.526c.108.138.227.294.355.462a10.8,10.8,0,0,0,2.17,2.385.74.74,0,0,1,.452.493c.124.462-.215.9-.574,1.37a4.084,4.084,0,0,0-.327.463c-.408.783-.837,1.444-1.252,2.084s-.818,1.261-1.2,2c-.616,1.179-1.428,2.4-2.784,2.489-.05,0-.1.005-.149.005m-16.671-.832h0Zm10.4-7.629a.5.5,0,0,1,.455.287c.879,1.848,2.352,4.941,4.254,6.433a2.639,2.639,0,0,0,1.646.731c.86-.059,1.473-1.019,1.96-1.951.408-.783.837-1.444,1.252-2.084s.818-1.261,1.2-2a4.465,4.465,0,0,1,.422-.611c.093-.121.228-.3.314-.433a11.584,11.584,0,0,1-2.364-2.591c-.125-.165-.243-.318-.348-.454a4.4,4.4,0,0,1-.747-1.961,12.258,12.258,0,0,1-.216-3.949c.044-.567.094-1.209.111-2.139a35.12,35.12,0,0,1,1.029-6.592c.294-1.064.581-2.312.883-3.633l.212-.921c.267-1.156.593-2.338.911-3.481.333-1.206.677-2.447.952-3.665a29.594,29.594,0,0,0-3.873-.08c-1.125.025-2.287.051-3.388-.033-.1-.007-.2-.019-.3-.029a3.535,3.535,0,0,0-.477-.031,3.15,3.15,0,0,0-.357.857,86.326,86.326,0,0,1-4.242,14.4c-1.877,4.478-3.819,9.109-7.666,12.518a9.973,9.973,0,0,1-2.774,1.422l-.114.035a2.077,2.077,0,0,0-.3.107l.008.084c.159,1.838.313,2.915.509,4.278.073.509.152,1.052.236,1.68a7.11,7.11,0,0,0,.308,1.17,2,2,0,0,0,.577-.166,30.827,30.827,0,0,0,9.543-7.032.5.5,0,0,1,.378-.171m3.848-29.181h0Z" transform="translate(-659.147 -28.642)" fill="#1a1311"/>
  <path id="패스_20414" data-name="패스 20414" d="M747.352,57.089a.741.741,0,0,0,.548.2c1.336.108,3.633.052,4.973.014-.977,6.212-3.729,12.021-4.918,18.2a44.827,44.827,0,0,0,8.907.347,1.078,1.078,0,0,0,1.254-.907c1.532-4.861,2.574-9.911,3.985-14.809,1.5-5.191,2.772-9.634,4.127-15.281.673-2.8,2.341-8.657,2.253-8.664q-4.262-.343-8.542-.313a1.631,1.631,0,0,0-1.008.232,65.144,65.144,0,0,0-2.345,7.963,26.95,26.95,0,0,1-1.743,5.066,19.77,19.77,0,0,1-4.482.179,1.4,1.4,0,0,0-.954.156c-.294.22-.315.634-.41.989-.621,2.327-1.465,4.075-1.721,6.066a.75.75,0,0,0,.076.561" transform="translate(-679.762 -28.39)" fill="#fff"/>
  <path id="패스_20415" data-name="패스 20415" d="M753.713,76a45.361,45.361,0,0,1-6.264-.434.5.5,0,0,1-.425-.593,74.761,74.761,0,0,1,2.374-8.582,69.657,69.657,0,0,0,2.442-9c-1.24.031-3.217.064-4.417-.032a1.213,1.213,0,0,1-.9-.4h0a1.205,1.205,0,0,1-.178-.935,19.156,19.156,0,0,1,.975-3.691c.258-.769.524-1.562.759-2.441.018-.069.033-.14.049-.211a1.616,1.616,0,0,1,.545-1.05,1.855,1.855,0,0,1,1.295-.255,25.393,25.393,0,0,0,4.13-.1,35.416,35.416,0,0,0,1.566-4.758c.018-.077,1.934-7.787,2.526-8.247a2.079,2.079,0,0,1,1.313-.337c2.852-.016,5.741.086,8.586.314a.51.51,0,0,1,.373.213c.168.238.168.238-.795,3.8-.493,1.827-1.053,3.9-1.381,5.267-1.381,5.752-2.717,10.391-4.133,15.3-.607,2.1-1.155,4.277-1.685,6.379-.7,2.784-1.428,5.664-2.3,8.442a1.878,1.878,0,0,1-.43.813,1.858,1.858,0,0,1-1.274.445q-1.368.084-2.743.083m-5.6-1.36a44.361,44.361,0,0,0,8.277.272,1.1,1.1,0,0,0,.624-.152,1.126,1.126,0,0,0,.18-.4c.867-2.751,1.589-5.616,2.288-8.386.532-2.11,1.082-4.291,1.694-6.411,1.412-4.9,2.745-9.529,4.121-15.259.332-1.382.893-3.46,1.388-5.295.29-1.073.587-2.173.744-2.794-2.632-.2-5.294-.285-7.929-.267a1.567,1.567,0,0,0-.645.089,80.094,80.094,0,0,0-2.221,7.716c-.011.047-1.31,4.91-1.94,5.362-.594.424-4.5.3-4.813.272a1.121,1.121,0,0,0-.615.058.953.953,0,0,0-.164.456c-.019.087-.038.175-.061.259-.242.908-.514,1.718-.777,2.5a18.515,18.515,0,0,0-.931,3.5,1.487,1.487,0,0,0-.014.177,1.19,1.19,0,0,0,.18.024c1.372.111,3.857.043,4.918.013a.5.5,0,0,1,.511.581,65.928,65.928,0,0,1-2.577,9.748,78.889,78.889,0,0,0-2.24,7.942" transform="translate(-679.325 -27.954)" fill="#1a1311"/>
  <path id="패스_20416" data-name="패스 20416" d="M822.93,37.253a46.561,46.561,0,0,0-9.9-.482c-3.124.189-6.3-.029-9.45-.059a35.416,35.416,0,0,0-5.8.063c-1.026.162-3.087.243-4.022.827-2.323,1.45-3.006,4.073-3.614,6.75-1.2,5.311,6.655,4.758,9.916,4.73q7.024-.062,14.049.02c3.825.05,7.792.565,10.436-2.862,2.145-2.779,2.7-8.314-1.613-8.988M815.41,44a2.691,2.691,0,0,1-1.2.235,118.292,118.292,0,0,1-13.044-.245,1.094,1.094,0,0,1-.591-.161.742.742,0,0,1-.239-.689,1.487,1.487,0,0,1,1.033-1.118,4.365,4.365,0,0,1,1.586-.146c3.89.12,7.805-.012,11.675.4.519.055,1.143.2,1.3.7A.934.934,0,0,1,815.41,44" transform="translate(-699.621 -28.736)" fill="#fff"/>
  <path id="패스_20417" data-name="패스 20417" d="M816.606,49.227c-.578,0-1.158-.015-1.735-.03-.4-.011-.806-.021-1.207-.026-4.388-.058-8.98-.064-14.037-.02-.232,0-.487.007-.76.012-2.724.049-7.28.134-9.05-2.041a3.712,3.712,0,0,1-.6-3.315c.549-2.424,1.233-5.44,3.837-7.066a9,9,0,0,1,3.347-.79c.326-.036.623-.069.862-.107a22.248,22.248,0,0,1,4.28-.115c.536.02,1.072.04,1.6.045,1,.01,2.019.039,3,.067,2.112.059,4.3.121,6.412-.006a47.323,47.323,0,0,1,10.011.487,4.005,4.005,0,0,1,3.291,2.535c.939,2.355,0,5.5-1.357,7.257-2.106,2.729-4.975,3.114-7.9,3.114M806,48.114c2.656,0,5.2.017,7.681.049.405.005.813.016,1.219.027,3.4.089,6.6.171,8.812-2.692,1.205-1.561,1.99-4.333,1.219-6.269a3.009,3.009,0,0,0-2.511-1.913,46.28,46.28,0,0,0-9.795-.477c-2.159.131-4.367.069-6.5.008-.979-.028-1.992-.057-2.984-.066-.543-.005-1.1-.026-1.631-.046a21.505,21.505,0,0,0-4.085.1c-.252.04-.565.076-.908.114a8.694,8.694,0,0,0-2.926.643c-2.083,1.3-2.743,3.584-3.389,6.434a2.728,2.728,0,0,0,.4,2.457c1.461,1.795,5.71,1.718,8.25,1.67.277,0,.536-.01.771-.012,2.207-.02,4.326-.029,6.379-.029m3.482-3.739c-2.935,0-5.877-.108-8.79-.325a1.544,1.544,0,0,1-.859-.262,1.234,1.234,0,0,1-.433-1.156,1.981,1.981,0,0,1,1.366-1.526,4.832,4.832,0,0,1,1.768-.174c1.227.038,2.479.051,3.69.064,2.632.027,5.354.055,8.022.34.358.038,1.448.154,1.724,1.053A1.423,1.423,0,0,1,815.215,44a3.13,3.13,0,0,1-1.427.3q-2.147.078-4.31.078m-7.421-2.445a2.937,2.937,0,0,0-.962.126,1.008,1.008,0,0,0-.7.709.285.285,0,0,0,.045.221.911.911,0,0,0,.324.06,118.068,118.068,0,0,0,12.988.244,2.328,2.328,0,0,0,.981-.174c.182-.1.311-.305.272-.432-.052-.17-.361-.294-.868-.348-2.621-.28-5.318-.307-7.927-.334-1.216-.013-2.474-.026-3.711-.064-.147,0-.3-.009-.442-.009" transform="translate(-699.185 -28.3)" fill="#1a1311"/>
  <path id="패스_20418" data-name="패스 20418" d="M740.486,135.837c.121.178.055.709.058.909a10.637,10.637,0,0,1-.182,2.185,6.558,6.558,0,0,1-2.736,4.381,7.891,7.891,0,0,1-4.395,1.188,5.411,5.411,0,0,1-2.253-.546,11.953,11.953,0,0,1-2.013-1.635,3.282,3.282,0,0,0-2.841-.684c-2.223.635-3.363,4.548-10.685,2.427s-3.988-4.1-8.061-4.735-10.644-4.508-3.891-3.58,7.761,1.248,9.334-1.354,3.816-7.732,7.616-6.855l2.145.645s-4.1-6.021,1.321-10.519c5.01-4.157,8.459-.187,8.459-.187s2.09-13.106,12.49-12.98,12.974,6.322,13.731,10.737,5.859,2.93,9.477,4.694,6.355,4.791,5.532,10.33a6.757,6.757,0,0,1-3.94,5.572s2.44.021,4.76-.093,3.777-.314,5.031-.333c1.034-.016,3.36-.307.969.959s-2.5,1-6.356,3.078-2.132,3.338-7.506,5.063-10.277,2.067-14.695.767a16.64,16.64,0,0,1-9.683-6.911c-.528-.862-1.117-1.687-1.686-2.525" transform="translate(-658.083 -60.26)" fill="#dc000c"/>
  <path id="패스_20419" data-name="패스 20419" d="M781.5,134.947c-.17-.626-.959-.59-2.048-.541-.172.008-.335.016-.475.017-.66.011-1.378.069-2.21.138-.8.066-1.716.141-2.84.2-1,.049-2.036.073-2.879.085a7.788,7.788,0,0,0,2.606-4.962c.739-4.974-1.22-8.635-5.822-10.879a14.469,14.469,0,0,0-4.2-1.09c-2.827-.438-4.581-.827-4.991-3.22-1.253-7.315-6.045-11.075-14.242-11.173-9.1-.11-12.1,9.493-12.824,12.521-1.351-1.01-4.483-2.538-8.466.767-4.256,3.532-2.99,7.982-2.044,10.056l-.935-.281-.034-.009c-3.675-.849-5.993,3.246-7.525,5.955-.233.411-.451.8-.659,1.141-1.264,2.091-1.84,2.075-7.666,1.264l-1.147-.159c-1.729-.238-3.35-.319-3.5.688-.232,1.582,4.959,3.576,7.237,3.931,1.563.244,1.824.637,2.256,1.289.614.925,1.454,2.192,5.74,3.433,5.573,1.614,7.8-.158,9.424-1.451a4.924,4.924,0,0,1,1.552-.975,2.752,2.752,0,0,1,2.365.585c.207.169.4.353.611.548a6.53,6.53,0,0,0,1.5,1.148,5.9,5.9,0,0,0,2.472.6,8.394,8.394,0,0,0,4.693-1.268,7.059,7.059,0,0,0,2.974-4.727,10.842,10.842,0,0,0,.175-1.433c.231.343.457.69.67,1.038a17.14,17.14,0,0,0,9.984,7.141,20.475,20.475,0,0,0,5.823.817,30.065,30.065,0,0,0,9.18-1.588c3.251-1.044,4.048-1.962,4.894-2.934a8.278,8.278,0,0,1,2.7-2.167,44.023,44.023,0,0,1,4.017-1.966c.663-.286,1.29-.556,2.336-1.111.778-.412,1.463-.831,1.3-1.424m-4.052,1.57a44.937,44.937,0,0,0-4.1,2.006,9.284,9.284,0,0,0-3,2.4c-.779.9-1.451,1.669-4.422,2.623-5.463,1.755-10.169,2-14.385.764a16.1,16.1,0,0,1-9.384-6.681c-.4-.657-.842-1.3-1.267-1.915-.145-.21-.289-.419-.432-.63a.512.512,0,0,0-.048-.054q-.079-.274-.173-.559a7.384,7.384,0,0,1,1.669-6.514,5.849,5.849,0,0,1,2.808-1.444c3.422-.875,7.516.322,8.441,3.834a6.828,6.828,0,0,1-.819,5.25,3.884,3.884,0,0,1-3.509,1.66,3.679,3.679,0,0,1-3.154-1.981,3.521,3.521,0,0,1-.1-2.788,2.282,2.282,0,0,1,1.243-1.306,1.584,1.584,0,0,1,1.3.077c.795.4.885,1.644.632,2.632a.438.438,0,0,0,.848.217c.348-1.363.147-3.013-1.088-3.632a2.439,2.439,0,0,0-2-.112,3.173,3.173,0,0,0-1.744,1.8,4.418,4.418,0,0,0,.127,3.5,4.544,4.544,0,0,0,3.885,2.465c.1.006.2.009.3.009a4.732,4.732,0,0,0,3.987-2.064,7.631,7.631,0,0,0,.933-5.952c-1.064-4.037-5.666-5.436-9.5-4.459a6.684,6.684,0,0,0-3.215,1.678,7.968,7.968,0,0,0-2.047,4.7,9.393,9.393,0,0,0-2.2-2.98,7.313,7.313,0,0,0-7.59-.7,5.276,5.276,0,0,0-2.02,2.212,9.211,9.211,0,0,0-.281,5.377,4.871,4.871,0,0,0,2.431,2.918,4.66,4.66,0,0,0,2.118.51,4.3,4.3,0,0,0,2.007-.484,3.94,3.94,0,0,0,2.1-3.559,3.534,3.534,0,0,0-2.585-3.222,3.164,3.164,0,0,0-3.648,1.908,2.545,2.545,0,0,0,0,1.563,2.059,2.059,0,0,0,1.978,1.631.437.437,0,0,0,.077-.871,1.208,1.208,0,0,1-1.211-1,1.674,1.674,0,0,1-.02-1.03,2.3,2.3,0,0,1,2.621-1.355,2.633,2.633,0,0,1,1.915,2.408,3.093,3.093,0,0,1-1.637,2.749,3.648,3.648,0,0,1-3.317-.032,4.045,4.045,0,0,1-1.992-2.392,8.4,8.4,0,0,1,.233-4.751,4.468,4.468,0,0,1,1.69-1.842,6.434,6.434,0,0,1,6.572.629,11.712,11.712,0,0,1,2.919,5c.039.16.085.317.135.471a.517.517,0,0,0,.025.428,2.874,2.874,0,0,1,0,.441c0,.092-.007.171-.006.228a10.148,10.148,0,0,1-.173,2.077,6.009,6.009,0,0,1-2.5,4.034,7.378,7.378,0,0,1-4.1,1.108,4.84,4.84,0,0,1-2.034-.489,5.626,5.626,0,0,1-1.253-.977c-.212-.2-.43-.4-.665-.6a3.794,3.794,0,0,0-3.317-.782,5.731,5.731,0,0,0-1.918,1.164c-1.525,1.215-3.426,2.727-8.477,1.264-3.916-1.133-4.6-2.171-5.156-3-.488-.735-.949-1.43-2.969-1.745a14.9,14.9,0,0,1-6.232-2.644,8.085,8.085,0,0,1,2.188.1l1.145.159c5.836.813,7.051.982,8.71-1.761.212-.35.435-.746.674-1.167,1.459-2.578,3.457-6.108,6.358-5.452l2.128.64a.525.525,0,0,0,.585-.8c-.156-.23-3.773-5.674,1.222-9.819,4.539-3.765,7.6-.391,7.728-.246a.526.526,0,0,0,.915-.261c.02-.126,2.125-12.539,11.827-12.539h.138c7.616.091,12.063,3.557,13.219,10.3.559,3.26,3.256,3.677,5.866,4.081a13.7,13.7,0,0,1,3.9,1c4.2,2.049,5.917,5.249,5.243,9.781-.6,4.033-3.474,5.11-3.594,5.153a.525.525,0,0,0,.169,1.021c.026,0,2.482.02,4.791-.094,1.14-.056,2.061-.132,2.874-.2s1.515-.124,2.14-.134c.148,0,.322-.01.506-.018l.2-.009c-1.006.532-1.584.782-2.254,1.071" transform="translate(-657.628 -59.805)" fill="#1a1311"/>
  <path id="패스_20420" data-name="패스 20420" d="M622.441,55.6c-.366-.169-.239-.282.052-.4a6.379,6.379,0,0,1,1.89-.237c2.1-.149,4.2-.186,6.3-.3a14.727,14.727,0,0,0,6.044-1.182,22.126,22.126,0,0,0,3.655-2.419,17.722,17.722,0,0,0,3.707-3.587c.7-.981,1.342-2,2.064-2.96,0,0-11.7-.77-6.775-11.086s12.009-.308,12.009-.308-2.925-9.392,7.7-10.162,12.164,4.465,12.164,4.465,4.157,5.7-1.232,8.93c0,0,7.7-2.925,10.008,5.235s-6.313,10.469-8.468,8.16c0,0-2.925,3.695-9.238,2.309-3.1-.68-7.017-1.29-9.9.49-1.62,1-2.521,2.819-4.085,3.914a8.331,8.331,0,0,1-5.124,1.532c-5.735-.244-11.728.154-17.344-1.222a18.872,18.872,0,0,1-3.427-1.173" transform="translate(-621.69 -22.356)" fill="#005dab"/>
  <path id="패스_20421" data-name="패스 20421" d="M680.074,40.99a7.468,7.468,0,0,0-8.505-6.072,5.156,5.156,0,0,0,1.17-2.369c.553-2.727-1.151-5.355-1.474-5.822-.271-.753-2.395-5.49-12.674-4.748-3.446.25-5.9,1.411-7.289,3.45a8.336,8.336,0,0,0-1.23,5.408c-1.357-1.41-3.638-3.26-6.139-3.039-2.16.184-4.006,1.849-5.486,4.948-1.511,3.164-1.667,5.81-.463,7.867,1.592,2.719,5.094,3.591,6.764,3.859-.25.355-.492.711-.73,1.061-.269.4-.538.791-.814,1.181a17.394,17.394,0,0,1-3.6,3.477,21.824,21.824,0,0,1-3.566,2.364,14.322,14.322,0,0,1-5.838,1.127c-.832.044-1.666.076-2.5.109-1.248.048-2.539.1-3.81.189-.129.009-.267.014-.41.02a4.792,4.792,0,0,0-1.646.257c-.162.068-.591.249-.6.684,0,.288.173.516.531.681a19.2,19.2,0,0,0,3.522,1.206,57.033,57.033,0,0,0,12.836,1.133c1.519.019,3.09.039,4.61.1q.177.007.352.007a8.942,8.942,0,0,0,5.1-1.635,11.458,11.458,0,0,0,2.021-1.968,9.318,9.318,0,0,1,2.039-1.929c2.642-1.632,6.289-1.131,9.509-.424,5.359,1.177,8.394-1.129,9.394-2.1,1.379.945,3.878.852,5.913-.3,2.964-1.67,4.092-4.934,3.019-8.73m-3.534,7.816c-2,1.127-4.268.973-5.056.129-.006-.006-.014-.011-.02-.017a.5.5,0,0,0-.057-.049l-.027-.017a.457.457,0,0,0-.047-.029,6.344,6.344,0,0,1-3.449-3.41,5.143,5.143,0,0,1,.638-4.271A2.664,2.664,0,0,1,671,40.157a2.442,2.442,0,0,1,1.955,1.517c.178.434.693,1.921-.172,2.861a1.182,1.182,0,0,1-.806.4.821.821,0,0,1-.75-.584.806.806,0,0,1,.207-.93.525.525,0,0,0-.649-.826,1.937,1.937,0,0,0,1.174,3.391H672a2.22,2.22,0,0,0,1.553-.743,3.689,3.689,0,0,0,.37-3.971,3.515,3.515,0,0,0-2.777-2.157,3.706,3.706,0,0,0-3.445,1.367,6.148,6.148,0,0,0-.765,5.383,7.076,7.076,0,0,0,3.3,3.563c-1,.894-3.661,2.668-8.259,1.659-3.424-.751-7.325-1.274-10.286.556a10.256,10.256,0,0,0-2.279,2.134,10.493,10.493,0,0,1-1.831,1.8,7.794,7.794,0,0,1-4.8,1.438c-1.536-.066-3.115-.085-4.641-.1a56.29,56.29,0,0,1-12.6-1.1,19.367,19.367,0,0,1-2.39-.741c.125-.007.251-.012.373-.017.155-.006.3-.012.444-.021,1.254-.089,2.536-.139,3.776-.187.838-.032,1.676-.065,2.513-.109a15.1,15.1,0,0,0,6.251-1.237,22.691,22.691,0,0,0,3.743-2.474,18.3,18.3,0,0,0,3.813-3.7c.282-.4.554-.8.828-1.2.362-.533.737-1.08,1.125-1.605a7.012,7.012,0,0,0,2.3-.811,3.651,3.651,0,0,0,1.956-2.94,5.008,5.008,0,0,0-2.272-5.27,3.722,3.722,0,0,0-2.73-.431,3.775,3.775,0,0,0-2.052,1.707,3.28,3.28,0,0,0-.349,3.06,2.638,2.638,0,0,0,2.974,1.531,2.238,2.238,0,0,0,1.431-1.268,1.674,1.674,0,0,0-.176-1.921,1.975,1.975,0,0,0-2.263-.069.525.525,0,1,0,.552.894c.309-.191.817-.232.973-.079.13.129.075.475-.047.75a1.2,1.2,0,0,1-.742.678,1.574,1.574,0,0,1-1.736-.932,2.266,2.266,0,0,1,.267-2.075,2.791,2.791,0,0,1,1.428-1.258,2.711,2.711,0,0,1,1.949.325,4.023,4.023,0,0,1,1.755,4.2,2.617,2.617,0,0,1-1.409,2.167,5.47,5.47,0,0,1-2.266.729c-.013,0-.026,0-.039.005-.985-.109-5.03-.716-6.62-3.431-1.017-1.737-.847-4.053.5-6.883,1.307-2.737,2.864-4.2,4.625-4.354,3.308-.281,6.451,4.079,6.482,4.123a.525.525,0,0,0,.93-.459c-.011-.037-1.128-3.758.741-6.494,1.2-1.758,3.386-2.763,6.493-2.988,10-.725,11.608,4.045,11.622,4.09a.533.533,0,0,0,.079.161c.019.026,1.848,2.583,1.341,5.069a4.746,4.746,0,0,1-2.418,3.1.525.525,0,0,0,.456.942,8.212,8.212,0,0,1,5.884.187,7.075,7.075,0,0,1,3.432,4.7c1.345,4.754-1.316,6.849-2.523,7.53" transform="translate(-621.234 -21.9)" fill="#1a1311"/>
</svg>
