<svg id="NEM_5" xmlns="http://www.w3.org/2000/svg" xmlns:xlink="http://www.w3.org/1999/xlink" width="84.765" height="114.925" viewBox="0 0 84.765 114.925">
  <defs>
    <clipPath id="clip-path">
      <rect id="사각형_5798" data-name="사각형 5798" width="84.765" height="114.925" fill="none"/>
    </clipPath>
  </defs>
  <g id="그룹_11121" data-name="그룹 11121" clip-path="url(#clip-path)">
    <path id="패스_20262" data-name="패스 20262" d="M151.682,437.4c-.053.43-.1.861-.158,1.29q-.359,2.772-.721,5.544c-.19,1.461-.374,2.923-.571,4.384-.235,1.739-.471,3.478-.724,5.215q-.263,1.8-.577,3.593a15.143,15.143,0,0,1-.612,2.323,7.213,7.213,0,0,1-5.677,4.978c-.868.184-1.755.279-2.635.4-1.611.223-3.224.426-4.833.656a9.659,9.659,0,0,0-1.266.293,3.633,3.633,0,0,0-1.216.606.418.418,0,0,1-.539.04,7.425,7.425,0,0,0-3.381-1.057c-1.715-.257-3.439-.453-5.158-.686a13.59,13.59,0,0,1-2.352-.49,7.043,7.043,0,0,1-4.524-4.1,13.423,13.423,0,0,1-.857-2.926c-.25-1.386-.462-2.778-.665-4.171-.259-1.78-.5-3.562-.738-5.345-.194-1.439-.377-2.879-.563-4.319q-.3-2.353-.605-4.707c-.06-.473-.111-.947-.179-1.419a.907.907,0,0,1,.31-.87q1.039-.935,2.054-1.9a.9.9,0,0,1,.95-.217c1.632.441,3.283.806,4.947,1.112q2.527.465,5.081.753a52.476,52.476,0,0,0,7.272.323c1.473-.039,2.944-.143,4.411-.3,1.833-.2,3.659-.45,5.465-.819,1.507-.308,3.005-.66,4.5-1.009.784-.183.781-.2,1.384.354s1.209,1.119,1.822,1.67a.855.855,0,0,1,.353.793m-15.5,22.8a3.63,3.63,0,0,0-2.315-3.435,4.117,4.117,0,0,0-2.484-.206,3.616,3.616,0,0,0-2.9,2.739,4.018,4.018,0,0,0,2.558,4.684,3.773,3.773,0,0,0,1.79.178,4.032,4.032,0,0,0,3.356-3.959m7.735-5.139c-.194.016-.39.018-.582.049a5.075,5.075,0,0,0-4.055,3.744,3.574,3.574,0,0,0,.143,2.228,2.927,2.927,0,0,0,2.308,1.873,3.638,3.638,0,0,0,2.6-.587,5.423,5.423,0,0,0,2.273-2.906,4.315,4.315,0,0,0,.23-1.789,2.752,2.752,0,0,0-.888-1.889,2.82,2.82,0,0,0-2.028-.723m-18.514,4.686a7.568,7.568,0,0,0-.13-.894,4.969,4.969,0,0,0-3.247-3.523,3.789,3.789,0,0,0-1.915-.221,2.629,2.629,0,0,0-2.163,1.65,2.963,2.963,0,0,0-.234,1.2,5.239,5.239,0,0,0,1.8,3.887,4.259,4.259,0,0,0,2.359,1.141,2.915,2.915,0,0,0,2.316-.619,3.22,3.22,0,0,0,1.212-2.623m10.848-12.37c.214.2.375.342.523.495.512.53,1.016,1.068,1.529,1.6.444.458.632.452,1.038-.056.595-.745,1.175-1.5,1.759-2.256a2.071,2.071,0,0,0,.174-.273.331.331,0,0,0-.017-.368,1.9,1.9,0,0,0-.206-.249c-.565-.57-1.128-1.141-1.7-1.7-.4-.4-.593-.387-.962.03-.086.1-.165.2-.247.3q-.7.856-1.4,1.711c-.1.117-.2.23-.3.339a.311.311,0,0,1-.413.06,4.715,4.715,0,0,1-.426-.3q-1.087-.827-2.171-1.657c-.138-.105-.273-.216-.42-.307a.38.38,0,0,0-.447.016.836.836,0,0,0-.064.229q-.005,2.438,0,4.876a.84.84,0,0,0,.064.229.362.362,0,0,0,.443,0,3.916,3.916,0,0,0,.359-.28q1.162-.993,2.322-1.988c.162-.138.333-.267.563-.451m-14.782.676a1.547,1.547,0,0,1-.864-.084.441.441,0,0,1-.355-.475c0-.152,0-.3,0-.455,0-.91,0-1.82,0-2.73a2.463,2.463,0,0,0-.041-.516c-.065-.3-.331-.444-.712-.417-.2.014-.276.138-.3.5-.008.151,0,.3-.005.455q0,1.69,0,3.38c0,.173,0,.347.01.52.028.388.1.5.485.581.784.167,1.573.308,2.36.458a1.15,1.15,0,0,0,.194.017c.293.005.4-.084.422-.365.013-.194.006-.39.008-.585.007-.758.02-1.516.02-2.275,0-.584-.012-1.168-.028-1.751-.009-.325-.234-.439-.662-.466-.215-.014-.342.152-.365.45-.011.151-.006.3-.006.455,0,.888,0,1.777,0,2.665a.8.8,0,0,1-.156.64m3.486-.17c-.087.27-.306.34-.488.45-.2.123-.416.232-.619.357a.334.334,0,0,0-.175.326.594.594,0,0,0,.875.514q.856-.468,1.69-.973c.444-.269.46-.428.106-.807-.34-.364-.694-.716-1.039-1.076a5.784,5.784,0,0,1-.391-.434.293.293,0,0,1,.061-.453c.105-.075.222-.135.334-.2.206-.119.421-.225.615-.362a.386.386,0,0,0,.151-.267.6.6,0,0,0-.857-.547c-.6.31-1.183.637-1.765.971a1.786,1.786,0,0,0-.322.326,7.544,7.544,0,0,0,.935,1.11,4.584,4.584,0,0,1,.888,1.065m5.153-2.265c.058-.085.086-.119.105-.157a.39.39,0,0,0,.043-.121c.063-.469-.069-.64-.539-.676-.5-.037-.993-.06-1.489-.093-.345-.023-.689-.057-1.034-.079a.421.421,0,0,0-.4.166.538.538,0,0,0,.357.838c.127.023.259.027.385.054.316.068.4.164.417.483.008.129,0,.259,0,.389q0,1.33,0,2.661a4.974,4.974,0,0,0,.015.518.419.419,0,0,0,.418.414c.339.04.641,0,.628-.506,0-.108,0-.216,0-.324q0-1.33,0-2.661c0-.151-.005-.3.009-.454a.4.4,0,0,1,.414-.41c.233-.024.467-.03.664-.042m18.315-3.113a1.771,1.771,0,0,0-.428,0c-.8.2-1.593.411-2.388.622a1.144,1.144,0,0,0-.3.12.565.565,0,0,0-.185.693c.071.186.2.243.487.2.085-.012.168-.045.253-.058.307-.044.432.062.451.389.009.151,0,.3,0,.455,0,.866,0,1.733,0,2.6a3.289,3.289,0,0,0,.037.516.279.279,0,0,0,.275.234.618.618,0,0,0,.725-.634c.006-.13,0-.26,0-.39q0-1.267,0-2.534c0-.152,0-.3,0-.455.023-.48.079-.555.514-.708.142-.05.288-.091.428-.149a.408.408,0,0,0,.255-.349.586.586,0,0,0-.137-.56m-31.111,3.577c-.244-.049-.341-.232-.474-.368a3.932,3.932,0,0,0-.36-.371.368.368,0,0,0-.293-.075c-.358.135-.595.442-.3.8.028.033.054.068.082.1q.866,1.009,1.734,2.017a1.76,1.76,0,0,0,.284.265.277.277,0,0,0,.452-.167,2.215,2.215,0,0,0,.033-.386q.018-2.043.029-4.086a3.974,3.974,0,0,0-.024-.452.347.347,0,0,0-.231-.29,1.529,1.529,0,0,0-.374-.095.312.312,0,0,0-.375.271,3.441,3.441,0,0,0-.034.516c0,.605,0,1.211,0,1.816,0,.165.041.349-.145.508m27.442.069h0c0-.756.008-1.512,0-2.267-.006-.4-.207-.537-.594-.431-.331.091-.43.2-.464.534a2.5,2.5,0,0,0-.009.259q0,1.976,0,3.952a2.065,2.065,0,0,0,.044.449.326.326,0,0,0,.147.2.626.626,0,0,0,.858-.424,2.915,2.915,0,0,0,.017-.452c0-.6,0-1.209,0-1.814m-4.626,7.187a2.236,2.236,0,0,0,.4,1.3,1.3,1.3,0,0,0,.79.534.3.3,0,0,0,.338-.136.25.25,0,0,0-.1-.334c-.034-.026-.072-.048-.108-.073a1.348,1.348,0,0,1-.638-1.667c.1-.377.247-.739.361-1.112.107-.351.212-.7.292-1.063a1.867,1.867,0,0,0-.134-1.146,1.272,1.272,0,0,0-.3-.416.348.348,0,0,0-.291-.033c-.114.036-.132.162-.113.275a.648.648,0,0,0,.068.181,2.041,2.041,0,0,1,.049,1.642c-.11.329-.246.649-.346.98-.106.35-.182.71-.271,1.065m-9.029-1.893a1.271,1.271,0,0,0-.317-1,1.2,1.2,0,0,0-.428-.263.258.258,0,0,0-.218.092.27.27,0,0,0-.03.233,1.793,1.793,0,0,0,.221.315.951.951,0,0,1,.174.857,7.532,7.532,0,0,1-.324.842c-.134.317-.287.627-.419.945a1.526,1.526,0,0,0-.078.829,1.314,1.314,0,0,0,.534.927.819.819,0,0,0,.355.129.27.27,0,0,0,.213-.108.281.281,0,0,0,.009-.238.806.806,0,0,0-.212-.238.886.886,0,0,1-.3-.877,3.431,3.431,0,0,1,.231-.735c.107-.258.255-.5.373-.754a1.907,1.907,0,0,0,.217-.96m-11.2,3.167a1.589,1.589,0,0,0,.3-.122,1.28,1.28,0,0,0,.467-.606,2.18,2.18,0,0,0,.108-1.271c-.049-.3-.14-.588-.188-.885a1.711,1.711,0,0,1,.21-1.367.477.477,0,0,0,.105-.232.3.3,0,0,0-.089-.22.307.307,0,0,0-.233-.043.359.359,0,0,0-.212.135,3.389,3.389,0,0,0-.333.618,2.759,2.759,0,0,0,.029,1.469c.049.276.113.549.147.827a1.226,1.226,0,0,1-.36,1.122,1.114,1.114,0,0,0-.2.247c-.081.136.038.329.255.329m18.387-14.733a5.385,5.385,0,0,0-.049-.553.983.983,0,0,0-.324-.619.394.394,0,0,0-.29-.06.214.214,0,0,0-.138.261.889.889,0,0,0,.076.246,1.59,1.59,0,0,1,.051,1.142c-.1.332-.2.661-.312.99a3.45,3.45,0,0,0-.2,1.275,1.405,1.405,0,0,0,.271.785.681.681,0,0,0,.252.188.232.232,0,0,0,.3-.234.652.652,0,0,0-.053-.186,2,2,0,0,1-.034-1.578c.079-.247.177-.489.243-.74.087-.333.151-.672.205-.917m-17.711-2.7a2.809,2.809,0,0,0-.5.288,1.382,1.382,0,0,0-.448.978,3.6,3.6,0,0,0,.251,1.4,1.8,1.8,0,0,1-.066,1.627.263.263,0,0,0,.075.4.334.334,0,0,0,.4-.128,1.8,1.8,0,0,0,.252-.449,1.592,1.592,0,0,0,.071-.9c-.069-.295-.146-.588-.221-.882a6.875,6.875,0,0,1-.174-.692,1,1,0,0,1,.348-.993.889.889,0,0,0,.226-.227.3.3,0,0,0,0-.241c-.031-.066-.122-.1-.217-.179m25.2,14.8c-.07-.647-.152-1.4-.234-2.152,0-.021-.007-.05-.021-.06-.082-.058-.171-.161-.25-.154s-.172.11-.221.193a.474.474,0,0,0-.032.253c.02.345.05.69.073,1.035.027.409.078.82.069,1.228a1.557,1.557,0,0,1-.639,1.289.641.641,0,0,0-.2.167.541.541,0,0,0-.071.293c.01.109.177.168.323.13a.968.968,0,0,0,.239-.093,1.709,1.709,0,0,0,.65-.708,3.061,3.061,0,0,0,.308-1.422m-19.745.255a3.122,3.122,0,0,0-.283-1.345,1.248,1.248,0,0,0-.253-.365.255.255,0,0,0-.231-.032.26.26,0,0,0-.142.19,1.492,1.492,0,0,0,.1.434,3.292,3.292,0,0,1-.341,3.09,1.751,1.751,0,0,0-.2.4.224.224,0,0,0,.306.261,1.1,1.1,0,0,0,.337-.285,3.755,3.755,0,0,0,.712-2.346m19.3-15.761c-.1-.082-.176-.188-.257-.194a.652.652,0,0,0-.364.093,1.211,1.211,0,0,0-.574,1.031,3.967,3.967,0,0,0,.084.9,1.878,1.878,0,0,1-.172,1.553.088.088,0,0,0-.022.06.726.726,0,0,0,.087.285c.076.091.2.062.293,0a1.039,1.039,0,0,0,.467-.814,5.341,5.341,0,0,0-.034-.9c-.016-.192-.073-.381-.1-.573a1.088,1.088,0,0,1,.4-1.153c.078-.054.115-.167.19-.283M134.013,453.5c-.016-.215-.025-.431-.051-.644a1.779,1.779,0,0,0-.092-.375c-.065-.183-.192-.271-.33-.251s-.226.162-.209.35c.01.107.04.211.057.318a3.627,3.627,0,0,1-.346,2.262c-.058.115-.125.227-.182.342a.573.573,0,0,0-.063.182.228.228,0,0,0,.132.266.284.284,0,0,0,.236-.016,1.682,1.682,0,0,0,.327-.391,3.859,3.859,0,0,0,.522-2.044m-15.607-.753a5.414,5.414,0,0,0-.367-1.846,2.14,2.14,0,0,0-.216-.4.239.239,0,0,0-.341-.07.381.381,0,0,0-.108.274,4.18,4.18,0,0,0,.177.555,4,4,0,0,1,.172,2.173,3.078,3.078,0,0,0-.057.385.354.354,0,0,0,.018.19c.037.069.1.156.164.172a.28.28,0,0,0,.228-.073.592.592,0,0,0,.149-.28c.07-.359.122-.723.18-1.084m15.656-13.69a1.089,1.089,0,0,0-.313.156,2.781,2.781,0,0,0-.717,2.64c.015.062.035.144.08.173a.517.517,0,0,0,.284.1c.058,0,.15-.111.155-.179a4.284,4.284,0,0,0-.009-.582,2.414,2.414,0,0,1,.4-1.481c.071-.109.156-.209.219-.322a.4.4,0,0,0,.07-.242.935.935,0,0,0-.166-.262m-6.262.662c-.01-.072-.022-.178-.04-.284-.032-.189-.04-.4-.287-.446-.165-.029-.284.161-.273.494a5.349,5.349,0,0,1-.345,2.084.9.9,0,0,0-.051.377.223.223,0,0,0,.375.135,1.3,1.3,0,0,0,.241-.372,6.365,6.365,0,0,0,.381-1.988" transform="translate(-94.772 -364.008)" fill="#f3f5f0"/>
    <path id="패스_20263" data-name="패스 20263" d="M296.173,159.838a3.041,3.041,0,0,1-1.225-.216,4.581,4.581,0,0,1-3.034-3.818,3.8,3.8,0,0,1,3.442-4.32,1.01,1.01,0,0,1,.259-.017,9.6,9.6,0,0,0,2.13-.031,3.1,3.1,0,0,1,3.171,2.532,2.954,2.954,0,0,1,.023,1.352,2.179,2.179,0,0,1-.935,1.43,1.156,1.156,0,0,0-.562.816,2.572,2.572,0,0,1-1,1.479,3.567,3.567,0,0,1-2.272.792m1.911-7.3c-.121.223.056.37.12.542a5.316,5.316,0,0,1,.24.665.4.4,0,0,1-.226.432.448.448,0,0,1-.538-.082,2.668,2.668,0,0,1-.258-.371c-.116-.182-.212-.379-.342-.551a1.664,1.664,0,0,0-1.523-.7,3.046,3.046,0,0,0-1.559.591,2.528,2.528,0,0,0-1.136,2.15,3.643,3.643,0,0,0,2.458,3.479,2.472,2.472,0,0,0,2.555-.476,2.611,2.611,0,0,0,.474-.606.238.238,0,0,0-.158-.356c-.168-.036-.342-.044-.513-.065a2.844,2.844,0,0,1-2.538-2.18,1.449,1.449,0,0,1-.045-.447.455.455,0,0,1,.365-.4.443.443,0,0,1,.488.236,5.151,5.151,0,0,1,.2.546,1.752,1.752,0,0,0,.976,1.074,2.747,2.747,0,0,0,2.028.055,1.234,1.234,0,0,0,.811-.941,2.355,2.355,0,0,0-1.326-2.567.615.615,0,0,0-.555-.027" transform="translate(-244.546 -126.873)" fill="#05050e"/>
    <path id="패스_20264" data-name="패스 20264" d="M134.105,379.423a.87.87,0,0,1,.066.665c-.1.752-.206,1.5-.313,2.254q-.367,2.574-.737,5.148-.361,2.509-.724,5.019-.355,2.478-.7,4.956-.358,2.51-.72,5.019-.355,2.478-.707,4.956-.364,2.542-.729,5.084-.354,2.478-.705,4.956-.146,1.03-.288,2.06a2.813,2.813,0,0,1-.467,1.2,7.438,7.438,0,0,1-1.716,1.764,14.972,14.972,0,0,1-3.59,1.951,28.721,28.721,0,0,1-6.026,1.584,38.913,38.913,0,0,1-8.435.37,30.693,30.693,0,0,1-9.394-1.918,15.548,15.548,0,0,1-3.5-1.844,7.875,7.875,0,0,1-1.57-1.455,4.429,4.429,0,0,1-1-2.221c-.228-1.718-.489-3.432-.736-5.148q-.362-2.509-.723-5.019-.351-2.445-.7-4.891-.368-2.574-.738-5.148-.353-2.478-.7-4.956-.358-2.51-.72-5.019-.355-2.478-.707-4.956c-.156-1.094-.321-2.187-.469-3.282a2.26,2.26,0,0,1-.024-1.11c.1.021.2.013.258.058a18.463,18.463,0,0,0,6.762,2.916,50.364,50.364,0,0,0,6.649,1.217q3.1.381,6.222.5c1.083.043,2.168.1,3.252.084,2.472-.029,4.942-.094,7.407-.315a62.046,62.046,0,0,0,8.036-1.2,30.753,30.753,0,0,0,4.668-1.4,12.694,12.694,0,0,0,3.136-1.7,2.07,2.07,0,0,1,.394-.188M90.817,390.867c.014.154.017.219.026.284.1.774.2,1.547.3,2.321q.287,2.225.57,4.449t.579,4.449c.195,1.461.383,2.922.6,4.38.247,1.65.5,3.3.794,4.942a12.8,12.8,0,0,0,.861,2.857,7.587,7.587,0,0,0,4.8,4.359,11.967,11.967,0,0,0,2.155.482c1.719.231,3.442.434,5.159.682.771.111,1.534.284,2.293.462a2.274,2.274,0,0,1,1.458.9.523.523,0,0,0,.089.095.323.323,0,0,0,.465-.016.975.975,0,0,0,.126-.148,2.068,2.068,0,0,1,1.22-.813,13.137,13.137,0,0,1,1.581-.367c1.674-.239,3.354-.441,5.03-.664a18.514,18.514,0,0,0,2.877-.52,7.637,7.637,0,0,0,4.862-3.934,11.58,11.58,0,0,0,.859-2.311,44.089,44.089,0,0,0,.907-5.052q.311-2.156.6-4.315c.2-1.461.385-2.922.575-4.383q.3-2.289.594-4.578c.142-1.1.278-2.193.424-3.289a.872.872,0,0,0-.3-.816c-.21-.189-.413-.384-.619-.576-.6-.56-1.222-1.107-1.81-1.684a1.039,1.039,0,0,0-1.179-.279c-.306.108-.626.175-.942.253a69.072,69.072,0,0,1-9.923,1.727q-2.626.258-5.261.256a54.691,54.691,0,0,1-7.327-.527,68.454,68.454,0,0,1-7.974-1.557c-.294-.076-.588-.15-.882-.225a.644.644,0,0,0-.554.113,2.632,2.632,0,0,0-.248.21q-1.173,1.079-2.343,2.161a1.527,1.527,0,0,0-.268.283,2.954,2.954,0,0,0-.186.385" transform="translate(-73.106 -317.891)" fill="#0075a9"/>
    <path id="패스_20265" data-name="패스 20265" d="M129.883,336.171a.81.81,0,0,1,.051.6c-.064.472-.154.942-.21,1.415a1.648,1.648,0,0,1-.491.965,6.556,6.556,0,0,1-1.323,1.047,16.1,16.1,0,0,1-3.128,1.435,38.1,38.1,0,0,1-5.982,1.522,70.246,70.246,0,0,1-8.2.945c-1.95.118-3.9.153-5.854.143-2.431-.013-4.855-.142-7.274-.372A60.574,60.574,0,0,1,90.4,342.8a31.8,31.8,0,0,1-5.232-1.548,13.955,13.955,0,0,1-2.152-1.071,6.2,6.2,0,0,1-1.362-1.1,1.548,1.548,0,0,1-.422-.859c-.062-.494-.151-.985-.217-1.479a.725.725,0,0,1,.083-.6,1.837,1.837,0,0,1,.405.106,35.258,35.258,0,0,0,9.84,3.054,71.524,71.524,0,0,0,7.224.922,88.792,88.792,0,0,0,10.859.185,72.545,72.545,0,0,0,10.4-1.14,42.5,42.5,0,0,0,6.786-1.786,23.857,23.857,0,0,0,2.627-1.131.847.847,0,0,1,.643-.178" transform="translate(-67.851 -281.627)" fill="#0075a9"/>
    <path id="패스_20266" data-name="패스 20266" d="M87.977,274.443c-.177-.086-.292-.145-.409-.2a2.357,2.357,0,0,0-2.512.284,1.825,1.825,0,0,0-.493.591.951.951,0,0,1-.649.491,31.434,31.434,0,0,0-3.971,1.234.78.78,0,0,1-.629.021,8.647,8.647,0,0,1-2.776-1.778,2.052,2.052,0,0,1-.008-3.2,6.626,6.626,0,0,1,1.448-1.1,17.148,17.148,0,0,1,3.145-1.4,38.162,38.162,0,0,1,5.6-1.424c.917-.167,1.84-.3,2.76-.448a1.821,1.821,0,0,1,.386-.034.424.424,0,0,1,.347.525.333.333,0,0,1-.291.227c-.514.081-1.028.162-1.541.246a42.237,42.237,0,0,0-6.51,1.545,5.429,5.429,0,0,0-.548.2.518.518,0,0,0-.177.181c-.076.108.007.306.136.3a2.982,2.982,0,0,0,.632-.1c.814-.227,1.62-.486,2.437-.7a48.009,48.009,0,0,1,5.745-1.1,1.029,1.029,0,0,1,.9.244,3.229,3.229,0,0,0,1.628.761,3.555,3.555,0,0,0,3.419-1.126,2.358,2.358,0,0,0,.168-.2.757.757,0,0,1,.615-.309c.52-.023,1.039-.059,1.558-.08.39-.016.781-.018,1.171-.022.614-.006.67.057.677.654.006.519.024,1.039.051,1.558a9.145,9.145,0,0,0,.6,2.787c.226.594.059.721-.539.726-.954.009-1.909.01-2.862.049-1.993.082-3.984.2-5.965.447a1.408,1.408,0,0,1-.988-.205,1.87,1.87,0,0,0-1.979-.012c-.19.1-.367.223-.574.351m-10.519-1.768a1.066,1.066,0,0,0,.233-.083q.815-.467,1.622-.949a.784.784,0,0,0,.219-.227.213.213,0,0,0-.139-.3.756.756,0,0,0-.372.053c-.53.291-1.052.6-1.569.908a.929.929,0,0,0-.258.282c-.091.135.027.322.264.319" transform="translate(-63.479 -224.108)" fill="#f3f5f0"/>
    <path id="패스_20267" data-name="패스 20267" d="M158.786,643.777c.016.151.053.24.026.3a6.226,6.226,0,0,1-.421.8,5.837,5.837,0,0,1-1.043,1.156,14.139,14.139,0,0,1-3.652,2.228,26.64,26.64,0,0,1-6.3,1.815,33.273,33.273,0,0,1-7.589.373,28.729,28.729,0,0,1-9.055-1.949,16.034,16.034,0,0,1-3.377-1.807,7.625,7.625,0,0,1-1.868-1.8,2.3,2.3,0,0,1-.47-.968.18.18,0,0,1,.29-.051c.105.076.206.159.305.243a12.845,12.845,0,0,0,3.05,1.849,1.545,1.545,0,0,0,.493.142c.078.006.191-.092.238-.173a.243.243,0,0,0-.071-.225,3.415,3.415,0,0,0-.555-.33A14.142,14.142,0,0,1,126.7,644.2a7.767,7.767,0,0,1-1.581-1.443,1.965,1.965,0,0,1-.5-1.175,2.717,2.717,0,0,1-.048-1.128,1.032,1.032,0,0,1,.285.12c.261.228.5.481.763.708a13.576,13.576,0,0,0,3.433,2.091,26.27,26.27,0,0,0,5.843,1.753,38.377,38.377,0,0,0,8.809.61,33.78,33.78,0,0,0,9.451-1.654,19.293,19.293,0,0,0,3.215-1.4,12.039,12.039,0,0,0,2.472-1.787c.107-.1.235-.183.393-.3a.982.982,0,0,1,.12.308,3.139,3.139,0,0,1-.878,2.237,10.191,10.191,0,0,1-2.034,1.61,18.831,18.831,0,0,1-3.939,1.684,31.041,31.041,0,0,1-6.618,1.333,39.664,39.664,0,0,1-6.305.067c-1.318-.084-2.628-.291-3.943-.44-.215-.024-.431-.036-.647-.047a.236.236,0,0,0-.245.176.268.268,0,0,0,.179.31,4.891,4.891,0,0,0,.633.145c.6.09,1.2.179,1.8.247a42.485,42.485,0,0,0,6.821.254,31.809,31.809,0,0,0,10.091-2.051,14.358,14.358,0,0,0,3.065-1.561c.337-.236.651-.5.979-.754.132-.1.271-.191.469-.328m-26.054,3.591c.1-.017.146-.023.188-.031a.222.222,0,0,0,.124-.355.528.528,0,0,0-.2-.15q-.741-.224-1.489-.425a.419.419,0,0,0-.252.015.356.356,0,0,0-.169.168.189.189,0,0,0,.048.173,1.076,1.076,0,0,0,.322.2c.3.105.616.193.926.281.185.053.374.093.506.125" transform="translate(-104.324 -536.593)" fill="#0075a9"/>
    <path id="패스_20268" data-name="패스 20268" d="M160.53,646.415a.982.982,0,0,1-.283.683,6.781,6.781,0,0,1-1.323,1.338,14.187,14.187,0,0,1-2.957,1.759,25.478,25.478,0,0,1-5.958,1.815,32.325,32.325,0,0,1-7.386.5,29.187,29.187,0,0,1-9.58-1.956,16.2,16.2,0,0,1-3.163-1.658,8.137,8.137,0,0,1-1.622-1.4,7.528,7.528,0,0,1-.6-.847c-.048-.075-.026-.194-.037-.3a1.138,1.138,0,0,1,.654.346,14.465,14.465,0,0,0,2.649,1.517,2.238,2.238,0,0,0,.429.145.321.321,0,0,0,.372-.193.3.3,0,0,0-.118-.345,4.134,4.134,0,0,0-.45-.257c-.554-.3-1.121-.572-1.662-.89a8.449,8.449,0,0,1-1.915-1.55,2.806,2.806,0,0,1-.623-2.157,2.773,2.773,0,0,1,.329.092.563.563,0,0,1,.151.122,13.961,13.961,0,0,0,4.481,2.715,28.048,28.048,0,0,0,5.632,1.556,38.635,38.635,0,0,0,8.689.5,31.787,31.787,0,0,0,9.425-1.782c.61-.223,1.212-.474,1.8-.745a12.952,12.952,0,0,0,3.171-2.022c.139-.122.258-.311.536-.216a2.232,2.232,0,0,1-.346,1.642,6.537,6.537,0,0,1-1.375,1.376,11.249,11.249,0,0,1-2.352,1.379,28.186,28.186,0,0,1-6.658,1.964,35.044,35.044,0,0,1-6.154.494,44.81,44.81,0,0,1-6.608-.559,2.622,2.622,0,0,0-.579-.038.276.276,0,0,0-.255.256.284.284,0,0,0,.179.314,1.97,1.97,0,0,0,.5.143c1.227.15,2.454.3,3.683.429a34.16,34.16,0,0,0,4.877.108,31.309,31.309,0,0,0,10.769-2.248,13.373,13.373,0,0,0,3.109-1.75,4.2,4.2,0,0,1,.378-.252c.033-.02.084-.012.187-.025M134.865,649.6a2.362,2.362,0,0,0,.24-.013.314.314,0,0,0,.277-.235.3.3,0,0,0-.156-.326.864.864,0,0,0-.23-.114c-.454-.137-.909-.271-1.367-.4a.6.6,0,0,0-.318-.011.375.375,0,0,0-.228.193.477.477,0,0,0,.069.3.266.266,0,0,0,.15.117c.554.177,1.109.348,1.564.49" transform="translate(-106.368 -538.694)" fill="#f3f5f0"/>
    <path id="패스_20269" data-name="패스 20269" d="M258.082,264.673a.927.927,0,0,1,.107-.339.573.573,0,0,1,.329-.178,2.25,2.25,0,0,1,.518.01c1.9.154,3.8.331,5.69.618a42.525,42.525,0,0,1,8.585,2.062,16.21,16.21,0,0,1,2.3,1.058,7.121,7.121,0,0,1,1.473,1.064,1.81,1.81,0,0,1,.784,1.452,1.63,1.63,0,0,1-.324-.21,7.712,7.712,0,0,0-2.958-2.07c-.4-.174-.8-.346-1.2-.51a.876.876,0,0,0-.372-.088.367.367,0,0,0-.24.173.243.243,0,0,0,.06.228,2.174,2.174,0,0,0,.442.262c.454.207.915.4,1.369.6a7.988,7.988,0,0,1,1.616.966,4.177,4.177,0,0,1,1.193,1.441.738.738,0,0,1-.135.946A8.268,8.268,0,0,1,274.591,274a1.026,1.026,0,0,1-.875.018c-.566-.22-1.139-.421-1.716-.608a.918.918,0,0,1-.642-.573,1.312,1.312,0,0,0-1.495-.874.967.967,0,0,1-.255.036.518.518,0,0,1-.279-.135,3.18,3.18,0,0,1-.233-.389,2.025,2.025,0,0,0-2.8-.6c-.181.116-.351.249-.555.4-.148-.095-.293-.18-.43-.276a1.949,1.949,0,0,0-1.028-.365,1.584,1.584,0,0,0-1.45.57.759.759,0,0,1-.741.294c-1.555-.13-3.112-.25-4.668-.374-.043,0-.087,0-.13-.006-.567-.049-.636-.117-.649-.662a11.726,11.726,0,0,1,.652-4.282c.275-.766.294-.789,1.128-.742a43.521,43.521,0,0,1,4.336.43c1.735.272,3.464.578,5.2.872.321.054.638.129.959.18a.741.741,0,0,0,.315-.028.22.22,0,0,0,.067-.37,1.241,1.241,0,0,0-.408-.179c-.849-.174-1.7-.358-2.554-.5-1.562-.253-3.127-.495-4.7-.7-.923-.123-1.856-.175-2.785-.257a1.248,1.248,0,0,1-.771-.2" transform="translate(-215.018 -221.307)" fill="#f3f5f0"/>
    <path id="패스_20270" data-name="패스 20270" d="M84.525,360.053a3.164,3.164,0,0,1,.39.2,14.9,14.9,0,0,0,3.884,1.939,38.7,38.7,0,0,0,5.976,1.537,63.423,63.423,0,0,0,6.964.881c1.47.106,2.944.151,4.417.205.975.036,1.952.072,2.926.049,2.145-.05,4.29-.108,6.429-.3,1.88-.169,3.753-.38,5.613-.7a38.448,38.448,0,0,0,7.417-1.912,13.76,13.76,0,0,0,3.219-1.679,1.985,1.985,0,0,1,.278-.166c.09-.045.249.041.244.139a2.861,2.861,0,0,1-.625,2,8.479,8.479,0,0,1-1.066.946,10.851,10.851,0,0,1-2.292,1.218,29.745,29.745,0,0,1-5.1,1.539,58.666,58.666,0,0,1-7,1.069,82.9,82.9,0,0,1-9.419.357c-2.234-.04-4.462-.166-6.684-.395a51.136,51.136,0,0,1-9.132-1.679,20.562,20.562,0,0,1-3.812-1.479,9.041,9.041,0,0,1-1.722-1.16,3,3,0,0,1-1.007-2.371c0-.056.045-.113.1-.241" transform="translate(-70.733 -301.663)" fill="#f3f5f0"/>
    <path id="패스_20271" data-name="패스 20271" d="M230.715,217.426a.333.333,0,0,1-.426-.078,9.278,9.278,0,0,1-.839-.9,7.307,7.307,0,0,1-1.29-2.887,10.363,10.363,0,0,1,1.061-7.6c.312-.545.653-1.074.962-1.621a9.611,9.611,0,0,0,.577-1.161,2.564,2.564,0,0,0,.124-.76.892.892,0,0,0-.252-.652,2.066,2.066,0,0,0-1.572-.651.464.464,0,0,0-.454.394.469.469,0,0,0,.272.475c.176.079.37.118.554.181.267.093.409.24.373.386-.05.2-.227.247-.394.288a1.821,1.821,0,0,1-1.835-.562,2.472,2.472,0,0,1,.926-3.971,4.429,4.429,0,0,1,.819-.2,3.211,3.211,0,0,1,3.644,2.343c.064.207.1.422.177.625a.455.455,0,0,0,.519.3.428.428,0,0,0,.358-.406,1.929,1.929,0,0,0-.06-.641c-.111-.349-.27-.683-.41-1.022-.064-.155-.134-.308-.223-.512a1.3,1.3,0,0,1,.391-.095,3,3,0,0,1,2.507,2.479,4.285,4.285,0,0,1-.356,2.595,7.012,7.012,0,0,1-1.419,2.007,13.589,13.589,0,0,0-2.295,3.138,12.708,12.708,0,0,0-1.41,5.883c0,.563.028,1.126.039,1.689,0,.26,0,.52-.009.779a.545.545,0,0,1-.06.166m1.255-12.3a.859.859,0,0,0,.215-.075.7.7,0,0,0,.177-.186,8.035,8.035,0,0,0,.822-1.827.43.43,0,0,0,.007-.253.309.309,0,0,0-.161-.181.281.281,0,0,0-.231.055.777.777,0,0,0-.178.264q-.375.825-.737,1.656a.615.615,0,0,0-.073.306c.012.087.1.162.16.24m-.475,1.394a.883.883,0,0,0-.163-.189.2.2,0,0,0-.181-.005.853.853,0,0,0-.437.745.221.221,0,0,0,.283.186.991.991,0,0,0,.5-.737" transform="translate(-190.133 -165.947)" fill="#f3f5f0"/>
    <path id="패스_20272" data-name="패스 20272" d="M119.809,298.8a2.059,2.059,0,0,1,.813,1.771,2.444,2.444,0,0,1-.418,1.215,4.821,4.821,0,0,1-1.005,1.1,12.358,12.358,0,0,1-2.839,1.7,30.168,30.168,0,0,1-5.044,1.7,56.169,56.169,0,0,1-6.385,1.206,73.651,73.651,0,0,1-8.618.665c-1.3.02-2.6.077-3.9.042-1.949-.051-3.9-.122-5.843-.3-1.879-.171-3.753-.382-5.614-.691a43.414,43.414,0,0,1-8.18-2.072,18.5,18.5,0,0,1-2.883-1.347,8.129,8.129,0,0,1-1.849-1.424,3.31,3.31,0,0,1-.758-1.2,2.174,2.174,0,0,1,.681-2.379c.032.086.06.155.083.226a.145.145,0,0,1-.01.064,2.867,2.867,0,0,0,1.018,2.793,8.323,8.323,0,0,0,1.864,1.3,22.1,22.1,0,0,0,4.359,1.684,49.019,49.019,0,0,0,6.359,1.331c2.168.32,4.344.554,6.532.669,1.06.055,2.122.1,3.183.132,1.214.032,2.428.068,3.641.048,2.124-.034,4.246-.116,6.364-.3,1.642-.143,3.28-.316,4.909-.564a42.213,42.213,0,0,0,8.576-2.086,15.953,15.953,0,0,0,2.525-1.193,7.119,7.119,0,0,0,1.538-1.19,2.756,2.756,0,0,0,.851-2.6.754.754,0,0,1,0-.19c0-.019.02-.037.058-.105" transform="translate(-56.272 -250.332)" fill="#f3f5f0"/>
    <path id="패스_20273" data-name="패스 20273" d="M165.223,231.638a1.521,1.521,0,0,1-.074.332,1.971,1.971,0,0,1-.586.685,2.772,2.772,0,0,1-2.948.191,1.469,1.469,0,0,1-.811-1.5,3.242,3.242,0,0,1,.871-1.982,1.93,1.93,0,0,1,1.508-.637c.238.007.477.026.714.018a.428.428,0,0,0,.46-.369.467.467,0,0,0-.307-.516,2.452,2.452,0,0,0-1.087-.138,3.082,3.082,0,0,0-2.263,1.246,6.937,6.937,0,0,0-.441.718c-.065.112-.108.236-.172.349-.17.3-.361.32-.617.066a1.876,1.876,0,0,1-.455-.778,2.978,2.978,0,0,1,.514-2.879,4.246,4.246,0,0,1,4.623-1.379,3,3,0,0,1,2.16,2.587,3.7,3.7,0,0,1-.019,1.29,1.959,1.959,0,0,1-1.431,1.606,6.781,6.781,0,0,1-.764.145,3.838,3.838,0,0,0-.446.074.458.458,0,0,0-.359.478.466.466,0,0,0,.428.421,3.569,3.569,0,0,0,.646-.005c.172-.011.343-.055.515-.066a1.9,1.9,0,0,1,.341.045" transform="translate(-133.089 -188.389)" fill="#f3f5f0"/>
    <path id="패스_20274" data-name="패스 20274" d="M316.476,309.556a1.4,1.4,0,0,1-1.1-.5,1.006,1.006,0,0,1,.187-1.487,1.471,1.471,0,0,1,1.9.188,1,1,0,0,1-.1,1.5,1.317,1.317,0,0,1-.883.3" transform="translate(-264.02 -257.469)" fill="#f3f5f0"/>
    <path id="패스_20275" data-name="패스 20275" d="M134.816,311.279a3.159,3.159,0,0,1,.564.185.463.463,0,0,1,.167.714,1.113,1.113,0,0,1-.12.152,1.841,1.841,0,0,1-1.8.408c-.489-.187-.586-.587-.221-.953a1.947,1.947,0,0,1,1.408-.506" transform="translate(-111.588 -260.798)" fill="#f3f5f0"/>
    <path id="패스_20276" data-name="패스 20276" d="M207.344,263.849h-1.358a.319.319,0,0,1-.323-.168.377.377,0,0,1,.151-.452,1.038,1.038,0,0,1,.425-.127c.841-.027,1.682-.039,2.522-.053a1.037,1.037,0,0,1,.192.023.283.283,0,0,1,.25.255.371.371,0,0,1-.189.378,1.264,1.264,0,0,1-.315.059c-.452.028-.9.049-1.355.072v.013" transform="translate(-172.289 -220.39)" fill="#f3f5f0"/>
    <path id="패스_20277" data-name="패스 20277" d="M298.94,308.715a1.279,1.279,0,0,1-.916-.242.364.364,0,0,1,.032-.605,1.3,1.3,0,0,1,1.407.065.375.375,0,0,1-.086.673,2.088,2.088,0,0,1-.437.109" transform="translate(-249.571 -257.792)" fill="#f3f5f0"/>
    <path id="패스_20278" data-name="패스 20278" d="M155.774,310.347a2.081,2.081,0,0,1,.431.108.357.357,0,0,1,.1.592,1.277,1.277,0,0,1-1.441.182.37.37,0,0,1-.056-.6,1.28,1.28,0,0,1,.968-.278" transform="translate(-129.591 -260.017)" fill="#f3f5f0"/>
    <path id="패스_20279" data-name="패스 20279" d="M336.894,316.039a1.584,1.584,0,0,1,.215.052.511.511,0,0,1,.359.6.549.549,0,0,1-.547.36.87.87,0,0,1-.248-.057.523.523,0,0,1-.4-.575c.04-.238.285-.4.623-.378" transform="translate(-281.731 -264.785)" fill="#f3f5f0"/>
    <path id="패스_20280" data-name="패스 20280" d="M14.382,33.369a1.147,1.147,0,0,1,.748-.013,4.048,4.048,0,0,0,3.122-.811,2.249,2.249,0,0,0,.428-.476.249.249,0,0,0-.032-.231.3.3,0,0,0-.224-.082.5.5,0,0,0-.232.1c-.143.1-.274.214-.416.313a3.565,3.565,0,0,1-5.406-1.734c-.051-.143-.081-.292-.132-.435a.877.877,0,0,0-.141-.289.277.277,0,0,0-.225-.078.269.269,0,0,0-.176.162.936.936,0,0,0-.006.381,3.35,3.35,0,0,0,.549,1.31,3.981,3.981,0,0,0,.666.793,1.115,1.115,0,0,1,.412,1.084,5.679,5.679,0,0,0,.135,2.067c.145.542.348,1.07.536,1.6.059.165.151.316.035.5a1.044,1.044,0,0,1-.623.106A6.863,6.863,0,0,1,6.651,31.9a6.752,6.752,0,0,1,2.178-6.3c.142-.134.3-.25.437-.389a.507.507,0,0,0,.118-.7.494.494,0,0,0-.7-.054,5.523,5.523,0,0,0-.794.669c-.491.516-.648.489-.989-.136a6.58,6.58,0,0,1,1.976-8.514,2.228,2.228,0,0,1,.22-.138c.248-.135.4-.088.517.176.089.2.15.407.241.6a2.278,2.278,0,0,0,.261.446.435.435,0,0,0,.525.141.461.461,0,0,0,.279-.528,3.844,3.844,0,0,0-.176-.488,7.643,7.643,0,0,1-.466-1.82,6.624,6.624,0,0,1,4.557-7.059,11.458,11.458,0,0,1,1.333-.277.365.365,0,0,1,.45.239c.038.164,0,.349.045.509a.419.419,0,0,0,.727.152,1.948,1.948,0,0,0,.265-.513,2.7,2.7,0,0,1,1.094-1.334,2.659,2.659,0,0,1,2.992.162,2.62,2.62,0,0,1-1.553,4.684c-.13,0-.26,0-.391-.006a.68.68,0,0,1-.721-.532,1.617,1.617,0,0,0-.147-.359.488.488,0,0,0-.595-.271.476.476,0,0,0-.3.577c.029.149.079.293.119.439a4.14,4.14,0,0,1-1.995,4.779,4.219,4.219,0,0,0-.45.259.482.482,0,0,0-.156.632.456.456,0,0,0,.568.194,6.462,6.462,0,0,0,.923-.471c.586-.356.674-.351,1.14.173a4.106,4.106,0,0,1,1.006,2.01c.08.435,0,.568-.41.647a6.594,6.594,0,0,0-2.073.739.732.732,0,0,1-.795-.016,2,2,0,0,0-1.187-.275,1.745,1.745,0,0,0-.546.172.232.232,0,0,0,.072.4c.214.025.431.013.647.021a1.582,1.582,0,0,1,1.509,1.288,3.008,3.008,0,0,1,.018.518c0,.086-.018.173-.019.259,0,.211.081.337.219.34a.327.327,0,0,0,.317-.276,1.687,1.687,0,0,0,.071-.769c-.114-.553-.084-.694.556-.992a5.432,5.432,0,0,1,5.991.969,5.912,5.912,0,0,1,.426.5c-.071.184-.126.345-.194.5-.114.257-.243.508-.354.767a1.439,1.439,0,0,0-.106.372.478.478,0,0,0,.275.536.459.459,0,0,0,.564-.2,3.773,3.773,0,0,0,.208-.4c.127-.251.24-.511.382-.753a6.649,6.649,0,0,1,10.966-.761c.121.153.229.316.355.465a.831.831,0,0,0,.245.207.436.436,0,0,0,.49-.04.42.42,0,0,0,.159-.464,1.246,1.246,0,0,0-.2-.4c-.25-.326-.515-.642-.782-.956-.112-.132-.25-.241-.365-.371-.208-.236-.213-.358-.041-.641a2.8,2.8,0,0,1,.187-.266,8.681,8.681,0,0,1,7.452-3.537,8.4,8.4,0,0,1,3.5.9c.155.077.31.156.457.248.341.212.382.34.227.7-.147.337-.316.666-.449,1.009a1.092,1.092,0,0,1-.558.6,4.833,4.833,0,0,0-.72.439,3.1,3.1,0,0,0-1.042,1.386.67.67,0,0,0-.051.313.281.281,0,0,0,.152.187.255.255,0,0,0,.233-.036,3.322,3.322,0,0,0,.309-.489,2.753,2.753,0,0,1,1.593-1.363,2.815,2.815,0,0,1,2.95.67c.143.131.274.277.428.393a.269.269,0,0,0,.236-.007.209.209,0,0,0,.1-.277,1.93,1.93,0,0,0-.279-.432,3.225,3.225,0,0,0-1.468-.926c-.166-.05-.337-.083-.5-.134-.262-.082-.334-.238-.235-.5a2.3,2.3,0,0,1,.138-.294,7.91,7.91,0,0,1,6.163-4.273,7.786,7.786,0,0,1,4.253.649c.079.035.157.074.235.11.641.294.62.49.275.977a4.036,4.036,0,0,0-.363.615.475.475,0,0,0,.16.631.5.5,0,0,0,.641-.142,5.648,5.648,0,0,0,.335-.479A13.208,13.208,0,0,1,76.62,12.287c.274.131.538.282.81.417a2.227,2.227,0,0,0,.419.172.452.452,0,0,0,.5-.213.421.421,0,0,0-.076-.535,2.014,2.014,0,0,0-.415-.308c-.322-.179-.654-.34-.982-.507-.116-.059-.239-.1-.352-.168-.241-.137-.267-.311-.076-.532a2.967,2.967,0,0,1,.279-.272,6.579,6.579,0,0,1,4.391-1.706,6.5,6.5,0,0,1,3.641,1.038,4.861,4.861,0,0,0,.559.33.458.458,0,0,0,.581-.148.472.472,0,0,0-.074-.595,2.863,2.863,0,0,0-.453-.367c-.216-.144-.449-.263-.669-.4-.3-.191-.316-.362-.054-.618a2.089,2.089,0,0,1,.83-.5,2.555,2.555,0,0,1,2.9.893,2.468,2.468,0,0,1-.059,3.021,2.546,2.546,0,0,1-2.946.721,1.2,1.2,0,0,1-.432-.377.481.481,0,0,0-.855.018c-.119.154-.21.329-.319.491a7.182,7.182,0,0,1-5.314,3.251,7.293,7.293,0,0,1-3.684-.575c-.141-.057-.275-.132-.418-.18a.5.5,0,0,0-.672.212c-.108.208-.038.427.207.617.085.066.187.11.276.172.258.18.291.321.141.606a3.037,3.037,0,0,1-.172.276,10,10,0,0,1-6.9,4.451,9.878,9.878,0,0,1-5.363-.6,4,4,0,0,0-.613-.209.45.45,0,0,0-.536.263.488.488,0,0,0,.194.57,2,2,0,0,0,.4.215c.342.137.689.261,1.035.388.482.178.535.3.3.77a8.19,8.19,0,0,1-1.061,1.633,8.87,8.87,0,0,1-12.27,1.41c-.155-.118-.3-.251-.456-.367a1.739,1.739,0,0,0-.332-.2.431.431,0,0,0-.526.128.412.412,0,0,0-.039.488,2.071,2.071,0,0,0,.382.436,8.643,8.643,0,0,0,1.829,1.235c.74.375.76.442.291,1.167A11.115,11.115,0,0,1,35.03,31.764a5.362,5.362,0,0,0-.56-.328.454.454,0,0,0-.54.7,1.732,1.732,0,0,0,.392.337c.462.283.922.574,1.406.814.536.266.535.452.232.9a7.983,7.983,0,0,1-8.209,3.422c-.064-.012-.129-.019-.192-.035-.457-.117-.539-.26-.361-.693a7.729,7.729,0,0,0,.495-1.612,1.578,1.578,0,0,0,.011-.511.447.447,0,0,0-.416-.352.436.436,0,0,0-.42.258,3.382,3.382,0,0,0-.165.558,6.193,6.193,0,0,1-2.639,3.886,6.265,6.265,0,0,1-9.673-4.048,3.044,3.044,0,0,1-.009-1.692" transform="translate(-5.11 -5.201)" fill="#f3f5f0"/>
    <path id="패스_20281" data-name="패스 20281" d="M303.15,157.906a.615.615,0,0,1,.555.027,2.355,2.355,0,0,1,1.326,2.567,1.233,1.233,0,0,1-.811.941,2.747,2.747,0,0,1-2.028-.055,1.752,1.752,0,0,1-.976-1.074,5.159,5.159,0,0,0-.2-.546.443.443,0,0,0-.488-.236.455.455,0,0,0-.365.4,1.448,1.448,0,0,0,.045.447,2.845,2.845,0,0,0,2.538,2.18c.171.021.345.029.513.065a.238.238,0,0,1,.158.356,2.612,2.612,0,0,1-.474.606,2.472,2.472,0,0,1-2.555.476,3.643,3.643,0,0,1-2.458-3.479,2.528,2.528,0,0,1,1.136-2.15,3.046,3.046,0,0,1,1.559-.591,1.664,1.664,0,0,1,1.523.7c.13.172.226.368.342.551a2.662,2.662,0,0,0,.258.371.447.447,0,0,0,.538.082.4.4,0,0,0,.226-.432,5.31,5.31,0,0,0-.24-.665c-.064-.172-.241-.319-.12-.542" transform="translate(-249.613 -132.242)" fill="#f3f5f0"/>
    <path id="패스_20282" data-name="패스 20282" d="M109.212,433.6a2.916,2.916,0,0,1,.186-.385,1.527,1.527,0,0,1,.268-.283q1.17-1.083,2.343-2.161a2.628,2.628,0,0,1,.248-.21.643.643,0,0,1,.554-.113c.294.075.589.148.882.225a68.509,68.509,0,0,0,7.974,1.557,54.7,54.7,0,0,0,7.327.527q2.636,0,5.262-.256a69.059,69.059,0,0,0,9.923-1.726c.316-.078.636-.145.941-.253a1.039,1.039,0,0,1,1.179.279c.588.577,1.205,1.124,1.81,1.684.207.192.41.387.619.576a.871.871,0,0,1,.3.816c-.146,1.1-.282,2.193-.424,3.289q-.3,2.289-.595,4.578c-.191,1.461-.378,2.923-.575,4.384q-.291,2.158-.6,4.315a44.155,44.155,0,0,1-.907,5.051,11.6,11.6,0,0,1-.859,2.312,7.637,7.637,0,0,1-4.862,3.934,18.514,18.514,0,0,1-2.877.52c-1.677.222-3.356.425-5.03.664a13.128,13.128,0,0,0-1.582.367,2.068,2.068,0,0,0-1.22.813.983.983,0,0,1-.126.149.323.323,0,0,1-.465.016.523.523,0,0,1-.089-.095,2.275,2.275,0,0,0-1.458-.9c-.759-.178-1.522-.35-2.293-.462-1.717-.248-3.44-.452-5.159-.682a11.969,11.969,0,0,1-2.155-.482,7.587,7.587,0,0,1-4.8-4.359,12.793,12.793,0,0,1-.861-2.857c-.292-1.642-.547-3.292-.794-4.942-.218-1.457-.406-2.919-.6-4.38q-.3-2.223-.579-4.449t-.57-4.45c-.1-.774-.2-1.547-.3-2.321-.008-.064-.012-.129-.026-.283m39.2.414a.855.855,0,0,0-.353-.793c-.612-.551-1.215-1.113-1.822-1.67s-.6-.537-1.384-.354c-1.5.349-3,.7-4.5,1.009-1.806.369-3.632.619-5.465.819-1.467.16-2.938.264-4.411.3A52.469,52.469,0,0,1,123.2,433q-2.554-.288-5.081-.753c-1.664-.306-3.314-.671-4.947-1.112a.9.9,0,0,0-.95.217q-1.017.96-2.055,1.9a.907.907,0,0,0-.31.87c.067.472.118.946.179,1.419q.3,2.354.605,4.707c.186,1.44.37,2.88.563,4.319.24,1.782.478,3.565.738,5.345.2,1.393.416,2.786.665,4.171a13.416,13.416,0,0,0,.857,2.926,7.042,7.042,0,0,0,4.524,4.1,13.594,13.594,0,0,0,2.352.49c1.719.233,3.443.429,5.158.686a7.425,7.425,0,0,1,3.381,1.057.418.418,0,0,0,.539-.04,3.632,3.632,0,0,1,1.216-.606,9.677,9.677,0,0,1,1.266-.293c1.609-.23,3.223-.434,4.833-.656.88-.121,1.767-.216,2.635-.4a7.213,7.213,0,0,0,5.677-4.978,15.162,15.162,0,0,0,.612-2.323q.313-1.792.577-3.593c.253-1.737.49-3.476.724-5.215.2-1.46.381-2.922.571-4.384q.361-2.772.721-5.544c.056-.43.105-.86.158-1.29" transform="translate(-91.501 -360.62)" fill="#05050e"/>
    <path id="패스_20283" data-name="패스 20283" d="M84.671,291.4c-.237,0-.355-.185-.264-.319a.93.93,0,0,1,.258-.282c.517-.313,1.039-.617,1.569-.908a.757.757,0,0,1,.372-.053.213.213,0,0,1,.139.3.784.784,0,0,1-.219.227q-.805.484-1.622.949a1.063,1.063,0,0,1-.233.083" transform="translate(-70.693 -242.834)" fill="#05050e"/>
    <path id="패스_20284" data-name="패스 20284" d="M165.825,678.045c-.132-.032-.321-.073-.506-.125-.31-.088-.622-.175-.926-.281a1.075,1.075,0,0,1-.322-.2.189.189,0,0,1-.048-.173.356.356,0,0,1,.169-.168.419.419,0,0,1,.252-.015q.748.2,1.489.425a.529.529,0,0,1,.2.15.222.222,0,0,1-.124.355c-.042.008-.084.014-.188.031" transform="translate(-137.417 -567.269)" fill="#05050e"/>
    <path id="패스_20285" data-name="패스 20285" d="M257.141,228.54c-.055-.078-.148-.153-.16-.24a.616.616,0,0,1,.073-.306q.362-.831.736-1.656a.778.778,0,0,1,.178-.264.281.281,0,0,1,.231-.055.309.309,0,0,1,.161.181.431.431,0,0,1-.007.253,8.033,8.033,0,0,1-.822,1.827.7.7,0,0,1-.177.186.856.856,0,0,1-.215.075" transform="translate(-215.304 -189.358)" fill="#05050e"/>
    <path id="패스_20286" data-name="패스 20286" d="M251.017,249.1a.991.991,0,0,1-.5.737.221.221,0,0,1-.283-.186.853.853,0,0,1,.437-.745.2.2,0,0,1,.181.005.884.884,0,0,1,.163.189" transform="translate(-209.654 -208.525)" fill="#05050e"/>
    <path id="패스_20287" data-name="패스 20287" d="M214.953,573.777a4.032,4.032,0,0,1-3.356,3.959,3.771,3.771,0,0,1-1.79-.178,4.018,4.018,0,0,1-2.558-4.684,3.616,3.616,0,0,1,2.9-2.739,4.117,4.117,0,0,1,2.484.206,3.63,3.63,0,0,1,2.315,3.435m-5.8-.114v-.023c-.281-.013-.563-.029-.844-.036a2.18,2.18,0,0,0-.452.02.266.266,0,0,0-.175.154.191.191,0,0,0,.159.24,3.265,3.265,0,0,0,.575.092c.563.026,1.126.032,1.689.057a1.425,1.425,0,0,1,.437.087.269.269,0,0,1,.138.2.266.266,0,0,1-.114.21,1.812,1.812,0,0,1-.423.148,4.256,4.256,0,0,0-1.314.543,1.342,1.342,0,0,0-.344.29.345.345,0,0,0-.033.294c.047.109.178.112.282.055.171-.093.333-.2.5-.3a2.6,2.6,0,0,1,1.159-.387.311.311,0,0,1,.352.3c.018.3.005.606.018.909a3.17,3.17,0,0,0,.067.576.247.247,0,0,0,.194.132.253.253,0,0,0,.192-.134,1.148,1.148,0,0,0,.062-.378c.009-.3,0-.607.006-.91.015-.458.16-.57.618-.483a1.61,1.61,0,0,1,.373.11c.294.136.579.289.87.43a1.848,1.848,0,0,0,.354.142.2.2,0,0,0,.161-.081.194.194,0,0,0,.016-.177,1.46,1.46,0,0,0-.3-.326,3.925,3.925,0,0,0-1.359-.6c-.126-.032-.257-.045-.38-.082-.186-.055-.3-.189-.266-.316a.342.342,0,0,1,.341-.249c.128-.015.259-.009.389-.013.541-.017,1.083-.023,1.624-.058a2.744,2.744,0,0,0,.621-.147c.039-.012.075-.11.07-.165a.192.192,0,0,0-.1-.143,1.891,1.891,0,0,0-.446-.051c-.585.013-1.169.04-1.754.055a3.3,3.3,0,0,1-.517-.02c-.135-.018-.259-.1-.246-.25a.361.361,0,0,1,.16-.252,2.531,2.531,0,0,1,.491-.159,3.773,3.773,0,0,0,1.435-.734,1.639,1.639,0,0,0,.283-.347c.056-.083-.043-.24-.147-.236a.533.533,0,0,0-.244.053c-.148.089-.28.2-.424.3a2.912,2.912,0,0,1-1,.458c-.452.1-.6-.015-.619-.469-.01-.3,0-.607-.007-.91a1.1,1.1,0,0,0-.068-.376.254.254,0,0,0-.194-.132.248.248,0,0,0-.19.138,2.408,2.408,0,0,0-.063.512c-.011.3,0,.607-.013.909-.014.266-.166.38-.438.344a1.274,1.274,0,0,1-.375-.1c-.273-.129-.54-.271-.8-.42-.131-.074-.244-.18-.371-.261a.255.255,0,0,0-.351.027c-.087.138-.013.253.077.346a2.614,2.614,0,0,0,.345.294,3.994,3.994,0,0,0,1.223.589c.145.043.292.08.434.13a.281.281,0,0,1,.208.293.264.264,0,0,1-.252.251,2.787,2.787,0,0,1-.388.024c-.3,0-.606,0-.91,0" transform="translate(-173.541 -477.587)" fill="#ca6d4f"/>
    <path id="패스_20288" data-name="패스 20288" d="M278.527,561.444a2.82,2.82,0,0,1,2.028.723,2.751,2.751,0,0,1,.888,1.889,4.315,4.315,0,0,1-.229,1.789,5.425,5.425,0,0,1-2.273,2.906,3.64,3.64,0,0,1-2.6.587,2.928,2.928,0,0,1-2.308-1.873,3.576,3.576,0,0,1-.143-2.228,5.075,5.075,0,0,1,4.055-3.744c.191-.031.388-.033.582-.049m-.508,2.374a.846.846,0,0,1-.163-.605c-.007-.26,0-.52-.008-.78a.813.813,0,0,0-.062-.246.184.184,0,0,0-.277-.026.7.7,0,0,0-.112.291c-.016.346-.022.693-.011,1.04.019.6-.244.788-.8.7a5.313,5.313,0,0,1-.751-.2c-.123-.038-.234-.111-.354-.162-.2-.086-.344-.06-.393.065s0,.255.184.37a1.692,1.692,0,0,0,.4.207c.311.091.628.162.944.229.126.027.259.017.388.033a.283.283,0,0,1,.283.222.308.308,0,0,1-.235.343,2.332,2.332,0,0,1-.373.107c-.637.131-1.275.252-1.91.391a1.384,1.384,0,0,0-.4.184.192.192,0,0,0-.039.172c.015.053.077.127.122.13a2.145,2.145,0,0,0,.514-.013c.511-.093,1.018-.208,1.529-.305a3.142,3.142,0,0,1,.578-.058.244.244,0,0,1,.183.139.256.256,0,0,1-.066.227,2.248,2.248,0,0,1-.445.26,5.144,5.144,0,0,0-1.354.888,2.448,2.448,0,0,0-.374.444.236.236,0,0,0,.035.225.249.249,0,0,0,.229.048,2.376,2.376,0,0,0,.41-.309,4.326,4.326,0,0,1,1.125-.762c.352-.156.53-.053.558.339.018.259,0,.52.01.78a2.5,2.5,0,0,0,.053.448.181.181,0,0,0,.135.112.291.291,0,0,0,.207-.105.711.711,0,0,0,.067-.311c.009-.281,0-.564.008-.845a3.729,3.729,0,0,1,.059-.514.343.343,0,0,1,.3-.3,1.749,1.749,0,0,1,.512-.041c.319.05.631.142.946.218a1.819,1.819,0,0,0,.31.074.207.207,0,0,0,.15-.1.2.2,0,0,0,.014-.179.972.972,0,0,0-.284-.25,2.708,2.708,0,0,0-1.2-.258,2.454,2.454,0,0,1-.571-.077.211.211,0,0,1-.053-.367,1.093,1.093,0,0,1,.282-.152c.163-.057.334-.092.5-.14.561-.164,1.124-.322,1.682-.5a1.273,1.273,0,0,0,.377-.231.2.2,0,0,0,.021-.177.194.194,0,0,0-.132-.115,1.376,1.376,0,0,0-.38.048c-.584.162-1.166.336-1.75.5a2.344,2.344,0,0,1-.444.08.209.209,0,0,1-.239-.173.285.285,0,0,1,.076-.23,3.562,3.562,0,0,1,.5-.295,4.881,4.881,0,0,0,1.577-1.232,1.007,1.007,0,0,0,.164-.342.187.187,0,0,0-.249-.192,1.9,1.9,0,0,0-.346.282,4.993,4.993,0,0,1-1.112.892.582.582,0,0,1-.554.1" transform="translate(-229.38 -470.393)" fill="#ca6d4f"/>
    <path id="패스_20289" data-name="패스 20289" d="M149.169,566.174a3.22,3.22,0,0,1-1.212,2.623,2.915,2.915,0,0,1-2.316.619,4.259,4.259,0,0,1-2.359-1.141,5.238,5.238,0,0,1-1.8-3.886,2.967,2.967,0,0,1,.234-1.2,2.629,2.629,0,0,1,2.163-1.65,3.79,3.79,0,0,1,1.915.221,4.968,4.968,0,0,1,3.247,3.523,7.608,7.608,0,0,1,.13.894m-4.28-2.336a.428.428,0,0,1-.487-.051c-.315-.227-.628-.459-.931-.7-.168-.135-.308-.305-.473-.445a.2.2,0,0,0-.293.006.221.221,0,0,0-.021.3,2.691,2.691,0,0,0,.282.354,5,5,0,0,0,1.514,1.1c.2.1.478.162.445.479-.019.182-.233.211-.688.088-.543-.148-1.084-.307-1.626-.459a1.61,1.61,0,0,0-.377-.082.287.287,0,0,0-.209.112.19.19,0,0,0,.09.274,2.224,2.224,0,0,0,.471.21c.519.155,1.042.294,1.563.443.187.053.376.106.556.177a.289.289,0,0,1,.22.288c-.013.156-.143.216-.271.235-.171.025-.346.017-.519.027a2.768,2.768,0,0,0-1.125.287c-.215.11-.31.279-.222.4.113.155.264.119.408.053a2.663,2.663,0,0,1,1.268-.225c.4.021.512.121.531.5.016.324,0,.65.01.975a2.044,2.044,0,0,0,.064.445.2.2,0,0,0,.241.167.269.269,0,0,0,.159-.176,3.245,3.245,0,0,0,.042-.517c.007-.216-.005-.434.009-.65.027-.423.2-.519.6-.336a1.619,1.619,0,0,1,.286.153c.314.23.623.467.933.7a1.792,1.792,0,0,0,.311.225.249.249,0,0,0,.227-.044.244.244,0,0,0,.042-.228,1.829,1.829,0,0,0-.321-.4,5.19,5.19,0,0,0-1.4-.929,1.911,1.911,0,0,1-.456-.242c-.078-.066-.089-.211-.128-.313a.868.868,0,0,1,.731-.038c.511.1,1.019.209,1.53.3a3.149,3.149,0,0,0,.516.047c.115,0,.223-.056.217-.185a.279.279,0,0,0-.121-.206,1.835,1.835,0,0,0-.43-.132c-.636-.133-1.275-.252-1.91-.392a1.54,1.54,0,0,1-.467-.2.251.251,0,0,1,.081-.413,2.769,2.769,0,0,1,.449-.05,3.243,3.243,0,0,0,1.363-.393,1.053,1.053,0,0,0,.275-.264.2.2,0,0,0-.007-.178c-.028-.048-.108-.105-.151-.1a2.217,2.217,0,0,0-.425.14,2.822,2.822,0,0,1-1.062.278c-.524.014-.668-.112-.689-.623-.014-.346-.008-.693-.018-1.039a.768.768,0,0,0-.056-.315.307.307,0,0,0-.205-.12.188.188,0,0,0-.149.1.865.865,0,0,0-.081.307c-.012.238,0,.477-.007.715a.829.829,0,0,1-.111.56" transform="translate(-118.536 -470.437)" fill="#ca6d4f"/>
    <path id="패스_20290" data-name="패스 20290" d="M236.393,498.015c-.23.183-.4.312-.563.451q-1.162.992-2.322,1.988a3.943,3.943,0,0,1-.358.28.363.363,0,0,1-.443,0,.836.836,0,0,1-.064-.23q-.007-2.438,0-4.876a.841.841,0,0,1,.063-.229.381.381,0,0,1,.447-.016c.147.091.282.2.42.307q1.086.828,2.171,1.657a4.761,4.761,0,0,0,.426.3.311.311,0,0,0,.413-.06c.1-.109.206-.222.3-.339q.7-.854,1.4-1.712c.082-.1.161-.2.248-.3.369-.417.558-.427.962-.03.572.563,1.135,1.134,1.7,1.7a1.922,1.922,0,0,1,.206.25.331.331,0,0,1,.017.368,2.078,2.078,0,0,1-.175.273c-.584.754-1.165,1.511-1.759,2.256-.406.509-.594.514-1.038.057-.513-.529-1.017-1.067-1.529-1.6-.148-.153-.309-.293-.523-.495m2.606,1a6.446,6.446,0,0,0,1.056-1.335.345.345,0,0,0-.071-.419c-.233-.253-.464-.509-.713-.746a.305.305,0,0,0-.505.017c-.278.328-.538.671-.8,1.013a.36.36,0,0,0,0,.478,3.99,3.99,0,0,0,1.037.992m-5.261-.289a1.305,1.305,0,0,0,.962-.715c-.1-.34-.389-.469-.634-.63-.074-.048-.192-.029-.306-.042a4.232,4.232,0,0,0-.022,1.387" transform="translate(-194.912 -414.649)" fill="#ca6d4f"/>
    <path id="패스_20291" data-name="패스 20291" d="M152.853,494.044a.8.8,0,0,0,.156-.64c0-.888,0-1.777,0-2.665,0-.152-.006-.3.006-.455.022-.3.15-.464.365-.45.428.027.653.141.662.466.016.584.028,1.168.028,1.752,0,.758-.012,1.516-.02,2.274,0,.2.005.391-.008.585-.019.281-.129.371-.422.365a1.157,1.157,0,0,1-.194-.017c-.787-.15-1.577-.291-2.36-.458-.384-.082-.457-.194-.485-.581-.012-.173-.009-.347-.009-.52q0-1.69,0-3.38c0-.152,0-.3,0-.455.02-.361.1-.484.3-.5.381-.027.647.119.712.417a2.475,2.475,0,0,1,.041.516c0,.91,0,1.82,0,2.73,0,.152,0,.3,0,.455a.441.441,0,0,0,.355.475,1.547,1.547,0,0,0,.864.084" transform="translate(-126.154 -410.003)" fill="#ca6d4f"/>
    <path id="패스_20292" data-name="패스 20292" d="M176.713,498.915a4.578,4.578,0,0,0-.888-1.065,7.542,7.542,0,0,1-.935-1.11,1.792,1.792,0,0,1,.322-.326c.582-.334,1.169-.661,1.765-.971a.6.6,0,0,1,.857.547.386.386,0,0,1-.151.267c-.194.137-.409.242-.615.362-.112.065-.229.125-.334.2a.293.293,0,0,0-.061.453,5.827,5.827,0,0,0,.391.434c.345.36.7.711,1.039,1.076.354.379.338.538-.106.807q-.833.506-1.69.973a.594.594,0,0,1-.875-.514.335.335,0,0,1,.175-.326c.2-.125.415-.234.619-.357.182-.109.4-.18.488-.45" transform="translate(-146.528 -415.044)" fill="#ca6d4f"/>
    <path id="패스_20293" data-name="패스 20293" d="M200.284,497.39c-.2.012-.432.019-.664.042a.4.4,0,0,0-.414.411c-.015.15-.009.3-.009.454q0,1.33,0,2.661c0,.108,0,.216,0,.324.012.5-.29.546-.629.506a.419.419,0,0,1-.418-.414,5.021,5.021,0,0,1-.015-.518q0-1.33,0-2.661c0-.13,0-.26,0-.389-.02-.319-.1-.415-.417-.483-.126-.027-.258-.03-.385-.054a.538.538,0,0,1-.357-.838.42.42,0,0,1,.4-.166c.345.022.69.056,1.035.079.5.033.993.055,1.489.093.469.035.6.207.539.676a.4.4,0,0,1-.043.121c-.019.038-.047.072-.105.157" transform="translate(-164.946 -415.783)" fill="#ca6d4f"/>
    <path id="패스_20294" data-name="패스 20294" d="M313.559,483.956a.586.586,0,0,1,.137.56.408.408,0,0,1-.255.349c-.139.058-.285.1-.428.149-.435.154-.491.229-.514.708-.007.151,0,.3,0,.455q0,1.267,0,2.534c0,.13,0,.26,0,.39a.619.619,0,0,1-.725.634.278.278,0,0,1-.275-.234,3.294,3.294,0,0,1-.038-.517c0-.866,0-1.733,0-2.6,0-.152.005-.3,0-.455-.019-.326-.143-.432-.45-.389-.085.012-.168.046-.253.058-.286.039-.416-.018-.487-.2a.565.565,0,0,1,.185-.693,1.145,1.145,0,0,1,.3-.12c.8-.211,1.59-.424,2.388-.622a1.769,1.769,0,0,1,.428,0" transform="translate(-259.906 -405.462)" fill="#ca6d4f"/>
    <path id="패스_20295" data-name="패스 20295" d="M130.947,489.984c.186-.16.143-.344.145-.508.007-.605,0-1.211,0-1.816a3.42,3.42,0,0,1,.034-.516.312.312,0,0,1,.375-.271,1.526,1.526,0,0,1,.374.095.347.347,0,0,1,.231.29,4.042,4.042,0,0,1,.024.452q-.011,2.043-.029,4.086a2.2,2.2,0,0,1-.033.386.277.277,0,0,1-.452.166,1.75,1.75,0,0,1-.284-.265q-.871-1.006-1.734-2.017c-.028-.033-.054-.067-.082-.1-.3-.354-.058-.661.3-.8a.368.368,0,0,1,.293.075,3.969,3.969,0,0,1,.36.37c.133.136.23.319.474.368" transform="translate(-108.404 -407.913)" fill="#ca6d4f"/>
    <path id="패스_20296" data-name="패스 20296" d="M302.7,492.381c0,.6,0,1.209,0,1.814a2.917,2.917,0,0,1-.017.452.626.626,0,0,1-.858.424.326.326,0,0,1-.147-.2,2.068,2.068,0,0,1-.044-.448q0-1.976,0-3.952a2.5,2.5,0,0,1,.009-.259c.034-.331.133-.443.464-.534.387-.106.588.029.594.431.011.756,0,1.511,0,2.267Z" transform="translate(-252.713 -410.241)" fill="#ca6d4f"/>
    <path id="패스_20297" data-name="패스 20297" d="M279.7,529.327c.089-.355.166-.715.271-1.065.1-.331.237-.651.346-.98a2.042,2.042,0,0,0-.049-1.642.653.653,0,0,1-.069-.181c-.019-.112,0-.239.113-.275a.347.347,0,0,1,.291.033,1.273,1.273,0,0,1,.3.416,1.868,1.868,0,0,1,.134,1.146c-.08.358-.185.712-.292,1.063-.114.372-.265.735-.361,1.111a1.348,1.348,0,0,0,.638,1.667c.036.025.073.046.108.073a.25.25,0,0,1,.1.333.3.3,0,0,1-.338.136,1.3,1.3,0,0,1-.79-.534,2.237,2.237,0,0,1-.4-1.3" transform="translate(-234.337 -440)" fill="#ca6d4f"/>
    <path id="패스_20298" data-name="패스 20298" d="M216.558,532.6a1.908,1.908,0,0,1-.217.96c-.117.255-.266.5-.373.754a3.429,3.429,0,0,0-.231.735.886.886,0,0,0,.3.877.806.806,0,0,1,.212.238.281.281,0,0,1-.009.238.27.27,0,0,1-.213.108.821.821,0,0,1-.355-.129,1.314,1.314,0,0,1-.534-.927,1.524,1.524,0,0,1,.078-.829c.132-.318.285-.627.419-.944a7.512,7.512,0,0,0,.324-.842.951.951,0,0,0-.174-.857,1.8,1.8,0,0,1-.221-.315.27.27,0,0,1,.031-.233.257.257,0,0,1,.218-.092,1.2,1.2,0,0,1,.428.263,1.271,1.271,0,0,1,.317,1" transform="translate(-180.229 -445.171)" fill="#ca6d4f"/>
    <path id="패스_20299" data-name="패스 20299" d="M153.485,534.111c-.217,0-.335-.193-.255-.329a1.122,1.122,0,0,1,.2-.247,1.226,1.226,0,0,0,.36-1.122c-.034-.277-.1-.551-.147-.827a2.758,2.758,0,0,1-.029-1.469,3.39,3.39,0,0,1,.333-.618.36.36,0,0,1,.212-.135.307.307,0,0,1,.233.043.3.3,0,0,1,.089.22.477.477,0,0,1-.1.232,1.711,1.711,0,0,0-.21,1.367c.048.3.139.588.188.885a2.179,2.179,0,0,1-.108,1.271,1.28,1.28,0,0,1-.467.606,1.592,1.592,0,0,1-.3.122" transform="translate(-128.359 -443.511)" fill="#ca6d4f"/>
    <path id="패스_20300" data-name="패스 20300" d="M262.154,461.425c-.054.244-.118.583-.2.917-.066.251-.163.493-.243.74a2,2,0,0,0,.034,1.578.659.659,0,0,1,.053.187.232.232,0,0,1-.3.234.681.681,0,0,1-.253-.188,1.407,1.407,0,0,1-.271-.785,3.446,3.446,0,0,1,.2-1.275c.107-.329.215-.658.312-.99a1.59,1.59,0,0,0-.051-1.142.9.9,0,0,1-.076-.246.214.214,0,0,1,.138-.261.394.394,0,0,1,.29.06.982.982,0,0,1,.323.619,5.357,5.357,0,0,1,.049.553" transform="translate(-218.642 -385.557)" fill="#ca6d4f"/>
    <path id="패스_20301" data-name="패스 20301" d="M154.17,451.148c.1.074.186.113.217.179a.3.3,0,0,1,0,.241.89.89,0,0,1-.226.227,1,1,0,0,0-.348.993,6.845,6.845,0,0,0,.174.692c.075.294.152.587.221.882a1.593,1.593,0,0,1-.071.9,1.809,1.809,0,0,1-.252.449.334.334,0,0,1-.4.128.263.263,0,0,1-.075-.4,1.8,1.8,0,0,0,.066-1.627,3.592,3.592,0,0,1-.252-1.4,1.382,1.382,0,0,1,.448-.978,2.809,2.809,0,0,1,.5-.288" transform="translate(-128.369 -377.985)" fill="#ca6d4f"/>
    <path id="패스_20302" data-name="패스 20302" d="M306.64,530.174a3.06,3.06,0,0,1-.308,1.422,1.711,1.711,0,0,1-.65.708.975.975,0,0,1-.239.093c-.146.039-.313-.02-.323-.13a.542.542,0,0,1,.071-.293.641.641,0,0,1,.2-.167,1.556,1.556,0,0,0,.639-1.289c.009-.409-.042-.819-.069-1.228-.023-.345-.053-.69-.073-1.035a.474.474,0,0,1,.032-.253c.049-.083.14-.187.221-.193s.168.1.25.154c.014.01.019.039.021.06.082.752.164,1.5.234,2.152" transform="translate(-255.636 -442.213)" fill="#ca6d4f"/>
    <path id="패스_20303" data-name="패스 20303" d="M185.716,534.9a3.756,3.756,0,0,1-.712,2.346,1.1,1.1,0,0,1-.337.286.224.224,0,0,1-.306-.261,1.745,1.745,0,0,1,.2-.4,3.292,3.292,0,0,0,.341-3.09,1.492,1.492,0,0,1-.1-.434.26.26,0,0,1,.142-.19.255.255,0,0,1,.231.032,1.25,1.25,0,0,1,.253.365,3.122,3.122,0,0,1,.283,1.345" transform="translate(-154.458 -446.679)" fill="#ca6d4f"/>
    <path id="패스_20304" data-name="패스 20304" d="M305.039,445.775c-.075.116-.113.228-.191.283a1.088,1.088,0,0,0-.4,1.153c.024.192.08.381.1.573a5.357,5.357,0,0,1,.034.9,1.039,1.039,0,0,1-.467.814c-.1.064-.217.093-.293,0a.726.726,0,0,1-.087-.285.089.089,0,0,1,.022-.06,1.879,1.879,0,0,0,.172-1.553,3.957,3.957,0,0,1-.084-.9,1.211,1.211,0,0,1,.574-1.031.652.652,0,0,1,.364-.093c.081.006.155.112.257.194" transform="translate(-254.476 -373.32)" fill="#ca6d4f"/>
    <path id="패스_20305" data-name="패스 20305" d="M235.67,545.269a3.863,3.863,0,0,1-.522,2.044,1.683,1.683,0,0,1-.327.391.283.283,0,0,1-.236.016.228.228,0,0,1-.132-.267.576.576,0,0,1,.063-.182c.057-.116.124-.227.182-.342a3.629,3.629,0,0,0,.346-2.262c-.017-.106-.047-.211-.057-.318-.017-.188.072-.33.209-.35s.265.067.33.251a1.784,1.784,0,0,1,.092.375c.026.214.035.429.051.644" transform="translate(-196.429 -455.776)" fill="#ca6d4f"/>
    <path id="패스_20306" data-name="패스 20306" d="M140.39,535.009c-.059.362-.11.725-.18,1.084a.592.592,0,0,1-.149.28.281.281,0,0,1-.228.073c-.066-.016-.127-.1-.164-.172a.356.356,0,0,1-.018-.19,3.132,3.132,0,0,1,.057-.385,4,4,0,0,0-.172-2.173,4.174,4.174,0,0,1-.177-.555.381.381,0,0,1,.108-.274.239.239,0,0,1,.341.07,2.159,2.159,0,0,1,.216.4,5.414,5.414,0,0,1,.367,1.846" transform="translate(-116.756 -446.27)" fill="#ca6d4f"/>
    <path id="패스_20307" data-name="패스 20307" d="M236.511,462.784a.932.932,0,0,1,.166.262.4.4,0,0,1-.07.242c-.063.113-.148.214-.219.322a2.414,2.414,0,0,0-.4,1.482,4.31,4.31,0,0,1,.009.582c-.006.067-.1.175-.156.179a.517.517,0,0,1-.284-.1c-.045-.029-.066-.111-.08-.173a2.782,2.782,0,0,1,.717-2.64,1.089,1.089,0,0,1,.313-.156" transform="translate(-197.221 -387.734)" fill="#ca6d4f"/>
    <path id="패스_20308" data-name="패스 20308" d="M198.5,463.078a6.365,6.365,0,0,1-.381,1.988,1.3,1.3,0,0,1-.241.372.223.223,0,0,1-.375-.135.9.9,0,0,1,.051-.377,5.35,5.35,0,0,0,.345-2.084c-.01-.332.109-.523.273-.494.247.044.255.257.287.446.018.106.03.212.04.284" transform="translate(-165.468 -387.366)" fill="#ca6d4f"/>
    <path id="패스_20309" data-name="패스 20309" d="M211.96,576.5c.3,0,.607,0,.91,0a2.787,2.787,0,0,0,.388-.024.264.264,0,0,0,.252-.251.281.281,0,0,0-.208-.293c-.143-.05-.29-.087-.434-.13a3.993,3.993,0,0,1-1.223-.589,2.608,2.608,0,0,1-.345-.294c-.09-.093-.163-.208-.077-.346a.255.255,0,0,1,.351-.027c.127.081.24.187.371.261.263.149.53.291.8.42a1.276,1.276,0,0,0,.375.1c.273.036.424-.077.438-.344.016-.3,0-.606.013-.909a2.408,2.408,0,0,1,.063-.513.248.248,0,0,1,.19-.138.254.254,0,0,1,.194.132,1.1,1.1,0,0,1,.068.376c.009.3,0,.607.006.91.015.455.167.569.62.469a2.911,2.911,0,0,0,1-.458c.144-.1.276-.211.424-.3a.532.532,0,0,1,.244-.053c.1,0,.2.153.147.236a1.637,1.637,0,0,1-.283.347,3.772,3.772,0,0,1-1.435.734,2.532,2.532,0,0,0-.491.159.361.361,0,0,0-.16.252c-.013.148.11.233.246.25a3.31,3.31,0,0,0,.517.02c.585-.016,1.169-.042,1.754-.055a1.885,1.885,0,0,1,.446.051.191.191,0,0,1,.1.143c.005.055-.031.153-.07.165a2.741,2.741,0,0,1-.621.147c-.54.035-1.082.041-1.624.058-.13,0-.261,0-.389.013-.155.019-.3.073-.341.249-.03.127.08.26.266.316.124.037.255.05.38.082a3.925,3.925,0,0,1,1.359.6,1.461,1.461,0,0,1,.3.326.194.194,0,0,1-.016.177.2.2,0,0,1-.161.081,1.852,1.852,0,0,1-.354-.142c-.291-.142-.577-.294-.87-.43a1.6,1.6,0,0,0-.373-.11c-.457-.087-.6.025-.618.483-.01.3,0,.607-.006.91a1.149,1.149,0,0,1-.062.378.253.253,0,0,1-.192.134.247.247,0,0,1-.194-.132,3.174,3.174,0,0,1-.067-.576c-.012-.3,0-.607-.018-.909a.311.311,0,0,0-.352-.3,2.6,2.6,0,0,0-1.159.387c-.171.093-.333.2-.5.3-.1.057-.235.055-.282-.055a.345.345,0,0,1,.033-.294,1.342,1.342,0,0,1,.344-.29,4.257,4.257,0,0,1,1.314-.543,1.818,1.818,0,0,0,.423-.148.228.228,0,0,0-.025-.407,1.429,1.429,0,0,0-.437-.087c-.563-.025-1.126-.031-1.689-.057a3.271,3.271,0,0,1-.575-.092.191.191,0,0,1-.159-.24.266.266,0,0,1,.175-.154,2.184,2.184,0,0,1,.452-.02c.282.007.563.023.844.036v.023" transform="translate(-176.347 -480.426)" fill="#f3f5f0"/>
    <path id="패스_20310" data-name="패스 20310" d="M280.837,567.254a.582.582,0,0,0,.554-.1,5,5,0,0,0,1.112-.892,1.893,1.893,0,0,1,.346-.282.187.187,0,0,1,.249.192,1.009,1.009,0,0,1-.164.342,4.881,4.881,0,0,1-1.577,1.232,3.562,3.562,0,0,0-.5.295.285.285,0,0,0-.076.23.209.209,0,0,0,.239.173,2.345,2.345,0,0,0,.444-.08c.584-.163,1.165-.337,1.75-.5a1.374,1.374,0,0,1,.38-.048.194.194,0,0,1,.132.115.2.2,0,0,1-.021.177,1.273,1.273,0,0,1-.377.231c-.557.177-1.12.335-1.682.5-.166.048-.337.083-.5.14a1.094,1.094,0,0,0-.282.152.211.211,0,0,0,.053.367,2.454,2.454,0,0,0,.571.077,2.708,2.708,0,0,1,1.2.258.973.973,0,0,1,.284.25.2.2,0,0,1-.014.179.207.207,0,0,1-.15.1,1.83,1.83,0,0,1-.31-.074c-.315-.076-.627-.168-.946-.218a1.748,1.748,0,0,0-.512.041.343.343,0,0,0-.3.3,3.725,3.725,0,0,0-.059.514c-.01.281,0,.564-.008.845a.711.711,0,0,1-.067.311.291.291,0,0,1-.207.105.181.181,0,0,1-.135-.112,2.505,2.505,0,0,1-.053-.448c-.009-.26.008-.521-.01-.78-.027-.391-.206-.5-.558-.339a4.323,4.323,0,0,0-1.125.762,2.373,2.373,0,0,1-.41.309.249.249,0,0,1-.229-.048.236.236,0,0,1-.035-.225,2.442,2.442,0,0,1,.374-.443,5.141,5.141,0,0,1,1.354-.888,2.25,2.25,0,0,0,.445-.26.255.255,0,0,0,.066-.227.244.244,0,0,0-.183-.139,3.137,3.137,0,0,0-.578.058c-.511.1-1.018.213-1.529.305a2.142,2.142,0,0,1-.514.013c-.045,0-.108-.077-.122-.13a.192.192,0,0,1,.039-.172,1.38,1.38,0,0,1,.4-.184c.635-.138,1.273-.259,1.91-.391a2.341,2.341,0,0,0,.373-.107.308.308,0,0,0,.234-.343.283.283,0,0,0-.283-.222c-.129-.017-.262-.007-.388-.033-.317-.067-.634-.138-.944-.229a1.7,1.7,0,0,1-.4-.207c-.183-.114-.237-.237-.184-.37s.191-.15.393-.065c.12.051.231.124.354.162a5.315,5.315,0,0,0,.751.2c.555.087.819-.1.8-.7-.011-.346-.005-.694.011-1.04a.7.7,0,0,1,.112-.291.185.185,0,0,1,.277.026.814.814,0,0,1,.062.246c.009.26,0,.52.008.78a.846.846,0,0,0,.163.605" transform="translate(-232.198 -473.829)" fill="#f3f5f0"/>
    <path id="패스_20311" data-name="패스 20311" d="M147.549,567.265a.829.829,0,0,0,.111-.56c0-.238-.005-.477.007-.715a.865.865,0,0,1,.081-.307.188.188,0,0,1,.149-.1.308.308,0,0,1,.205.12.768.768,0,0,1,.056.315c.01.346,0,.693.018,1.04.02.511.165.637.689.623a2.823,2.823,0,0,0,1.062-.278,2.218,2.218,0,0,1,.425-.14c.044-.009.123.048.151.1a.2.2,0,0,1,.007.178,1.05,1.05,0,0,1-.275.264,3.242,3.242,0,0,1-1.363.393,2.783,2.783,0,0,0-.449.051.251.251,0,0,0-.081.413,1.54,1.54,0,0,0,.467.2c.635.14,1.274.259,1.91.392a1.841,1.841,0,0,1,.43.132.279.279,0,0,1,.121.206c.006.129-.1.187-.217.185a3.129,3.129,0,0,1-.516-.047c-.511-.1-1.019-.209-1.53-.3a.868.868,0,0,0-.731.038c.038.1.049.247.128.313a1.91,1.91,0,0,0,.456.242,5.194,5.194,0,0,1,1.4.929,1.826,1.826,0,0,1,.321.4.244.244,0,0,1-.042.228.249.249,0,0,1-.227.044A1.793,1.793,0,0,1,150,571.4c-.311-.234-.619-.472-.933-.7a1.623,1.623,0,0,0-.286-.153c-.4-.183-.578-.088-.6.336-.014.216,0,.433-.009.65a3.245,3.245,0,0,1-.042.517.269.269,0,0,1-.159.177.2.2,0,0,1-.241-.167,2.045,2.045,0,0,1-.064-.445c-.01-.325.006-.65-.01-.975-.019-.38-.135-.479-.531-.5a2.663,2.663,0,0,0-1.268.225c-.144.066-.294.1-.408-.053-.087-.119.007-.288.222-.4a2.767,2.767,0,0,1,1.125-.287c.173-.01.348,0,.519-.027.129-.019.258-.079.271-.235a.289.289,0,0,0-.22-.288c-.181-.071-.369-.124-.556-.177-.521-.148-1.044-.288-1.563-.443a2.224,2.224,0,0,1-.471-.21.19.19,0,0,1-.09-.274.287.287,0,0,1,.209-.112,1.611,1.611,0,0,1,.377.082c.542.152,1.083.311,1.626.459.455.124.669.095.688-.088.033-.317-.24-.381-.445-.479a5,5,0,0,1-1.514-1.1,2.684,2.684,0,0,1-.282-.354.221.221,0,0,1,.021-.3.2.2,0,0,1,.293-.006c.165.14.3.31.473.445.3.243.615.475.931.7a.427.427,0,0,0,.487.051" transform="translate(-121.195 -473.865)" fill="#f3f5f0"/>
    <path id="패스_20312" data-name="패스 20312" d="M266.041,506.639a3.989,3.989,0,0,1-1.037-.992.36.36,0,0,1,0-.478c.261-.342.521-.685.8-1.013a.306.306,0,0,1,.505-.017c.249.237.48.493.713.746a.345.345,0,0,1,.071.419,6.445,6.445,0,0,1-1.056,1.335" transform="translate(-221.953 -422.276)" fill="#f3f5f0"/>
    <path id="패스_20313" data-name="패스 20313" d="M239.179,511.26a4.23,4.23,0,0,1,.022-1.387c.114.013.232-.006.306.042.245.161.531.29.634.63a1.305,1.305,0,0,1-.962.715" transform="translate(-200.353 -427.186)" fill="#f3f5f0"/>
    <path id="패스_20314" data-name="패스 20314" d="M124.446,655.775s4.973,3.181,8.019,3.763,7.3,1.658,11.558,1.344a34.323,34.323,0,0,0,11.424-2.643,23.577,23.577,0,0,0,3.808-2.15,4.98,4.98,0,0,1-1.837,3.36c-1.658,1.165-9.094,4.973-16.173,4.39a35.566,35.566,0,0,1-13.26-3.539c-1.03-.627-3.494-4.256-3.539-4.525" transform="translate(-104.264 -549.427)" fill="#0075a9"/>
    <path id="패스_20315" data-name="패스 20315" d="M76.329,202.947c.118-.192.03-.346-.035-.507a5.42,5.42,0,0,1-.29-.792,3.9,3.9,0,0,1,.817-3.54,5.187,5.187,0,0,1,5.826-1.6,3.941,3.941,0,0,1,2.7,3.635,4.1,4.1,0,0,1-.094,1.486,1.687,1.687,0,0,0-.027.36.5.5,0,0,0,.481.2c.737-.022,1.473-.067,2.209-.065a.71.71,0,0,0,.74-.5,16.468,16.468,0,0,1,1.214-2.3.6.6,0,0,0,.144-.576,2.774,2.774,0,0,0-.4-.118,2.974,2.974,0,0,1-2.476-2.036,3.479,3.479,0,0,1,1.263-4.094,4.544,4.544,0,0,1,2.22-.661,3.679,3.679,0,0,1,2.018.4,1.976,1.976,0,0,0,1.186.217,3.814,3.814,0,0,1,2.711.693,4.1,4.1,0,0,1,1.709,3.151,5.414,5.414,0,0,1-.7,3.063,8.584,8.584,0,0,1-1.358,1.819c-.224.236-.441.478-.65.727a1.53,1.53,0,0,0-.152.31,1.092,1.092,0,0,0,.3.15c.386.053.775.087,1.164.125a56.465,56.465,0,0,1,12.173,2.344,22.233,22.233,0,0,1,3.772,1.586,9.064,9.064,0,0,1,2.5,1.847,5.686,5.686,0,0,1,.765,1.044,3.111,3.111,0,0,1-.038,3.165,5.009,5.009,0,0,1-1.163,1.39,1.387,1.387,0,0,0-.513.937c-.141,1.1-.312,2.188-.47,3.282q-.366,2.542-.728,5.083-.354,2.478-.706,4.956t-.7,4.956q-.367,2.574-.738,5.148-.361,2.51-.723,5.019-.355,2.478-.7,4.956-.358,2.51-.72,5.019-.355,2.478-.707,4.956c-.242,1.695-.49,3.388-.728,5.083q-.3,2.124-.581,4.251a4.377,4.377,0,0,1-.571,1.647,6.993,6.993,0,0,1-1.414,1.688,14.942,14.942,0,0,1-3.971,2.448,26.671,26.671,0,0,1-5.968,1.786,33.78,33.78,0,0,1-7.968.509,30.947,30.947,0,0,1-9.091-1.786,18.078,18.078,0,0,1-4.165-2.114A9.141,9.141,0,0,1,71.64,269.8a4.942,4.942,0,0,1-1.031-2.554c-.141-1.335-.367-2.661-.557-3.991l-.716-5.02q-.354-2.478-.707-4.955-.359-2.509-.721-5.019-.365-2.542-.728-5.084-.354-2.478-.706-4.956t-.7-4.956q-.367-2.574-.737-5.148-.361-2.509-.725-5.018c-.236-1.652-.467-3.3-.7-4.956-.159-1.115-.333-2.229-.481-3.346a1.4,1.4,0,0,0-.465-.893,8.26,8.26,0,0,1-1-1.107,3.214,3.214,0,0,1-.651-1.874,3.411,3.411,0,0,1,.639-2.011,6.294,6.294,0,0,1,1.45-1.48,13.834,13.834,0,0,1,2.634-1.539,31.052,31.052,0,0,1,5.348-1.822q2.27-.577,4.585-.943a1.548,1.548,0,0,0,.664-.187m35.784,19.308a2.072,2.072,0,0,0-.394.188,12.687,12.687,0,0,1-3.136,1.7,30.762,30.762,0,0,1-4.668,1.4,62.073,62.073,0,0,1-8.036,1.2c-2.465.221-4.936.286-7.407.315-1.083.013-2.168-.041-3.252-.084q-3.121-.124-6.222-.5a50.342,50.342,0,0,1-6.649-1.217,18.463,18.463,0,0,1-6.763-2.916c-.058-.045-.157-.037-.258-.058a2.261,2.261,0,0,0,.025,1.109c.148,1.1.312,2.188.469,3.282q.354,2.478.707,4.956.359,2.51.72,5.019.353,2.478.7,4.956.367,2.575.738,5.148.35,2.446.7,4.891.36,2.509.723,5.019c.247,1.716.508,3.43.736,5.148a4.43,4.43,0,0,0,1,2.221,7.885,7.885,0,0,0,1.57,1.455,15.564,15.564,0,0,0,3.5,1.844,30.705,30.705,0,0,0,9.394,1.918,38.931,38.931,0,0,0,8.435-.37,28.738,28.738,0,0,0,6.026-1.584,14.966,14.966,0,0,0,3.59-1.951,7.431,7.431,0,0,0,1.716-1.764,2.812,2.812,0,0,0,.467-1.2q.143-1.03.288-2.061.352-2.478.706-4.956.363-2.542.728-5.084.354-2.478.707-4.956.359-2.51.72-5.02.354-2.478.7-4.956.359-2.509.724-5.019.37-2.574.738-5.148c.107-.751.215-1.5.313-2.254a.869.869,0,0,0-.066-.665m1.033-6.988a.847.847,0,0,0-.643.178,23.831,23.831,0,0,1-2.627,1.131,42.5,42.5,0,0,1-6.786,1.786,72.527,72.527,0,0,1-10.4,1.14,88.759,88.759,0,0,1-10.859-.185,71.578,71.578,0,0,1-7.224-.922,35.268,35.268,0,0,1-9.841-3.054,1.836,1.836,0,0,0-.405-.106.725.725,0,0,0-.083.6c.066.494.155.985.217,1.479a1.548,1.548,0,0,0,.422.859,6.186,6.186,0,0,0,1.362,1.1,13.929,13.929,0,0,0,2.152,1.071,31.826,31.826,0,0,0,5.232,1.548,60.61,60.61,0,0,0,7.072,1.068c2.42.23,4.844.359,7.274.372,1.953.01,3.9-.025,5.854-.143a70.276,70.276,0,0,0,8.2-.945,38.087,38.087,0,0,0,5.982-1.522,16.105,16.105,0,0,0,3.128-1.435,6.553,6.553,0,0,0,1.323-1.047,1.648,1.648,0,0,0,.491-.965c.056-.473.146-.942.21-1.415a.81.81,0,0,0-.051-.6m-37.534-4.209c.207-.127.384-.252.574-.35a1.87,1.87,0,0,1,1.979.012,1.406,1.406,0,0,0,.988.205c1.981-.246,3.972-.364,5.965-.447.953-.039,1.908-.04,2.862-.049.6-.006.765-.132.539-.726a9.144,9.144,0,0,1-.6-2.787c-.027-.519-.045-1.039-.051-1.558-.007-.6-.063-.661-.677-.654-.39,0-.781.006-1.171.022-.52.021-1.039.057-1.558.08a.756.756,0,0,0-.615.309,2.333,2.333,0,0,1-.168.2,3.554,3.554,0,0,1-3.419,1.126,3.229,3.229,0,0,1-1.628-.761,1.029,1.029,0,0,0-.9-.244,48.038,48.038,0,0,0-5.745,1.1c-.817.214-1.623.473-2.437.7a3,3,0,0,1-.632.1c-.128.007-.211-.191-.136-.3a.52.52,0,0,1,.177-.181,5.38,5.38,0,0,1,.548-.2,42.237,42.237,0,0,1,6.51-1.545c.513-.084,1.027-.165,1.541-.246a.333.333,0,0,0,.291-.227.424.424,0,0,0-.347-.524,1.8,1.8,0,0,0-.386.034c-.921.146-1.843.281-2.76.448a38.173,38.173,0,0,0-5.6,1.424,17.156,17.156,0,0,0-3.145,1.4,6.627,6.627,0,0,0-1.448,1.1,2.052,2.052,0,0,0,.008,3.2,8.647,8.647,0,0,0,2.776,1.778.78.78,0,0,0,.629-.022,31.428,31.428,0,0,1,3.971-1.234.952.952,0,0,0,.649-.491,1.825,1.825,0,0,1,.493-.591,2.358,2.358,0,0,1,2.512-.284c.117.054.233.113.409.2m29.964,56.849c-.2.138-.337.228-.468.328-.328.25-.642.518-.979.754a14.365,14.365,0,0,1-3.065,1.561A31.821,31.821,0,0,1,90.973,272.6a42.531,42.531,0,0,1-6.821-.254c-.6-.068-1.2-.157-1.8-.247a4.852,4.852,0,0,1-.632-.145.267.267,0,0,1-.179-.309.237.237,0,0,1,.245-.176c.216.01.433.022.647.047,1.314.149,2.624.356,3.942.44a39.675,39.675,0,0,0,6.305-.067,31.041,31.041,0,0,0,6.618-1.333,18.827,18.827,0,0,0,3.94-1.684,10.183,10.183,0,0,0,2.034-1.61,3.138,3.138,0,0,0,.878-2.237.982.982,0,0,0-.12-.308c-.158.121-.286.2-.393.3a12.047,12.047,0,0,1-2.472,1.787,19.272,19.272,0,0,1-3.215,1.4,33.767,33.767,0,0,1-9.451,1.654,38.381,38.381,0,0,1-8.809-.61,26.289,26.289,0,0,1-5.843-1.753,13.586,13.586,0,0,1-3.433-2.091c-.262-.227-.5-.479-.763-.708a1.029,1.029,0,0,0-.285-.12,2.714,2.714,0,0,0,.048,1.128,1.965,1.965,0,0,0,.5,1.175,7.76,7.76,0,0,0,1.581,1.442,14.136,14.136,0,0,0,2.093,1.184,3.389,3.389,0,0,1,.555.33.243.243,0,0,1,.071.225c-.048.08-.161.179-.238.173a1.55,1.55,0,0,1-.493-.141,12.849,12.849,0,0,1-3.05-1.85c-.1-.084-.2-.167-.305-.243a.18.18,0,0,0-.29.05,2.3,2.3,0,0,0,.47.968,7.623,7.623,0,0,0,1.868,1.8,16.022,16.022,0,0,0,3.377,1.807A28.733,28.733,0,0,0,86.6,274.58a33.3,33.3,0,0,0,7.589-.373,26.63,26.63,0,0,0,6.3-1.815,14.118,14.118,0,0,0,3.652-2.228,5.846,5.846,0,0,0,1.043-1.156,6.205,6.205,0,0,0,.421-.8c.027-.058-.01-.147-.026-.3m-11.4-63.819a1.246,1.246,0,0,0,.771.2c.929.082,1.862.134,2.785.257,1.569.209,3.133.451,4.7.7.856.138,1.7.322,2.554.5a1.242,1.242,0,0,1,.407.179.22.22,0,0,1-.067.37.736.736,0,0,1-.315.028c-.321-.051-.638-.126-.959-.18-1.731-.294-3.461-.6-5.2-.872a43.533,43.533,0,0,0-4.336-.43c-.835-.047-.854-.023-1.128.742a11.726,11.726,0,0,0-.652,4.282c.013.545.082.613.649.662.043,0,.087,0,.13.006,1.556.124,3.112.244,4.668.374a.759.759,0,0,0,.741-.294,1.584,1.584,0,0,1,1.45-.571,1.951,1.951,0,0,1,1.028.365c.137.1.282.182.43.276.2-.147.375-.28.556-.4a2.025,2.025,0,0,1,2.8.6,3.215,3.215,0,0,0,.233.389.519.519,0,0,0,.279.135.975.975,0,0,0,.255-.036,1.312,1.312,0,0,1,1.495.874.918.918,0,0,0,.642.573c.577.187,1.151.388,1.716.608a1.027,1.027,0,0,0,.875-.018,8.268,8.268,0,0,0,2.734-1.841.737.737,0,0,0,.135-.946,4.176,4.176,0,0,0-1.193-1.441,8,8,0,0,0-1.616-.966c-.453-.208-.915-.4-1.369-.6a2.17,2.17,0,0,1-.442-.261.243.243,0,0,1-.06-.228.367.367,0,0,1,.24-.173.876.876,0,0,1,.372.088c.4.164.8.336,1.2.51a7.714,7.714,0,0,1,2.958,2.07,1.63,1.63,0,0,0,.325.21,1.81,1.81,0,0,0-.784-1.452,7.121,7.121,0,0,0-1.473-1.064,16.21,16.21,0,0,0-2.3-1.058,42.527,42.527,0,0,0-8.585-2.062c-1.888-.287-3.788-.463-5.69-.618a2.257,2.257,0,0,0-.518-.01.573.573,0,0,0-.329.178.928.928,0,0,0-.107.339M64.906,219.113c-.055.128-.1.185-.1.241a3,3,0,0,0,1.006,2.371,9.036,9.036,0,0,0,1.722,1.16,20.553,20.553,0,0,0,3.812,1.479,51.135,51.135,0,0,0,9.132,1.679c2.222.228,4.45.354,6.684.395a82.9,82.9,0,0,0,9.419-.357,58.675,58.675,0,0,0,7-1.069,29.751,29.751,0,0,0,5.1-1.539,10.849,10.849,0,0,0,2.292-1.218,8.493,8.493,0,0,0,1.066-.946,2.861,2.861,0,0,0,.625-2c0-.1-.154-.185-.244-.139a2,2,0,0,0-.278.166,13.753,13.753,0,0,1-3.219,1.679,38.441,38.441,0,0,1-7.417,1.912c-1.86.315-3.734.526-5.613.7-2.14.193-4.284.251-6.429.3-.974.023-1.951-.013-2.926-.049-1.473-.054-2.947-.1-4.417-.205a63.427,63.427,0,0,1-6.964-.881,38.7,38.7,0,0,1-5.976-1.537,14.9,14.9,0,0,1-3.884-1.939,3.128,3.128,0,0,0-.39-.2M91.7,212.2a.546.546,0,0,0,.06-.166c.009-.26.013-.52.009-.779-.01-.563-.043-1.126-.039-1.689a12.707,12.707,0,0,1,1.41-5.883,13.59,13.59,0,0,1,2.295-3.138,7.014,7.014,0,0,0,1.419-2.007,4.285,4.285,0,0,0,.356-2.595,3,3,0,0,0-2.507-2.479,1.3,1.3,0,0,0-.391.095c.089.2.159.357.223.512.141.339.3.673.41,1.022a1.927,1.927,0,0,1,.06.64.428.428,0,0,1-.358.407.455.455,0,0,1-.519-.3c-.075-.2-.113-.418-.177-.624a3.211,3.211,0,0,0-3.644-2.343,4.43,4.43,0,0,0-.819.2,2.472,2.472,0,0,0-.926,3.971,1.821,1.821,0,0,0,1.835.562c.168-.041.344-.086.394-.288.036-.145-.107-.293-.374-.386-.184-.064-.378-.1-.554-.182a.47.47,0,0,1-.272-.475.464.464,0,0,1,.454-.394,2.067,2.067,0,0,1,1.572.651.894.894,0,0,1,.252.652,2.57,2.57,0,0,1-.124.761,9.621,9.621,0,0,1-.577,1.161c-.309.547-.65,1.076-.962,1.621a10.364,10.364,0,0,0-1.062,7.6,7.311,7.311,0,0,0,1.29,2.887,9.267,9.267,0,0,0,.839.9.333.333,0,0,0,.426.078m22.954-3.012c-.038.068-.057.086-.058.105a.748.748,0,0,0,0,.191,2.756,2.756,0,0,1-.851,2.6,7.118,7.118,0,0,1-1.538,1.191,15.973,15.973,0,0,1-2.525,1.193,42.222,42.222,0,0,1-8.576,2.086c-1.629.248-3.267.422-4.909.565-2.118.184-4.24.265-6.364.3-1.213.02-2.428-.017-3.641-.048-1.062-.028-2.123-.076-3.183-.132-2.188-.115-4.364-.349-6.532-.669a48.991,48.991,0,0,1-6.359-1.331,22.093,22.093,0,0,1-4.359-1.684,8.319,8.319,0,0,1-1.864-1.3,2.867,2.867,0,0,1-1.018-2.793c0-.021.016-.045.01-.064-.022-.071-.05-.14-.083-.226a2.174,2.174,0,0,0-.681,2.379,3.308,3.308,0,0,0,.758,1.2,8.131,8.131,0,0,0,1.849,1.424,18.491,18.491,0,0,0,2.883,1.347,43.417,43.417,0,0,0,8.18,2.072c1.862.309,3.734.52,5.614.691,1.945.177,3.894.247,5.843.3,1.3.034,2.6-.022,3.9-.042a73.623,73.623,0,0,0,8.618-.665,56.166,56.166,0,0,0,6.385-1.206,30.178,30.178,0,0,0,5.044-1.7,12.364,12.364,0,0,0,2.839-1.7,4.821,4.821,0,0,0,1.005-1.1,2.444,2.444,0,0,0,.418-1.215,2.059,2.059,0,0,0-.813-1.771m-31.4-5.217a1.9,1.9,0,0,0-.341-.045c-.172.01-.343.055-.515.066a3.556,3.556,0,0,1-.646.005.466.466,0,0,1-.428-.421.458.458,0,0,1,.359-.478,3.849,3.849,0,0,1,.446-.074,6.781,6.781,0,0,0,.764-.145,1.959,1.959,0,0,0,1.431-1.606,3.7,3.7,0,0,0,.019-1.29,3,3,0,0,0-2.16-2.587,4.246,4.246,0,0,0-4.623,1.379,2.978,2.978,0,0,0-.514,2.879,1.877,1.877,0,0,0,.455.778c.256.254.446.237.617-.066.064-.113.107-.237.172-.349a6.845,6.845,0,0,1,.441-.718,3.081,3.081,0,0,1,2.263-1.246,2.448,2.448,0,0,1,1.087.138.467.467,0,0,1,.307.516.428.428,0,0,1-.46.369c-.238.008-.476-.012-.714-.018a1.93,1.93,0,0,0-1.508.637,3.243,3.243,0,0,0-.871,1.982,1.47,1.47,0,0,0,.811,1.5,2.772,2.772,0,0,0,2.948-.191,1.971,1.971,0,0,0,.586-.685,1.51,1.51,0,0,0,.074-.332m20.321,8.838a1.318,1.318,0,0,0,.883-.3,1,1,0,0,0,.1-1.5,1.47,1.47,0,0,0-1.9-.188,1.006,1.006,0,0,0-.187,1.487,1.4,1.4,0,0,0,1.1.5M74.343,211.2a1.946,1.946,0,0,0-1.408.506c-.365.366-.268.766.221.953a1.84,1.84,0,0,0,1.8-.408,1.1,1.1,0,0,0,.119-.152.463.463,0,0,0-.167-.714,3.146,3.146,0,0,0-.564-.185m11.827-7.022v-.013c.452-.024.9-.044,1.355-.072a1.257,1.257,0,0,0,.315-.059.371.371,0,0,0,.189-.378.283.283,0,0,0-.25-.255,1.037,1.037,0,0,0-.193-.023c-.841.015-1.682.026-2.522.053a1.043,1.043,0,0,0-.425.127.377.377,0,0,0-.151.451.319.319,0,0,0,.323.168H86.17m14.315,7.464a2.1,2.1,0,0,0,.437-.109.375.375,0,0,0,.086-.674A1.3,1.3,0,0,0,99.6,210.8a.363.363,0,0,0-.032.605,1.279,1.279,0,0,0,.916.242M77.3,211.052a1.28,1.28,0,0,0-.968.278.37.37,0,0,0,.056.6,1.277,1.277,0,0,0,1.441-.182.357.357,0,0,0-.1-.592,2.079,2.079,0,0,0-.431-.108m28.98.924c-.338-.018-.583.14-.623.378a.523.523,0,0,0,.4.575.871.871,0,0,0,.248.057.549.549,0,0,0,.547-.36.511.511,0,0,0-.359-.6,1.579,1.579,0,0,0-.215-.052" transform="translate(-51.115 -160.723)" fill="#05050e"/>
    <path id="패스_20316" data-name="패스 20316" d="M19.56,16.309c.228-.2.409-.349.582-.509a7.586,7.586,0,0,1,5.448-2.087,7.112,7.112,0,0,1,3.075.742c.692.342.716.381,1.213-.278a9.538,9.538,0,0,1,5.465-3.643,9.659,9.659,0,0,1,7,.867c.154.081.3.168.458.247a.382.382,0,0,0,.477-.073c.109-.106.213-.216.316-.328A8.981,8.981,0,0,1,54.2,9.2c.214.105.426.214.64.32a.406.406,0,0,0,.482-.069c.129-.116.245-.246.367-.369A14.262,14.262,0,0,1,69.323,5.239c.126.03.251.071.378.093a.509.509,0,0,0,.477-.146c.106-.109.2-.225.31-.333A7.548,7.548,0,0,1,76,2.459a6.031,6.031,0,0,1,1.552.132.911.911,0,0,0,1.023-.348A3.344,3.344,0,0,1,81.4,1.036a3.512,3.512,0,0,1,3.334,3.1,3.422,3.422,0,0,1-2.553,3.742,3.483,3.483,0,0,1-1.99-.052,4.521,4.521,0,0,1-.424-.164.369.369,0,0,0-.463.122c-.1.115-.187.239-.283.356a8.16,8.16,0,0,1-5.369,3.016,7.436,7.436,0,0,1-2.4-.044c-.064-.012-.13-.016-.192-.033a.8.8,0,0,0-1.01.45,10.732,10.732,0,0,1-4.817,4.323,10.715,10.715,0,0,1-5.7.985c-.108-.011-.216-.018-.324-.027a.506.506,0,0,0-.534.29c-.06.115-.113.234-.171.35a9.78,9.78,0,0,1-7,5.407,9.4,9.4,0,0,1-3.878-.022c-.82-.169-.792-.272-1.285.546A11.9,11.9,0,0,1,38.258,29.1a11.739,11.739,0,0,1-5.291-.146c-.147-.037-.3-.067-.442-.109a.457.457,0,0,0-.553.227c-.106.164-.205.332-.317.492a8.953,8.953,0,0,1-9.686,3.714c-.148-.034-.294-.076-.443-.1a.512.512,0,0,0-.472.164c-.149.158-.295.318-.446.473a7.264,7.264,0,0,1-10.206.116c-.723-.7-.633-.583-1.479-.523A7.9,7.9,0,0,1,1.24,22.065c.083-.176.17-.351.252-.528a1.508,1.508,0,0,0,.052-.188c-.094-.164-.2-.372-.328-.571a7.595,7.595,0,0,1,.837-9.313,6.879,6.879,0,0,1,1.506-1.233c.111-.068.222-.137.328-.211a.561.561,0,0,0,.261-.494c0-.26,0-.52,0-.781A7.622,7.622,0,0,1,11.664,1.3,1.307,1.307,0,0,0,12.6.935,3.559,3.559,0,0,1,14.323.072a3.635,3.635,0,0,1,4.308,3.416,3.642,3.642,0,0,1-3.853,3.747c-.043,0-.086-.019-.128-.02a.391.391,0,0,0-.451.365c-.027.149-.031.3-.059.451A5.383,5.383,0,0,1,13.512,9.8c-.054.094-.105.19-.157.284a.38.38,0,0,0,.06.478c.132.144.266.285.4.429a5.322,5.322,0,0,1,1.265,2.528c.023.106.031.215.053.321a.516.516,0,0,0,.43.432c.17.035.343.052.512.09a6.464,6.464,0,0,1,2.879,1.44c.178.154.362.3.609.506M9.272,28.168a3.044,3.044,0,0,0,.009,1.692,6.265,6.265,0,0,0,9.673,4.048,6.193,6.193,0,0,0,2.639-3.886,3.382,3.382,0,0,1,.165-.558.436.436,0,0,1,.42-.258.447.447,0,0,1,.416.352,1.578,1.578,0,0,1-.011.511,7.729,7.729,0,0,1-.495,1.612c-.178.433-.1.576.361.693.063.016.128.023.192.035a7.983,7.983,0,0,0,8.209-3.422c.3-.447.3-.633-.232-.9-.484-.241-.944-.532-1.406-.814a1.732,1.732,0,0,1-.392-.337.454.454,0,0,1,.54-.7,5.362,5.362,0,0,1,.56.328,11.115,11.115,0,0,0,15.444-3.474c.468-.725.449-.792-.291-1.166a8.643,8.643,0,0,1-1.829-1.235,2.071,2.071,0,0,1-.382-.436.412.412,0,0,1,.039-.488.431.431,0,0,1,.526-.128,1.739,1.739,0,0,1,.332.2c.157.116.3.249.456.367a8.87,8.87,0,0,0,12.27-1.41,8.19,8.19,0,0,0,1.061-1.633c.234-.475.181-.592-.3-.77-.346-.127-.693-.252-1.035-.388a2,2,0,0,1-.4-.215.488.488,0,0,1-.194-.57.45.45,0,0,1,.536-.263,4,4,0,0,1,.613.209,9.878,9.878,0,0,0,5.363.6,10,10,0,0,0,6.9-4.451,3.032,3.032,0,0,0,.172-.276c.15-.285.117-.426-.141-.606-.089-.062-.191-.106-.276-.172-.245-.19-.315-.408-.207-.617a.5.5,0,0,1,.672-.212c.143.049.277.123.418.18a7.293,7.293,0,0,0,3.684.575,7.182,7.182,0,0,0,5.314-3.251c.109-.162.2-.337.319-.491a.481.481,0,0,1,.855-.018,1.2,1.2,0,0,0,.432.377,2.546,2.546,0,0,0,2.946-.721,2.468,2.468,0,0,0,.059-3.021,2.555,2.555,0,0,0-2.9-.893,2.088,2.088,0,0,0-.83.5c-.262.256-.249.427.054.618.22.139.453.257.669.4a2.863,2.863,0,0,1,.453.367.472.472,0,0,1,.074.595.458.458,0,0,1-.581.148,4.86,4.86,0,0,1-.559-.33,6.5,6.5,0,0,0-3.641-1.038A6.579,6.579,0,0,0,71.621,5.14a2.967,2.967,0,0,0-.279.272c-.191.221-.165.4.076.532.113.064.236.11.352.168.329.167.66.328.982.507a2.014,2.014,0,0,1,.415.308.421.421,0,0,1,.076.535.452.452,0,0,1-.5.213,2.227,2.227,0,0,1-.419-.172c-.272-.135-.536-.286-.81-.417A13.208,13.208,0,0,0,54.84,11.71a5.647,5.647,0,0,1-.335.479.5.5,0,0,1-.641.142.475.475,0,0,1-.16-.631,4.036,4.036,0,0,1,.363-.615c.345-.487.367-.683-.275-.977-.079-.036-.156-.076-.235-.11a7.786,7.786,0,0,0-4.253-.649,7.91,7.91,0,0,0-6.163,4.273,2.3,2.3,0,0,0-.138.294c-.1.264-.026.421.235.5.165.052.337.084.5.134a3.225,3.225,0,0,1,1.468.926,1.93,1.93,0,0,1,.279.432.209.209,0,0,1-.1.277.269.269,0,0,1-.236.007c-.154-.116-.285-.262-.428-.393a2.815,2.815,0,0,0-2.95-.67,2.753,2.753,0,0,0-1.593,1.363,3.322,3.322,0,0,1-.309.489.255.255,0,0,1-.233.036.281.281,0,0,1-.152-.187.67.67,0,0,1,.051-.313,3.1,3.1,0,0,1,1.042-1.386,4.833,4.833,0,0,1,.72-.439,1.092,1.092,0,0,0,.558-.6c.133-.343.3-.672.449-1.009.155-.355.114-.483-.227-.7-.147-.091-.3-.171-.457-.248a8.394,8.394,0,0,0-3.5-.9,8.681,8.681,0,0,0-7.452,3.537,2.8,2.8,0,0,0-.187.266c-.172.283-.167.405.041.641.114.13.253.239.365.371.267.313.531.629.781.956a1.246,1.246,0,0,1,.2.4.42.42,0,0,1-.159.464.436.436,0,0,1-.49.04.831.831,0,0,1-.245-.207c-.126-.149-.235-.312-.355-.465a6.649,6.649,0,0,0-10.966.761c-.142.243-.255.5-.382.753a3.773,3.773,0,0,1-.208.4.459.459,0,0,1-.564.2.478.478,0,0,1-.275-.536,1.439,1.439,0,0,1,.106-.372c.111-.259.24-.51.354-.767.069-.155.123-.315.194-.5a5.912,5.912,0,0,0-.426-.5,5.432,5.432,0,0,0-5.991-.969c-.641.3-.67.439-.556.992a1.687,1.687,0,0,1-.071.769.327.327,0,0,1-.317.276c-.138,0-.222-.129-.219-.34,0-.086.02-.173.019-.259a3.007,3.007,0,0,0-.018-.518A1.582,1.582,0,0,0,9.788,15.35c-.216-.008-.434,0-.647-.021a.232.232,0,0,1-.072-.4,1.746,1.746,0,0,1,.546-.172,2,2,0,0,1,1.187.275.732.732,0,0,0,.795.016,6.594,6.594,0,0,1,2.073-.739c.412-.079.49-.213.41-.647a4.106,4.106,0,0,0-1.006-2.01c-.466-.524-.554-.529-1.14-.173a6.462,6.462,0,0,1-.923.471.456.456,0,0,1-.568-.194.482.482,0,0,1,.156-.632,4.219,4.219,0,0,1,.45-.259,4.14,4.14,0,0,0,1.995-4.779c-.04-.146-.09-.291-.119-.439a.476.476,0,0,1,.3-.577.488.488,0,0,1,.595.271,1.617,1.617,0,0,1,.147.359.68.68,0,0,0,.721.532c.13,0,.26.009.391.006a2.62,2.62,0,0,0,1.553-4.684,2.659,2.659,0,0,0-2.992-.162,2.7,2.7,0,0,0-1.094,1.334,1.948,1.948,0,0,1-.265.513.419.419,0,0,1-.727-.152c-.048-.16-.007-.344-.045-.509a.365.365,0,0,0-.45-.239,11.458,11.458,0,0,0-1.333.277A6.624,6.624,0,0,0,5.166,9.675a7.643,7.643,0,0,0,.466,1.82,3.844,3.844,0,0,1,.176.488.461.461,0,0,1-.279.528.435.435,0,0,1-.525-.141,2.278,2.278,0,0,1-.261-.446c-.091-.2-.152-.406-.241-.6-.119-.264-.269-.311-.517-.176a2.228,2.228,0,0,0-.22.138A6.58,6.58,0,0,0,1.789,19.8c.341.625.5.651.989.136a5.523,5.523,0,0,1,.794-.669.494.494,0,0,1,.7.054.507.507,0,0,1-.118.7c-.137.139-.3.255-.437.389a6.752,6.752,0,0,0-2.178,6.3,6.863,6.863,0,0,0,6.752,5.733,1.044,1.044,0,0,0,.623-.106c.116-.181.024-.333-.035-.5-.189-.53-.391-1.057-.536-1.6a5.679,5.679,0,0,1-.135-2.067A1.115,1.115,0,0,0,7.8,27.081a3.981,3.981,0,0,1-.666-.793,3.35,3.35,0,0,1-.549-1.31.936.936,0,0,1,.006-.381.269.269,0,0,1,.176-.162.277.277,0,0,1,.225.078.877.877,0,0,1,.141.289c.051.143.081.292.132.435a3.565,3.565,0,0,0,5.406,1.734c.142-.1.273-.215.416-.313a.5.5,0,0,1,.232-.1.3.3,0,0,1,.224.082.249.249,0,0,1,.032.231,2.249,2.249,0,0,1-.428.476,4.048,4.048,0,0,1-3.122.811,1.147,1.147,0,0,0-.748.013" transform="translate(0 0)" fill="#05050e"/>
  </g>
</svg>
