<svg id="PPS_8" xmlns="http://www.w3.org/2000/svg" xmlns:xlink="http://www.w3.org/1999/xlink" width="141.52" height="61.694" viewBox="0 0 141.52 61.694">
  <defs>
    <clipPath id="clip-path">
      <rect id="사각형_6130" data-name="사각형 6130" width="141.519" height="61.694" fill="none"/>
    </clipPath>
  </defs>
  <g id="그룹_11573" data-name="그룹 11573" clip-path="url(#clip-path)">
    <path id="패스_23291" data-name="패스 23291" d="M108.826,350.861l.448-.01a2.287,2.287,0,0,1,1.914-2.168,3.926,3.926,0,0,1,.149-.541,18.862,18.862,0,0,0-4.344,2.75h.151a1.548,1.548,0,0,1,1.682-.03" transform="translate(-95.055 -309.297)" fill="#399d26"/>
    <path id="패스_23292" data-name="패스 23292" d="M311.2,422.237c.72-.56,1.438-1.1,2.122-1.716.18-.161.42-.424.7-.718a4.259,4.259,0,0,1-.565-.106,8.69,8.69,0,0,1-1.777.786c-1.609.59-2.881,1.849-4.279,2.843-1.926,1.37-4.43,3.361-5.56,5.683l.012.059.008.041.011-.017c.44-.611,1.112-1.089,1.6-1.678a17.985,17.985,0,0,1,5.217-3.853,20.941,20.941,0,0,0,2.514-1.325" transform="translate(-268.155 -372.869)" fill="#399d26"/>
    <path id="패스_23293" data-name="패스 23293" d="M1028.017,66.588c1.588-.384,2.628-1.505,3.737-2.379.319-.251.683-.48.975-.754.024-.023.047-.047.069-.071a.924.924,0,0,1,.361-.8c-.559.341-1.354.318-1.55-.426a.993.993,0,0,1-.036-.248l-1.281.425a1.459,1.459,0,0,1-.218.593.917.917,0,0,1,.3.268,1.367,1.367,0,0,1-.554,1.816,1.789,1.789,0,0,1-.976.345,1.788,1.788,0,0,1-.641.812,1.652,1.652,0,0,1-1.348.3,1.726,1.726,0,0,0,1.16.112" transform="translate(-912.284 -55.006)" fill="#399d26"/>
    <path id="패스_23294" data-name="패스 23294" d="M937.339,96.114a1.332,1.332,0,0,1-1.1-1.42.912.912,0,0,1,.173-.365l-.011-.008-3.943,1.307a1.451,1.451,0,0,1,.008,1.054c-.012.03-.025.059-.039.088l.048.018a2.034,2.034,0,0,1,1.448,2.426,1.721,1.721,0,0,1-1.66.969,1.362,1.362,0,0,1-.092.593,1.34,1.34,0,0,1-.167.3c2.385-.334,3.845-2.9,5.336-4.962" transform="translate(-828.013 -83.797)" fill="#399d26"/>
    <path id="패스_23295" data-name="패스 23295" d="M796.577,148.6l-1.374.454a3.14,3.14,0,0,1,0,.509l.054-.026a4.15,4.15,0,0,1,1.5-.37c-.018-.033-.036-.067-.052-.1a1.584,1.584,0,0,1-.129-.465" transform="translate(-706.475 -132.021)" fill="#399d26"/>
    <path id="패스_23296" data-name="패스 23296" d="M869.6,127.473c0-.012.007-.024.011-.035l0-.006-.238.079c0,.018,0,.036,0,.054l.029-.013c.065-.03.131-.056.2-.079" transform="translate(-772.375 -113.214)" fill="#399d26"/>
    <path id="패스_23297" data-name="패스 23297" d="M830.783,158.106a6.579,6.579,0,0,0,.563-1.611c.006-.032.014-.066.022-.1-.064.037-.13.073-.2.1a2.226,2.226,0,0,1-.533.166,1.916,1.916,0,0,1-1.145,2.248,2.092,2.092,0,0,1-1.6.073,1.548,1.548,0,0,1-.045.169c-.306.527-.593,1.029-.881,1.574a13.4,13.4,0,0,0-.741,2.05,11.38,11.38,0,0,1-1.537,2.962l1.451-.77a5.275,5.275,0,0,1,1.117-1.989c.913-.945,1.5-2.188,2.355-3.154a7.869,7.869,0,0,0,1.171-1.721" transform="translate(-732.673 -138.945)" fill="#399d26"/>
    <path id="패스_23298" data-name="패스 23298" d="M811.534,214.485l.015-.042-.026.005c0,.012.007.025.011.037" transform="translate(-720.976 -190.515)" fill="#399d26"/>
    <path id="패스_23299" data-name="패스 23299" d="M816.1,201.594a4.053,4.053,0,0,1-.894.8,13.335,13.335,0,0,1-.852,2.187,11.378,11.378,0,0,0-.474,1.158c.042-.07.084-.14.125-.212a25.079,25.079,0,0,0,1.864-3.268c.085-.223.161-.446.232-.668" transform="translate(-723.067 -179.101)" fill="#399d26"/>
    <path id="패스_23300" data-name="패스 23300" d="M907.544,0a1.961,1.961,0,0,0-.691.119l-.887.294q-5.356,1.771-10.71,3.547a.981.981,0,0,1-.429.2,3.025,3.025,0,0,1,1.146.867c.529,1.015-1.125,1.026-1.64.32.236.5.482.7.14,1.19-.124.178-.676.566-.923.52-.678-.126-.877-1.269-.424-1.7-.538.513-1.424.681-1.826-.091l-1.073.356a.643.643,0,0,1,.214.3.771.771,0,0,1-.809.945,2.653,2.653,0,0,1,.821.957c.264.969-1.156.67-1.465-.031.109.475.283.689-.1,1.046a1.325,1.325,0,0,1-.888.273.564.564,0,0,1-.111-.064,1.765,1.765,0,0,1-.273.393c-.244.237-.628.44-.864.693a4.283,4.283,0,0,1-.593.626,11,11,0,0,1-2.236,1.13,14.634,14.634,0,0,1-1.838.824,6.238,6.238,0,0,1-1.653.289l-.025.038a11.622,11.622,0,0,1-3.537,3.543,10.774,10.774,0,0,1-1.9.835c-.245.083-.624.165-.959.29-.333.273-.671.539-1.008.793a5.4,5.4,0,0,1-3.444,1.257,12.643,12.643,0,0,1-1.641-.273c-.205-.038-.506-.127-.744-.166-.243.333-.492.665-.77.981a24.191,24.191,0,0,0-2.244,3.1c-.233.371-.488.729-.742,1.088q16.51-8.772,33.02-17.544c4.06-2.156,8.107-4.348,12.16-6.523A1.791,1.791,0,0,0,907.544,0" transform="translate(-767.077 0)" fill="#399d26"/>
    <path id="패스_23301" data-name="패스 23301" d="M87.706,333.012a2.186,2.186,0,0,1,.017-3.282,2.563,2.563,0,0,1-1.174.527q-.2.426-.4.855c-.547,1.188-.422,2.513-.672,3.71a5.191,5.191,0,0,1,.861-.2c.439-.536.9-1.069,1.365-1.611" transform="translate(-75.942 -292.94)" fill="#399d26"/>
    <path id="패스_23302" data-name="패스 23302" d="M620.75,254.085c-.312.1-.626.2-.93.294a1.026,1.026,0,0,1-.276.585,3.1,3.1,0,0,1,1.472.06c1.039.546-.347,1.522-1.194,1.228.493.286.815.306.813.92,0,.223-.238.871-.473.977-.644.291-1.48-.556-1.35-1.183-.153.748-.8,1.409-1.6.988a18.761,18.761,0,0,0-2.275,1.629c-1.367,1.221-2.84,2.388-4.141,3.657-.23.224-.469.432-.714.629,1.443-.547,2.881-.994,4.293-1.605a19.411,19.411,0,0,0,8.977-7.37c.036-.056.075-.123.118-.2a3.688,3.688,0,0,1-2.726-.614" transform="translate(-542.015 -225.735)" fill="#399d26"/>
    <path id="패스_23303" data-name="패스 23303" d="M100.571,451.473c-.112-.206-.23-.41-.355-.612a16.51,16.51,0,0,1-1.149-2.117c-.03.014-.06.027-.091.039.365.638-.237,1.206-.691.4a6.528,6.528,0,0,1-2.468-.518,26.542,26.542,0,0,0,6.7,8.608c.09.073.182.144.274.215a11.535,11.535,0,0,1-1.369-2.769,20.212,20.212,0,0,1-.848-3.244" transform="translate(-85.126 -398.603)" fill="#399d26"/>
    <path id="패스_23304" data-name="패스 23304" d="M44,261.55a14.289,14.289,0,0,0,.538,1.886c.092.145.19.287.289.429a20.6,20.6,0,0,1-.217-2.958c0-2.683.881-4.98,1.326-7.566a12.862,12.862,0,0,1,1.774-4.715,1.745,1.745,0,0,1-1.406.1,2.235,2.235,0,0,0-.243.263,16.552,16.552,0,0,0-2.538,6.074c-.562,2.28.005,4.274.477,6.485" transform="translate(-38.456 -220.886)" fill="#399d26"/>
    <path id="패스_23305" data-name="패스 23305" d="M761.248,250.122a8.329,8.329,0,0,1-1.257,2.108l3.922-2.083a7.75,7.75,0,0,1,.3-.716,4.243,4.243,0,0,1-.644.365,4.059,4.059,0,0,1-2.322.327" transform="translate(-675.194 -221.6)" fill="#399d26"/>
    <path id="패스_23306" data-name="패스 23306" d="M386.55,409.707a4.548,4.548,0,0,1-.323.358c.165-.062.333-.121.5-.174-.062-.059-.122-.12-.18-.184" transform="translate(-343.133 -363.993)" fill="#399d26"/>
    <path id="패스_23307" data-name="패스 23307" d="M75.518,453.789a11.24,11.24,0,0,0,2.821,3.811,6.145,6.145,0,0,0,2.962,1.24c-.193-.183-.375-.359-.544-.526a29.87,29.87,0,0,1-6.12-8.269,9.729,9.729,0,0,0,.881,3.744" transform="translate(-66.309 -399.83)" fill="#399d26"/>
    <path id="패스_23308" data-name="패스 23308" d="M582.455,292.392a1.832,1.832,0,0,1-.161-.155,2.711,2.711,0,0,1-.324.316l.379-.123c.036-.012.071-.026.106-.038" transform="translate(-517.035 -259.63)" fill="#399d26"/>
    <path id="패스_23309" data-name="패스 23309" d="M226.114,416.609a6.518,6.518,0,0,0-.892,4.22,10.8,10.8,0,0,0,.819,2.775,24.865,24.865,0,0,1,1.3-5.4,14.107,14.107,0,0,1,.8-1.813,4.462,4.462,0,0,1-1.483.252,4.534,4.534,0,0,1-.546-.033" transform="translate(-200.061 -369.93)" fill="#399d26"/>
    <path id="패스_23310" data-name="패스 23310" d="M732.169,272.158c.134-.353.324-.7.4-.887.046-.114.094-.227.142-.341a16.292,16.292,0,0,1-1.475,1.724l-.807.428.807-.428.564-.3,1.139-.6-.769.408" transform="translate(-648.93 -240.7)" fill="#399d26"/>
    <path id="패스_23311" data-name="패스 23311" d="M302.1,425.369a30.617,30.617,0,0,1,3.971-2.531,4.357,4.357,0,0,1-2.317-.265,7.275,7.275,0,0,0-2.479,1.107,5.616,5.616,0,0,0-2.278,4.5,24.174,24.174,0,0,1,3.1-2.81" transform="translate(-265.631 -375.424)" fill="#399d26"/>
    <path id="패스_23312" data-name="패스 23312" d="M6.876,287.19a11.4,11.4,0,0,1-1.354-3.034,1.19,1.19,0,0,1-.738-1.168c-.154.749-.806,1.411-1.6.987-1.015-.544-.1-1.483.451-1.905-1.9.105-.858-1.778.018-1.771-.077-.2-.154-.4-.234-.588a32.151,32.151,0,0,1-1.578-6.778c-.408-2.322-.659-5.074.206-7.269.1-.244.182-.671.316-1.034,0-.153,0-.3,0-.418a13.9,13.9,0,0,1,.342-3.279c.044-.183.092-.363.14-.543a57.492,57.492,0,0,0-2.36,7.969c-.026.137-.05.27-.071.394-1.75,10.712,2.136,19.5,9.346,22.833h0q.171.079.345.154l.026.011q.63.271,1.293.486-.291-.095-.577-.2a20.838,20.838,0,0,1-3.976-4.848" transform="translate(0 -231.336)" fill="#399d26"/>
    <path id="패스_23313" data-name="패스 23313" d="M84.191,387.69c-2.621.145-2.874-1.306-2.221-2.539l-.209.068a9.68,9.68,0,0,0-1.609,2.935c.061.2.126.395.2.584q.2.513.408,1.023a13.393,13.393,0,0,0,1.289.969c-.016-1.127,1.261-2.365,2.144-3.041" transform="translate(-71.208 -342.177)" fill="#399d26"/>
    <path id="패스_23314" data-name="패스 23314" d="M135.268,552.359l-.09-.006.09.006" transform="translate(-120.095 -490.723)" fill="#399d26"/>
    <path id="패스_23315" data-name="패스 23315" d="M131.879,552.033c-.139-.012-.277-.025-.414-.04.137.015.275.029.414.04" transform="translate(-116.797 -490.403)" fill="#399d26"/>
    <path id="패스_23316" data-name="패스 23316" d="M130.127,551.842l-.168-.019.168.019" transform="translate(-115.459 -490.252)" fill="#399d26"/>
    <path id="패스_23317" data-name="패스 23317" d="M136.35,552.436q-.185-.01-.369-.025.184.014.369.025" transform="translate(-120.809 -490.775)" fill="#399d26"/>
    <path id="패스_23318" data-name="패스 23318" d="M140.961,552.713c-.146,0-.292-.009-.436-.016.145.007.29.013.436.016" transform="translate(-124.846 -491.029)" fill="#399d26"/>
    <path id="패스_23319" data-name="패스 23319" d="M139.426,552.639l-.138-.007.138.007" transform="translate(-123.747 -490.971)" fill="#399d26"/>
    <path id="패스_23320" data-name="패스 23320" d="M144.435,552.843h.016q.312.007.623.009-.31,0-.62-.009h-.019" transform="translate(-128.319 -491.159)" fill="#399d26"/>
    <path id="패스_23321" data-name="패스 23321" d="M112.109,548.594l-.246-.059.246.059" transform="translate(-99.382 -487.331)" fill="#399d26"/>
    <path id="패스_23322" data-name="패스 23322" d="M110.761,548.254l-.138-.035.138.035" transform="translate(-98.28 -487.05)" fill="#399d26"/>
    <path id="패스_23323" data-name="패스 23323" d="M127.693,551.534l-.285-.036.285.036" transform="translate(-113.192 -489.964)" fill="#399d26"/>
    <path id="패스_23324" data-name="패스 23324" d="M104.005,546.312q-.421-.109-.831-.239.41.131.831.239" transform="translate(-91.662 -485.144)" fill="#399d26"/>
    <path id="패스_23325" data-name="패스 23325" d="M102.516,545.862l-.083-.026.083.026" transform="translate(-91.004 -484.932)" fill="#399d26"/>
    <path id="패스_23326" data-name="패스 23326" d="M116.366,549.572q-.163-.032-.324-.067.161.035.324.067" transform="translate(-103.094 -488.193)" fill="#399d26"/>
    <path id="패스_23327" data-name="패스 23327" d="M114.285,549.117l-.221-.049.221.049" transform="translate(-101.337 -487.805)" fill="#399d26"/>
    <path id="패스_23328" data-name="패스 23328" d="M126.1,551.322l-.164-.022.164.022" transform="translate(-111.888 -489.788)" fill="#399d26"/>
    <path id="패스_23329" data-name="패스 23329" d="M123.014,550.839c-.123-.018-.245-.038-.367-.058q.183.031.367.058" transform="translate(-108.962 -489.327)" fill="#399d26"/>
    <path id="패스_23330" data-name="패스 23330" d="M119.153,550.142l-.208-.039.208.039" transform="translate(-105.674 -488.724)" fill="#399d26"/>
    <path id="패스_23331" data-name="패스 23331" d="M121.016,550.492l-.2-.036.2.036" transform="translate(-107.331 -489.038)" fill="#399d26"/>
    <path id="패스_23332" data-name="패스 23332" d="M527.652,347.686q-.174.294-.337.593a2.39,2.39,0,0,0,.159-.239c.065-.115.123-.234.177-.354" transform="translate(-468.48 -308.892)" fill="#399d26"/>
    <path id="패스_23333" data-name="패스 23333" d="M471.407,331.11a2.531,2.531,0,0,1-.319-.152c-.805,1.052-1.752,2.031-2.457,3.142-.892,1.409-1.578,2.915-2.328,4.393l.218-.152c.957-.672,1.89-1.375,2.826-2.087.032-.056.063-.112.091-.17.365-.741.555-1.507.95-2.226a22.98,22.98,0,0,0,1.019-2.749" transform="translate(-414.275 -294.031)" fill="#399d26"/>
    <path id="패스_23334" data-name="패스 23334" d="M506.706,339.913c-.105.083-.212.163-.323.236-.585.384-1.273.589-1.867,1a17.369,17.369,0,0,1-1.546,1.174c-.5.274-1.076.352-1.6.583a6.762,6.762,0,0,1-2.1.7l-.085.053c-.192.387-.393.771-.608,1.148l6.787-3.594q4.7-2.492,9.406-4.986l-6.369,3.376c-.572.1-1.145.194-1.7.3" transform="translate(-442.95 -298.719)" fill="#399d26"/>
    <path id="패스_23335" data-name="패스 23335" d="M43.918,226.809a2.833,2.833,0,0,1-.047-1.671c-.187.307-.383.608-.593.9a1.531,1.531,0,0,1-.452.477,8.575,8.575,0,0,0-1.1,3.554c-.006.107-.014.214-.021.322q.171-.372.365-.739a18.17,18.17,0,0,1,1.848-2.844" transform="translate(-37.053 -200.018)" fill="#399d26"/>
    <path id="패스_23336" data-name="패스 23336" d="M136.465,195.9q-.059-.319-.109-.645c-.193.167-.4.34-.625.523a.718.718,0,0,0,.733.121" transform="translate(-120.587 -173.467)" fill="#399d26"/>
    <path id="패스_23337" data-name="패스 23337" d="M131.845,334.811l-.048-.049c.008.022.015.044.022.066l.026-.017" transform="translate(-117.092 -297.41)" fill="#399d26"/>
    <path id="패스_23338" data-name="패스 23338" d="M168.438,266.933a4.418,4.418,0,0,1,.608-.209q-.228-.266-.445-.546a1.925,1.925,0,0,1-.163.755" transform="translate(-149.644 -236.479)" fill="#399d26"/>
    <path id="패스_23339" data-name="패스 23339" d="M361.1,416.635c-.678.382-1.369.855-2.082,1.287a8.5,8.5,0,0,1-.738.923l-3.111,1.645c-.313.067-.642.133-.994.215a12.871,12.871,0,0,0-5.517,3.021c-.154.141-.3.288-.446.438l5.673-2.995,1.285-.679,3.111-1.645,3.161-1.671,1.131-.6q.32-.5.611-1.006l-.085.038a18.719,18.719,0,0,0-2,1.027" transform="translate(-309.361 -369.203)" fill="#399d26"/>
    <path id="패스_23340" data-name="패스 23340" d="M747.757,252.446c-.282.463-.486,1.008-.755,1.43-.137.215-.282.426-.434.633-.047.114-.1.227-.142.341-.075.185-.266.533-.4.887l.769-.408.789-.419h0a8.326,8.326,0,0,0,1.257-2.108,3.586,3.586,0,0,1-1.086-.355" transform="translate(-662.789 -224.279)" fill="#366a2a"/>
    <path id="패스_23341" data-name="패스 23341" d="M15.523,305.9a9.672,9.672,0,0,1-1.068-3.453,31.955,31.955,0,0,1-.269-6.934q.012-.19.026-.379c.047-.642.115-1.3.2-1.97l-.029.021a1.279,1.279,0,0,0-.34.561c-.134.363-.22.79-.316,1.034-.864,2.2-.613,4.947-.206,7.269a32.151,32.151,0,0,0,1.578,6.778c.08.192.157.389.234.588a.61.61,0,0,1,.52.319.942.942,0,0,1,1.009-1.129,9.988,9.988,0,0,1,.192-.985,7.943,7.943,0,0,1-1.533-1.721" transform="translate(-11.681 -260.458)" fill="#366a2a"/>
    <path id="패스_23342" data-name="패스 23342" d="M189.565,397.316a9.4,9.4,0,0,0,.4,8.5,17.961,17.961,0,0,1,.84-7.5c.054-.16.163-.564.319-1.014a4.091,4.091,0,0,1-.809-1.2c-.28.462-.621.912-.752,1.211" transform="translate(-167.68 -351.909)" fill="#366a2a"/>
    <path id="패스_23343" data-name="패스 23343" d="M965.524,99.1a.909.909,0,0,1-.07-.085c-.015-.021-.028-.043-.041-.065-.01.016-.022.031-.033.046a1.3,1.3,0,0,1-.841.485.913.913,0,0,1,0,.4.99.99,0,0,1-.455.617,1.686,1.686,0,0,1-1.229.192,7.137,7.137,0,0,1-.56.85c-.29.32-.639.572-.924.9-.415.483-.7,1-1.14,1.46a21.114,21.114,0,0,1-1.872,1.716c.336-.125.714-.207.959-.29a10.763,10.763,0,0,0,1.9-.835,11.622,11.622,0,0,0,3.537-3.543l.025-.038a16.164,16.164,0,0,0,.957-1.647.923.923,0,0,1-.216-.171" transform="translate(-851.43 -87.908)" fill="#3197a3"/>
    <path id="패스_23344" data-name="패스 23344" d="M843.592,150.609a2.132,2.132,0,0,1-.678.621c-.008.034-.016.068-.022.1a6.578,6.578,0,0,1-.563,1.611,7.873,7.873,0,0,1-1.171,1.721c-.854.967-1.442,2.209-2.355,3.154a5.274,5.274,0,0,0-1.117,1.989v0l.85-.452h0a3.64,3.64,0,0,1,.234-.674,4.812,4.812,0,0,1,.95-1.145,21.248,21.248,0,0,0,3.19-4.232,8.707,8.707,0,0,1,.9-1.587,9.985,9.985,0,0,1,.856-.851,2.335,2.335,0,0,1-.229-.284,2.486,2.486,0,0,1-.847.028" transform="translate(-744.219 -133.78)" fill="#3197a3"/>
    <path id="패스_23345" data-name="패스 23345" d="M924.626,113.192c.78-.867,1.326-2.1,2.146-2.965a1.55,1.55,0,0,1-.158-.143,1.708,1.708,0,0,1-.686.11,1.96,1.96,0,0,1-.347-.044c-.042-.009-.082-.02-.122-.032-1.492,2.059-2.952,4.629-5.336,4.962a1.569,1.569,0,0,1-.673.508,2.21,2.21,0,0,1-.819.161,1.789,1.789,0,0,0,1.041.67,2.93,2.93,0,0,0,1.928-.713,15.938,15.938,0,0,0,3.026-2.515" transform="translate(-816.133 -97.801)" fill="#3197a3"/>
    <path id="패스_23346" data-name="패스 23346" d="M796.994,209.418l-.015.042a3.541,3.541,0,0,1-1.537,3.861,7.755,7.755,0,0,0-.3.716h0l1.57-.834.091-.049h0l.016-.03a9.655,9.655,0,0,0,.412-.994,11.358,11.358,0,0,1,.474-1.159,13.334,13.334,0,0,0,.852-2.187,4.177,4.177,0,0,1-1.563.631" transform="translate(-706.421 -185.491)" fill="#3197a3"/>
    <path id="패스_23347" data-name="패스 23347" d="M755.766,250.046a1.917,1.917,0,0,0,.221-.319c-.021-.016-.044-.03-.065-.046Z" transform="translate(-671.44 -221.822)" fill="#3197a3"/>
    <path id="패스_23348" data-name="패스 23348" d="M532.527,246.235a4.025,4.025,0,0,1-.738.707,4.2,4.2,0,0,1-1.867.783c-.043.073-.083.14-.118.2a19.412,19.412,0,0,1-8.977,7.37c-1.412.612-2.85,1.058-4.293,1.605.245-.2.484-.4.714-.629,1.3-1.269,2.774-2.436,4.141-3.657a18.751,18.751,0,0,1,2.275-1.629l0,0c-1.015-.544-.1-1.483.451-1.905a1.35,1.35,0,0,1-.831-.156c-1.343.947-2.566,2.091-3.926,3.027a52.325,52.325,0,0,0-4.832,3.672c-1.722,1.512-2.957,3.674-4.845,4.9-1.617,1.052-3.237,2.1-4.892,3.136a6.763,6.763,0,0,0,2.1-.7c.525-.231,1.1-.308,1.6-.583a17.317,17.317,0,0,0,1.546-1.174c.594-.415,1.283-.62,1.867-1,.111-.073.217-.153.322-.236.554-.108,1.126-.2,1.7-.3l6.369-3.376,6.761-3.587.489-.26,0,0,.054-.04a21.5,21.5,0,0,0,3.141-3.055,18.453,18.453,0,0,0,2.185-2.733,3.111,3.111,0,0,1-.392-.365" transform="translate(-448.462 -218.761)" fill="#3197a3"/>
    <path id="패스_23349" data-name="패스 23349" d="M88,277.386a2.961,2.961,0,0,1-.581-1.948,1.944,1.944,0,0,1-.673-.676,27.129,27.129,0,0,0-1.5,3.35A6.282,6.282,0,0,1,88,277.386" transform="translate(-75.732 -244.104)" fill="#3197a3"/>
    <path id="패스_23350" data-name="패스 23350" d="M295.086,412.643c-.275.294-.515.557-.7.718-.684.613-1.4,1.156-2.122,1.716a20.947,20.947,0,0,1-2.514,1.325,17.983,17.983,0,0,0-5.217,3.853c-.491.59-1.162,1.067-1.6,1.678l-.011.016-.008-.041-.012-.059a13.266,13.266,0,0,1-.317-3.385,5.617,5.617,0,0,1,2.278-4.5,7.277,7.277,0,0,1,2.479-1.107,3.636,3.636,0,0,1-1.566-1.22c-1.382.939-2.423,1.222-3.427,2.629a8.89,8.89,0,0,0-1.6,7.24,7.676,7.676,0,0,0,1.043,2.382h0q.275-.124.55-.253l.1-.049.328-.156.393-.191h0q-.023-.118-.044-.237c.858-1.037,1.716-1.952,1.942-2.241,1.8-2.3,4.281-3,6.722-4.555,1.631-1.042,4.214-2.036,5.272-3.706l.048-.079a4.6,4.6,0,0,1-2.021.219" transform="translate(-249.227 -365.709)" fill="#3197a3"/>
    <path id="패스_23351" data-name="패스 23351" d="M461.824,236.193l.016-.035a17.457,17.457,0,0,0,1.478-1.084c1.362-1.123,2.71-2.321,4.039-3.539,2.888-2.647,6.063-4.873,9.021-7.42a14.24,14.24,0,0,1,2.18-1.481l.4-.239c.6-.362,1.085-.849,1.672-1.21a3.778,3.778,0,0,1,.348-.193c.521-.25,1.022-.461,1.522-.7-.009-.018-.018-.035-.026-.054a3.1,3.1,0,0,1-.228-.749,3.179,3.179,0,0,1,.069-1.349,3.54,3.54,0,0,1,.27-.7c-.09-.028-.178-.061-.265-.1a7,7,0,0,1-.789,1.251,19.7,19.7,0,0,1-1.667,1.812,21.351,21.351,0,0,1-2.485,2.161,20.335,20.335,0,0,1-2.473,1.547c-.212.114-.418.23-.621.347a2.626,2.626,0,0,1-1.508,1.66,2.833,2.833,0,0,1-1.265.242c-.7.559-1.392,1.156-2.1,1.8a61.005,61.005,0,0,1-5.88,4.386l.037-.07q.163-.3.337-.593c.181-.306.371-.607.574-.9,1.017-1.477,2.822-2.776,3.768-4.337q-.093.014-.184.022a2.487,2.487,0,0,1-1.182-.18,3.156,3.156,0,0,1-.368.2,3.119,3.119,0,0,1-.75.234,2.7,2.7,0,0,1-1.611,3.164,3.122,3.122,0,0,1-.523.183,3.038,3.038,0,0,1-.486.083,30.686,30.686,0,0,1-1.665,3.624c-.026.042-.05.085-.076.128q-.806.608-1.6,1.215c-.936.712-1.868,1.414-2.826,2.087l-.218.152c-.21.415-.426.828-.652,1.236-.189.341-.368.681-.547,1.018.981-.6,2-1.145,3.007-1.717l1.023-.579q-.219.432-.443.862-.287.547-.594,1.085-.292.51-.611,1.006h0l2.417-1.277v0c.214-.377.415-.761.608-1.148l.024-.048q.211-.428.41-.862.215-.467.423-.937" transform="translate(-404.73 -193.093)" fill="#3197a3"/>
    <path id="패스_23352" data-name="패스 23352" d="M54.84,382.249q-.038-.231-.071-.463c-.1-.142-.2-.285-.289-.429.109.3.228.6.36.893" transform="translate(-48.402 -338.806)" fill="#3197a3"/>
    <path id="패스_23353" data-name="패스 23353" d="M81.446,162.527c.007-.018.014-.037.022-.055a3.184,3.184,0,0,1,.81-1.158c-.017-.041-.033-.083-.046-.126q-.451.641-.9,1.289l.01,0c.035.014.068.03.1.047" transform="translate(-72.26 -143.202)" fill="#3197a3"/>
    <path id="패스_23354" data-name="패스 23354" d="M123.417,372.431a1.779,1.779,0,0,1,.483.52,2.187,2.187,0,0,1-.035-.53l-.448.01" transform="translate(-109.647 -330.867)" fill="#3197a3"/>
    <path id="패스_23355" data-name="패스 23355" d="M75.437,334.618c.007.053.013.106.021.159s.014.1.021.143a11.542,11.542,0,0,0,.364,1.651,9.679,9.679,0,0,1,1.609-2.935l.209-.068a3.488,3.488,0,0,1,1.327-1.38h-.151a18.86,18.86,0,0,1,4.344-2.75,3.978,3.978,0,0,1,.247-.563,3.051,3.051,0,0,1-1.775-.88l-.027.017c.388,1.209-.936,3.214-2.237,2.974a1.686,1.686,0,0,1-.726-.32c-.468.542-.926,1.075-1.365,1.611a5.209,5.209,0,0,0-.862.2c.251-1.2.125-2.522.672-3.71q.2-.429.4-.855a1.646,1.646,0,0,1-.925-.252,2.7,2.7,0,0,1-.767-.569,28.839,28.839,0,0,0-.5,5.945c.018.538.059,1.068.124,1.583" transform="translate(-66.9 -290.593)" fill="#3197a3"/>
    <path id="패스_23356" data-name="패스 23356" d="M162.77,412.341a2.4,2.4,0,0,1-.7-.124c.23.133.443.241.638.341.018-.07.037-.143.057-.217" transform="translate(-143.99 -366.223)" fill="#3197a3"/>
    <path id="패스_23357" data-name="패스 23357" d="M212.976,374.255a3.922,3.922,0,0,1-.938-.438,4.3,4.3,0,0,1-1.765,1.232,4.42,4.42,0,0,1-.859.227c-.073.085-.139.161-.2.218-.494.491-1.012.945-1.494,1.511a13.628,13.628,0,0,0-1.567,2.544c-.3.566-.636,1.1-.882,1.694a11.46,11.46,0,0,0-.613,2.8,19.5,19.5,0,0,0,.334,5.127,10.474,10.474,0,0,0,.291,1.478,6.5,6.5,0,0,1-1.381-.784,7.128,7.128,0,0,1-.894-.789,10.288,10.288,0,0,1-2.216-9.414,9.682,9.682,0,0,1,.584-1.245,4.354,4.354,0,0,1-.915-.569,4.236,4.236,0,0,1-.376-.344c-.156.45-.265.854-.319,1.014a17.96,17.96,0,0,0-.84,7.5c.027.048.053.1.081.144.073.125.149.252.228.379a16.514,16.514,0,0,0,5.426,5.5h0q.54-.172,1.076-.36.509-.178,1.015-.37h0q-.054-.132-.1-.266a21.284,21.284,0,0,1-.981-5.218q-.021-.213-.04-.419a6.527,6.527,0,0,1,1.415-5.288q.145-.189.3-.366c1.525-1.756,3.675-2.663,5.237-4.273a3.969,3.969,0,0,1,.395-1.222" transform="translate(-176.642 -332.108)" fill="#3197a3"/>
    <path id="패스_23358" data-name="패스 23358" d="M132.855,439.226a13.209,13.209,0,0,1-2.065-3.319,16.878,16.878,0,0,1-1.366-5.626,2.439,2.439,0,0,1-1.929-.822,2.48,2.48,0,0,1-.8-2.1,4.151,4.151,0,0,1-.226.739,3.157,3.157,0,0,1-1.53,1.719,16.515,16.515,0,0,0,1.149,2.117c.125.2.243.406.355.612a20.2,20.2,0,0,0,.848,3.244,11.534,11.534,0,0,0,1.37,2.769,17.081,17.081,0,0,0,1.545,1.02c.766.459,1.551.9,2.291,1.4.031.021.074.047.122.074h0q.921-.124,1.834-.294h0a12.982,12.982,0,0,1-1.6-1.536" transform="translate(-111.003 -379.676)" fill="#3197a3"/>
    <path id="패스_23359" data-name="패스 23359" d="M36.016,244.116c-.612-.495-1.178-1-1.672-1.473a6.144,6.144,0,0,1-2.962-1.24,11.239,11.239,0,0,1-2.821-3.811,9.729,9.729,0,0,1-.881-3.744,14.319,14.319,0,0,1-.727-1.928q-.075-.259-.149-.516l0-.013q-.133-.467-.259-.931c-.019-.07-.037-.14-.056-.21-.2-.756-.381-1.508-.531-2.264a8.488,8.488,0,0,0-.76,1.408,14.311,14.311,0,0,1-1.61-3.221,16.39,16.39,0,0,1,.421-12.164c.007-.107.015-.215.021-.322a8.574,8.574,0,0,1,1.1-3.554A17.2,17.2,0,0,1,26.4,208.14a3.363,3.363,0,0,1,.211-.382,1.534,1.534,0,0,1-.158-.055,1.575,1.575,0,0,1-.571-.412,1.927,1.927,0,0,1-.359-.595,12.967,12.967,0,0,0-1.828,2.9c-.08.186-.154.375-.219.569a32.959,32.959,0,0,0-1.388,6.183c-.087.667-.154,1.327-.2,1.97q-.014.189-.026.379a31.956,31.956,0,0,0,.269,6.934A9.669,9.669,0,0,0,23.2,229.08a7.941,7.941,0,0,0,1.533,1.721,10.02,10.02,0,0,0-.192.985.788.788,0,0,1,.169.051.9.9,0,0,1,.164,1.445,3.443,3.443,0,0,1,.817-.055c.054,0,.108.005.16.009a1.453,1.453,0,0,1,.5.106.652.652,0,0,1,.353.359.394.394,0,0,1,0,.239,1.218,1.218,0,0,1-.888.646,1.45,1.45,0,0,1-.266.036,1.065,1.065,0,0,1-.389-.052c.132.077.252.134.357.189a.952.952,0,0,1,.326.241.757.757,0,0,1,.13.49.929.929,0,0,1-.037.216c0,.018-.01.036-.016.055a2.358,2.358,0,0,1-.087.24.942.942,0,0,1-.334.467.751.751,0,0,1-.612-.014,11.4,11.4,0,0,0,1.354,3.034,20.838,20.838,0,0,0,3.976,4.848,16.224,16.224,0,0,0,5.282.983q.31.007.62.009c.157,0,.315,0,.472,0q.535,0,1.068-.025h0a17.977,17.977,0,0,1-1.632-1.184" transform="translate(-19.353 -183.634)" fill="#3197a3"/>
    <path id="패스_23360" data-name="패스 23360" d="M1023.073,75.087c-.022.024-.045.048-.069.071-.292.274-.656.5-.975.754-1.109.874-2.149,2-3.737,2.379a1.726,1.726,0,0,1-1.16-.112,1.063,1.063,0,0,1-.264-.108,16.154,16.154,0,0,1-.957,1.647,6.24,6.24,0,0,0,1.653-.289,14.607,14.607,0,0,0,1.838-.824,11,11,0,0,0,2.236-1.13,4.291,4.291,0,0,0,.593-.626c.236-.252.62-.456.864-.693a1.763,1.763,0,0,0,.273-.393.829.829,0,0,1-.3-.675" transform="translate(-902.559 -66.709)" fill="#0e543b"/>
    <path id="패스_23361" data-name="패스 23361" d="M862.194,111.666a1.806,1.806,0,0,1-.565-.3c-.82.87-1.366,2.1-2.146,2.965a15.935,15.935,0,0,1-3.026,2.515,2.931,2.931,0,0,1-1.929.713,1.788,1.788,0,0,1-1.041-.67,2.789,2.789,0,0,1-1.061-.2l-.067-.029a2.9,2.9,0,0,1-.312-.154,2.73,2.73,0,0,1-.438-.314c-.06-.053-.117-.107-.171-.163a9.963,9.963,0,0,0-.856.851,8.705,8.705,0,0,0-.9,1.587,21.253,21.253,0,0,1-3.19,4.232,4.822,4.822,0,0,0-.95,1.145,3.65,3.65,0,0,0-.234.674h0l.945-.5,1.073-.571v0c.255-.359.51-.718.742-1.088a24.19,24.19,0,0,1,2.244-3.1c.278-.317.527-.649.77-.981.238.039.539.128.744.166a12.625,12.625,0,0,0,1.641.273,5.4,5.4,0,0,0,3.444-1.257c.337-.254.675-.52,1.008-.793a21.1,21.1,0,0,0,1.872-1.716c.444-.465.724-.977,1.14-1.46.285-.332.634-.584.924-.9a7.162,7.162,0,0,0,.56-.851l-.037-.007c-.064-.014-.126-.032-.186-.052" transform="translate(-750.99 -98.94)" fill="#0e543b"/>
    <path id="패스_23362" data-name="패스 23362" d="M814.87,176.01a1.716,1.716,0,0,1-.676-.453,2.155,2.155,0,0,1-.68.556,3.507,3.507,0,0,1-.834,2.349c-.071.222-.147.445-.232.668a25.051,25.051,0,0,1-1.864,3.268c-.041.072-.083.142-.125.212a9.643,9.643,0,0,1-.413.994l-.016.03h0l1.634-.868v0A11.379,11.379,0,0,0,813.2,179.8a13.413,13.413,0,0,1,.741-2.05c.288-.545.574-1.047.881-1.574a1.582,1.582,0,0,0,.045-.169" transform="translate(-719.65 -155.969)" fill="#0e543b"/>
    <path id="패스_23363" data-name="패스 23363" d="M714.157,249.571a1.921,1.921,0,0,1-.221.319l.156-.365-.025-.02a18.447,18.447,0,0,1-2.185,2.733,21.5,21.5,0,0,1-3.142,3.055l-.054.04,0,0,2.426-1.288.807-.428a16.285,16.285,0,0,0,1.475-1.724c.151-.207.3-.418.434-.633.269-.422.472-.966.755-1.43-.088-.046-.174-.095-.258-.148-.056-.036-.11-.075-.164-.114" transform="translate(-629.61 -221.666)" fill="#0e543b"/>
    <path id="패스_23364" data-name="패스 23364" d="M69.232,138.383q.447-.648.9-1.289a2.346,2.346,0,0,1,.628-2.207,2.9,2.9,0,0,1,.4-.361,1.285,1.285,0,0,1-.393-.459c-.972,1.3-1.889,2.669-2.792,4.054l-.257.4a1.768,1.768,0,0,1,1.52-.135" transform="translate(-60.157 -119.109)" fill="#0e543b"/>
    <path id="패스_23365" data-name="패스 23365" d="M23.156,200.143a12.967,12.967,0,0,1,1.828-2.9,2.657,2.657,0,0,1-.15-1.187,28.319,28.319,0,0,0-3.17,7.178c-.048.18-.1.36-.14.543a13.905,13.905,0,0,0-.342,3.279c0,.122,0,.265,0,.418a1.279,1.279,0,0,1,.34-.561l.029-.021a32.969,32.969,0,0,1,1.388-6.183c.065-.194.139-.383.219-.569" transform="translate(-18.816 -174.184)" fill="#0e543b"/>
    <path id="패스_23366" data-name="패스 23366" d="M495.254,336.124a30.674,30.674,0,0,0,1.665-3.624,2.812,2.812,0,0,1-1.28-.179,22.992,22.992,0,0,1-1.019,2.749c-.4.72-.585,1.485-.95,2.226-.028.058-.059.114-.091.17q.8-.605,1.6-1.215c.026-.043.05-.086.076-.128" transform="translate(-438.507 -295.242)" fill="#0e543b"/>
    <path id="패스_23367" data-name="패스 23367" d="M534.963,294.132a2.23,2.23,0,0,1-1.361-.51c-.036.012-.07.026-.106.038l-.379.123a2.936,2.936,0,0,1-1.419.632c-.946,1.561-2.751,2.86-3.768,4.337-.2.294-.393.6-.574.9-.054.12-.112.239-.177.354a2.38,2.38,0,0,1-.159.239l-.037.07a61.014,61.014,0,0,0,5.88-4.386c.712-.643,1.4-1.24,2.1-1.8" transform="translate(-468.181 -260.861)" fill="#0e543b"/>
    <path id="패스_23368" data-name="패스 23368" d="M624,212.938a20.338,20.338,0,0,0,2.473-1.547,21.358,21.358,0,0,0,2.485-2.161,19.707,19.707,0,0,0,1.667-1.813,7,7,0,0,0,.789-1.251,3.146,3.146,0,0,1-1.6-1.4c-.449.716-.751,1.5-1.219,2.218a15.277,15.277,0,0,1-2.072,2.515c-.182.179-.367.355-.555.523l-.4.359a2.247,2.247,0,0,1-.244.584,2.76,2.76,0,0,1-1.274,1.106,2.924,2.924,0,0,1-.664.2,1.863,1.863,0,0,1,0,1.015c.2-.117.408-.233.621-.347" transform="translate(-553.822 -181.915)" fill="#0e543b"/>
    <path id="패스_23369" data-name="패스 23369" d="M525.767,244.14a3.005,3.005,0,0,1-.21-.37c-.5.237-1,.448-1.522.7a3.768,3.768,0,0,0-.348.193c-.587.362-1.07.848-1.672,1.21l-.4.239a14.246,14.246,0,0,0-2.18,1.481c-2.958,2.548-6.133,4.773-9.021,7.421-1.328,1.218-2.677,2.416-4.039,3.539a17.442,17.442,0,0,1-1.478,1.084l-.016.035q-.208.47-.423.937-.2.433-.41.862l-.024.048.085-.053c1.655-1.034,3.276-2.084,4.892-3.136,1.888-1.229,3.123-3.39,4.845-4.9a52.287,52.287,0,0,1,4.832-3.672c1.36-.936,2.583-2.079,3.926-3.027l-.01-.007a.52.52,0,0,1-.19-.239.774.774,0,0,1,.047-.581,1.26,1.26,0,0,1,1.007-.788.57.57,0,0,1,.417.192.872.872,0,0,1,.1.127.927.927,0,0,1-.014-.2.9.9,0,0,1,1.193-.882.758.758,0,0,1,.1.052.807.807,0,0,1,.342.808c.3-.1.618-.193.93-.294a3.068,3.068,0,0,1-.754-.781" transform="translate(-447.787 -216.571)" fill="#0e543b"/>
    <path id="패스_23370" data-name="패스 23370" d="M320.723,337c.178-.337.357-.677.547-1.018.227-.408.442-.821.652-1.235.75-1.478,1.435-2.984,2.328-4.393.7-1.112,1.651-2.091,2.456-3.142a2.354,2.354,0,0,1-.591-.47A3.051,3.051,0,0,1,325,327.6a3.145,3.145,0,0,1-.509.181,4.323,4.323,0,0,1-2.633,3.816,4.788,4.788,0,0,1-1.152.359,4,4,0,0,1-1.578,4.329,4.814,4.814,0,0,1-.9.533c-.15.068-.3.127-.454.179l-.048.079c-1.058,1.67-3.642,2.664-5.272,3.706-2.44,1.559-4.925,2.259-6.721,4.555-.226.289-1.084,1.2-1.942,2.241q.022.119.045.236h0q.6-.295,1.195-.608l.675-.356,3.037-1.6,0-.005c.144-.15.291-.3.446-.438a12.872,12.872,0,0,1,5.517-3.021c.352-.082.681-.148.994-.215l3.111-1.645a8.511,8.511,0,0,0,.738-.923c.713-.432,1.4-.906,2.082-1.288a18.747,18.747,0,0,1,2-1.027l.085-.037q.307-.538.594-1.086.225-.429.443-.862l-1.023.579c-1.008.572-2.026,1.121-3.007,1.717" transform="translate(-269.893 -290.286)" fill="#0e543b"/>
    <path id="패스_23371" data-name="패스 23371" d="M304.758,415.918c1.4-.994,2.67-2.253,4.279-2.843a8.691,8.691,0,0,0,1.777-.786,3.829,3.829,0,0,1-1.7-.93c-.169.053-.337.112-.5.174a4.794,4.794,0,0,1-2.659,1.342,30.624,30.624,0,0,0-3.971,2.531,24.176,24.176,0,0,0-3.1,2.81,13.264,13.264,0,0,0,.317,3.385c1.13-2.322,3.634-4.314,5.56-5.683" transform="translate(-265.521 -365.461)" fill="#0e543b"/>
    <path id="패스_23372" data-name="패스 23372" d="M217.7,394.818a11.459,11.459,0,0,1,.613-2.8c.246-.589.584-1.127.882-1.694a13.621,13.621,0,0,1,1.567-2.544c.481-.566,1-1.02,1.494-1.511.058-.057.124-.133.2-.218a4.5,4.5,0,0,1-1.905-.106,4.144,4.144,0,0,1-2.785,3.4,14.123,14.123,0,0,0-.8,1.813,24.867,24.867,0,0,0-1.3,5.4,10.8,10.8,0,0,1-.819-2.775,6.518,6.518,0,0,1,.892-4.22,4.411,4.411,0,0,1-1.315-.372,9.707,9.707,0,0,0-.584,1.245,10.288,10.288,0,0,0,2.216,9.414,7.117,7.117,0,0,0,.894.789,6.488,6.488,0,0,0,1.381.784,10.47,10.47,0,0,1-.291-1.478,19.5,19.5,0,0,1-.334-5.127" transform="translate(-189.677 -342.884)" fill="#0e543b"/>
    <path id="패스_23373" data-name="패스 23373" d="M169.275,402.555c-.079-.127-.156-.254-.228-.379-.028-.048-.054-.1-.081-.145a9.4,9.4,0,0,1-.4-8.5c.131-.3.472-.749.752-1.211a3.943,3.943,0,0,1-.174-.476,4.373,4.373,0,0,1-.7.3c.116.562-.331,1.144-1,1.552a3.828,3.828,0,0,1-.955.413,3.371,3.371,0,0,1-1.028.129c-.02.074-.04.147-.057.217a1.714,1.714,0,0,1,1.283,1.833,3.592,3.592,0,0,1-.283,1.095,2.4,2.4,0,0,1-.835,1.215,1.563,1.563,0,0,1-.466.127,16.879,16.879,0,0,0,1.366,5.626,13.212,13.212,0,0,0,2.065,3.319,12.985,12.985,0,0,0,1.6,1.536h0l.206-.04q.634-.122,1.265-.267.653-.15,1.3-.323.9-.241,1.8-.526h0a16.514,16.514,0,0,1-5.426-5.5" transform="translate(-146.678 -348.122)" fill="#0e543b"/>
    <path id="패스_23374" data-name="패스 23374" d="M266.881,391.255c-.05-.07-.1-.141-.144-.214a3.395,3.395,0,0,1-.454-1.184,3.56,3.56,0,0,1-.016-1.162c-1.562,1.61-3.712,2.516-5.237,4.273q-.153.177-.3.366a6.528,6.528,0,0,0-1.415,5.288q.02.206.04.419a21.285,21.285,0,0,0,.981,5.218q.05.135.1.266h0l.089-.034.014-.005c.13-.05.26-.1.39-.151l.207-.083.3-.119q.36-.147.719-.3t.736-.325h0a7.677,7.677,0,0,1-1.043-2.382,8.89,8.89,0,0,1,1.6-7.24c1-1.407,2.044-1.691,3.427-2.629" transform="translate(-230.328 -345.326)" fill="#0e543b"/>
    <path id="패스_23375" data-name="패스 23375" d="M47.506,274.629c-.74-.507-1.526-.944-2.291-1.4a17.08,17.08,0,0,1-1.545-1.02c-.093-.07-.184-.141-.274-.215a26.543,26.543,0,0,1-6.7-8.608,6.528,6.528,0,0,0,2.468.518c.454.808,1.056.241.691-.4a2.229,2.229,0,0,1-1.932-.167,1.7,1.7,0,0,1-1.079-1.46,13.409,13.409,0,0,1-1.289-.969q-.212-.51-.408-1.023c-.072-.19-.138-.385-.2-.585a11.523,11.523,0,0,1-.364-1.651c-.007-.048-.014-.1-.021-.143s-.014-.106-.021-.159c-.066-.516-.106-1.046-.124-1.584a28.84,28.84,0,0,1,.5-5.945,1.194,1.194,0,0,1-.269-.989,2.062,2.062,0,0,1,.866-1.5,27.124,27.124,0,0,1,1.5-3.35,1.926,1.926,0,0,1-.192-1.522c0-.014.007-.029.012-.043a1.792,1.792,0,0,1-1.077-.629,2.525,2.525,0,0,1-.417-.764c-.028.015-.057.028-.086.042a12.866,12.866,0,0,0-1.774,4.715c-.445,2.586-1.322,4.883-1.326,7.566a20.6,20.6,0,0,0,.217,2.958q.033.232.071.463c-.131-.292-.25-.59-.359-.893a14.286,14.286,0,0,1-.538-1.886c-.472-2.211-1.039-4.205-.477-6.485a16.55,16.55,0,0,1,2.538-6.074,2.225,2.225,0,0,1,.243-.263l-.036-.012a1.727,1.727,0,0,1-.943-1.039,18.177,18.177,0,0,0-1.848,2.844q-.194.366-.365.739a16.39,16.39,0,0,0-.421,12.164,14.312,14.312,0,0,0,1.61,3.221,8.483,8.483,0,0,1,.76-1.408c.15.756.33,1.507.531,2.264l.056.21q.125.464.259.931l0,.013q.073.257.149.516a14.319,14.319,0,0,0,.727,1.928,29.87,29.87,0,0,0,6.12,8.269c.169.167.351.343.544.526.494.469,1.059.978,1.672,1.473a17.985,17.985,0,0,0,1.632,1.184h0q.315-.012.629-.03.633-.036,1.261-.094l.168-.015q.347-.034.692-.074.288-.034.575-.073h0c-.048-.028-.09-.053-.122-.074" transform="translate(-26.008 -213.323)" fill="#0e543b"/>
    <path id="패스_23376" data-name="패스 23376" d="M672.835,249.975a3.1,3.1,0,0,0-1.472-.06,1.025,1.025,0,0,0,.276-.585.807.807,0,0,0-.342-.808.769.769,0,0,0-.1-.052.9.9,0,0,0-1.193.882.916.916,0,0,0,.014.2.86.86,0,0,0-.1-.127.57.57,0,0,0-.417-.193,1.26,1.26,0,0,0-1.007.788.774.774,0,0,0-.047.581.519.519,0,0,0,.19.239l.01.007a1.351,1.351,0,0,0,.831.156c-.551.422-1.466,1.362-.451,1.905l0,0c.792.421,1.443-.24,1.6-.988-.13.627.706,1.473,1.35,1.183.235-.106.473-.754.473-.977,0-.614-.32-.635-.813-.92.847.294,2.233-.682,1.194-1.228" transform="translate(-593.834 -220.686)" fill="#00adec"/>
    <path id="패스_23377" data-name="패스 23377" d="M27.422,433a1.452,1.452,0,0,0-.5-.106c-.052,0-.106-.007-.16-.009a3.443,3.443,0,0,0-.817.055.9.9,0,0,0-.164-1.445.79.79,0,0,0-.169-.051.942.942,0,0,0-1.009,1.129.609.609,0,0,0-.52-.319c-.876-.008-1.922,1.876-.018,1.771-.551.422-1.466,1.362-.451,1.905.793.425,1.446-.237,1.6-.987a1.19,1.19,0,0,0,.738,1.168.751.751,0,0,0,.612.014.942.942,0,0,0,.334-.467,2.356,2.356,0,0,0,.087-.24c.006-.019.011-.037.016-.055a.929.929,0,0,0,.037-.216.758.758,0,0,0-.13-.49.951.951,0,0,0-.326-.241c-.1-.055-.224-.113-.357-.189a1.065,1.065,0,0,0,.389.052,1.439,1.439,0,0,0,.266-.036,1.218,1.218,0,0,0,.888-.646.394.394,0,0,0,0-.239.652.652,0,0,0-.353-.359" transform="translate(-20.434 -383.295)" fill="#00adec"/>
    <path id="패스_23378" data-name="패스 23378" d="M645.566,106.483c-.42.249-1.115.8-.343,1.123a.88.88,0,0,0,1.217-.582c-.1.37.537.868,1.027.7a.853.853,0,0,0,.36-.576c0-.362-.244-.374-.619-.542.644.173,1.7-.4.908-.724a3.023,3.023,0,0,0-1.12-.035.471.471,0,0,0-.125-.852c-.5-.171-.995.24-.9.636-.6-.737-2.176.931-.409.856" transform="translate(-572.813 -93.242)" fill="#00adec"/>
    <path id="패스_23379" data-name="패스 23379" d="M174.492,150.468c-.5-.171-.995.24-.9.636-.6-.738-2.176.931-.409.856-.42.249-1.115.8-.343,1.123a.88.88,0,0,0,1.217-.582c-.1.37.537.868,1.027.7a.853.853,0,0,0,.36-.576c0-.362-.243-.374-.619-.543.644.173,1.7-.4.908-.724a3.023,3.023,0,0,0-1.12-.035.471.471,0,0,0-.125-.852" transform="translate(-153.14 -133.644)" fill="#00adec"/>
    <path id="패스_23380" data-name="패스 23380" d="M793.061,52.6c.045.486.247,1.352.868.791a.88.88,0,0,0,0-1.349c.292.248,1.015-.113,1.07-.63a.853.853,0,0,0-.366-.572c-.327-.156-.442.06-.755.327.433-.508.364-1.708-.265-1.131a3.025,3.025,0,0,0-.512,1,.471.471,0,0,0-.823-.252.646.646,0,0,0,.19,1.083c-.925.23-.09,2.365.6.736" transform="translate(-703.679 -44.315)" fill="#00adec"/>
    <path id="패스_23381" data-name="패스 23381" d="M1072.385,47.236a.771.771,0,0,0,.809-.945.642.642,0,0,0-.214-.3.84.84,0,0,0-1.148.191c.32-1.227-2.656-.869-1.223.509-.529-.09-1.5-.118-1.491.581a.992.992,0,0,0,.036.248c.2.745.991.767,1.55.426a.924.924,0,0,0-.361.8.83.83,0,0,0,.3.675.568.568,0,0,0,.111.064,1.325,1.325,0,0,0,.888-.273c.385-.357.211-.57.1-1.046.309.7,1.729,1,1.465.032a2.653,2.653,0,0,0-.82-.957" transform="translate(-949.829 -40.363)" fill="#00adec"/>
    <path id="패스_23382" data-name="패스 23382" d="M1117.035,24.471a3.026,3.026,0,0,0-1.146-.867.983.983,0,0,0,.429-.2.8.8,0,0,0,.243-1.045.9.9,0,0,0-1.544.208c.06-1.444-3.17-.325-1.239.864-.677.031-1.932.275-1.421,1.276l0,.008c.4.772,1.288.6,1.825.091-.453.43-.254,1.573.424,1.7.247.046.8-.341.923-.52.343-.491.1-.687-.14-1.19.515.707,2.169.7,1.64-.32" transform="translate(-988.138 -19.44)" fill="#00adec"/>
    <path id="패스_23383" data-name="패스 23383" d="M152.276,32.545l-.048-.018c.014-.029.027-.058.039-.088a1.451,1.451,0,0,0-.008-1.054,2.491,2.491,0,0,0-1.439-1.373,2.034,2.034,0,0,0-2.72.766,1.331,1.331,0,0,0-.046.138,2.909,2.909,0,0,0-.477-.243,2.034,2.034,0,0,0-2.72.766,1.721,1.721,0,0,0,.539,1.845,1.361,1.361,0,0,0-.338.488l0,.006c0,.011-.007.023-.011.035-.066.023-.132.049-.2.079l-.029.014c0-.018,0-.036,0-.054a1.6,1.6,0,0,0-.14-.758,1.886,1.886,0,0,0-2.539-.785,1.98,1.98,0,0,0-1.214,1.88,2.061,2.061,0,0,0-1.806-.019,1.963,1.963,0,0,0-1.2,1.966,1.585,1.585,0,0,0,.129.465c.016.035.034.069.052.1a4.15,4.15,0,0,0-1.5.37l-.054.026a3.13,3.13,0,0,0,0-.509,3.009,3.009,0,0,0-.262-1.03,3.576,3.576,0,0,0-4.815-1.489,3.754,3.754,0,0,0-2.3,3.564,3.909,3.909,0,0,0-3.425-.036,4,4,0,0,0-2.024,2.014,3.86,3.86,0,0,0-1.685-1.268c-1.655-.659-3.406-.166-3.911,1.1a1.925,1.925,0,0,0-.066.2,4.176,4.176,0,0,0-.686-.35c-1.655-.659-3.406-.166-3.911,1.1a2.474,2.474,0,0,0,.775,2.653,1.956,1.956,0,0,0-.49.711c-.017.043-.032.086-.046.13a2.924,2.924,0,0,0-.593.187,2.477,2.477,0,0,0-1.579,2.239,2.634,2.634,0,0,0-2.227,0,2.477,2.477,0,0,0-1.579,2.234c-.061.023-.122.048-.182.075l-.04.019A2.257,2.257,0,0,0,107.3,47.5a2.654,2.654,0,0,0-3.573-1.105,2.786,2.786,0,0,0-1.709,2.645,2.9,2.9,0,0,0-2.542-.027,2.654,2.654,0,0,0-1.512,3.421A2.288,2.288,0,0,0,98.987,53.5a4.662,4.662,0,0,0-2.378.408l-.062.029a3.469,3.469,0,0,0-.3-1.756,4.078,4.078,0,0,0-5.491-1.7,4.282,4.282,0,0,0-2.626,4.065,4.458,4.458,0,0,0-3.906-.041A4.723,4.723,0,0,0,82.716,55.6a4.393,4.393,0,0,0-2.838-1.025h-.069a3.938,3.938,0,0,0,.459-1.847,4.2,4.2,0,0,0-4.294-4.1,4.283,4.283,0,0,0-4.074,2.8,4.348,4.348,0,0,0-3.538-1.778,4.472,4.472,0,0,0-1.146.149,4.393,4.393,0,0,0-.608.209,1.928,1.928,0,0,0,.163-.755c0-.009,0-.017,0-.026a1.93,1.93,0,0,0-.085-.568,2.3,2.3,0,0,0,1.019-1.167c.388-1.236-.385-2.279-1.673-1.92,1.506-.654,4.021-2.852,1.9-4.494-1.345-1.039-3.113.611-4.237.906a.718.718,0,0,1-.733-.121c.224-.183.432-.356.625-.523,1.61-1.4,2.166-2.369,2.388-4.939a16.125,16.125,0,0,0,.094-1.8,1.744,1.744,0,0,0,.927-1.994c.659,1.228,2.767,1.229,2.493-.5a2.448,2.448,0,0,0-.915-1.308,1.142,1.142,0,0,0-.21-.122,1.692,1.692,0,0,0,.809-2.3,1.329,1.329,0,0,0-.185-.239.792.792,0,0,0,.148-.237,1.2,1.2,0,0,0-.852-1.428l-.028-.011c.008-.017.016-.034.023-.052a1.106,1.106,0,0,0-.564-1.28,1.393,1.393,0,0,0,.242-.1.98.98,0,0,0,.585-1.229.657.657,0,0,0-.186-.222.829.829,0,0,0,.175-.909.98.98,0,0,0-1.339-.245l-.022.012c-.006-.014-.012-.028-.02-.042a1.12,1.12,0,0,0-1.924.985.662.662,0,0,0,.035.06,1.39,1.39,0,0,0-.24.1.98.98,0,0,0-.585,1.229.829.829,0,0,0,.84.39.678.678,0,0,0,.019.141,1.132,1.132,0,0,0-1.379.521.921.921,0,0,0,.119.846,2.3,2.3,0,0,0-.316.05c-.692.159-.839.7-.924,1.283-.12.821.207,1.117.84,1.578A1.756,1.756,0,0,0,61,31.214l0,.011a2.384,2.384,0,0,0-2.055.84,2.229,2.229,0,0,0-.526,2.448,1.285,1.285,0,0,0,.393.459,2.919,2.919,0,0,0-.4.361,2.346,2.346,0,0,0-.628,2.207c.014.043.029.085.046.127a3.184,3.184,0,0,0-.81,1.158L57,38.878c-.033-.017-.067-.032-.1-.047l-.01,0a1.768,1.768,0,0,0-1.52.135,3,3,0,0,0-1.3,1.5,3.281,3.281,0,0,0-.239.963,2.659,2.659,0,0,0,.15,1.187,1.924,1.924,0,0,0,.359.595,1.575,1.575,0,0,0,.571.412,1.538,1.538,0,0,0,.158.055,3.354,3.354,0,0,0-.211.382c-.026.055-.054.109-.078.166a3.382,3.382,0,0,0-.149.447,2.833,2.833,0,0,0,.047,1.671,1.727,1.727,0,0,0,.943,1.039l.036.012a1.745,1.745,0,0,0,1.406-.1c.029-.014.058-.026.086-.042a2.527,2.527,0,0,0,.417.764,1.792,1.792,0,0,0,1.077.629c0,.014-.008.029-.012.043a1.933,1.933,0,0,0,.865,2.2,2.961,2.961,0,0,0,.581,1.948,6.286,6.286,0,0,0-2.755.725,2.062,2.062,0,0,0-.866,1.5,1.194,1.194,0,0,0,.269.989,2.7,2.7,0,0,0,.767.569,1.645,1.645,0,0,0,.925.252,2.561,2.561,0,0,0,1.174-.527,2.187,2.187,0,0,0-.017,3.283,1.685,1.685,0,0,0,.727.319c1.3.24,2.625-1.765,2.237-2.974-.007-.022-.014-.045-.022-.066l.048.049a3.05,3.05,0,0,0,1.775.88,3.983,3.983,0,0,0-.247.564,3.929,3.929,0,0,0-.149.541,2.287,2.287,0,0,0-1.914,2.168,2.188,2.188,0,0,0,.035.53,1.78,1.78,0,0,0-.483-.52,1.548,1.548,0,0,0-1.682.03,3.488,3.488,0,0,0-1.327,1.38c-.654,1.233-.4,2.684,2.221,2.539-.883.676-2.16,1.914-2.144,3.041a1.7,1.7,0,0,0,1.079,1.46,2.229,2.229,0,0,0,1.932.167l.091-.039a3.158,3.158,0,0,0,1.53-1.719,4.155,4.155,0,0,0,.226-.739,2.48,2.48,0,0,0,.8,2.1,2.439,2.439,0,0,0,1.929.822,1.562,1.562,0,0,0,.465-.127,2.4,2.4,0,0,0,.835-1.215,3.589,3.589,0,0,0,.283-1.095,1.713,1.713,0,0,0-1.283-1.833c-.2-.1-.409-.208-.638-.341a2.4,2.4,0,0,0,.7.125,3.372,3.372,0,0,0,1.028-.129,3.831,3.831,0,0,0,.955-.413c.668-.408,1.115-.99,1-1.552a4.374,4.374,0,0,0,.7-.3,3.954,3.954,0,0,0,.174.475,4.087,4.087,0,0,0,.809,1.2,4.236,4.236,0,0,0,.376.344,4.314,4.314,0,0,0,.529.367,4.358,4.358,0,0,0,.386.2,4.414,4.414,0,0,0,1.315.372,4.536,4.536,0,0,0,.546.033,4.462,4.462,0,0,0,1.483-.252,4.145,4.145,0,0,0,2.785-3.4,4.5,4.5,0,0,0,1.905.106,4.408,4.408,0,0,0,.859-.227,4.3,4.3,0,0,0,1.765-1.232,3.921,3.921,0,0,0,.938.438,3.969,3.969,0,0,0-.395,1.222,3.559,3.559,0,0,0,.016,1.162,3.4,3.4,0,0,0,.454,1.184c.045.074.094.145.144.214a3.637,3.637,0,0,0,1.566,1.22,4.357,4.357,0,0,0,2.317.265,4.8,4.8,0,0,0,2.659-1.343,4.5,4.5,0,0,0,.323-.358c.058.064.118.125.18.184a3.828,3.828,0,0,0,1.7.931,4.282,4.282,0,0,0,.565.106,4.6,4.6,0,0,0,2.021-.219c.152-.052.3-.111.454-.179a4.81,4.81,0,0,0,.9-.533,4,4,0,0,0,1.578-4.329,4.791,4.791,0,0,0,1.152-.359,4.323,4.323,0,0,0,2.633-3.816,3.148,3.148,0,0,0,.509-.181,3.053,3.053,0,0,0,1.117-.861,2.354,2.354,0,0,0,.591.47,2.537,2.537,0,0,0,.319.152,2.813,2.813,0,0,0,1.28.179,3.024,3.024,0,0,0,.486-.083,3.141,3.141,0,0,0,.523-.183,2.7,2.7,0,0,0,1.611-3.164,3.114,3.114,0,0,0,.75-.234,3.147,3.147,0,0,0,.367-.2,2.487,2.487,0,0,0,1.182.18q.092-.008.184-.022a2.936,2.936,0,0,0,1.419-.632,2.72,2.72,0,0,0,.324-.316,1.817,1.817,0,0,0,.161.155,2.23,2.23,0,0,0,1.361.51,2.832,2.832,0,0,0,1.265-.242,2.626,2.626,0,0,0,1.508-1.66,1.862,1.862,0,0,0,0-1.015,2.93,2.93,0,0,0,.664-.2,2.762,2.762,0,0,0,1.274-1.107,2.251,2.251,0,0,0,.244-.584l.4-.36c.188-.168.372-.343.555-.523a15.278,15.278,0,0,0,2.072-2.515c.468-.72.77-1.5,1.219-2.218a3.147,3.147,0,0,0,1.605,1.4c.087.035.175.068.265.1a3.551,3.551,0,0,0-.27.7,3.181,3.181,0,0,0-.069,1.349,3.09,3.09,0,0,0,.228.749c.008.018.018.036.026.054a3,3,0,0,0,.21.37,3.071,3.071,0,0,0,.754.781,3.688,3.688,0,0,0,2.726.614,4.206,4.206,0,0,0,1.866-.783,4.026,4.026,0,0,0,.738-.707,3.093,3.093,0,0,0,.392.365l.025.02c.021.016.043.03.065.046.054.039.108.078.164.114.083.053.17.1.258.148a3.586,3.586,0,0,0,1.086.355,4.058,4.058,0,0,0,2.322-.327,4.222,4.222,0,0,0,.644-.365,3.541,3.541,0,0,0,1.537-3.861c0-.012-.007-.025-.011-.037l.026-.005a4.181,4.181,0,0,0,1.563-.631,4.045,4.045,0,0,0,.894-.8,3.507,3.507,0,0,0,.834-2.349,2.158,2.158,0,0,0,.68-.556,1.717,1.717,0,0,0,.676.453,2.092,2.092,0,0,0,1.6-.073,1.917,1.917,0,0,0,1.145-2.248,2.215,2.215,0,0,0,.533-.166,2.251,2.251,0,0,0,.2-.1,2.13,2.13,0,0,0,.678-.621,2.483,2.483,0,0,0,.847-.028,2.3,2.3,0,0,0,.229.284c.053.056.111.11.171.163a2.731,2.731,0,0,0,.438.315,2.927,2.927,0,0,0,.312.154c.023.01.044.02.067.029a2.789,2.789,0,0,0,1.061.2,2.213,2.213,0,0,0,.819-.161,1.569,1.569,0,0,0,.673-.508,1.339,1.339,0,0,0,.167-.3,1.361,1.361,0,0,0,.093-.593,1.721,1.721,0,0,0,1.66-.969,2.034,2.034,0,0,0-1.448-2.426M112.353,47.419a1.539,1.539,0,1,1,2.295,2.048,1.653,1.653,0,0,1-.171.163,1.6,1.6,0,0,1-1.024.379,1.5,1.5,0,0,1-1.012-.379,1.565,1.565,0,0,1-.088-2.211m-8,2.357c1.347-.207,2.523.165,2.625.831s-.907,1.374-2.254,1.581-2.523-.165-2.625-.831.907-1.374,2.254-1.581M62.284,48a1.739,1.739,0,1,1,1.379-1.969A1.7,1.7,0,0,1,62.284,48m1.962,17.983c-.052.012-.105.023-.16.031a2.3,2.3,0,0,1-.421.025,1.6,1.6,0,0,1-1.64-1.212,1.209,1.209,0,0,1-.01-.263,1.789,1.789,0,0,1,1.619-1.489,2.194,2.194,0,0,1,1.009.076A1.449,1.449,0,0,1,65.7,64.267a1.665,1.665,0,0,1-1.45,1.721m9.79-6.6A2.543,2.543,0,0,1,71.186,57.2a2.641,2.641,0,0,1,.525-2.038,2.418,2.418,0,0,1,1.537-.906A2.543,2.543,0,0,1,76.1,56.443a2.716,2.716,0,0,1,.029.539,2.515,2.515,0,0,1-2.091,2.4m15.428-1.015a1.738,1.738,0,0,1,.055-.433,2.888,2.888,0,0,1,2.925-1.823,3.447,3.447,0,0,1,2.237.766,1.971,1.971,0,0,1,.743,1.489c0,1.246-1.334,2.255-2.98,2.255s-2.98-1.01-2.98-2.255m43.119-14.6a2.563,2.563,0,0,1-2.885-2.193c0-.023-.006-.046-.009-.069a2.56,2.56,0,0,1,2.1-2.89c.08-.012.161-.02.24-.025a2.612,2.612,0,0,1,.552,5.176m15.025-11.646c.271-.47,1.232-.429,2.2.073.061.032.122.065.183.1,1.03.594,1.631,1.481,1.342,1.98s-1.356.422-2.386-.173a3.326,3.326,0,0,1-1.27-1.2.8.8,0,0,1-.073-.779" transform="translate(-47.814 -19.553)" fill="#00adec"/>
    <path id="패스_23384" data-name="패스 23384" d="M319.949,221.027a.693.693,0,0,0,.493.827.946.946,0,0,1,.937.373.693.693,0,0,0,.927-.261.464.464,0,0,0,.031-.2.586.586,0,0,0,.566-.33.693.693,0,0,0-.493-.827l-.016-.006c0-.01.009-.02.013-.03a.792.792,0,0,0-1.42-.566.445.445,0,0,0-.016.047.994.994,0,0,0-.163-.083.693.693,0,0,0-.927.261.586.586,0,0,0,.184.629.462.462,0,0,0-.116.168" transform="translate(-284.161 -195.164)" fill="#00adec"/>
    <path id="패스_23385" data-name="패스 23385" d="M862.464,52.238a.461.461,0,0,0,.075.19.693.693,0,0,0,.961.051.906.906,0,0,0,.334-.4.907.907,0,0,0,.5-.165.693.693,0,0,0,.3-.915.466.466,0,0,0-.151-.139.586.586,0,0,0,.041-.654.693.693,0,0,0-.961-.051l-.014.01-.017-.028a.792.792,0,0,0-1.261.864.426.426,0,0,0,.03.039.985.985,0,0,0-.16.089.693.693,0,0,0-.3.915.586.586,0,0,0,.624.2" transform="translate(-765.606 -44.347)" fill="#00adec"/>
    <path id="패스_23386" data-name="패스 23386" d="M911.259,46.26a.282.282,0,0,0,.024.131c.083.174.353.137.6-.082a1.082,1.082,0,0,0,.262-.339.772.772,0,0,0,.336-.183c.25-.219.386-.537.3-.71a.183.183,0,0,0-.078-.083.544.544,0,0,0,.107-.486c-.083-.174-.353-.137-.6.082l-.01.009-.008-.018c-.083-.174-.353-.137-.6.082s-.387.537-.3.71a.221.221,0,0,0,.014.025,1.011,1.011,0,0,0-.112.085c-.25.219-.387.537-.3.71.057.12.2.139.371.068" transform="translate(-809.232 -39.444)" fill="#00adec"/>
    <path id="패스_23387" data-name="패스 23387" d="M976.3,56.754a1.458,1.458,0,0,0,.218-.593.977.977,0,0,0-.164-.7,1.367,1.367,0,0,0-1.9-.062l-.028.021c-.011-.018-.023-.036-.036-.054a1.561,1.561,0,0,0-2.452,1.755A.89.89,0,0,0,972,57.2a1.957,1.957,0,0,0-.63.468,1.535,1.535,0,0,0-1.223-1.064,1.367,1.367,0,0,0-1.721.8.886.886,0,0,0-.015.1,1.942,1.942,0,0,0-.343-.11,1.367,1.367,0,0,0-1.721.8,1.152,1.152,0,0,0,.547,1.157l.011.008a.914.914,0,0,0-.173.365,1.332,1.332,0,0,0,1.1,1.42c.04.011.081.023.122.032a1.939,1.939,0,0,0,.347.044,1.7,1.7,0,0,0,.686-.11,1.551,1.551,0,0,0,.158.143,1.8,1.8,0,0,0,.565.3c.061.02.122.038.186.052l.037.007a1.686,1.686,0,0,0,1.23-.192.99.99,0,0,0,.454-.617.913.913,0,0,0,0-.4,1.3,1.3,0,0,0,.841-.485c.011-.015.023-.03.033-.046.013.022.026.044.041.065a.9.9,0,0,0,.07.085.922.922,0,0,0,.216.171,1.063,1.063,0,0,0,.264.108,1.652,1.652,0,0,0,1.348-.3,1.787,1.787,0,0,0,.641-.812,1.788,1.788,0,0,0,.976-.345,1.367,1.367,0,0,0,.554-1.816.915.915,0,0,0-.3-.268" transform="translate(-858.506 -48.828)" fill="#00adec"/>
    <path id="패스_23388" data-name="패스 23388" d="M378.513,328.458a3.447,3.447,0,0,0-2.237-.766,2.888,2.888,0,0,0-2.925,1.823,1.732,1.732,0,0,0-.055.433c0,1.246,1.334,2.255,2.98,2.255s2.98-1.01,2.98-2.255a1.972,1.972,0,0,0-.743-1.489" transform="translate(-331.644 -291.129)" fill="#efa1ac"/>
    <path id="패스_23389" data-name="패스 23389" d="M211.277,310.787a2.418,2.418,0,0,0-1.537.906,2.64,2.64,0,0,0-.525,2.038,2.543,2.543,0,0,0,2.851,2.188,2.515,2.515,0,0,0,2.091-2.4,2.716,2.716,0,0,0-.029-.539,2.543,2.543,0,0,0-2.851-2.188" transform="translate(-185.843 -276.085)" fill="#efa1ac"/>
    <path id="패스_23390" data-name="패스 23390" d="M114.33,227.509a1.739,1.739,0,1,0-1.908-1.464,1.7,1.7,0,0,0,1.908,1.464" transform="translate(-99.86 -199.057)" fill="#efa1ac"/>
    <path id="패스_23391" data-name="패스 23391" d="M129.888,389.965a2.195,2.195,0,0,0-1.009-.076,1.789,1.789,0,0,0-1.619,1.489,1.2,1.2,0,0,0,.01.263,1.6,1.6,0,0,0,1.64,1.212,2.3,2.3,0,0,0,.421-.025c.054-.008.107-.019.16-.031a1.665,1.665,0,0,0,1.45-1.721,1.449,1.449,0,0,0-1.052-1.112" transform="translate(-113.058 -346.362)" fill="#efa1ac"/>
    <path id="패스_23392" data-name="패스 23392" d="M488.727,270.415c-1.347.207-2.357.915-2.254,1.581s1.278,1.038,2.625.831,2.357-.915,2.254-1.581-1.278-1.038-2.625-.831" transform="translate(-432.187 -240.192)" fill="#efa1ac"/>
    <path id="패스_23393" data-name="패스 23393" d="M735.977,170.615c-.08,0-.16.012-.24.025a2.56,2.56,0,0,0-2.1,2.89c0,.023.005.046.009.069a2.52,2.52,0,1,0,2.333-2.983" transform="translate(-651.759 -151.575)" fill="#efa1ac"/>
    <path id="패스_23394" data-name="패스 23394" d="M577.333,245.253a1.592,1.592,0,0,0-2.119,2.375,1.5,1.5,0,0,0,1.012.379,1.6,1.6,0,0,0,1.024-.379,1.651,1.651,0,0,0,.171-.163,1.565,1.565,0,0,0-.088-2.211" transform="translate(-510.587 -217.551)" fill="#efa1ac"/>
    <path id="패스_23395" data-name="패스 23395" d="M896.229,110.211c-.061-.035-.122-.068-.183-.1-.97-.5-1.931-.542-2.2-.073a.8.8,0,0,0,.073.779,3.326,3.326,0,0,0,1.27,1.2c1.03.594,2.1.672,2.386.173s-.313-1.386-1.342-1.98" transform="translate(-794.047 -97.468)" fill="#efa1ac"/>
  </g>
</svg>
