<svg id="PPS_10" xmlns="http://www.w3.org/2000/svg" xmlns:xlink="http://www.w3.org/1999/xlink" width="119.146" height="88.605" viewBox="0 0 119.146 88.605">
  <defs>
    <clipPath id="clip-path">
      <rect id="사각형_6134" data-name="사각형 6134" width="119.146" height="88.605" fill="none"/>
    </clipPath>
  </defs>
  <g id="그룹_11581" data-name="그룹 11581" clip-path="url(#clip-path)">
    <path id="패스_27220" data-name="패스 27220" d="M19.367.074a27.052,27.052,0,0,1,7.157.973A44.418,44.418,0,0,1,48.885,15.6c.877,1.282,1.7,2.611,2.454,3.951a.5.5,0,0,1,0,.513.551.551,0,0,1-.464.273.515.515,0,0,1-.34-.134A30.852,30.852,0,0,0,44.7,16.137a16.761,16.761,0,0,0-7.751-2.145c-3.721,0-7.043,1.681-9.874,5h0v0l0,0L27.066,19a14.94,14.94,0,0,0-2.386,8.5,34.291,34.291,0,0,0,1.853,10.469c2.1,6.565,5.99,14.316,11.557,23.036,4.952,7.756,10.345,14.861,14,19.455,3.259,4.1,5.749,6.984,6.541,7.891A146.711,146.711,0,0,1,28.733,67.5,118.366,118.366,0,0,1,17.614,55.958a93.454,93.454,0,0,1-8.338-11.6v0A56.316,56.316,0,0,1,1.279,27.145,34.3,34.3,0,0,1,.09,17.427,21,21,0,0,1,2.32,8.4C4.185,4.8,7.686,2.3,12.726.943A25.617,25.617,0,0,1,19.367.074m0-.074a25.664,25.664,0,0,0-6.66.871C8.458,2.012,4.4,4.221,2.254,8.363c-5.79,11.156.68,26.969,6.959,36.031h0c9.233,15.314,26.11,31.72,49.735,44.212,0,0-44.848-50.519-31.821-69.561l.006-.008c3.122-3.656,6.53-4.971,9.818-4.971,5.466,0,10.6,3.634,13.537,6.192a.585.585,0,0,0,.388.152.6.6,0,0,0,.526-.9c-.634-1.13-1.453-2.489-2.459-3.959A44.452,44.452,0,0,0,26.543.976,27.141,27.141,0,0,0,19.367,0" transform="translate(0 0)" fill="#fff"/>
    <path id="패스_27221" data-name="패스 27221" d="M478.609,6.1a25.648,25.648,0,0,1,7.153,1.008c5.012,1.455,8.462,4.033,10.254,7.663a21.007,21.007,0,0,1,2.048,9.073,34.312,34.312,0,0,1-1.385,9.692,56.319,56.319,0,0,1-8.34,17.042v0a93.439,93.439,0,0,1-8.57,11.432,118.364,118.364,0,0,1-11.35,11.318,146.71,146.71,0,0,1-30.308,20.241c.81-.89,3.357-3.724,6.7-7.758a234.954,234.954,0,0,0,14.386-19.169c5.743-8.606,9.786-16.277,12.02-22.8a34.29,34.29,0,0,0,2.064-10.43,14.94,14.94,0,0,0-2.216-8.547l0,0,0,0v0c-2.826-3.448-6.2-5.2-10.024-5.2a17.037,17.037,0,0,0-7.648,2.046,31,31,0,0,0-5.807,3.892.517.517,0,0,1-.333.127.549.549,0,0,1-.466-.277.5.5,0,0,1,.01-.517c.779-1.325,1.631-2.637,2.533-3.9a44.417,44.417,0,0,1,22.65-14.1,27.134,27.134,0,0,1,6.644-.834Zm0-.074a27.192,27.192,0,0,0-6.662.836,44.453,44.453,0,0,0-22.69,14.125h0c-1.035,1.449-1.882,2.792-2.539,3.909a.6.6,0,0,0,.519.906.586.586,0,0,0,.38-.144c2.943-2.461,8.036-5.921,13.409-5.921,3.366,0,6.842,1.358,9.966,5.17l.006.008c12.64,19.3-33.218,68.905-33.218,68.905,23.873-12.013,41.077-28.076,50.617-43.2,6.46-8.933,13.248-24.613,7.684-35.883-2.066-4.184-6.075-6.475-10.3-7.7a25.719,25.719,0,0,0-7.174-1.011" transform="translate(-378.993 -5.217)" fill="#fff"/>
    <path id="패스_27222" data-name="패스 27222" d="M226.284,216.819c-.015-.119-.031-.238-.05-.356-.69-4.271-2.51-16.663-2.483-21.16l-.02-.019a15.5,15.5,0,0,1-3.874-6.784,14.75,14.75,0,0,0,.478,6.845l.009.033a21.608,21.608,0,0,0,1.45,3.925c.751,1.554,1.7,3.841,1.966,4.485a.321.321,0,0,1-.02.294.3.3,0,0,1-.515-.022l-.086-.167a42.085,42.085,0,0,0-8.064-10.97c-3.082-2.92-6.319-4.588-8.364-3.875-2.633.87-3.893,5.291-2.687,10.341a36.1,36.1,0,0,1,10.566,7.466l.045.046.022.051a12.123,12.123,0,0,1,1.286,5.492c-.149,1.453-.939,1.774-1.574,1.8a3.444,3.444,0,0,1-1.919-.789,12.965,12.965,0,0,1-1.439-1.189,14.562,14.562,0,0,1-1.364-1.689.1.1,0,0,0-.173.077s1.9,12.205,9.425,16.244.94-13.43-2.951-18.246a.133.133,0,0,1,.214-.156l.006.006a47.738,47.738,0,0,1,2.816,3.917c.1.159,4.777,7.834,5.061,13.867a.319.319,0,0,0,.569.18c.883-1.111,2.431-3.948,1.67-9.646" transform="translate(-176.229 -163.187)" fill="#a70719"/>
    <path id="패스_27223" data-name="패스 27223" d="M219.872,188.8a15.575,15.575,0,0,0,3.8,6.532c-.019,4.594,1.833,17.109,2.484,21.141.017.108.034.223.05.354a17.2,17.2,0,0,1-.216,6.516,8.169,8.169,0,0,1-1.438,3.075.244.244,0,0,1-.437-.138c-.284-6.014-4.877-13.583-5.073-13.9a48.06,48.06,0,0,0-2.82-3.923v0h0l-.006-.006a.2.2,0,0,0-.151-.07.212.212,0,0,0-.18.1.205.205,0,0,0,0,.207l0,.006,0,.005a36.931,36.931,0,0,1,4.723,9.223c1.53,4.18,2.031,7.365,1.375,8.738a1.237,1.237,0,0,1-1.206.766,4.146,4.146,0,0,1-1.848-.592,13.918,13.918,0,0,1-4.621-4.219,24.966,24.966,0,0,1-2.878-5.377,34.371,34.371,0,0,1-1.887-6.594v-.007a.019.019,0,0,1,0-.018.027.027,0,0,1,.021-.01.019.019,0,0,1,.017.01,14.755,14.755,0,0,0,1.374,1.7,13.087,13.087,0,0,0,1.447,1.2,3.581,3.581,0,0,0,1.911.8h.053c.666-.026,1.491-.37,1.644-1.865a12.292,12.292,0,0,0-1.292-5.528l-.022-.051-.005-.012-.01-.01-.044-.045a36.033,36.033,0,0,0-10.557-7.469,14,14,0,0,1-.088-6.666c.5-1.873,1.472-3.135,2.736-3.553a3.067,3.067,0,0,1,1.011-.16c1.929,0,4.582,1.465,7.278,4.019a42.111,42.111,0,0,1,8.049,10.95l.086.167a.368.368,0,0,0,.643.028.394.394,0,0,0,.026-.361c-.272-.661-1.219-2.938-1.968-4.489a21.587,21.587,0,0,1-1.445-3.912l0-.008-.007-.026a15.293,15.293,0,0,1-.534-6.523m-.015-.3a14.748,14.748,0,0,0,.478,6.845l.009.033a21.615,21.615,0,0,0,1.45,3.925c.751,1.554,1.7,3.841,1.966,4.485a.321.321,0,0,1-.02.294.295.295,0,0,1-.515-.022l-.086-.167a42.088,42.088,0,0,0-8.064-10.97c-2.6-2.466-5.316-4.039-7.328-4.039a3.128,3.128,0,0,0-1.035.164c-2.633.87-3.893,5.291-2.687,10.341a36.1,36.1,0,0,1,10.567,7.466l.045.046.022.051a12.121,12.121,0,0,1,1.286,5.492c-.148,1.452-.939,1.774-1.574,1.8h-.051a3.559,3.559,0,0,1-1.869-.79,12.947,12.947,0,0,1-1.439-1.189,14.553,14.553,0,0,1-1.364-1.689.093.093,0,0,0-.078-.043.1.1,0,0,0-.095.12s1.9,12.205,9.425,16.244a4.181,4.181,0,0,0,1.883.6c4.325,0-1.341-14.523-4.834-18.847a.136.136,0,0,1,.118-.2.127.127,0,0,1,.1.046l.006.006a47.767,47.767,0,0,1,2.816,3.917c.1.159,4.776,7.834,5.061,13.867a.318.318,0,0,0,.569.181c.883-1.111,2.431-3.948,1.67-9.646-.015-.119-.031-.238-.05-.356-.69-4.271-2.51-16.663-2.483-21.16l-.02-.019a15.5,15.5,0,0,1-3.874-6.784" transform="translate(-176.228 -163.187)" fill="#fff"/>
    <path id="패스_27224" data-name="패스 27224" d="M516.314,192.507a10.532,10.532,0,0,0-9.361.833,10.291,10.291,0,0,0-1.02.739,11.3,11.3,0,0,1-.639,4.058,16.434,16.434,0,0,1-1.234,2.812l-.049.088-.091.04a13.474,13.474,0,0,0-2.092,1.163c-.269,3.774,1.495,6.247,4.548,6.594l.4.047q-.155.371-.306.74l-.4-.054a7.975,7.975,0,0,1-4.5-1.764c-2.387.809-4.4,3.273-5.479,6.3a3.763,3.763,0,0,0,.484,1.91.441.441,0,0,0,.343.205h.009c.7.007,1.867-1.926,2.366-2.753l.093-.154.176.01a.545.545,0,0,1,.41.232c.35.478.183,1.664-.018,2.575l0,.008a39.726,39.726,0,0,1-2.694,7.887q-.221.444-.447.836s-7.344,14.079,4.808,5.792,13.913-19.471,13.913-19.471a1.056,1.056,0,0,0,.061-.272,47.622,47.622,0,0,1-6.976,3.422c-.955,1.2-2.5,3.114-4.179,3.04-1.769-.082-2.537-2.705-1.446-6.231l.1-.3.8.07-.1.3a6.1,6.1,0,0,0-.25,3.546c.234.79.7,1.272,1.258,1.3,1.214.056,3.149-1.823,5.392-6.1,1.78-3.338,2.081-6.22.419-6.557-1.068-.217-3.253.969-5.26,4.025q-.189.286-.375.573l-.5-.682.072-.138c1.42-2.793,4.362-5.514,6.769-5,1.588.334,1.957,1.828,1.913,3.071a11.686,11.686,0,0,0,6.638-4.593c1.765-2.465,1.708-6.21-3.548-8.146" transform="translate(-428.188 -166.049)" fill="#a70719"/>
    <path id="패스_27225" data-name="패스 27225" d="M512.318,191.879a12.261,12.261,0,0,1,3.974.7c2.35.866,3.857,2.184,4.357,3.812a4.837,4.837,0,0,1-.844,4.223,12.1,12.1,0,0,1-3.122,3.025,9.685,9.685,0,0,1-3.379,1.521,4,4,0,0,0-.355-1.82,2.24,2.24,0,0,0-1.619-1.234,3,3,0,0,0-.623-.064,5.583,5.583,0,0,0-3.494,1.589,12.015,12.015,0,0,0-2.733,3.514l-.072.138-.021.041.027.037q.252.343.5.681l.063.087.058-.09c.124-.191.25-.383.374-.572a12.327,12.327,0,0,1,2.75-3.065,4,4,0,0,1,2.185-.952,1.256,1.256,0,0,1,.249.023,1.141,1.141,0,0,1,.84.668c.514,1.09.012,3.306-1.309,5.782-1.99,3.8-3.962,6.064-5.274,6.064H504.8c-.523-.03-.969-.5-1.192-1.252a6.013,6.013,0,0,1,.249-3.5l.1-.3.03-.089-.094-.008-.8-.071-.059-.005-.018.056-.1.3a10.247,10.247,0,0,0-.5,3.275,4.172,4.172,0,0,0,.622,2.251,1.771,1.771,0,0,0,1.4.8l.1,0c1.686,0,3.211-1.9,4.128-3.053a48,48,0,0,0,6.833-3.343c-.009.034-.019.069-.032.106l0,.006v.006a24.8,24.8,0,0,1-2.4,6.612,33.044,33.044,0,0,1-4.2,6.288,36.37,36.37,0,0,1-7.283,6.521c-2.529,1.725-4.393,2.6-5.539,2.6a1.181,1.181,0,0,1-1.106-.541c-1.116-1.84,1.914-7.7,1.943-7.753.153-.265.3-.547.449-.84a39.8,39.8,0,0,0,2.7-7.9l0-.009c.371-1.677.208-2.358.006-2.634a.617.617,0,0,0-.465-.262l-.176-.01-.045,0-.023.038-.093.154c-.449.743-1.64,2.717-2.3,2.717h-.006a.369.369,0,0,1-.287-.177,3.479,3.479,0,0,1-.468-1.854c1.116-3.117,3.127-5.439,5.388-6.224a8.048,8.048,0,0,0,4.507,1.753l.4.054.057.008.022-.053c.1-.242.2-.491.306-.74l.038-.09-.1-.012-.4-.047a4.726,4.726,0,0,1-3.467-1.981,6.987,6.987,0,0,1-1.017-4.5,13.471,13.471,0,0,1,2.05-1.136l.091-.04.023-.01.012-.022.049-.088a16.486,16.486,0,0,0,1.24-2.823,11.4,11.4,0,0,0,.645-4.048A10.273,10.273,0,0,1,507,193.4a9.775,9.775,0,0,1,5.322-1.523m0-.074a9.876,9.876,0,0,0-5.362,1.535,10.271,10.271,0,0,0-1.02.739,11.3,11.3,0,0,1-.639,4.058,16.429,16.429,0,0,1-1.234,2.812l-.049.088-.091.04a13.47,13.47,0,0,0-2.092,1.163c-.269,3.774,1.495,6.247,4.548,6.594l.4.047q-.155.371-.306.74l-.4-.054a7.975,7.975,0,0,1-4.5-1.764c-2.387.809-4.4,3.273-5.479,6.3a3.762,3.762,0,0,0,.484,1.91.441.441,0,0,0,.343.205h.013c.7,0,1.864-1.927,2.363-2.753l.093-.154.176.011a.545.545,0,0,1,.41.231c.35.478.183,1.664-.018,2.575l0,.008a39.726,39.726,0,0,1-2.694,7.887q-.221.444-.447.836s-4.383,8.4-.773,8.4c1.063,0,2.817-.727,5.581-2.612,12.152-8.286,13.913-19.471,13.913-19.471a1.046,1.046,0,0,0,.061-.272,47.624,47.624,0,0,1-6.976,3.422c-.937,1.175-2.439,3.042-4.083,3.042l-.1,0c-1.769-.082-2.537-2.705-1.446-6.231l.1-.3.8.07-.1.3a6.1,6.1,0,0,0-.25,3.546c.234.79.7,1.272,1.258,1.3h.053c1.217,0,3.128-1.885,5.34-6.1,1.781-3.338,2.081-6.22.419-6.557a1.317,1.317,0,0,0-.263-.025c-1.137,0-3.142,1.227-5,4.05q-.189.286-.375.573-.246-.338-.5-.682l.072-.138c1.3-2.562,3.885-5.063,6.161-5.063a2.908,2.908,0,0,1,.607.063c1.588.334,1.957,1.828,1.913,3.071a11.687,11.687,0,0,0,6.638-4.593c1.765-2.465,1.708-6.21-3.548-8.146a12.278,12.278,0,0,0-4-.7" transform="translate(-428.191 -166.048)" fill="#fff"/>
    <path id="패스_27226" data-name="패스 27226" d="M417.757,148.353c.015-.048.03-.1.045-.144l.029-.1.036-.124c.01-.036.02-.072.029-.108s.02-.075.03-.112.02-.078.029-.116l.025-.1.029-.125.02-.091q.015-.067.029-.135l.015-.076c.01-.049.019-.1.029-.148l.01-.054c.01-.056.02-.113.029-.169l0-.011a7.56,7.56,0,0,0-.589-4.785,3.56,3.56,0,0,0-2.521-1.84c-1.681-.337-3.329.559-4.9,2.662a17.828,17.828,0,0,0-1.523,2.476,59.448,59.448,0,0,0-4.612,10.432,73.039,73.039,0,0,1,4.28-14.843,11.655,11.655,0,0,1-1.519,0h0a21.524,21.524,0,0,1-12.616-5.966,30.9,30.9,0,0,0,0,5.265,17.044,17.044,0,0,0,2.442,7.794,7.817,7.817,0,0,0,4.637,3.34l.23.058-.01.427-.031.062c-.057.113-.11.22-1.109.211a6.146,6.146,0,0,1-2.927-.773,93.306,93.306,0,0,0-.425,14.07c.275,5.664,2.239,20.458,5.566,19.828,1.486-.292,2.011-4.966,1.774-8.241-.285-3.93-1.708-11.738-1.708-11.738l.747.008c.23,3.179,1.575,13.344,3.282,13.094,1.612-.236,3.673-4.8,3.9-5.3a26.942,26.942,0,0,0,1.781-6.2l.018-.07a5.957,5.957,0,0,0,.19-1.834c-1.028,1.662-1.847,2.676-2.65,2.668h-.022a.948.948,0,0,1-.381-.1c-2.941-1-3.478-7.151-3.478-7.151a16.215,16.215,0,0,1,10.561-9.012,15.828,15.828,0,0,0,1.141-2.622q.038-.111.074-.223l.025-.078" transform="translate(-341.112 -116.763)" fill="#a70719"/>
    <path id="패스_27227" data-name="패스 27227" d="M394.2,135.034a21.605,21.605,0,0,0,12.547,5.88h0c.221.018.45.026.7.026s.49-.009.712-.019a72.821,72.821,0,0,0-4.24,14.75l.143.037a58.256,58.256,0,0,1,4.606-10.419v0a17.793,17.793,0,0,1,1.517-2.465c1.341-1.792,2.739-2.7,4.156-2.7a3.441,3.441,0,0,1,.673.068,3.489,3.489,0,0,1,2.47,1.8,7.53,7.53,0,0,1,.581,4.737v.011c-.009.056-.019.112-.029.167l0,.023-.006.03c-.009.049-.019.1-.028.147l0,.01-.013.066q-.014.067-.028.134l-.02.09q-.014.062-.029.124l-.025.1q-.014.058-.029.116l-.03.112,0,.015c-.008.031-.017.062-.025.093s-.023.079-.034.119v0l-.008.026-.021.071c-.014.046-.029.092-.043.138l0,0-.01.032-.014.046c-.024.074-.048.147-.074.222a15.742,15.742,0,0,1-1.123,2.587c-.063.025-.176.059-.327.1a15.66,15.66,0,0,0-4.431,2.062,17.243,17.243,0,0,0-5.817,6.871l-.009.018,0,.02a18.08,18.08,0,0,0,.639,3.216,9.615,9.615,0,0,0,1.067,2.43,3.633,3.633,0,0,0,1.818,1.566,1.02,1.02,0,0,0,.407.1h.034c.821,0,1.631-.994,2.581-2.507a7.04,7.04,0,0,1-.2,1.581l-.01.038-.008.032v.006a23.975,23.975,0,0,1-3.2,8.928c-.937,1.551-1.772,2.42-2.416,2.515a.344.344,0,0,1-.051,0c-.668,0-1.408-1.886-2.081-5.312a73.494,73.494,0,0,1-1.065-7.718l0-.068h-.068l-.747-.008h-.089l.016.088c.014.078,1.426,7.85,1.708,11.73a22.389,22.389,0,0,1-.24,5.221c-.316,1.773-.839,2.818-1.474,2.943a1.011,1.011,0,0,1-.192.018c-.714,0-1.414-.766-2.083-2.277a29.2,29.2,0,0,1-1.625-5.508,85.174,85.174,0,0,1-1.579-11.992,94.315,94.315,0,0,1,.411-13.95,6.215,6.215,0,0,0,2.866.731h.122c.865,0,.975-.1,1.054-.252l.031-.062.007-.015v-.017l.01-.426v-.059l-.057-.014-.23-.058a7.746,7.746,0,0,1-4.594-3.31,16.967,16.967,0,0,1-2.429-7.759,30.747,30.747,0,0,1-.011-5.1m-.061-.159a30.917,30.917,0,0,0,0,5.265,17.045,17.045,0,0,0,2.442,7.794,7.818,7.818,0,0,0,4.637,3.34l.23.058-.01.426-.031.062c-.054.109-.106.212-.987.212H400.3a6.145,6.145,0,0,1-2.927-.773,93.317,93.317,0,0,0-.425,14.07c.269,5.546,2.158,19.848,5.36,19.848a1.1,1.1,0,0,0,.205-.019c1.486-.292,2.011-4.967,1.774-8.242-.285-3.93-1.708-11.738-1.708-11.738l.747.008c.227,3.141,1.543,13.1,3.22,13.1a.437.437,0,0,0,.062,0c1.612-.236,3.673-4.8,3.9-5.3a26.941,26.941,0,0,0,1.781-6.2l.018-.07a5.96,5.96,0,0,0,.19-1.834c-1.024,1.656-1.841,2.668-2.641,2.668h-.031a.946.946,0,0,1-.381-.1c-2.941-1-3.478-7.151-3.478-7.151a16.216,16.216,0,0,1,10.561-9.012,15.8,15.8,0,0,0,1.141-2.622q.039-.111.074-.223l.025-.078c.015-.048.03-.1.045-.144l.029-.1c.012-.041.024-.082.036-.124l.03-.108c.01-.037.02-.075.03-.112s.02-.077.03-.116l.025-.1q.015-.062.029-.125l.02-.091c.01-.045.019-.09.029-.135l.015-.076c.01-.049.019-.1.028-.148l.01-.054q.015-.085.029-.169l0-.011a7.558,7.558,0,0,0-.589-4.785,3.56,3.56,0,0,0-2.521-1.84,3.5,3.5,0,0,0-.687-.069c-1.443,0-2.857.916-4.215,2.731a17.834,17.834,0,0,0-1.523,2.476A59.458,59.458,0,0,0,404,155.686a73.039,73.039,0,0,1,4.28-14.843c-.248.012-.526.024-.824.024-.223,0-.456-.007-.7-.026h0a21.525,21.525,0,0,1-12.616-5.966" transform="translate(-341.113 -116.763)" fill="#fff"/>
    <path id="패스_27228" data-name="패스 27228" d="M337.165,170.926a79.614,79.614,0,0,1,.466-15.544s-3.135-3.342-3.513-10.078c0-.077-.014-.155-.021-.233a24.433,24.433,0,0,1-8.385-3.6,28.968,28.968,0,0,0,.592,4.852,15.457,15.457,0,0,0,3.893,7.8,8.225,8.225,0,0,0,4.552,2.445l.057.008a.378.378,0,0,1,.317.339c0,.018,0,.035.005.053a.381.381,0,0,1-.274.407h0a4.6,4.6,0,0,1-.959.114,7.391,7.391,0,0,1-3.116-.547c-.06,4.056.567,8.287,1.379,13.883.347,2.406.708,4.611,1.08,6.469,2.109,14.1,6.389,9.428,6.389,9.428a128.4,128.4,0,0,1-2.459-15.8" transform="translate(-281.973 -122.476)" fill="#a70719"/>
    <path id="패스_27229" data-name="패스 27229" d="M325.792,141.617a24.478,24.478,0,0,0,8.236,3.515l0,.029c.005.051.01.1.013.147a19.588,19.588,0,0,0,1.906,7.593,11.833,11.833,0,0,0,1.6,2.5c-.038.251-.266,1.838-.435,4.344a88.914,88.914,0,0,0-.026,11.18,128.409,128.409,0,0,0,2.452,15.776,2.369,2.369,0,0,1-1.551.692c-.866,0-1.666-.629-2.378-1.868a25.112,25.112,0,0,1-2.308-8.243c-.347-1.734-.711-3.909-1.079-6.465l-.05-.348a89.163,89.163,0,0,1-1.329-13.416,7.518,7.518,0,0,0,2.714.521c.111,0,.223,0,.333-.008h.02a4.566,4.566,0,0,0,.958-.117.453.453,0,0,0,.328-.486l0-.027,0-.026a.45.45,0,0,0-.38-.4l-.047-.007h-.009a8.122,8.122,0,0,1-4.51-2.423,12.878,12.878,0,0,1-2.294-3.213,18.992,18.992,0,0,1-1.58-4.553,28.826,28.826,0,0,1-.584-4.693m-.081-.143a28.968,28.968,0,0,0,.592,4.852,15.457,15.457,0,0,0,3.893,7.8,8.225,8.225,0,0,0,4.552,2.445l.057.008a.378.378,0,0,1,.317.339c0,.018,0,.035.005.053a.381.381,0,0,1-.274.407h0a4.6,4.6,0,0,1-.959.114q-.164.008-.329.008a7.458,7.458,0,0,1-2.786-.555c-.06,4.056.567,8.287,1.379,13.883.347,2.406.708,4.611,1.08,6.469,1.268,8.48,3.322,10.17,4.758,10.17a2.456,2.456,0,0,0,1.632-.742,128.4,128.4,0,0,1-2.459-15.8,79.628,79.628,0,0,1,.466-15.544s-3.135-3.342-3.513-10.078c0-.077-.014-.155-.021-.233a24.433,24.433,0,0,1-8.385-3.6" transform="translate(-281.973 -122.476)" fill="#fff"/>
    <path id="패스_27230" data-name="패스 27230" d="M366.653,486.663c-2.355,3.182-6.2,7.323-10.122,7.013a4.065,4.065,0,0,1-3.645-2.117,3.974,3.974,0,0,1-.294-2.692A9.76,9.76,0,0,0,353,485.2c-.548-1.967-2.3-3.265-3.917-2.9s-2.481,2.259-1.933,4.227l.022.079a.151.151,0,0,1-.008.1c-.382-1.746-1.682-5.773-5.461-5.011-4.8.967-.126,12.476,9.564,15.621,6.754,2.192,12.692-5.565,15.67-10.466a.174.174,0,0,0-.288-.194" transform="translate(-294.174 -416.934)" fill="#a39307"/>
    <path id="패스_27231" data-name="패스 27231" d="M342.617,481.606v.074a3.78,3.78,0,0,1,3.239,1.921,9.568,9.568,0,0,1,1.24,3.127l.047.214.092-.2a.226.226,0,0,0,.012-.154l-.022-.079a3.806,3.806,0,0,1,.305-2.957,2.476,2.476,0,0,1,1.573-1.178,2.444,2.444,0,0,1,.54-.06,3.719,3.719,0,0,1,3.289,2.906,9.367,9.367,0,0,1-.412,3.628,4.049,4.049,0,0,0,.3,2.742,4.167,4.167,0,0,0,3.7,2.158c.14.011.282.017.424.017a8.859,8.859,0,0,0,5.461-2.381,26.324,26.324,0,0,0,4.3-4.678.092.092,0,0,1,.076-.042.114.114,0,0,1,.1.057.091.091,0,0,1-.005.1,35.516,35.516,0,0,1-5.46,7.027c-2.631,2.511-5.245,3.785-7.767,3.785a7.629,7.629,0,0,1-2.357-.378,18.1,18.1,0,0,1-8.491-6.016c-1.911-2.427-3.029-5.14-2.917-7.08a2.261,2.261,0,0,1,1.836-2.383,4.546,4.546,0,0,1,.894-.093Zm0,0a4.592,4.592,0,0,0-.909.095c-4.8.967-.126,12.477,9.564,15.621a7.664,7.664,0,0,0,2.379.382c5.75,0,10.668-6.531,13.291-10.847a.175.175,0,0,0-.153-.266.166.166,0,0,0-.136.072c-2.271,3.069-5.933,7.029-9.7,7.029q-.209,0-.418-.016a4.065,4.065,0,0,1-3.645-2.117,3.973,3.973,0,0,1-.294-2.692A9.759,9.759,0,0,0,353,485.2a3.793,3.793,0,0,0-3.36-2.96,2.506,2.506,0,0,0-.557.062c-1.615.367-2.481,2.26-1.933,4.227l.022.079a.151.151,0,0,1-.008.1c-.35-1.6-1.468-5.106-4.551-5.106" transform="translate(-294.174 -416.933)" fill="#fff"/>
    <path id="패스_27232" data-name="패스 27232" d="M220.085,130.756a.9.9,0,0,1-1.553.515c-1.939-2.037-5.8-5.215-9.85-3.6-5.772,2.3-.956-7.527,4.362-8.652s7.64,2.435,7.613,5.088c-.017,1.661-.336,4.648-.572,6.649" transform="translate(-178.392 -102.851)" fill="#a39307"/>
    <path id="패스_27233" data-name="패스 27233" d="M214.969,118.88a5.622,5.622,0,0,1,4.109,1.579,5.23,5.23,0,0,1,1.5,3.648c-.016,1.626-.32,4.509-.572,6.641a.829.829,0,0,1-1.426.473,16.408,16.408,0,0,0-3.2-2.651,8.434,8.434,0,0,0-4.419-1.415,6.231,6.231,0,0,0-2.316.447,4.075,4.075,0,0,1-1.443.342.945.945,0,0,1-1.065-.925c-.11-1.049.689-2.846,1.988-4.47a8.062,8.062,0,0,1,6.834-3.671Zm0-.074a9.31,9.31,0,0,0-1.926.214c-4.764,1.008-9.125,9-5.832,9a4.121,4.121,0,0,0,1.47-.348,6.131,6.131,0,0,1,2.289-.442c3.167,0,5.992,2.395,7.561,4.043a.89.89,0,0,0,.651.283.9.9,0,0,0,.9-.8c.236-2,.555-4.988.572-6.65a5.351,5.351,0,0,0-5.687-5.3" transform="translate(-178.391 -102.852)" fill="#fff"/>
    <path id="패스_27234" data-name="패스 27234" d="M535.585,127.552a.819.819,0,0,1-.494-1.476A15.022,15.022,0,0,1,548,123.289c5.98,1.585,7.24,5.714,7.445,8.126a.818.818,0,0,1-1.3.73,12.262,12.262,0,0,0-10.7-1.839.815.815,0,0,1-.833-.259c-.686-.805-2.653-2.506-7.03-2.494" transform="translate(-462.949 -106.318)" fill="#a39307"/>
    <path id="패스_27235" data-name="패스 27235" d="M544.375,122.883a14.09,14.09,0,0,1,3.606.477,10.03,10.03,0,0,1,5.847,3.724,8.812,8.812,0,0,1,1.544,4.337.729.729,0,0,1-.189.561.759.759,0,0,1-.557.247.73.73,0,0,1-.433-.144,12.1,12.1,0,0,0-7.183-2.343,13.709,13.709,0,0,0-3.582.493.739.739,0,0,1-.758-.236,6.272,6.272,0,0,0-2.145-1.567,11.532,11.532,0,0,0-4.9-.953h-.046a.737.737,0,0,1-.71-.512.726.726,0,0,1,.262-.831,15.612,15.612,0,0,1,9.241-3.252m0-.074a15.743,15.743,0,0,0-9.285,3.266.819.819,0,0,0,.492,1.476h.046c4.346,0,6.3,1.692,6.987,2.495a.817.817,0,0,0,.621.287.808.808,0,0,0,.212-.028,13.567,13.567,0,0,1,3.563-.49,12.081,12.081,0,0,1,7.139,2.329.8.8,0,0,0,.476.158.82.82,0,0,0,.82-.888c-.206-2.412-1.466-6.541-7.445-8.126a14.1,14.1,0,0,0-3.625-.479" transform="translate(-462.948 -106.318)" fill="#fff"/>
    <path id="패스_27236" data-name="패스 27236" d="M456.341,502.156a.1.1,0,0,1,.163.13c-1.58,2.376-5.108,7.172-8.1,7.583-3.985.549-4.548-2.109-4.377-4.466.138-1.9,2.247-.239,3.467-1.441a.409.409,0,0,1,.694.245c.125,1.1.559,2.243,1.876,1.846a14.491,14.491,0,0,0,6.273-3.9" transform="translate(-384.381 -434.695)" fill="#a39307"/>
    <path id="패스_27237" data-name="패스 27237" d="M456.415,502.2a.038.038,0,0,1,.03.02.027.027,0,0,1,0,.03,35.792,35.792,0,0,1-3.512,4.518c-1.723,1.835-3.248,2.856-4.532,3.033a7.271,7.271,0,0,1-.985.072,3.21,3.21,0,0,1-2.459-.9,4.636,4.636,0,0,1-.849-3.564c.056-.767.423-.918,1.039-.918.136,0,.278.007.429.015s.324.017.49.017a2.012,2.012,0,0,0,1.487-.507.328.328,0,0,1,.234-.1.333.333,0,0,1,.335.3c.149,1.3.651,1.992,1.451,1.992a1.81,1.81,0,0,0,.519-.084,14.6,14.6,0,0,0,6.305-3.918.027.027,0,0,1,.021-.011m0-.074a.1.1,0,0,0-.074.034,14.489,14.489,0,0,1-6.273,3.9,1.724,1.724,0,0,1-.5.08c-.933,0-1.27-.983-1.378-1.926a.408.408,0,0,0-.408-.364.4.4,0,0,0-.286.119,1.92,1.92,0,0,1-1.436.486c-.319,0-.635-.031-.919-.031-.595,0-1.051.137-1.113.986-.156,2.144.3,4.539,3.381,4.539a7.307,7.307,0,0,0,1-.073c2.987-.412,6.516-5.207,8.1-7.583a.106.106,0,0,0-.089-.164" transform="translate(-384.381 -434.695)" fill="#fff"/>
    <path id="패스_27238" data-name="패스 27238" d="M212.889,280.924s8.015,4.208,8.966,7.362.052,7.075-5.326-.5c0,0,.54-2.4-3.64-6.866" transform="translate(-184.301 -243.2)" fill="#a39307"/>
    <path id="패스_27239" data-name="패스 27239" d="M213.243,281.2c.686.378,2.184,1.23,3.732,2.284,2.763,1.882,4.426,3.55,4.809,4.823.437,1.448.435,2.872,0,3.463a.73.73,0,0,1-.612.313c-.683,0-2.028-.749-4.561-4.31a3.915,3.915,0,0,0-.261-1.765,14.923,14.923,0,0,0-3.1-4.808m-.354-.276c4.18,4.464,3.64,6.866,3.64,6.866,2.293,3.228,3.771,4.367,4.639,4.367,1.168,0,1.232-2.062.686-3.871-.951-3.154-8.966-7.362-8.966-7.362" transform="translate(-184.301 -243.2)" fill="#fff"/>
    <path id="패스_27240" data-name="패스 27240" d="M623.213,276.921c-.956.865-3.461,2.974-5.472,3.283a.259.259,0,0,0-.209.185,27.121,27.121,0,0,1-1.924,4.939.261.261,0,0,0,.311.374c1.49-.5,5.129-2,6.859-5.217l.011-.019a5.989,5.989,0,0,0,.86-3.361.261.261,0,0,0-.436-.184" transform="translate(-532.911 -239.676)" fill="#a39307"/>
    <path id="패스_27241" data-name="패스 27241" d="M623.387,276.927a.187.187,0,0,1,.188.18,5.882,5.882,0,0,1-.848,3.318l-.015.025c-1.718,3.189-5.34,4.686-6.818,5.182a.192.192,0,0,1-.062.01.187.187,0,0,1-.16-.094.181.181,0,0,1,0-.184,27.057,27.057,0,0,0,1.93-4.955.186.186,0,0,1,.15-.132c2.024-.311,4.528-2.412,5.511-3.3a.182.182,0,0,1,.124-.049m0-.074a.256.256,0,0,0-.173.068c-.956.865-3.462,2.974-5.472,3.283a.259.259,0,0,0-.209.185,27.133,27.133,0,0,1-1.924,4.939.261.261,0,0,0,.225.388.269.269,0,0,0,.085-.014c1.49-.5,5.129-2,6.86-5.217l.011-.019a5.989,5.989,0,0,0,.86-3.361.26.26,0,0,0-.262-.252" transform="translate(-532.911 -239.676)" fill="#fff"/>
    <path id="패스_27242" data-name="패스 27242" d="M495.5,288.045c.608-1.494,2.206-4.661,5.044-5.418a.336.336,0,0,0,.237-.41,8.367,8.367,0,0,1-.274-2.927.337.337,0,0,0-.526-.317c-1.53,1.057-5.01,3.666-5.317,5.726a7.366,7.366,0,0,0,.2,3.322.337.337,0,0,0,.634.025" transform="translate(-428.158 -241.458)" fill="#a39307"/>
    <path id="패스_27243" data-name="패스 27243" d="M500.176,278.986a.272.272,0,0,1,.2.092.254.254,0,0,1,.061.2,8.382,8.382,0,0,0,.276,2.955.262.262,0,0,1-.184.32,6.484,6.484,0,0,0-3.4,2.459,13.075,13.075,0,0,0-1.7,3,.264.264,0,0,1-.5-.019,7.3,7.3,0,0,1-.2-3.288c.3-2.038,3.8-4.649,5.286-5.677a.258.258,0,0,1,.148-.047m0-.074a.332.332,0,0,0-.19.06c-1.53,1.057-5.01,3.666-5.317,5.726a7.369,7.369,0,0,0,.2,3.322.337.337,0,0,0,.635.025c.608-1.494,2.206-4.661,5.044-5.418a.336.336,0,0,0,.237-.41,8.368,8.368,0,0,1-.274-2.927.336.336,0,0,0-.335-.378" transform="translate(-428.158 -241.458)" fill="#fff"/>
    <path id="패스_27244" data-name="패스 27244" d="M406.705,601.091a6.841,6.841,0,0,0,6.754.907.266.266,0,0,1,.345.363,36.608,36.608,0,0,1-2.69,4.537.266.266,0,0,1-.388.044c-.792-.68-3.525-3.149-4.424-5.541a.266.266,0,0,1,.4-.31" transform="translate(-351.726 -520.33)" fill="#a70719"/>
    <path id="패스_27245" data-name="패스 27245" d="M406.552,601.115h0a.188.188,0,0,1,.11.036,7.707,7.707,0,0,0,4.291,1.462,6.188,6.188,0,0,0,2.535-.549.2.2,0,0,1,.08-.018.194.194,0,0,1,.163.094.186.186,0,0,1,.006.186,36.556,36.556,0,0,1-2.683,4.527.192.192,0,0,1-.28.032c-.808-.694-3.513-3.144-4.4-5.511a.184.184,0,0,1,.02-.174.2.2,0,0,1,.161-.086m0-.074a.267.267,0,0,0-.25.36c.9,2.392,3.632,4.861,4.424,5.541a.266.266,0,0,0,.387-.044,36.629,36.629,0,0,0,2.69-4.537.266.266,0,0,0-.235-.387.269.269,0,0,0-.11.024,6.092,6.092,0,0,1-2.5.542,7.587,7.587,0,0,1-4.249-1.449.263.263,0,0,0-.153-.05" transform="translate(-351.726 -520.33)" fill="#fff"/>
    <path id="패스_27246" data-name="패스 27246" d="M117.088,9.521c-2.066-4.184-6.075-6.475-10.3-7.7a26.415,26.415,0,0,0-13.836-.175A44.452,44.452,0,0,0,70.264,15.77h0c-1.035,1.449-1.882,2.792-2.539,3.909a.6.6,0,0,0,.9.762c4.786-4,15.262-10.648,23.375-.75l.006.008c12.331,18.829-31.012,66.5-33.136,68.817-2.077-2.36-44.45-50.894-31.742-69.471l.006-.008c8.311-9.732,18.65-2.877,23.355,1.221a.6.6,0,0,0,.914-.743c-.634-1.13-1.454-2.489-2.459-3.959h0A44.451,44.451,0,0,0,26.543.976a26.414,26.414,0,0,0-13.836-.1C8.458,2.012,4.4,4.222,2.254,8.363c-5.79,11.156.68,26.969,6.959,36.03h0c9.219,15.29,26.058,31.669,49.626,44.154l-.052.057.081-.041.08.043-.051-.058C82.714,76.541,99.879,60.505,109.4,45.4c6.46-8.933,13.248-24.613,7.684-35.883" transform="translate(0 0)" fill="#e15689"/>
  </g>
</svg>
