<svg id="PPS_16" xmlns="http://www.w3.org/2000/svg" xmlns:xlink="http://www.w3.org/1999/xlink" width="100.269" height="104.06" viewBox="0 0 100.269 104.06">
  <defs>
    <clipPath id="clip-path">
      <rect id="사각형_6140" data-name="사각형 6140" width="100.269" height="104.06" fill="none"/>
    </clipPath>
  </defs>
  <g id="그룹_11593" data-name="그룹 11593" clip-path="url(#clip-path)">
    <path id="패스_27381" data-name="패스 27381" d="M234.788,32.165a4.2,4.2,0,0,0-.021,2.365l.012.042a1.459,1.459,0,0,1-.537,1.592h0c-.079.058-.158.118-.237.181l0,0c-.078.061-.155.125-.231.189l-.009.008q-.111.094-.219.192l-.014.012q-.105.1-.206.191l-.007.007a.441.441,0,0,0,.32.758h.015c.44-.016.925-.053,1.442-.1.388-.036.792-.079,1.208-.124l.419-.046h.011l.024,0a25.468,25.468,0,0,1,6.666-.186q.4.073.77.1l.039,0a5.855,5.855,0,0,0,.949,0,4.3,4.3,0,0,0,.643-.1,3.046,3.046,0,0,0,1.062-.468,2.6,2.6,0,0,0,.529-.5h0c-.628.061-1.3.108-2,.137a1.457,1.457,0,0,1-.117-2.911q.394-.017.775-.042h.008q.223-.015.44-.032l.146-.012.293-.025.167-.016.262-.026.17-.018.248-.028.165-.02.247-.031.152-.02.26-.036.126-.018.363-.055.017,0,.349-.058.026,0a1.8,1.8,0,0,0,1.361-2.412q-.057-.147-.117-.289l-.03-.068q-.055-.125-.112-.246l-.03-.063q-.069-.142-.143-.278l-.031-.056q-.063-.113-.128-.222l-.037-.062q-.079-.128-.162-.25l-.031-.043q-.072-.1-.147-.2l-.044-.057c-.059-.076-.119-.15-.181-.222l-.027-.03q-.082-.094-.168-.184l-.05-.052c-.066-.067-.132-.132-.2-.194l-.018-.016c-.063-.057-.129-.113-.194-.166l-.056-.045c-.072-.057-.145-.113-.22-.166h0c-.138-.1-.281-.187-.43-.271q-.083-.047-.168-.092c-.1-.054-.21-.106-.319-.155q-.2-.088-.406-.162c-.118-.042-.24-.081-.363-.117a7.871,7.871,0,0,0-1.488-.276q-.255-.024-.521-.034t-.545-.009q-.145,0-.293.006-.411.013-.847.052l-.053,0q-.592.055-1.23.158-.819.133-1.716.345-.05.012-.11.031a3.375,3.375,0,0,0-.431.184c-.168.083-.358.188-.566.314s-.436.271-.677.436q-.241.165-.5.355c-.345.253-.71.538-1.087.853-.355.3-.666.575-.941.833l-.114.107a4.342,4.342,0,0,0-1.027,1.523q-.069.172-.122.349" transform="translate(-207.161 -23.646)" fill="#e57b00"/>
    <path id="패스_27382" data-name="패스 27382" d="M704.339,350.061l-.586.509-.275.239q-.456.393-.908.78l-.21.178q-.347.3-.693.588l-.341.286-.557.466-.372.308-.52.43-.383.314-.5.409-.389.314-.49.394-.39.311-.481.381-.39.307-.477.373-.385.3-.475.365-.379.29-.476.36-.37.279-.483.359-.356.264-.5.367-.329.24c-.185.134-.37.266-.554.4l-.269.193q-.41.292-.816.576-.59.413-1.156.8l-.375.253c.019.121.036.242.053.36.042.046.085.095.131.147s.093.108.141.166l.074.09a6.094,6.094,0,0,1,1.49,3.542q0,.083,0,.167c.422-.437.846-.886,1.271-1.341q1.513-1.619,3.058-3.388.439-.5.881-1.02.883-1.032,1.776-2.114l0,0q.39-.472.772-.943l.119-.146q.364-.449.721-.9l.137-.171q.358-.448.709-.893l.1-.124q.352-.448.7-.892l.04-.051q.352-.453.694-.9l.114-.149q.33-.432.653-.859l.118-.157q.326-.433.644-.859l.066-.089q.312-.42.616-.833l.044-.06a.156.156,0,0,0-.229-.208" transform="translate(-612.524 -310.966)" fill="#e98900"/>
    <path id="패스_27383" data-name="패스 27383" d="M452.067,454.381l-.06-.55a1.176,1.176,0,0,1,.98-1.286l.01,0a1.691,1.691,0,0,0-.418-.912,1.785,1.785,0,0,0-.393-.332c.018.148.039.291.062.427v.006a.6.6,0,0,1-.44.684l-1.631.434a.6.6,0,0,1-.744-.477,1.519,1.519,0,0,0-.323-.607c-.2-.188-.566-.106-.836,0l-.335.153h0l-.249.112-.026.011-.247.109q-1.072.465-2.076.822a24.073,24.073,0,0,1-2.447.736q-.583.14-1.138.236a14.282,14.282,0,0,1-1.6.189,9.075,9.075,0,0,1-3.208-.331q-.3-.093-.6-.212-.146-.059-.288-.125t-.281-.137a7.229,7.229,0,0,1-1.821-1.341q-.164-.165-.321-.343a8.711,8.711,0,0,1-.6-.759q-.178-.252-.344-.525t-.32-.564q-.231-.438-.436-.919-.137-.321-.261-.66c-.093-.253-.18-.514-.262-.782q-.086-.279-.165-.57c-.014-.053-.028-.105-.042-.158q-.139-.529-.253-1.092l-.013-.014a.4.4,0,0,0-.061-.049.75.75,0,0,0-.088-.051,1.092,1.092,0,0,0-.1-.045l-.077-.026a2.026,2.026,0,0,0-1.021-.017,1.948,1.948,0,0,0-.329.108l0,0a1.336,1.336,0,0,0-.292.17.8.8,0,0,0-.108.1.4.4,0,0,0-.052.072.108.108,0,0,0-.009.02c-.109.969-.211,2.086-.281,3.283q-.026.449-.045.912c-.025.617-.04,1.249-.042,1.889q0,.48.008.964.006.3.017.608.012.331.03.661c.019.347.044.693.074,1.037s.062.688.1,1.027q.041.339.091.673a20.236,20.236,0,0,0,.432,2.146q.1.385.211.736t.229.671q.119.32.244.609.188.434.389.8.133.247.271.468a6.884,6.884,0,0,0,1.347,1.609,5.531,5.531,0,0,0,.59.444q.093.061.182.114c.119.071.232.132.337.185s.2.1.291.137l.141.06.081.034a7.2,7.2,0,0,0,2.243.518q.4.03.824.022a12.859,12.859,0,0,0,3.662-.665q.381-.122.773-.268c.276-.1.557-.214.84-.333.095-.04.188-.077.283-.118l.211-.094c.211-.094.424-.191.64-.295q.742-.355,1.522-.784.585-.322,1.189-.684.4-.242.815-.5,1.441-.908,2.983-2.033.686-.5,1.383-1.043t1.4-1.126q.707-.583,1.424-1.207t1.443-1.288a16.218,16.218,0,0,1-1.705.368,1.186,1.186,0,0,1-1.371-1.042" transform="translate(-380.63 -395.665)" fill="#e98900"/>
    <path id="패스_27384" data-name="패스 27384" d="M245.9,362.626c-.369-.044-.763-.094-1.167-.152l-.278-.041-.435-.067-.059-.009c-.085,2.581-.253,7.451-.363,9.279a4.571,4.571,0,0,0,.105,1.181c.042.205.1.412.156.618q.045.155.1.308t.106.3l.085-.129c.37-.559.791-1.163,1.272-1.8l.226-.3c-.038-.14-.077-.29-.115-.447s-.081-.349-.119-.536c-.052-.258-.1-.53-.14-.815a11.7,11.7,0,0,1-.118-1.753q0-.422.043-.827a8.685,8.685,0,0,1,.19-1.172q.088-.376.21-.732a6.779,6.779,0,0,1,.813-1.636,2.856,2.856,0,0,0,.151-.247,3.928,3.928,0,0,0,.255-.583q.056-.16.1-.333l-.485-.051-.534-.061" transform="translate(-216.412 -321.926)" fill="#ee8673"/>
    <path id="패스_27385" data-name="패스 27385" d="M294.025,141.2a5.872,5.872,0,0,1-1.122.516,6.694,6.694,0,0,1-1.031.258,8.108,8.108,0,0,1-1.561.1,1.142,1.142,0,0,1-1.088,1.211c-.717.085-1.382-.217-1.463-.892a1.186,1.186,0,0,1,.086-.582l-.181-.008c-.547-.019-1.155,0-1.788.04q-.271.017-.548.04t-.557.048q.167.18.343.35a9.744,9.744,0,0,0,.735.646,9.577,9.577,0,0,0,1.213.819,9.348,9.348,0,0,0,.872.438,7.405,7.405,0,0,0,4.156.608v2.613a11.214,11.214,0,0,0,5.205-1.579l-1.974-3.869a1.174,1.174,0,0,1-1.3-.758" transform="translate(-252.999 -125.445)" fill="#ee8673"/>
    <path id="패스_27386" data-name="패스 27386" d="M596.1,353.231q-.02-.045-.042-.09c-.059-.12-.126-.24-.2-.358-.09-.148-.189-.292-.29-.427-.081-.108-.163-.211-.243-.305l-.06-.069c-.1-.112-.193-.211-.278-.29l-.365-.342-.027-.025-.06-.534c-.017-.149-.037-.3-.058-.46l-.023-.16c-.019-.131-.038-.262-.061-.4h0q-.03-.184-.064-.373t-.071-.382q-.074-.386-.16-.786h0q-.039-.182-.081-.366l-.026-.114q-.03-.132-.061-.264l-.029-.125q-.034-.145-.07-.292l-.021-.086q-.046-.189-.094-.379l-.023-.091q-.037-.147-.075-.294l-.032-.125-.073-.28-.029-.111q-.051-.192-.1-.384l-.01-.036q-.048-.176-.1-.351l-.034-.12-.078-.276-.034-.121-.091-.318-.019-.067-.112-.381-.03-.1-.085-.284-.036-.12-.085-.281-.03-.1q-.057-.187-.114-.372l-.013-.041-.1-.327-.034-.109-.083-.263-.034-.107-.1-.313-.013-.039-.113-.349-.028-.087-.084-.257-.033-.1-.084-.255-.026-.078-.107-.32-.016-.048-.088-.261-.031-.093-.073-.216-.029-.087-.088-.257-.009-.027-.081-.236a2.04,2.04,0,0,0-2.345-1.331q-.448.093-.9.2a1.333,1.333,0,0,1-1.585-.969l-.557.222c.01.1.019.2.028.308,0,.031.005.063.008.1q.009.114.017.229c0,.035,0,.07.007.1q.008.129.015.261c0,.023,0,.046,0,.07q.008.166.013.336c0,.029,0,.058,0,.087q0,.13,0,.261,0,.057,0,.115,0,.128,0,.259c0,.034,0,.067,0,.1,0,.119,0,.24-.007.362,0,.016,0,.033,0,.05q0,.159-.013.32c0,.039,0,.078-.006.118q-.007.134-.016.27c0,.04-.005.08-.008.121q-.012.166-.027.334c0,.017,0,.034,0,.051q-.018.193-.04.39c0,.037-.009.075-.013.112q-.017.145-.036.291c-.006.044-.012.087-.018.131s-.009.065-.013.1a1.941,1.941,0,0,0,1.261,2.1,8.924,8.924,0,0,1,3.23,2.02.974.974,0,0,1-.087,1.46s.073.273.173.62a.408.408,0,0,1,.427.086l1.593,1.525a.3.3,0,0,1,.051.377,4.262,4.262,0,0,0-.453,1.56c-.028.2-.048.416-.064.632-.028.361-.042.734-.039,1.106a13.36,13.36,0,0,0,.092,1.516,1.785,1.785,0,0,1,.393.332,1.692,1.692,0,0,1,.418.912,12.041,12.041,0,0,0,1.777-.418q.18-.059.339-.121a4.432,4.432,0,0,0,.783-.383,1.826,1.826,0,0,0,.469-.4.885.885,0,0,0,.1-.157.665.665,0,0,0,.031-.077.751.751,0,0,0,.036-.213,1.785,1.785,0,0,0-.19-.758" transform="translate(-520.386 -298.884)" fill="#ee8673"/>
    <path id="패스_27387" data-name="패스 27387" d="M595.416,548.161l-1.851-2.792a.836.836,0,0,1,.235-1.158l1.034-.686a54.615,54.615,0,0,0-3.6-6.934q-1.486,1.433-2.938,2.712-.968.852-1.921,1.635-1.428,1.174-2.819,2.189l0,0c-.222.162-.442.32-.661.475l-.12.086q-.317.223-.63.439l-.122.083q-.322.22-.641.432l-.031.02q-.311.206-.619.4l-.1.067q-.306.195-.608.381l-.119.073c-.2.125-.408.248-.61.367l-.052.03q-.292.172-.58.334l-.09.051q-.293.165-.583.321l-.055.03a.989.989,0,0,0-.344,1.44l0,0,.036.051.1.149.053.074.084.118.056.078.077.107.054.075.075.1.051.07.074.1.049.066.076.1.041.055.111.148.025.033.084.11.04.052.065.084.043.056.058.074.043.055.055.07.041.051.054.067.037.046.059.073.029.035.083.1.015.017.065.078.03.035.046.055.032.037.042.049.03.034.04.046.028.032.04.044.025.028.041.046.02.022.058.062,0,0,.052.055.018.019.033.035.019.02.03.03.018.019.027.027.017.017.026.026.015.014.026.025.012.011.035.033,1.071.053.348.017.376.019,1.964.1,3.029.147.259.012,1.03.049,1.493.07.474.022.681.031.43.019.6.026c.576.025,1.067.044,1.435.057l.118,0c.068,0,.135,0,.2,0l.05,0q.092-.008.184-.022l.024,0c.061-.01.122-.024.182-.039a2.422,2.422,0,0,0,1.374-3.68" transform="translate(-512.978 -476.72)" fill="#00536a"/>
    <path id="패스_27388" data-name="패스 27388" d="M264.6,523.559l-.1-.092q-.1-.093-.191-.189l-.088-.09q-.119-.125-.235-.254l-.03-.033q-.13-.147-.254-.3l-.074-.093q-.088-.111-.174-.225l-.083-.112q-.083-.114-.163-.231l-.072-.1c-.075-.112-.149-.225-.22-.342v0a13.258,13.258,0,0,1-1.175-2.479q-.141-.392-.266-.806-.188-.622-.343-1.3-.207-.9-.355-1.9-.086-.576-.149-1.164t-.105-1.18c-.042-.593-.07-1.188-.086-1.78q-.008-.3-.011-.591a39.424,39.424,0,0,0-4.951.085l-.7.008h0c-.383,0-.906.012-1.521.022h-.008l-.695.012h-.061l-.2,0h-.035l-.254,0h0l-.237,0H251.7l-.2,0h-.057l-.255.006h-.038l-.226.005h-.062l-.211,0h-.064l-.268.007H250.3l-.256.006h-.057l-.226.006h-.055l-.273.008H249.4l-.242.007-.071,0-.2.006-.08,0-.265.008h-.035l-.237.008-.078,0-.192.007-.084,0-.262.01h-.032l-.224.008-.092,0-.182.007-.079,0-.25.01-.044,0-.208.009-.037,0a3.124,3.124,0,0,0-2.971,2.681c0,.011,0,.023,0,.034,0,.034-.008.068-.011.1,0,.016,0,.032,0,.049,0,.036,0,.071-.006.107,0,.018,0,.037,0,.055,0,.034,0,.068,0,.1,0,.018,0,.036,0,.053,0,.039,0,.078.008.116,0,.012,0,.024,0,.037.005.05.012.1.02.151,0,.012,0,.024.007.036.007.038.015.076.023.114,0,.017.009.034.013.052.008.033.018.066.028.1l.017.053c.011.034.024.067.037.1.006.015.012.031.018.046.02.048.041.1.065.144l.008.016a1.45,1.45,0,0,0,2.023.608,10.379,10.379,0,0,1,2.126-.941,1.456,1.456,0,0,1,.854,2.784,8.671,8.671,0,0,0-5.093,4.728h0c-.031.063-.06.124-.09.187a14.965,14.965,0,0,0-.642,1.559q-.042.12-.08.237c-.1.307-.188.6-.26.862.689.031,1.491.074,2.376.127l.384.023c.649.04,1.337.085,2.055.133l1.32.091.8.057,1.572.114.118.009.772.057.113.008.327.025.174.013.256.019.211.016.262.02.163.012.3.023.16.012.425.033.114.009.333.026.172.013.267.021.179.014.285.022.158.012.312.025.129.01.419.033.206.016.2.016.258.021.165.013.241.019.177.014.24.019.206.017.825.067.137.011.241.019.128.01.261.021.15.012.206.017.24.02.319.026.163.013.192.016.164.013.249.021.042,0,1.747.145a1.527,1.527,0,0,0,1.653-1.471V524.8a1.537,1.537,0,0,0-.5-1.185l-.064-.06" transform="translate(-215.531 -453.308)" fill="#00536a"/>
    <path id="패스_27389" data-name="패스 27389" d="M59.724,246.937a26.8,26.8,0,0,1-1.107-9.962c.369-5.35-1.845-4.428-4.428-3.874s-9.962-6.088-11.623-4.243.185,35.236.185,40.033-.369,18.633-.738,21.031c-.251,1.629,3.925,1.556,6.63,1.341a3.857,3.857,0,0,0,3.1-2.016c.649-1.209,1.543-2.625,2.264-2.831.78-.223,1.157-1.12,1.332-1.794a3.955,3.955,0,0,0,.113-1.163c-.148-3.487,2.913-11.18,4.556-15.037a8.955,8.955,0,0,0,.7-4.251,30.88,30.88,0,0,1,.037-4.625,3.92,3.92,0,0,0-.269-1.734c-1.331-3.386-.405-9.507-.747-10.875" transform="translate(-37.202 -203.033)" fill="#00536a"/>
    <path id="패스_27390" data-name="패스 27390" d="M238.415,175.517q-.328-.242-.641-.505a12.178,12.178,0,0,0-1.548,1.265.363.363,0,0,1-.208.461q-.205.081-.4.166a12.78,12.78,0,0,0-2.6,4.54,14.924,14.924,0,0,0,1.529,4.773c.187.344.4.712.6,1.091-.126-3.7.855-6.647,2.918-8.752a9.211,9.211,0,0,1,2.45-1.788q-.37-.173-.727-.37a12.45,12.45,0,0,1-1.372-.879" transform="translate(-207.021 -155.485)" fill="#88112e"/>
    <path id="패스_27391" data-name="패스 27391" d="M427.993,177.7a33.068,33.068,0,0,1,10.393,2.629,24.03,24.03,0,0,1,7.079,4.791,20.76,20.76,0,0,1,3.849,5.2q.6-.1,1.17-.185l.38-.055q.377-.054.743-.1t.717-.091a22.491,22.491,0,0,0-4.683-6.708,26.849,26.849,0,0,0-7.946-5.453,35.878,35.878,0,0,0-11.419-2.923,1.456,1.456,0,1,0-.284,2.9" transform="translate(-379.071 -155.29)" fill="#88112e"/>
    <path id="패스_27392" data-name="패스 27392" d="M57.89,54.706a5.484,5.484,0,0,1,.62-2.89,2.07,2.07,0,0,0-1.885-2.9c-3.461-.029-8.582.038-10.911.621-3.69.922-2.4,13.1-2.214,14.759s8.117,6.642,11.623,6.826c3.013.159,3.163-3.637,3.146-4.7a2.017,2.017,0,0,1,.1-.665,5.774,5.774,0,0,1,1.563-2.346,2.086,2.086,0,0,0,.025-3.005c-1.554-1.545-1.81-4.289-2.066-5.7" transform="translate(-38.32 -43.456)" fill="#88112e"/>
    <path id="패스_27393" data-name="패스 27393" d="M357.99,674.31c-5.535-.922-7.748-8.486-12.36-6.272-2.328,1.118,1.476,6.272-13.283,7.195-7.011.438-5.166,14.943-4.428,16.235s21.4.738,21.4.738l1.78-.162a1.864,1.864,0,0,0,1.679-2c-.257-3.722,5.682-6.521,8.717-7.8,3.505-1.476,2.029-7.01-3.505-7.933" transform="translate(-290.638 -593.141)" fill="#88112e"/>
    <path id="패스_27394" data-name="패스 27394" d="M510.792,251.669a1.457,1.457,0,0,0-2.838.658c.493,2.132,1.473,6.231,2.456,9.582a1.456,1.456,0,0,0,2.8-.817c-.953-3.252-1.925-7.318-2.414-9.422" transform="translate(-451.245 -222.587)" fill="#0d1a35"/>
    <path id="패스_27395" data-name="패스 27395" d="M290.762,250.172a1.356,1.356,0,1,0-2.642.593c.4,1.381,1.107,3.705,2.13,6.446,2.035,5.45,3.487,7.185,6.584,12.721a1.359,1.359,0,1,0,2.285-1.465c-6.177-8.443-7.881-15.387-8.357-18.3" transform="translate(-255.926 -221.25)" fill="#0d1a35"/>
    <path id="패스_27396" data-name="패스 27396" d="M551.454,316.727a.921.921,0,0,0,.916,1.211l.76-.035a6.982,6.982,0,0,1,4.5,1.734.972.972,0,0,0,1.265.058l.769-.6a.974.974,0,0,0,.087-1.46,8.922,8.922,0,0,0-3.23-2.02,1.941,1.941,0,0,1-1.261-2.1c0-.033.009-.066.013-.1s.012-.088.018-.131q.02-.146.036-.291c0-.037.009-.075.013-.112q.022-.2.04-.39c0-.017,0-.034,0-.051q.015-.168.027-.334c0-.04.006-.081.008-.121q.009-.136.016-.27c0-.039,0-.079.006-.118q.008-.161.013-.32c0-.017,0-.033,0-.05,0-.122.006-.242.007-.362,0-.034,0-.068,0-.1q0-.131,0-.259,0-.057,0-.115,0-.132-.005-.261c0-.029,0-.058,0-.087,0-.113-.007-.225-.013-.336,0-.024,0-.047,0-.07q-.007-.132-.014-.261c0-.035,0-.07-.007-.1q-.008-.116-.017-.229c0-.032,0-.064-.008-.1-.009-.1-.018-.207-.028-.308a19.136,19.136,0,0,0-.444-2.63,1.459,1.459,0,0,0-2.835.688A17.294,17.294,0,0,1,551.7,316Z" transform="translate(-489.882 -270.884)" fill="#0d1a35"/>
    <path id="패스_27397" data-name="패스 27397" d="M64.948,70l.055-.03q.289-.156.583-.321l.09-.051q.288-.163.58-.334l.052-.03q.3-.179.61-.367l.119-.073q.3-.186.608-.381l.1-.067q.308-.2.619-.4l.031-.02c.212-.141.426-.285.641-.432l.122-.083q.313-.215.63-.439l.12-.085q.329-.233.661-.475l0,0q1.39-1.015,2.819-2.189.952-.783,1.92-1.635,1.452-1.278,2.938-2.712a128.615,128.615,0,0,0,9.794-10.689c5.077-6.151,9.261-12.123,11.877-16.05a2.01,2.01,0,0,0-3.053-2.575A177.114,177.114,0,0,1,76.3,47.619c-.764-3.192-1.889-6.645-2.657-8.871a1.036,1.036,0,0,1,.869-1.368c1.617-.174,2.929-.256,3.718-.294a1.719,1.719,0,0,0,1.542-1.131A1.817,1.817,0,0,0,79.267,34a108.01,108.01,0,0,1-7.629-8.987c-3.265-4.123-9.378-7.154-13.17-7.6-2.507-.294-7.379-1.477-9.8-2.086a1.48,1.48,0,0,0-1.787.993,1.456,1.456,0,0,0,1.04,1.824,103.814,103.814,0,0,0,10.2,2.163,17.163,17.163,0,0,1,5.779,2.109,18.57,18.57,0,0,1,5.447,4.405c2.1,2.656,4.394,5.519,6.205,7.532-.693.061-1.469.14-2.305.241q-.352.043-.717.09t-.743.1l-.38.055q-.574.085-1.17.185c-1.056.177-2.156.388-3.269.641a1.335,1.335,0,0,0-1,1.634l.061.236a1.333,1.333,0,0,0,1.585.969q.452-.1.9-.2A2.04,2.04,0,0,1,70.87,39.64h0l.081.235.009.027.088.257.029.087.073.216.031.093.088.261.016.048.107.32.026.078.084.255.033.1.084.257.028.087.113.349.013.039.1.313.034.107.083.263.034.109.1.327.013.041.114.372.03.1.085.281.036.12.085.284.03.1q.056.19.112.381l.019.067.091.318.034.121.078.276.034.12q.049.176.1.351l.01.036q.052.192.1.384l.029.111.073.28.032.125.075.294.023.091q.048.19.094.379l.021.086q.035.146.07.292l.029.125q.031.133.061.264l.026.114c.028.123.055.245.081.366h0q.086.4.16.786.037.193.071.382t.064.373h0c.022.135.041.266.061.4.008.053.016.107.023.16.022.156.042.31.059.46l.06.533.027.025.365.341.065.063c.067.066.139.143.213.227l.06.069c.08.094.162.2.243.305.1.135.2.279.29.427.072.118.139.238.2.358q.022.045.042.09a1.784,1.784,0,0,1,.19.758.82.82,0,0,1-.011.11.674.674,0,0,1-.025.1.663.663,0,0,1-.031.077.887.887,0,0,1-.1.157,1.828,1.828,0,0,1-.469.4,4.427,4.427,0,0,1-.784.383q-.159.061-.339.121t-.38.115a13.185,13.185,0,0,1-1.4.3l-.01,0a1.176,1.176,0,0,0-.981,1.286l.06.55a1.186,1.186,0,0,0,1.371,1.042,16.21,16.21,0,0,0,1.705-.368q-.726.664-1.443,1.288t-1.424,1.207q-.707.583-1.4,1.126t-1.383,1.043q-1.54,1.124-2.983,2.033-.412.259-.815.5-.6.362-1.19.684-.195.107-.387.21-.578.308-1.134.575c-.216.1-.429.2-.64.295l-.211.094c-.1.041-.189.079-.283.118q-.212.089-.423.173t-.417.16q-.2.072-.389.139t-.384.128a12.858,12.858,0,0,1-3.662.665q-.421.008-.824-.022-.151-.011-.3-.028a7.088,7.088,0,0,1-1.943-.49l-.081-.034-.141-.06c-.088-.039-.186-.084-.291-.137s-.218-.114-.337-.185q-.089-.053-.182-.114c-.093-.061-.189-.128-.288-.2s-.2-.155-.3-.243A6.882,6.882,0,0,1,49.9,66.708q-.137-.221-.271-.468c-.133-.247-.264-.514-.389-.8q-.126-.289-.245-.609t-.229-.671q-.11-.351-.211-.736a20.217,20.217,0,0,1-.432-2.146q-.05-.334-.091-.673c-.041-.339-.074-.682-.1-1.027s-.055-.69-.074-1.037q-.018-.33-.03-.661-.011-.3-.017-.608-.01-.484-.008-.964c0-.64.017-1.272.042-1.889q.019-.462.045-.912c.069-1.2.172-2.314.281-3.283a.1.1,0,0,1,.008-.02.408.408,0,0,1,.052-.072.8.8,0,0,1,.108-.1l.057-.042a1.322,1.322,0,0,1,.145-.086c.028-.014.058-.028.089-.042l0,0q.078-.034.161-.061c.055-.018.111-.034.169-.047a2.026,2.026,0,0,1,1.022.017l.076.026a1.082,1.082,0,0,1,.1.045.739.739,0,0,1,.088.051.414.414,0,0,1,.061.049l.013.015q.114.564.253,1.092.021.079.042.158.079.29.165.57.124.4.262.782.125.339.261.66.2.481.436.919.154.292.32.564t.344.525a8.691,8.691,0,0,0,.6.759q.157.178.321.343.206.207.422.394t.444.355a7.069,7.069,0,0,0,.954.592q.139.071.281.137t.288.125q.291.119.6.212a9.076,9.076,0,0,0,3.208.331,14.282,14.282,0,0,0,1.6-.189q.554-.1,1.138-.236a24.1,24.1,0,0,0,2.447-.736q1-.357,2.076-.822l.247-.109.026-.012.249-.112h0a2.641,2.641,0,0,1,.335-.154c.27-.1.634-.184.836,0a1.519,1.519,0,0,1,.323.606.6.6,0,0,0,.744.477l1.631-.434a.6.6,0,0,0,.44-.684v-.006c-.023-.136-.044-.279-.062-.427h0a13.335,13.335,0,0,1-.092-1.516c0-.372.012-.746.039-1.106.017-.216.037-.429.064-.632a4.262,4.262,0,0,1,.453-1.561.3.3,0,0,0-.051-.377l-1.593-1.525a.414.414,0,0,0-.613.053l0,0a5.287,5.287,0,0,0-.753,1.547,4.746,4.746,0,0,1-2.5,2.894q-.472.22-.884.4c-3.652,1.585-6.575,2.117-8.451,1.54-1.969-.605-3.312-2.621-3.993-5.993a3.231,3.231,0,0,0-2.338-2.38,4.936,4.936,0,0,0-3.345.194l-.022.009a3.461,3.461,0,0,0-2.2,2.706,58.343,58.343,0,0,0-.382,7.1q0,.295.011.591c.015.592.043,1.187.086,1.78q.043.592.105,1.18t.149,1.164q.074.5.163.974t.192.924q.155.675.343,1.3.126.415.266.806a13.258,13.258,0,0,0,1.175,2.479v0c.072.116.145.23.22.342.024.035.048.07.072.1q.081.117.163.231l.083.112q.085.114.174.225l.074.093q.125.153.254.3l.03.033q.115.13.235.254l.088.09q.094.1.191.189l.1.092.064.06a1.536,1.536,0,0,1,.5,1.185v.025a1.527,1.527,0,0,1-1.653,1.471l-1.747-.145-.042,0-.249-.021-.164-.014-.192-.016-.163-.013-.319-.026-.24-.02-.206-.017-.15-.012-.261-.021-.128-.01-.241-.02-.137-.011-.825-.067-.206-.017-.24-.019-.177-.014-.241-.019-.165-.013-.258-.021-.2-.016-.206-.016-.419-.033-.129-.01-.312-.025-.158-.012-.285-.022-.179-.014-.267-.021-.172-.013-.333-.026-.114-.009-.425-.033-.16-.012-.3-.023-.163-.012-.262-.02-.211-.016-.256-.019-.174-.013-.327-.025-.113-.008-.772-.057-.118-.009L34,71.893l-.8-.057-1.32-.091c-.718-.049-1.406-.093-2.055-.133l-.384-.023-.328-.02c-.756-.044-1.446-.081-2.048-.108.036-.132.075-.271.119-.415s.09-.293.141-.447q.038-.117.08-.237.064-.184.136-.375c.1-.254.2-.516.32-.782q.089-.2.186-.4c.03-.062.058-.124.09-.187h0a8.671,8.671,0,0,1,5.093-4.728A1.456,1.456,0,0,0,32.38,61.1a10.39,10.39,0,0,0-2.126.941,1.449,1.449,0,0,1-2.023-.608l-.008-.016c-.024-.047-.045-.1-.065-.144-.006-.015-.012-.031-.018-.046-.013-.033-.025-.067-.037-.1l-.017-.053q-.015-.049-.028-.1c0-.017-.009-.034-.013-.052-.009-.038-.016-.076-.023-.114,0-.012,0-.024-.007-.036q-.012-.075-.02-.151c0-.012,0-.024,0-.037,0-.039-.006-.077-.008-.116,0-.018,0-.035,0-.053q0-.051,0-.1c0-.018,0-.037,0-.055,0-.036,0-.071.006-.107,0-.011,0-.023,0-.034s0-.009,0-.014c0-.034.007-.068.011-.1,0-.011,0-.023,0-.034a3.124,3.124,0,0,1,2.971-2.681h.037l.208-.009.044,0,.25-.01.079,0,.182-.007.092,0,.224-.008h.032l.262-.009.084,0,.192-.007.078,0,.237-.008h.035l.265-.008.08,0,.2-.006.071,0,.242-.007H33.9l.273-.007h.055l.226-.006h.057l.256-.006h.014l.268-.007h.064l.211,0h.062l.226-.005h.038l.255-.006h.057l.2,0h.064l.237,0h0l.254,0h.035l.2,0h.061l.695-.012h.008c.614-.01,1.137-.017,1.521-.022h0a.7.7,0,0,0,.692-.707l-.013-1.513a.7.7,0,0,0-.707-.693c-1.39.016-4.576.063-7.4.171a1.117,1.117,0,0,1-.947-1.769,36.254,36.254,0,0,1,3.745-4.412,1.457,1.457,0,0,0,.033-2.023l-.347-.371a.963.963,0,0,0-1.377-.03l-.022.022a.671.671,0,0,1-1.128-.612,4.222,4.222,0,0,1,.63-1.527c1.083-1.586,1.5-3.945,1.231-7.012-.08-.918-.209-1.76-.333-2.429a1.457,1.457,0,0,0-2.864.531c.112.6.23,1.368.3,2.193v.01a.83.83,0,0,1-.925.894c-.32-.038-.658-.081-1-.13-1.063-.15-1.834-.3-2.39-.432a.738.738,0,0,1-.559-.828q.031-.2.063-.421a.516.516,0,0,1,.974-.151l.011.023a.714.714,0,0,0,.948.332l.662-.315a1.456,1.456,0,0,0,.681-1.961c-.305-.617-.686-1.373-1.072-2.1-.2-.379-.409-.747-.6-1.091A14.924,14.924,0,0,1,26,25.959q-.013-.169-.02-.337t-.005-.335a5.793,5.793,0,0,1,.317-1.922c.011-.029.024-.059.036-.088A4.2,4.2,0,0,1,28.6,21.419q.192-.085.4-.166a.363.363,0,0,0,.208-.461l-.458-1.274a1.148,1.148,0,0,0-1.565-.655,6.478,6.478,0,0,0-3.631,3.515,9.919,9.919,0,0,0-.175,5.626c.052.225.108.444.167.658a46.464,46.464,0,0,1-.842,8.986l-.151.834.651.543a4.306,4.306,0,0,0,1.453.745c-.077,2.346-.263,7.854-.378,9.764a9.865,9.865,0,0,0,.951,4.383,17.5,17.5,0,0,0,.785,1.595,2.031,2.031,0,0,0,.277.908c-.951,1.6-1.836,3.989-.671,6.308a4.187,4.187,0,0,1,.188.445,5.212,5.212,0,0,1-.254,4.105l-.019.037A18.4,18.4,0,0,0,23.856,72.6c-.223.926-2.13,8.878-3.009,13.846-1.105-.333-1.912-.509-1.958-.519a1.456,1.456,0,0,0-1.7.986,11.119,11.119,0,0,1-2.48,4.184,10.12,10.12,0,0,0-3.04-1.03,11.176,11.176,0,0,0-6.239.781L5.4,90.86a1.73,1.73,0,0,1-2.419-1.586V9a5.3,5.3,0,0,1,5.3-5.3H25.262a.973.973,0,0,1,.709,1.637A5.339,5.339,0,0,0,24.413,7.92a9.135,9.135,0,0,0,.177,2.87c-.187.162-.393.35-.6.554a4.649,4.649,0,0,0-1.672,2.993,2.339,2.339,0,0,0,.866,1.906,4.269,4.269,0,0,0,2.839.738c.672,0,1.445-.054,2.332-.139a12.729,12.729,0,0,0,2.4,2.686h0q.312.263.641.505a12.446,12.446,0,0,0,1.372.88q.357.2.727.37.138.065.277.126a10.734,10.734,0,0,0,4.3.936,9.339,9.339,0,0,0,1.027-.056v-2.94a7.406,7.406,0,0,1-4.156-.608,9.358,9.358,0,0,1-.872-.438q-.159-.091-.315-.187a9.6,9.6,0,0,1-.9-.632,9.763,9.763,0,0,1-.735-.646q-.176-.171-.343-.35.28-.026.556-.048t.549-.04c.633-.04,1.241-.059,1.788-.04l.181.008a1.184,1.184,0,0,0-.086.582c.081.675.746.977,1.463.892a1.141,1.141,0,0,0,1.087-1.211q.408.011.8-.015a7.543,7.543,0,0,0,.762-.088,6.69,6.69,0,0,0,1.031-.258,5.86,5.86,0,0,0,1.122-.516h0a1.174,1.174,0,0,0,1.3.758q.067,0,.135-.011a1.142,1.142,0,0,0,1.082-1.293,1.2,1.2,0,0,0-.811-1.038,6.427,6.427,0,0,0,.935-2.044,21.212,21.212,0,0,0,2.713-.7,1.456,1.456,0,0,0,.958-1.531c-.421-3.82-1.793-6.573-4.077-8.184C40.731-.079,37.143-.5,32.454.611,31.9.742,4.659.723.524.719A.523.523,0,0,0,0,1.243V102.924a1.136,1.136,0,0,0,1.136,1.136H95.393a1.491,1.491,0,0,0,0-2.982h-7.31a1.894,1.894,0,0,1-1.88-2.155c0-.016,0-.032.006-.048.131-1.057,1.043-1.7,2.528-2.626a7.689,7.689,0,0,0,3.067-2.8,3.427,3.427,0,0,0,.219-2.9,3.938,3.938,0,0,0-1.6-1.825,8.293,8.293,0,0,0-1.806-3.538L88.4,84.94l-.3-.129a2.884,2.884,0,0,0-.51-.164,2.74,2.74,0,0,1-2.041-2.019c-.381-1.507-.832-3.084-1.219-4.382a1.906,1.906,0,0,1,.611-2.006l.01-.008a12.163,12.163,0,0,0,1.781-1.849,1.456,1.456,0,0,0,.045-1.674L83.015,67.04a.836.836,0,0,0-1.158-.235l-1.035.686a.836.836,0,0,0-.235,1.158l1.851,2.792a2.422,2.422,0,0,1-1.374,3.68c-.06.015-.12.028-.182.039l-.024,0c-.044.007-.088.014-.133.019l-.051,0-.05,0c-.068,0-.136.006-.2,0l-.118,0c-.368-.013-.859-.032-1.435-.057l-.6-.026-.43-.019-.681-.031-.474-.022-1.493-.07-1.03-.049L73.9,74.9l-3.029-.147-1.965-.1-.376-.019-.348-.017-1.071-.053-.035-.033-.012-.011-.026-.025-.015-.015-.026-.025-.017-.017-.027-.027-.018-.019-.03-.03-.019-.02-.033-.035-.018-.019-.052-.055,0,0-.058-.062-.02-.022-.041-.046-.025-.028-.04-.045L66.565,74l-.04-.046-.03-.034-.042-.049-.032-.037-.046-.055-.03-.035-.065-.078-.015-.018-.083-.1-.029-.035-.059-.073-.037-.047L66,73.328l-.041-.051-.055-.07-.043-.055-.058-.074-.043-.055-.065-.084-.04-.052-.084-.11-.025-.033-.112-.148L65.4,72.54l-.076-.1-.049-.066-.074-.1-.051-.07-.075-.1-.054-.075-.077-.107-.056-.078-.084-.118-.052-.074-.105-.149-.036-.051,0,0h0A.989.989,0,0,1,64.948,70M77.3,50.465q.566-.384,1.156-.8.406-.284.816-.576l.269-.193c.184-.132.369-.264.554-.4l.329-.24.5-.367.356-.264.483-.359.37-.279.476-.36.379-.29.475-.366.385-.3.477-.373.39-.307.481-.381.39-.311.49-.394.389-.314.5-.409.383-.314.52-.43.372-.308.557-.466.341-.286q.346-.291.693-.588l.21-.178q.452-.386.908-.78l.275-.239.586-.509a.156.156,0,0,1,.229.208h0L92,39.363q-.3.413-.616.832l-.066.089q-.318.426-.645.859l-.118.157q-.322.427-.653.859l-.114.149q-.343.448-.694.9l-.04.051q-.344.444-.7.892l-.1.124q-.35.445-.709.894l-.137.171q-.357.447-.721.9l-.119.146q-.383.47-.772.943l0,0q-.893,1.082-1.776,2.114-.442.516-.881,1.02Q81.6,52.234,80.085,53.85c-.426.455-.85.9-1.271,1.341q0-.084,0-.167a5.948,5.948,0,0,0-1.367-3.386q-.062-.081-.123-.156l-.074-.09q-.073-.088-.141-.166t-.131-.147c-.016-.118-.034-.239-.053-.36l.374-.253M27.627,8.52q.053-.177.122-.349a4.342,4.342,0,0,1,1.027-1.523l.114-.107c.275-.258.587-.536.942-.833.282-.236.559-.456.825-.658q.133-.1.262-.2.259-.19.5-.355c.241-.165.468-.311.677-.436s.4-.23.566-.314a3.375,3.375,0,0,1,.431-.184q.059-.02.109-.031.9-.212,1.716-.345.639-.1,1.23-.158l.053,0q.436-.039.847-.052.148,0,.293-.006.278,0,.545.009t.521.034a7.87,7.87,0,0,1,1.488.276c.124.036.245.075.363.117q.208.075.406.162c.109.049.215.1.319.155q.085.045.168.092c.124.07.243.146.359.224l.07.047h0c.075.053.148.109.22.166l.056.045c.066.054.131.109.194.167l.018.016c.068.062.135.127.2.194l.05.052q.086.089.168.183l.027.03c.062.072.122.146.181.222l.044.057q.075.1.147.2l.031.043q.083.122.162.25l.037.062q.066.109.128.222l.031.056q.074.136.143.278l.03.063q.058.121.112.246l.03.068c.039.091.077.183.113.277l0,.012A1.8,1.8,0,0,1,42.348,9.41h0l-.022,0-.349.058-.017,0-.363.055-.126.018-.26.036-.152.02-.247.031-.166.02-.248.028-.17.018-.262.026-.166.016-.293.025-.146.012q-.218.017-.44.032h-.008q-.381.025-.775.042a1.457,1.457,0,0,0,.117,2.911c.7-.029,1.373-.077,2-.137h0a2.591,2.591,0,0,1-.529.5,3.048,3.048,0,0,1-1.062.468,4.335,4.335,0,0,1-.644.1,5.868,5.868,0,0,1-.949,0l-.039,0q-.371-.03-.77-.1a25.469,25.469,0,0,0-6.666.186l-.024,0h-.011l-.419.046c-.416.045-.821.088-1.208.124-.258.024-.509.045-.75.063s-.472.03-.692.039h-.015a.441.441,0,0,1-.32-.758v0l.006-.005c.067-.064.135-.128.205-.191l.014-.012q.108-.1.219-.192l.009-.008q.114-.1.231-.189l0,0c.079-.062.158-.123.238-.181h0a1.459,1.459,0,0,0,.537-1.592l-.012-.042c-.023-.079-.041-.159-.059-.238a4.169,4.169,0,0,1-.1-.956,4.231,4.231,0,0,1,.1-.884q.033-.145.076-.287m3.917,75q-.155.321-.321.635-.248.466-.522.91c-.125.2-.252.4-.385.595q-.1.143-.2.283c-.948,1.3-1.681,2.381-2.244,3.275q-.141.223-.268.432t-.241.4a5.052,5.052,0,0,0-.457-.533q-.064-.065-.131-.13-.135-.129-.284-.255-.074-.063-.152-.126-.208-.167-.44-.328c-.107-.075-.22-.149-.336-.222a13.936,13.936,0,0,0-1.933-1.005c.047-.28.1-.572.154-.876s.114-.618.176-.941q.062-.323.128-.656l.067-.335q.067-.337.138-.682c.117-.574.24-1.161.366-1.75.088-.413.177-.826.267-1.237a39.66,39.66,0,0,0,7.148,1.353c-.164.4-.339.8-.528,1.192m-4-43.085.059.009.435.067.278.041c.4.057.8.108,1.167.152l.534.061.485.051h0q-.048.173-.1.333a3.926,3.926,0,0,1-.255.583,2.88,2.88,0,0,1-.151.247,6.78,6.78,0,0,0-.813,1.636q-.121.355-.21.732a8.692,8.692,0,0,0-.19,1.172q-.038.4-.043.827t.025.861q.029.438.093.892c.04.284.088.557.14.815.038.187.078.366.119.536s.077.307.115.447q-.115.15-.226.3c-.481.639-.9,1.243-1.272,1.8l-.085.129q-.055-.151-.106-.3t-.1-.308c-.061-.206-.113-.413-.156-.618a4.57,4.57,0,0,1-.105-1.181c.11-1.828.278-6.7.363-9.279M26.206,75.312a1.192,1.192,0,0,1,1.219-.919c1.425.07,3.279.188,5.321.331a1.192,1.192,0,0,1,1.089,1.406,35.71,35.71,0,0,1-.916,3.792,36.642,36.642,0,0,1-7.462-1.356c.278-1.23.538-2.357.748-3.255M28.28,95.176c-.054.468-.116,1.057-.169,1.675-.008.091-.015.179-.022.266l0,.06c-.007.084-.013.167-.019.248l0,.03c-.005.072-.01.143-.015.212l0,.054c0,.074-.009.147-.014.218,0,.014,0,.028,0,.042q-.005.093-.01.181c0,.014,0,.029,0,.043s0,.013,0,.02a2.344,2.344,0,0,1-2.107,2.222H25.9l-.046,0-.128.011-.1.008-.138.01-.1.007-.152.008-.1.005-.18.007-.084,0-.276.008h-.008l-.279,0h-.415l-.193,0-.13,0-.192-.005-.139-.005-.194-.008-.147-.007-.2-.011-.151-.009-.207-.014-.156-.011-.217-.017-.156-.013-.234-.021-.152-.014-.265-.028-.133-.014-.4-.046h-.012c-.333-.041-.683-.077-1.044-.111q-.6-.056-1.239-.1c-.407-.03-.825-.058-1.252-.086l-1.3-.081-.549-.034a55.8,55.8,0,0,1-8.131-.9c-.359-.081-.788-.19-1.222-.329-.145-.046-.29-.1-.433-.149-.191-.071-.379-.148-.558-.231-.716-.332-1.287-.765-1.35-1.307a1.493,1.493,0,0,1-.009-.222A1.811,1.811,0,0,1,3.6,96.28a2.307,2.307,0,0,1,.084-.234,2.821,2.821,0,0,1,.18-.352q.07-.117.154-.234a4.711,4.711,0,0,1,.733-.8,6.386,6.386,0,0,1,.689-.522c.182-.12.376-.235.578-.343q.139-.074.284-.145t.295-.135c.053-.023.107-.043.16-.065A8.362,8.362,0,0,1,9.9,92.83a7.714,7.714,0,0,1,1.288.107c.1.017.2.037.3.058l.094.021c.069.016.137.032.206.049l.107.028.192.055.1.032c.069.022.137.045.205.069l.082.028q.142.052.281.109l.042.018q.118.05.234.1l.091.044q.092.044.182.09l.1.051q.088.047.175.1l.092.053c.066.039.131.079.2.12l.063.04q.127.083.252.171l.057.042c.064.046.128.094.19.142l.084.066c.054.043.107.086.16.131l.087.074c.053.046.106.093.158.141l.078.071.032.029a1.082,1.082,0,0,0,1.445.046l.587-.5a1.069,1.069,0,0,0,.052-1.585l0,0-.008-.008c.085-.09.167-.183.248-.276l.071-.084q.088-.1.173-.21l.068-.085c.073-.092.144-.185.213-.279l.008-.01c.072-.1.141-.2.21-.3l.059-.088q.074-.109.145-.219l.058-.089c.058-.092.115-.183.17-.274l.013-.021c.059-.1.116-.2.171-.294l.048-.085q.06-.107.117-.213l.028-.05a1.61,1.61,0,0,1,1.934-.761h0l.016.006.3.105.046.017.3.109.048.018.293.113.046.018.289.117.043.018q.144.061.286.123l.037.016q.144.063.283.128l.028.013q.143.067.282.136l.015.007c.083.042.165.084.245.126l.051.027a1.61,1.61,0,0,1,.757,1.9l-.212.671A1.612,1.612,0,0,0,24,94.168a1.643,1.643,0,0,0,.142.309q.029.049.062.1a1.716,1.716,0,0,0,.658.566,1.644,1.644,0,0,0,.157.066,1.623,1.623,0,0,0,.329.082c.037.005.075.009.112.012a1.624,1.624,0,0,0,.676-.1c.088-.032.272-.1.506-.159a4.219,4.219,0,0,1,1.05-.156,2.163,2.163,0,0,1,.318.022,1.457,1.457,0,0,1,.294.074c-.007.062-.015.126-.022.193m57.808-6.535.043-.089c.043-.085.094-.173.148-.259.027-.043.056-.086.085-.129.059-.085.12-.167.182-.243l.07-.083c.046-.053.092-.1.137-.146.022-.022.044-.042.065-.061l.067.1c.068.105.137.219.2.339.045.08.089.163.132.247q.04.079.077.161a3.952,3.952,0,0,1,.191.5c.027.089.05.179.067.268a1.935,1.935,0,0,1,.038.392l-.021.526-.021.526,1,.334c.032.013.067.028.1.045a2.171,2.171,0,0,1,.228.128c.038.025.076.051.113.078a1.461,1.461,0,0,1,.2.173.582.582,0,0,1,.121.178.288.288,0,0,1,.016.114.5.5,0,0,1-.007.064.841.841,0,0,1-.035.134,1.548,1.548,0,0,1-.083.191,4.353,4.353,0,0,1-1.525,1.339c-.16.1-.324.206-.491.31-.193.121-.392.245-.593.375q-.151.1-.3.2t-.3.209c-.2.143-.4.293-.6.452a5.3,5.3,0,0,0-2.052,3.311,1.93,1.93,0,0,1-.373.186q-.075.03-.163.06a7,7,0,0,1-.932.243c-.195.038-.41.074-.647.107q-.267.037-.57.067c-.338.033-.712.06-1.123.076q-.37.015-.782.018a28.189,28.189,0,0,1-4.5-.334q-.241-.038-.478-.079a19.959,19.959,0,0,1-2.627-.634,11.524,11.524,0,0,1-1.239-.472q-.222-.1-.41-.2-.125-.066-.236-.131t-.208-.129l-.094-.063a3.387,3.387,0,0,1-.313-.242,2.267,2.267,0,0,1-.173-.168q-.049-.054-.088-.1c-.026-.033-.049-.066-.068-.1a.889.889,0,0,1-.05-.089.635.635,0,0,1-.033-.08.437.437,0,0,1-.017-.071q-.015-.11-.02-.213a1.94,1.94,0,0,1,0-.2,1.6,1.6,0,0,1,.021-.187,1.412,1.412,0,0,1,.042-.175,1.441,1.441,0,0,1,.385-.61,2.669,2.669,0,0,1,.439-.344,3.918,3.918,0,0,1,.4-.222l.146-.068q.149-.066.309-.126a8.978,8.978,0,0,1,1.608-.414q.193-.033.391-.06t.4-.049c.2-.022.4-.04.606-.055.406-.029.814-.042,1.213-.042h0q.284,0,.561.009h.02a1.9,1.9,0,0,0,1.94-1.612h.04q0-.1.009-.2t.014-.21l.111-.708-.014,0-.017,0,.006-.04c.036-.246.08-.5.132-.747q.028-.132.059-.263c.041-.175.087-.348.136-.517a7.358,7.358,0,0,1,.252-.724c.062-.151.129-.295.2-.428q.053-.1.109-.192a2.688,2.688,0,0,1,.184-.263,1.917,1.917,0,0,1,.181-.2,1.4,1.4,0,0,1,.134-.113.872.872,0,0,1,.306-.151.919.919,0,0,1,.183-.028,1.194,1.194,0,0,1,.145,0,1.563,1.563,0,0,1,.166.02q.089.015.189.043l.227.062q.559.155,1.034.308.19.061.368.121c.316.106.6.21.862.31q.194.075.368.147.261.108.478.207.145.066.272.128.19.092.341.174c.1.054.189.1.266.149a3.813,3.813,0,0,1,.4.264,1.373,1.373,0,0,0,2.26-.321m-3.8-6.937c.085.309.168.618.249.924l.006.023v0a1.5,1.5,0,0,1-1.876,1.823l-.041-.012-.254-.073-.085-.024-.316-.087c-.078-.021-.156-.04-.234-.057l-.077-.015c-.052-.01-.1-.021-.155-.03l-.011,0a1.443,1.443,0,0,1-.774-.4h0l-.316-.311-.1-.1-.243-.24-.141-.14-.215-.214-.153-.153-.219-.218-.124-.124h.1c.23,0,.469,0,.715-.009a17.068,17.068,0,0,0,4.267-.574v0M74.31,77.839c2.492.119,4.894.228,6.014.265l.17,0q.129,0,.258-.007a.616.616,0,0,1,.621.439c.078.258.158.528.239.8a20.851,20.851,0,0,1-6.725.377l-.022.21L73.84,78.892a.619.619,0,0,1,.471-1.053m-8.457-.581.308.181.357.018h0a4.973,4.973,0,0,1,3.32,1.5c.909.937,2.163,2.223,3.411,3.482A5.331,5.331,0,0,1,74.5,87.906a12.044,12.044,0,0,0-.338,1.229l0,.015a1.839,1.839,0,0,1-1.644,1.438c-2.147.176-4.48.741-5.9,2.139a4.372,4.372,0,0,0-1.271,3.86A3.247,3.247,0,0,0,66.6,98.3a1.579,1.579,0,0,1-1.027,2.78H34.919a3.812,3.812,0,0,1-3.811-3.95c.034-.938.088-1.869.183-2.575l.083-.617-.388-.486a3.8,3.8,0,0,0-1.543-1.157,40.179,40.179,0,0,1,3.028-4.641,25.091,25.091,0,0,0,3.646-8.32A5.281,5.281,0,0,1,41.652,75.4c4.989.4,9.151.756,9.245.764a1.456,1.456,0,0,0,1.581-1.445h0c0-.005,0-.117,0-.316a1.763,1.763,0,0,1,1.971-1.73,11.416,11.416,0,0,0,1.3.073,14.7,14.7,0,0,0,3.689-.5A2.725,2.725,0,0,1,62.353,73.3c2.007,2.836,2.922,3.614,3.5,3.955" transform="translate(0 0)" fill="#0d1a35"/>
  </g>
</svg>
