<svg id="PPS_22" xmlns="http://www.w3.org/2000/svg" xmlns:xlink="http://www.w3.org/1999/xlink" width="112.971" height="70.848" viewBox="0 0 112.971 70.848">
  <defs>
    <clipPath id="clip-path">
      <rect id="사각형_6148" data-name="사각형 6148" width="112.97" height="70.848" fill="none"/>
    </clipPath>
  </defs>
  <g id="그룹_11610" data-name="그룹 11610" clip-path="url(#clip-path)">
    <path id="패스_27536" data-name="패스 27536" d="M537.09,318.369l-13.81,5.755a1.818,1.818,0,0,0,.586.295,28.036,28.036,0,0,1,3.87,1.447c2.715-.937,5.451-1.941,8.173-2.985a2.141,2.141,0,0,0,1.357-2.24c-.075-.671-.14-1.438-.177-2.273" transform="translate(-464.894 -282.846)" fill="#fff"/>
    <path id="패스_27537" data-name="패스 27537" d="M712.544,190.991q-.392-.232-.781-.458l-30.4,12.668c.628,2.273,2.106,3.285,3.533,2.693,9.785-4.059,18.838-8.276,25.307-11.29l1.939-.9a1.638,1.638,0,0,0,.4-2.711" transform="translate(-605.342 -169.274)" fill="#fff"/>
    <path id="패스_27538" data-name="패스 27538" d="M602.6,114.9a1.9,1.9,0,0,0,.813.174Z" transform="translate(-535.366 -102.078)" fill="#fff"/>
    <path id="패스_27539" data-name="패스 27539" d="M208.905,141.2a6.651,6.651,0,0,0,1.295-2.756l-8.744.28a4.763,4.763,0,0,0,1.073.615c1.957.853,1.064,4.333-.5,3.513-2.108-1.1-4.316-3.111-6.747-3.159a23.167,23.167,0,0,0-3.174-.5,22.379,22.379,0,0,0-7.272.561,22.012,22.012,0,0,0-5.932,2.4.926.926,0,0,1-1.221-.24l-.334-.448a.927.927,0,0,1,.259-1.345c.448-.274,1.068-.624,1.842-1l-5.534,1.23-.6.737a.686.686,0,0,1-.862.17l-.113-.062a1.475,1.475,0,0,0-2.022.627c-.409.8-.938,1.739-1.572,2.83l-.132.23a19.979,19.979,0,0,0-1.505,3.313,43,43,0,0,0-2.472,10.605,16.918,16.918,0,0,0,.5,6.09,9.39,9.39,0,0,0,2.323,4.01c2.382,2.392,6.342,3.6,11.791,3.6q1.389,0,2.906-.1l.068,0a7.585,7.585,0,0,0,5.6-3.136,14.024,14.024,0,0,1,6.235-4.934,13.693,13.693,0,0,1,5.55-.73,1.816,1.816,0,0,0,1.9-1.636c0-.011,0-.022,0-.033a.362.362,0,0,0-.358-.4l-4.849-.027a.767.767,0,0,1-.762-.783.781.781,0,0,1,.871-.744,25.891,25.891,0,0,0,3.6.111,2.065,2.065,0,0,0,1.971-1.723q.121-.729.273-1.507a.428.428,0,0,0-.5-.5,34.4,34.4,0,0,0-7.559,2.035.9.9,0,0,1-1.3-.652h0a.938.938,0,0,1,.7-1.12c1.529-.366,4.775-1.137,8.349-2.068a1.546,1.546,0,0,0,1.1-1.091l0-.009a36.723,36.723,0,0,1,4.079-9.715,26.618,26.618,0,0,1,1.773-2.532m-31.816,20.484a30.37,30.37,0,0,0-8.273,1.4,1.35,1.35,0,1,1-.43-2.622l8.7-.256a.744.744,0,0,1,.781.7.762.762,0,0,1-.777.774m2.62-2.457h0a1,1,0,0,1-1.563-.094c-.574-.818-1.709-1.94-4.472-2.932a15.406,15.406,0,0,0-4.768-.695,1.147,1.147,0,1,1,.518-2.177,36.805,36.805,0,0,0,3.755,1.6,35.14,35.14,0,0,1,6.319,2.785,1,1,0,0,1,.212,1.508m.562-4.116c-2.1,0-3.922-1.1-3.922-3.083a4.15,4.15,0,0,1,4.037-3.866,3.4,3.4,0,0,1,3.458,3.583,3.325,3.325,0,0,1-3.573,3.366m13.525,0c-2.1,0-3.922-1.1-3.922-3.083a4.15,4.15,0,0,1,4.037-3.866,3.4,3.4,0,0,1,3.458,3.583,3.325,3.325,0,0,1-3.573,3.366" transform="translate(-146.206 -122.998)" fill="#fff"/>
    <path id="패스_27540" data-name="패스 27540" d="M831.364,100.133l-.008-.038a4.905,4.905,0,0,0-2.976-3.116c-3.272-1.589-8.172-.93-12.11-.4l-.313.042-.348.324a71.548,71.548,0,0,1,12.834,5.393,2.021,2.021,0,0,0,2.921-2.2" transform="translate(-724.606 -85.272)" fill="#fff"/>
    <path id="패스_27541" data-name="패스 27541" d="M1011.07,205.592a6.156,6.156,0,0,1-.07,1.22h0c.069-.419.126-.839.165-1.261l-.1.042" transform="translate(-898.196 -182.615)" fill="#0096de"/>
    <path id="패스_27542" data-name="패스 27542" d="M127.314,258c-6.651,2.751-13.633,5.424-20.378,7.6-9.355,3.018-17.3,4.768-23.605,5.2a37.793,37.793,0,0,1-6.839-.093,24.026,24.026,0,0,1-2.663-.449,14.282,14.282,0,0,1-7.072-3.657c-2.738-2.75-3.922-6.784-3.518-11.99a43.938,43.938,0,0,1,.968-5.276.627.627,0,0,0-.789-.742.608.608,0,0,0-.36.291c-1,1.716-2,3.524-2.967,5.377A71.441,71.441,0,0,0,53.9,269.515q-.338,1.364-.536,2.6a18,18,0,0,0,.125,6.319A6.282,6.282,0,0,0,54,279.977,6.581,6.581,0,0,0,56.98,283a11.789,11.789,0,0,0,4.177,1.16c3.7.4,8.667-.251,14.77-1.944a253.875,253.875,0,0,0,30.033-10.455c8.364-3.5,16.738-7.5,24.888-11.9,4.087-2.2,7.841-4.353,11.234-6.386,4.275-2.56,7.977-4.932,11.048-6.985l-.031.015c-6.575,3.063-15.808,7.365-25.785,11.491" transform="translate(-47.214 -218.994)" fill="#0096de"/>
    <path id="패스_27543" data-name="패스 27543" d="M810.734,101.707c-.342.046-.678.091-1,.132.218.062.437.126.656.191l.348-.324" transform="translate(-719.383 -90.359)" fill="#ffed00"/>
    <path id="패스_27544" data-name="패스 27544" d="M498.226,83.026a1.037,1.037,0,0,0-1.565-.547l-1.891,1.268L490.074,86.9a1.273,1.273,0,0,0,.271,1.951l8.744-.28a6.573,6.573,0,0,0-.167-3.357l-.6-1.879Z" transform="translate(-435.095 -73.12)" fill="#ffed00"/>
    <path id="패스_27545" data-name="패스 27545" d="M334.379,14a5.288,5.288,0,0,0,3.757-.838l2.857-1.916,8.469-5.679a1.037,1.037,0,0,1,1.565.547l1.215,3.816.56,1.757a1.867,1.867,0,0,0,1,1.137l.813.174a1.892,1.892,0,0,0,.919-.25l.021-.012a23.4,23.4,0,0,1,13.87-2.674,2.768,2.768,0,0,1-.2-.535,2.6,2.6,0,0,1,.079-1.594,3.21,3.21,0,0,1,1.034-1.348c1.673-1.344,5.278-2.132,9.647-2.1a34.486,34.486,0,0,1,4.1.268C389.9-2.9,368.928.6,360.58,2.209c-8.491,1.633-24.166,7.511-20.247.98,3.039-5.064-11.216,2.442-17.772,6.07l1,1.8a5.278,5.278,0,0,0,1.952,1.995,5.368,5.368,0,0,0,3.124.716,24.775,24.775,0,0,1,3.965.013q.889.074,1.777.213" transform="translate(-286.571 0)" fill="#ffed00"/>
    <path id="패스_27546" data-name="패스 27546" d="M256.186,98.725l-1.272-2.289a.877.877,0,0,0-1.448-.126l-3.292,4.06-1.836,2.265,5.534-1.23c.556-.267,1.191-.545,1.9-.814a1.107,1.107,0,0,0,.577-1.572Z" transform="translate(-220.629 -85.275)" fill="#ffed00"/>
    <path id="패스_27547" data-name="패스 27547" d="M547.994,111.991a38.88,38.88,0,0,0-4.484-.915,23.177,23.177,0,0,0-12.21,1.214,17.707,17.707,0,0,0-1.959.956,20.35,20.35,0,0,0-7.19,7.146,32.939,32.939,0,0,0-3.367,7.547.611.611,0,0,0,.749.772c1.675-.475,3.294-.963,4.717-1.437a1.4,1.4,0,1,1,.693,2.707c-1.912.347-4.119.708-6.334,1.09a1.065,1.065,0,0,0-.86.825c-.176.821-.322,1.611-.445,2.359a.683.683,0,0,0,.764.789q.617-.082,1.245-.172a1.06,1.06,0,0,1,1.21,1.085,1.1,1.1,0,0,1-1.094,1.023l-2.169-.012a.362.362,0,0,0-.362.324c-.029.284-.055.553-.077.806a1.805,1.805,0,0,0,.715,1.6l13.81-5.755c-.034-.76-.044-1.575-.015-2.425A22.318,22.318,0,0,1,532.451,125a13.31,13.31,0,0,1,3.924-5.939,10.962,10.962,0,0,1,9.945-2.359,14.211,14.211,0,0,1,4.657,2.035c2.683,1.666-.676,4.423-1.412,2.95-.42-.84-2.06-1.832-3.391-2.53-.158-.044-.32-.085-.486-.123a7.829,7.829,0,0,0-7.365,1.984,9.308,9.308,0,0,0-2.944,4.952,12.731,12.731,0,0,0-.205,6.377l30.4-12.668a72.692,72.692,0,0,0-17.577-7.686" transform="translate(-459.151 -98.419)" fill="#ffed00"/>
    <path id="패스_27548" data-name="패스 27548" d="M411.531,384.807a12.5,12.5,0,0,0-8.032.107,11.011,11.011,0,0,0-3.864,2.578,1.047,1.047,0,0,0,.969,1.755q5.036-1.087,10.944-2.907c1.591.007,1.658-1.13-.017-1.533" transform="translate(-354.775 -341.334)" fill="#ffed00"/>
    <path id="패스_27549" data-name="패스 27549" d="M777.321,61.74a23.237,23.237,0,0,0-6.185.513c-2.105.615-1.136,1.57-.886,1.644,1.665.5,3.573-.039,5.453-.368a25.624,25.624,0,0,1,2.551-.318c1.5-.111,2.846-.083,4.408-.083a14.282,14.282,0,0,1,2.027.178c1.883.28,3.669.778,3.378.629a23.069,23.069,0,0,0-8.546-2.1c-.722-.053-1.457-.084-2.2-.091" transform="translate(-683.917 -54.849)" fill="#ffed00"/>
    <path id="패스_27550" data-name="패스 27550" d="M274.078,232.491a3.325,3.325,0,0,0,3.573-3.366,3.4,3.4,0,0,0-3.458-3.583,4.15,4.15,0,0,0-4.037,3.866c0,1.98,1.819,3.083,3.922,3.083" transform="translate(-240.013 -200.377)" fill="#1a1311"/>
    <path id="패스_27551" data-name="패스 27551" d="M395.293,232.491a3.325,3.325,0,0,0,3.573-3.366,3.4,3.4,0,0,0-3.458-3.583,4.15,4.15,0,0,0-4.037,3.866c0,1.98,1.819,3.083,3.922,3.083" transform="translate(-347.703 -200.377)" fill="#1a1311"/>
    <path id="패스_27552" data-name="패스 27552" d="M194.394,273.092a15.406,15.406,0,0,1,4.768.695c2.763.992,3.9,2.114,4.472,2.932a1,1,0,1,0,1.352-1.413,35.147,35.147,0,0,0-6.319-2.785,36.794,36.794,0,0,1-3.755-1.6,1.147,1.147,0,1,0-.518,2.177" transform="translate(-171.695 -240.582)" fill="#1a1311"/>
    <path id="패스_27553" data-name="패스 27553" d="M188.288,336.376a30.37,30.37,0,0,1,8.274-1.4.762.762,0,0,0,.777-.774.744.744,0,0,0-.78-.7l-8.7.256a1.35,1.35,0,1,0,.43,2.622" transform="translate(-165.679 -296.286)" fill="#1a1311"/>
    <path id="패스_27554" data-name="패스 27554" d="M112.874,58.614A4.935,4.935,0,0,0,112.536,57a.388.388,0,0,1-.012-.251,8.688,8.688,0,0,0,.195-.862,10.029,10.029,0,0,0-.137-3.947,13.945,13.945,0,0,0-2.679-5.464,14.352,14.352,0,0,0-4.648-3.9,23.86,23.86,0,0,0-7.736-2.194,34.487,34.487,0,0,0-4.1-.268c-4.369-.027-7.974.76-9.648,2.1a3.208,3.208,0,0,0-1.034,1.348,2.6,2.6,0,0,0-.079,1.594,2.766,2.766,0,0,0,.2.535,23.4,23.4,0,0,0-13.87,2.674l-.021.012a1.89,1.89,0,0,1-1.733.076,1.866,1.866,0,0,1-1-1.137l-.56-1.757-1.215-3.816a1.037,1.037,0,0,0-1.565-.547l-8.469,5.679L51.566,48.8a5.289,5.289,0,0,1-3.757.838q-.888-.138-1.777-.213a24.8,24.8,0,0,0-3.965-.013,5.366,5.366,0,0,1-3.124-.716A5.277,5.277,0,0,1,36.991,46.7l-1-1.8L34.66,42.5a.877.877,0,0,0-1.448-.127l-7.061,8.576a.723.723,0,0,1-1.205-.147q-.032-.063-.071-.123c-.711-1.1-3.077-1.5-3.38,0s-8.47,14.588-10.746,19.087c-7.973,15.756-7.24,20.844-7.24,20.844a18.826,18.826,0,0,0,0,2.689H3.5v8.216a2.029,2.029,0,0,1-2.029,2.029,1.47,1.47,0,1,0,0,2.939H49.964a1.47,1.47,0,1,0,0-2.939H38.776l-.082,0a2.1,2.1,0,0,1-.825-3.966c1.07-.541,2.244-1.084,3.452-1.555,13.4-4.307,37.325-13.3,68.53-33.854a7.307,7.307,0,0,0,2.844-3.889,2.735,2.735,0,0,0,.094-.344c.006-.033.01-.066.016-.1a6.148,6.148,0,0,0,.07-1.22M106.75,50.46l.008.038a2.021,2.021,0,0,1-2.921,2.2A71.55,71.55,0,0,0,91,47.309c-.219-.065-.438-.13-.656-.192.326-.042.662-.087,1-.132l.314-.042c3.938-.529,8.838-1.188,12.11.4a4.905,4.905,0,0,1,2.976,3.116m-19.53-7.419a23.237,23.237,0,0,1,6.185-.513c.743.007,1.479.038,2.2.091a23.066,23.066,0,0,1,8.546,2.1c.291.15-1.5-.349-3.378-.629a14.281,14.281,0,0,0-2.027-.178c-1.562,0-2.913-.028-4.408.083a25.6,25.6,0,0,0-2.551.318c-1.881.329-3.788.865-5.453.368-.25-.075-1.22-1.029.886-1.644M18.432,71.447A43,43,0,0,1,20.9,60.841a20.005,20.005,0,0,1,1.505-3.313l.132-.23c.634-1.091,1.163-2.026,1.572-2.83a1.475,1.475,0,0,1,2.022-.627l.113.062a.686.686,0,0,0,.862-.17l.6-.737,1.836-2.265,3.292-4.06a.877.877,0,0,1,1.448.126l1.272,2.289.163.294a1.106,1.106,0,0,1-.577,1.572c-.71.269-1.345.547-1.9.814-.773.371-1.393.722-1.841,1a.927.927,0,0,0-.259,1.345l.334.448a.926.926,0,0,0,1.221.24,22.009,22.009,0,0,1,5.932-2.4,22.379,22.379,0,0,1,7.272-.561,23.19,23.19,0,0,1,3.174.5c2.431.047,4.639,2.054,6.747,3.159,1.566.82,2.459-2.66.5-3.513a4.762,4.762,0,0,1-1.073-.615,1.273,1.273,0,0,1-.27-1.951l4.695-3.148L61.566,45a1.037,1.037,0,0,1,1.565.546l.1.306.6,1.878a6.576,6.576,0,0,1,.167,3.357,6.648,6.648,0,0,1-1.3,2.756,26.606,26.606,0,0,0-1.772,2.532,36.72,36.72,0,0,0-4.079,9.715l0,.009a1.546,1.546,0,0,1-1.1,1.091c-3.575.931-6.82,1.7-8.349,2.068a.938.938,0,0,0-.7,1.12h0a.9.9,0,0,0,1.3.652,34.4,34.4,0,0,1,7.559-2.035.429.429,0,0,1,.5.5q-.153.777-.273,1.507a2.064,2.064,0,0,1-1.971,1.723,25.875,25.875,0,0,1-3.6-.111.781.781,0,0,0-.872.744.767.767,0,0,0,.763.783l4.849.027a.362.362,0,0,1,.359.4l0,.033a1.816,1.816,0,0,1-1.9,1.636,13.689,13.689,0,0,0-5.55.73A14.025,14.025,0,0,0,41.618,81.9a7.585,7.585,0,0,1-5.6,3.136l-.068,0q-1.518.1-2.906.1c-5.449,0-9.409-1.206-11.791-3.6a9.387,9.387,0,0,1-2.323-4.01,16.914,16.914,0,0,1-.5-6.09m38.341,9.2q-5.9,1.819-10.944,2.907a1.047,1.047,0,0,1-.969-1.755,11.011,11.011,0,0,1,3.864-2.578,12.5,12.5,0,0,1,8.032-.107c1.675.4,1.608,1.54.017,1.533M94.868,70.126c-3.393,2.032-7.147,4.182-11.234,6.386-8.15,4.393-16.524,8.4-24.888,11.9A253.9,253.9,0,0,1,28.713,98.863c-6.1,1.693-11.072,2.347-14.77,1.944a11.789,11.789,0,0,1-4.177-1.16A6.582,6.582,0,0,1,6.782,96.62a6.288,6.288,0,0,1-.507-1.538,18,18,0,0,1-.125-6.319q.2-1.24.536-2.6a71.447,71.447,0,0,1,6.191-15.251c.967-1.853,1.972-3.66,2.967-5.377a.608.608,0,0,1,.36-.291.627.627,0,0,1,.788.742,43.96,43.96,0,0,0-.968,5.276c-.4,5.206.78,9.24,3.518,11.99a14.28,14.28,0,0,0,7.072,3.657,24.048,24.048,0,0,0,2.663.449,37.816,37.816,0,0,0,6.839.093c6.308-.435,14.25-2.185,23.605-5.2,6.745-2.176,13.727-4.849,20.378-7.6,9.976-4.126,19.209-8.428,25.784-11.491l.031-.015c-3.07,2.053-6.773,4.425-11.048,6.985M106.8,60.065l-1.94.9C98.4,63.98,89.342,68.2,79.558,72.257c-1.427.592-2.9-.42-3.533-2.693a12.733,12.733,0,0,1,.205-6.377,9.307,9.307,0,0,1,2.944-4.952,7.828,7.828,0,0,1,7.365-1.984c.166.038.327.079.486.123,1.331.7,2.971,1.69,3.391,2.53.736,1.472,4.095-1.284,1.412-2.951a14.212,14.212,0,0,0-4.657-2.035,10.961,10.961,0,0,0-9.945,2.359A13.309,13.309,0,0,0,73.3,62.217a22.317,22.317,0,0,0-1.119,6.518c-.029.85-.019,1.665.015,2.425.037.834.1,1.6.177,2.273a2.141,2.141,0,0,1-1.357,2.24c-2.722,1.044-5.459,2.048-8.173,2.985a28.011,28.011,0,0,0-3.87-1.447,1.817,1.817,0,0,1-1.3-1.893c.022-.253.047-.522.077-.806a.362.362,0,0,1,.362-.324l2.169.012a1.1,1.1,0,0,0,1.094-1.023,1.06,1.06,0,0,0-1.211-1.085q-.627.09-1.245.172a.683.683,0,0,1-.764-.788c.123-.747.269-1.538.445-2.359a1.064,1.064,0,0,1,.86-.825c2.214-.381,4.421-.743,6.334-1.09a1.4,1.4,0,1,0-.693-2.707c-1.423.474-3.042.962-4.717,1.437a.611.611,0,0,1-.749-.772A32.94,32.94,0,0,1,63,57.61a20.349,20.349,0,0,1,7.19-7.146,17.724,17.724,0,0,1,1.959-.956A23.177,23.177,0,0,1,84.359,48.3a38.863,38.863,0,0,1,4.484.915A72.694,72.694,0,0,1,106.42,56.9q.389.226.781.458a1.638,1.638,0,0,1-.4,2.711" transform="translate(0 -35.637)" fill="#1a1311"/>
  </g>
</svg>
