<svg id="PPS_18" xmlns="http://www.w3.org/2000/svg" xmlns:xlink="http://www.w3.org/1999/xlink" width="64.799" height="112.398" viewBox="0 0 64.799 112.398">
  <defs>
    <clipPath id="clip-path">
      <rect id="사각형_6144" data-name="사각형 6144" width="64.799" height="112.398" fill="none"/>
    </clipPath>
    <clipPath id="clip-path-3">
      <rect id="사각형_6142" data-name="사각형 6142" width="60.866" height="112.398" fill="none"/>
    </clipPath>
  </defs>
  <g id="그룹_11602" data-name="그룹 11602" clip-path="url(#clip-path)">
    <g id="그룹_11601" data-name="그룹 11601" transform="translate(0 0)">
      <g id="그룹_11600" data-name="그룹 11600" clip-path="url(#clip-path)">
        <path id="패스_27412" data-name="패스 27412" d="M451.579,909.887q.668.345,1.346.674a2.665,2.665,0,0,0,.24-.388q-.8-.394-1.586-.81Z" transform="translate(-401.193 -807.9)" fill="#6863a7"/>
        <path id="패스_27413" data-name="패스 27413" d="M440.4,923.433c.662.2,1.234.384,1.669.532q.083-.064.161-.127-.35-.2-.7-.405Z" transform="translate(-391.263 -820.4)" fill="#6863a7"/>
        <path id="패스_27414" data-name="패스 27414" d="M211.374,385.872c-.118-.186-.232-.371-.341-.55a1.763,1.763,0,0,0-1.678-.812c-1.042.1-2.232.192-3.544.263-1.364.073-2.945.125-4.681.125a75.81,75.81,0,0,1-13.533-1.16q-.07.327-.148.651.257.078.5.162L188,384.5l-.016-.012s.084.061.246.158a18.816,18.816,0,0,1,2.666,1.2,37.432,37.432,0,0,0,8.961,1.805,28.386,28.386,0,0,0,10.032-.773c.467-.13.889-.265,1.266-.4a.407.407,0,0,0,.223-.6l0,0" transform="translate(-166.535 -340.922)" fill="#ee8673"/>
        <path id="패스_27415" data-name="패스 27415" d="M425.038,348.522a11.142,11.142,0,0,1-.932-3.528c-.121-3.393-1.476-13.131-1.489-13.229l-.068-.491.237-.442a8.434,8.434,0,0,0,.655-2.056.914.914,0,0,0-.966-1.071c-.3.01-.6.016-.908.016a17.872,17.872,0,0,1-2.973-.223,1.53,1.53,0,0,1-1.172-.916,14.215,14.215,0,0,0-1.812,3.831,1.558,1.558,0,0,1,.787,1.046l.311,1.514c.077.126.156.255.237.385a8.149,8.149,0,0,0,1.84,2.349c.847.38,1.488,1.269,2.248,4.6a72.144,72.144,0,0,1,1.285,8.315c.094.929.192,2.035.278,3.277h.082v.313c2.394-.245,2.883-.8,2.957-.912.3-.448-.218-1.8-.6-2.779" transform="translate(-369.237 -290.143)" fill="#ee8673"/>
        <path id="패스_27416" data-name="패스 27416" d="M315.15,129.677a6.533,6.533,0,0,0,6.714-6.319q0-.152-.008-.3a1.741,1.741,0,0,0-1.612-1.591c-.474-.047-1.039-.1-1.667-.142s-1.336-.083-2.074-.107c-.536-.017-1.091-.027-1.656-.024q-.633,0-1.208.023v10.223a14.693,14.693,0,0,0,1.511-.078Z" transform="translate(-278.644 -107.67)" fill="#ee8673"/>
        <g id="그룹_11599" data-name="그룹 11599" transform="translate(0 0)" style="mix-blend-mode: multiply;isolation: isolate">
          <g id="그룹_11598" data-name="그룹 11598">
            <g id="그룹_11597" data-name="그룹 11597" clip-path="url(#clip-path-3)">
              <path id="패스_27417" data-name="패스 27417" d="M59.161,109.193l-9.408.038c-.249-.083,2.862-3.184-12.239-1.606a1.3,1.3,0,0,1-1.322,1.568H32.743a1.29,1.29,0,0,1-1.278-1.709l.175-.46c-4.27-1.443-9.963.276-10.2.35a1.4,1.4,0,0,1-1.4,1.819H7.25a3.733,3.733,0,0,1-3.841-3.615V59.589a3.427,3.427,0,0,0,.626,1.143c.048.058.1.115.156.173l.247,1.029,7.948,6.3a12.189,12.189,0,0,1,4.473,7.35c.152.834.3,1.726.441,2.647l-.058.089.078.045c.217,1.472.4,3.015.5,4.513a5.169,5.169,0,0,1-1.112,2.789,9.9,9.9,0,0,0-1.239,2.508,4.287,4.287,0,0,0-.165,1.23,19.237,19.237,0,0,0,.138,2,12.119,12.119,0,0,0,2.277,6.019,8.956,8.956,0,0,0,.632.737,8.136,8.136,0,0,0,.616.581c-.174.311-.381.651-.616,1.016-.474.735-1.065,1.572-1.757,2.482a1.89,1.89,0,0,0,.05,2.384,2.216,2.216,0,0,0,1.716.794,2.343,2.343,0,0,0,.805-.143,25.06,25.06,0,0,1,7.947-1.008h.057a28.271,28.271,0,0,1,5.769.46,3.335,3.335,0,0,0,2.9-.355l.014-.01a1.663,1.663,0,0,1,2.179.279c.127.151.206.239.217.251l.908.994,1.216-.639c.319-.168,1.669-.642,5.654.3a40.129,40.129,0,0,1,4.4,1.326l.825.313.744-.458c2.245-1.381,3.452-3.046,3.586-4.949a5.472,5.472,0,0,0-.63-2.879,10.009,10.009,0,0,1-1.1-5.359l.165-2.02a1.517,1.517,0,0,0-1.453-1.6l-.25-.018a1.568,1.568,0,0,0-1.658,1.15,1.411,1.411,0,0,0-.037.217l-.233,2.861-.012.147-.212,2.594-.029.351-.028.34a1.376,1.376,0,0,0,.517,1.18l.077.062a5.6,5.6,0,0,1,1.073,1.292,2.6,2.6,0,0,1,.407,1.463,1.9,1.9,0,0,1-.207.722,2.676,2.676,0,0,1-.24.388,4.35,4.35,0,0,1-.762.777q-.078.064-.161.127c-.435-.148-1.007-.335-1.669-.532l-.211-.062c-.6-.176-1.269-.357-1.969-.525l-.069-.017a27.685,27.685,0,0,0-2.837-.531,12.924,12.924,0,0,0-3.427-.048c-.163.023-.322.049-.475.081l-.006-.008a.619.619,0,0,1,.481-.973c.022,0,.045,0,.068,0,.547,0,1.144.013,1.757.048s1.132.085,1.6.147a9.384,9.384,0,0,1,2.672.67,1.618,1.618,0,0,0,.234.086,1.642,1.642,0,0,0,.624.055,1.575,1.575,0,0,0,.652-.219,1.522,1.522,0,0,0,.131-.088l.294-.223a1.506,1.506,0,0,0,.24-.23,1.384,1.384,0,0,0,.242-1.385,1.462,1.462,0,0,0-.735-.794,9,9,0,0,0-1.3-.509,16.939,16.939,0,0,0-3.427-.635c-.343-.032-.7-.059-1.066-.08a7.3,7.3,0,0,0-1.839.368,1.7,1.7,0,0,1-2.328-1.11s.015-.069.04-.185c.11-.509.419-1.937.546-2.594l.007-.038a.4.4,0,0,1,.747-.073l.013.029c.012.028.026.056.041.083a1.1,1.1,0,0,0,.785.55,1.164,1.164,0,0,0,.63-.064l.709-.281a1.518,1.518,0,0,0,.649-.486A1.377,1.377,0,0,0,42.8,92.6c-.149-.349-.32-.756-.506-1.205-.387-.934-.836-2.052-1.28-3.225q-.118-.313-.236-.629c-.285-.771-.563-1.555-.813-2.315-.327-.994-.607-1.948-.8-2.783-.081-.354-.147-.687-.193-.992-.084-.559-.207-1.325-.357-2.234-.128-.774-.276-1.652-.437-2.594-.155-.911-.322-1.881-.494-2.875l-.061-.351c-.165-.951-.334-1.92-.5-2.875-.155-.885-.308-1.758-.455-2.594-.206-1.169-.4-2.266-.57-3.225-.136-.77-.257-1.451-.356-2.008a1.541,1.541,0,0,0-.237-.586,1.717,1.717,0,0,0-1.209-.736,1.808,1.808,0,0,0-.516.007h0a1.741,1.741,0,0,0-.841.378,1.55,1.55,0,0,0-.557,1.469c.088.495.193,1.089.312,1.757.138.778.293,1.655.459,2.594.18,1.02.372,2.112.567,3.225.151.86.3,1.732.453,2.594.093.535.185,1.067.275,1.589.08.461.158.914.233,1.356.2,1.179.389,2.278.546,3.225.061.366.117.71.169,1.027a.358.358,0,0,1-.589.3l-.008-.006c-.117-.094-.234-.182-.351-.268a11.86,11.86,0,0,0-1.472-.924,1.8,1.8,0,0,0-1.955.139,1.62,1.62,0,0,0-.486.623,1.544,1.544,0,0,0,.486,1.857l.044.031q.068.049.142.092c.022.013.043.026.065.038l.122.065a8.131,8.131,0,0,1,1.194.789,5.343,5.343,0,0,1,1.547,1.89,4.334,4.334,0,0,1,.313.935,5.211,5.211,0,0,1,.037,1.879l-.019.13-.018.121-.024.159q-.067.459-.125.9c-.079.591-.149,1.158-.209,1.7-.136,1.222-.227,2.3-.286,3.225-.071,1.1-.1,1.973-.107,2.594-.008.593,0,.957,0,1.064v.245a2.862,2.862,0,0,1-.742,1.916,3.209,3.209,0,0,1-1.565.954,3.369,3.369,0,0,1-1.1.107c-.735-.049-1.523-.081-2.331-.095q-.391-.007-.787-.007h-.06c-.635,0-1.33.012-2.058.044q-.364.016-.737.039a1.693,1.693,0,0,1-1.795-1.322,1.493,1.493,0,0,1,.091-.861q.045-.109.085-.213l.084-.191a1.261,1.261,0,0,0-.2-1.329,1.4,1.4,0,0,0-.595-.413l-.19-.069c-.03-.015-.09-.048-.171-.1a5.518,5.518,0,0,1-1.917-2.363,10.56,10.56,0,0,1-.881-3.225c-.052-.421-.089-.872-.107-1.353,0-.114-.009-.227-.011-.345a1.07,1.07,0,0,1,.011-.162,2.511,2.511,0,0,1,.251-.734c.177-.363.423-.76.677-1.17a10.564,10.564,0,0,0,.849-2.056c.055-.171.109-.342.16-.51a1.848,1.848,0,0,1,.968-1.115,2.061,2.061,0,0,1,1.737-.041l.027.012a1.37,1.37,0,0,1,.646,2,1.426,1.426,0,0,1-.33.358,4.873,4.873,0,0,1-1.146.7c.03-.011.046-.014.046-.014l.511,1.549.068.207a1.257,1.257,0,0,0,1.855.62l.013-.008c.236-.148.495-.326.773-.538a14.892,14.892,0,0,0,2.187-2.084c.033-.037.064-.076.094-.114a2.614,2.614,0,0,0,.382-.677,2.672,2.672,0,0,0,.124-1.442,4.036,4.036,0,0,0-.655-1.532q-.051-.078-.108-.159a14.678,14.678,0,0,0-2.894-2.875l-.276-.217c-.4-.309-.83-.633-1.311-.976-.269-.192-.537-.378-.8-.558a6.319,6.319,0,0,1-.943-.788c-.129-.131-.251-.266-.367-.406a5.828,5.828,0,0,1-1.231-2.6c-.042-.216-.083-.425-.124-.63-.158-.787-.309-1.491-.44-2.08a1.11,1.11,0,0,1,.777-1.288,14.6,14.6,0,0,0,4.248-1.947c.06-.049.118-.1.174-.154l.018-.017a2.758,2.758,0,0,0,.292-.333q.042-.056.081-.114a4.575,4.575,0,0,0,.641-2.48,15.2,15.2,0,0,0-.274-2.934q-.026-.147-.053-.292c-.1-.517-.206-1.014-.313-1.463l0-.007a11.007,11.007,0,0,1-.205-1.125c-.012-.093-.025-.187-.035-.28a10.765,10.765,0,0,1,0-2.24l.037-.355.036-.351.172-1.655.1-.939.152-1.465a2.754,2.754,0,0,1,.905-1.761,3.081,3.081,0,0,1,1.75-.774,3.174,3.174,0,0,1,.873.03q1.231.215,2.554.376.782.1,1.594.171c.447.042.882.072,1.312.1.689.04,1.358.06,2,.06.489,0,.963-.011,1.425-.031,1.037-.044,2.006-.135,2.905-.258a27.965,27.965,0,0,0,3.427-.684q.4-.108.777-.22a2.739,2.739,0,0,1,2.129.228A2.458,2.458,0,0,1,48.1,50.472c.015.046.03.092.042.139.189.7.394,1.531.595,2.455.213.976.421,2.061.605,3.225.131.828.249,1.7.347,2.594q.05.456.092.921c.061.674.124,1.448.181,2.3.016.246.032.5.048.76.034.581.065,1.194.091,1.835q.006.139.011.28c.031.825.053,1.693.063,2.594q0,.174,0,.351c.006.84,0,1.707-.019,2.594q0,.14-.007.281-.009.355-.021.713a9.536,9.536,0,0,1-.344,2.232,9.7,9.7,0,0,1-1.159,2.594,10.009,10.009,0,0,1-1.353,1.7l-.244.248-.076.079q-.417.433-.787.852a14.55,14.55,0,0,0-2.189,3.133l-.044.092a5.807,5.807,0,0,0-.642,2.9l.384-.024.372-.023,1.164-.071,1.481-.091a2.621,2.621,0,0,1,.26-1.168,8.112,8.112,0,0,1,.958-1.616c.2-.272.43-.563.7-.877l1.4-.514.915-.337a1.678,1.678,0,0,0,1.963-1.354c0-.017,0-.035.007-.052q.185-1.3.314-2.594c.1-.947.171-1.89.228-2.823A91.377,91.377,0,0,0,53.5,64.22l.112,1.063c2.952-.274,4.754-1.04,5.672-2.41,1.189-1.775.412-3.8-.274-5.582a9.116,9.116,0,0,1-.731-2.544c-.113-3.154-1.179-11.082-1.454-13.087A18.656,18.656,0,0,0,57.933,36.9a1.558,1.558,0,0,0,.668-1.7A19.369,19.369,0,0,0,50.342,23.4a1.528,1.528,0,0,0-2.189.615l-.358.792A.849.849,0,0,0,48.16,25.9a13.272,13.272,0,0,1,2.418,1.83,15.909,15.909,0,0,1,3.1,4.084,1.77,1.77,0,0,1-1.7,2.556,13.723,13.723,0,0,1-1.936-.15,1.6,1.6,0,0,0-1.712.854l-.11.233a1.4,1.4,0,0,0-.03,1.138,1.53,1.53,0,0,0,1.172.916,17.885,17.885,0,0,0,2.973.223c.308,0,.611-.006.908-.016a.914.914,0,0,1,.966,1.071,8.44,8.44,0,0,1-.655,2.056l-.237.442.068.491c.014.1,1.368,9.836,1.489,13.229a11.143,11.143,0,0,0,.932,3.528c.378.984.9,2.331.6,2.779-.074.111-.563.667-2.957.912l-.061.006c-.007-.107-.014-.214-.021-.319-.085-1.242-.183-2.348-.278-3.277A72.134,72.134,0,0,0,51.8,50.169c-.76-3.334-1.4-4.222-2.248-4.6a8.148,8.148,0,0,1-1.84-2.349c-.082-.13-.161-.258-.237-.385l-.311-1.514a1.558,1.558,0,0,0-.787-1.046,1.73,1.73,0,0,0-1.067-.2c-1.367.185-3.563.434-6.287.579a77.547,77.547,0,0,1-15.737-.718,1.745,1.745,0,0,1-1.521-1.844,65.743,65.743,0,0,0-.011-10.633.475.475,0,0,1,.935-.121l0,.017,0,.023a11.011,11.011,0,0,0,1.585,3.9,1.765,1.765,0,0,0,2.52.479,1.538,1.538,0,0,0,.419-2.1,7.888,7.888,0,0,1-1.166-2.834,4.673,4.673,0,0,1,.63-3.574c1.249-1.776,1.353-4.392,1.161-6.511A2.283,2.283,0,0,1,29.409,14.4a11.921,11.921,0,0,1,1.585-.428,1.107,1.107,0,0,0-.121.492c0,.68.664,1.059,1.431,1.059a1.183,1.183,0,0,0,1.3-1.156,1.249,1.249,0,0,0-.225-.726c.5-.043,1.033-.075,1.612-.095q.576-.02,1.208-.023c.565,0,1.12.007,1.656.024a1.272,1.272,0,0,0-.447.916c0,.68.664,1.059,1.431,1.059a1.183,1.183,0,0,0,1.3-1.156,1.252,1.252,0,0,0-.214-.712c.627.044,1.192.095,1.667.142a1.741,1.741,0,0,1,1.612,1.591q.008.15.008.3a6.533,6.533,0,0,1-6.714,6.319v3.208c5.581,0,10.122-4.274,10.122-9.527A9.294,9.294,0,0,0,43.05,8.431a10.36,10.36,0,0,0-4.531-2.077,1.676,1.676,0,0,0-1.995,1.338,1.52,1.52,0,0,0-.018.223v.042A1.611,1.611,0,0,0,37.862,9.5a6.954,6.954,0,0,1,.7.175.333.333,0,0,1-.125.651c-.726-.026-1.354-.014-2.21-.011q-.634,0-1.237.022a23.537,23.537,0,0,0-6.579,1A1.276,1.276,0,0,1,26.75,9.729a12.872,12.872,0,0,1,.562-1.207c.621-1.173,1.978-3.223,4.08-3.768a12.15,12.15,0,0,1,9.32.881,10.4,10.4,0,0,1,2.182,1.652,1.7,1.7,0,0,0,1.866.34,1.645,1.645,0,0,0,.174-.087l.13-.076A1.484,1.484,0,0,0,45.389,5.1,13.764,13.764,0,0,0,40.577,2V1.976A2.037,2.037,0,0,0,38.482,0H0V110.809A1.645,1.645,0,0,0,1.692,112.4H59.161a1.607,1.607,0,1,0,0-3.208M19.3,66.94l-.07.023a4.4,4.4,0,0,1-4.06-.716L10.609,62.63a.961.961,0,0,1,.147-1.62,5.17,5.17,0,0,0,2.1-1.967,5.4,5.4,0,0,0,.41-4.164.575.575,0,0,0-.757-.358l-2.137.8a.526.526,0,0,0-.348.594,2.309,2.309,0,0,1-.167,1.6c-.342.576-3.161,1.191-3.161,1.191A4.2,4.2,0,0,1,6.9,56.278a16.118,16.118,0,0,1,.875-2.347l.051-.105.034-.111c.332-1.07.755-2.428,1.2-3.86a.262.262,0,0,1,.508.063l.064,2.363a.723.723,0,0,0,.76.679l1.926-.046a.717.717,0,0,0,.722-.715l-.061-2.244a3.756,3.756,0,0,1,2.758-3.676l.131-.036a7.958,7.958,0,0,1,4.3.374l.015.008a3.76,3.76,0,0,1,1.442,1.427,3.448,3.448,0,0,1,.435,2.058l-.038.363-.269,2.594L21.631,54.3l-.445,4.289-.032.31.093.3c0,.009.178.572.384,1.388.113.447.235.971.344,1.52l.024.122q.034.176.063.34a3.716,3.716,0,0,1-.254,2.132,3.825,3.825,0,0,1-.176.356A4.106,4.106,0,0,1,19.3,66.94M44.618,45.562c-.377.132-.8.267-1.266.4a28.389,28.389,0,0,1-10.032.773,37.434,37.434,0,0,1-8.961-1.805,18.834,18.834,0,0,0-2.666-1.2c-.161-.1-.241-.155-.246-.158l.016.012-.045.051q-.247-.083-.5-.162.077-.323.148-.651A75.817,75.817,0,0,0,34.6,43.98c1.736,0,3.317-.052,4.681-.126,1.312-.071,2.5-.164,3.544-.263A1.762,1.762,0,0,1,44.5,44.4c.109.179.222.363.341.55l0,0a.407.407,0,0,1-.223.6M3.409,6.52A3.416,3.416,0,0,1,6.923,3.212H24.454a1.216,1.216,0,0,1,1.055,1.929,15,15,0,0,0-2.968,7.678c-.094,1.4.114,3.192,1.64,3.791.07.028.145.053.223.075.017.152.032.307.046.465.17,1.987-.048,3.523-.613,4.327l-.006.008a2.388,2.388,0,0,1-1.518.974A16.4,16.4,0,0,0,18,23.906c-2.955,1.482-6.807,4.608-8.373,11.083l-.206.851A.97.97,0,0,0,10.466,37l.925-.052c.025,0,1.373-.077,3.176-.149a1.633,1.633,0,0,0,1.616-1.638q-.012-.356-.022-.712a.945.945,0,0,0-1.009-.884h-.026a.941.941,0,0,1-.94-1.325,12.694,12.694,0,0,1,1.762-2.67,1.456,1.456,0,0,1,2.55.808,52.992,52.992,0,0,1-.473,10.181,3.039,3.039,0,0,1-2.487,2.464q-.276.051-.551.121a7.571,7.571,0,0,0-3.3,1.78.538.538,0,0,1-.9-.513c.551-1.721,1-3.08,1.176-3.55.043-.112.087-.237.133-.373a1.022,1.022,0,0,0-.952-1.318q-.662-.045-1.325-.072a1.083,1.083,0,0,0-1.063.676l0,.006C8.142,41.384,5,51.505,4.621,52.712l-.006.013a.634.634,0,0,1-1.206-.231Z" transform="translate(0 -0.004)" fill="#0d1a35"/>
            </g>
          </g>
        </g>
        <path id="패스_27418" data-name="패스 27418" d="M194.3,432.685a3.449,3.449,0,0,0-.435-2.058v2.421h.4Z" transform="translate(-172.233 -382.579)" fill="#6cae30"/>
        <path id="패스_27419" data-name="패스 27419" d="M193.864,475.574v1.238l.129-1.238Z" transform="translate(-172.233 -422.511)" fill="#6cae30"/>
        <path id="패스_27420" data-name="패스 27420" d="M193.864,543.014v1.52h.344c-.108-.549-.231-1.073-.344-1.52" transform="translate(-172.233 -482.427)" fill="#6cae30"/>
        <path id="패스_27421" data-name="패스 27421" d="M478.235,553.816l.061-.006V553.5h-.082c.007.105.014.212.021.319" transform="translate(-424.856 -491.74)" fill="#6cae30"/>
        <path id="패스_27422" data-name="패스 27422" d="M193.864,579.89v.356a3.851,3.851,0,0,0,.176-.356Z" transform="translate(-172.233 -515.188)" fill="#6cae30"/>
        <path id="패스_27423" data-name="패스 27423" d="M477.134,664.24v-2.823c-.057.933-.133,1.876-.228,2.823Z" transform="translate(-423.694 -587.619)" fill="#6cae30"/>
        <path id="패스_27424" data-name="패스 27424" d="M202.841,470.257a1.678,1.678,0,0,1-1.962,1.354l-.915.337v1.391h-2.1a8.113,8.113,0,0,0-.958,1.617v1.258h-1.741l-1.164.071-.372.023-.384.024a5.807,5.807,0,0,1,.642-2.9l.044-.092a14.545,14.545,0,0,1,2.189-3.133H194v-2.594h2.905v1.742l.076-.079q.122-.126.244-.248a10,10,0,0,0,1.353-1.7h-1.524v-2.594h2.683a9.531,9.531,0,0,0,.344-2.232q.012-.359.021-.713,0-.141.007-.281c.02-.887.025-1.754.019-2.594q0-.176,0-.351c-.01-.9-.032-1.769-.063-2.594q-.005-.141-.011-.281c-.026-.64-.057-1.253-.091-1.835v1.835h-2.905V453.1h2.858c-.057-.856-.12-1.631-.181-2.3q-.042-.465-.092-.921h-2.584v-2.594H199.3c-.184-1.165-.393-2.249-.606-3.225h-1.632v-2.594h.995a2.457,2.457,0,0,0-1.144-1.357v1.006H194v-1.014a27.977,27.977,0,0,1-3.427.684v.329h-2.905v-.072c-.462.02-.936.031-1.425.031-.644,0-1.313-.021-2-.06v.1h-2.905v-.368q-1.322-.161-2.554-.376a3.174,3.174,0,0,0-.873-.03v.774h-1.75a2.754,2.754,0,0,0-.905,1.761l-.152,1.465h2.808v2.594h-2.905v-1.655l-.172,1.655-.036.351-.037.354a10.773,10.773,0,0,0,0,2.24c.01.094.022.187.035.28a11.033,11.033,0,0,0,.205,1.125l0,.007v-1.131h2.905v2.594h-2.592q.027.145.053.292a15.2,15.2,0,0,1,.274,2.934h2.264v2.594h-2.905v-.115q-.039.058-.081.115a2.774,2.774,0,0,1-.292.333l-.018.017h.018v2.594h-3.054v2.875h-1.722c.041.2.082.414.124.63a5.829,5.829,0,0,0,1.231,2.6h.367v.406a6.321,6.321,0,0,0,.943.788c.263.179.531.366.8.558.481.343.915.667,1.311.976l.276.217a14.684,14.684,0,0,1,2.894,2.875h.108v.159a4.033,4.033,0,0,1,.655,1.532,2.67,2.67,0,0,1-.123,1.442h2.523v2.594h-2.905V477.24q-.045.058-.094.115a14.882,14.882,0,0,1-2.187,2.084h2.132v2.594h-2.905v-2.056l-.013.008a1.257,1.257,0,0,1-1.855-.62l-.068-.207H171.73v-2.594h2.261a1.37,1.37,0,0,0-.646-2l-.027-.012a2.061,2.061,0,0,0-1.737.041v1.625h-1.128a10.573,10.573,0,0,1-.849,2.056c-.254.409-.5.807-.677,1.17h2.655v2.594h-2.8a10.56,10.56,0,0,0,.881,3.225h1.917v2.363c.081.051.141.084.171.1l.19.069a1.4,1.4,0,0,1,.595.414h2.1V490.8h-2.159a1.693,1.693,0,0,0,1.795,1.321q.373-.023.737-.039v-1h2.905v.966c.808.014,1.6.046,2.331.1a3.374,3.374,0,0,0,1.1-.107v-.954H182.9a2.862,2.862,0,0,0,.742-1.916v-.245c0-.107-.011-.471,0-1.064h-2.3v-2.594h2.41c.059-.923.15-2,.286-3.225h-2.7v-2.594h2.905v.9q.059-.44.126-.9l.023-.159.018-.121h-.018v-2.01a4.328,4.328,0,0,0-.313-.935h-2.741v-2.679l-.122-.065c-.023-.012-.044-.025-.065-.038a1.683,1.683,0,0,1-.142-.092l-.044-.031v.031h-2.905v-2.783h2.905v.272a1.8,1.8,0,0,1,1.955-.139,11.86,11.86,0,0,1,1.472.924v-1.057h.779c-.157-.947-.344-2.046-.546-3.225h-.233v-1.356c-.09-.522-.182-1.053-.275-1.589h-2.779v-2.594h2.326c-.2-1.114-.387-2.205-.567-3.225h-1.759v-2.594h1.3l-.312-1.757a1.55,1.55,0,0,1,.557-1.469h-1.546v-2.594h2.905v2.209a1.718,1.718,0,0,1,1.209.736H187.3v2.594h-1.252c.17.96.364,2.057.57,3.225h.683v2.594h-.227c.167.955.336,1.924.5,2.875l.061.351c.172.994.339,1.964.494,2.875h2.449v2.594h-2.012c.15.909.274,1.675.357,2.234.046.3.112.638.193.992h1.462v2.783h-.664c.25.761.528,1.544.813,2.315v-1.965h2.905v2.594h-2.67c.444,1.173.894,2.291,1.281,3.225h1.389v2.594h-1.067a1.519,1.519,0,0,1-.648.486l-.709.281a1.164,1.164,0,0,1-.63.064v2.044h-2.139c-.025.116-.04.185-.04.185a1.7,1.7,0,0,0,2.328,1.11V488.2h2.905v.657a16.944,16.944,0,0,1,3.427.635V488.2h2.905V490.8h-.871a1.379,1.379,0,0,1,0,.976,1.4,1.4,0,0,1-.242.409,1.506,1.506,0,0,1-.24.23l-.294.223a1.5,1.5,0,0,1-.13.088,1.575,1.575,0,0,1-.652.219,1.64,1.64,0,0,1-.624-.055v.548c.7.167,1.368.349,1.969.525l.211.062h1.247v-2.945h1.386a5.6,5.6,0,0,0-1.072-1.292l-.077-.062a1.375,1.375,0,0,1-.517-1.18l.028-.34.029-.351.212-2.594.012-.147.233-2.861a1.41,1.41,0,0,1,.037-.217h-.27v-2.594h3.054v-3.225h-3.054V473.43h3.054v-3.225h-.542l-.007.052m-21.874,14.72h-2.905v-2.594h2.905Zm-9.237-2.594h2.905v2.594H171.73Zm3.278,2.875h2.905v2.594h-2.905Zm3.054,2.945h2.905V490.8h-2.905Zm12.664-23.467h2.905v2.594h-2.905Zm-3.054-8.764h2.905v2.594h-2.905Zm0-5.82h2.905v2.594h-2.905Zm3.054-2.875h2.905v2.594h-2.905Zm6.183,5.469H194v-2.594h2.905Zm0,5.82H194v-2.594h2.905Zm-3.278,2.945h-2.905v-2.594h2.905Zm-2.905-8.414h2.905v2.594h-2.905ZM194,461.791h2.905v2.594H194Zm5.96-.281h-2.905v-2.594h2.905Zm-3.054-14.584H194v-2.594h2.905Zm-3.278-2.875h-2.905v-2.594h2.905Zm-3.054,2.875h-2.905v-2.594h2.905Zm-3.278-2.875h-2.905v-2.594H187.3Zm-6.332,0h-2.905v-2.594h2.905Zm0,5.82h-2.905v-2.594h2.905Zm0,5.82h-2.905V453.1h2.905Zm0,5.82h-2.905v-2.594h2.905Zm-3.054,2.875h-2.905v-2.594h2.905Zm-6.183.351h2.905v2.594H171.73Zm3.278,2.875h2.905v2.594h-2.905Zm3.054-2.875h2.905v2.594h-2.905Zm6.183,5.469h-2.905v-2.594h2.905Zm-2.905-25.873h2.905v2.594h-2.905Zm3.054,2.945H187.3v2.594h-2.905Zm3.278,14.514h2.905v2.594h-2.905Zm3.054,8.764h2.905v2.783h-2.905Zm9.237,8.6h-2.905v-2.594h2.905Zm-3.054,2.875H194v-2.594h2.905ZM194,485.258h2.905v2.594H194Zm3.054-2.875h2.905v2.594h-2.905Z" transform="translate(-149.95 -390.989)" fill="#6cae30"/>
        <path id="패스_27425" data-name="패스 27425" d="M137.113,790.209v3.225h.145a19.237,19.237,0,0,1-.138-1.995,4.286,4.286,0,0,1,.165-1.23Z" transform="translate(-121.814 -702.04)" fill="#6cae30"/>
        <path id="패스_27426" data-name="패스 27426" d="M167.735,799.3a1.069,1.069,0,0,0-.011.162c0,.118.007.231.011.345Z" transform="translate(-149.01 -710.121)" fill="#6cae30"/>
        <path id="패스_27427" data-name="패스 27427" d="M350.6,842.053a.4.4,0,0,0-.747.073l-.007.038h.808c-.015-.027-.029-.054-.041-.083l-.013-.029" transform="translate(-310.808 -747.896)" fill="#6cae30"/>
        <path id="패스_27428" data-name="패스 27428" d="M164.487,879.665v1.6c.235-.365.442-.705.616-1.016a8.122,8.122,0,0,1-.616-.581" transform="translate(-146.134 -781.515)" fill="#6cae30"/>
        <path id="패스_27429" data-name="패스 27429" d="M364.184,904.731c-.023,0-.045,0-.068,0v.9a12.92,12.92,0,0,1,3.427.048v-.757c-.47-.061-1-.112-1.6-.147s-1.21-.048-1.757-.048" transform="translate(-323.489 -803.784)" fill="#6cae30"/>
        <path id="패스_27430" data-name="패스 27430" d="M273.852,268.929a7.128,7.128,0,0,0,1.752-.27,37.579,37.579,0,0,0,11.244-5.114.235.235,0,0,0,.073-.322.277.277,0,0,0-.34-.105c-.261.106-.623.265-1.081.466a57.515,57.515,0,0,1-6.03,2.348c-2.577.782-4.228.853-4.908.21-.611-.577-.459-1.792.452-3.612a.194.194,0,0,0-.084-.258.221.221,0,0,0-.281.054,21.228,21.228,0,0,0-1.556,2.37c-.971,1.749-1.21,2.98-.711,3.658a1.7,1.7,0,0,0,1.47.575" transform="translate(-241.766 -232.983)" fill="#6cae30"/>
        <path id="패스_27431" data-name="패스 27431" d="M412.138,22.4c-.521-3.429,3.3-13.226.173-15.838-2.179-1.823-8.663-1.5-12.385-1.138a.944.944,0,0,0-.536,1.7c3.579,2.714,3.463,5.506,3.134,6.825a3.7,3.7,0,0,0-.03,1.688,19.3,19.3,0,0,1-.072,6.988,3.151,3.151,0,0,0,1.468,3.2c3.18,2.006,7.569,7.063,9.114,7.2,1.908.163-.347-7.184-.867-10.613" transform="translate(-354.491 -4.571)" fill="#6cae30"/>
        <path id="패스_27432" data-name="패스 27432" d="M51,604.013a50.394,50.394,0,0,0-5.725-4.572c-2.949-1.959-3.3-.163-3.123,1.959s1.041,14.7.694,16.981-1.735,19.431,1.561,20.084a14.436,14.436,0,0,0,6.939-.163c1.908-.49,1.735-6.368-.694-11.756-.61-1.353,3.47-15.512.347-22.533" transform="translate(-37.417 -531.81)" fill="#6cae30"/>
        <path id="패스_27433" data-name="패스 27433" d="M255.178,40.956A10.4,10.4,0,0,0,253,39.3a12.15,12.15,0,0,0-9.32-.881c-2.1.546-3.458,2.6-4.08,3.768a12.944,12.944,0,0,0-.562,1.207,1.276,1.276,0,0,0,1.666,1.609,23.537,23.537,0,0,1,6.579-1q.6-.019,1.238-.022c.856,0,1.484-.016,2.21.011a.333.333,0,0,0,.125-.651,6.992,6.992,0,0,0-.7-.175,1.611,1.611,0,0,1-1.356-1.545v-.042a1.506,1.506,0,0,1,.018-.223,1.676,1.676,0,0,1,1.995-1.338,10.358,10.358,0,0,1,4.531,2.077c1-.007,1.8-.181,1.708-.8a1.7,1.7,0,0,1-1.866-.34" transform="translate(-212.285 -33.673)" fill="#f1bcd6"/>
        <path id="패스_27434" data-name="패스 27434" d="M60.211,44.04a88.307,88.307,0,0,1-10.017-.2,3.64,3.64,0,0,0-3.975,3.4c-.13,4.635-.3,12.26-.059,14.593.347,3.429-.174,13.552,1.908,11.266,1.917-2.105,3.54-11,10.965-13.664A3.365,3.365,0,0,0,61.3,56.649c.219-2.182.532-5.339.641-6.568.174-1.959,3.3-6.368-1.735-6.041" transform="translate(-40.903 -38.946)" fill="#f1bcd6"/>
        <path id="패스_27435" data-name="패스 27435" d="M504.943,395.584c-1.908-12.573.174-32.656.174-36.249a17,17,0,0,0-1.707-6.372,9.636,9.636,0,0,1-.852-3.831c-.025-1.544-.2-3.418-.91-3.513-1.214-.163-2.429,3.592-2.255,4.409s.694,10.45,1.561,12.083,2.082,9.96-3.3,11.1a3.012,3.012,0,0,0-1.214,2.776c0,2.123.52,17.635.694,20.084.149,2.1,1.19,12.836-.155,17.2a1.174,1.174,0,0,0,1.271,1.478,35.642,35.642,0,0,0,4.089-.551c3.3-.653,4.51-6.041,2.6-18.614" transform="translate(-441.051 -307.053)" fill="#f1bcd6"/>
      </g>
    </g>
  </g>
</svg>
