<svg id="PPS_21" xmlns="http://www.w3.org/2000/svg" xmlns:xlink="http://www.w3.org/1999/xlink" width="108.785" height="73.436" viewBox="0 0 108.785 73.436">
  <defs>
    <clipPath id="clip-path">
      <rect id="사각형_6147" data-name="사각형 6147" width="108.785" height="73.436" fill="none"/>
    </clipPath>
  </defs>
  <g id="그룹_11608" data-name="그룹 11608" clip-path="url(#clip-path)">
    <path id="패스_27519" data-name="패스 27519" d="M539.644,332.806a5.254,5.254,0,0,0-.811-1.114c-.024-.025-.046-.052-.071-.076h0a5.125,5.125,0,0,0-.715-.6,5.32,5.32,0,0,0-8.076,2.579,15.326,15.326,0,0,0-.748,3.7,2.408,2.408,0,0,1-.068.393q4.844-1.854,10.115-4.146l.35-.152h0l.252-.109q-.1-.245-.228-.472" transform="translate(-470.114 -293.233)" fill="#fff"/>
    <path id="패스_27520" data-name="패스 27520" d="M148.087,259.256q.208-.008.42-.008c.159,0,.318,0,.481.011a8.418,8.418,0,0,0-1.393-1.945l-.049-.053h0a8.433,8.433,0,0,0-2.25-1.649,8.939,8.939,0,0,1-10.357,2.195,13.873,13.873,0,0,0-4.581,9.5c-.17.894-1.41,2.741-3.208,1.57-1.639-1.067,1.931-5.79,2.574-6.617.583-1.176,1.12-2.09,1.12-2.09a14.546,14.546,0,0,1,2.568-3.244,8.975,8.975,0,0,1-2.949-3.613,8.907,8.907,0,0,1-6.042,2.352q-.368,0-.728-.029a27.151,27.151,0,0,0-3.277,3.807l-.032.045a14.293,14.293,0,0,0-2.55,8.931,3.151,3.151,0,0,1-.086,1.017c-.415,1.422-2.43.948-3.556.237s-.293-2.135-.293-2.135a29.941,29.941,0,0,1,2.01-5.375,9.632,9.632,0,0,1-11-2.559c.026.276.039.555.039.838a8.942,8.942,0,0,1-12.781,8.074,10.908,10.908,0,0,0,3.724,5.477,15.549,15.549,0,0,0,6.8,2.835,38.627,38.627,0,0,0,11.871.018,112.24,112.24,0,0,0,23-6.09c-.963-1.369,2.506-11.17,10.524-11.495" transform="translate(-81.883 -225.047)" fill="#fff"/>
    <path id="패스_27521" data-name="패스 27521" d="M394.481,210.216a1.87,1.87,0,0,0-.415-.454,6.433,6.433,0,0,0-5.02-1.514,27.53,27.53,0,0,0-11,4.531q-1.054.736-2.028,1.563a.967.967,0,0,1-.293.25q-.524.457-1.021.94.36.029.728.029a8.907,8.907,0,0,0,6.042-2.352,8.974,8.974,0,0,0,2.949,3.613,14.743,14.743,0,0,1,8.716-3.813,1.821,1.821,0,0,0,1.346-2.793" transform="translate(-332.891 -184.946)" fill="#7daadb"/>
    <path id="패스_27522" data-name="패스 27522" d="M531.883,171.835h0l-.317-.656Z" transform="translate(-472.255 -152.079)" fill="#7daadb"/>
    <path id="패스_27523" data-name="패스 27523" d="M480.58,266.142a9.87,9.87,0,0,0-1.846.549,18.815,18.815,0,0,0-3.232,2.381,8.94,8.94,0,0,0,10.357-2.195,8.234,8.234,0,0,0-5.278-.736" transform="translate(-422.446 -236.313)" fill="#7daadb"/>
    <path id="패스_27524" data-name="패스 27524" d="M114.243,123.016a9.649,9.649,0,0,0-1.306-1.516A15.957,15.957,0,0,0,102,116.971a15.464,15.464,0,0,0-15.464,15.464h0v4.788s.017,2.521-.135,3.572a12.484,12.484,0,0,0-.129,1.361,17.493,17.493,0,0,0,.106,2.643c.055.465.13.94.234,1.422.087.4.19.787.308,1.163A8.942,8.942,0,0,0,99.7,139.311c0-.283-.014-.562-.039-.838a9.631,9.631,0,0,0,11,2.559,29.572,29.572,0,0,1,2.472-4.165q.353-.5.726-.978a11.005,11.005,0,0,0,2.3-7.257,10.642,10.642,0,0,0-1.914-5.616M95.372,134.023a3.919,3.919,0,0,1-3.789-2.108,3.22,3.22,0,0,1-.244-1.257,4.394,4.394,0,0,1,4.151-4.22,3.413,3.413,0,0,1,3.292,2.355,4.585,4.585,0,0,1,.264,1.556,3.517,3.517,0,0,1-3.674,3.674" transform="translate(-76.636 -103.92)" fill="#7daadb"/>
    <path id="패스_27525" data-name="패스 27525" d="M279.094,1.664A10.024,10.024,0,0,0,271.8,4.8,8.941,8.941,0,0,0,255,7.883a8.943,8.943,0,0,0-13.11,4.945,9.01,9.01,0,0,0-1.281-.092c-.252,0-.5.011-.748.031a8.94,8.94,0,0,0-16.912-2.2c.163,0,.327-.007.491-.007a17.845,17.845,0,0,1,9.31,2.595h0s5.872,2.969,7.844,9.064a8.9,8.9,0,0,1,.493,1.042,1.912,1.912,0,0,0,2.355,1.183,12.619,12.619,0,0,0,1.675-.661q.435-.226.877-.437l.019-.01h0a29.9,29.9,0,0,1,10.636-2.841,1.25,1.25,0,0,0,.806-.373l-.9-1.853a6.426,6.426,0,0,1,4.476-9.093l1.375-.286a6.513,6.513,0,0,1,1.322-.137,6.327,6.327,0,0,1,2.545.532,6.44,6.44,0,0,1,2.081,1.452,6.349,6.349,0,0,1,1.764,3.934,6.631,6.631,0,0,1,.094,1.084l.125-2.985a7,7,0,0,1,6.979-6.706,7.03,7.03,0,0,1,2,.292l1.473.436a7,7,0,0,1,4.838,8.249,7.2,7.2,0,0,1-.92,2.543l-2.1,3.558.013,0,5.362-8.958A8.408,8.408,0,0,1,289.1,10.7a10.053,10.053,0,0,0-10-9.039" transform="translate(-198.074 -0.001)" fill="#7daadb"/>
    <path id="패스_27526" data-name="패스 27526" d="M727.035,60.214l.069.006-.057-.017Z" transform="translate(-645.915 -53.487)" fill="#7daadb"/>
    <path id="패스_27527" data-name="패스 27527" d="M732.182,112.585a5.908,5.908,0,0,0-5.088,2.813L715,135.146l20.211-11.819a5.737,5.737,0,0,0,2.833-4.251,5.665,5.665,0,0,0-1.688-4.8,5.933,5.933,0,0,0-4.171-1.694" transform="translate(-635.22 -100.023)" fill="#e64800"/>
    <path id="패스_27528" data-name="패스 27528" d="M708.7,77.878a8.808,8.808,0,0,1,.7-1.007c.078-.1.158-.19.239-.282l.042-.048q.124-.139.252-.271l.013-.013q.276-.283.573-.535h0a8.686,8.686,0,0,1,5.632-2.063c.181,0,.362.008.542.019a8.593,8.593,0,0,1,5.454,2.4l-.861-.861a8.267,8.267,0,0,0-5.882-2.442,8.4,8.4,0,0,0-4.034,1.031,8.249,8.249,0,0,0-2.008,1.551,8.414,8.414,0,0,0-1.119,1.472l-5.362,8.958-.832,1.39-5.757,9.734-.295.5.36.019.08,0,.538.028,7.413-12.385Z" transform="translate(-618.34 -64.658)" fill="#e64800"/>
    <path id="패스_27529" data-name="패스 27529" d="M651.508,54.944c.127,0,.255,0,.384.011q.162.009.325.025l.012-.01.057.017a7.312,7.312,0,0,1,1.282.259,7.219,7.219,0,0,1,5.08,8.045,7,7,0,0,0-4.838-8.249l-1.473-.436a6.966,6.966,0,0,0-6.785,1.616,6.946,6.946,0,0,0-2.191,4.8L643.236,64c0,.1,0,.21,0,.316l-.013.326-.389,9.452a6.918,6.918,0,0,0,.009.859c.043.494.158.686.29.725.253.074.568-.407.568-.407l.015-.046.046-.135.378-9.014.177-4.221a7.218,7.218,0,0,1,7.2-6.915" transform="translate(-571.096 -48.252)" fill="#e64800"/>
    <path id="패스_27530" data-name="패스 27530" d="M680.016,97.765a4.489,4.489,0,0,0-2.589-6.589,4.534,4.534,0,0,0-1.287-.189,4.495,4.495,0,0,0-4.473,4.306l-.234,5.575-.339,8.075-.176,4.208,1.7-2.867,4.542-7.681Z" transform="translate(-596.059 -80.835)" fill="#e64800"/>
    <path id="패스_27531" data-name="패스 27531" d="M559.183,109.606a3.265,3.265,0,0,0-.757.091,3.739,3.739,0,0,0-2.525,2.248,4.708,4.708,0,0,0-.334,2.475q.028.21.075.417a4.631,4.631,0,0,0,.248.778l3.1,7.363.133.315,2.567,6.089a.291.291,0,0,0,.562-.134l.208-5.794.318-8.885.022-.6A4.5,4.5,0,0,0,561.8,110.9a3.443,3.443,0,0,0-2.616-1.3" transform="translate(-493.541 -97.377)" fill="#e64800"/>
    <path id="패스_27532" data-name="패스 27532" d="M530.789,80.395a6.443,6.443,0,0,0-2.081-1.452,6.327,6.327,0,0,0-2.545-.532,6.512,6.512,0,0,0-1.322.137l-1.375.286a6.426,6.426,0,0,0-4.476,9.093l.9,1.853a1.275,1.275,0,0,0,.248-.362l-.318-.656.318.656a1.265,1.265,0,0,0-.013-1.087q-.087-.178-.161-.359c-.017-.04-.031-.081-.047-.122-.031-.08-.063-.16-.091-.241-.017-.049-.031-.1-.047-.147-.023-.073-.048-.145-.068-.218-.015-.053-.027-.106-.041-.159-.018-.069-.036-.138-.052-.208s-.022-.11-.032-.165-.027-.135-.038-.2-.016-.113-.024-.17-.019-.132-.026-.2-.01-.116-.014-.173-.011-.129-.014-.194,0-.118,0-.176,0-.126,0-.189,0-.119.005-.179,0-.123.008-.185.01-.12.015-.18.011-.12.018-.18.016-.121.025-.181.017-.117.028-.176.023-.121.035-.182.023-.114.036-.17.03-.122.046-.182.029-.11.045-.164.037-.122.056-.182.034-.106.052-.158.044-.122.067-.182.039-.1.06-.151.051-.121.078-.181.044-.1.066-.145.058-.12.089-.18.048-.092.072-.137.066-.119.1-.178q.038-.065.078-.13.054-.089.112-.176.04-.062.082-.122.06-.088.123-.173c.028-.038.057-.076.087-.114.044-.057.089-.114.135-.17.029-.036.06-.071.09-.106.048-.056.1-.111.147-.166.031-.033.062-.065.093-.1.052-.054.105-.109.159-.161l.095-.089c.057-.053.114-.105.172-.156l.1-.081c.061-.051.122-.1.185-.15l.1-.072c.065-.049.131-.1.2-.144l.1-.063c.07-.047.141-.093.213-.137l.093-.054c.076-.044.151-.088.229-.13l.088-.045c.081-.042.163-.083.247-.122l.08-.035c.088-.039.177-.078.267-.113l.067-.025c.1-.037.193-.072.292-.1l.045-.013c.107-.034.216-.067.326-.1s.236-.06.356-.085c.1-.021.2-.038.3-.054a6.638,6.638,0,0,1,1.062-.087,6.61,6.61,0,0,1,6.482,5.466,6.35,6.35,0,0,0-1.764-3.934" transform="translate(-460.507 -69.662)" fill="#e64800"/>
    <path id="패스_27533" data-name="패스 27533" d="M139.22,204.171a3.413,3.413,0,0,0-3.292-2.355,4.394,4.394,0,0,0-4.151,4.22,3.222,3.222,0,0,0,.243,1.257,3.919,3.919,0,0,0,3.789,2.108,3.517,3.517,0,0,0,3.674-3.674,4.582,4.582,0,0,0-.264-1.556" transform="translate(-117.074 -179.297)" fill="#1a1311"/>
    <path id="패스_27534" data-name="패스 27534" d="M113.358,296.845c-4.627,2.365-9.007,4.51-11.432,5.686-1.092.53-1.788.864-1.932.932l-.014.007q-.794.368-1.58.727-1.688.772-3.338,1.5l-.6.266-.07.031-.8.351-.073.032L93,306.6C78.1,313.074,65.625,317,55.845,318.273a51.964,51.964,0,0,1-6.705.468c-6.067,0-10.822-1.322-14.187-3.952A13.808,13.808,0,0,1,30.68,309.2a16.009,16.009,0,0,1-.892-2.836,18.02,18.02,0,0,1-.3-1.866,45.644,45.644,0,0,0-3.847,11.73,15.562,15.562,0,0,0,.558,7.665,15.4,15.4,0,0,0,3.677,6.238,13.36,13.36,0,0,0,5.622,3.263c4.968,1.5,11.68.966,19.949-1.589a129.91,129.91,0,0,0,25.01-11.328,245.59,245.59,0,0,0,24.453-16c3.108-2.3,6.11-4.636,8.909-6.92a.424.424,0,0,0-.462-.706" transform="translate(-22.579 -263.679)" fill="#307d2a"/>
    <path id="패스_27535" data-name="패스 27535" d="M107.482,63.568c-2.716-1.226-2.929,1.88-3.529,1.276l-.021-.021h0c-.041-.041-.084-.079-.125-.119a8.593,8.593,0,0,0-5.454-2.4c-.181-.011-.362-.019-.542-.019a8.687,8.687,0,0,0-5.632,2.063h0q-.3.253-.573.535l-.013.013q-.128.132-.252.271l-.042.048c-.081.092-.161.186-.239.282a8.831,8.831,0,0,0-.7,1.007l-4.31,7.2L78.635,86.088,78.1,86.06l-.08,0-.36-.019.295-.5L83.708,75.8l.819-1.385,2.1-3.558a7.2,7.2,0,0,0-4.16-10.588,7.314,7.314,0,0,0-1.282-.259l-.069-.006q-.163-.016-.325-.025c-.128-.007-.256-.011-.384-.011a7.218,7.218,0,0,0-7.2,6.915l-.177,4.221-.378,9.014-.046.135L72.6,80.3s-.316.481-.568.407c-.132-.039-.247-.231-.29-.725a6.888,6.888,0,0,1-.009-.859l.389-9.452.013-.326c0-.106.005-.211,0-.316a6.543,6.543,0,0,0-2.726-5.293,6.549,6.549,0,0,0-3.85-1.257,6.638,6.638,0,0,0-1.062.087c-.1.016-.2.033-.3.054-.121.025-.239.054-.356.085s-.219.062-.326.1l-.045.013c-.1.032-.2.068-.292.1l-.067.025c-.091.036-.179.074-.267.113l-.08.035c-.084.039-.165.08-.247.122l-.088.045c-.078.042-.154.085-.229.13l-.093.054c-.072.044-.143.09-.213.137l-.1.063c-.068.047-.133.1-.2.144l-.1.072c-.063.049-.124.1-.185.15l-.1.081c-.059.051-.116.1-.172.156l-.095.089c-.054.053-.107.107-.159.161l-.093.1c-.05.054-.1.11-.147.166-.03.035-.061.07-.09.106-.046.056-.091.113-.135.17-.029.038-.058.076-.087.114q-.063.086-.123.173-.042.061-.082.122-.057.087-.112.176-.04.065-.078.13-.051.088-.1.178-.037.068-.072.137-.046.089-.089.18c-.023.048-.045.1-.066.145s-.053.12-.078.181-.04.1-.06.151-.046.121-.067.182-.035.105-.052.158-.039.121-.056.183-.03.109-.045.164-.032.121-.046.182-.025.113-.036.17-.025.121-.035.182-.019.117-.028.176-.018.121-.025.181-.012.12-.018.18-.011.12-.015.18-.006.123-.008.185,0,.119-.005.179,0,.126,0,.189,0,.117,0,.176.009.129.014.194.008.115.014.173.017.132.026.2.014.113.024.17.025.135.038.2.02.11.033.165.034.138.052.208c.014.053.026.106.041.159.021.073.045.146.068.218.016.049.03.1.047.147.028.08.06.161.091.241.016.041.03.081.047.122q.075.18.161.359a1.274,1.274,0,0,1-.235,1.449,1.249,1.249,0,0,1-.805.373,29.9,29.9,0,0,0-10.636,2.841h0l-.019.01q-.442.212-.877.438a12.624,12.624,0,0,1-1.675.661,1.911,1.911,0,0,1-2.355-1.183,8.9,8.9,0,0,0-.493-1.042c-1.972-6.095-7.844-9.064-7.844-9.064h0a17.846,17.846,0,0,0-9.31-2.595c-.164,0-.328,0-.491.007A18.013,18.013,0,0,0,9.724,72.958a10.6,10.6,0,0,0-.693,1.357A17.723,17.723,0,0,0,7.974,77.3c-.236.834-.464,1.791-.661,2.872a5.224,5.224,0,0,1-2.329,3.466l-1.1.7S.7,86.12.6,86.616s1.023,1.212,1.51,1.465c.7.365,1.509.77,2.3,1.172a1.439,1.439,0,0,1,.646,1.907,50.6,50.6,0,0,0-4.8,14.034,18.24,18.24,0,0,0,.675,8.975,18.473,18.473,0,0,0,4.45,7.482q.2.2.414.4a1.277,1.277,0,0,1-.858,2.223,1.225,1.225,0,0,0,0,2.449H58.824a1.225,1.225,0,0,0,0-2.449H54.039c-3.267,0-5.938-.158-8-.355a1.77,1.77,0,0,1-.715-3.3c2.221-1.281,15.537-8.147,38.809-24.23,5.424-3.748,13.874-11.447,18.021-15.313a6.348,6.348,0,0,1,4.424-1.65.62.62,0,0,0,.084,0l.031,0a1.574,1.574,0,0,0,1.38-1.561s1.935-13.145-.6-14.288M75.374,73.314l.234-5.575a4.495,4.495,0,0,1,4.473-4.306,4.534,4.534,0,0,1,1.287.189,4.489,4.489,0,0,1,2.589,6.589L81.1,75.048l-4.542,7.681-1.7,2.867.176-4.208Zm-6.725,18.35c.024.024.047.051.071.076a5.255,5.255,0,0,1,.811,1.114q.123.226.228.471l-.252.11-.35.152q-5.268,2.289-10.115,4.146a2.412,2.412,0,0,0,.068-.393,15.326,15.326,0,0,1,.748-3.7,5.32,5.32,0,0,1,8.076-2.579,5.126,5.126,0,0,1,.715.6h0ZM62.36,67.849A3.739,3.739,0,0,1,64.885,65.6a3.267,3.267,0,0,1,.757-.091,3.443,3.443,0,0,1,2.616,1.3,4.5,4.5,0,0,1,1.005,3.062l-.022.6-.318,8.885-.208,5.794a.291.291,0,0,1-.562.134L65.586,79.2l-.133-.315-3.1-7.363a4.655,4.655,0,0,1-.248-.778q-.047-.207-.075-.417a4.709,4.709,0,0,1,.334-2.475M9.635,91.518a12.506,12.506,0,0,1,.129-1.361c.153-1.051.135-3.571.135-3.572V81.8h0A15.464,15.464,0,0,1,25.367,66.333,15.957,15.957,0,0,1,36.3,70.862a9.666,9.666,0,0,1,1.306,1.516,10.646,10.646,0,0,1,1.914,5.616,11,11,0,0,1-2.3,7.257q-.372.481-.726.978a29.582,29.582,0,0,0-2.473,4.165,29.936,29.936,0,0,0-2.01,5.375s-.833,1.424.293,2.135,3.141,1.185,3.556-.237a3.155,3.155,0,0,0,.086-1.017,14.291,14.291,0,0,1,2.55-8.931l.032-.045a27.152,27.152,0,0,1,3.277-3.807c.333-.321.672-.636,1.021-.94a.967.967,0,0,0,.293-.25q.974-.825,2.028-1.563a27.532,27.532,0,0,1,11-4.531,6.434,6.434,0,0,1,5.02,1.514,1.869,1.869,0,0,1,.415.454,1.821,1.821,0,0,1-1.346,2.793,14.743,14.743,0,0,0-8.716,3.813A14.547,14.547,0,0,0,48.96,88.4s-.537.914-1.12,2.09c-.644.827-4.213,5.55-2.574,6.617,1.8,1.171,3.038-.676,3.208-1.57a13.873,13.873,0,0,1,4.581-9.5,18.806,18.806,0,0,1,3.232-2.381,9.867,9.867,0,0,1,1.846-.549,8.232,8.232,0,0,1,5.278.736,8.433,8.433,0,0,1,2.25,1.649h0l.049.053A8.414,8.414,0,0,1,67.1,87.493c-.162-.008-.322-.01-.48-.01q-.212,0-.42.008c-8.018.325-11.487,10.126-10.524,11.495a112.233,112.233,0,0,1-23,6.09,38.626,38.626,0,0,1-11.871-.018,15.547,15.547,0,0,1-6.8-2.835,10.907,10.907,0,0,1-3.724-5.477c-.117-.377-.221-.764-.308-1.163-.1-.482-.179-.958-.234-1.422a17.477,17.477,0,0,1-.106-2.643m81.605-4.364c-2.8,2.284-5.8,4.619-8.909,6.92a245.6,245.6,0,0,1-24.453,16A129.906,129.906,0,0,1,32.869,121.4c-8.269,2.555-14.981,3.09-19.949,1.589A13.36,13.36,0,0,1,7.3,119.729a15.394,15.394,0,0,1-3.678-6.238,15.562,15.562,0,0,1-.558-7.665A45.64,45.64,0,0,1,6.908,94.1a18,18,0,0,0,.3,1.866A16,16,0,0,0,8.1,98.8a13.809,13.809,0,0,0,4.273,5.592c3.365,2.631,8.12,3.952,14.187,3.952a51.984,51.984,0,0,0,6.706-.468c9.78-1.278,22.257-5.2,37.158-11.67l.514-.223.073-.032.8-.351.07-.031.6-.266q1.65-.731,3.338-1.5.786-.36,1.58-.727l.015-.007c.143-.069.84-.4,1.932-.932,2.425-1.177,6.8-3.322,11.432-5.686a.424.424,0,0,1,.462.706m11.58-14.82a5.737,5.737,0,0,1-2.833,4.251L79.777,88.4l12.1-19.748a6,6,0,0,1,9.26-1.119,5.665,5.665,0,0,1,1.688,4.8" transform="translate(0 -53.281)" fill="#1a1311"/>
  </g>
</svg>
