<svg id="PPS_23" xmlns="http://www.w3.org/2000/svg" xmlns:xlink="http://www.w3.org/1999/xlink" width="163.997" height="93.342" viewBox="0 0 163.997 93.342">
  <defs>
    <clipPath id="clip-path">
      <rect id="사각형_6149" data-name="사각형 6149" width="163.997" height="93.342" fill="none"/>
    </clipPath>
  </defs>
  <g id="그룹_11612" data-name="그룹 11612" clip-path="url(#clip-path)">
    <path id="패스_27555" data-name="패스 27555" d="M644.708,215.415l-.177.125c.066-.033.132-.068.2-.1l-.021-.025" transform="translate(-572.616 -191.38)" fill="#fff"/>
    <path id="패스_27556" data-name="패스 27556" d="M598.56,233.18c3.238-.083,9.083.457,13.584.5a4.861,4.861,0,0,0,1.974-.4l.895-.386a.915.915,0,0,1,.184-.056l-.369-.684c-.21-.025-.433-.046-.668-.061a13.394,13.394,0,0,0-5.753.875.537.537,0,0,1-.681-.272l-.617-1.357a.75.75,0,0,0-.909-.4c-.236.074-.5.165-.79.274a8.316,8.316,0,0,0-2.795,1.635l-1.934-1.878c-1.074.786-2.06,1.535-2.884,2.2.258,0,.512,0,.763,0" transform="translate(-531.097 -205.148)" fill="#fff"/>
    <path id="패스_27557" data-name="패스 27557" d="M472.247,295.2c3.123.138,4.657,1.336,5.384,2.27a1.019,1.019,0,0,0,1.777-.319.665.665,0,0,0,.021-.267,5.806,5.806,0,0,0-.51-2.384,4.31,4.31,0,0,0-2.082-1.857c-3.54-1.359-7.243-1.108-9.271-.082a1.419,1.419,0,0,1-1.665-.3,1.331,1.331,0,0,1,.377-2.109c2.967-1.5,7.589-1.569,11.586-.034l.027.01a2.916,2.916,0,0,0,3.576-1.189,6.866,6.866,0,0,1,1.882-2.152.8.8,0,0,1,1.113.182L488,284.083a5.411,5.411,0,0,1-1.384-2.389.822.822,0,0,1,.723-1.025l1.119-.121a.85.85,0,0,1,.9.571,2.9,2.9,0,0,0,.788,1.208l4.289-3.509c-1.654-.012-4.007-.036-6.5-.065a14.73,14.73,0,0,0-1.977.111c-.69-.112-2.9-.156-5.1-.171-2.971-.02-4.862-.3-7.442.574-2.65,2.5-6.093,4.962-8.351,7.1a42.978,42.978,0,0,1,6.51-3.755,22.028,22.028,0,0,0,2.809-1.584,2.337,2.337,0,0,1,1.252-.377s3.47-.726,4,.195-1.423,1.669-2.075,2.072c-.634.392-4.52,2.144-5.66,2.558a39.3,39.3,0,0,0-5.346,3.2c-2.424,1.754-3.979,3.473-4.379,4.839a2,2,0,0,0,.253,1.79,6.313,6.313,0,0,0,.872,1.039,2.34,2.34,0,0,0,3.02.137c.862-.713,2.567-1.424,5.92-1.275" transform="translate(-410.521 -247.547)" fill="#fff"/>
    <path id="패스_27558" data-name="패스 27558" d="M538.2,491.395l-.03-.019a16.972,16.972,0,0,1-4.623-4.065,2.837,2.837,0,0,0-2.281-1.1h-.011c-.063,0-.123,0-.181-.005-.461-.027-.931-.051-1.429-.076-.94-.048-2.356-.206-3.781-.392a2.1,2.1,0,0,0-1.685,3.694l.045.036c2.584,2.082,6.742,3.694,13.411,3.771a1,1,0,0,0,.566-1.845" transform="translate(-465.001 -431.523)" fill="#fff"/>
    <path id="패스_27559" data-name="패스 27559" d="M678.838,176.25a.747.747,0,0,0,.979.526,16.331,16.331,0,0,1,5.411-.9l-2.781-5.161-.579.383c-.2.178-.4.366-.6.567a1.353,1.353,0,0,1-1.029,1.587l-.285.069a12.554,12.554,0,0,0-1.217,2.485l.017.079Z" transform="translate(-603.007 -151.665)" fill="#fff"/>
    <path id="패스_27560" data-name="패스 27560" d="M633.306,421.177c-.078.4-.133.756-.17,1.02a4.5,4.5,0,0,1-.752,3.422,2.655,2.655,0,0,0,.2,3.167,8.29,8.29,0,0,0,1.646,1.326,21.887,21.887,0,0,0,12.8,3.611Z" transform="translate(-561.442 -374.183)" fill="#fff"/>
    <path id="패스_27561" data-name="패스 27561" d="M610.154,58.908a205.368,205.368,0,0,0,22.967-6.9.384.384,0,0,0,.034-.706c-.878-.437-1.6-.822-2.073-1.08a.641.641,0,0,1-.249-.9l.365-.6.374-.615a.682.682,0,0,1,.906-.237c.882.48,2.686,1.428,4.67,2.28a.846.846,0,0,0,.65.007l.018-.007a.788.788,0,0,0,.136-1.4,46.8,46.8,0,0,1-6.846-5.551.8.8,0,0,1,.014-1.169l.823-.76a.854.854,0,0,1,1.146-.012c1.414,1.25,4.3,3.46,6.443,5.08a5.788,5.788,0,0,0,5.77.674l1.162-.506q1.584-.693,3.215-1.424c.146-.068,1.842-.856,4.428-2.081-.982-.951-1.768-1.8-2.274-2.374a.891.891,0,0,1,.127-1.3l.343-.265a1.231,1.231,0,0,1,.862-.249l.809.073.011.012a50.249,50.249,0,0,0-5.009-7.428,1.478,1.478,0,0,0-1.4-.52.547.547,0,0,0-.16.049,32.837,32.837,0,0,1-3.662,1.4A3.645,3.645,0,0,0,641.263,35l-.007.029a.609.609,0,0,1-.967.32c-.47-.372-.932-.755-1.392-1.139a.578.578,0,0,1-.2-.545,16.289,16.289,0,0,0,.234-2.274,22.375,22.375,0,0,0-.771-6.461l1.356-.389a.3.3,0,0,0-.025-.583c-1.824-.36-3.034-.615-3.055-.619l.593-2.65c.034.007,3.156.665,6.955,1.362a.9.9,0,0,1,.739,1.047l-.172.9a.924.924,0,0,1-1.082.72l-1.18-.219a.928.928,0,0,0-1.1,1.082c.116.551.241,1.24.342,2.027a2.133,2.133,0,0,0,2.88,1.681,42.708,42.708,0,0,0,7.337-3.7,37.931,37.931,0,0,0,4.322-3.082.931.931,0,0,0-.525-1.641c-1.656-.179-4.215-.384-8.164-.582-3.863-.193-7.588-.306-9.1-.347a.7.7,0,0,1-.693-.71l.033-1.317a.7.7,0,0,1,.741-.676l8.3.314a1.021,1.021,0,0,0,1.059-1.223c-.417-1.894-1.342-4.291-3.394-5.473a1.335,1.335,0,0,1-.162-2.216L640.17,3.673l-3.534,2.68a10.949,10.949,0,0,1,6.391,4.158,12.37,12.37,0,0,1,1.655,2.979.554.554,0,0,1-.389.731l-.763.2-.831.221a.577.577,0,0,1-.685-.335,9.713,9.713,0,0,0-1.3-2.268,8.088,8.088,0,0,0-4.762-3.058.739.739,0,0,1-.585-.826l.145-.95-2.49,1.888-5.9-7.959-6.665,4.654-1.206.613-3.74-5.243-5.548,3.73L606.121,0l-6.887,5.111c-5.889-2.822-13.144-3.882-13.885.79-.464,2.925,1.71,9.567,4.241,14.318a3.6,3.6,0,0,0,.581-3.344L587.253,8a3.026,3.026,0,0,1,.733-3.078,3.223,3.223,0,0,1,3.11-.844c4.577,1.2,10.019,5.571,12.272,7.508a1.3,1.3,0,0,1,.083,1.908l-.553.516a1.4,1.4,0,0,1-1.92-.025c-1.505-1.484-7.2-4.693-9.782-6.112a.574.574,0,0,0-.836.66l3.3,10.03a1.166,1.166,0,0,0,1.392.749c.548-.135,1.056-.259,1.489-.364a1.4,1.4,0,0,1,1.664.9c.01.032.021.063.029.1,0,.016.006.032.009.048.2-.2.4-.389.6-.567q.269-.236.544-.448l.035.065,2.781,5.161a15.947,15.947,0,0,1,3.043.3A1.266,1.266,0,0,1,606.2,26.2l-.064.164a1.316,1.316,0,0,1-1.486.793c-.27-.053-.586-.1-.94-.146l.369.684a.924.924,0,0,1,.692.133,14.962,14.962,0,0,0,4.486,1.629,61.667,61.667,0,0,0,6.179,1.025,1.689,1.689,0,0,0,1.85-1.219l.2-.758a1.586,1.586,0,0,0-.348-1.469,4.388,4.388,0,0,1-1.042-2.026c-.553-2.763,5.692-2.379,7.747-.23,1.577,1.649-1.423,1.688-2.53,3.07a1.858,1.858,0,0,1-.9.353,1.249,1.249,0,0,0-.965.894l-.17.643a1.22,1.22,0,0,0,.9,1.487,43.636,43.636,0,0,1,5.742,1.972,1.308,1.308,0,0,1,.689,1.788l-.03.06a1.38,1.38,0,0,1-1.766.644,29.791,29.791,0,0,0-8.246-2.343,48.412,48.412,0,0,1-8.182-1.307c-1.155-.289-2.882-.763-2.882-.763-.4,0-.952,0-1.613-.007L599.6,34.78c1.411,1.325,4.284,1.781,7.921,2.21,2.369.28,4.606.544,6.087,1.338a16.462,16.462,0,0,0,10.533,1.913,15.019,15.019,0,0,0,3.868-1.142.718.718,0,0,1,.9.264l.722,1.148a.677.677,0,0,1-.294.975,17.686,17.686,0,0,1-4.614,1.409,18.792,18.792,0,0,1-5.633.074,20.324,20.324,0,0,1-6.838-2.267,17.868,17.868,0,0,0-5.073-1.02,29.458,29.458,0,0,1-6.883-1.367,7.934,7.934,0,0,1-2.846-1.779l-3.536,2.894a.779.779,0,0,1,.062.1l.514,1.048a.74.74,0,0,1-.2.9,7.522,7.522,0,0,0-2,3.62,19.076,19.076,0,0,0-.46,1.89L605.569,59.54a22.173,22.173,0,0,0,4.584-.632m25.628-18.524-1.069.305a.844.844,0,0,1-1.02-.483,8.6,8.6,0,0,0-1.875-2.881.8.8,0,0,1,.085-1.211q.436-.33.869-.664a.86.86,0,0,1,1.136.083,11.26,11.26,0,0,1,2.426,3.787.81.81,0,0,1-.552,1.064m-5.6-28.341.248-.974a.883.883,0,0,1,1.109-.614,11.153,11.153,0,0,1,5.074,2.923A6.589,6.589,0,0,1,637.9,15.29a.394.394,0,0,1-.275.533c-.534.136-1.439.368-1.93.5a.412.412,0,0,1-.472-.2c-.332-.637-1.406-2.138-4.441-3.055a.854.854,0,0,1-.6-1.023m3.762,6.877a12.521,12.521,0,0,0-2.326,1.817.9.9,0,0,1-1.208.025l-.767-.677a.835.835,0,0,1-.026-1.237c.238-.229.531-.5.855-.78a11.057,11.057,0,0,1,2.446-1.683.676.676,0,0,1,.938.406l.406,1.381a.642.642,0,0,1-.319.747m-3.322-4.347c-1.934,1.444-3.4,4.962-4.028,6.858a.806.806,0,0,1-.972.512l-1.146-.3a.776.776,0,0,1-.556-.988c.591-1.794,2.259-6.184,5-8.231Zm-9.341-.379,2.751-.471a13.491,13.491,0,0,1-.97,7.485.79.79,0,0,1-1.088.379l-.5-.261-.59-.3a.747.747,0,0,1-.359-.951,10.862,10.862,0,0,0,.76-5.878m1.509-4.845,1.241-1.566a.5.5,0,0,1,.707-.076,20.263,20.263,0,0,1,3.248,3.436.476.476,0,0,1-.126.688l-.737.477-.759.492a.508.508,0,0,1-.678-.115A17.256,17.256,0,0,0,622.836,9.7a.246.246,0,0,1-.042-.348m-6.436.287.5-1.379a.648.648,0,0,1,.846-.373c.5.2,1.253.508,2.048.911a9.079,9.079,0,0,1,3.528,2.732.526.526,0,0,1-.243.773l-1.577.68a.566.566,0,0,1-.656-.158,11.942,11.942,0,0,0-4.078-2.4.618.618,0,0,1-.366-.785m-1.591,6.088.616-.778a.877.877,0,0,1,1.244-.124A8.532,8.532,0,0,1,618.92,17.6a4.027,4.027,0,0,1,.382,1.278.536.536,0,0,1-.532.585l-1.847.043a.544.544,0,0,1-.54-.386,4.82,4.82,0,0,0-1.516-2.171.89.89,0,0,1-.1-1.22M604.21,10.371l.375-1.545a.58.58,0,0,1,.719-.413c.438.119,1.08.308,1.781.564a10.442,10.442,0,0,1,3.521,1.94.391.391,0,0,1-.018.59l-1.507,1.254a.421.421,0,0,1-.536,0,12.4,12.4,0,0,0-3.93-1.721.56.56,0,0,1-.4-.669m-2.052,8.11-.605.258c-.337-.125-.707-.255-1.083-.381a18.65,18.65,0,0,0-2.553-.7.461.461,0,0,1-.394-.451V15.395a.466.466,0,0,1,.527-.455,23.735,23.735,0,0,1,4.526,1.275.453.453,0,0,1,.269.6Zm8.889,7.641-1.182.7c-.656-1.041-2.838-3.829-5.025-4.224l.453-2.368c.586.2,1.193.45,1.792.713a11.525,11.525,0,0,1,5.1,4.368c.038.06.06.095.063.1Zm2.358-5.835a8.692,8.692,0,0,0-2.832.715,1.735,1.735,0,0,1-1.172.182c-.814-.5-1.619-.976-2.221-1.326a.246.246,0,0,0,.094-.161c0-.013,0-.025.006-.038a2.48,2.48,0,0,1,.96-1.373,4.98,4.98,0,0,1,3.733-1.048,4.1,4.1,0,0,1,2.822,1.58.494.494,0,0,1-.621.7c-.882-.347-1.346-.3-.939.131a2.456,2.456,0,0,0,.247.222h0a.219.219,0,0,1-.077.415m15.929,4.961a.078.078,0,0,1,.06-.133h0l.136,0c.657.009,1.175-.117,1.182-.3s-.569-.369-1.288-.4c-.155-.006-.3,0-.441,0-.1.005-.2.014-.288.026a.335.335,0,0,1-.2-.635l.009,0a8.22,8.22,0,0,1,3.229-.7c2,.351,3.305,2.085,3.052,3.448-.09.485-1.34,1.236-1.8,1.378a2.672,2.672,0,0,1-1.168.071.8.8,0,0,1-.635-.4,10.154,10.154,0,0,0-1.854-2.359" transform="translate(-519.982)" fill="#d47d2c"/>
    <path id="패스_27562" data-name="패스 27562" d="M640.271,196.475a16.218,16.218,0,0,1,2.76-1.025.568.568,0,0,1,.707.415l.152.688a12.551,12.551,0,0,1,1.218-2.485c-.711.172-1.461.357-2.2.544-1.215.306-2.412.618-3.39.89.248.347.494.664.737.947l.021.025" transform="translate(-568.158 -172.415)" fill="#d47d2c"/>
    <path id="패스_27563" data-name="패스 27563" d="M822.939,426.643c-1.09.821-2.133,1.592-3.1,2.288q-.684.491-1.371.979a25.122,25.122,0,0,0,5.051,2.614.827.827,0,0,1,.545.987l-.262,1.016a.863.863,0,0,1-1.115.585,30.4,30.4,0,0,1-6.626-3.508l-.8.558c.27.3.555.6.849.912,3.038,3.2,4.544,4.085,5.171,4.329l-1.037,2.518c-1.528-.593-3.556-2.236-6.2-5.022-.378-.4-.739-.789-1.075-1.16q-2.413,1.646-4.835,3.241a12.482,12.482,0,0,0-4,4.273l-.018.032a10.88,10.88,0,0,1-3.838,4.227l-1.407-2.342q.156-.089.309-.194a.131.131,0,0,0-.145-.219q-2.721,1.665-5.4,3.23a6.647,6.647,0,0,0-2.722,3.005c-1.336,2.969-3.046,6.151-4.627,9.093l-.3.555-.1-.051a3.885,3.885,0,0,0,1.1,1.407l-1.7,2.154a8.417,8.417,0,0,1-2.872-5.237,17.176,17.176,0,0,1-.364-3.208h1.4l1.4,0c0,.271.018.645.061,1.078.581-1.09,1.163-2.2,1.721-3.3a.754.754,0,0,0-1.055-.978q-5.492,2.95-10.6,5.332a1.111,1.111,0,0,0-.161,1.943,7.53,7.53,0,0,1,1.793,1.672,1.306,1.306,0,0,1-.494,1.977,1.424,1.424,0,0,1-1.719-.413A5.651,5.651,0,0,0,770.165,459a10.148,10.148,0,0,0-1.444,0,7.763,7.763,0,0,0-2.317.53q-.607.24-1.206.469l8.911,5.856c.847.022,1.654.067,2.4.162a6.1,6.1,0,0,0,3.784-.693,5.633,5.633,0,0,0,2.036-1.933c-1.759-1.587-3.263-3.154-3.366-3.262l2-1.806c.04.042,4.017,4.187,6.363,5.61l-1.449,2.251a15.769,15.769,0,0,1-1.423-1,8.484,8.484,0,0,1-2.766,2.484,8.679,8.679,0,0,1-3.23,1.046l5.567,3.659L796.8,452.6a2.486,2.486,0,0,1-.035-.816c.24-1.982,1.56-3.886,3.817-5.508.211-.152.421-.294.626-.427l0,0a7.766,7.766,0,0,1,1.572-.9,10.434,10.434,0,0,1,4.037-.6,7.4,7.4,0,0,1,4.462,2.554,1.306,1.306,0,0,1-.268,1.981,1.391,1.391,0,0,1-1.783-.226,4.771,4.771,0,0,0-2.8-1.682,4.335,4.335,0,0,0-1.963.18,14.019,14.019,0,0,0-1.494.819l9.907,4.017a2.47,2.47,0,0,0,.161-.807,27.44,27.44,0,0,1,1.419-6.121c.245-.821.5-1.662.75-2.551a1.579,1.579,0,0,0-.417-1.559l-1.09-1.076a.982.982,0,0,1-.012-1.386l.542-.553a1.05,1.05,0,0,1,1.433-.055,36.863,36.863,0,0,0,3.669,2.868.851.851,0,0,1,.275,1.148l-.611,1.038a1.454,1.454,0,0,1-.881.655.528.528,0,0,0-.407.3c-.2.676-.389,1.322-.569,1.921-.485,1.624-.9,3.027-1.133,4.136a3.658,3.658,0,0,0-.124,1.845,2.571,2.571,0,0,1,.2,1.492l2.376.963,11.907-24.071Z" transform="translate(-679.82 -379.04)" fill="#d47d2c"/>
    <path id="패스_27564" data-name="패스 27564" d="M1168.115,133.041a1.114,1.114,0,0,0,.606.016,1.649,1.649,0,0,0,.818-.518.88.88,0,0,0,.109-.954l0,0c-.032-.065-.067-.128-.1-.193-.9-.039-1.829-.057-2.762-.064.047.158.091.315.132.47a1.736,1.736,0,0,0,1.2,1.246" transform="translate(-1036.599 -116.672)" fill="#d47d2c"/>
    <path id="패스_27565" data-name="패스 27565" d="M1202.015,137.492a6.237,6.237,0,0,1,2.225.587,1.79,1.79,0,0,1,.932,1.932c-.1.56-.458,1.508-2.468,3.274-.45.4-1.185.952-1.946,1.505a6.9,6.9,0,0,0-2.723,4.3c1.191,1.959,4.139,6.92,4.042,7.9a1.54,1.54,0,0,0,.013.376,2.1,2.1,0,0,0,3.007,1.556c1-.484,2.028-.987,3.078-1.5l-7.34-10.491c3.007-2.808,5.269-5.664,5.73-7.2,1.115-3.712-1.892-5.144-6.218-5.68a18.935,18.935,0,0,1,.882,2.734.953.953,0,0,0,.786.713" transform="translate(-1064.363 -119.089)" fill="#d47d2c"/>
    <path id="패스_27566" data-name="패스 27566" d="M503.012,358.4c-3.519,1.74-6.905,3.372-9.635,4.672-3.434,1.635-5.827,2.746-6.131,2.886l-.016.008q-1.324.594-2.628,1.167-7.364,3.238-14.09,5.829-.676.26-1.345.514-5.793,2.2-11.034,3.874-3.609,1.155-6.985,2.072-.668.182-1.327.354-1.266.331-2.495.625-1.082.26-2.137.494-2.232.494-4.332.864-1.944.343-3.77.58a59.662,59.662,0,0,1-7.611.526c-6.838,0-12.125-1.477-15.773-4.416a14.815,14.815,0,0,1-5.141-8.236,9.394,9.394,0,0,1-2.415-2.262,57.632,57.632,0,0,0-4.185,10.724c-.043.163-.085.326-.124.487a21.007,21.007,0,0,0-.388,9.614,17.233,17.233,0,0,0,3.544,8.016,13.427,13.427,0,0,0,6.309,4.088c5.214,1.657,12.4,1.165,21.387-1.46q.91-.266,1.844-.56,4.2-1.327,8.828-3.219,1.181-.483,2.389-1a202.9,202.9,0,0,0,18.919-9.455q3.625-2.033,7.362-4.282,1.109-.667,2.224-1.352l.311-.191q.771-.474,1.544-.956c3.812-2.375,7.661-4.884,11.485-7.489q1.145-.78,2.286-1.57.6-.418,1.205-.839.7-.49,1.4-.984,1.071-.757,2.137-1.522.978-.7,1.945-1.408c2.417-1.762,4.777-3.53,7.046-5.28a.548.548,0,0,0-.6-.91" transform="translate(-356.319 -318.354)" fill="#e01f06"/>
    <path id="패스_27567" data-name="패스 27567" d="M901.022,130.3l.59.3.5.261a.79.79,0,0,0,1.088-.379,13.492,13.492,0,0,0,.97-7.485l-2.751.471a10.861,10.861,0,0,1-.76,5.878.747.747,0,0,0,.359.951" transform="translate(-800.119 -109.273)" fill="#1a1311"/>
    <path id="패스_27568" data-name="패스 27568" d="M931.267,119.581a.776.776,0,0,0,.556.988l1.146.3a.806.806,0,0,0,.972-.512c.627-1.9,2.094-5.413,4.028-6.858l-1.7-2.149c-2.741,2.047-4.409,6.437-5,8.231" transform="translate(-827.326 -98.926)" fill="#1a1311"/>
    <path id="패스_27569" data-name="패스 27569" d="M981.358,150.714a.9.9,0,0,0,1.208-.025,12.519,12.519,0,0,1,2.326-1.817.642.642,0,0,0,.319-.747l-.406-1.381a.677.677,0,0,0-.938-.406,11.063,11.063,0,0,0-2.446,1.683c-.324.28-.617.551-.855.78a.835.835,0,0,0,.026,1.237Z" transform="translate(-870.925 -129.952)" fill="#1a1311"/>
    <path id="패스_27570" data-name="패스 27570" d="M1002.319,321.076a.845.845,0,0,0,1.02.483l1.069-.305a.81.81,0,0,0,.552-1.064,11.258,11.258,0,0,0-2.426-3.787.86.86,0,0,0-1.136-.083q-.434.333-.869.664a.8.8,0,0,0-.085,1.211,8.6,8.6,0,0,1,1.875,2.881" transform="translate(-888.607 -280.87)" fill="#1a1311"/>
    <path id="패스_27571" data-name="패스 27571" d="M1034.662,59.111a8.088,8.088,0,0,1,4.762,3.058,9.718,9.718,0,0,1,1.3,2.268.577.577,0,0,0,.685.334l.831-.221.763-.2a.554.554,0,0,0,.389-.731,12.368,12.368,0,0,0-1.655-2.979,10.949,10.949,0,0,0-6.391-4.158c-.056-.013-.111-.028-.168-.04a.757.757,0,0,0-.911.612l-.043.279-.145.951a.739.739,0,0,0,.585.826" transform="translate(-918.691 -50.131)" fill="#1a1311"/>
    <path id="패스_27572" data-name="패스 27572" d="M988.094,96.017c3.035.917,4.109,2.418,4.441,3.055a.412.412,0,0,0,.472.2c.491-.131,1.4-.363,1.93-.5a.4.4,0,0,0,.275-.533,6.591,6.591,0,0,0-1.285-1.912,11.153,11.153,0,0,0-5.074-2.923.883.883,0,0,0-1.109.614l-.248.974a.853.853,0,0,0,.6,1.023" transform="translate(-877.291 -82.951)" fill="#1a1311"/>
    <path id="패스_27573" data-name="패스 27573" d="M921.064,70.193a17.261,17.261,0,0,1,2.854,2.988.508.508,0,0,0,.678.115l.759-.492.737-.477a.475.475,0,0,0,.126-.688A20.256,20.256,0,0,0,922.97,68.2a.5.5,0,0,0-.707.076l-1.241,1.566a.246.246,0,0,0,.042.348" transform="translate(-818.21 -60.495)" fill="#1a1311"/>
    <path id="패스_27574" data-name="패스 27574" d="M604.628,48.537a3.6,3.6,0,0,1-.581,3.344,3.516,3.516,0,0,1-.8.749,1.134,1.134,0,0,1-.218.123.364.364,0,0,0-.219.489l.8,1.82a.381.381,0,0,0,.473.2c.4-.139,1-.316,1.708-.513.978-.272,2.175-.584,3.39-.89.743-.187,1.493-.372,2.2-.544l.285-.069A1.353,1.353,0,0,0,612.7,51.66c0-.016-.005-.032-.009-.048-.008-.033-.019-.065-.029-.1a1.4,1.4,0,0,0-1.664-.9c-.433.1-.94.228-1.489.364a1.166,1.166,0,0,1-1.392-.749l-3.3-10.03a.573.573,0,0,1,.836-.66c2.58,1.419,8.277,4.628,9.782,6.112a1.4,1.4,0,0,0,1.92.025l.553-.516a1.3,1.3,0,0,0-.083-1.908c-2.253-1.937-7.7-6.3-12.272-7.507a3.222,3.222,0,0,0-3.11.844,3.025,3.025,0,0,0-.733,3.078Z" transform="translate(-534.438 -31.663)" fill="#1a1311"/>
    <path id="패스_27575" data-name="패스 27575" d="M755.164,77.864a12.4,12.4,0,0,1,3.93,1.721.42.42,0,0,0,.536,0l1.507-1.254a.391.391,0,0,0,.018-.59,10.442,10.442,0,0,0-3.521-1.941c-.7-.255-1.344-.445-1.781-.564a.58.58,0,0,0-.719.413l-.374,1.545a.56.56,0,0,0,.4.669" transform="translate(-670.532 -66.824)" fill="#1a1311"/>
    <path id="패스_27576" data-name="패스 27576" d="M863.843,72.842a11.943,11.943,0,0,1,4.078,2.4.566.566,0,0,0,.657.158l1.577-.68a.526.526,0,0,0,.243-.773,9.077,9.077,0,0,0-3.528-2.732c-.795-.4-1.545-.716-2.048-.911a.648.648,0,0,0-.846.373l-.5,1.38a.618.618,0,0,0,.366.785" transform="translate(-767.101 -62.42)" fill="#1a1311"/>
    <path id="패스_27577" data-name="패스 27577" d="M848.048,133.361a4.822,4.822,0,0,1,1.516,2.171.544.544,0,0,0,.539.386l1.847-.043a.536.536,0,0,0,.531-.585,4.027,4.027,0,0,0-.382-1.278,8.535,8.535,0,0,0-2.293-2.773.877.877,0,0,0-1.244.124l-.616.778a.89.89,0,0,0,.1,1.22" transform="translate(-753.162 -116.416)" fill="#1a1311"/>
    <path id="패스_27578" data-name="패스 27578" d="M700.275,135.747a.453.453,0,0,0-.269-.6,23.748,23.748,0,0,0-4.526-1.275.466.466,0,0,0-.527.455v1.809a.461.461,0,0,0,.394.451,18.639,18.639,0,0,1,2.553.7c.377.126.747.256,1.083.381l.605-.258Z" transform="translate(-617.412 -118.935)" fill="#1a1311"/>
    <path id="패스_27579" data-name="패스 27579" d="M713.691,301.826a15.018,15.018,0,0,1-3.868,1.142,16.461,16.461,0,0,1-10.533-1.913c-1.481-.794-3.718-1.059-6.087-1.338-3.637-.429-6.509-.885-7.921-2.21a2.9,2.9,0,0,1-.788-1.208.85.85,0,0,0-.9-.571l-1.119.121a.822.822,0,0,0-.723,1.025,5.412,5.412,0,0,0,1.384,2.389,7.931,7.931,0,0,0,2.846,1.779,29.449,29.449,0,0,0,6.883,1.367,17.867,17.867,0,0,1,5.073,1.02,20.326,20.326,0,0,0,6.838,2.267,18.794,18.794,0,0,0,5.633-.074,17.689,17.689,0,0,0,4.614-1.409.677.677,0,0,0,.294-.975l-.722-1.148a.718.718,0,0,0-.9-.264" transform="translate(-605.659 -262.727)" fill="#1a1311"/>
    <path id="패스_27580" data-name="패스 27580" d="M629.571,207.839l-.082-.367-.017-.079-.152-.688a.568.568,0,0,0-.707-.415,16.224,16.224,0,0,0-2.76,1.025c-.066.032-.132.066-.2.1a9.669,9.669,0,0,0-2.371,1.631l.041.04,1.934,1.878a8.318,8.318,0,0,1,2.795-1.635c.285-.109.553-.2.789-.274a.75.75,0,0,1,.909.4l.617,1.358a.537.537,0,0,0,.681.272,13.4,13.4,0,0,1,5.753-.875c.235.016.458.037.668.061.354.042.67.094.94.147a1.317,1.317,0,0,0,1.486-.793l.064-.164a1.266,1.266,0,0,0-.957-1.695,15.954,15.954,0,0,0-3.043-.3,16.331,16.331,0,0,0-5.411.9.747.747,0,0,1-.979-.526" transform="translate(-553.741 -183.254)" fill="#1a1311"/>
    <path id="패스_27581" data-name="패스 27581" d="M1070.513,528.147a36.867,36.867,0,0,1-3.669-2.868,1.05,1.05,0,0,0-1.433.055l-.542.554a.982.982,0,0,0,.012,1.386l1.09,1.076a1.579,1.579,0,0,1,.417,1.559c-.253.889-.5,1.731-.75,2.551a27.432,27.432,0,0,0-1.419,6.121,2.472,2.472,0,0,1-.161.807,2.54,2.54,0,0,1-2,1.6l-.1.015a24.532,24.532,0,0,1-5.432.107,15.107,15.107,0,0,1-2.391-.522,2.623,2.623,0,0,1-.861-4.625c.29-.216.585-.415.872-.6a14.054,14.054,0,0,1,1.494-.819,4.336,4.336,0,0,1,1.963-.18,4.77,4.77,0,0,1,2.8,1.682,1.391,1.391,0,0,0,1.783.226,1.306,1.306,0,0,0,.268-1.981,7.4,7.4,0,0,0-4.462-2.554,10.434,10.434,0,0,0-4.037.6,7.776,7.776,0,0,0-1.572.9l0,0c-.205.133-.415.275-.626.427-2.257,1.621-3.577,3.526-3.817,5.507a2.485,2.485,0,0,0,.035.816,2.767,2.767,0,0,0,.618,1.221,4.947,4.947,0,0,0,1.613,1.181,21.211,21.211,0,0,0,8.484,1.521h.172a22.719,22.719,0,0,0,4.187-.353,6.836,6.836,0,0,0,3.349-1.4,2.624,2.624,0,0,0,.858-1.486,2.57,2.57,0,0,0-.2-1.492,3.655,3.655,0,0,1,.124-1.845c.229-1.109.648-2.511,1.134-4.136.179-.6.372-1.245.568-1.921a.528.528,0,0,1,.407-.3,1.454,1.454,0,0,0,.881-.655l.611-1.038a.851.851,0,0,0-.275-1.148" transform="translate(-931.005 -466.442)" fill="#1a1311"/>
    <path id="패스_27582" data-name="패스 27582" d="M974.337,211.879a2.672,2.672,0,0,0,1.168-.071c.463-.142,1.712-.893,1.8-1.378.253-1.363-1.049-3.1-3.052-3.448a8.22,8.22,0,0,0-3.229.7l-.009,0a.335.335,0,0,0,.2.635c.089-.012.186-.02.288-.026.138-.008.286-.009.441,0,.72.029,1.3.207,1.288.4s-.526.3-1.182.3l-.136,0h0a.078.078,0,0,0-.061.133,10.156,10.156,0,0,1,1.854,2.359.8.8,0,0,0,.635.4" transform="translate(-862.495 -183.867)" fill="#1a1311"/>
    <path id="패스_27583" data-name="패스 27583" d="M765.552,187.907l1.182-.7,1.2-.71-.063-.1a11.525,11.525,0,0,0-5.1-4.368c-.6-.263-1.206-.509-1.792-.713l-.453,2.368c2.188.395,4.369,3.183,5.025,4.224" transform="translate(-675.67 -161.084)" fill="#1a1311"/>
    <path id="패스_27584" data-name="패스 27584" d="M781.6,156.474c0,.013,0,.026-.006.038a.246.246,0,0,1-.094.161c.6.35,1.407.826,2.221,1.326a1.734,1.734,0,0,0,1.172-.182,8.7,8.7,0,0,1,2.832-.715.219.219,0,0,0,.077-.415h0a2.465,2.465,0,0,1-.247-.222c-.407-.429.057-.478.939-.131a.494.494,0,0,0,.621-.7,4.1,4.1,0,0,0-2.821-1.58,4.98,4.98,0,0,0-3.733,1.048,2.479,2.479,0,0,0-.96,1.373" transform="translate(-694.305 -136.816)" fill="#1a1311"/>
    <path id="패스_27585" data-name="패스 27585" d="M497.176,70.254l-.192-.287-.126-.189a1.242,1.242,0,0,0-1.666-.362c-4.389,2.642-11.552,6.291-18,9.459-1.05.515-2.081,1.019-3.078,1.5a2.1,2.1,0,0,1-3.007-1.555,1.546,1.546,0,0,1-.013-.376c.1-.978-2.85-5.939-4.042-7.9a6.894,6.894,0,0,1,2.723-4.3c.761-.553,1.5-1.11,1.946-1.505,2.01-1.766,2.371-2.714,2.467-3.274a1.79,1.79,0,0,0-.933-1.932,6.237,6.237,0,0,0-2.225-.587.952.952,0,0,1-.786-.713,18.921,18.921,0,0,0-.882-2.734c-.142-.346-.3-.7-.472-1.061a17.425,17.425,0,0,0-3.729-5.113,18.2,18.2,0,0,0-5.639-3.588,1.348,1.348,0,0,0-1.781.777,1.289,1.289,0,0,0,.751,1.619,15.547,15.547,0,0,1,4.76,3.011,14.783,14.783,0,0,1,3.074,4.116c.033.064.068.127.1.193l0,0a.88.88,0,0,1-.109.954,1.651,1.651,0,0,1-.818.518,1.115,1.115,0,0,1-.606-.016,1.735,1.735,0,0,1-1.2-1.246c-.041-.155-.085-.312-.132-.47-.028-.1-.056-.19-.087-.287a9.894,9.894,0,0,0-4.322-5.841,1.432,1.432,0,0,0-1.6.113,1.335,1.335,0,0,0,.162,2.216c2.052,1.181,2.978,3.578,3.394,5.473a1.021,1.021,0,0,1-1.059,1.223l-8.3-.314a.7.7,0,0,0-.741.676l-.033,1.317a.7.7,0,0,0,.693.71c1.515.042,5.24.154,9.1.347,3.949.2,6.509.4,8.165.582a.931.931,0,0,1,.525,1.641,37.937,37.937,0,0,1-4.322,3.082,42.706,42.706,0,0,1-7.337,3.7,2.133,2.133,0,0,1-2.88-1.681c-.1-.787-.227-1.476-.343-2.027a.928.928,0,0,1,1.1-1.082l1.18.219a.924.924,0,0,0,1.082-.72l.171-.9a.9.9,0,0,0-.739-1.047c-3.8-.7-6.922-1.355-6.955-1.362l-.593,2.65c.021,0,1.23.259,3.055.619a.3.3,0,0,1,.025.583l-1.356.389a22.373,22.373,0,0,1,.771,6.461,16.308,16.308,0,0,1-.234,2.274.577.577,0,0,0,.2.545c.46.385.922.768,1.392,1.139a.609.609,0,0,0,.967-.32l.007-.029a3.645,3.645,0,0,1,2.494-2.615,32.835,32.835,0,0,0,3.662-1.4.548.548,0,0,1,.16-.049,1.478,1.478,0,0,1,1.4.52,50.272,50.272,0,0,1,5.009,7.428l-.011-.012-.809-.073a1.231,1.231,0,0,0-.862.249l-.343.265a.891.891,0,0,0-.127,1.3c.505.57,1.292,1.423,2.274,2.374-2.586,1.226-4.282,2.014-4.428,2.081q-1.631.732-3.215,1.424l-1.162.506a5.788,5.788,0,0,1-5.77-.674c-2.148-1.619-5.029-3.83-6.443-5.08a.854.854,0,0,0-1.146.012l-.823.76a.8.8,0,0,0-.014,1.169,46.787,46.787,0,0,0,6.845,5.551.788.788,0,0,1-.136,1.4l-.018.007a.846.846,0,0,1-.65-.007c-1.985-.852-3.788-1.8-4.67-2.28a.682.682,0,0,0-.906.237l-.374.615-.365.6a.641.641,0,0,0,.249.9c.472.258,1.2.644,2.074,1.08a.384.384,0,0,1-.035.706,205.366,205.366,0,0,1-22.967,6.9,22.176,22.176,0,0,1-4.584.632,21.888,21.888,0,0,1-12.8-3.611,8.291,8.291,0,0,1-1.646-1.326,2.655,2.655,0,0,1-.2-3.167,4.5,4.5,0,0,0,.752-3.422c.037-.264.092-.615.17-1.02a19.067,19.067,0,0,1,.46-1.89,7.521,7.521,0,0,1,2-3.62.74.74,0,0,0,.2-.9l-.514-1.048a.754.754,0,0,0-.062-.1A.8.8,0,0,0,406.2,79.8a6.867,6.867,0,0,0-1.882,2.152,2.916,2.916,0,0,1-3.576,1.189l-.027-.01c-4-1.535-8.62-1.465-11.586.034a1.332,1.332,0,0,0-.377,2.109,1.419,1.419,0,0,0,1.665.3c2.027-1.026,5.73-1.277,9.271.082a4.311,4.311,0,0,1,2.082,1.857,5.807,5.807,0,0,1,.509,2.384.663.663,0,0,1-.021.267,1.019,1.019,0,0,1-1.777.319c-.727-.934-2.261-2.131-5.384-2.27-3.353-.149-5.058.562-5.92,1.275a2.34,2.34,0,0,1-3.02-.137,6.316,6.316,0,0,1-.872-1.039,2,2,0,0,1-.253-1.79c.4-1.366,1.956-3.084,4.379-4.839a39.289,39.289,0,0,1,5.346-3.2c1.141-.414,5.026-2.166,5.66-2.558.652-.4,2.609-1.151,2.075-2.072s-4-.195-4-.195a2.337,2.337,0,0,0-1.252.377,22.019,22.019,0,0,1-2.81,1.584,42.993,42.993,0,0,0-6.51,3.755,1.834,1.834,0,0,0-.229-.11,1.76,1.76,0,0,0-2.17.725q-1.138,1.906-2.145,3.706a8.056,8.056,0,0,0-.813,1.476,67.282,67.282,0,0,0-6.469,15.542,23.553,23.553,0,0,0-.418,10.774,19.935,19.935,0,0,0,4.151,9.28,15.424,15.424,0,0,0,1.883,1.869,1.418,1.418,0,0,1-.946,2.51h-2.022a1.958,1.958,0,1,0,0,3.914H416.7a12.249,12.249,0,0,0,1.9.54,35.513,35.513,0,0,0,6.829.458,37.751,37.751,0,0,1,4.281.165,9.715,9.715,0,0,0,1.219.078,9.2,9.2,0,0,0,1.1-.065,8.681,8.681,0,0,0,3.23-1.046,8.483,8.483,0,0,0,2.766-2.484,15.755,15.755,0,0,0,1.423,1l1.449-2.251c-2.346-1.423-6.323-5.569-6.363-5.61l-2,1.806c.1.108,1.607,1.675,3.366,3.262a5.633,5.633,0,0,1-2.036,1.933,6.1,6.1,0,0,1-3.784.693c-.75-.095-1.557-.139-2.4-.162-.717-.019-1.462-.023-2.228-.025a33.5,33.5,0,0,1-6.265-.4c-1.9-.389-3.082-1.083-3.718-2.184-.595-1.031-.322-1.523-.22-1.709a1.838,1.838,0,0,1,.246-.338q1.609-.562,3.272-1.2.6-.23,1.206-.469a7.767,7.767,0,0,1,2.317-.53,10.132,10.132,0,0,1,1.444,0,5.651,5.651,0,0,1,4.221,2.014,1.424,1.424,0,0,0,1.719.413,1.305,1.305,0,0,0,.494-1.977,7.525,7.525,0,0,0-1.793-1.672,1.111,1.111,0,0,1,.161-1.943q5.106-2.379,10.6-5.332a.754.754,0,0,1,1.055.978c-.558,1.1-1.14,2.205-1.721,3.3-.042-.433-.06-.807-.061-1.078l-1.4,0h-1.4a17.178,17.178,0,0,0,.364,3.208,8.417,8.417,0,0,0,2.872,5.237l1.7-2.154a3.886,3.886,0,0,1-1.1-1.407l.1.051.3-.555c1.581-2.941,3.291-6.124,4.627-9.093a6.647,6.647,0,0,1,2.722-3.005q2.678-1.563,5.4-3.23a.131.131,0,0,1,.145.219q-.152.105-.309.194l1.407,2.342a10.879,10.879,0,0,0,3.838-4.227l.018-.032a12.48,12.48,0,0,1,4-4.272q2.42-1.592,4.835-3.241c.336.371.7.762,1.075,1.16,2.644,2.786,4.672,4.428,6.2,5.022l1.037-2.518c-.627-.243-2.133-1.13-5.171-4.329-.294-.31-.578-.616-.849-.912l.8-.558a30.4,30.4,0,0,0,6.626,3.508.863.863,0,0,0,1.115-.585l.262-1.016a.827.827,0,0,0-.544-.987,25.113,25.113,0,0,1-5.051-2.614q.687-.488,1.371-.979c.97-.7,2.013-1.467,3.1-2.288,7.63-5.749,17.541-13.966,20.445-16.347a1.161,1.161,0,0,0,.236-1.551M394.239,94.764c1.425.185,2.841.344,3.781.392.5.025.968.049,1.429.076q.087.005.181.005h.012a2.838,2.838,0,0,1,2.281,1.1,16.972,16.972,0,0,0,4.623,4.065l.03.019a1,1,0,0,1-.566,1.845c-6.669-.077-10.827-1.689-13.411-3.771l-.045-.036a2.1,2.1,0,0,1,1.685-3.694m86.433-13.258c-2.269,1.75-4.629,3.519-7.046,5.28q-.967.7-1.945,1.408-1.065.765-2.137,1.522-.7.494-1.4.984-.6.421-1.205.839-1.141.791-2.286,1.57c-3.824,2.605-7.673,5.115-11.485,7.489q-.773.482-1.544.956l-.311.191q-1.115.684-2.224,1.352-3.728,2.243-7.362,4.282a202.9,202.9,0,0,1-18.919,9.455q-1.208.519-2.389,1-4.622,1.89-8.828,3.219-.934.295-1.843.561c-8.985,2.625-16.173,3.117-21.387,1.46a13.428,13.428,0,0,1-6.309-4.088,17.234,17.234,0,0,1-3.544-8.016,21.007,21.007,0,0,1,.388-9.614c.04-.161.082-.324.124-.487A57.631,57.631,0,0,1,383.2,90.146a9.393,9.393,0,0,0,2.415,2.262,14.815,14.815,0,0,0,5.141,8.236c3.649,2.939,8.936,4.417,15.773,4.416a59.69,59.69,0,0,0,7.611-.526q1.823-.235,3.769-.58,2.1-.371,4.332-.864,1.054-.233,2.137-.494,1.23-.3,2.495-.625.659-.172,1.327-.354,3.374-.917,6.985-2.072,5.232-1.675,11.034-3.875.668-.253,1.345-.514,6.712-2.585,14.09-5.829,1.3-.574,2.628-1.167l.016-.007c.3-.141,2.7-1.251,6.131-2.886,2.729-1.3,6.116-2.931,9.635-4.671a.548.548,0,0,1,.6.91" transform="translate(-333.375 -40.548)" fill="#1a1311"/>
    <path id="패스_27586" data-name="패스 27586" d="M44.528,141.215c6.577-2.049,13.8-4.17,17.56-5.7.279-.114.548-.214.81-.3,2.581-.869,4.472-.594,7.442-.574,2.2.015,4.406.059,5.1.171a14.742,14.742,0,0,1,1.977-.111c2.491.029,4.844.053,6.5.065.661,0,1.211.007,1.613.007,0,0,1.727.474,2.882.763a48.4,48.4,0,0,0,8.182,1.307,29.8,29.8,0,0,1,8.246,2.343,1.38,1.38,0,0,0,1.766-.644l.03-.06a1.308,1.308,0,0,0-.689-1.788,43.616,43.616,0,0,0-5.743-1.972,1.22,1.22,0,0,1-.9-1.487l.17-.643a1.249,1.249,0,0,1,.965-.894,1.859,1.859,0,0,0,.9-.353c1.107-1.381,4.107-1.421,2.53-3.07-2.055-2.149-8.3-2.533-7.747.23a4.389,4.389,0,0,0,1.042,2.026A1.586,1.586,0,0,1,97.507,132l-.2.758a1.688,1.688,0,0,1-1.85,1.219,61.7,61.7,0,0,1-6.179-1.025,14.967,14.967,0,0,1-4.486-1.629.924.924,0,0,0-.692-.133.91.91,0,0,0-.184.056l-.895.386a4.862,4.862,0,0,1-1.974.4c-4.5-.045-10.347-.585-13.584-.5-.25.006-.505.006-.763,0-4.5-.071-10.116-1.688-16.919-3.157a11.9,11.9,0,0,1-4.723-2.18c-.945-.724-2.2-1.634-3.745-2.63a60.488,60.488,0,0,0-15.149-7.07l-.882,2.939c4.343,1.3,10.081,4.347,13.17,6.088a.6.6,0,0,1-.316,1.119,54.825,54.825,0,0,0-9.251.437c-4.1.562-8.744,2.391-13.774,3.709C8.6,132.487,3.068,134.38.777,135.194a1.14,1.14,0,0,0-.7,1.493l.153.385c.233.585.038,1.972,2.41,1.818,3-.194,7.17-4.15,13.6-5.833,3-.786,6.4-1.7,9.853-2.446a.484.484,0,0,1,.4.853,60.184,60.184,0,0,0-6.88,6.426l1.935,1.772A59.908,59.908,0,0,1,32.7,130.117a5.838,5.838,0,0,1,2.814-.937,26.886,26.886,0,0,1,5.857.194c1.253.2,2.466.454,3.637.734l.009.008,0,0c3.684.883,6.945,2.021,9.67,2.511,1.836.33,1.077,1.794-.672,2.431-3.161,1.152-7.961,2.258-13.438,3.991-7.326,2.318-12.644,5.642-15.163,6.366a1.011,1.011,0,0,0-.707,1.258l.2.654c-.508.833.632,2.44,2.552,1.853,2.128-.651,5.728-3.38,10.729-5.65a.8.8,0,0,1,1.109.928l-1.869,7.477,2.545.636L42.2,143.68a3.46,3.46,0,0,1,2.328-2.465" transform="translate(0 -103.492)" fill="#1a1311"/>
    <path id="패스_27587" data-name="패스 27587" d="M346.319,74.009c1.345-3.054.5-6.383-1.9-7.438s-5.424.567-6.769,3.62,1.9,7.438,1.9,7.438,5.424-.567,6.769-3.62" transform="translate(-299.688 -58.857)" fill="#307d2a"/>
    <path id="패스_27588" data-name="패스 27588" d="M149.868,146.032c-1.524,1.425-1.286,4.156.532,6.1s6.051.941,6.051.941,1.286-4.156-.532-6.1-4.527-2.366-6.051-.941" transform="translate(-132.255 -128.988)" fill="#307d2a"/>
    <path id="패스_27589" data-name="패스 27589" d="M280.658,246.827c.5-2.615-2.81-5.441-2.81-5.441s-4.115,1.414-4.612,4.029.76,5.051,2.81,5.441,4.115-1.414,4.612-4.029" transform="translate(-242.652 -214.453)" fill="#307d2a"/>
    <path id="패스_27590" data-name="패스 27590" d="M134.434,314.556s-4.115,1.414-4.613,4.029.761,5.051,2.81,5.441,4.115-1.414,4.612-4.029-2.81-5.441-2.81-5.441" transform="translate(-115.24 -279.459)" fill="#307d2a"/>
    <path id="패스_27591" data-name="패스 27591" d="M308.481,440.4s-3.355,1.153-3.761,3.285.62,4.119,2.291,4.437,3.355-1.153,3.761-3.285-2.291-4.437-2.291-4.437" transform="translate(-270.642 -391.259)" fill="#307d2a"/>
    <path id="패스_27592" data-name="패스 27592" d="M412.579,152.756c-.366-1.661-2.381-2.63-4.5-2.163s-3.175,3.854-3.175,3.854,2.381,2.63,4.5,2.163,3.542-2.193,3.176-3.854" transform="translate(-359.724 -133.686)" fill="#307d2a"/>
  </g>
</svg>
