<svg id="PPS_15" xmlns="http://www.w3.org/2000/svg" xmlns:xlink="http://www.w3.org/1999/xlink" width="131.912" height="113.432" viewBox="0 0 131.912 113.432">
  <defs>
    <clipPath id="clip-path">
      <rect id="사각형_6138" data-name="사각형 6138" width="131.912" height="113.432" fill="none"/>
    </clipPath>
  </defs>
  <g id="그룹_11589" data-name="그룹 11589" clip-path="url(#clip-path)">
    <path id="패스_27331" data-name="패스 27331" d="M421.6,764.662q.006-.069.013-.135a7.507,7.507,0,0,1-.386-.941l-.181-.542.208-.532c0-.01.326-.84.677-1.923l-2.2,2.2Z" transform="translate(-372.898 -675.724)" fill="#82549a"/>
    <path id="패스_27332" data-name="패스 27332" d="M735.525,742.963l.007.007,2.868.288c.009-.036.02-.071.032-.106l-2.87-.267c-.012.026-.023.053-.036.078" transform="translate(-653.457 -659.996)" fill="#82549a"/>
    <path id="패스_27333" data-name="패스 27333" d="M422.628,718.055h0a15.429,15.429,0,0,1-1.311-.827l-1.585,1.585,2.451,2.451a13.508,13.508,0,0,0,.617-2.9.336.336,0,0,0-.17-.312" transform="translate(-372.898 -637.201)" fill="#82549a"/>
    <path id="패스_27334" data-name="패스 27334" d="M549.328,777.491a.889.889,0,0,0-1.03.756v.01a11.083,11.083,0,0,1-.614,2.51l2.972-2.972-.185-.185a8.746,8.746,0,0,1-1.142-.12" transform="translate(-486.574 -690.73)" fill="#82549a"/>
    <path id="패스_27335" data-name="패스 27335" d="M452.385,531.675l1.046,1.046c.406-.474.826-.957,1.193-1.377a3.125,3.125,0,0,1,2.325-1.061l-1.491-1.491,2.573-2.573,2.573,2.573-1.483,1.483a6.367,6.367,0,0,0,2.65-.816l-.667-.667,2.573-2.573.348.348a7.836,7.836,0,0,0,.338-1.342l-.686.686-2.573-2.573,2.573-2.573,2.573,2.573-.846.846,1.2-.026a.937.937,0,0,1,.953,1.044,11.317,11.317,0,0,1-.2,1.186,8.811,8.811,0,0,0-.211,2.008l2.33-2.33-2.728-2.727,2.628-2.628a8.66,8.66,0,0,0-5.3-.657l-.4.4-.25-.25a8.648,8.648,0,0,0-1.2.424l-.666.293a.986.986,0,0,1-1.3-.505l-.48-1.09a.982.982,0,0,1-.07-.555l-1.683,1.683-2.573-2.573,2.573-2.573,2.573,2.573-.012.012.893-.393,2.347-2.347-2.6-2.6a1.574,1.574,0,0,1,.2.968,1.6,1.6,0,0,1-1.718,1.387c-.536-.039-1.042-.059-1.521-.063l-.156.156-.156-.156a17.057,17.057,0,0,0-4.18.492l-.029.008a2.91,2.91,0,0,0-.863.384l2.154,2.154-2.573,2.573-1.476-1.476a27.556,27.556,0,0,1-2.212,3.743l.614.615-.736.735c.483-.246.923-.459,1.326-.646l-.09-.09,2.573-2.573,2.573,2.573-1.011,1.011.012.235a.863.863,0,0,1-.619.874q-.326.095-.763.262l-.192.192-.083-.083a39.9,39.9,0,0,0-3.989,1.966l1,1-2.573,2.573-1.689-1.689q-.762.458-1.59.971a2.133,2.133,0,0,1-1.128.32,2.208,2.208,0,0,1-.72-.121l-.52.519-2.573-2.573,2.573-2.573.363.363c1.067-1.146,1.986-2.207,2.774-3.182l-.063-.063.55-.55c.722-.924,1.323-1.767,1.824-2.532l-2.373-2.373,2.573-2.573,1.62,1.62c.169-.4.3-.758.39-1.065l.115-1.05a10.075,10.075,0,0,0,.052-1.99L446.739,515l-1.722-1.722c-.258.179-.533.377-.825.6-.219.166-.435.335-.645.5a13.572,13.572,0,0,1-1.537,1.845l1.656,1.656-2.573,2.573-2.033-2.033a12.735,12.735,0,0,1-2.625,1.045l-.989.989-.547-.547a3.911,3.911,0,0,0-2.27,2.961,24.75,24.75,0,0,1-1.327,4.852l1.071,1.071-1.482,1.482a3.593,3.593,0,0,0,.546,1.02,8.077,8.077,0,0,0,2.383,2.006l1.627-1.627,2.573,2.573-.65.65a1.5,1.5,0,0,1,.892,1.746l-.038.157,0,.009a1.493,1.493,0,0,1-1.933,1.058l-.033-.011a.45.45,0,0,0-.1-.022l1.868,1.868-2.573,2.573-.709-.709c-.151.452-.29.846-.4,1.144a3.733,3.733,0,0,0,.367.614l.741-.741,2.4,2.4c.259.04.515.067.76.083l2.485-2.485.251.252c.018-.107.036-.217.052-.333.029-.2.052-.405.07-.6l-.374.374-2.573-2.573,2.573-2.573,1.155,1.155a1.468,1.468,0,0,1,1.391-.071l.151.071a10.157,10.157,0,0,0,1.308.485l1.2-1.2c-.637-.077-1.2-.146-1.663-.2a1.582,1.582,0,0,1-.384-3.04l-.082-.082,2.573-2.573,2.573,2.573-.443.443.8.091a3.472,3.472,0,0,0,.682.008l-.542-.542Zm5.647-10.91,2.573,2.573-2.573,2.573-2.573-2.573Zm-5.647,5.455,2.573,2.573-2.573,2.573-2.573-2.573Zm-11.293-5.455,2.573,2.573-2.573,2.573-2.573-2.573Zm-5.646,10.6-2.573-2.573,2.573-2.573,2.573,2.573Zm0-5.455-2.573-2.573,2.573-2.573,2.573,2.573Zm5.646,10.91-2.573-2.573,2.573-2.573,2.573,2.573Z" transform="translate(-382.813 -455.365)" fill="#82549a"/>
    <path id="패스_27336" data-name="패스 27336" d="M421.46,533.8h0a9.8,9.8,0,0,0,2.663.029l1.408-1.408.879.879a9.214,9.214,0,0,0,1.86-.91.239.239,0,0,0,.039-.372l.086-.086c-.939.038-1.866.051-2.732.049l-.131.131-.133-.132c-2.55-.015-4.508-.156-4.546-.159l-.059,0a2.3,2.3,0,0,0-.681.067l-.382.382,1.5,1.5a1.611,1.611,0,0,1,.225.029" transform="translate(-372.898 -472.479)" fill="#82549a"/>
    <path id="패스_27337" data-name="패스 27337" d="M756.315,662.113a8.477,8.477,0,0,0,.2,1.137l.367,1.468a1.578,1.578,0,0,1,.045.443q.125.327.236.661l1.43-1.43Z" transform="translate(-671.928 -588.237)" fill="#82549a"/>
    <path id="패스_27338" data-name="패스 27338" d="M655.672,459.672c-3.973.141-11.091-1.176-13.11-11.892a2.514,2.514,0,0,0-3.08-1.976c-5.118,1.274-16.046,6.717-9.7,9.1,7.837,2.939,4.409,21.553,3.429,28.411s-17.428,7.838-23.8,8.327,8.817,10.777,8.817,10.777,16.775,2.449,24.613.98a49.266,49.266,0,0,1,9.808-.8,4.607,4.607,0,0,0,4.683-4.49l.91-35.8a2.5,2.5,0,0,0-2.578-2.628" transform="translate(-540.036 -395.995)" fill="#82549a"/>
    <path id="패스_27339" data-name="패스 27339" d="M243.263,536a4.138,4.138,0,0,1-.893-.559,2.424,2.424,0,0,1-.651-2.873c.557-1.221,1.146-3.334-.416-4.9-2.327-2.327-2.817-9.185-1.837-11.389s-.245-2.572-1.47-4.654-7.348-6.123-7.348-6.123-3.8-6.49-7.96-2.572,3.674,13.593,1.592,23.635,2.694,26.7,3.429,27.8,14.328.49,14.94-1.1a18.655,18.655,0,0,1,2.817-4.041c-3.919-4.654-.367-12.369-2.2-13.226" transform="translate(-196.741 -445.699)" fill="#82549a"/>
    <path id="패스_27340" data-name="패스 27340" d="M520.76,204.342c3.131-.428,10.407-.7,15.338-.848a17.529,17.529,0,0,0,8-2.226c7.048-3.92,18.478-5.6,23.7-6.2a4.482,4.482,0,0,0,3.961-4.079,14.857,14.857,0,0,0-.344-4.4c-1.225-5.633-17.757,3.184-23.268,6.246-5.066,2.815-24.621,8.941-27.745,9.911a.817.817,0,0,0-.543.556v0a.818.818,0,0,0,.9,1.035" transform="translate(-461.828 -164.138)" fill="#82549a"/>
    <path id="패스_27341" data-name="패스 27341" d="M1006.465,107.021c-3.755,2.612-7.247,3.349-9.274,5.36a4.008,4.008,0,0,0-.881,4.376c.989,2.391,2.524,5.8,3.461,6.429,1.47.98,3.919,1.143,4.572-.327a9.353,9.353,0,0,1,1.3-2.056c.357-.435.4-1.067.786-1.477,3.3-3.489,3.275-14.561.034-12.306" transform="translate(-884.875 -94.814)" fill="#82549a"/>
    <path id="패스_27342" data-name="패스 27342" d="M671.613,324.173a1.523,1.523,0,0,1-1.1.753l-.035.005c-.486.072-11.926,1.761-15.008,2.163-3.608.471-10.189,2.15-12.854,4.261l-.428.339-.546,0c-.051,0-3.951.023-9.019.258a1.662,1.662,0,0,0-1.363,2.49c.277.48.534.963.771,1.444a5.577,5.577,0,0,0,6.633,2.846,25.24,25.24,0,0,0,3.943-1.514l.26-.134.291-.031c.043,0,4.3-.538,6.134-3.342l.3-.458.519-.175c.041-.014,4.185-1.407,8.787-2.682a54.669,54.669,0,0,1,10.568-2.171,1.574,1.574,0,0,1,1.115.372,4.117,4.117,0,0,0,.938-1.9,5.756,5.756,0,0,0,.094-2.53" transform="translate(-560.626 -288.003)" fill="#ee8673"/>
    <path id="패스_27343" data-name="패스 27343" d="M201.245,292.793a24.783,24.783,0,0,0-2.572-3.422c-2.549-2.8-4.953-3.843-7.146-3.112a5.519,5.519,0,0,0-3.864,4.953l0,.021A1.918,1.918,0,0,0,189.4,293.4l.019,0a.512.512,0,0,1,.468.548l-.155,2.134a.508.508,0,0,1-.063.209l.366.144.184.072.025-.028a4.076,4.076,0,0,1,1.93-1.216c.382-.118,1.4-.433,1.569-2.575a8.568,8.568,0,0,0-.016-1.456,1.456,1.456,0,0,1,1.1-1.55l.248-.061a1.454,1.454,0,0,1,1.8,1.273,11.9,11.9,0,0,1,.031,1.962,7.068,7.068,0,0,1-1,3.313l.334.467a37.422,37.422,0,0,1,7.641-2.619l-.177-.418a2.023,2.023,0,0,1-2.456-.8" transform="translate(-166.705 -254.118)" fill="#ee8673"/>
    <path id="패스_27344" data-name="패스 27344" d="M671.141,685.4q-.111-.335-.236-.661a1.581,1.581,0,0,1-1.24,1.485,1.539,1.539,0,0,1-.852-.055,1.627,1.627,0,0,1-.984-.984c-.018-.05-.034-.1-.047-.154l-.158-.632a.328.328,0,0,0-.512-.185c-.049.036-.1.07-.15.1a8.156,8.156,0,0,1-.968.581,9.523,9.523,0,0,1-3.158.94,12.839,12.839,0,0,1-1.615.1q-.317,0-.644-.014a1.03,1.03,0,0,0-.838.375l-.015.018a1.036,1.036,0,0,0,.705,1.691c.594.053,1.2.1,1.8.155,1.229.1,2.474.2,3.711.28l.719.047a1.578,1.578,0,0,1,1.347,2.213l2.87.267a1.576,1.576,0,0,1,1.184-1.044c-.033-.377-.077-.758-.132-1.142a19.606,19.606,0,0,0-.789-3.384" transform="translate(-585.905 -607.812)" fill="#ee8673"/>
    <path id="패스_27345" data-name="패스 27345" d="M222.915,1.662a6.05,6.05,0,0,0-4.8-1.64,5.4,5.4,0,0,0-1.66.392C174.1,18.3,150.89,22.356,140.826,23.184c-7.919.651-13.681-.079-17.125-2.169-3.864-2.345-5.358-6.669-4.441-12.85a2.638,2.638,0,0,0-1.553-2.522,7.1,7.1,0,0,0-4.124-.911h0a3.852,3.852,0,0,0-3.167,1.623c-2.347,4.322-5.413,10.752-6.69,16.845-1.438,6.858-.4,11.851,3.177,15.207l.31.046a1.929,1.929,0,0,0,2.191-1.671l0-.021a9.958,9.958,0,0,1,1.559-4.331,8.433,8.433,0,0,1,4.452-3.291c4.365-1.455,8.135,1.389,10.529,4.032a28.727,28.727,0,0,1,3.34,4.594,1.148,1.148,0,0,1-.47,1.607l-.056.028c-.056.028-.113.054-.17.076l.177.418c1.769-.414,3.371-.681,4.618-.85a3.8,3.8,0,0,1,3.7,1.708Q139,40.288,141,39.727c34.736-9.728,65.841-26.042,81.291-34.9a1.914,1.914,0,0,0,.623-3.165" transform="translate(-91.596 -0.001)" fill="#1c4e45"/>
    <path id="패스_27346" data-name="패스 27346" d="M205.528,378q.2.047.4.09l-.366-.144a.511.511,0,0,1-.035.054" transform="translate(-182.596 -335.773)" fill="#1c4e45"/>
    <path id="패스_27347" data-name="패스 27347" d="M647.727,743.638a1.581,1.581,0,0,1-1.508.86q-.821-.052-1.646-.112-.939-.067-1.877-.142c-1.128-.089-2.248-.186-3.343-.286l-1.154-.107a1.351,1.351,0,0,0-1.121.422,1.334,1.334,0,0,0-.25,1.487,7.284,7.284,0,0,0,6.582,4.226h.022a7.27,7.27,0,0,0,7.147-5.951s0-.008,0-.011c.006-.032.014-.064.022-.1l-2.868-.288Z" transform="translate(-565.663 -660.665)" fill="#1c4e45"/>
    <path id="패스_27348" data-name="패스 27348" d="M702.627,549.465l-2.432-1.57a8.839,8.839,0,0,0-8.355-.665l-.94.414-.893.393-.3.133a.987.987,0,0,0-.505,1.3l.48,1.091a.986.986,0,0,0,1.3.505l.666-.293a8.652,8.652,0,0,1,1.2-.424q.324-.089.652-.152a8.675,8.675,0,0,1,6.335,1.228l1.082.7a.758.758,0,0,0,1.048-.226l.894-1.384a.758.758,0,0,0-.225-1.048" transform="translate(-612.226 -485.506)" fill="#0d1a35"/>
    <path id="패스_27349" data-name="패스 27349" d="M779.28,608.253l-1.646-.082a.758.758,0,0,0-.795.714c-.107,1.9-.421,6.981-.881,10.257a1.581,1.581,0,1,0,3.132.436c.484-3.461.8-8.593.908-10.526a.758.758,0,0,0-.719-.8" transform="translate(-689.366 -540.313)" fill="#0d1a35"/>
    <path id="패스_27350" data-name="패스 27350" d="M122.3,257.278a1.582,1.582,0,0,0-1.582,1.582v5.647a.9.9,0,0,1-1.75.295c-.639-1.843-1.292-3.716-1.663-4.777a2.659,2.659,0,0,0-1.1-1.374,2.632,2.632,0,0,0-1.9-.363,8.211,8.211,0,0,0-3.831,1.836,13.585,13.585,0,0,1-6.9,3.1c-3.478.508-7.527,1.092-9.142,1.3-2.625.342-10.042,1.814-13.958,4.581-1.74.02-7.575.118-13.8.556-7.632.536-13.019,1.356-16.3,2.487a3.216,3.216,0,0,1-3.309-.751l-.019-.018a11.132,11.132,0,0,1-1.507-1.988c-.014-.023-.03-.044-.045-.067a3.8,3.8,0,0,0-3.7-1.708c-1.246.169-2.849.436-4.618.85a37.417,37.417,0,0,0-7.641,2.619l-.334-.467a7.069,7.069,0,0,0,1-3.313,11.886,11.886,0,0,0-.031-1.961,1.454,1.454,0,0,0-1.8-1.274l-.248.061a1.456,1.456,0,0,0-1.1,1.55,8.577,8.577,0,0,1,.016,1.456c-.174,2.142-1.187,2.457-1.569,2.575a4.078,4.078,0,0,0-1.93,1.216l-.025.029a3.752,3.752,0,0,0-.657,1.135,4.747,4.747,0,0,0-.257,1.88l-.107-.043a29.685,29.685,0,0,0-3.1-1.012.512.512,0,0,0-.631.378l-.491,2.083a.512.512,0,0,0,.366.612c.556.15,1.522.43,2.518.811a11.014,11.014,0,0,1,2.375,1.18.51.51,0,0,1-.007.839l-.008.006a5.779,5.779,0,0,1-4.643,1.188,6.989,6.989,0,0,1-3.838-3.238l-.245-.483a.512.512,0,0,0-.386-.276l-.532-.074a22.669,22.669,0,0,1-8.12-3.022,2.347,2.347,0,0,1,1.822-4.276,95.276,95.276,0,0,0,14.9,2.36.51.51,0,0,0,.455-.211.488.488,0,0,0,.035-.054.508.508,0,0,0,.063-.209l.155-2.134a.512.512,0,0,0-.468-.548l-.019,0a1.918,1.918,0,0,1-1.744-2.163l0-.021a5.52,5.52,0,0,1,3.864-4.953c2.193-.731,4.6.316,7.146,3.112a24.79,24.79,0,0,1,2.572,3.422,2.023,2.023,0,0,0,2.456.8c.057-.023.114-.048.17-.076l.056-.028a1.148,1.148,0,0,0,.47-1.607,28.736,28.736,0,0,0-3.34-4.594c-2.394-2.642-6.164-5.487-10.53-4.032A8.434,8.434,0,0,0,19.369,261a9.958,9.958,0,0,0-1.559,4.331l0,.021a1.929,1.929,0,0,1-2.191,1.671l-.31-.046A47.749,47.749,0,0,1,5.661,264.7l-.881-.353a.512.512,0,0,0-.64.23L.063,272.056a.513.513,0,0,0,.1.624l.619.565a26.2,26.2,0,0,0,11.661,5.66.511.511,0,0,1,.323.21,9.654,9.654,0,0,0,5.307,3.961,7.416,7.416,0,0,0,1.827.229,9.6,9.6,0,0,0,5.388-1.862c1.874-1.273,2.066-2.629,1.9-3.543q-.027-.144-.067-.286l.06-.038c-.058-.091-.117-.189-.176-.291a3.337,3.337,0,0,0-.317-.585c-.608-1.2-1.14-2.749-.856-3.52.039-.1.11-.3.579-.445.113-.035.222-.074.33-.115.431.6,1.007,1.419,1.591,2.282,2.163,3.2,2.393,4.018,2.412,4.1a15.771,15.771,0,0,0,2.488,5.415,11.05,11.05,0,0,0,4.843,3.878,17.7,17.7,0,0,1,6.108,6.493,1.434,1.434,0,0,0,1.733.686l.834-.285a18.666,18.666,0,0,1-.567,2.666,22.032,22.032,0,0,1-1.164,3.171l-.09.186-.039.2a6.208,6.208,0,0,0,1.216,5,10.23,10.23,0,0,0,2.311,2.179,15.431,15.431,0,0,0,1.311.827h0a.336.336,0,0,1,.17.312,13.508,13.508,0,0,1-.617,2.9l0,.007c-.081.274-.165.542-.247.8-.35,1.083-.673,1.913-.677,1.923l-.208.532.181.542a7.513,7.513,0,0,0,.386.941q-.006.066-.013.135c-.27,2.915-.642,10.486,2.017,15.9a6.053,6.053,0,0,0-2.274,2.356,4.946,4.946,0,0,0-.236.532,3.909,3.909,0,0,1-3.66,2.539H34.116a1.251,1.251,0,0,0-1.214.944l0,.009q-.082.328-.163.656A1.253,1.253,0,0,0,33.952,342h89.932V258.86a1.582,1.582,0,0,0-1.582-1.582M45.9,291.53a2.3,2.3,0,0,1,2-3.617l.059,0c.038,0,2,.144,4.546.159h.264c.866,0,1.793-.011,2.732-.049l-.086.086a.239.239,0,0,1-.039.372,9.218,9.218,0,0,1-1.86.91,10.065,10.065,0,0,1-1.272.362c-.353.076-.694.13-1.015.167a9.8,9.8,0,0,1-2.663-.03,1.626,1.626,0,0,0-.225-.028,1.582,1.582,0,0,0-1.634,1.9,8.125,8.125,0,0,1,.156,1.327c-.253-.461-.57-.991-.963-1.566m74.824,40.314a7,7,0,0,1-7,7H52.256a1.114,1.114,0,0,1-1.009-1.6l.007-.014a3.776,3.776,0,0,1,2.12-1.572,1.343,1.343,0,0,0,1.106-2.1l-.213-.309c-1.923-2.839-2.453-7.119-2.559-10.209-.022-.636-.027-1.249-.021-1.827a.516.516,0,0,1,.711-.473,9.529,9.529,0,0,0,2.072.571h0a.528.528,0,0,1,.432.417c.465,2.306,1.454,9.69,3.369,13.947a2.383,2.383,0,0,0,1.811,1.518,1.863,1.863,0,0,0,1.989-1.112.947.947,0,0,1,1.038-.546,4.862,4.862,0,0,1,2.161.891,3.22,3.22,0,0,1,.5.49,3.165,3.165,0,0,0,2.709,1.129.927.927,0,0,0,.806-1.217,6.191,6.191,0,0,0-1.96-2.808,8.076,8.076,0,0,0-4.092-1.672,4.086,4.086,0,0,1-3.425-3.072c-.7-2.9-1.351-5.917-1.754-7.906.343-.04.552-.08.578-.085l.232-.045.209-.111a4.566,4.566,0,0,0,2.029-2.518,11.079,11.079,0,0,0,.614-2.51v-.01a.889.889,0,0,1,1.03-.756,8.745,8.745,0,0,0,1.142.12,6.356,6.356,0,0,0,1.067-.046,5.707,5.707,0,0,0,2.832-1.72,10.444,10.444,0,0,0,9.944,7.368h.031a10.436,10.436,0,0,0,10.252-8.5,1.575,1.575,0,0,0-1.431-1.9,1.6,1.6,0,0,0-.423.026l-.01,0a1.576,1.576,0,0,0-1.184,1.044c-.012.035-.022.07-.031.106s-.016.064-.022.1l0,.011a7.271,7.271,0,0,1-7.147,5.951h-.022a7.284,7.284,0,0,1-6.582-4.226,1.335,1.335,0,0,1,.25-1.487,1.352,1.352,0,0,1,1.121-.422l1.154.107c1.095.1,2.215.2,3.343.286q.936.074,1.876.142.825.059,1.646.112a1.581,1.581,0,0,0,1.508-.86l0-.006c.013-.026.024-.052.036-.079a1.583,1.583,0,0,0-1.347-2.213l-.719-.047c-1.237-.083-2.481-.178-3.711-.28-.6-.05-1.205-.1-1.8-.155a1.036,1.036,0,0,1-.706-1.691l.015-.018a1.03,1.03,0,0,1,.838-.375q.327.014.644.014a12.844,12.844,0,0,0,1.615-.1,9.522,9.522,0,0,0,3.158-.94,8.153,8.153,0,0,0,.967-.581c.05-.035.1-.069.15-.1a.328.328,0,0,1,.512.185l.158.632q.02.079.047.154a1.627,1.627,0,0,0,.984.984,1.539,1.539,0,0,0,.852.055,1.586,1.586,0,0,0,1.195-1.928l-.367-1.468a8.487,8.487,0,0,1-.2-1.137q-.046-.421-.051-.845a8.809,8.809,0,0,1,.211-2.008,11.31,11.31,0,0,0,.2-1.185.937.937,0,0,0-.953-1.044l-1.2.026-.5.011a.478.478,0,0,0-.465.439c-.014.162-.036.363-.073.592a7.849,7.849,0,0,1-.338,1.342,6.477,6.477,0,0,1-.442.994,10,10,0,0,1-1.143,1.42,4.833,4.833,0,0,1-.669.478,6.37,6.37,0,0,1-2.65.816,10.927,10.927,0,0,1-1.9.015c-.091-.007-.181-.008-.272-.007a3.125,3.125,0,0,0-2.325,1.061c-.367.42-.787.9-1.193,1.377-.248.29-.492.576-.715.842a3.479,3.479,0,0,1-3.044,1.218l-.8-.091c-1.583-.181-2.906-.342-3.845-.459a1.582,1.582,0,0,0-.393,3.139c.466.058,1.026.127,1.663.2l.735.087a.748.748,0,0,1,.264,1.4l-.018.009a6.06,6.06,0,0,1-2.177-.3,10.137,10.137,0,0,1-1.308-.485l-.151-.071a1.483,1.483,0,0,0-2.11,1.41l.007.166a17.056,17.056,0,0,1-.07,2.113c-.019.2-.042.4-.07.6-.016.116-.034.226-.052.333a4.42,4.42,0,0,1-.794,2.177,10.581,10.581,0,0,1-1.942.056c-.246-.016-.5-.043-.76-.083l-.131-.021a4.473,4.473,0,0,1-3.011-1.64,3.729,3.729,0,0,1-.367-.615c.108-.3.248-.692.4-1.144.131-.394.271-.832.406-1.289.24-.813.408-1.5.522-2.08a.451.451,0,0,1,.486-.362.462.462,0,0,1,.1.022l.032.011a1.493,1.493,0,0,0,1.933-1.058l0-.009.038-.157a1.5,1.5,0,0,0-.892-1.747c-.027-.011-.053-.022-.081-.032a19.3,19.3,0,0,1-3.239-1.431l-.23-.134a8.08,8.08,0,0,1-2.383-2.006,3.6,3.6,0,0,1-.546-1.02,2.822,2.822,0,0,1-.11-1.295c.111-.244.3-.681.522-1.258a24.756,24.756,0,0,0,1.327-4.853,3.933,3.933,0,0,1,3.056-3.219l.035-.007c.23-.05.469-.108.715-.176a12.729,12.729,0,0,0,2.625-1.045,12.438,12.438,0,0,0,2.95-2.2,13.555,13.555,0,0,0,1.537-1.845c.21-.168.426-.337.645-.5.293-.222.567-.42.825-.6,2.693-1.869,3.559-1.555,3.568-1.551.072.034.26.327.331,1.1a10.084,10.084,0,0,1-.052,1.99l-.115,1.05c-.094.307-.221.663-.39,1.065a21,21,0,0,1-1.82,3.327c-.5.765-1.1,1.608-1.824,2.532-.157.2-.318.4-.486.613-.788.975-1.707,2.035-2.774,3.182-.241.259-.487.521-.744.789a2.077,2.077,0,0,0-.1,2.773,2.217,2.217,0,0,0,1.72.823,2.136,2.136,0,0,0,1.128-.32q.83-.514,1.59-.971c1.215-.73,2.3-1.355,3.263-1.884a39.948,39.948,0,0,1,3.989-1.966c.1-.039.186-.075.275-.108q.437-.168.763-.262a.863.863,0,0,0,.619-.874l-.012-.235-.061-1.223a.865.865,0,0,0-1.069-.8,16.575,16.575,0,0,0-2.915,1.1c-.4.187-.842.4-1.326.646-.164.083-.331.169-.505.26l-.009,0a.227.227,0,0,1-.287-.336q.487-.649.922-1.278a27.566,27.566,0,0,0,2.212-3.743q.239-.5.437-.983.164-.4.289-.765a2.952,2.952,0,0,1,1.169-1.5,2.9,2.9,0,0,1,.863-.384l.029-.008a17.05,17.05,0,0,1,4.18-.492h.312c.479,0,.985.024,1.521.063a1.6,1.6,0,0,0,1.718-1.387,1.585,1.585,0,0,0-1.449-1.766,21.445,21.445,0,0,0-7.332.588q-.305.085-.58.173a6.852,6.852,0,0,0-.215-1.2,3.625,3.625,0,0,0-1.91-2.448,4.872,4.872,0,0,0-4.1.29,18.173,18.173,0,0,0-3.4,2.08,55.6,55.6,0,0,1-11.427.316,29.046,29.046,0,0,0-6.156.843,4.648,4.648,0,0,1-2.519-.144l-.022-.008q-.163-.1-.329-.2l-.036.061a7.919,7.919,0,0,1-3.344-2.754,12.636,12.636,0,0,1-1.966-4.269,11.187,11.187,0,0,0-1.571-3.163,1.422,1.422,0,0,1,.7-2.076A41.034,41.034,0,0,1,40.643,271a2.921,2.921,0,0,1,2.8,1.09,15.943,15.943,0,0,0,1.408,1.575,21.7,21.7,0,0,0,2.883,2.384A1.582,1.582,0,0,0,49.559,276h0c.833-.62,3.2-1.638,9.874-2.477a9.273,9.273,0,0,1,9.68,5.524,29.681,29.681,0,0,1,1.841,5.976l3.12-.521c-.01-.063-.063-.371-.171-.864a46.268,46.268,0,0,0,9.275-2.912c1.175-.182,5.382-1.039,7.8-4.242,1.214-.4,4.538-1.474,8.147-2.473a51.817,51.817,0,0,1,9.863-2.054,1.61,1.61,0,0,0,1.5-1.308,1.587,1.587,0,0,0-1.655-1.855,54.663,54.663,0,0,0-10.568,2.171c-4.6,1.274-8.745,2.668-8.787,2.682l-.519.175-.3.458c-1.834,2.8-6.092,3.337-6.134,3.342l-.291.031-.261.134a25.243,25.243,0,0,1-3.943,1.514,5.577,5.577,0,0,1-6.633-2.846c-.238-.481-.494-.964-.771-1.444A1.662,1.662,0,0,1,72,272.524c5.067-.235,8.968-.258,9.019-.258l.546,0,.428-.339c2.666-2.11,9.246-3.79,12.854-4.261,3.082-.4,14.522-2.091,15.008-2.163l.035-.005a1.526,1.526,0,0,0,1.225-1.034,5.1,5.1,0,0,1,1.288-1.808,1.73,1.73,0,0,1,2.791.691c1.746,4.829,3.7,10.915,3.64,12.887a5.068,5.068,0,0,1-2.328,4.363,9.677,9.677,0,0,1-3.691,1.353,14.4,14.4,0,0,0-.129-6.9,1.581,1.581,0,0,0-2.989,1.029,12.158,12.158,0,0,1-.094,5.816,2.75,2.75,0,0,0,3.038,3.276,13.326,13.326,0,0,0,5.619-1.943,8.308,8.308,0,0,0,2.465-2.5Z" transform="translate(0 -228.572)" fill="#0d1a35"/>
  </g>
</svg>
