<svg id="PPS_4" xmlns="http://www.w3.org/2000/svg" xmlns:xlink="http://www.w3.org/1999/xlink" width="111.743" height="62.526" viewBox="0 0 111.743 62.526">
  <defs>
    <clipPath id="clip-path">
      <rect id="사각형_6129" data-name="사각형 6129" width="111.743" height="62.526" fill="none"/>
    </clipPath>
  </defs>
  <g id="그룹_11571" data-name="그룹 11571" clip-path="url(#clip-path)">
    <path id="패스_23287" data-name="패스 23287" d="M91.881,109.907a1.371,1.371,0,0,1-.2-.015,2.054,2.054,0,0,1-1.633-1.739c-.1-.395-.219-.776-.331-1.145a9.927,9.927,0,0,1-.6-3.238,25.9,25.9,0,0,1,.306-3.03c.062-.438.126-.891.177-1.33.018-.153.047-.319.077-.493.037-.216.077-.445.1-.667a3.471,3.471,0,0,1-.31.53c-.263.392-.517.8-.763,1.2a21.107,21.107,0,0,1-1.477,2.18,12.612,12.612,0,0,1-2.68,2.389l-.111.075a4.04,4.04,0,0,1-2.239.936h0c-.64,0-1.178-.073-1.271-.942a4.833,4.833,0,0,1,.126-1.386c.074-.384.135-.782.194-1.166.079-.513.16-1.044.274-1.558a17.88,17.88,0,0,1,1.5-4.116c.021-.041.045-.085.072-.13-.058.062-.117.125-.176.191l-.011.012c-.455.5-.784.863-1.555.458a3.374,3.374,0,0,1-1.976-2.5,6.806,6.806,0,0,1-.041-2.468q.023-.2.045-.4a12.9,12.9,0,0,1,.6-3.06l.059-.171a6.4,6.4,0,0,1,.33-.829,1.805,1.805,0,0,1,.438-.524,2.436,2.436,0,0,0,.261-.263,1.773,1.773,0,0,0,.172-.309,2.8,2.8,0,0,1-.464.042,1.684,1.684,0,0,1-1.267-.424,2.181,2.181,0,0,1-.335-1.614c.006-.122.011-.238.012-.346,0-.246,0-.5-.01-.746a9.654,9.654,0,0,1,.117-2.183,8.061,8.061,0,0,1,1.2-2.543l.149-.239c.12-.194.242-.416.371-.651a5.558,5.558,0,0,1,1.549-2.035,3.215,3.215,0,0,1,1.9-.231,2.325,2.325,0,0,1,.1-.421c.018-.06.036-.121.052-.184a9.224,9.224,0,0,0,.243-1.567c.04-.493.121-.986.2-1.463s.161-.989.2-1.482c.008-.1.207-2.562,1.393-2.892.988-.275,1.786,1.082,2.127,1.662.018.031.063.089.107.145a1.312,1.312,0,0,1,.208.318,1.01,1.01,0,0,1,.035.434.857.857,0,0,0,0,.238.49.49,0,0,0,.076.157.747.747,0,0,1,.111.24,1.473,1.473,0,0,1,.024.358c0,.036,0,.072,0,.107a3.474,3.474,0,0,0,.746-1.459l.024-.068a11.5,11.5,0,0,1,1.49-2.953c.078-.109.166-.25.258-.4.351-.569.789-1.277,1.382-1.327a1.116,1.116,0,0,1,.506.065,1.515,1.515,0,0,1,1.1-.253l.121.019.03.118a1.777,1.777,0,0,1-.073.781,3.767,3.767,0,0,1,2.337-.507.783.783,0,0,1,.511.488c.248.686-.274,1.745-1.551,3.147-.105.116-.214.233-.326.35q.372-.05.794-.088l.145-.014a2.909,2.909,0,0,1,1.892.232,1.072,1.072,0,0,1,.441,1.112v.045a2.266,2.266,0,0,1-1.031,1.931,11.715,11.715,0,0,1-2.261,1.234c-.212.1-.413.188-.607.281-.262.125-.534.268-.823.419l-.155.081a5.965,5.965,0,0,1,1.689.13c.468.1,1.252.274,1.461.759a.736.736,0,0,1-.089.693,6.141,6.141,0,0,1-3.29,2.257,10.436,10.436,0,0,1-1.554.391l-.3.059a1.636,1.636,0,0,0-.318.083,4.361,4.361,0,0,0,1.289.077,6.611,6.611,0,0,1,1.028.016c.4.047,2.4.34,2.779,1.456.292.859-.537,2-1.033,2.684l-.111.153a11.129,11.129,0,0,1-.7.886,5.18,5.18,0,0,1,3.566.727,2.978,2.978,0,0,1,.691,1.929,9.418,9.418,0,0,1,.846-.713,6.657,6.657,0,0,1,4.942-1.275,3.877,3.877,0,0,1,2.761,1.5,3.085,3.085,0,0,1,.587,1.532,3.742,3.742,0,0,1,.47-.434c.28-.223.568-.441.847-.652.418-.317.85-.644,1.258-.989.377-.32.756-.651,1.123-.971.495-.433,1.007-.88,1.524-1.307a3.028,3.028,0,0,1,1.428-.759,2.459,2.459,0,0,1,2.7.985,4.188,4.188,0,0,1,.564,1.433q.024.094.048.188c.02.075.034.153.047.229a1.212,1.212,0,0,0,.112.39,3.94,3.94,0,0,0,.374-.862c.057-.166.115-.337.19-.521a7.828,7.828,0,0,1,1.1-1.912,12.247,12.247,0,0,1,4.04-3,1.979,1.979,0,0,1,1.842-.164c.588.271.639.692.7,1.178a11.272,11.272,0,0,1,.055,1.88c.056-.073.113-.144.169-.213.11-.137.214-.266.287-.378.3-.464.589-.951.866-1.421.242-.411.492-.837.754-1.247.218-.343.429-.7.652-1.082a10.558,10.558,0,0,1,2.961-3.678,1.6,1.6,0,0,1,1.345-.214,3.244,3.244,0,0,1,1.827,1.693,6.589,6.589,0,0,1,.472,2.007c.026.2.051.4.081.584.009.057.017.125.025.2s.023.2.043.309a6.641,6.641,0,0,0,.239-.885c.039-.178.08-.362.128-.537a13.183,13.183,0,0,1,1.116-2.785c.814-1.518,1.929-3.6,3.648-4.6a2.2,2.2,0,0,1,2.051-.3c.679.309.624.949.583,1.416a4.486,4.486,0,0,1-.4,1.382c.371-.384.777-.749,1.171-1.1.183-.165.372-.335.552-.5.434-.4.889-.795,1.329-1.173.544-.468,1.107-.951,1.629-1.458.119-.115.237-.232.355-.35a10.286,10.286,0,0,1,1.8-1.527c.183-.113,1.122-.66,1.616-.37a.613.613,0,0,1,.271.61,2.4,2.4,0,0,1-.17.668,3.291,3.291,0,0,0-.116.366,4.2,4.2,0,0,0-.128,1.173,3.575,3.575,0,0,0,.58-.462c.116-.106.226-.207.334-.29.814-.628,1.667-1.24,2.492-1.831q.534-.383,1.065-.767.3-.215.593-.427a24.933,24.933,0,0,0,2.425-1.893c.24-.222.481-.469.714-.707a9.34,9.34,0,0,1,1.692-1.477,1.515,1.515,0,0,1,1.985.169,1.773,1.773,0,0,1,.489,1.559,4.425,4.425,0,0,1-.777,2.061c-.037.062-.083.148-.137.248-.075.137-.157.29-.247.443l1.7-.661c1.7-.657,3.073-1.146,4.338-1.542a7.445,7.445,0,0,1,3.392-.425c.895.127,1.362.337,1.476.662.235.669-.68,1.4-.689,1.412a6.036,6.036,0,0,1-2.769,1,13.128,13.128,0,0,1-2.757-.063c-.294-.028-.6-.056-.894-.077-.08-.006-.187-.02-.311-.037a5.855,5.855,0,0,0-.749-.068,4.536,4.536,0,0,0,.655.331c.086.038.169.074.244.11l.057.027a11.7,11.7,0,0,1,2.375,1.364l.065.052c.5.4,1.324,1.061,1.28,1.724a1.1,1.1,0,0,1-.62.895l-.06.042c-1.381.972-3.484.7-5.174.473-.216-.028-.423-.056-.619-.079a14.042,14.042,0,0,1-1.672-.333c-.165-.04-.332-.08-.5-.119-.08-.018-.158-.041-.234-.064s-.126-.037-.185-.052c.075.048.153.095.232.143a4.413,4.413,0,0,1,.521.348c.734.6,1.438,1.207,2.216,1.882a1.388,1.388,0,0,1,.539,1.4,2.247,2.247,0,0,1-1.6,1.5,12.929,12.929,0,0,1-3.048.411,34.371,34.371,0,0,1-4.318-.051c-.48-.042-.963-.108-1.431-.172-.4-.055-.817-.111-1.225-.152l-.154-.017a6.741,6.741,0,0,0-1.02-.059,4.667,4.667,0,0,0,.53.293,2.08,2.08,0,0,1,1.26,1.241c.422,1.261-.749,2.053-1.524,2.577a13.7,13.7,0,0,1-2.856,1.389l-.01,0a19.723,19.723,0,0,0-2.291.895c-.624.276-1.25.551-1.865.82l-.024.009a7.984,7.984,0,0,1-2.187.27h0c-.111,0-.236-.009-.369-.019-.159-.012-.33-.025-.489-.022a1.224,1.224,0,0,1,.338.412,1.306,1.306,0,0,1,.054.655c-.007.077-.014.151-.014.217v.117c-.007,1.366-.011,2.352-1.345,3.284a11.436,11.436,0,0,1-4.025,1.937,11.931,11.931,0,0,1-4.2.06c-.69-.09-1.394-.2-2.074-.316a33.871,33.871,0,0,0-3.992-.49c.087.058.176.115.243.158a3.189,3.189,0,0,1,.463.33,4.879,4.879,0,0,1,.856,1.065,1.307,1.307,0,0,1,.131,1.082,2.733,2.733,0,0,1-1.657,1.386,10.423,10.423,0,0,1-2.632.587c-.254.034-.493.067-.72.1a15.824,15.824,0,0,1-2.748.189c-.045,0-.16.007-.294.017l-.382.024a1.134,1.134,0,0,1,.472.7,2.457,2.457,0,0,1-.736,2.172,6.358,6.358,0,0,1-1.816,1.365l-.268.135a7.554,7.554,0,0,1-2.225.842,20.165,20.165,0,0,1-2.737.2,30.681,30.681,0,0,1-4.494-.123c-1.014-.119-1.666-.426-1.786-1.588a2.5,2.5,0,0,1,.215-1.193c.025-.068.05-.136.074-.205a3.678,3.678,0,0,0-.652.619l-.072.08c-.287.318-.567.654-.838.979-.359.431-.731.876-1.128,1.292a36.706,36.706,0,0,1-2.679,2.585l-.015.012c-.55.377-1.1.775-1.623,1.183l-.014.01-.67.429-.026.007c-.786.229-1.6-.342-2.425-1.7a7.565,7.565,0,0,1-.8-2.158c-.021-.084-.038-.171-.056-.264a1.915,1.915,0,0,0-.171-.579,4.263,4.263,0,0,0-.214,1.171c-.016.182-.032.354-.056.489-.179,1.018-.433,2.044-.679,3.036-.119.481-.242.978-.354,1.465a19.982,19.982,0,0,1-1.381,4.081c-.461.961-1.038,1.2-1.5,1.2M89.972,97.053l.08.2a3.352,3.352,0,0,1-.007,1.724c-.029.17-.057.33-.074.473-.052.443-.116.9-.178,1.339a25.643,25.643,0,0,0-.3,2.986,9.642,9.642,0,0,0,.58,3.123c.113.372.231.757.335,1.16.228.877.674,1.37,1.329,1.466.528.078.957-.243,1.311-.979a19.619,19.619,0,0,0,1.354-4c.113-.49.236-.989.355-1.471.244-.986.5-2.007.673-3.012.021-.119.036-.284.052-.458a3.049,3.049,0,0,1,.41-1.564l.11-.13.139.1a1.446,1.446,0,0,1,.457.967c.017.087.032.169.051.243a7.26,7.26,0,0,0,.76,2.057c.493.812,1.235,1.733,1.981,1.54l.617-.395c.528-.409,1.075-.808,1.626-1.186a36.463,36.463,0,0,0,2.644-2.552c.389-.406.756-.847,1.112-1.273.273-.328.556-.666.848-.99l.071-.079a2.625,2.625,0,0,1,1.166-.886l.288-.077-.06.292a4.25,4.25,0,0,1-.195.631,2.17,2.17,0,0,0-.194,1.027c.1.93.567,1.154,1.461,1.259a30.353,30.353,0,0,0,4.441.121,19.91,19.91,0,0,0,2.687-.2,7.265,7.265,0,0,0,2.118-.807l.269-.136c.952-.476,2.67-1.741,2.357-3.125-.1-.455-.481-.6-.925-.761a2.455,2.455,0,0,1-1.465-.294.441.441,0,0,1-.154-.315l0-.12.107-.053c.337-.166.787.054,1.149.231.1.049.193.094.261.12l.168.061c.443,0,.88-.032,1.108-.047.159-.011.266-.017.323-.018a15.4,15.4,0,0,0,2.687-.185c.231-.037.472-.069.728-.1a10.174,10.174,0,0,0,2.535-.56c.823-.358,1.313-.751,1.455-1.167a.942.942,0,0,0-.106-.785,4.538,4.538,0,0,0-.792-.981,3.25,3.25,0,0,0-.4-.282c-.4-.258-.652-.426-.7-.618l-.065-.236.245,0a30.332,30.332,0,0,1,4.533.508c.678.111,1.378.225,2.063.314a11.6,11.6,0,0,0,4.074-.054,11.1,11.1,0,0,0,3.892-1.879c1.177-.823,1.181-1.682,1.187-2.984V84.12c0-.081.008-.166.015-.247a1.035,1.035,0,0,0-.023-.471,1.018,1.018,0,0,0-.283-.319,1.676,1.676,0,0,1-.264-.265l-.154-.209.248-.077a2.75,2.75,0,0,1,.969-.039c.125.009.244.018.341.018h0a7.638,7.638,0,0,0,2.075-.253c.611-.266,1.232-.539,1.848-.812a20.069,20.069,0,0,1,2.326-.909,13.364,13.364,0,0,0,2.776-1.348c.938-.634,1.689-1.234,1.381-2.154a1.736,1.736,0,0,0-1.074-1.027,3.249,3.249,0,0,1-.921-.6l-.2-.2.264-.1a4,4,0,0,1,1.552-.025l.15.016c.415.042.833.1,1.238.154.463.063.942.128,1.413.17a34.024,34.024,0,0,0,4.27.05,12.6,12.6,0,0,0,2.962-.4,1.869,1.869,0,0,0,1.337-1.221,1.041,1.041,0,0,0-.421-1.042c-.776-.673-1.478-1.279-2.208-1.875a4.083,4.083,0,0,0-.478-.318,3.216,3.216,0,0,1-.686-.5l-.189-.2.253-.1a1.267,1.267,0,0,1,.869.037c.074.022.143.042.212.058.17.039.337.08.5.12a13.577,13.577,0,0,0,1.628.325c.2.023.406.051.624.079,1.627.214,3.651.479,4.914-.409l.061-.043c.3-.213.443-.31.464-.617.031-.471-.762-1.106-1.143-1.411l-.066-.053a11.414,11.414,0,0,0-2.3-1.318l-.057-.027c-.072-.034-.152-.069-.234-.106a2.991,2.991,0,0,1-1.043-.643l-.131-.149.159-.12a2.061,2.061,0,0,1,1.309-.055c.118.016.219.03.287.035.3.021.606.05.9.078a12.86,12.86,0,0,0,2.68.064,5.653,5.653,0,0,0,2.582-.919c.251-.2.677-.7.57-1-.016-.044-.145-.272-1.172-.418a7.116,7.116,0,0,0-3.238.411c-1.256.393-2.627.88-4.315,1.534l-1.929.749-.022.009-.023,0a.821.821,0,0,0-.186.042,1.444,1.444,0,0,1-.376.358l-.519.307.259-.545a.886.886,0,0,1,.4-.416,7.66,7.66,0,0,0,.484-.808c.056-.1.1-.192.145-.26a4.068,4.068,0,0,0,.726-1.894,1.4,1.4,0,0,0-.368-1.263,1.153,1.153,0,0,0-1.542-.129,9.065,9.065,0,0,0-1.622,1.421c-.236.242-.48.492-.728.721a25.2,25.2,0,0,1-2.46,1.921q-.3.212-.591.425-.531.385-1.067.768c-.822.589-1.673,1.2-2.481,1.823-.1.074-.2.169-.311.27a2.5,2.5,0,0,1-.938.633l-.2.051-.033-.2a4.028,4.028,0,0,1,.105-1.548,3.608,3.608,0,0,1,.128-.41,2.152,2.152,0,0,0,.149-.56c.006-.145-.024-.238-.089-.276-.2-.12-.788.092-1.235.366a10.016,10.016,0,0,0-1.731,1.475c-.119.118-.238.236-.358.352-.53.514-1.1,1-1.645,1.473-.437.376-.89.765-1.319,1.164-.182.169-.373.341-.557.507-.46.414-.935.842-1.346,1.292a2.028,2.028,0,0,0-.292.442,2.326,2.326,0,0,1-.286.443l-.472.549.151-.708a6.22,6.22,0,0,1,.415-1.168,4.613,4.613,0,0,0,.445-1.434c.046-.527.044-.86-.368-1.048a1.864,1.864,0,0,0-1.711.287c-1.629.955-2.715,2.981-3.509,4.46a12.821,12.821,0,0,0-1.085,2.708c-.046.166-.083.338-.124.519a4.737,4.737,0,0,1-.442,1.344l-.112.2-.17-.149a1.36,1.36,0,0,1-.285-.854c-.007-.067-.014-.129-.023-.181-.031-.193-.056-.388-.082-.6a6.323,6.323,0,0,0-.439-1.895,2.859,2.859,0,0,0-1.593-1.5,1.227,1.227,0,0,0-1.043.166,10.294,10.294,0,0,0-2.846,3.557c-.225.383-.437.745-.659,1.093-.258.405-.506.828-.747,1.237-.279.475-.568.965-.875,1.436-.083.127-.192.263-.309.408a2.478,2.478,0,0,0-.543.88l-.365-.059a10.929,10.929,0,0,0,.029-2.675c-.06-.487-.1-.71-.487-.888a1.591,1.591,0,0,0-1.517.157,12.074,12.074,0,0,0-3.921,2.9,7.447,7.447,0,0,0-1.044,1.82c-.071.174-.128.341-.183.5a3.767,3.767,0,0,1-.541,1.129l-.093.124-.138-.07a.943.943,0,0,1-.426-.766c-.013-.072-.025-.14-.041-.2s-.033-.126-.049-.19a3.91,3.91,0,0,0-.507-1.311,2.085,2.085,0,0,0-2.313-.838,2.686,2.686,0,0,0-1.274.684c-.513.423-1.023.869-1.516,1.3-.368.321-.748.654-1.127.975-.415.352-.852.682-1.274,1-.277.21-.563.427-.84.647a2.146,2.146,0,0,0-.706.838q-.02.175-.057.352l-.323,1.525-.042-1.559a1.18,1.18,0,0,1,.06-.4,2.748,2.748,0,0,0-.517-1.925,3.509,3.509,0,0,0-2.5-1.354,6.227,6.227,0,0,0-4.683,1.2,8.622,8.622,0,0,0-1.065.932c0,.022,0,.044,0,.065a3.128,3.128,0,0,1-.923,2.274l-.189.144-.093-.218c-.347-.811.2-1.711.844-2.412a2.9,2.9,0,0,0-.586-2.034,5.067,5.067,0,0,0-3.592-.569c-.05.011-.1.023-.156.037a3.889,3.889,0,0,1-1,.722l-.418.195.168-.429A1.516,1.516,0,0,1,94.5,84.1a9.639,9.639,0,0,0,1.029-1.23l.112-.155c.424-.584,1.212-1.67.982-2.348-.239-.7-1.482-1.09-2.473-1.208a6.348,6.348,0,0,0-.971-.014,3.865,3.865,0,0,1-1.72-.2l-.18-.077.087-.175a.938.938,0,0,1,.758-.439l.3-.059a10,10,0,0,0,1.5-.376,5.631,5.631,0,0,0,3.1-2.1c.128-.212.081-.321.066-.356-.134-.311-.854-.469-1.2-.544A5.706,5.706,0,0,0,93.1,74.9a5.87,5.87,0,0,1-.959.326l-.112-.351a8.467,8.467,0,0,1,.95-.326c.426-.184.858-.411,1.282-.633.292-.153.568-.3.836-.426.2-.094.4-.186.612-.283A11.451,11.451,0,0,0,97.9,72.013a1.886,1.886,0,0,0,.886-1.646v-.045c.01-.45.013-.586-.289-.8a2.681,2.681,0,0,0-1.64-.163l-.147.014c-.266.024-.76.076-1.278.168a3.651,3.651,0,0,1-1.606,1,5.92,5.92,0,0,0-.247.789,2.966,2.966,0,0,1-1.2,1.87,2.044,2.044,0,0,1-1.475.471L90.9,73.3a1.7,1.7,0,0,0,1.263-.4,2.62,2.62,0,0,0,1.054-1.654,5.9,5.9,0,0,1,.209-.7q-.037-.006-.073-.014l-.169-.039.028-.171a1,1,0,0,1,.57-.666,4.867,4.867,0,0,0,.464-1.839c0-.128.006-.258.01-.39,0-.091.006-.182.008-.274a4.031,4.031,0,0,1-.4.577,1.048,1.048,0,0,1-.828.476l-.131-.011-.033-.128c-.179-.7.73-1.536,1.295-1.975a1.728,1.728,0,0,0-.058-.168,1.3,1.3,0,0,0-.349-.539,5.248,5.248,0,0,0-.781.893c-.078.1-.165.217-.256.335a6.279,6.279,0,0,0-.908,1.406l.053,0,.016.369-.552.024.05-.234a5.152,5.152,0,0,1,1.048-1.789c.09-.115.175-.225.251-.328a6.47,6.47,0,0,1,.679-.814.947.947,0,0,0-.106,0c-.407.034-.807.681-1.1,1.153-.1.155-.186.3-.272.421a11.154,11.154,0,0,0-1.442,2.863l-.024.066c-.327.925-.737,1.857-1.289,1.745l-.114-.023-.028-.113a1.445,1.445,0,0,1-.03-.386,1.176,1.176,0,0,0-.016-.271.438.438,0,0,0-.063-.124.819.819,0,0,1-.125-.279,1.18,1.18,0,0,1-.009-.341.688.688,0,0,0-.015-.284,1.661,1.661,0,0,0-.151-.213,1.947,1.947,0,0,1-.133-.184c-.272-.463-1-1.692-1.71-1.493-.692.192-1.056,1.674-1.123,2.563-.038.51-.122,1.02-.2,1.514-.077.47-.156.956-.195,1.434a9.576,9.576,0,0,1-.254,1.629c-.017.067-.037.133-.056.2a1.136,1.136,0,0,0-.071.592l.169.74-.49-.58c-.208-.245-1.447-.1-1.762.105a5.319,5.319,0,0,0-1.425,1.9c-.132.24-.256.466-.381.668l-.149.241a7.79,7.79,0,0,0-1.152,2.423,9.375,9.375,0,0,0-.109,2.1c.006.248.011.5.01.756,0,.116-.006.235-.012.362a1.9,1.9,0,0,0,.243,1.351,1.36,1.36,0,0,0,.971.3h.017a2.244,2.244,0,0,0,.711-.116.636.636,0,0,1,.581-.32l.359.032-.235.273a1.247,1.247,0,0,1-.461.318c-.049.082-.1.18-.148.286a2.055,2.055,0,0,1-.225.4,2.754,2.754,0,0,1-.3.3,1.465,1.465,0,0,0-.358.419,6.115,6.115,0,0,0-.31.781l-.06.173a12.613,12.613,0,0,0-.58,2.978q-.022.2-.045.4a6.432,6.432,0,0,0,.035,2.35A3.006,3.006,0,0,0,81.519,96.6c.519.272.668.108,1.11-.379l.011-.012c.1-.109.2-.212.291-.313a4.7,4.7,0,0,0,.981-1.326l.273-.6.078.658a2.553,2.553,0,0,1-.622,1.469,5.146,5.146,0,0,0-.295.47,17.508,17.508,0,0,0-1.469,4.029c-.111.5-.192,1.027-.269,1.534-.059.388-.121.789-.2,1.18a4.48,4.48,0,0,0-.121,1.276c.058.534.244.61.9.612h0a3.713,3.713,0,0,0,2.031-.872l.111-.076a12.234,12.234,0,0,0,2.6-2.315,20.848,20.848,0,0,0,1.45-2.142c.248-.4.5-.815.771-1.213a2.185,2.185,0,0,0,.357-.707,1.063,1.063,0,0,0,.025-.231.484.484,0,0,1,.24-.47Zm8.991-9.423a2.057,2.057,0,0,0-.52,1.346,2.921,2.921,0,0,0,.52-1.346M94.077,69.912l-.032.076L94,70.1a2.984,2.984,0,0,0,.66-.392,3.842,3.842,0,0,0-.582.205m.538-3.457a7.035,7.035,0,0,1,.012.984c0,.129-.009.256-.01.381a4.628,4.628,0,0,1-.351,1.623,6.8,6.8,0,0,1,1-.256c.288-.275.529-.54.672-.7,1.544-1.7,1.588-2.466,1.477-2.774a.41.41,0,0,0-.279-.263,4.027,4.027,0,0,0-2.351.652l-.035.024c-.04.108-.084.216-.13.325m-.462.129a2.6,2.6,0,0,0-.924,1.217,1.21,1.21,0,0,0,.359-.31,4.406,4.406,0,0,0,.565-.907m-.073-1.412a1.818,1.818,0,0,1,.376.614l.01.026a2.953,2.953,0,0,0,.17-.769,1.112,1.112,0,0,0-.557.129" transform="translate(-70.323 -54.028)" fill="#1a1311"/>
    <path id="패스_23288" data-name="패스 23288" d="M160.449,58.371a1.579,1.579,0,0,1,1.069.461,1.773,1.773,0,0,1,.489,1.559,4.426,4.426,0,0,1-.777,2.061c-.037.062-.083.148-.137.248-.075.137-.157.29-.247.443l1.7-.661c1.7-.657,3.073-1.146,4.338-1.542a8.637,8.637,0,0,1,2.6-.481,5.605,5.605,0,0,1,.792.056c.895.127,1.361.337,1.476.662.235.669-.68,1.4-.689,1.412a6.038,6.038,0,0,1-2.769,1,7.929,7.929,0,0,1-.925.051c-.616,0-1.231-.058-1.832-.114-.294-.028-.6-.056-.894-.077-.08-.006-.187-.02-.311-.037a6,6,0,0,0-.737-.068h-.012a4.541,4.541,0,0,0,.655.331c.086.038.169.074.244.11l.057.027a11.693,11.693,0,0,1,2.375,1.364l.065.053c.5.4,1.324,1.061,1.28,1.724a1.1,1.1,0,0,1-.62.895l-.06.042a4.654,4.654,0,0,1-2.708.688,19.176,19.176,0,0,1-2.466-.214c-.216-.028-.423-.056-.619-.079a14.065,14.065,0,0,1-1.672-.333c-.165-.04-.332-.08-.5-.119-.08-.019-.158-.042-.234-.064s-.126-.037-.185-.052c.075.048.153.095.232.143a4.416,4.416,0,0,1,.521.348c.734.6,1.438,1.207,2.216,1.882a1.388,1.388,0,0,1,.54,1.4,2.247,2.247,0,0,1-1.6,1.5,12.934,12.934,0,0,1-3.048.411q-1.014.042-1.913.042c-.894,0-1.7-.031-2.405-.093-.48-.042-.963-.108-1.431-.172-.4-.055-.817-.111-1.225-.152L150.935,73a8.062,8.062,0,0,0-.863-.063c-.054,0-.106,0-.156,0a4.665,4.665,0,0,0,.53.293,2.08,2.08,0,0,1,1.26,1.241c.422,1.261-.749,2.053-1.524,2.577a13.694,13.694,0,0,1-2.856,1.389l-.01,0a19.743,19.743,0,0,0-2.291.895c-.623.276-1.25.551-1.865.82l-.024.009a7.979,7.979,0,0,1-2.187.27h0c-.111,0-.236-.009-.369-.019s-.294-.022-.439-.022h-.051a1.224,1.224,0,0,1,.338.412,1.306,1.306,0,0,1,.054.655c-.007.077-.013.151-.014.217V81.8c-.007,1.366-.012,2.352-1.345,3.284a11.436,11.436,0,0,1-4.025,1.937,9.811,9.811,0,0,1-2.1.218,16.149,16.149,0,0,1-2.1-.158c-.69-.09-1.394-.2-2.074-.316a33.851,33.851,0,0,0-3.992-.49c.087.058.176.115.243.158a3.183,3.183,0,0,1,.463.33,4.877,4.877,0,0,1,.856,1.065,1.307,1.307,0,0,1,.131,1.082,2.733,2.733,0,0,1-1.657,1.386,10.417,10.417,0,0,1-2.632.587c-.254.034-.493.067-.72.1a15.528,15.528,0,0,1-2.549.19h-.216c-.053,0-.158.009-.278.017l-.381.024a1.134,1.134,0,0,1,.472.7,2.457,2.457,0,0,1-.736,2.172,6.355,6.355,0,0,1-1.816,1.365l-.268.135a7.551,7.551,0,0,1-2.225.842,20.165,20.165,0,0,1-2.737.2c-.563.016-1.1.026-1.609.026a24.414,24.414,0,0,1-2.885-.149c-1.013-.119-1.666-.426-1.786-1.588a2.5,2.5,0,0,1,.215-1.193c.025-.067.05-.136.074-.205a3.676,3.676,0,0,0-.652.619l-.072.08c-.287.318-.567.654-.838.979-.359.431-.731.876-1.128,1.292a36.737,36.737,0,0,1-2.679,2.585l-.015.012c-.55.377-1.1.775-1.623,1.183l-.014.01-.67.429-.025.007a1.213,1.213,0,0,1-.34.049c-.68,0-1.38-.585-2.085-1.745a7.566,7.566,0,0,1-.8-2.158c-.021-.084-.038-.171-.056-.264a1.915,1.915,0,0,0-.171-.579,4.263,4.263,0,0,0-.214,1.171c-.016.182-.032.354-.056.489-.179,1.018-.433,2.044-.679,3.036-.119.481-.242.978-.354,1.465a19.986,19.986,0,0,1-1.381,4.081c-.461.961-1.038,1.2-1.5,1.2a1.372,1.372,0,0,1-.2-.015A2.054,2.054,0,0,1,87.6,105.71c-.1-.395-.219-.776-.331-1.145a9.93,9.93,0,0,1-.6-3.238,25.9,25.9,0,0,1,.306-3.03c.062-.438.126-.891.177-1.33.018-.153.046-.319.077-.493.037-.216.077-.445.1-.667a3.475,3.475,0,0,1-.31.53c-.263.392-.517.8-.763,1.2a21.123,21.123,0,0,1-1.477,2.18,12.615,12.615,0,0,1-2.68,2.389l-.111.075a4.04,4.04,0,0,1-2.239.936h0c-.64,0-1.178-.073-1.271-.942a4.83,4.83,0,0,1,.126-1.386c.074-.384.135-.782.194-1.166.079-.513.16-1.044.274-1.558a17.878,17.878,0,0,1,1.5-4.116c.021-.041.045-.085.072-.13-.058.062-.117.125-.176.191l-.011.012c-.318.35-.575.632-.963.632a1.287,1.287,0,0,1-.591-.174,3.374,3.374,0,0,1-1.976-2.5,6.806,6.806,0,0,1-.041-2.468q.023-.2.045-.4a12.9,12.9,0,0,1,.6-3.06l.059-.171a6.386,6.386,0,0,1,.33-.829,1.8,1.8,0,0,1,.438-.524,2.438,2.438,0,0,0,.261-.263,1.766,1.766,0,0,0,.172-.309,2.811,2.811,0,0,1-.464.042h-.011a1.677,1.677,0,0,1-1.256-.424,2.181,2.181,0,0,1-.335-1.614c.006-.122.011-.238.012-.346,0-.246,0-.5-.01-.746a9.652,9.652,0,0,1,.117-2.183,8.062,8.062,0,0,1,1.2-2.543l.149-.239c.12-.194.242-.416.371-.651a5.555,5.555,0,0,1,1.549-2.035,3.281,3.281,0,0,1,1.388-.292,1.908,1.908,0,0,1,.515.061,2.325,2.325,0,0,1,.1-.421c.018-.06.036-.121.052-.184a9.215,9.215,0,0,0,.243-1.567c.04-.493.121-.986.2-1.463s.161-.989.2-1.482c.008-.1.207-2.562,1.393-2.892a.975.975,0,0,1,.262-.036c.866,0,1.554,1.171,1.865,1.7.018.031.063.089.107.145a1.313,1.313,0,0,1,.208.318,1.01,1.01,0,0,1,.035.434.853.853,0,0,0,0,.238.488.488,0,0,0,.076.157.743.743,0,0,1,.111.24,1.48,1.48,0,0,1,.025.358c0,.036,0,.072,0,.107a3.476,3.476,0,0,0,.746-1.459l.024-.068a11.5,11.5,0,0,1,1.49-2.953c.078-.109.166-.25.258-.4.351-.569.789-1.277,1.382-1.327.039,0,.077,0,.114,0a1.068,1.068,0,0,1,.392.07,1.548,1.548,0,0,1,.86-.272,1.519,1.519,0,0,1,.238.019l.121.019.03.118a1.779,1.779,0,0,1-.074.781,4.854,4.854,0,0,1,1.918-.566,1.339,1.339,0,0,1,.418.06.783.783,0,0,1,.511.488c.248.686-.274,1.745-1.551,3.147-.105.116-.214.233-.326.35q.372-.05.794-.088l.145-.013c.232-.022.5-.048.766-.048a1.917,1.917,0,0,1,1.126.28,1.072,1.072,0,0,1,.441,1.112v.045a2.266,2.266,0,0,1-1.03,1.931A11.719,11.719,0,0,1,93.418,71.1c-.212.1-.412.188-.607.281-.262.125-.534.268-.823.419l-.155.081q.2-.013.392-.013a6.027,6.027,0,0,1,1.3.143c.468.1,1.252.274,1.461.759a.736.736,0,0,1-.089.693,6.14,6.14,0,0,1-3.29,2.257,10.433,10.433,0,0,1-1.554.391l-.3.06a1.622,1.622,0,0,0-.318.083,3.133,3.133,0,0,0,.814.089c.156,0,.314-.006.475-.012s.326-.012.491-.012a4.524,4.524,0,0,1,.537.028c.4.047,2.4.34,2.779,1.456.292.859-.537,2-1.032,2.684l-.111.153a11.126,11.126,0,0,1-.7.886,5.747,5.747,0,0,1,.728-.044,4.641,4.641,0,0,1,2.838.772,2.978,2.978,0,0,1,.691,1.929,9.437,9.437,0,0,1,.846-.713,6.449,6.449,0,0,1,4.017-1.324,9,9,0,0,1,.925.049,3.877,3.877,0,0,1,2.761,1.5,3.086,3.086,0,0,1,.588,1.532,3.717,3.717,0,0,1,.469-.434c.28-.223.568-.441.847-.652.418-.317.85-.644,1.258-.989.377-.32.756-.651,1.123-.971.495-.433,1.007-.88,1.524-1.307a3.03,3.03,0,0,1,1.428-.759,3.116,3.116,0,0,1,.68-.078,2.392,2.392,0,0,1,2.016,1.063,4.188,4.188,0,0,1,.564,1.433q.024.094.048.188c.02.075.034.153.047.229a1.214,1.214,0,0,0,.112.39,3.94,3.94,0,0,0,.374-.862c.057-.166.115-.337.19-.521a7.826,7.826,0,0,1,1.1-1.912,12.244,12.244,0,0,1,4.04-3,2.447,2.447,0,0,1,1.122-.327,1.7,1.7,0,0,1,.72.163c.588.271.639.692.7,1.178a11.274,11.274,0,0,1,.055,1.88c.056-.073.113-.143.169-.213.11-.137.214-.266.287-.378.3-.464.589-.951.866-1.421.242-.411.492-.837.754-1.247.218-.343.429-.7.653-1.082a10.56,10.56,0,0,1,2.961-3.678,1.611,1.611,0,0,1,.9-.276,1.68,1.68,0,0,1,.45.063,3.244,3.244,0,0,1,1.827,1.693,6.59,6.59,0,0,1,.472,2.007c.026.2.051.4.081.584.009.057.017.125.025.2s.023.2.043.309a6.63,6.63,0,0,0,.239-.885c.039-.178.08-.362.128-.537a13.188,13.188,0,0,1,1.116-2.785c.814-1.518,1.93-3.6,3.648-4.6a2.8,2.8,0,0,1,1.39-.445,1.579,1.579,0,0,1,.661.14c.679.309.624.949.583,1.416a4.483,4.483,0,0,1-.4,1.382c.371-.384.777-.749,1.171-1.1.183-.165.372-.335.552-.5.434-.4.889-.795,1.329-1.173.544-.468,1.107-.951,1.629-1.458.119-.115.237-.232.355-.35a10.285,10.285,0,0,1,1.8-1.527,2.931,2.931,0,0,1,1.266-.454.682.682,0,0,1,.349.084.613.613,0,0,1,.271.61,2.4,2.4,0,0,1-.17.668,3.283,3.283,0,0,0-.116.366,4.2,4.2,0,0,0-.128,1.173,3.58,3.58,0,0,0,.58-.462c.116-.106.226-.207.334-.29.814-.628,1.667-1.24,2.492-1.831q.534-.383,1.065-.767.3-.215.593-.427a24.9,24.9,0,0,0,2.425-1.893c.24-.222.481-.469.714-.707a9.338,9.338,0,0,1,1.692-1.477,1.738,1.738,0,0,1,.916-.292M149.334,67.01l-.033-.2a4.028,4.028,0,0,1,.106-1.548,3.563,3.563,0,0,1,.128-.41,2.152,2.152,0,0,0,.149-.56c.006-.145-.024-.238-.089-.276a.319.319,0,0,0-.16-.034,2.515,2.515,0,0,0-1.075.4,10.022,10.022,0,0,0-1.731,1.475c-.119.118-.238.236-.358.352-.53.514-1.1,1-1.645,1.473-.437.376-.89.765-1.319,1.164-.182.169-.373.341-.557.507-.46.414-.935.842-1.345,1.292a2.025,2.025,0,0,0-.292.442,2.328,2.328,0,0,1-.286.443l-.472.549.151-.708a6.23,6.23,0,0,1,.415-1.168,4.61,4.61,0,0,0,.445-1.434c.046-.527.044-.86-.368-1.048a1.215,1.215,0,0,0-.509-.106,2.442,2.442,0,0,0-1.2.394c-1.629.955-2.715,2.981-3.509,4.46a12.826,12.826,0,0,0-1.085,2.708c-.046.166-.083.338-.124.519a4.738,4.738,0,0,1-.442,1.344l-.112.2-.17-.149a1.36,1.36,0,0,1-.285-.854c-.007-.067-.014-.128-.023-.181-.031-.193-.056-.388-.082-.6a6.323,6.323,0,0,0-.439-1.895,2.859,2.859,0,0,0-1.593-1.5,1.32,1.32,0,0,0-.353-.05,1.237,1.237,0,0,0-.69.216,10.3,10.3,0,0,0-2.846,3.557c-.225.383-.438.745-.659,1.093-.258.405-.506.828-.747,1.237-.279.475-.568.965-.875,1.436-.083.127-.193.264-.309.408a2.478,2.478,0,0,0-.543.88l-.365-.059a10.928,10.928,0,0,0,.029-2.674c-.06-.487-.1-.71-.487-.888a1.311,1.311,0,0,0-.56-.129,2.1,2.1,0,0,0-.957.286,12.074,12.074,0,0,0-3.921,2.9A7.448,7.448,0,0,0,117.1,82.1c-.071.174-.128.341-.183.5a3.764,3.764,0,0,1-.541,1.129l-.093.124-.138-.07a.943.943,0,0,1-.426-.766c-.013-.072-.025-.14-.041-.2l-.049-.19a3.91,3.91,0,0,0-.507-1.311,2.016,2.016,0,0,0-1.709-.908,2.766,2.766,0,0,0-.6.07,2.686,2.686,0,0,0-1.274.684c-.513.423-1.023.869-1.516,1.3-.368.321-.748.654-1.127.975-.415.352-.852.682-1.274,1-.277.21-.563.427-.84.647a2.147,2.147,0,0,0-.706.838q-.02.175-.057.352l-.323,1.525-.042-1.558a1.18,1.18,0,0,1,.06-.4,2.748,2.748,0,0,0-.517-1.925,3.508,3.508,0,0,0-2.5-1.354,8.864,8.864,0,0,0-.91-.049,6.006,6.006,0,0,0-3.773,1.252,8.6,8.6,0,0,0-1.065.932c0,.022,0,.044,0,.065a3.128,3.128,0,0,1-.923,2.274l-.189.144-.093-.218c-.347-.811.2-1.711.844-2.412a2.9,2.9,0,0,0-.586-2.034,4.435,4.435,0,0,0-2.588-.667,4.832,4.832,0,0,0-1,.1c-.05.011-.1.023-.156.037a3.887,3.887,0,0,1-1,.722l-.418.195.168-.429a1.516,1.516,0,0,1,1.06-.818,9.622,9.622,0,0,0,1.029-1.23l.112-.155c.424-.584,1.213-1.67.982-2.348-.239-.7-1.482-1.09-2.473-1.208a4.2,4.2,0,0,0-.495-.026c-.159,0-.319.006-.476.011s-.322.012-.484.012a3.063,3.063,0,0,1-1.236-.212l-.18-.077.087-.175a.939.939,0,0,1,.759-.439l.3-.059a10.011,10.011,0,0,0,1.5-.376,5.631,5.631,0,0,0,3.1-2.1c.128-.212.081-.321.066-.356-.134-.311-.854-.469-1.2-.544a5.658,5.658,0,0,0-1.216-.134,5.969,5.969,0,0,0-1.572.218,5.866,5.866,0,0,1-.959.327l-.112-.351a8.471,8.471,0,0,1,.95-.326c.426-.184.858-.411,1.282-.633.292-.153.568-.3.836-.426.2-.094.4-.186.613-.283a11.47,11.47,0,0,0,2.189-1.191,1.887,1.887,0,0,0,.886-1.646V67.88c.01-.45.013-.586-.289-.8a1.576,1.576,0,0,0-.906-.209c-.253,0-.511.025-.734.046l-.147.014c-.266.024-.76.076-1.278.168a3.649,3.649,0,0,1-1.606,1,5.937,5.937,0,0,0-.247.789,2.966,2.966,0,0,1-1.2,1.87,2.044,2.044,0,0,1-1.475.471l-.006-.369a1.7,1.7,0,0,0,1.263-.4A2.62,2.62,0,0,0,90.774,68.8a5.874,5.874,0,0,1,.209-.7l-.073-.014-.169-.039.028-.171a1,1,0,0,1,.57-.666,4.866,4.866,0,0,0,.464-1.839c0-.128.006-.258.01-.39,0-.091.006-.182.008-.274a4.032,4.032,0,0,1-.4.577,1.1,1.1,0,0,1-.781.478l-.047,0-.131-.011-.033-.128c-.179-.7.73-1.536,1.295-1.975a1.7,1.7,0,0,0-.058-.168,1.3,1.3,0,0,0-.349-.539,5.242,5.242,0,0,0-.781.893c-.078.1-.165.217-.256.335a6.273,6.273,0,0,0-.908,1.406l.053,0,.016.369-.552.024.05-.234a5.151,5.151,0,0,1,1.048-1.789c.09-.115.175-.225.251-.328a6.449,6.449,0,0,1,.679-.814H90.9c-.027,0-.055,0-.083,0-.407.034-.807.681-1.1,1.153-.1.155-.186.3-.272.421A11.154,11.154,0,0,0,88,67.242l-.023.066c-.309.874-.692,1.754-1.2,1.754a.45.45,0,0,1-.09-.009l-.114-.023-.028-.113a1.446,1.446,0,0,1-.03-.386,1.175,1.175,0,0,0-.016-.271.44.44,0,0,0-.063-.124.815.815,0,0,1-.125-.279,1.18,1.18,0,0,1-.009-.341.687.687,0,0,0-.015-.284,1.636,1.636,0,0,0-.151-.213,2,2,0,0,1-.133-.184c-.252-.429-.891-1.515-1.552-1.515a.589.589,0,0,0-.158.022c-.692.192-1.056,1.674-1.123,2.564-.038.51-.122,1.02-.2,1.514-.077.47-.156.956-.195,1.434a9.575,9.575,0,0,1-.254,1.628c-.017.068-.037.133-.056.2a1.136,1.136,0,0,0-.071.592l.169.74-.49-.58a.828.828,0,0,0-.557-.128,2.91,2.91,0,0,0-1.2.233,5.32,5.32,0,0,0-1.425,1.9c-.132.24-.256.466-.381.668l-.149.241a7.791,7.791,0,0,0-1.152,2.423,9.382,9.382,0,0,0-.109,2.1c.006.248.011.5.01.756,0,.116-.006.235-.012.362a1.9,1.9,0,0,0,.243,1.351,1.359,1.359,0,0,0,.972.3h.017a2.244,2.244,0,0,0,.711-.115.653.653,0,0,1,.528-.323l.053,0,.359.032-.235.273a1.245,1.245,0,0,1-.461.318c-.049.082-.1.18-.148.286a2.057,2.057,0,0,1-.225.4,2.753,2.753,0,0,1-.3.3,1.465,1.465,0,0,0-.358.419,6.123,6.123,0,0,0-.31.781c-.02.059-.04.116-.06.173a12.613,12.613,0,0,0-.58,2.978q-.022.2-.045.4a6.434,6.434,0,0,0,.035,2.35,3.006,3.006,0,0,0,1.786,2.244.917.917,0,0,0,.412.131c.235,0,.4-.182.7-.51l.011-.012c.1-.109.2-.213.291-.313a4.7,4.7,0,0,0,.981-1.326l.273-.6.078.658a2.554,2.554,0,0,1-.622,1.469,5.147,5.147,0,0,0-.295.47,17.505,17.505,0,0,0-1.469,4.029c-.111.5-.192,1.027-.269,1.534-.059.388-.121.789-.2,1.18a4.482,4.482,0,0,0-.121,1.276c.058.534.245.611.9.612h0a3.713,3.713,0,0,0,2.031-.872l.111-.076a12.235,12.235,0,0,0,2.6-2.315,20.847,20.847,0,0,0,1.45-2.142c.248-.4.5-.815.771-1.213a2.183,2.183,0,0,0,.357-.707,1.072,1.072,0,0,0,.025-.231.483.483,0,0,1,.24-.47l.187-.112.08.2a3.352,3.352,0,0,1-.007,1.724c-.029.17-.057.33-.074.473-.052.443-.116.9-.178,1.339a25.619,25.619,0,0,0-.3,2.986,9.645,9.645,0,0,0,.58,3.123c.113.372.231.757.335,1.16.228.877.674,1.37,1.329,1.466a1.036,1.036,0,0,0,.152.011c.46,0,.84-.326,1.159-.991a19.608,19.608,0,0,0,1.354-4c.113-.49.236-.989.355-1.471.244-.987.5-2.007.673-3.012.021-.119.036-.283.052-.458a3.05,3.05,0,0,1,.41-1.564l.11-.13.139.1a1.446,1.446,0,0,1,.457.967c.017.087.032.169.051.243a7.259,7.259,0,0,0,.76,2.057c.448.738,1.1,1.566,1.778,1.566a.808.808,0,0,0,.2-.026l.617-.395c.528-.409,1.075-.808,1.626-1.186a36.463,36.463,0,0,0,2.644-2.552c.389-.406.756-.847,1.112-1.273.273-.327.556-.666.848-.99l.071-.079a2.624,2.624,0,0,1,1.166-.885l.288-.077-.06.292a4.244,4.244,0,0,1-.195.631,2.171,2.171,0,0,0-.194,1.027c.1.93.567,1.154,1.461,1.259a24.072,24.072,0,0,0,2.842.146c.509,0,1.038-.01,1.6-.025a19.876,19.876,0,0,0,2.687-.2,7.266,7.266,0,0,0,2.118-.807l.269-.136c.952-.476,2.67-1.741,2.357-3.125-.1-.455-.481-.6-.925-.761a2.455,2.455,0,0,1-1.465-.294.441.441,0,0,1-.154-.315l0-.12.107-.053a.6.6,0,0,1,.27-.059,2.208,2.208,0,0,1,.879.29c.1.049.193.094.261.12l.169.061c.443,0,.88-.032,1.108-.047.159-.011.266-.017.323-.018h.209a15.092,15.092,0,0,0,2.478-.186c.231-.037.472-.069.728-.1a10.168,10.168,0,0,0,2.535-.56c.823-.358,1.313-.751,1.455-1.167a.942.942,0,0,0-.106-.785,4.541,4.541,0,0,0-.792-.981,3.24,3.24,0,0,0-.4-.282c-.4-.258-.652-.426-.7-.618l-.065-.236.245,0a30.331,30.331,0,0,1,4.533.508c.678.111,1.378.225,2.063.314a15.8,15.8,0,0,0,2.053.154,9.447,9.447,0,0,0,2.021-.209,11.1,11.1,0,0,0,3.892-1.879c1.177-.823,1.181-1.682,1.187-2.983v-.117c0-.081.008-.166.015-.247a1.035,1.035,0,0,0-.023-.471,1.017,1.017,0,0,0-.283-.32,1.671,1.671,0,0,1-.264-.265l-.154-.209.248-.077a1.717,1.717,0,0,1,.5-.062c.157,0,.317.012.467.023.125.009.244.018.341.018h0a7.642,7.642,0,0,0,2.075-.253c.611-.266,1.232-.54,1.848-.812a20.063,20.063,0,0,1,2.326-.909,13.367,13.367,0,0,0,2.777-1.348c.938-.634,1.689-1.234,1.381-2.154a1.736,1.736,0,0,0-1.074-1.027,3.246,3.246,0,0,1-.921-.6l-.2-.2.264-.1a1.923,1.923,0,0,1,.656-.09,8.215,8.215,0,0,1,.9.065l.15.016c.415.042.834.1,1.238.154.463.063.942.128,1.413.17.7.061,1.489.092,2.372.092q.89,0,1.9-.042a12.6,12.6,0,0,0,2.962-.4,1.868,1.868,0,0,0,1.337-1.221,1.041,1.041,0,0,0-.421-1.042c-.776-.673-1.478-1.279-2.208-1.875a4.1,4.1,0,0,0-.478-.318,3.216,3.216,0,0,1-.686-.5l-.189-.2.254-.1a.9.9,0,0,1,.338-.064,1.876,1.876,0,0,1,.531.1c.074.022.143.042.212.058.17.039.338.08.5.12a13.557,13.557,0,0,0,1.628.325c.2.023.406.051.624.079a18.867,18.867,0,0,0,2.417.211,4.313,4.313,0,0,0,2.5-.62l.061-.043c.3-.213.443-.31.464-.617.031-.471-.762-1.106-1.143-1.411l-.066-.053a11.416,11.416,0,0,0-2.3-1.318l-.057-.027c-.072-.034-.151-.069-.234-.106a2.991,2.991,0,0,1-1.043-.643l-.131-.149.159-.12a.9.9,0,0,1,.537-.126,5.984,5.984,0,0,1,.772.071c.117.016.219.03.287.035.3.021.606.05.9.078.592.055,1.2.112,1.8.112a7.548,7.548,0,0,0,.881-.048,5.653,5.653,0,0,0,2.582-.919c.251-.2.677-.7.57-1-.016-.044-.145-.272-1.172-.418a5.267,5.267,0,0,0-.744-.053,8.29,8.29,0,0,0-2.493.464c-1.256.393-2.627.88-4.315,1.534l-1.928.749-.022.009-.023,0a.821.821,0,0,0-.186.042,1.442,1.442,0,0,1-.376.358l-.519.307.259-.545a.886.886,0,0,1,.4-.416,7.649,7.649,0,0,0,.484-.808c.056-.1.1-.192.145-.26a4.069,4.069,0,0,0,.726-1.894,1.4,1.4,0,0,0-.368-1.263,1.217,1.217,0,0,0-.822-.365,1.371,1.371,0,0,0-.72.236,9.068,9.068,0,0,0-1.622,1.421c-.236.242-.48.492-.728.721a25.2,25.2,0,0,1-2.46,1.922q-.3.212-.591.425-.531.385-1.067.768c-.822.589-1.673,1.2-2.481,1.823-.1.074-.2.169-.311.27a2.5,2.5,0,0,1-.938.633l-.2.051M92.023,63.37a2.955,2.955,0,0,0,.17-.77h-.04a1.118,1.118,0,0,0-.517.13,1.817,1.817,0,0,1,.376.614l.01.026M91.821,67a6.782,6.782,0,0,1,1-.256c.288-.275.529-.54.672-.7,1.544-1.7,1.588-2.466,1.477-2.774a.409.409,0,0,0-.279-.263.983.983,0,0,0-.3-.042,4.942,4.942,0,0,0-2.046.694l-.035.024c-.04.108-.084.216-.13.325a7.033,7.033,0,0,1,.012.984c0,.129-.009.256-.01.381A4.626,4.626,0,0,1,91.821,67m-.113-2.859a2.605,2.605,0,0,0-.924,1.217,1.208,1.208,0,0,0,.359-.31,4.408,4.408,0,0,0,.566-.907m.506,3.122a3.842,3.842,0,0,0-.582.205l-.032.076-.046.111a2.977,2.977,0,0,0,.66-.392m4.3,17.923A2.056,2.056,0,0,0,96,86.532a2.922,2.922,0,0,0,.519-1.346m8.8,7.747h0m55.132-34.869a2.045,2.045,0,0,0-1.078.338,9.572,9.572,0,0,0-1.75,1.524c-.23.236-.468.479-.7.7a24.7,24.7,0,0,1-2.395,1.868c-.212.151-.4.288-.6.428-.355.258-.715.516-1.063.766-.827.592-1.682,1.205-2.5,1.837-.117.091-.231.195-.352.3l-.032.03c.023-.151.054-.3.086-.446a3.081,3.081,0,0,1,.1-.327,2.671,2.671,0,0,0,.188-.76.91.91,0,0,0-.422-.888.982.982,0,0,0-.5-.126,3.2,3.2,0,0,0-1.427.5,10.526,10.526,0,0,0-1.853,1.571c-.116.115-.235.233-.353.347-.515.5-1.074.98-1.614,1.445-.443.381-.9.774-1.339,1.182-.178.165-.366.335-.548.5l-.3.268c.017-.095.03-.192.039-.29a1.494,1.494,0,0,0-.762-1.722,1.89,1.89,0,0,0-.788-.168,3.105,3.105,0,0,0-1.545.487c-1.793,1.051-2.931,3.174-3.763,4.724a13.5,13.5,0,0,0-1.118,2.762,5.6,5.6,0,0,0-.439-1.641,3.566,3.566,0,0,0-2.022-1.856,1.991,1.991,0,0,0-.532-.074,1.908,1.908,0,0,0-1.064.327,10.785,10.785,0,0,0-3.057,3.779c-.221.377-.431.733-.647,1.073-.265.416-.516.843-.759,1.256s-.484.822-.738,1.223c-.009-.342-.032-.672-.069-.972a1.509,1.509,0,0,0-.875-1.419,2.014,2.014,0,0,0-.849-.191,2.755,2.755,0,0,0-1.263.362,12.524,12.524,0,0,0-4.138,3.076,8.133,8.133,0,0,0-1.142,1.988c-.079.194-.141.376-.2.538l-.008.022a4.28,4.28,0,0,0-.6-1.479A2.685,2.685,0,0,0,113.4,79.73a3.427,3.427,0,0,0-.747.086,3.326,3.326,0,0,0-1.557.822c-.521.43-1.034.879-1.53,1.312-.365.319-.742.649-1.119.968-.4.339-.829.664-1.244.978-.28.212-.569.431-.854.658l-.08.065a3.419,3.419,0,0,0-.537-1.1,4.184,4.184,0,0,0-2.978-1.629,9.362,9.362,0,0,0-.956-.051,6.788,6.788,0,0,0-4.2,1.385c-.114.085-.261.2-.426.337a2.835,2.835,0,0,0-.713-1.526,3.087,3.087,0,0,0-1.306-.639,7.025,7.025,0,0,0-1.747-.22h-.042q.133-.172.264-.356l.109-.151c.531-.731,1.418-1.954,1.075-2.963-.428-1.257-2.43-1.59-3.033-1.661l-.132-.013.055-.019a6.416,6.416,0,0,0,3.45-2.388,1.027,1.027,0,0,0,.108-.973c-.271-.63-1.151-.823-1.677-.938-.186-.041-.37-.073-.553-.1.164-.077.333-.154.51-.235a11.947,11.947,0,0,0,2.321-1.27,2.572,2.572,0,0,0,1.15-2.168v-.045a1.369,1.369,0,0,0-.568-1.367,2.171,2.171,0,0,0-1.306-.338c-.283,0-.555.026-.8.049l-.132.012c1.211-1.389,1.665-2.44,1.388-3.207a1.094,1.094,0,0,0-.7-.675,1.645,1.645,0,0,0-.514-.075,4.37,4.37,0,0,0-1.521.357,1.17,1.17,0,0,0-.026-.339l-.03-.118a.307.307,0,0,0-.25-.229l-.121-.019a1.842,1.842,0,0,0-.286-.023,1.819,1.819,0,0,0-.9.244,1.432,1.432,0,0,0-.352-.043c-.046,0-.093,0-.14.006-.747.062-1.229.844-1.617,1.471-.09.145-.174.282-.246.383a11.783,11.783,0,0,0-1.529,3.028l-.025.069c-.113.32-.213.563-.3.748l-.033-.054c-.013-.021-.031-.049-.036-.061a.787.787,0,0,1,0-.148,1.3,1.3,0,0,0-.052-.56,1.506,1.506,0,0,0-.255-.4c-.028-.035-.074-.095-.086-.114-.352-.6-1.087-1.848-2.128-1.848a1.287,1.287,0,0,0-.345.047c-1.366.38-1.595,2.88-1.617,3.164-.036.481-.117.977-.2,1.456s-.16.982-.2,1.488a8.933,8.933,0,0,1-.235,1.517c-.014.055-.03.109-.047.167l0,.006c-.014.049-.03.1-.044.153q-.129-.013-.273-.013a3.554,3.554,0,0,0-1.554.341A5.764,5.764,0,0,0,78.3,75.112c-.128.233-.248.452-.364.638l-.14.226-.008.013a8.289,8.289,0,0,0-1.24,2.643,9.885,9.885,0,0,0-.124,2.252v0c.005.242.011.493.01.733,0,.1-.006.212-.011.33v0a2.445,2.445,0,0,0,.412,1.832,1.853,1.853,0,0,0,1.321.523,2.08,2.08,0,0,0-.5.61,6.624,6.624,0,0,0-.347.869l-.006.018-.053.151a13.13,13.13,0,0,0-.615,3.128l-.006.055q-.019.169-.039.342a7.059,7.059,0,0,0,.045,2.567,3.693,3.693,0,0,0,2.134,2.7,1.585,1.585,0,0,0,.734.209,1.062,1.062,0,0,0,.285-.038A17.542,17.542,0,0,0,78.774,98c-.116.523-.2,1.058-.277,1.575v0c-.058.382-.119.776-.192,1.155a5.07,5.07,0,0,0-.129,1.476c.131,1.213,1.071,1.215,1.576,1.216h.006a4.336,4.336,0,0,0,2.411-.989l.111-.075a12.92,12.92,0,0,0,2.746-2.45,21.375,21.375,0,0,0,1.5-2.211c.1-.158.2-.318.3-.479-.044.345-.093.694-.141,1.034a26.136,26.136,0,0,0-.309,3.066,10.171,10.171,0,0,0,.609,3.334v0c.111.364.226.741.326,1.127A3.042,3.042,0,0,0,88,107.128a2,2,0,0,0,1.2.625,1.7,1.7,0,0,0,.245.018c.508,0,1.229-.238,1.774-1.374a20.289,20.289,0,0,0,1.4-4.145c.112-.489.235-.983.353-1.46v0c.246-1,.5-2.027.682-3.054.014-.081.026-.171.036-.267a6.6,6.6,0,0,0,.7,1.714c.763,1.256,1.553,1.893,2.347,1.893a1.521,1.521,0,0,0,.425-.061l.026-.007a.31.31,0,0,0,.08-.036l.67-.429.012-.008.014-.01.011-.008c.522-.4,1.063-.8,1.608-1.172l.013-.009.015-.012.012-.01a37,37,0,0,0,2.7-2.606c.4-.423.78-.873,1.142-1.307.236-.283.479-.574.727-.854a2.224,2.224,0,0,0,0,.41c.149,1.441,1.076,1.746,2.055,1.861a24.656,24.656,0,0,0,2.92.151c.471,0,.985-.008,1.618-.026a20.409,20.409,0,0,0,2.778-.206,7.787,7.787,0,0,0,2.313-.87l.267-.134a6.677,6.677,0,0,0,1.907-1.435,2.747,2.747,0,0,0,.806-2.444,1.52,1.52,0,0,0-.135-.37h.239a15.725,15.725,0,0,0,2.6-.194c.223-.035.46-.068.712-.1a10.641,10.641,0,0,0,2.714-.61,3,3,0,0,0,1.825-1.568,1.6,1.6,0,0,0-.153-1.329,4.842,4.842,0,0,0-.8-1.025c.975.1,1.955.256,2.911.412.682.111,1.388.227,2.084.317a16.649,16.649,0,0,0,2.141.16,10.075,10.075,0,0,0,2.164-.224,11.722,11.722,0,0,0,4.136-1.986c1.464-1.023,1.469-2.132,1.476-3.535v-.117c0-.054.006-.12.012-.191a1.649,1.649,0,0,0-.058-.755c.075,0,.148.008.218.008a8.281,8.281,0,0,0,2.271-.281l.02-.006.024-.009.02-.008c.619-.27,1.247-.546,1.866-.82l.005,0a19.453,19.453,0,0,1,2.255-.881l.008,0,.01,0,.008,0a13.949,13.949,0,0,0,2.917-1.421,5.634,5.634,0,0,0,1.279-1.075A1.872,1.872,0,0,0,152,74.376a2.023,2.023,0,0,0-.748-1.035c.342.038.689.085,1.025.131.471.064.958.13,1.445.173.713.063,1.531.095,2.432.095.6,0,1.249-.014,1.926-.042a13.208,13.208,0,0,0,3.12-.423,2.562,2.562,0,0,0,1.81-1.725,1.7,1.7,0,0,0-.638-1.7c-.6-.518-1.151-1-1.709-1.463a10.749,10.749,0,0,0,1.093.194c.2.023.41.051.615.078a19.461,19.461,0,0,0,2.506.217,4.891,4.891,0,0,0,2.885-.744l.059-.042a1.4,1.4,0,0,0,.75-1.126c.055-.823-.853-1.55-1.395-1.984l-.065-.052a9.785,9.785,0,0,0-1.868-1.13l.271.025c.605.057,1.23.115,1.861.115a8.165,8.165,0,0,0,.961-.053,6.358,6.358,0,0,0,2.923-1.06c.113-.09,1.089-.9.788-1.755-.159-.451-.69-.717-1.722-.863a5.957,5.957,0,0,0-.835-.059,9.1,9.1,0,0,0-2.693.5c-1.271.4-2.655.889-4.357,1.548l-.908.352a4.564,4.564,0,0,0,.783-2.138,2.082,2.082,0,0,0-.589-1.8,1.88,1.88,0,0,0-1.275-.54m-11.115,9.253a.308.308,0,0,0,.077-.01l.2-.051a2.716,2.716,0,0,0,1.068-.7c.106-.1.206-.188.292-.254.8-.621,1.652-1.229,2.473-1.817l0,0c.35-.251.712-.51,1.065-.767.2-.145.4-.287.589-.424a25.433,25.433,0,0,0,2.49-1.946c.253-.234.5-.486.737-.73l0,0a8.846,8.846,0,0,1,1.564-1.374,1.071,1.071,0,0,1,.558-.19.925.925,0,0,1,.616.285c.236.214.3.461.268,1.017a3.776,3.776,0,0,1-.683,1.756c-.043.073-.093.164-.15.27a8.075,8.075,0,0,1-.425.722,1.2,1.2,0,0,0-.464.518l-.259.545a.307.307,0,0,0,.433.4l.519-.307a1.585,1.585,0,0,0,.4-.353l.045-.007.024,0a.305.305,0,0,0,.075-.019l.022-.009,1.747-.678v0a.307.307,0,0,0,.075.234l.131.149a3.22,3.22,0,0,0,1.15.721c.081.036.158.069.226.1l.057.027a11.19,11.19,0,0,1,2.24,1.28l.067.053a6.964,6.964,0,0,1,.7.615c.328.347.335.508.333.537-.01.149-.032.175-.333.385l-.061.043a3.973,3.973,0,0,1-2.321.564,18.686,18.686,0,0,1-2.377-.208h-.006c-.218-.029-.424-.056-.622-.079a13.325,13.325,0,0,1-1.592-.319h0c-.164-.04-.334-.081-.5-.12-.061-.014-.126-.033-.194-.053a2.134,2.134,0,0,0-.618-.114,1.209,1.209,0,0,0-.452.086l-.254.1a.307.307,0,0,0-.108.5l.188.2a3.5,3.5,0,0,0,.75.551,3.876,3.876,0,0,1,.442.293c.725.592,1.426,1.2,2.2,1.869a.749.749,0,0,1,.322.744,1.579,1.579,0,0,1-1.122.992,12.326,12.326,0,0,1-2.89.385c-.664.027-1.3.041-1.886.041-.872,0-1.661-.031-2.345-.091-.463-.041-.937-.105-1.4-.168-.41-.056-.831-.113-1.252-.155l-.141-.015h-.005a8.442,8.442,0,0,0-.931-.067,2.161,2.161,0,0,0-.766.11l-.264.1a.307.307,0,0,0-.108.5l.2.2a3.546,3.546,0,0,0,1,.664c.459.229.763.381.92.85.219.654-.253,1.12-1.262,1.8a13.071,13.071,0,0,1-2.707,1.313,20.37,20.37,0,0,0-2.351.919c-.607.269-1.22.538-1.824.8a7.366,7.366,0,0,1-1.973.236c-.087,0-.2-.008-.32-.017-.15-.011-.321-.024-.49-.024a2,2,0,0,0-.593.076l-.248.077a.307.307,0,0,0-.156.475l.154.209a1.942,1.942,0,0,0,.31.316.878.878,0,0,1,.2.213,1.1,1.1,0,0,1,0,.318c-.007.083-.016.178-.017.273v.117c-.006,1.291-.01,2-1.056,2.734a10.811,10.811,0,0,1-3.781,1.831,9.108,9.108,0,0,1-1.955.2,15.7,15.7,0,0,1-2.013-.152c-.68-.088-1.378-.2-2.053-.313a30.534,30.534,0,0,0-4.58-.512l-.245,0h0a.307.307,0,0,0-.3.388l.065.236c.087.316.417.527.835.8a3.747,3.747,0,0,1,.352.241,4.261,4.261,0,0,1,.739.91.627.627,0,0,1,.084.538c-.078.228-.364.583-1.287.985a9.961,9.961,0,0,1-2.452.537c-.258.035-.5.068-.736.105a14.708,14.708,0,0,1-2.43.182h-.213c-.061,0-.166.006-.34.018-.22.015-.621.042-1.035.046l-.113-.041c-.054-.02-.144-.064-.231-.107a2.45,2.45,0,0,0-1.015-.322.909.909,0,0,0-.406.091l-.108.053a.307.307,0,0,0-.171.288l0,.12a.752.752,0,0,0,.256.531,2.471,2.471,0,0,0,1.617.372c.424.153.619.256.68.522.252,1.111-1.174,2.273-2.195,2.782l-.25.126-.02.01a7.038,7.038,0,0,1-2.03.778,19.661,19.661,0,0,1-2.646.193c-.623.017-1.128.025-1.59.025a23.7,23.7,0,0,1-2.806-.144c-.877-.1-1.122-.306-1.192-.986a1.906,1.906,0,0,1,.177-.889,4.537,4.537,0,0,0,.208-.676l.057-.281a.307.307,0,0,0-.295-.38H105.3a.305.305,0,0,0-.072.012l-.282.075a2.9,2.9,0,0,0-1.315.977l-.071.079c-.3.329-.581.669-.855,1-.352.422-.716.858-1.1,1.257A36.272,36.272,0,0,1,99,98.546c-.548.376-1.092.773-1.616,1.179l-.559.358a.5.5,0,0,1-.084.007c-.415,0-.968-.517-1.515-1.418A7.014,7.014,0,0,1,94.5,96.7c-.017-.065-.031-.142-.047-.225a1.707,1.707,0,0,0-.58-1.16l-.139-.1a.307.307,0,0,0-.413.052l-.11.13a3.239,3.239,0,0,0-.482,1.734c-.014.16-.029.325-.048.432-.175,1-.426,2.01-.669,2.991-.12.483-.243.983-.357,1.476a19.3,19.3,0,0,1-1.332,3.94c-.392.817-.761.817-.882.817a.74.74,0,0,1-.107-.008c-.528-.077-.88-.483-1.076-1.24-.106-.408-.224-.8-.338-1.171a9.409,9.409,0,0,1-.567-3.028,25.424,25.424,0,0,1,.3-2.948c.062-.443.127-.9.179-1.348.016-.136.043-.291.071-.457a3.568,3.568,0,0,0-.01-1.889l-.08-.2a.307.307,0,0,0-.443-.15l-.187.112a.788.788,0,0,0-.389.724.781.781,0,0,1-.017.169,1.921,1.921,0,0,1-.314.607c-.271.4-.528.82-.777,1.223a20.638,20.638,0,0,1-1.428,2.111,11.924,11.924,0,0,1-2.533,2.254l-.112.076a3.446,3.446,0,0,1-1.858.818h0a1.469,1.469,0,0,1-.515-.059c-.039-.025-.068-.118-.085-.279a4.262,4.262,0,0,1,.117-1.185c.077-.4.139-.8.2-1.193.077-.5.156-1.022.266-1.514a17.2,17.2,0,0,1,1.443-3.957,4.975,4.975,0,0,1,.275-.436,2.742,2.742,0,0,0,.673-1.677l-.078-.658a.307.307,0,0,0-.584-.09l-.273.6a4.408,4.408,0,0,1-.925,1.242c-.09.1-.193.2-.3.317l-.011.012c-.245.269-.376.41-.471.41a.681.681,0,0,1-.269-.1,2.7,2.7,0,0,1-1.628-2.035,6.108,6.108,0,0,1-.031-2.252q.024-.2.045-.4a12.376,12.376,0,0,1,.565-2.91l.061-.175a5.9,5.9,0,0,1,.292-.741,1.2,1.2,0,0,1,.291-.332,3.05,3.05,0,0,0,.33-.336,2.3,2.3,0,0,0,.264-.457c.03-.062.061-.125.091-.182a1.482,1.482,0,0,0,.474-.355l.235-.273a.307.307,0,0,0-.2-.506l-.359-.032c-.027,0-.054,0-.08,0a.906.906,0,0,0-.713.366,2.017,2.017,0,0,1-.528.072h-.014a1.111,1.111,0,0,1-.742-.2A1.726,1.726,0,0,1,77.4,82c.006-.13.012-.252.013-.375,0-.255,0-.513-.01-.763a9.16,9.16,0,0,1,.1-2.032,7.571,7.571,0,0,1,1.112-2.323l.029-.046.121-.2c.129-.209.255-.438.389-.681a5.139,5.139,0,0,1,1.322-1.792,2.764,2.764,0,0,1,1.039-.185,1.014,1.014,0,0,1,.339.039l.473.56a.307.307,0,0,0,.534-.266L82.7,73.2a.884.884,0,0,1,.065-.436c.02-.067.04-.136.059-.209a9.877,9.877,0,0,0,.262-1.679c.038-.465.116-.944.192-1.408l-.3-.054.3.049c.081-.5.166-1.016.205-1.537.075-.986.462-2.169.9-2.291a.28.28,0,0,1,.076-.01c.183,0,.429.173.694.487a6.418,6.418,0,0,1,.593.876,2.147,2.147,0,0,0,.154.215l0,0c.021.027.079.1.106.141a.879.879,0,0,1,0,.143,1.478,1.478,0,0,0,.015.427,1.11,1.11,0,0,0,.165.38l.026.042a1.17,1.17,0,0,1,.006.184,1.721,1.721,0,0,0,.04.465l.028.113a.307.307,0,0,0,.237.226l.114.023a.762.762,0,0,0,.151.015c.7,0,1.128-.941,1.488-1.959l.023-.065c.147-.408.293-.774.446-1.113a.307.307,0,0,0,.154.042h.013l.552-.024a.307.307,0,0,0,.293-.32l-.016-.369a.3.3,0,0,0,0-.035,7.385,7.385,0,0,1,.793-1.167c.089-.114.18-.231.261-.34a7.259,7.259,0,0,1,.5-.624q.037.068.074.153c-.707.583-1.424,1.388-1.229,2.154l.033.128a.307.307,0,0,0,.272.23l.131.011.072,0a1.22,1.22,0,0,0,.833-.392A5.045,5.045,0,0,1,91.094,67a1.229,1.229,0,0,0-.628.828L90.438,68a.307.307,0,0,0,.149.316c-.045.144-.082.282-.113.416a2.3,2.3,0,0,1-.935,1.474,1.405,1.405,0,0,1-1.088.341.307.307,0,0,0-.3.312l.006.369a.307.307,0,0,0,.307.3h.005A2.336,2.336,0,0,0,90.118,71a3.253,3.253,0,0,0,1.315-2.05,5.152,5.152,0,0,1,.179-.6,4.092,4.092,0,0,0,1.517-.972c.481-.082.931-.128,1.164-.149l.149-.014c.218-.021.466-.045.7-.045a1.294,1.294,0,0,1,.726.151c.172.125.172.125.163.55v.046a1.585,1.585,0,0,1-.766,1.409,11.24,11.24,0,0,1-2.129,1.155c-.2.093-.415.189-.618.286-.275.131-.552.277-.846.431-.41.215-.833.437-1.242.615a8.843,8.843,0,0,0-.963.332.307.307,0,0,0-.177.377l.112.351a.306.306,0,0,0,.363.205,6.084,6.084,0,0,0,.989-.335,5.627,5.627,0,0,1,1.471-.2,5.309,5.309,0,0,1,1.15.127c.77.169.94.3.978.356a.357.357,0,0,1-.041.087,5.356,5.356,0,0,1-2.938,1.969,9.792,9.792,0,0,1-1.458.364l-.3.059a1.217,1.217,0,0,0-.974.6l-.087.175a.307.307,0,0,0,.154.419l.18.077a3.392,3.392,0,0,0,1.357.237c.167,0,.333-.006.494-.012s.312-.011.466-.011a3.912,3.912,0,0,1,.458.023c1.152.137,2.065.549,2.219,1,.179.528-.6,1.608-.94,2.069l-.01.014-.1.143a9.382,9.382,0,0,1-.942,1.139,1.774,1.774,0,0,0-1.182.977l-.168.429a.307.307,0,0,0,.416.39l.418-.195a4.069,4.069,0,0,0,1.021-.723l.068-.015a4.507,4.507,0,0,1,.94-.091,4.254,4.254,0,0,1,2.373.579,2.544,2.544,0,0,1,.5,1.7c-.862.976-1.145,1.891-.82,2.651l.093.218a.307.307,0,0,0,.2.176.311.311,0,0,0,.078.01.307.307,0,0,0,.186-.063l.189-.144a3.393,3.393,0,0,0,1.04-2.452,8.506,8.506,0,0,1,.949-.818,5.73,5.73,0,0,1,3.59-1.191,8.576,8.576,0,0,1,.878.047,3.2,3.2,0,0,1,2.284,1.23,2.423,2.423,0,0,1,.462,1.684,1.487,1.487,0,0,0-.064.469l.042,1.558a.307.307,0,0,0,.279.3h.028a.307.307,0,0,0,.3-.243l.323-1.525c.024-.114.043-.228.057-.341a1.979,1.979,0,0,1,.6-.673c.276-.219.56-.434.834-.642.425-.322.865-.655,1.286-1.012.38-.321.759-.653,1.126-.974l.005,0c.493-.431,1-.875,1.509-1.294a2.4,2.4,0,0,1,1.146-.621,2.468,2.468,0,0,1,.537-.063,1.712,1.712,0,0,1,1.459.778,3.69,3.69,0,0,1,.46,1.21q.025.1.05.192c.013.049.024.111.036.176a1.221,1.221,0,0,0,.589.986l.138.07a.307.307,0,0,0,.385-.09l.093-.124A4.065,4.065,0,0,0,117.2,82.7c.054-.157.109-.319.177-.485a7.144,7.144,0,0,1,1-1.745A11.79,11.79,0,0,1,122.2,77.65a1.815,1.815,0,0,1,.816-.251,1,1,0,0,1,.431.1c.223.1.252.163.312.647a10.6,10.6,0,0,1-.028,2.592.307.307,0,0,0,.255.347l.365.059a.311.311,0,0,0,.049,0,.307.307,0,0,0,.3-.253,2.487,2.487,0,0,1,.479-.741l0,0c.12-.15.234-.291.324-.43.312-.478.6-.971.882-1.448.24-.407.487-.827.741-1.228.226-.355.439-.718.665-1.1a10.084,10.084,0,0,1,2.751-3.456.926.926,0,0,1,.521-.165,1.015,1.015,0,0,1,.271.039,2.58,2.58,0,0,1,1.4,1.334,6.114,6.114,0,0,1,.411,1.8V75.5c.027.208.052.4.083.6.007.044.014.1.02.163v0a1.594,1.594,0,0,0,.388,1.051l.17.149a.307.307,0,0,0,.468-.079l.112-.2a4.966,4.966,0,0,0,.475-1.429c.039-.178.076-.345.12-.5a12.521,12.521,0,0,1,1.06-2.644c.776-1.447,1.84-3.429,3.394-4.34a2.156,2.156,0,0,1,1.047-.351.9.9,0,0,1,.382.079c.2.089.238.186.19.742a4.386,4.386,0,0,1-.421,1.338,6.458,6.458,0,0,0-.434,1.226l-.151.708a.307.307,0,0,0,.533.264l.472-.549a2.61,2.61,0,0,0,.323-.5,1.766,1.766,0,0,1,.249-.381c.4-.438.869-.861,1.323-1.27.185-.167.376-.339.561-.511.425-.4.875-.782,1.31-1.156.551-.474,1.121-.964,1.659-1.485.119-.116.239-.235.356-.35l0,0a9.79,9.79,0,0,1,1.676-1.431,2.507,2.507,0,0,1,.856-.351,2.211,2.211,0,0,1-.13.457,3.8,3.8,0,0,0-.139.446A4.3,4.3,0,0,0,149,66.862l.033.2a.307.307,0,0,0,.3.256m14.6-4.639c1.179-.441,2.2-.795,3.157-1.093a8.075,8.075,0,0,1,2.4-.45,4.922,4.922,0,0,1,.7.05,2.51,2.51,0,0,1,.924.246,1.477,1.477,0,0,1-.47.627,5.378,5.378,0,0,1-2.427.854,7.179,7.179,0,0,1-.845.046c-.587,0-1.188-.056-1.77-.111H165.6c-.3-.028-.6-.056-.9-.077-.057,0-.156-.018-.262-.032h0c-.157-.022-.328-.044-.5-.058M92.553,63.89a4.656,4.656,0,0,1,1.831-.614.681.681,0,0,1,.209.027c.064.021.075.043.087.076.039.109.155.737-1.415,2.463-.13.142-.34.374-.592.619q-.194.038-.371.081a4.374,4.374,0,0,0,.179-1.161c0-.119.005-.239.01-.366v-.007a7.9,7.9,0,0,0-.005-.947q.035-.085.069-.17" transform="translate(-67.88 -51.585)" fill="#1a1311"/>
    <path id="패스_23289" data-name="패스 23289" d="M111.743,8.795h-1.558V6.2h-.653V3.568h-1.9V1.6h-2.975v-.7h-4.5V.935H96.343v.78H95.224V0h-4.5V1.37H88.184v.978H85.642V3.627H82.333v.506H79.185V5.28H77.466V7.035H75.028V8.63H72.292v1.687H68.513V11.7h-3v1.209H63.7V13.7H62.528v1.369h-4.3v1.353H55.595v.557H53.423V18.5H50.365v.9H48.343v1.567h-2.6v.689H43.985v.1H41.313v1.178H37.728v.739H36.646v-.459h-.882V21.777h.419V19.821h.391V15.747h.141v-.53h1.239v-4.5H36.713V6.866H33.975V2.759h-4.5V4.128h-.391V1.781h-4.5V3.737H22.437v.782H19.308v1.76H15.593v1.76H12.464v3.656H10.1v2.933H7.945v2.151H6.772v2.933H5.6v4.107H3.838v2.542H3.252v2.691H1.545v2.6H1.1v2.008H.631v2.066H.341v3.626H.1v4.5H.978v3.632H0v4.5H.978v2.542h1.76v1.955H4.6v2.14H6.16V59.6H8.507v1.565H11.44v.587h3.073v.583h4.693v.2h4.5v-.2h3.129v-.782h3.716V60.18H32.5V59.007h3.129V57.442H37.2v-1.76h3.325V54.313h2.347v-.782H45.02v-1.76h2.151v.391h4.5V50.207h1.956v-.978H55.58V47.86h4.107V46.1H62.62V43.753h2.738V42.41H69.4v-.669h2.393V40.87h1.758v-.782h2.738V37.912h2.442V36.34h2.358v-2.1h2.753V32.409h2.924v-.341h2.358V30.1h2.653V28.533h2.933V26.381H98.03V24.23h3.129V22.861H103.9V20.592h1.354v-1.84h2.384V15.511h1.543V13.293h2.565ZM15.938,57.833V57.25H13v-.587H10.658V55.1H9.093v-.978H7.236v-2.14H5.476V50.026H4.5V48.07h.978v-4.5H4.6V40.225h.237V38.159h.29V36.151H5.6v-2.6h.442V30.859H7.75V28.317h.587V24.21H10.1V21.277H11.27V19.126h1.173V16.192h2.151V12.537h2.368v-1.76h3.129V9.017h3.716V8.235h2.151v.391h3.227v2.64h1.858V14.3h.643v5.85h-.419v2.074h-.01v4.5h.892v.993h1.97v.458h4.5v-.739h3.61V26.253h3.585v-.1h2.672v-.689h1.754V23.9h2.6V23h2.022V21.473h3.058v-.557h2.172V19.563h2.631V18.194h4.3v-.782H68.2V16.2h1.816V14.815h3V13.128h3.779V11.533h2.737V9.778h2.437V8.631h1.719V8.124H86.83V6.846H90.14V5.868h2.446v.345h4.5v-.78h3.758V5.405h2.293v.7h1.9V8.066h.653v.462H104.67v4.5h.01v1.228h-1.543v1.84h-2.384v2.269H99.4v1.369H96.661v2.151H93.532v2.151H90.207V25.6H87.274V27.57H84.621v.341H82.264v1.827H79.339v2.1H76.587v1.572H74.228v2.175H71.787v.782H69.049v.871H67.291v.669H64.9v1.343H60.86V41.6H58.123v1.76H55.189v1.369H51.082v.978H49.127v1.956H47.953v-.391h-4.5v1.76H40.522v.782H38.371v1.369H36.024v1.76H32.7v1.564H31.135v1.173H28.006v1.369H26.051v.782H22.335v.2H19.989v-.2H15.938Z" transform="translate(0 -0.001)" fill="#e64800"/>
    <path id="패스_23290" data-name="패스 23290" d="M174.168,64.627a7.287,7.287,0,0,0-3.311.419c-1.459.456-2.9.986-4.326,1.538q-.965.373-1.929.749a.949.949,0,0,0-.284.077,11.11,11.11,0,0,0,.668-1.121,4.278,4.278,0,0,0,.751-1.978,1.577,1.577,0,0,0-.429-1.411,1.339,1.339,0,0,0-1.763-.149,17.168,17.168,0,0,0-2.378,2.163,32.536,32.536,0,0,1-3.034,2.333c-1.182.859-2.4,1.7-3.552,2.594-.345.267-.761.761-1.182.87a3.855,3.855,0,0,1,.1-1.477,6.678,6.678,0,0,0,.282-1c.04-.928-1.181-.336-1.605-.075a12.924,12.924,0,0,0-2.121,1.852c-.949.921-1.992,1.733-2.961,2.634-.633.589-1.33,1.17-1.913,1.809-.28.307-.338.605-.581.889a21.247,21.247,0,0,0,.864-2.624c.045-.516.063-.987-.476-1.232a2.092,2.092,0,0,0-1.881.3c-1.628.954-2.713,2.919-3.578,4.532a12.992,12.992,0,0,0-1.1,2.746,7.712,7.712,0,0,1-.548,1.82c-.2-.172-.2-.662-.247-.925a9.354,9.354,0,0,0-.537-2.541c-.491-1.023-1.753-2.163-2.9-1.405-1.624,1.07-2.549,3.115-3.56,4.705-.559.879-1.052,1.8-1.621,2.671-.249.382-.8.906-.878,1.356a11.194,11.194,0,0,0,.029-2.724c-.061-.5-.111-.81-.593-1.033a1.794,1.794,0,0,0-1.68.16,12.517,12.517,0,0,0-3.98,2.947,7.61,7.61,0,0,0-1.071,1.866,6.249,6.249,0,0,1-.7,1.59c-.3-.155-.294-.554-.372-.849a4.651,4.651,0,0,0-.584-1.561,2.272,2.272,0,0,0-2.5-.911,2.864,2.864,0,0,0-1.351.721c-.9.74-1.757,1.525-2.645,2.276-.683.579-1.409,1.088-2.109,1.645a2.249,2.249,0,0,0-.774.948,3.284,3.284,0,0,0-3.178-3.51,6.451,6.451,0,0,0-4.812,1.239,8.951,8.951,0,0,0-1.137,1.007,3.109,3.109,0,0,0-.639-2.239,5.26,5.26,0,0,0-3.973-.563,9.689,9.689,0,0,0,1.086-1.289c.436-.61,1.4-1.836,1.118-2.67-.3-.887-1.844-1.239-2.626-1.332a9.1,9.1,0,0,1-2.64-.2c.133-.267.432-.3.7-.354a11.96,11.96,0,0,0,1.758-.429A5.958,5.958,0,0,0,98.65,77.3c.478-.792-.673-1.049-1.253-1.176a5.883,5.883,0,0,0-2.888.089c.737-.316,1.479-.753,2.138-1.067a16.119,16.119,0,0,0,2.835-1.5,2.07,2.07,0,0,0,.958-1.788c.01-.495.028-.719-.364-1a3.088,3.088,0,0,0-1.912-.184c-.245.022-.776.072-1.343.176.3-.285.557-.566.721-.746.484-.532,1.836-2.069,1.514-2.96-.359-.992-2.486.019-2.906.3l-.087.06a2.512,2.512,0,0,0,.214-1.138,1.366,1.366,0,0,0-1.049.285.887.887,0,0,0-.511-.1c-.644.054-1.139,1.139-1.5,1.65a11.483,11.483,0,0,0-1.466,2.908c-.117.324-.6,1.793-1.1,1.692-.056-.223,0-.434-.045-.653-.032-.143-.152-.232-.187-.4-.046-.22.047-.425-.031-.649a4.455,4.455,0,0,0-.3-.43c-.347-.589-1.085-1.809-1.918-1.577-.859.239-1.2,1.943-1.258,2.727-.075.986-.317,1.959-.4,2.947a9.485,9.485,0,0,1-.248,1.6,1.779,1.779,0,0,0-.127.876c-.312-.369-1.677-.14-2,.069a8.162,8.162,0,0,0-1.863,2.628,8.874,8.874,0,0,0-1.325,2.723,14.594,14.594,0,0,0-.1,2.892c0,.586-.146,1.359.277,1.836a2.025,2.025,0,0,0,1.956.213c-.153.236-.261.556-.392.717-.229.281-.505.418-.678.754a8.007,8.007,0,0,0-.38.977,14.586,14.586,0,0,0-.635,3.418,6.61,6.61,0,0,0,.038,2.409,3.2,3.2,0,0,0,1.881,2.37c.65.341.891.067,1.343-.431a6.336,6.336,0,0,0,1.3-1.687c.067.559-.661,1.364-.9,1.834a17.706,17.706,0,0,0-1.484,4.072c-.2.893-.293,1.819-.467,2.719a4.635,4.635,0,0,0-.123,1.331c.074.688.41.775,1.088.777a4.123,4.123,0,0,0,2.25-.979,12.452,12.452,0,0,0,2.64-2.352c.847-1.05,1.481-2.252,2.231-3.369a2.347,2.347,0,0,0,.384-.767c.072-.3-.041-.453.18-.586a4.806,4.806,0,0,1-.092,2.108c-.167,1.428-.452,2.905-.482,4.343a15.193,15.193,0,0,0,.921,4.332,1.9,1.9,0,0,0,1.481,1.6c.746.109,1.213-.475,1.5-1.082a19.854,19.854,0,0,0,1.368-4.043c.343-1.489.766-2.987,1.031-4.492.084-.479.063-1.51.421-1.935.327.233.345.747.436,1.1a7.435,7.435,0,0,0,.782,2.107c.408.671,1.26,1.893,2.215,1.615l.647-.414q.8-.619,1.632-1.19a36.43,36.43,0,0,0,2.665-2.572c.692-.724,1.293-1.524,1.963-2.266a2.686,2.686,0,0,1,1.147-.91,5.079,5.079,0,0,0-.392,1.714c.106,1.029.645,1.308,1.624,1.423a30.869,30.869,0,0,0,4.467.122,20.03,20.03,0,0,0,2.712-.2,8.445,8.445,0,0,0,2.44-.959c1.091-.545,2.785-1.871,2.454-3.331-.127-.562-.594-.735-1.071-.9.652,0,1.306-.068,1.456-.067a15.661,15.661,0,0,0,2.718-.187,14.535,14.535,0,0,0,3.307-.677c.923-.4,2.046-1.1,1.437-2.21a4.692,4.692,0,0,0-.824-1.023c-.211-.209-1-.6-1.059-.817a55.949,55.949,0,0,1,6.574.82,11.64,11.64,0,0,0,4.137-.057,11.173,11.173,0,0,0,3.958-1.908c1.292-.9,1.259-1.858,1.267-3.251a2,2,0,0,0-.024-.8c-.12-.267-.412-.408-.567-.619a4.663,4.663,0,0,1,1.257-.013A7.816,7.816,0,0,0,147,83.919q.931-.406,1.861-.818a19.831,19.831,0,0,1,2.313-.9,13.589,13.589,0,0,0,2.819-1.369c.823-.557,1.823-1.259,1.453-2.366-.36-1.076-1.356-1.013-2.039-1.7a4.577,4.577,0,0,1,1.617,0c.886.089,1.766.245,2.654.324a34.614,34.614,0,0,0,4.294.051,12.675,12.675,0,0,0,3-.4c1.158-.333,2.12-1.6.986-2.58-.728-.632-1.465-1.269-2.212-1.879a12.045,12.045,0,0,1-1.147-.8,1.572,1.572,0,0,1,.971.1,19.825,19.825,0,0,0,2.152.449c1.671.2,4.167.692,5.665-.362.346-.243.574-.378.6-.8.04-.6-.861-1.285-1.277-1.62a11.818,11.818,0,0,0-2.4-1.368,3.767,3.767,0,0,1-1.218-.7c.263-.2,1.153-.005,1.472.017a19.372,19.372,0,0,0,3.617.141,5.827,5.827,0,0,0,2.675-.957c.262-.208.781-.777.63-1.206-.131-.374-1.081-.5-1.327-.54" transform="translate(-71.795 -55.516)" fill="#dc3a86"/>
  </g>
</svg>
