<svg id="PPS_20" xmlns="http://www.w3.org/2000/svg" xmlns:xlink="http://www.w3.org/1999/xlink" width="79.039" height="111.761" viewBox="0 0 79.039 111.761">
  <defs>
    <clipPath id="clip-path">
      <rect id="사각형_6146" data-name="사각형 6146" width="79.039" height="111.761" fill="none"/>
    </clipPath>
  </defs>
  <g id="그룹_11606" data-name="그룹 11606" clip-path="url(#clip-path)">
    <path id="패스_27468" data-name="패스 27468" d="M587.437,368.03a.612.612,0,0,0-.8-.7,11.29,11.29,0,0,0-2.828,1.072c-.032.018-.064.035-.1.051H587.3c.046-.144.091-.285.133-.422" transform="translate(-518.582 -326.322)" fill="#ee8673"/>
    <path id="패스_27469" data-name="패스 27469" d="M548.845,400.743h5.8c.106-.244.211-.491.315-.743.2-.485.386-.962.559-1.424h-5.508Z" transform="translate(-487.607 -354.103)" fill="#ee8673"/>
    <path id="패스_27470" data-name="패스 27470" d="M538.472,479.791l.211.156a1.537,1.537,0,0,0,1.995-.154c.114-.121.228-.247.341-.376h-2.9a1.578,1.578,0,0,0,.357.374" transform="translate(-478.074 -425.925)" fill="#ee8673"/>
    <path id="패스_27471" data-name="패스 27471" d="M535.114,439.509a4.224,4.224,0,0,1,1.3,1.655h3.67q.638-1,1.246-2.168h-5.943Z" transform="translate(-475.408 -390.014)" fill="#ee8673"/>
    <path id="패스_27472" data-name="패스 27472" d="M560.47,377.694l-1.2,2.232h5.508c.315-.842.585-1.635.811-2.342H562a2.022,2.022,0,0,1-1.529.11" transform="translate(-496.87 -335.454)" fill="#ee8673"/>
    <path id="패스_27473" data-name="패스 27473" d="M537.58,420.346h5.943q.571-1.1,1.111-2.342h-5.8Z" transform="translate(-477.599 -371.364)" fill="#ee8673"/>
    <path id="패스_27474" data-name="패스 27474" d="M537.984,459.969c-.785.188-.775.529-.606.8h2.9a19.358,19.358,0,0,0,1.735-2.342h-3.67c.307.711.305,1.384-.361,1.544" transform="translate(-477.337 -407.275)" fill="#ee8673"/>
    <path id="패스_27475" data-name="패스 27475" d="M381.291,104.34a2.2,2.2,0,0,1-.016-2.269,3.567,3.567,0,0,1,.32-.3V96.508l-.037-.01a8.536,8.536,0,0,0-1.764-.279.846.846,0,0,1,.191.5c.023.57-.579.994-1.461,1.029s-1.659-.252-1.682-.822a.969.969,0,0,1,.445-.759c-1.557.027-3.317.142-5.062.3a.855.855,0,0,1,.234.55c.023.57-.579.994-1.461,1.029s-1.659-.252-1.682-.822a.761.761,0,0,1,.158-.468c-.733.087-1.441.178-2.1.27a.406.406,0,0,0-.365.346q-.026.278-.026.562c0,3.774,3.466,6.845,7.727,6.845V105.8a11.279,11.279,0,0,0,6.584-1.457" transform="translate(-326.034 -85.436)" fill="#ee8673"/>
    <path id="패스_27476" data-name="패스 27476" d="M298.359,337.009l0,.017h.011l-.008-.017" transform="translate(-265.067 -299.406)" fill="#ee8673"/>
    <path id="패스_27477" data-name="패스 27477" d="M301.708,358.154h-.881a1.613,1.613,0,0,0,.912.259h0c.024,0,.047,0,.071,0l-.009-.068-.092-.188" transform="translate(-267.262 -318.192)" fill="#ee8673"/>
    <path id="패스_27478" data-name="패스 27478" d="M226.159,318.75a9.915,9.915,0,0,0,1-3.607,8.689,8.689,0,0,1,.306-1.489c-.215.019-.434.029-.655.029a7.5,7.5,0,0,1-1.435-.138l-.29,1a8.082,8.082,0,0,1-2.127-1.038c-.544,2-1.493,5.606.127,8.189a4.01,4.01,0,0,0,2.7,1.977c2.245.432,4.834-.933,5.979-1.637l-4.45-1.014a1.556,1.556,0,0,1-1.154-2.268" transform="translate(-197.394 -278.522)" fill="#ee8673"/>
    <path id="패스_27479" data-name="패스 27479" d="M296.46,337.162h-.011c-.056.384-.125.752-.2,1.094a1.144,1.144,0,0,0,.48,1.248h.881c-.326-.664-.728-1.486-1.146-2.342" transform="translate(-263.16 -299.542)" fill="#ee8673"/>
    <path id="패스_27480" data-name="패스 27480" d="M261.943,316.836h0a1.614,1.614,0,0,1-.912-.259h-1.683v-2.342h1.408l0-.017c-.35-.718-.711-1.459-1.045-2.151h-.365v-.712a7.215,7.215,0,0,1-1.81.392,8.708,8.708,0,0,0-.306,1.489,9.913,9.913,0,0,1-1,3.607,1.556,1.556,0,0,0,1.154,2.268l4.45,1.014c.222-.136.389-.247.49-.316v-.247c-.089-.965-.193-1.872-.311-2.728-.024,0-.047,0-.071,0" transform="translate(-227.466 -276.615)" fill="#ee8673"/>
    <path id="패스_27481" data-name="패스 27481" d="M312.441,385.132c-.007-.078-.013-.156-.02-.233v.247l.02-.014" transform="translate(-277.562 -341.953)" fill="#ee8673"/>
    <path id="패스_27482" data-name="패스 27482" d="M286.105,312.012l-.347-.718-.019.007v.712Z" transform="translate(-253.858 -276.561)" fill="#ee8673"/>
    <path id="패스_27483" data-name="패스 27483" d="M286.942,338.257c.08-.342.149-.71.2-1.094h-1.408v2.342h1.683a1.145,1.145,0,0,1-.48-1.248" transform="translate(-253.857 -299.543)" fill="#ee8673"/>
    <path id="패스_27484" data-name="패스 27484" d="M233.917,228.3a4.042,4.042,0,0,1,2.341,1.148,5.973,5.973,0,0,1,3.693-.621l-.042.246q.141-.249.291-.493a6.943,6.943,0,0,0-4.072-1.26,7.111,7.111,0,0,0-3.456.868l1.025.49c.138-.244.22-.379.22-.379" transform="translate(-206.712 -201.955)" fill="#ee8673"/>
    <path id="패스_27485" data-name="패스 27485" d="M281.329,265.669c.106-.272.213-.542.32-.807a3.193,3.193,0,0,0-.712.126q.2.319.392.681" transform="translate(-249.591 -235.309)" fill="#ee8673"/>
    <path id="패스_27486" data-name="패스 27486" d="M310.7,277.312c-.257.645-.507,1.287-.736,1.9a4.31,4.31,0,0,0,.855-1.9Z" transform="translate(-275.383 -246.37)" fill="#ee8673"/>
    <path id="패스_27487" data-name="패스 27487" d="M211.152,247.544a1.316,1.316,0,0,1,1.032.641c.222-.48.436-.921.635-1.312l-1.72-.823a4.432,4.432,0,0,0-.992,1.889,1.316,1.316,0,0,1,1.045-.4" transform="translate(-186.664 -218.596)" fill="#ee8673"/>
    <path id="패스_27488" data-name="패스 27488" d="M316.735,273.52q-.085.212-.17.423h.119a4,4,0,0,0,.051-.423" transform="translate(-281.244 -243.001)" fill="#ee8673"/>
    <path id="패스_27489" data-name="패스 27489" d="M285.5,241.56h.009a3.592,3.592,0,0,0-.734-.02c-.106.266-.213.536-.32.807a17.846,17.846,0,0,1,.914,1.989,1.369,1.369,0,0,1,1.5.75l0,.01h.206c.077-.086.151-.175.221-.265.23-.615.479-1.258.736-1.9h-2.253v-2.342h2.072a5,5,0,0,0-1.651-1.976q-.15.244-.291.493Z" transform="translate(-252.715 -211.988)" fill="#ee8673"/>
    <path id="패스_27490" data-name="패스 27490" d="M296.37,258.662h2.253l.17-.423q.008-.128.008-.257a4.049,4.049,0,0,0-.36-1.663H296.37Z" transform="translate(-263.302 -227.72)" fill="#ee8673"/>
    <path id="패스_27491" data-name="패스 27491" d="M306.354,296.741h-.206l.07.147c.046-.048.091-.1.135-.147" transform="translate(-271.989 -263.631)" fill="#ee8673"/>
    <path id="패스_27492" data-name="패스 27492" d="M244.416,237.247a4.042,4.042,0,0,0-2.341-1.148s-.081.135-.22.379l2.16,1.033a4.329,4.329,0,0,1,.4-.264" transform="translate(-214.87 -209.756)" fill="#ee8673"/>
    <path id="패스_27493" data-name="패스 27493" d="M228.905,255.51a2.541,2.541,0,0,0,1.16,2.3,5.6,5.6,0,0,0,1.572.823l-.374,1.264-.078.27a7.5,7.5,0,0,0,1.435.138c.221,0,.44-.01.655-.029.367-1.33,1.007-3.089,1.666-4.772q-.2-.361-.392-.681a1.856,1.856,0,0,0-.592.293,1.353,1.353,0,0,0-.144.131l-.119.249-.055-.027a2.219,2.219,0,0,0-.3.976,1.369,1.369,0,0,1-2.724-.28,5.057,5.057,0,0,1,.549-1.881l-1.8-.863c-.2.392-.413.833-.635,1.312a1.311,1.311,0,0,1,.182.774" transform="translate(-203.203 -225.148)" fill="#ee8673"/>
    <path id="패스_27494" data-name="패스 27494" d="M271.329,276.478v-.046l-.2-.412a1.364,1.364,0,0,1,.968-1.933,17.862,17.862,0,0,0-.914-1.989c-.659,1.683-1.3,3.442-1.666,4.772a7.217,7.217,0,0,0,1.81-.392" transform="translate(-239.447 -241.738)" fill="#ee8673"/>
    <path id="패스_27495" data-name="패스 27495" d="M285.739,310.947v.046l.019-.007-.019-.039" transform="translate(-253.857 -276.252)" fill="#ee8673"/>
    <path id="패스_27496" data-name="패스 27496" d="M543.829,253.779l.222.042h0Z" transform="translate(-483.15 -225.463)" fill="#0d1a35"/>
    <path id="패스_27497" data-name="패스 27497" d="M523.618,253.758a1.493,1.493,0,0,0-.649.981c-.069.415-.136.881-.186,1.361,0,.017,0,.035-.006.052a11.843,11.843,0,0,0-.052,2.115,3.726,3.726,0,0,0,.863,2.342,2.564,2.564,0,0,0,.593.468,2.757,2.757,0,0,0,1.386.364,3.536,3.536,0,0,0,1.44-.328.547.547,0,0,0,.343-.5.507.507,0,0,0-.128-.327,4.1,4.1,0,0,1-.95-2.016,4.994,4.994,0,0,1,.14-2.168c.007-.025.013-.049.02-.073.073-.256.133-.507.183-.743a1.451,1.451,0,0,0-.708-1.525,1.84,1.84,0,0,0-.627-.242l-.247-.046a1.888,1.888,0,0,0-1.414.288" transform="translate(-464.377 -225.159)" fill="#0d1a35"/>
    <path id="패스_27498" data-name="패스 27498" d="M224.192.02c-.108-.007-.214-.016-.323-.022V.02h-7.053a1.745,1.745,0,0,0-1.755,1.288l-.007.032a1.649,1.649,0,0,0,1.752,1.888h2.259a.164.164,0,0,1,.085.315,10.009,10.009,0,0,0-6.2,8.955,9.375,9.375,0,0,0,2.758,6.562.63.63,0,0,1-.065.948L213.1,22.091a18.061,18.061,0,0,0-3.981,4.531,5,5,0,0,1,1.651,1.976,4.048,4.048,0,0,1,.36,1.662q0,.129-.008.257c.263-.652.531-1.3.793-1.919l.018-.044a7.656,7.656,0,0,1,1.357-2.124,8.277,8.277,0,0,1,.924-.883L216,24.088l2.812-2.3a.85.85,0,0,1,.842-.122,12.523,12.523,0,0,0,4.652.884V19.343c-4.261,0-7.727-3.071-7.727-6.845q0-.284.026-.562a.406.406,0,0,1,.365-.346c.662-.092,1.369-.183,2.1-.27a.762.762,0,0,0-.158.468c.023.57.8.857,1.682.822s1.484-.459,1.461-1.029a.855.855,0,0,0-.234-.55c1.744-.16,3.505-.275,5.062-.3a.968.968,0,0,0-.445.759c.023.57.8.857,1.682.822s1.484-.459,1.461-1.029a.847.847,0,0,0-.191-.5,8.547,8.547,0,0,1,1.764.279l.037.011a3.546,3.546,0,0,0,3.559-.622c1.049-.97,1.227-2.566.476-4.269a7.858,7.858,0,0,0-1.434-2.136.494.494,0,0,1,.431-.815h14.5a2.207,2.207,0,0,1,2.327,2.062V33.346a.317.317,0,0,1-.607.079c-.589-1.741-1.314-4.1-2.28-7.438-1.037-3.592-4.219-6.461-9.2-8.3a31.349,31.349,0,0,0-7-1.67s-.251-.1-.763.316a3.546,3.546,0,0,0-.32.3,2.2,2.2,0,0,0,.016,2.269.9.9,0,0,0,1.186.507h0a.835.835,0,0,1,.469-.058c2.243.369,7.725,1.565,10.575,4.738a6.979,6.979,0,0,1,1.418,2.342c.041.116.08.233.114.352.185.639.361,1.243.529,1.815.25.849.484,1.627.7,2.342.244.8.47,1.516.68,2.168.29.9.552,1.669.793,2.342.216.6.415,1.128.6,1.595-.8.076-1.741.186-2.725.348-.422.069-.828.145-1.223.225a17.243,17.243,0,0,0-5.157,1.787,1.657,1.657,0,0,0-.583.556A1.491,1.491,0,0,0,238.75,42a1.862,1.862,0,0,0,.213.126,1.915,1.915,0,0,0,.265.11,2.021,2.021,0,0,0,1.529-.11c.032-.017.065-.033.1-.051A11.284,11.284,0,0,1,243.682,41a.612.612,0,0,1,.8.7c-.043.137-.087.278-.133.422-.226.707-.5,1.5-.811,2.342-.173.462-.359.939-.559,1.424-.1.252-.209.5-.315.743q-.539,1.241-1.111,2.342-.607,1.168-1.246,2.168a19.377,19.377,0,0,1-1.735,2.342c-.113.129-.227.255-.341.376a1.537,1.537,0,0,1-1.994.154l-.211-.156a1.582,1.582,0,0,1-.357-.374c-.169-.269-.179-.61.606-.8.667-.16.669-.832.361-1.544a4.223,4.223,0,0,0-1.3-1.655,1.68,1.68,0,0,0-.443-.233c-1-.321-2.836,1.352-3.391,1.888-.1.1-.163.161-.163.161-1.057.643-2.424,1.413-4.018,2.181a41.981,41.981,0,0,1-5.4,2.168l-.266.085a12.053,12.053,0,0,1-7.826-.085,7.837,7.837,0,0,1-1.166-.556l-.028-.017a2.01,2.01,0,0,1-1.016-1.6,1.841,1.841,0,0,1,.118-.77c.185-.483.4-1.019.616-1.572.289-.723.594-1.473.88-2.168.394-.958.75-1.81.973-2.342.146-.349.236-.56.24-.571l.286-.676-.381-.638a1.027,1.027,0,0,1-.1-.283,6.1,6.1,0,0,1,.086-2.342,20.485,20.485,0,0,1,.521-2.168c.146-.5.321-1.05.531-1.655q.121-.348.245-.687c.285-.779.58-1.518.851-2.168.206-.494.4-.937.563-1.307A1.156,1.156,0,0,0,217,33.108a1.387,1.387,0,0,0-.733-.625l1.311.5-1.312-.5h0l-.35-.133.121.046-.42-.16a1.528,1.528,0,0,0-1.933.711l-.072.163c-.279.631-.623,1.437-.979,2.342-.233.593-.472,1.229-.7,1.885l-.037.11c-.31-.633-.644-1.318-.973-2s-.656-1.351-.946-1.954c.046-.128.093-.257.141-.388l.1-.265c-.07.09-.144.179-.221.265q-.066.074-.135.147l-.07-.147,0-.01a1.369,1.369,0,0,0-2.47,1.183l.2.412.019.039.347.718c.334.692.695,1.433,1.045,2.151l.008.017c.418.856.82,1.678,1.146,2.342l.092.188.033.067h-.024c.118.856.222,1.763.311,2.728.007.077.014.156.02.233l-.02.014c-.1.069-.268.18-.49.316-1.145.7-3.734,2.069-5.979,1.637a4.01,4.01,0,0,1-2.7-1.977c-1.62-2.583-.671-6.191-.127-8.189a8.087,8.087,0,0,0,2.127,1.038l.29-1,.078-.27.374-1.264a5.6,5.6,0,0,1-1.572-.823,2.541,2.541,0,0,1-1.16-2.3,1.318,1.318,0,0,0-2.629-.2,4.943,4.943,0,0,0,.4,2.415,1.361,1.361,0,0,0-.3.678c-.022.153-.127.539-.229.913-.6,2.212-1.858,6.816.425,10.456a6.694,6.694,0,0,0,4.512,3.214,7.349,7.349,0,0,0,1.381.127,12.437,12.437,0,0,0,5.541-1.555c-.766,1.838-2.036,4.929-2.588,6.518a3.215,3.215,0,0,0,.7,3.08A12.922,12.922,0,0,0,207.4,64.73c.526,2.607,2.226,10.276,4.13,17.346,2.976,11.051,4.606,14.093,5.854,15.132l-.127.134c-.645.677-1.588,1.669-1.345,2.859-3.836.332-6.049,1.264-6.9,2.883a3.216,3.216,0,0,0,.1,3.075l.012.023a1.691,1.691,0,0,1-1.706,2.369,1.361,1.361,0,0,0-1.429,1.238q-.005.173-.009.347a1.693,1.693,0,0,0,1.792,1.624h46.894V.02Zm7,7.483a.907.907,0,0,1-.656.165,44.329,44.329,0,0,0-8.793.144c-.766.069-1.506.145-2.2.222-.424.047-.665-.421-.345-.671a8.172,8.172,0,0,1,4-1.641,1.2,1.2,0,0,0,1.11-1.131c0-.01,0-.02,0-.03a1.266,1.266,0,0,1,1.581-1.083,11.9,11.9,0,0,1,2.207.66,7.9,7.9,0,0,1,3.1,2.165c.058.07.11.135.155.195l.014.019a.685.685,0,0,1-.169.986M213.963,108.551a.617.617,0,0,1-.506-1.053.9.9,0,0,0,.025-1.33l-.041-.04a1.455,1.455,0,0,1,.9-2.473,23.577,23.577,0,0,1,3.7-.364c2.02-.064,4.019-.049,5.168-.031a11.917,11.917,0,0,1,1.927.188c.6.109,1.18.215,1.723.316a2.919,2.919,0,0,1,2.488,2.536h0l.171,2.249Zm10.211-40.686h0c-.56-1.462-.416-3.373-.977-4.121s-2.143-1.24-3.775,0a1.567,1.567,0,0,0-.17,2.32,14.6,14.6,0,0,1,1.494,2.837c1.87,4.868,4.85,12.786,5.886,16.458a98.377,98.377,0,0,1,1.985,12.966,2.04,2.04,0,0,1-2.539,2.018c-1.817-.329-3.873-.683-5.9-.992l-.088-.014c.679-.715,1.548-1.678,1.249-2.877a2.5,2.5,0,0,0-1.528-1.645c-.19-.212-.885-1.157-2.123-4.7-.845-2.416-1.8-5.611-2.831-9.5-1.812-6.814-3.408-14.028-3.9-16.455a10.616,10.616,0,0,1,.194-5.214.772.772,0,0,1,1.032-.425,14.119,14.119,0,0,0,2.783.788,15.826,15.826,0,0,0,2.772.242,17.219,17.219,0,0,0,5.105-.786c.772-.24,1.522-.5,2.246-.769a48.147,48.147,0,0,0,5.268-2.342l.31-.161a1.954,1.954,0,0,1,1.965.094l.1.068a27.8,27.8,0,0,1,3,2.342,17.156,17.156,0,0,1,5.31,7.927,12.663,12.663,0,0,1-1.718,10,1.8,1.8,0,0,0,.766,2.511l.356.2a2.372,2.372,0,0,1,1.121,1.329c1.5,4.664,2.755,12.235-2.983,16,0,0-1.048.847-.5,1.6s2.053,2.514,3.381,1.284a9.163,9.163,0,0,0,1.594-2.081,5.824,5.824,0,0,1,.556,2.43,5.078,5.078,0,0,1-.592,2.7c-2-.42-5.07.364-7.578,1.118l-.425.129a1.838,1.838,0,0,1-2.436-1.4c-.474-5.094-1.361-13.3-2.448-17.148-1.079-3.825-4.084-11.811-5.97-16.716M246,105.854l0,.007a7.051,7.051,0,0,0-.6,2.69H232.1a.46.46,0,0,1-.212-.89c.022-.008,2.185-.868,4.654-1.6,8.008-2.37,8.766-.895,9.105-.8a.465.465,0,0,1,.346.589m5.049.635a2.207,2.207,0,0,1-2.327,2.062,14.027,14.027,0,0,0,.733-1.733,3.142,3.142,0,0,0-.611-3.559,3.477,3.477,0,0,0-.916-.632,1.428,1.428,0,0,1-.847-1.539,9.462,9.462,0,0,0,.108-2.827,7.8,7.8,0,0,0-2.085-4.627,16.757,16.757,0,0,0,1.069-10.006,31.862,31.862,0,0,0-1.44-5.554,8.849,8.849,0,0,1-.179-5.3,14.266,14.266,0,0,0,.019-7.617,18.4,18.4,0,0,0-4.045-7.2,1.135,1.135,0,0,1,.062-1.592,28.245,28.245,0,0,0,5.814-9.409,52.942,52.942,0,0,0,2.243-6.732c.252-.021.493-.039.718-.054a1.5,1.5,0,0,1,1.686,1.383Z" transform="translate(-175.629 0.002)" fill="#0d1a35"/>
    <path id="패스_27499" data-name="패스 27499" d="M208.081,233.417l1.8.863a5.058,5.058,0,0,0-.549,1.881,1.369,1.369,0,0,0,1.222,1.5,1.408,1.408,0,0,0,.141.007,1.37,1.37,0,0,0,1.361-1.23,2.218,2.218,0,0,1,.3-.975l.055.026.119-.249a1.354,1.354,0,0,1,.144-.131,1.854,1.854,0,0,1,.592-.293,3.208,3.208,0,0,1,.712-.126,3.586,3.586,0,0,1,.734.02h-.009l.414-2.454.042-.246a5.973,5.973,0,0,0-3.693.621,4.312,4.312,0,0,0-.4.264l-2.16-1.033-1.025-.49-.978-.468q-1.046.468-2.134.931l1.587.759Z" transform="translate(-181.926 -205.141)" fill="#0d1a35"/>
    <path id="패스_27500" data-name="패스 27500" d="M345.6,377.583a6.1,6.1,0,0,0-.086,2.342H369.3l1.2-2.232a1.917,1.917,0,0,1-.265-.11Z" transform="translate(-306.895 -335.453)" fill="#195528"/>
    <path id="패스_27501" data-name="패스 27501" d="M336.977,420.346H359.36L360.616,418H337.95c-.223.532-.579,1.384-.973,2.342" transform="translate(-299.378 -371.364)" fill="#195528"/>
    <path id="패스_27502" data-name="패스 27502" d="M322.48,460.767h15.706c1.594-.768,2.961-1.538,4.018-2.181,0,0,.059-.061.163-.161H323.215c-.221.553-.432,1.089-.616,1.572a1.842,1.842,0,0,0-.118.77" transform="translate(-286.496 -407.275)" fill="#195528"/>
    <path id="패스_27503" data-name="패스 27503" d="M448.617,498.846a48.2,48.2,0,0,1-5.268,2.342H454a27.8,27.8,0,0,0-3-2.342Z" transform="translate(-393.881 -443.186)" fill="#195528"/>
    <path id="패스_27504" data-name="패스 27504" d="M350.141,498.931l.266-.085h-8.093a12.054,12.054,0,0,0,7.826.085" transform="translate(-304.121 -443.186)" fill="#195528"/>
    <path id="패스_27505" data-name="패스 27505" d="M337.517,218.242h31.249a6.98,6.98,0,0,0-1.418-2.342H340.226l-1.785,1.46a8.261,8.261,0,0,0-.924.882" transform="translate(-299.858 -191.81)" fill="#195528"/>
    <path id="패스_27506" data-name="패스 27506" d="M318.472,256.32c-.262.619-.53,1.267-.793,1.919a4,4,0,0,1-.051.423h22.966c.05-.48.117-.946.186-1.361a1.493,1.493,0,0,1,.65-.981Z" transform="translate(-282.188 -227.72)" fill="#195528"/>
    <path id="패스_27507" data-name="패스 27507" d="M551.97,258.589c-.007.025-.013.049-.02.073h8.22c-.219-.715-.452-1.493-.7-2.342h-8.023a1.451,1.451,0,0,1,.708,1.526c-.049.236-.109.487-.183.743" transform="translate(-489.916 -227.72)" fill="#195528"/>
    <path id="패스_27508" data-name="패스 27508" d="M307.959,296.741c-.048.131-.1.26-.141.388.29.6.615,1.274.946,1.954h1.711c.356-.906.7-1.712.979-2.342Z" transform="translate(-273.473 -263.631)" fill="#195528"/>
    <path id="패스_27509" data-name="패스 27509" d="M366.119,299.083h18.36a3.726,3.726,0,0,1-.863-2.342H366.638a1.156,1.156,0,0,1,.044,1.036c-.164.369-.357.812-.563,1.307" transform="translate(-325.269 -263.631)" fill="#195528"/>
    <path id="패스_27510" data-name="패스 27510" d="M554.721,296.741a4.1,4.1,0,0,0,.95,2.016.506.506,0,0,1,.128.327h8.755c-.241-.673-.5-1.445-.793-2.342Z" transform="translate(-492.827 -263.631)" fill="#195528"/>
    <path id="패스_27511" data-name="패스 27511" d="M352.066,337.849c-.21.6-.385,1.154-.531,1.655h23.42a1.659,1.659,0,0,1,.583-.556,17.247,17.247,0,0,1,5.157-1.787H352.312q-.124.339-.245.687" transform="translate(-312.312 -299.542)" fill="#195528"/>
    <path id="패스_27512" data-name="패스 27512" d="M539.6,54.758l-.369-9.144s.369-3.919-3.5-4.082-8.479-.653-8.294.327.369,6.368-1.659,6.531,0,1.8,4.239,4.409a90.891,90.891,0,0,1,8.11,5.388c1.165.968,1.627-2.02,1.474-3.429" transform="translate(-466.412 -36.66)" fill="#195528"/>
    <path id="패스_27513" data-name="패스 27513" d="M246.144,570.746c-.724,1.362-.737,41.8,1.474,41.637s2.027-5.878,4.608-6.531c0,0,4.792-.327,4.977-1.959s-6.082-15.675-6.82-23.839-2.765-12.083-4.239-9.307" transform="translate(-218.294 -506.277)" fill="#195528"/>
    <path id="패스_27514" data-name="패스 27514" d="M38.274,156.872a1.776,1.776,0,0,0-1.985-.432c-13.763,5.987-21.137,7.326-24.307,7.591-2.5.209-4.275-.047-5.291-.759-1.14-.8-1.482-2.264-1.015-4.353a.83.83,0,0,0-.412-.855A1.975,1.975,0,0,0,4,157.75H4a1.3,1.3,0,0,0-1.037.544,25.743,25.743,0,0,0-2.581,5.688c-.715,2.552-.424,4.344.888,5.479,1.134.98,2.911,1.376,5.283,1.178a26.231,26.231,0,0,0,5-1.012,101.863,101.863,0,0,0,11.293-4.069q1.087-.462,2.134-.931a137.516,137.516,0,0,0,13-6.686.7.7,0,0,0,.287-1.07" transform="translate(0 -138.864)" fill="#195528"/>
    <path id="패스_27515" data-name="패스 27515" d="M401.454,33.987c-.045-.06-.1-.125-.155-.2a7.894,7.894,0,0,0-3.1-2.165,11.9,11.9,0,0,0-2.207-.66,1.266,1.266,0,0,0-1.581,1.083c0,.01,0,.02,0,.03a1.2,1.2,0,0,1-1.11,1.131,8.173,8.173,0,0,0-4,1.641c-.32.25-.079.718.345.671.693-.077,1.434-.153,2.2-.222a44.328,44.328,0,0,1,8.793-.144.907.907,0,0,0,.656-.165.685.685,0,0,0,.169-.986l-.014-.018" transform="translate(-345.737 -27.486)" fill="#6e9cd3"/>
    <path id="패스_27516" data-name="패스 27516" d="M608.681,426.131a.727.727,0,0,0-1.319-.315c-2.332,3.479-6.7,7.782-4.412,10.315,2.949,3.266,3.133,16.328,3.686,19.1s2.212.98,2.212.98Z" transform="translate(-535.103 -378.029)" fill="#6e9cd3"/>
    <path id="패스_27517" data-name="패스 27517" d="M190.5,417.75s-1.659-.816-2.212.49-.184,13.552,1.843,16.818c0,0,0,4.409,2.212,3.592s1.843-6.695,3.318-6.858,2.58-4.735,2.58-4.735a10.569,10.569,0,0,1,.922-6.041c1.475-2.612-7,1.47-8.663-3.266" transform="translate(-167.077 -370.914)" fill="#6e9cd3"/>
    <path id="패스_27518" data-name="패스 27518" d="M199.661,31.573c-5.391.49-11.75,9.919-14.515,14.818s3.594,1.1,6.912-.123,6.221-1.469,7.741-1.959-.138-2.817-.138-2.817c-.691-4.9,2.35-7.225,3.594-8.572s1.8-1.837-3.594-1.347" transform="translate(-163.885 -27.885)" fill="#6e9cd3"/>
  </g>
</svg>
