<svg id="PPS_1" xmlns="http://www.w3.org/2000/svg" xmlns:xlink="http://www.w3.org/1999/xlink" width="139.726" height="98.045" viewBox="0 0 139.726 98.045">
  <defs>
    <clipPath id="clip-path">
      <rect id="사각형_6125" data-name="사각형 6125" width="139.726" height="98.045" fill="none"/>
    </clipPath>
  </defs>
  <g id="그룹_11563" data-name="그룹 11563" clip-path="url(#clip-path)">
    <path id="패스_23188" data-name="패스 23188" d="M810.829,477.832l-4.205,1.324a7.848,7.848,0,0,0,.225.895l4.281-2.035a.23.23,0,0,0-.3-.183" transform="translate(-716.623 -424.506)" fill="#2da05c"/>
    <path id="패스_23189" data-name="패스 23189" d="M901.543,477.982q.218.366.448.722-.186-.377-.371-.755Z" transform="translate(-800.952 -424.621)" fill="#2da05c"/>
    <path id="패스_23190" data-name="패스 23190" d="M511.336,51.524c-4-7.281-28.964-52.26-35.183-51.514-2.9.348-10.11,9.476-17.412,19.8a2.094,2.094,0,0,1-3.025.417c-1.922-1.549-3.5-2.441-4.522-2.352-5.4.469-27.3,25.177-32.606,31.252a.856.856,0,0,0,.606,1.419l22.755,1.037a1.659,1.659,0,0,0,.343-.562l0-.009c.653-1.79,3.25-2.664,7.938-2.673h.072a52.425,52.425,0,0,1,6.227.407l-.245,1.825a51.553,51.553,0,0,0-5.983-.391h-.084c-4.178.01-4.939.678-5.383,1.622a1.964,1.964,0,0,0,.537,2.441,41.5,41.5,0,0,0,7.734,5.905l-.988,1.554c-3.775-2.4-7.754-5.044-8.385-5.675A5.236,5.236,0,0,0,439.2,54.5c-1.916.509-2.355.964-2.547,1.87-.314,1.481,1.582,3.958,5.2,6.8a59.208,59.208,0,0,0,6.191,4.188l-.916,1.6a60,60,0,0,1-6.4-4.325q-.365-.286-.707-.566a.656.656,0,0,0-1.063.621c1,5.66,6.49,10.818,6.556,10.879l-1.251,1.351a29.888,29.888,0,0,1-4.074-4.879q-.37-.553-.7-1.1c1.184,10.5,12.751,15.665,12.751,15.665,4.921,4.926,10.827,5.876,16.68,4.735a.737.737,0,0,1,.5-.646,55.968,55.968,0,0,0,17.091-8.729,27.364,27.364,0,0,0,7.861-9.455,18.231,18.231,0,0,0,1.883-9.738.737.737,0,0,1,.568-.8l.363-.083a.736.736,0,0,1,.895.631,18.959,18.959,0,0,1-.858,7.785.736.736,0,0,0,1.154.8,16.1,16.1,0,0,0,6.2-9.263,17.484,17.484,0,0,0,.021-7.031,27.081,27.081,0,0,0-2.048-6.26,34.641,34.641,0,0,0-3.229-5.581.736.736,0,0,1,.14-1l.29-.231a.736.736,0,0,1,1.056.145,36.247,36.247,0,0,1,3.417,5.9,30.523,30.523,0,0,1,1.747,4.783l4.763-.033a.673.673,0,0,0,.586-1m-59.1-18.99a117.4,117.4,0,0,0-8.37,14.935,1.669,1.669,0,0,1-2.078.807.962.962,0,0,1-.513-1.345,143.253,143.253,0,0,1,9.463-15.468q1.267-1.813,2.6-3.618a1.229,1.229,0,0,0,.095-1.186,2.5,2.5,0,0,0-3.006-1.547c-2.046.548-5.8,2.286-10.727,7.732-4.122,4.555-7.748,9-7.782,9.044l-1.473-1.1a107.712,107.712,0,0,1,7.937-9.224,47.942,47.942,0,0,1,7.06-6.148c2.8-1.9,5.09-2.676,7-2.362a9.152,9.152,0,0,1,1.416.325,3.438,3.438,0,0,0,3.782-1.093q1.524-1.893,3.108-3.754A145.866,145.866,0,0,1,471.585,6.98l1.247,1.355a144.12,144.12,0,0,0-10.7,11.409c-3.542,4.162-6.87,8.465-9.893,12.791m25.171,29.513q-.238-.32-.466-.644-.577-.449-1.127-.93a25.736,25.736,0,0,1-5.238-6.388l-7.421,3.142a.353.353,0,0,0-.153.525,10.645,10.645,0,0,0,1.287,1.544c2.312,2.312,4.849,3.369,7.54,3.14a8.254,8.254,0,0,0,3.433-1.057l1,1.544a9.942,9.942,0,0,1-4.182,1.34c-.294.028-.608.044-.938.044a11.372,11.372,0,0,1-8.157-3.708,11.8,11.8,0,0,1-2.1-2.784l-2.437,1.113-.9-1.306,2.693-1.28a9.715,9.715,0,0,1-.32-1.167l-2.863.978L456,54.764l3.722-1.326a11.121,11.121,0,0,1,.323-2.954,13.837,13.837,0,0,1,2.251-4.819l1.45,1.136a12.164,12.164,0,0,0-1.926,4.179,9.865,9.865,0,0,0-.216,1.253.353.353,0,0,0,.457.372l6.744-2.123a21.9,21.9,0,0,1-1.3-4.35l1.819-.288a20.979,20.979,0,0,0,1.251,4.083l2.433-.766L490,42.558l.473,1.1.849-.359.718,1.7L473.81,52.716l19.291.227c-.216,1.052-.462,2.117-.74,3.21-1.181,4.64-2.616,7.774-5.894,10.66a11.592,11.592,0,0,1-9.062-4.766m19.649-10.533a22.009,22.009,0,0,1-2.473,9.993,23.319,23.319,0,0,1-8.845,9.012.518.518,0,0,1-.715-.184l-.4-.7a.517.517,0,0,1,.181-.7,21.519,21.519,0,0,0,8.138-8.254,20.154,20.154,0,0,0,2.277-9.135,27.771,27.771,0,0,0-1.739-9.987.528.528,0,0,1,.279-.67l.721-.32a.527.527,0,0,1,.706.29,29.266,29.266,0,0,1,1.875,10.656" transform="translate(-371.694 -0.001)" fill="#2da05c"/>
    <path id="패스_23191" data-name="패스 23191" d="M774.1,267.984c0,.68.667,1.059,1.439,1.059a1.187,1.187,0,0,0,1.311-1.156,1.207,1.207,0,0,0-1.269-1.23,1.481,1.481,0,0,0-1.481,1.327" transform="translate(-687.725 -236.904)" fill="#1a1311"/>
    <path id="패스_23192" data-name="패스 23192" d="M806.695,277.314c0,.68.667,1.059,1.439,1.059a1.187,1.187,0,0,0,1.311-1.156,1.207,1.207,0,0,0-1.269-1.23,1.481,1.481,0,0,0-1.481,1.327" transform="translate(-716.686 -245.193)" fill="#1a1311"/>
    <path id="패스_23193" data-name="패스 23193" d="M60.331,602.112c-.153.075-.316.145-.473.211a5.917,5.917,0,0,0-.8.389,5.378,5.378,0,0,0-.7.54l-.04.039-.054.054-.033.024a1.416,1.416,0,0,1-.147.087l-.115.055c-.159.074-.3.14-.373.182l-.063.018h0l-.016,0-.037-.008-.141-.032c-.054-.013-.107-.025-.161-.037a3.862,3.862,0,0,0-1.019-.105,2.539,2.539,0,0,0-1.09.311c-.053.029-.1.059-.149.089l-.073.045a3.1,3.1,0,0,0-.643.107,2.272,2.272,0,0,0-.864.487c-.138.113-.264.237-.386.357a1.56,1.56,0,0,0-.774.206,4.008,4.008,0,0,0-.713.558l-.043.036a2,2,0,0,0-1.231.7c-.1.123-.205.261-.324.428a1.388,1.388,0,0,0-.29.054,3.14,3.14,0,0,0-1.007.546,1.568,1.568,0,0,0-1.357-.252,2.694,2.694,0,0,0-.577.269,1.371,1.371,0,0,0-1.553-.448,3.1,3.1,0,0,0-1.15.7l-.042.045a1.491,1.491,0,0,0-.848.428c-.313.313-.607.649-.891.974l-.016.018-.074-.015a2.031,2.031,0,0,0-1.456.237,3.527,3.527,0,0,0-.433.322l-.023.016-.059.042c-.294.2-.6.4-.9.6a1.262,1.262,0,0,0-1.117-.1,5.133,5.133,0,0,0-1.8,1.2,1.749,1.749,0,0,0-.527.036,2.689,2.689,0,0,0-1.412,1.037c-.092.106-.179.206-.27.3l-.047.049a1.572,1.572,0,0,0-.554-.4,1.552,1.552,0,0,0-1.932.629c-.038.06-.076.121-.114.184l-.011-.015a1.578,1.578,0,0,0-1.612-.558,1.9,1.9,0,0,0-1.259,1.163c-.07.137-.133.278-.194.414-.031.069-.062.139-.095.209a1.526,1.526,0,0,0-.482-.319,1.565,1.565,0,0,0-1.931.628c-.069.106-.141.219-.212.336q-.087.091-.176.18a9.333,9.333,0,0,0-.767.911l-.095.123-.034.044a1.552,1.552,0,0,0-2.077-.518,3.75,3.75,0,0,0-1.192,1.193l-.056.076c-.058.079-.117.161-.178.248a1.472,1.472,0,0,0-.69-.908,1.545,1.545,0,0,0-1.576.007,4.552,4.552,0,0,0-.473.375,1.555,1.555,0,0,0-2.641-1.066,2.823,2.823,0,0,0-.536.737,1.772,1.772,0,0,0-1.334-.161,3.754,3.754,0,0,0-2.062,1.868c-.328.541-.662,1.111-1.014,1.732.044-.137.087-.261.129-.38l.028-.077c.029-.083.059-.169.093-.248l.11-.225a1.62,1.62,0,0,0-.06-1.619l.027-.028.046-.046.082-.081a1.544,1.544,0,0,0,.451-1.132,1.47,1.47,0,0,0-.454-1.067,1.572,1.572,0,0,0-2.182,0c-.042.039-.085.082-.129.127-.21.208-.414.421-.608.637.054-.11.1-.212.148-.309s.092-.192.14-.29c.422-.867.9-1.85.312-2.826a1.643,1.643,0,0,0-.1-.147,1.512,1.512,0,0,0,.423-1.17,1.633,1.633,0,0,0-.5-1.037,2.734,2.734,0,0,0,.592-1.836,1.7,1.7,0,0,0-.4-1.005A2.083,2.083,0,0,0,8.927,607c.007-.048.012-.1.016-.145a2.755,2.755,0,0,0,.722-1.21,1.686,1.686,0,0,0-.207-1.256,1.412,1.412,0,0,0-.885-.646,1.573,1.573,0,0,0-1.865.969l-.078.082c-.074.077-.15.157-.223.24l-.107.12a2.988,2.988,0,0,0-.731,1.135,1.393,1.393,0,0,0-.049.549c-.152.169-.3.326-.441.478-.323.341-.671.69-1.035,1.036a3.513,3.513,0,0,0-1.031,1.441,1.52,1.52,0,0,0,.188,1.246,1.544,1.544,0,0,0,.755.655,14.245,14.245,0,0,0-.657,1.477c-.191.191-.344.355-.482.513a8.917,8.917,0,0,0-2.274,5.485,1.508,1.508,0,0,0,1.186,1.488c-.249.344-.5.716-.765,1.151l-.155.25A8.874,8.874,0,0,0,.076,623.4a1.532,1.532,0,0,0,.712,1.775,1.684,1.684,0,0,0,.248.106,3.337,3.337,0,0,0-.038.669,1.554,1.554,0,0,0,.609,1.209q.046.035.094.068l-.014.019a1.551,1.551,0,0,0,2.426,1.891l.089-.094.2-.208-.213.548c-.024.047-.045.095-.065.141-.012.027-.023.053-.035.079l-.024.051a5.238,5.238,0,0,0-.317.783,2.751,2.751,0,0,0-.041,1.213A1.541,1.541,0,0,0,5.2,632.806a1.557,1.557,0,0,0,1.1-.454c.419-.426.8-.867,1.143-1.274a1.67,1.67,0,0,0,.536.928,1.447,1.447,0,0,0,1.415.328,7.907,7.907,0,0,0,2.931-2.14l.194-.193.379-.376.263-.261a1.6,1.6,0,0,0,1.905-.234c.35-.362.724-.754,1.138-1.194a1.6,1.6,0,0,0,.141.215,1.5,1.5,0,0,0,1.225.61,2.2,2.2,0,0,0,1.515-.645,1.551,1.551,0,0,0,2.4.264c1.928-2.153,4.171-4.72,6.216-7.455a1.691,1.691,0,0,0,.668-.187c.278-.143.559-.3.835-.48a1.565,1.565,0,0,0,2.005-.14c.072-.067.146-.142.227-.23l.07-.071a1.365,1.365,0,0,0,.356.541,1.621,1.621,0,0,0,1.857.245,3.856,3.856,0,0,0,.953-.71c.117-.108.228-.21.343-.3.4-.335.817-.671,1.226-1,.685-.549,1.416-1.158,2.3-1.915l.582-.5a2.185,2.185,0,0,0,.694-.3,4.451,4.451,0,0,0,.711-.62,1.84,1.84,0,0,0,.683-.369,33.023,33.023,0,0,0,2.584-2.5l.139-.145.146-.151a1.736,1.736,0,0,0,.98.577,1.289,1.289,0,0,0,1.032-.208,8.093,8.093,0,0,0,1.177-1.079c.029.007.058.013.087.017a2.273,2.273,0,0,0,1.527-.254,5.109,5.109,0,0,0,.811-.587l.054-.045c.072-.06.144-.121.215-.183l.18-.154.078-.067a1.888,1.888,0,0,0,1.019-.252,3.586,3.586,0,0,0,1.11-1.161l.007-.01a2.752,2.752,0,0,0,1.03-.56,2.179,2.179,0,0,0,.751-.217,3.8,3.8,0,0,0,.943-.732l.14-.136a2.887,2.887,0,0,0,1.025-.3c.06-.031.116-.065.17-.1l.049.011.024.005a5.547,5.547,0,0,0,.977.156,4.078,4.078,0,0,0,1.991-.582,4.352,4.352,0,0,0,.787-.526c.081-.066.159-.135.246-.211l.1-.086.057-.048c.042-.021.087-.041.124-.058l.065-.03c.091-.046.185-.089.272-.128l.254-.11c.167-.072.34-.146.509-.229a1.427,1.427,0,0,0,.716-.916,1.526,1.526,0,0,0-.153-1.217,1.578,1.578,0,0,0-2.1-.555" transform="translate(0 -534.761)" fill="#1a1311"/>
    <path id="패스_23194" data-name="패스 23194" d="M535.823,88.412c4.928-5.446,8.681-7.184,10.727-7.732a2.5,2.5,0,0,1,3.006,1.547,1.229,1.229,0,0,1-.095,1.186q-1.335,1.8-2.6,3.619a143.249,143.249,0,0,0-9.463,15.468.961.961,0,0,0,.513,1.345,1.668,1.668,0,0,0,2.078-.807,117.414,117.414,0,0,1,8.37-14.935c3.023-4.326,6.351-8.629,9.893-12.791a144.121,144.121,0,0,1,10.7-11.409l-1.247-1.355a145.885,145.885,0,0,0-10.839,11.546q-1.583,1.86-3.108,3.754a3.438,3.438,0,0,1-3.782,1.093,9.152,9.152,0,0,0-1.416-.325c-1.906-.315-4.194.458-7,2.362a47.95,47.95,0,0,0-7.06,6.148,107.685,107.685,0,0,0-7.937,9.224l1.473,1.1c.034-.046,3.66-4.489,7.782-9.044" transform="translate(-467.815 -55.57)" fill="#1a1311"/>
    <path id="패스_23195" data-name="패스 23195" d="M1019.825,383.33a21.522,21.522,0,0,1-8.138,8.254.517.517,0,0,0-.181.7l.4.7a.518.518,0,0,0,.715.184,23.318,23.318,0,0,0,8.845-9.012,22.006,22.006,0,0,0,2.474-9.993,29.269,29.269,0,0,0-1.875-10.656.527.527,0,0,0-.706-.29l-.721.32a.528.528,0,0,0-.279.67,27.773,27.773,0,0,1,1.739,9.987,20.156,20.156,0,0,1-2.277,9.135" transform="translate(-898.584 -322.65)" fill="#1a1311"/>
    <path id="패스_23196" data-name="패스 23196" d="M908.967,385.389q-.177-.943-.437-1.905a30.54,30.54,0,0,0-1.747-4.783,36.237,36.237,0,0,0-3.417-5.9.736.736,0,0,0-1.056-.145l-.29.231a.736.736,0,0,0-.14,1.005,34.634,34.634,0,0,1,3.229,5.581,27.072,27.072,0,0,1,2.048,6.26,17.481,17.481,0,0,1-.021,7.031,16.1,16.1,0,0,1-6.2,9.263.736.736,0,0,1-1.155-.8,18.961,18.961,0,0,0,.858-7.785.736.736,0,0,0-.895-.631l-.363.083a.737.737,0,0,0-.568.8,18.231,18.231,0,0,1-1.883,9.738,27.363,27.363,0,0,1-7.861,9.455,55.965,55.965,0,0,1-17.091,8.729.737.737,0,0,0-.468.925l.114.351a.737.737,0,0,0,.934.471,57.782,57.782,0,0,0,17.655-9.034,33.228,33.228,0,0,0,4.932-4.779,27.63,27.63,0,0,1,5.647-5.139c4.424-3.032,7.157-6.8,8.144-11.25a19.313,19.313,0,0,0,.033-7.769" transform="translate(-774.237 -330.93)" fill="#1a1311"/>
    <path id="패스_23197" data-name="패스 23197" d="M574.205,439.154a1.964,1.964,0,0,1-.536-2.441c.444-.944,1.205-1.612,5.383-1.622h.084a51.533,51.533,0,0,1,5.983.391l.245-1.825a52.428,52.428,0,0,0-6.227-.407h-.073c-4.688.009-7.285.883-7.938,2.673l0,.009A1.656,1.656,0,0,1,569.859,437c-3.73.656-5.756,1.939-6.171,3.9-.327,1.544.411,3.309,2.247,5.341a11.478,11.478,0,0,0,.3,4.775l-2.844,1.479.85,1.634.992-.516a1.69,1.69,0,0,1,2.29.748q.369.736.815,1.482.329.55.7,1.1a29.891,29.891,0,0,0,4.074,4.879l1.251-1.351c-.066-.061-5.556-5.218-6.556-10.879a.656.656,0,0,1,1.063-.621q.342.28.707.566a59.98,59.98,0,0,0,6.4,4.325l.916-1.6a59.215,59.215,0,0,1-6.191-4.188c-3.62-2.839-5.516-5.317-5.2-6.8.192-.906.631-1.361,2.547-1.87a5.236,5.236,0,0,1,4.531,1.531c.631.631,4.609,3.276,8.385,5.675l.988-1.554a41.514,41.514,0,0,1-7.734-5.905" transform="translate(-500.525 -384.909)" fill="#1a1311"/>
    <path id="패스_23198" data-name="패스 23198" d="M771.684,403.118a9.943,9.943,0,0,0,4.182-1.34l-1-1.544a8.253,8.253,0,0,1-3.433,1.057,9.367,9.367,0,0,1-7.54-3.14,10.631,10.631,0,0,1-1.287-1.544.353.353,0,0,1,.153-.525l7.421-3.142a25.732,25.732,0,0,0,5.238,6.388q.549.482,1.127.93a26.151,26.151,0,0,0,7.963,4.2l.573-1.75a24.071,24.071,0,0,1-8.414-4.729,23.709,23.709,0,0,1-4.328-5.036q-.229-.357-.449-.722l.077-.033,1.448-.613,18.228-7.718-.718-1.7-.849.359-.472-1.1-16.994,6.6-2.433.766a20.972,20.972,0,0,1-1.251-4.083l-1.818.288a21.885,21.885,0,0,0,1.3,4.35l-6.744,2.123a.353.353,0,0,1-.457-.372,9.853,9.853,0,0,1,.216-1.253,12.161,12.161,0,0,1,1.927-4.179l-1.45-1.136a13.837,13.837,0,0,0-2.251,4.819,11.132,11.132,0,0,0-.324,2.954l-3.721,1.326,1.061,1.388,2.863-.978a9.728,9.728,0,0,0,.32,1.167l-2.693,1.28.9,1.306,2.438-1.113a11.81,11.81,0,0,0,2.1,2.784,11.372,11.372,0,0,0,8.157,3.708c.331,0,.644-.016.938-.044M761.3,393.506l4.205-1.324a.23.23,0,0,1,.3.183l-4.281,2.035a7.829,7.829,0,0,1-.225-.895" transform="translate(-671.298 -338.856)" fill="#1a1311"/>
  </g>
</svg>
