<svg id="PPS_2" xmlns="http://www.w3.org/2000/svg" xmlns:xlink="http://www.w3.org/1999/xlink" width="130.063" height="109.635" viewBox="0 0 130.063 109.635">
  <defs>
    <clipPath id="clip-path">
      <rect id="사각형_6126" data-name="사각형 6126" width="130.063" height="109.635" fill="none"/>
    </clipPath>
  </defs>
  <g id="그룹_11565" data-name="그룹 11565" clip-path="url(#clip-path)">
    <path id="패스_23199" data-name="패스 23199" d="M728.234,453.864h0a.138.138,0,0,0,.015.015.555.555,0,0,1,.058.048.218.218,0,0,0-.07-.062" transform="translate(-646.977 -403.222)" fill="#e64800"/>
    <path id="패스_23200" data-name="패스 23200" d="M722.565,33.14c.411-.191,1.138.314,1.561.145.3-.122.871.543,1.325.865q.308-.113.619-.217c.069-.437.044-1.174.062-1.775l0,0c-.43.221-2.425-2.343-2.844-2.1s-1.192.157-1.6.426c-.263.174.379,1.668.745,2.762a.374.374,0,0,1,.134-.111" transform="translate(-641.108 -26.694)" fill="#e64800"/>
    <path id="패스_23201" data-name="패스 23201" d="M855.946,470.99c-.316.051-.39,1.813-.567,2.858a11.11,11.11,0,0,1,.961-2.547c-.148-.2-.283-.33-.394-.311" transform="translate(-759.939 -418.437)" fill="#e64800"/>
    <path id="패스_23202" data-name="패스 23202" d="M625.635,187.586a1.781,1.781,0,0,0,.86-.036c.012-.034.024-.069.036-.1a.731.731,0,0,0-.209-.3,2.5,2.5,0,0,1-.687.438" transform="translate(-555.829 -166.267)" fill="#e64800"/>
    <path id="패스_23203" data-name="패스 23203" d="M690.677,63.907c.375-.255.647-.623,1.036-.858l.052-.031c-1.142-.883-2.446-1.949-2.652-1.759-.3.278,1.036,2.272,1.273,3.109a.875.875,0,0,1,.291-.462" transform="translate(-612.185 -54.404)" fill="#e64800"/>
    <path id="패스_23204" data-name="패스 23204" d="M625.761,135.66c.182-.3,1.685.271,2.466.366q.16-.259.326-.514c-.241-.412-.739-1-1.1-1.5-.372.322-1.429.369-1.618.764-.209.439-.389,1.033-.573,1.481a.261.261,0,0,0,.052.223c.142-.28.286-.563.443-.823" transform="translate(-555.492 -119.062)" fill="#e64800"/>
    <path id="패스_23205" data-name="패스 23205" d="M671.415,95.9c.161-.164.323-.326.49-.485l.015-.014c.019-.382-.037-.834.186-1.023.346-.294.84-.311,1.2-.586a.822.822,0,0,0,.245-.375c-.342.248-.815.343-1.09.658-.32.367-1.846-.249-2.144.132-.161.206.387.927.886,1.61.076.034.146.062.211.085" transform="translate(-595.501 -82.989)" fill="#e64800"/>
    <path id="패스_23206" data-name="패스 23206" d="M884.919,486.494c-.269.269-.509.662-.824.75a1.219,1.219,0,0,1-.71-.13c.361,1.086.737,2.382,1.018,2.355s.383-1.664.516-2.975" transform="translate(-784.821 -432.213)" fill="#e64800"/>
    <path id="패스_23207" data-name="패스 23207" d="M822.783,471.414c.187-.319.351-.524.468-.5.146.026.265.195.375.419-.175-.6-.349-1.07-.515-1.07s-.328.436-.5,1a1.008,1.008,0,0,0,.143.136l.027.02" transform="translate(-730.829 -417.789)" fill="#e64800"/>
    <path id="패스_23208" data-name="패스 23208" d="M555.7,46.8a15.306,15.306,0,0,0-2.59-6.341,23.941,23.941,0,0,0-3.38-4.09q-.312-.3-.637-.6c-.77-.707-1.526-1.322-2.217-1.842a25.411,25.411,0,0,0-3.139-2.053l.2-.394.08-.154.563-1.086a29.437,29.437,0,0,1,5.71,4.133q.878.8,1.662,1.647c.289-.356.864-.681.952-1.062.11-.473-.97-1.279-.886-1.756s.614-.959.672-1.441-2.336-1.207-2.3-1.691,2.492-.887,2.5-1.372-.6-1.025-.62-1.51-.151-1.007-.2-1.49-2.912-.585-2.985-1.065,3.977-1.7,3.879-2.173-.65-.952-.774-1.421-.688-.895-.837-1.357-.488-.927-.662-1.38-2.026-.221-2.225-.665-1.074-.5-1.3-.927-.865-.525-1.112-.944.492-1.36.223-1.766.8-1.743.508-2.134-2.807,1.016-3.119.641,1.922-2.946,1.59-3.3-1.584.131-1.93-.205.82-2.427.456-2.744-3.59,2.8-3.97,2.5,1.294-3.363.9-3.639-1-.381-1.41-.635-2.345,2.131-2.769,1.9-.049-1.92-.485-2.128-.569-1.144-1.016-1.328-1.3.668-1.755.508-.9-.292-1.365-.427-.951-.081-1.423-.191-1.035.485-1.512.4-.849-.459-1.33-.517-.975.876-1.459.844S525.372.007,524.887,0s-.991,1.421-1.476,1.441-1.05-.763-1.533-.716-.546,3.2-1.026,3.275-1.4-2.6-1.877-2.5-.966.255-1.435.379-1.364-.983-1.827-.834.387,3.985-.067,4.159-2.668-3.863-3.111-3.664c-.325.146.189,2.085.31,3.186.033-.127.08-.211.148-.229.436-.121.889-.468,1.334-.566.332-.073,1,1.664,1.507,2.5q.324-.06.65-.11c.206-1.154.223-3.742.578-3.78.449-.048,1.142,2.084,1.6,2.059s.911-1.2,1.369-1.2.811,3.172,1.262,3.2,1.093-2.6,1.543-2.554.7,1.634,1.146,1.707.631,1.18,1.073,1.277.92-.285,1.357-.164,1.034-.447,1.463-.3,1.452-1.276,1.873-1.108.96.232,1.371.422,1.066.074,1.466.287,1.082.137,1.47.372-1.348,3.8-.972,4.052,2.27-1.651,2.631-1.377.805.518,1.151.812,1.1.221,1.433.534-.957,2.262-.645,2.592,2.335-.856,2.629-.51.289,1.017.564,1.379,1.517.131,1.773.507-.024,1.209.211,1.6-2.722,2.562-2.509,2.964,2.1-.105,2.292.308,1.093.524,1.262.947-.4,1.119-.252,1.551,0,.925.124,1.364,3.123.213,3.221.658-1.261,1.256-1.188,1.707,1.391.812,1.44,1.266-2.186,1.141-2.162,1.6-1.774.9-1.774,1.357c0,.425.168.769.173,1.178l-.367-.187c-.267-.255-.55-.537-.846-.838a2.175,2.175,0,0,0-2.228-.544l-.758.252a2.148,2.148,0,0,0-1.427,2.448l.807-.748a31.075,31.075,0,0,1,4.031,5.834q.381.7.72,1.408a28.635,28.635,0,0,1,1.846,4.9,23.79,23.79,0,0,1,.73,3.967,21.031,21.031,0,0,1,.023,3.816c-.536,6.2-3.873,11.78-9.923,16.613a.921.921,0,1,1-1.149-1.439c5.636-4.5,8.742-9.653,9.237-15.319a19.453,19.453,0,0,0-.11-4.267,22.284,22.284,0,0,0-.575-2.85,26.98,26.98,0,0,0-1.9-4.963q-.234-.471-.487-.94a32.218,32.218,0,0,0-2.709-4.192,73.983,73.983,0,0,1,1.83,7.648.441.441,0,0,0-.344.146c-.235.39-.488.634-.743,1.009-.146.215.809,1.222,1.6,2.113.057.421.111.845.162,1.274-1.036-.415-2.686-1.32-2.9-1.074-.294.346-.984.2-1.3.529s1.7,2.943,1.372,3.255-1.46-.228-1.806.067-1.592-.6-1.954-.327,1.362,3.468.986,3.723-1.935-1.242-2.325-1.007-1.2-.335-1.6-.122-1.32-.818-1.733-.626c-.263.122-.106,1.159-.068,1.937h0c.474-.1,1.3,1.6,1.771,1.477s.254-2.307.716-2.457,1.267.977,1.721.8,2.424,3.2,2.868,3,.361-1.736.793-1.959,1.054-.255,1.474-.5,1.2-.087,1.61-.356c.238-.158.512-.336.777-.516a19.482,19.482,0,0,1-4,12.279,41.111,41.111,0,0,1-9.866-4.106q-.728-.418-1.416-.882-.6-.239-1.2-.5a30.555,30.555,0,0,1-5.839-3.414l-.118-.088q-.433-.326-.855-.666a.953.953,0,0,0-1.236.037l-2.376,2.157-2.526,2.293a1.775,1.775,0,0,0,.385,2.9l.247.122a15.512,15.512,0,0,0,6.227,1.736,8.17,8.17,0,0,0,3.959-.825,7.349,7.349,0,0,0,2.46-2.017.921.921,0,1,1,1.437,1.153,9.174,9.174,0,0,1-2.961,2.453,9.857,9.857,0,0,1-4.606,1.081l-.259,0a14.672,14.672,0,0,1-4.079-.721c.04.777-.843,1.464-1.293.824l-4.852-3.673-.114.1-.627-.664-2.306-1.746-.024.023-2.041-1.388.158-.078L499.8,55.537a47.677,47.677,0,0,0-5.569,1.957c-3.544,1.53-5.571,3.144-5.562,4.429.007.9,1.173,3.258,11.611,5.911a.918.918,0,0,1,.667,1.107v.006a.918.918,0,0,1-1.117.672A38.389,38.389,0,0,1,489.917,66a5.735,5.735,0,0,0-6.492.387c-1.382,1.08-2.054,2.109-1.945,3.029.137,1.157,1.471,2.212,2.566,2.894a27.867,27.867,0,0,0,5.775,2.541,69.081,69.081,0,0,0,7.514,1.988.921.921,0,0,1-.372,1.8,70.151,70.151,0,0,1-7.707-2.04l-.035-.012a1.3,1.3,0,0,0-1.444,2.025c.088.116.179.23.271.344.04.049.081.1.122.147l.123.147a18.325,18.325,0,0,0,1.583,1.627l.14.128.14.124a34.537,34.537,0,0,0,8.133,5.111.922.922,0,0,1-.76,1.68,38.921,38.921,0,0,1-5.76-3.221q-.7-.478-1.346-.97a19.945,19.945,0,0,0,9.98,9.345,27.887,27.887,0,0,0,14.519,2.389A40.725,40.725,0,0,0,530.4,90.934a.624.624,0,0,1,.2-.312c6.347-5.439,11.138-10.973,14.244-16.456a30.909,30.909,0,0,0,4.227-13.172,22.036,22.036,0,0,0-1.112-8.609,16.406,16.406,0,0,0-1.079-2.448.87.87,0,0,1,.261-1.128l.085-.06a.87.87,0,0,1,1.264.289,74.565,74.565,0,0,1,2.728,8.936,1.164,1.164,0,0,0,2.216.108c1.237-3.324,3.124-4.172,2.267-11.286m-15.182.829a2.519,2.519,0,0,0,.46-.549c.042.4.083.8.12,1.211.045.5.083.976.113,1.448-.432-.959-.887-1.949-.693-2.11" transform="translate(-427.748 -0.001)" fill="#e64800"/>
    <path id="패스_23209" data-name="패스 23209" d="M705.218,435.7a.238.238,0,0,0,.071.11.21.21,0,0,0,.062.04.1.1,0,0,0,.1,0l2.879-2.113,2.231-1.638.1-.071,1.576-1.157a.568.568,0,0,0,.1-.822,24.4,24.4,0,0,1-2.08-2.862c-1,.383-1.55,1.844-1.775,3.671l-.743-.44-.081-.048-.312-.185-1.5-.889a10.887,10.887,0,0,0-.851,2.968,8.258,8.258,0,0,0,.229,3.438" transform="translate(-626.255 -379.518)" fill="#e64800"/>
    <path id="패스_23210" data-name="패스 23210" d="M722.46,473.4l-3.749,2.752a.765.765,0,0,0-.083.072.776.776,0,0,0-.067,1.034l.01.013a.776.776,0,0,0,1.152.072l1.238-1.217,1.722-1.693.07-.069,3.16-3.105-.237-.222-1.957,1.436Z" transform="translate(-638.238 -418.485)" fill="#e64800"/>
    <path id="패스_23211" data-name="패스 23211" d="M610.926,152.343a.731.731,0,0,1,.208.3c.109-.3.225-.6.347-.9.095-.23.191-.46.294-.688q.119-.265.244-.526a22.848,22.848,0,0,1,1.148-2.105c-.781-.1-2.284-.669-2.466-.366-.157.261-.3.544-.443.824-.07.137-.139.273-.209.4-.213.4-1.544.314-1.735.726-.155.335,1.929,1.632,2.612,2.329" transform="translate(-540.432 -131.462)" fill="#ffed00"/>
    <path id="패스_23212" data-name="패스 23212" d="M689.9,59.751a22.923,22.923,0,0,1,2.362-1.1c.185-.074.37-.144.557-.213-.453-.321-1.02-.986-1.324-.865-.423.169-1.149-.336-1.561-.146a.374.374,0,0,0-.134.111c-.274.346-.282,1.234-.633,1.42-.384.2-.741.414-1.11.636l-.052.031c-.39.235-.661.6-1.036.858a.877.877,0,0,0-.291.462c-.052.151-.094.312-.15.459a.822.822,0,0,1-.245.375c-.362.275-.856.292-1.2.586-.222.189-.167.641-.186,1.023a22.927,22.927,0,0,1,4.078-3.111q.457-.274.927-.526" transform="translate(-608.48 -50.981)" fill="#ffed00"/>
    <path id="패스_23213" data-name="패스 23213" d="M586.48,194.032c-.035.321.636.652,1.013.981q.018-.575.064-1.144.042-.519.107-1.034a22.7,22.7,0,0,1,.646-3.221q.215-.776.487-1.536a1.782,1.782,0,0,1-.86.036c-1.284-.119-3.5-.577-3.607-.265-.145.429,2.971,1.9,2.849,2.336s-3.155.178-3.252.623-.65.92-.723,1.37,3.326,1.4,3.277,1.854" transform="translate(-518.13 -166.794)" fill="#ffed00"/>
    <path id="패스_23214" data-name="패스 23214" d="M763.077,35.224c-.445.1-.9.445-1.334.566-.067.019-.115.1-.148.229a3.66,3.66,0,0,0-.074.737c-.018.6.007,1.338-.062,1.775a22.631,22.631,0,0,1,3.125-.808c-.5-.835-1.175-2.572-1.507-2.5" transform="translate(-676.498 -31.292)" fill="#ffed00"/>
    <path id="패스_23215" data-name="패스 23215" d="M634.448,45.85c-.073-.45,1.285-1.265,1.188-1.707s-3.1-.222-3.221-.658.02-.935-.124-1.364.42-1.13.252-1.551-1.071-.536-1.262-.947-2.079.093-2.292-.308,2.743-2.576,2.508-2.964.044-1.223-.211-1.6-1.5-.146-1.772-.507-.27-1.033-.564-1.378-2.317.839-2.629.51.975-2.279.645-2.592-1.087-.239-1.434-.534-.789-.537-1.151-.812-2.255,1.632-2.631,1.376,1.362-3.817.972-4.052-1.068-.158-1.47-.372-1.053-.1-1.466-.287-.948-.254-1.371-.422-1.441,1.253-1.873,1.108-1.024.424-1.463.3-.911.262-1.357.164-.623-1.2-1.073-1.277-.692-1.658-1.145-1.707-1.087,2.578-1.543,2.554-.8-3.2-1.262-3.2-.918,1.173-1.369,1.2-1.149-2.108-1.6-2.059c-.356.038-.373,2.626-.578,3.78a22.969,22.969,0,0,1,3.316-.267.662.662,0,0,1,.67.675l-.011.52a.659.659,0,0,1-.652.647A21.076,21.076,0,0,0,588.359,54.78q.112.408.241.81a21.076,21.076,0,0,0,6.239,9.48q.259.226.526.443a21.073,21.073,0,0,0,3.365,2.245.746.746,0,0,1,.317.987l-.154.312a.747.747,0,0,1-.991.344l-.033-.015c-.4-.216-.8-.444-1.186-.683a22.909,22.909,0,0,1-2.268-1.592q-.7-.555-1.352-1.162a22.933,22.933,0,0,1-5.745-8.462,22.828,22.828,0,0,1-1.387-5.532q-.082-.678-.123-1.362-.047-.77-.043-1.547c0-.009,0-.018,0-.027-.991.362-4.493.656-4.493,1.05,0,.457,3.152.865,3.176,1.316s-.3.9-.248,1.349-1.346,1.112-1.273,1.559,2.93.342,3.027.784,0,.839.116,1.275-2.544,1.719-2.4,2.149-.656,1.313-.488,1.734.464.925.654,1.336,2.836-.341,3.049.06-.34,1.236-.106,1.624-.4,1.4-.143,1.771,2.627-.757,2.9-.4.51.681.8,1.027-1.018,2.135-.706,2.465,1.884-.583,2.214-.27-.856,2.353-.51,2.647,1.766-.675,2.128-.4c.179.136.19.52.2.9a12.509,12.509,0,0,1,.586-1.631c.063-.143.122-.269.174-.374A.4.4,0,0,1,595,68.83l.84.487.062.036a.4.4,0,0,1,.162.52c-.019.039-.038.083-.059.128l1.5.889a.21.21,0,0,1,.171-.021h0a.214.214,0,0,1,.07.062.451.451,0,0,1,.068.143l.081.048.743.441c.224-1.827.773-3.288,1.775-3.671-.043-.07-.082-.135-.117-.193a.414.414,0,0,1,.164-.578l.436-.229.461-.243a.415.415,0,0,1,.549.153,22.478,22.478,0,0,0,1.861,2.6,1,1,0,0,0,1.358.169l8.4-6.17,8.418-7.937,1,1.042,1.451-1.317,1.238,1.363L608.283,72.308a1,1,0,0,0-.082,1.39c.169-.563.336-1,.5-1s.34.472.515,1.07c.081.277.163.581.244.878.067.047.133.094.2.14q.991.679,2.038,1.272l.062.036a3.857,3.857,0,0,0,.1-.456c.177-1.045.252-2.807.567-2.858.111-.018.246.11.394.311.453.617,1.022,1.926,1.355,1.853a1.571,1.571,0,0,1,.808.183,1.22,1.22,0,0,0,.71.13c.315-.087.555-.48.824-.749a.911.911,0,0,1,.338-.235c.432-.146.8-.5,1.222-.67.153-.061.169-.419.148-.859-.038-.778-.195-1.815.068-1.936.413-.191,1.332.839,1.733.626s1.213.356,1.6.122,1.95,1.262,2.325,1.007-1.347-3.448-.986-3.723,1.608.621,1.954.327,1.476.246,1.806-.067-1.685-2.925-1.372-3.255,1-.183,1.3-.529c.209-.246,1.859.66,2.895,1.074-.05-.429-.1-.852-.162-1.274-.795-.891-1.75-1.9-1.6-2.113.255-.375.508-.62.743-1.009a.44.44,0,0,1,.344-.146,73.982,73.982,0,0,0-1.83-7.648c-.641-.838-1.071-1.308-1.08-1.318l.544-.5a2.148,2.148,0,0,1,1.427-2.448l.758-.252a2.175,2.175,0,0,1,2.228.544c.3.3.579.583.846.837l.367.187c-.005-.408-.173-.753-.173-1.178,0-.457,1.8-.906,1.774-1.357s2.21-1.148,2.162-1.6-1.367-.82-1.44-1.266" transform="translate(-516.416 -20.228)" fill="#ffed00"/>
    <path id="패스_23216" data-name="패스 23216" d="M642.827,108.314q.463-.71.978-1.384a22.959,22.959,0,0,1,1.789-2.071l.085-.088c-.064-.022-.135-.051-.211-.085-.881-.395-2.468-1.5-2.707-1.248-.312.33.347,1.586.053,1.933s-1.193.238-1.468.6c-.1.125.1.455.383.847.357.493.855,1.085,1.1,1.5" transform="translate(-569.766 -91.865)" fill="#ffed00"/>
    <path id="패스_23217" data-name="패스 23217" d="M690.477,271.6c0,.68.667,1.059,1.439,1.059a1.187,1.187,0,0,0,1.311-1.156,1.207,1.207,0,0,0-1.268-1.23,1.481,1.481,0,0,0-1.481,1.327" transform="translate(-613.436 -240.116)" fill="#1a1311"/>
    <path id="패스_23218" data-name="패스 23218" d="M723.076,280.928c0,.68.667,1.059,1.439,1.059a1.187,1.187,0,0,0,1.311-1.156,1.207,1.207,0,0,0-1.269-1.23,1.481,1.481,0,0,0-1.481,1.327" transform="translate(-642.397 -248.404)" fill="#1a1311"/>
    <path id="패스_23219" data-name="패스 23219" d="M621.7,79.934a22.885,22.885,0,0,0,7.132,13.994q.652.608,1.352,1.162a22.935,22.935,0,0,0,2.268,1.592c.388.238.783.467,1.186.683l.033.015a.747.747,0,0,0,.991-.344l.154-.312a.746.746,0,0,0-.317-.987,21.087,21.087,0,0,1-3.365-2.245q-.266-.217-.526-.443a21.073,21.073,0,0,1-6.239-9.48q-.128-.4-.241-.81A21.066,21.066,0,0,1,644.247,56.1a.659.659,0,0,0,.652-.647l.011-.52a.662.662,0,0,0-.67-.675,22.966,22.966,0,0,0-3.316.267q-.326.05-.65.11a22.656,22.656,0,0,0-3.125.808c-.207.07-.413.141-.619.217q-.279.1-.557.213a22.935,22.935,0,0,0-2.362,1.1q-.47.252-.927.526a22.92,22.92,0,0,0-4.078,3.111l-.015.014c-.166.159-.329.322-.49.485l-.086.088a22.964,22.964,0,0,0-1.789,2.071q-.515.674-.978,1.384-.166.255-.326.514a22.845,22.845,0,0,0-1.148,2.105q-.125.261-.244.526c-.1.228-.2.458-.294.688-.122.3-.238.6-.347.9-.012.034-.024.069-.036.1q-.271.76-.487,1.536a22.693,22.693,0,0,0-.646,3.221q-.065.514-.107,1.034-.046.569-.064,1.144c0,.084-.007.167-.008.251,0,.108,0,.215,0,.322,0,.009,0,.018,0,.027q0,.776.043,1.547.042.684.123,1.362" transform="translate(-552.187 -48.206)" fill="#1a1311"/>
    <path id="패스_23220" data-name="패스 23220" d="M963.876,288.211q.253.469.487.94a26.983,26.983,0,0,1,1.9,4.963,22.234,22.234,0,0,1,.575,2.85,19.436,19.436,0,0,1,.11,4.267c-.494,5.666-3.6,10.817-9.237,15.319a.921.921,0,1,0,1.149,1.439c6.05-4.832,9.387-10.417,9.923-16.613a21.042,21.042,0,0,0-.024-3.816,23.8,23.8,0,0,0-.73-3.967,28.644,28.644,0,0,0-1.846-4.9q-.34-.706-.72-1.408a31.084,31.084,0,0,0-4.031-5.834l-.807.748-.544.5c.009.01.44.479,1.08,1.318a32.218,32.218,0,0,1,2.709,4.192" transform="translate(-850.548 -250.047)" fill="#1a1311"/>
    <path id="패스_23221" data-name="패스 23221" d="M946.951,287.161a19.461,19.461,0,0,0-2.874-7.025,25.042,25.042,0,0,0-2.677-3.408q-.784-.843-1.662-1.647a29.448,29.448,0,0,0-5.71-4.133l-.563,1.086-.08.154-.2.394a25.378,25.378,0,0,1,3.139,2.053c.69.52,1.446,1.134,2.217,1.842q.326.3.637.6a23.928,23.928,0,0,1,3.38,4.09,15.308,15.308,0,0,1,2.59,6.341c.857,7.114-1.03,7.962-2.267,11.286a1.164,1.164,0,0,1-2.216-.108,74.536,74.536,0,0,0-2.728-8.936.87.87,0,0,0-1.264-.289l-.085.06a.87.87,0,0,0-.261,1.128A16.387,16.387,0,0,1,937.4,293.1a22.034,22.034,0,0,1,1.112,8.609,30.908,30.908,0,0,1-4.226,13.172c-3.107,5.483-7.9,11.017-14.244,16.456a.63.63,0,0,0-.07.884l.376.444a.631.631,0,0,0,.892.071c6.547-5.61,11.492-11.342,14.7-17.043a37.523,37.523,0,0,0,2.974-6.66,4.157,4.157,0,0,1,.783-1.4c6.031-7.072,8.47-13.956,7.251-20.474" transform="translate(-817.192 -240.716)" fill="#1a1311"/>
    <path id="패스_23222" data-name="패스 23222" d="M72.534,494.811C62.1,492.157,60.93,489.8,60.923,488.9c-.01-1.285,2.017-2.9,5.561-4.429a47.676,47.676,0,0,1,5.569-1.957c.294-.083.465-.128.474-.131h0l-.231-.891-.231-.891a48.75,48.75,0,0,0-6.292,2.171,20.72,20.72,0,0,0-4.427,2.469c-1.512,1.173-2.273,2.408-2.264,3.672a3.19,3.19,0,0,0,.019.322c-5.143,2.407-7.5,4.822-7.2,7.369.18,1.513,1.333,2.941,3.429,4.244.325.2.675.4,1.047.6l-.181.029a11.759,11.759,0,0,0,2.452,5.331c-.106.085-.206.17-.3.25l-.039.039-.054.055-.033.024a1.463,1.463,0,0,1-.147.087l-.115.055c-.159.074-.3.14-.373.181l-.063.019-.017,0-.037-.007-.141-.032c-.054-.013-.107-.025-.161-.036a3.873,3.873,0,0,0-1.019-.105,2.541,2.541,0,0,0-1.09.311c-.052.028-.1.059-.148.088l-.074.045a3.1,3.1,0,0,0-.642.107,2.272,2.272,0,0,0-.864.486c-.138.113-.264.237-.386.357a1.559,1.559,0,0,0-.774.206,4,4,0,0,0-.712.558c-.006.006-.018.016-.043.036a2,2,0,0,0-1.231.7c-.1.124-.206.261-.324.428a1.379,1.379,0,0,0-.29.054,3.141,3.141,0,0,0-1.006.546A1.569,1.569,0,0,0,47.211,511a2.69,2.69,0,0,0-.577.269,1.371,1.371,0,0,0-1.553-.448,3.1,3.1,0,0,0-1.15.7l-.042.045a1.491,1.491,0,0,0-.849.428c-.312.313-.606.648-.89.972l-.017.019-.074-.015a2.033,2.033,0,0,0-1.456.237,3.572,3.572,0,0,0-.433.322l-.025.018-.058.041c-.294.2-.6.4-.9.6a1.262,1.262,0,0,0-1.117-.1,5.128,5.128,0,0,0-1.8,1.2,1.745,1.745,0,0,0-.527.036,2.689,2.689,0,0,0-1.412,1.037c-.092.106-.179.206-.27.3l-.047.05a1.572,1.572,0,0,0-.554-.4,1.552,1.552,0,0,0-1.932.629c-.038.06-.076.121-.114.184l-.011-.015a1.579,1.579,0,0,0-1.612-.558,1.9,1.9,0,0,0-1.259,1.163c-.07.137-.133.278-.194.415-.031.069-.062.139-.095.209a1.523,1.523,0,0,0-.482-.319,1.564,1.564,0,0,0-1.931.628c-.07.107-.141.219-.212.336-.058.06-.116.12-.176.18a9.337,9.337,0,0,0-.768.911l-.095.123-.034.044a1.552,1.552,0,0,0-2.077-.518,3.749,3.749,0,0,0-1.192,1.193l-.056.076c-.058.08-.117.161-.178.248a1.472,1.472,0,0,0-.69-.908,1.545,1.545,0,0,0-1.576.007,4.578,4.578,0,0,0-.473.375,1.555,1.555,0,0,0-2.641-1.066,2.823,2.823,0,0,0-.536.737,1.772,1.772,0,0,0-1.334-.161,3.755,3.755,0,0,0-2.062,1.868c-.328.541-.662,1.111-1.014,1.732.044-.137.087-.261.129-.38l.028-.078c.029-.083.059-.169.093-.247l.1-.214.005-.011a1.62,1.62,0,0,0-.06-1.619l.027-.028.046-.046.082-.081a1.544,1.544,0,0,0,.45-1.132,1.469,1.469,0,0,0-.454-1.067,1.572,1.572,0,0,0-2.182,0c-.042.039-.085.082-.129.127-.21.208-.414.421-.608.637.054-.111.1-.212.148-.309s.092-.192.14-.29c.422-.867.9-1.85.313-2.826a1.666,1.666,0,0,0-.1-.147,1.511,1.511,0,0,0,.423-1.17,1.633,1.633,0,0,0-.5-1.038,2.734,2.734,0,0,0,.592-1.835,1.7,1.7,0,0,0-.4-1.005,2.1,2.1,0,0,0,.056-.269c.007-.048.012-.1.016-.145a2.755,2.755,0,0,0,.722-1.21,1.686,1.686,0,0,0-.207-1.256,1.413,1.413,0,0,0-.885-.646,1.573,1.573,0,0,0-1.865.97l-.078.082c-.073.077-.149.157-.222.239l-.107.12a2.984,2.984,0,0,0-.731,1.134,1.4,1.4,0,0,0-.049.549c-.152.17-.3.327-.441.478-.323.341-.671.69-1.035,1.036a3.512,3.512,0,0,0-1.031,1.441,1.521,1.521,0,0,0,.188,1.246,1.545,1.545,0,0,0,.755.655,14.292,14.292,0,0,0-.657,1.477c-.19.191-.344.355-.481.513a8.916,8.916,0,0,0-2.274,5.485,1.508,1.508,0,0,0,1.186,1.488c-.249.344-.5.716-.765,1.151l-.156.25A8.878,8.878,0,0,0,.075,527.2a1.533,1.533,0,0,0,.712,1.775,1.66,1.66,0,0,0,.248.106,3.329,3.329,0,0,0-.038.669,1.555,1.555,0,0,0,.609,1.209c.03.023.062.046.094.068l-.014.019a1.551,1.551,0,0,0,2.426,1.891l.089-.094.2-.208-.213.548c-.024.047-.045.095-.065.141-.012.027-.023.053-.035.079l-.024.052a5.24,5.24,0,0,0-.317.782,2.75,2.75,0,0,0-.041,1.213A1.54,1.54,0,0,0,5.2,536.612a1.557,1.557,0,0,0,1.1-.454c.419-.426.8-.867,1.143-1.274a1.671,1.671,0,0,0,.536.928,1.447,1.447,0,0,0,1.415.328A7.906,7.906,0,0,0,12.325,534l.194-.193.383-.38.26-.258a1.6,1.6,0,0,0,1.905-.234c.349-.361.723-.753,1.138-1.194a1.6,1.6,0,0,0,.141.215,1.507,1.507,0,0,0,1.225.61,2.2,2.2,0,0,0,1.515-.645,1.551,1.551,0,0,0,2.4.264c1.928-2.153,4.171-4.72,6.216-7.455a1.692,1.692,0,0,0,.668-.187c.278-.143.559-.3.834-.48a1.566,1.566,0,0,0,2.005-.14c.072-.067.147-.142.227-.23l.07-.071a1.368,1.368,0,0,0,.356.542,1.621,1.621,0,0,0,1.857.245,3.857,3.857,0,0,0,.953-.71c.117-.108.228-.21.343-.305.4-.334.817-.671,1.226-1,.684-.549,1.416-1.157,2.3-1.915l.582-.5a2.18,2.18,0,0,0,.693-.3,4.442,4.442,0,0,0,.711-.62,1.839,1.839,0,0,0,.683-.369,33.021,33.021,0,0,0,2.584-2.5l.138-.144.146-.151a1.737,1.737,0,0,0,.98.577,1.29,1.29,0,0,0,1.032-.208,8.1,8.1,0,0,0,1.177-1.079q.043.01.087.017a2.273,2.273,0,0,0,1.527-.254,5.114,5.114,0,0,0,.811-.587l.055-.045c.072-.06.143-.121.214-.182s.12-.1.181-.154l.078-.067a1.889,1.889,0,0,0,1.019-.252,3.585,3.585,0,0,0,1.11-1.161l.007-.01a2.751,2.751,0,0,0,1.03-.56,2.181,2.181,0,0,0,.751-.217,3.8,3.8,0,0,0,.943-.732l.14-.136a2.893,2.893,0,0,0,1.025-.3c.06-.031.116-.065.17-.1l.049.011.024.005a5.543,5.543,0,0,0,.976.156,4.072,4.072,0,0,0,1.991-.582,4.355,4.355,0,0,0,.787-.526c.081-.066.156-.132.246-.212l.1-.085.057-.048c.041-.021.085-.041.122-.057q.876.813,1.906,1.6.644.492,1.346.971a38.913,38.913,0,0,0,5.76,3.221.922.922,0,0,0,.76-1.68,34.54,34.54,0,0,1-8.133-5.111l-.14-.124-.14-.128a18.322,18.322,0,0,1-1.582-1.627l-.123-.147c-.041-.049-.082-.1-.122-.147q-.138-.17-.271-.344a1.3,1.3,0,0,1,1.444-2.025l.035.012a70.142,70.142,0,0,0,7.707,2.04.921.921,0,0,0,.372-1.8,69.114,69.114,0,0,1-7.514-1.988,27.867,27.867,0,0,1-5.775-2.541c-1.095-.682-2.429-1.737-2.566-2.894-.109-.92.563-1.949,1.945-3.029a5.735,5.735,0,0,1,6.492-.387,38.384,38.384,0,0,0,9.913,3.625.918.918,0,0,0,1.117-.672v-.006a.918.918,0,0,0-.667-1.107" transform="translate(0 -426.976)" fill="#1a1311"/>
    <path id="패스_23223" data-name="패스 23223" d="M701.1,339.171a.922.922,0,0,0-1.2.228,7.353,7.353,0,0,1-2.46,2.017,8.173,8.173,0,0,1-3.959.825,15.511,15.511,0,0,1-6.227-1.736l-.247-.122a1.775,1.775,0,0,1-.385-2.9l2.526-2.293,2.376-2.157a.953.953,0,0,1,1.236-.037q.422.341.855.666l.118.088a30.552,30.552,0,0,0,5.839,3.414q.591.263,1.2.5a33.461,33.461,0,0,0,10.154,2.228l.119-1.837a31.3,31.3,0,0,1-10.673-2.552q-1.295-.573-2.522-1.269l-.062-.036q-1.045-.594-2.037-1.272c-.067-.046-.133-.094-.2-.141-.368-.257-.731-.52-1.087-.793l-.027-.02a1,1,0,0,1-.061-1.525l17.354-15.756-1.238-1.363-1.451,1.317-1-1.042-8.418,7.937-8.4,6.17a1,1,0,0,1-1.358-.17,22.453,22.453,0,0,1-1.861-2.6.415.415,0,0,0-.549-.153l-.461.243-.436.229a.414.414,0,0,0-.165.578c.034.058.074.124.117.194a24.424,24.424,0,0,0,2.08,2.862.568.568,0,0,1-.1.822l-1.576,1.157-.1.071-2.231,1.638-2.879,2.113a.1.1,0,0,1-.1,0,.21.21,0,0,1-.062-.04.239.239,0,0,1-.071-.11,8.261,8.261,0,0,1-.229-3.438,10.9,10.9,0,0,1,.851-2.968c.021-.046.04-.089.059-.128a.4.4,0,0,0-.162-.52l-.062-.036-.84-.487a.4.4,0,0,0-.563.172c-.051.1-.11.23-.173.373a12.533,12.533,0,0,0-.586,1.631,10.644,10.644,0,0,0-.036,6q.123.4.281.79l-1.673.826-.158.078,2.041,1.388.024-.023.634-.621a10.562,10.562,0,0,0,1.214,1.517l-.179.176.637.675.627.664.113-.1.188-.171a17,17,0,0,0,2.974,1.819,21.9,21.9,0,0,0,2.984,1.2,14.669,14.669,0,0,0,4.079.721l.259,0A9.86,9.86,0,0,0,698.381,343a9.172,9.172,0,0,0,2.961-2.453.919.919,0,0,0-.241-1.381m-18.117-3.132,3.749-2.752,1.26-.925,1.957-1.437.237.222-3.16,3.105-.07.069-1.723,1.693L684,337.23a.776.776,0,0,1-1.152-.072l-.01-.013a.782.782,0,0,1,.15-1.106" transform="translate(-602.512 -278.368)" fill="#1a1311"/>
  </g>
</svg>
