<svg id="PPS_3" xmlns="http://www.w3.org/2000/svg" xmlns:xlink="http://www.w3.org/1999/xlink" width="126.357" height="116.713" viewBox="0 0 126.357 116.713">
  <defs>
    <clipPath id="clip-path">
      <rect id="사각형_6127" data-name="사각형 6127" width="126.358" height="116.713" fill="none"/>
    </clipPath>
  </defs>
  <g id="그룹_11567" data-name="그룹 11567" clip-path="url(#clip-path)">
    <path id="패스_23224" data-name="패스 23224" d="M1099.6,367.549q-.555,1.024-1.237,2.057l.135,0a31.674,31.674,0,0,1-.3,3.939.223.223,0,0,0,.415.144,12.933,12.933,0,0,0,1.352-5.155c.024-.294.042-.585.054-.871a.223.223,0,0,0-.419-.116" transform="translate(-975.662 -326.435)" fill="#dc3a86"/>
    <path id="패스_23225" data-name="패스 23225" d="M195.417,95.2a5.016,5.016,0,0,0,.426,1.692,6.692,6.692,0,0,1-.426-1.692" transform="translate(-173.613 -84.579)" fill="#3174ba"/>
    <path id="패스_23226" data-name="패스 23226" d="M248.984,232.554c.022-.157.048-.31.081-.458a1.606,1.606,0,0,0-.072.338c0,.04-.006.08-.009.12" transform="translate(-221.203 -206.199)" fill="#3174ba"/>
    <path id="패스_23227" data-name="패스 23227" d="M141.7,242.9a4.649,4.649,0,0,1-.318-1.172.393.393,0,0,0-.553-.308,28.431,28.431,0,0,0-5.3,3.157,17.021,17.021,0,0,0-4.446,4.852,10.88,10.88,0,0,0-1.471,6.712,2.57,2.57,0,0,0,1.429,1.561c.867.3,2.049-.028,3.44-.936l-.032-.067-.014-.032c-.082-.2-1.969-4.923.408-8.839,1.274-2.1,3.5-3.523,6.636-4.257a.4.4,0,0,0,.269-.549q-.027-.059-.052-.121" transform="translate(-115.097 -214.447)" fill="#3174ba"/>
    <path id="패스_23228" data-name="패스 23228" d="M383.217,163.747l-.013.006.008.061.022.029c-.006-.033-.012-.065-.016-.1" transform="translate(-340.447 -145.477)" fill="#3174ba"/>
    <path id="패스_23229" data-name="패스 23229" d="M107.982,167.885a48.74,48.74,0,0,0-5.885-2.527c-4.485-1.484-7.908-1.859-9.9-1.083a2.948,2.948,0,0,0-1.794,1.738c-.571,1.478-.516,2.59.167,3.4,1.2,1.422,4.463,2.076,9.193,1.843,1.941-.1,3.787-.323,5.127-.521a2.884,2.884,0,0,0,2.13-1.518q.044-.085.089-.166l.222-.4.46.007h0a.406.406,0,0,0,.189-.77" transform="translate(-79.969 -145.595)" fill="#3174ba"/>
    <path id="패스_23230" data-name="패스 23230" d="M171.672,81.761a1.663,1.663,0,0,0-.906.221,1.561,1.561,0,0,0-.571,1.3c-.021.321.168,1.459,2.854,4.153-1.431-2.177-1.893-4.079-1.377-5.675" transform="translate(-151.203 -72.638)" fill="#3174ba"/>
    <path id="패스_23231" data-name="패스 23231" d="M263.822,391.111a32.467,32.467,0,0,1-3.3,1.173,1.233,1.233,0,0,0-.839,1.535,7.062,7.062,0,0,0,2.238,3.671,3.362,3.362,0,0,0,1.3.588,1.237,1.237,0,0,0,1.4-.773,7.9,7.9,0,0,1,.783-1.49c.071-.448.272-1.782.387-3.271a1.43,1.43,0,0,0-1.968-1.432" transform="translate(-230.661 -347.375)" fill="#3174ba"/>
    <path id="패스_23232" data-name="패스 23232" d="M270.308,41.683c-.164-.265-.353-.548-.564-.833a5.665,5.665,0,0,0-3.3-2.431,3.576,3.576,0,0,0-1.976.245.584.584,0,0,0-.039,1.059,24.43,24.43,0,0,1,5.565,4.164.5.5,0,0,0,.842-.394q-.005-.083-.01-.169a3.484,3.484,0,0,0-.518-1.642" transform="translate(-234.642 -34.093)" fill="#3174ba"/>
    <path id="패스_23233" data-name="패스 23233" d="M459.878,412.4q-.154,1.387-.409,2.651a5.654,5.654,0,0,0,1.565-.38,22.958,22.958,0,0,1-1.126-2.556q-.015.142-.03.285" transform="translate(-408.204 -366.132)" fill="#2d832a"/>
    <path id="패스_23234" data-name="패스 23234" d="M599.7,99.2a7.029,7.029,0,0,1,1.119,3.44.4.4,0,0,0,.617.324c.409-.256.851-.543,1.293-.851.725-.5,3.1-2.231,3.248-3.306a.4.4,0,0,0-.15-.389c-.528-.5-1.711-.962-4.347-.311-.57.141-1.114.312-1.585.479a.405.405,0,0,0-.2.609l0,0" transform="translate(-532.724 -86.876)" fill="#2d832a"/>
    <path id="패스_23235" data-name="패스 23235" d="M488.935,50.433a1.192,1.192,0,0,0,.783-.26c1.18-.944,2.627-2.355,2.587-3.583,0-.023,0-.046,0-.069a1.173,1.173,0,0,0-1.069-1.057c-3.662-.33-7.316,3.046-9.8,6.04q-.2.246-.4.493a.3.3,0,0,0,.4.434c.242-.162.4-.253.429-.272a13.841,13.841,0,0,1,7.018-1.727l.054,0" transform="translate(-427.3 -40.371)" fill="#2d832a"/>
    <path id="패스_23236" data-name="패스 23236" d="M417.331,14.23a1.113,1.113,0,0,0-.8-.455A10.426,10.426,0,0,0,411.5,15.26a18.291,18.291,0,0,0-1.541,1.3c-.04.044-.082.086-.121.132a10.021,10.021,0,0,0-2.217,5.522,2.721,2.721,0,0,0,.7,2.1l.007.008a10.587,10.587,0,0,1,1.546,2.3,1.109,1.109,0,0,0,1.961.022c1.673-3.069,4.018-7.447,5.114-9.847.536-1.174.672-2.086.383-2.567" transform="translate(-362.125 -12.238)" fill="#2d832a"/>
    <path id="패스_23237" data-name="패스 23237" d="M502.215,308.52c.009-.013.02-.026.03-.039l-.218-.087.188.126" transform="translate(-446.012 -273.984)" fill="#2d832a"/>
    <path id="패스_23238" data-name="패스 23238" d="M574.28,185.718a1.383,1.383,0,0,1-.1-1.455c.126-.239.244-.466.348-.679a25.573,25.573,0,0,1,1.021-2.5,17.181,17.181,0,0,0-4.239-.794c-1.143-.09-2.222-.1-3.063-.085a3.18,3.18,0,0,0-2.473,1.247,15.225,15.225,0,0,1-2.318,2.389q-.452.38-.952.753a.384.384,0,0,0,.274.689c3-.345,5.165.012,6.457,1.068l.028.022a1.157,1.157,0,0,0,.665.229,15.658,15.658,0,0,0,4.639-.488l-.286-.394" transform="translate(-499.601 -160.091)" fill="#2d832a"/>
    <path id="패스_23239" data-name="패스 23239" d="M339.21,32.047a.85.85,0,0,0-.695.319c-.929,1.062-.936,4.255-.7,6.426a6.254,6.254,0,0,0,.827,2.907q.408.463.8.927.134.144.267.288a.606.606,0,0,0,.957-.593,3.665,3.665,0,0,1,.272-2.873,1.8,1.8,0,0,1,.163-.207,2.274,2.274,0,0,0,.563-1.771c-.256-2.452-.974-5.407-2.451-5.424" transform="translate(-300.007 -28.471)" fill="#2d832a"/>
    <path id="패스_23240" data-name="패스 23240" d="M554.965,340.184a30.034,30.034,0,0,1-5.338-1.476l-.382-.139a.369.369,0,0,0-.414.58l.01.012q.661.811,1.234,1.656a2.432,2.432,0,0,0,1.473,1c1.1.253,2.842.559,3.638.214l.027-.012a.966.966,0,0,0-.248-1.835" transform="translate(-487.519 -300.771)" fill="#2d832a"/>
    <path id="패스_23241" data-name="패스 23241" d="M654.582,262.658c-.738-1.638-3.657-3.057-6.038-3.942a.554.554,0,0,0-.683.777q.2.384.375.784a10.674,10.674,0,0,1,.932,4.223.553.553,0,0,0,.428.541,6.513,6.513,0,0,0,3.878-.013,2.019,2.019,0,0,0,1.043-.8l.011-.029h0a1.671,1.671,0,0,0,.051-1.54" transform="translate(-575.517 -229.816)" fill="#2d832a"/>
    <path id="패스_23242" data-name="패스 23242" d="M411.349,315.363c.039-.047.078-.1.118-.143l-.133.133.015.01" transform="translate(-365.439 -280.049)" fill="#2d832a"/>
    <path id="패스_23243" data-name="패스 23243" d="M258.318,225.752a61.559,61.559,0,0,0-7.406-3.436l-.1-.019a1.6,1.6,0,0,0-1.819,1.068c-.033.149-.06.3-.081.459a3.267,3.267,0,0,0,.21,1.44,3.2,3.2,0,0,0,.577.943c.244-.03.491-.057.744-.08l.191-.018c.462-.04,1-.055,1.6-.052,1.058.006,2.3.071,3.624.168l.149.011c.689.051,1.4.111,2.114.175a.351.351,0,0,0,.2-.659" transform="translate(-221.13 -197.468)" fill="#2d832a"/>
    <path id="패스_23244" data-name="패스 23244" d="M382.942,163.809l.037.049-.007-.061Z" transform="translate(-340.215 -145.521)" fill="#2d832a"/>
    <path id="패스_23245" data-name="패스 23245" d="M1046.238,412.174a44.69,44.69,0,0,1-3.145,3.409l-.086-.087a.543.543,0,0,0-.889.17l-.01.025a1.7,1.7,0,0,0,2.075,2.295l.09-.033a3.491,3.491,0,0,0,1.766-2.163,14.1,14.1,0,0,0,.766-3.373.322.322,0,0,0-.567-.243" transform="translate(-925.712 -366.08)" fill="#dc3a86"/>
    <path id="패스_23246" data-name="패스 23246" d="M743.871,184.623a12.365,12.365,0,0,1,3.573,2.776,1.3,1.3,0,0,0-.486-1.025,20.123,20.123,0,0,0-8.324-4.029,21.487,21.487,0,0,0-9.366.114,32.811,32.811,0,0,0-9.435,3.9,57.287,57.287,0,0,1,13.348-2.818c5.954-.135,6.576-.277,10.69,1.083" transform="translate(-639.516 -161.589)" fill="#dc3a86"/>
    <path id="패스_23247" data-name="패스 23247" d="M733.446,119.351c-2.724-2.235-6.338-2.585-8.89-2.484a22.865,22.865,0,0,0-4.354.606.768.768,0,0,1-.361-1.493c.189-.046.41-.1.657-.148-9.4-5.458-22.492-10.087-29.333.756a2,2,0,0,0,.959,1.435,5.657,5.657,0,0,1,1.3,1.034,3.021,3.021,0,0,1,.215.264,2.02,2.02,0,0,0,2.6.619,27.882,27.882,0,0,1,7.227-2.828A23.008,23.008,0,0,1,713.493,117a21.643,21.643,0,0,1,10.71,5.932,1.5,1.5,0,0,1,.412,1.294,1.452,1.452,0,0,1-.774,1.051,24.78,24.78,0,0,1-10.664,2.449q-.289.005-.567.005c-.476,0-.924-.011-1.343-.029-.523.064-1.045.132-1.567.208a1.986,1.986,0,0,0-1.795,2.333l.081-.013a.431.431,0,0,1,.482.31,6.471,6.471,0,0,0,1.207,2.332c1.379,1.667,3.484,2.327,6.256,1.961a6.149,6.149,0,0,0,4.371-2.288,7.141,7.141,0,0,0,1.16-4.477.768.768,0,0,1,1.535-.074,8.957,8.957,0,0,1-1.04,4.814q.312-.1.627-.2c1.324,2.678,1.872,4.143,1.422,7.108-.241,1.588-.417,3.135-.608,4.683.022,0,.045.005.068.01a.767.767,0,0,1,.6.9c-.331,1.736-1.155,6.251-1.689,10.86-1.252,10.815.224,12.154.533,12.313s1.043-.123,2.213-1.339a10.738,10.738,0,0,0,1.443-3.8,27.572,27.572,0,0,1-.132-6.449,33.714,33.714,0,0,1,1.405-6.881l.075-.236a13.476,13.476,0,0,1-1.144-.913.766.766,0,0,1-.019-1.128l.129-.122a.575.575,0,0,1,.785-.006l.011.01a.686.686,0,0,0,1.1-.252,28.986,28.986,0,0,1,1.862-3.919l.657.4.658.4c0,.007-.138.232-.353.641a31.035,31.035,0,0,0,5.558-7.781,19.015,19.015,0,0,0,1.067-2.753c-.009-.069-.014-.107-.014-.11l.049-.007a14.475,14.475,0,0,0,.595-4.685,14.2,14.2,0,0,0-5.411-10.186" transform="translate(-614.047 -97.739)" fill="#dc3a86"/>
    <path id="패스_23248" data-name="패스 23248" d="M667.508,193.163a8.863,8.863,0,0,0,3.09-1.478,1.487,1.487,0,0,0,.19-2.189,5.553,5.553,0,0,0-2.3-1.363,25.6,25.6,0,0,0-1.021,2.5c-.1.212-.221.439-.348.679a1.383,1.383,0,0,0,.1,1.455l.286.394" transform="translate(-592.543 -167.142)" fill="#dc3a86"/>
    <path id="패스_23249" data-name="패스 23249" d="M180.744,90.4a4,4,0,0,0,2.74,2.288,9.971,9.971,0,0,0,4.618-.137,33.786,33.786,0,0,0,7.385-2.783q.3-.147.6-.3c1.963-1,3.793-2.066,5.285-2.99q.34-.211.655-.41c1.537-.972,2.622-1.728,2.969-1.974a.787.787,0,0,1,.891-.011l.133-.133c-.04.047-.078.1-.118.143a.782.782,0,0,1,.147,1.151c-.23.271-1.111,1.312-2.31,2.771-.518.63-1.094,1.338-1.7,2.1-1.94,2.412-4.208,5.327-5.939,7.833a5.086,5.086,0,0,0-.966,3.948c.483,2.479,2.85,4.3,3.4,4.692,3.118.609,5.655.061,7.542-1.628,1.234-1.1,2.757-3.23,3.62-7.259a28.427,28.427,0,0,0,.451-2.821,42.352,42.352,0,0,0,.162-5.868.84.84,0,0,1,1.655-.23,57.427,57.427,0,0,0,2.364,7.54,14.825,14.825,0,0,0,1.737,3.259c2,2.594,4.421,4.223,6.18,4.149a1.9,1.9,0,0,0,1.584-.873,5.623,5.623,0,0,0,.7-3.134,17.221,17.221,0,0,0-1.376-6.617,20.233,20.233,0,0,0-2.55-4.363q-.215-.283-.442-.562a23.23,23.23,0,0,0-3.789-3.71.84.84,0,0,1-.218-1.083c.014-.024.029-.047.045-.07l-.188-.126.218.087a.839.839,0,0,1,1.009-.237c1.043.486,3.131,1.423,5.4,2.237,4.68,1.682,6.76,1.67,7.672,1.4a1.8,1.8,0,0,0,.356-.145,2.981,2.981,0,0,0,1.391-2.278c.015-.1.027-.2.036-.3a8.684,8.684,0,0,0-.783-4.1,9.93,9.93,0,0,0-2.377-3.389c-.09-.081-.181-.161-.274-.236a2.512,2.512,0,0,0-.264-.188c-1.413-.877-4.279-.879-8.144,0a33.32,33.32,0,0,0-5.4,1.813.825.825,0,0,1-1.092-.455l-.186-.472a.427.427,0,0,1,.2-.56c1.74-.842,9.064-4.528,11.7-8.129a5.33,5.33,0,0,0,.8-1.5c.021-.067.041-.133.059-.2a5.542,5.542,0,0,0-.645-4.591,2.879,2.879,0,0,0-1.191-.956,7.466,7.466,0,0,0-2.966-.619c-.091,0-.183,0-.274,0a12.261,12.261,0,0,0-5.941,1.528A14.063,14.063,0,0,0,212,64.85a10.566,10.566,0,0,0-2.4,6.74c0,.086,0,.171,0,.257,0,.25-.009.5-.021.75a.767.767,0,0,1-1.532-.081q.032-.649.02-1.3a18.765,18.765,0,0,0-.644-4.585,11.867,11.867,0,0,0-2.37-4.739,5.855,5.855,0,0,0-.5-.491,3.256,3.256,0,0,0-2.042-.9.872.872,0,0,0-.1,0c-.161.015-.2.073-.225.107-.06.09-.217.425-.093,1.362a11.906,11.906,0,0,0,.436,1.872c.2.651.472,1.427.847,2.353a.534.534,0,0,1,.017.057.55.55,0,0,1-.313.654l-.324.136c0,.031.01.063.016.1l.151.2.172.232c.929,1.256,1.629,2.267,2.008,2.825a.565.565,0,0,1-.157.786l-.343.224a.561.561,0,0,1-.716-.087.571.571,0,0,1-.057-.068c-.358-.527-1.014-1.475-1.884-2.656-.828-1.124-1.851-2.459-3-3.848-.477-.578-.975-1.164-1.49-1.748-.106-.121-.212-.239-.318-.357q-.267-.3-.531-.586c-3.527-3.844-6.6-6.189-9.056-6.916a5.164,5.164,0,0,0-1.845-.234c-1.411.105-2.535.976-3.423,2.65-.088.166-.175.338-.259.521a2.782,2.782,0,0,0-.235,1.314,6.7,6.7,0,0,0,.426,1.692A19.643,19.643,0,0,0,186.84,67a62.4,62.4,0,0,0,4.9,4.16c2.757,2.129,5.622,4.074,7.909,5.551,1.724,1.113,3.119,1.961,3.887,2.42a.767.767,0,0,1-.786,1.317c-.454-.271-1.121-.675-1.942-1.186-.136-.085-2.711-.229-5.423-.31l-.66-.019c-1.479-.038-2.943-.056-4.023-.032-.515.011-.943.032-1.243.064h-.012c-.323.029-.636.065-.943.106q-.236.031-.466.067c-3.421.534-5.768,1.81-6.984,3.8-1.706,2.8-.71,6.291-.392,7.228.04.118.07.2.082.228" transform="translate(-159.99 -48.779)" fill="#dc3a86"/>
    <path id="패스_23250" data-name="패스 23250" d="M353.687,127.149q-.133-.145-.267-.288l.165.193a.64.64,0,0,0,.1.095" transform="translate(-313.987 -112.706)" fill="#dc3a86"/>
    <path id="패스_23251" data-name="패스 23251" d="M103.018,549.971a19.958,19.958,0,0,0-3.2.45,92.126,92.126,0,0,0-11.585,3.542c-6.68,2.429-13.155,5.242-15.242,6.164a.762.762,0,0,1-.415.057c-1.978.783-3.962,1.547-5.975,2.412-3.837,1.647-6,1.422-10.076.577.024-.58.06-1.156.1-1.729a11.53,11.53,0,0,1-2.113,1.863,14.129,14.129,0,0,1-4.1,1.911.768.768,0,0,1-.418-1.478,12.645,12.645,0,0,0,3.7-1.728,9.321,9.321,0,0,0,4.083-8.362c-.073-3.132-.968-5.486-2.661-7a8.164,8.164,0,0,0-5.085-1.891.767.767,0,0,1-.731-.653c-1.157.022-3.943.38-3.619,3.353.167,1.531.389,3.055.6,4.578.041.163.082.328.122.5a46.954,46.954,0,0,1,.941,17.2.725.725,0,0,1-.832.615l-.792-.125c.008-.053.017-.106.025-.159a1.912,1.912,0,0,0-1.1-2.031,23.5,23.5,0,0,1-4.871-2.885,19.057,19.057,0,0,1-4.191-4.675,20.184,20.184,0,0,1-2.808-7.485,19.89,19.89,0,0,1,.41-8.411,25.02,25.02,0,0,1,2.876-6.641,29.83,29.83,0,0,1,3.913-5.091.625.625,0,0,1,.14-.108,1.887,1.887,0,0,0-1.04-1l-.661-.259a1.925,1.925,0,0,0-2,.375c-.278.254-.543.492-.792.706-18.862,12.666-11.837,26.048-2.637,35.038a.9.9,0,0,0,.36-.676c.017-.285.038-.536.06-.75a.769.769,0,0,1,1.53.153,19.473,19.473,0,0,0,.946,8.036,16.76,16.76,0,0,0,4.53,6.916,23.686,23.686,0,0,0,10.462,5.263,19.535,19.535,0,0,0,11.972-.5,19.334,19.334,0,0,0,5.047-2.92s.121-.249.314-.253a24.293,24.293,0,0,0,2.653-2.555,32.436,32.436,0,0,0,5.96-9.937l1.454.491a29.45,29.45,0,0,1-1.891,4.178.644.644,0,0,0,.841.888,15.619,15.619,0,0,0,3.254-1.976,5.27,5.27,0,0,0,2.118-3.292,3.962,3.962,0,0,0-.1-1.468,2.042,2.042,0,0,0-3.246-1.093,38.118,38.118,0,0,0-3.6,3.176l-1.111-1.058a38.811,38.811,0,0,1,3.886-3.424,1.768,1.768,0,0,0-.033-2.81l-.02-.015a.772.772,0,0,1-.194-1.031v0a.764.764,0,0,1,1.1-.208c.166.122.355.267.561.433a3.232,3.232,0,0,0,3.6.308,64.72,64.72,0,0,1,7.346-3.64,32.5,32.5,0,0,1,8.042-1.816c2.207-1.108,4.32-2.4,5.241-3.689l.509-.089a.771.771,0,0,1,.105-.667q.12-.172.225-.334a2.118,2.118,0,0,0-1.871-3.275" transform="translate(-21.061 -472.067)" fill="#dc3a86"/>
    <path id="패스_23252" data-name="패스 23252" d="M121.953,565.48c-.733.972-1.6,2.206-2.458,3.615a23.45,23.45,0,0,0-2.684,6.219,18.363,18.363,0,0,0-.375,7.74,18.668,18.668,0,0,0,2.57,6.885,17.366,17.366,0,0,0,2.526,3.129l0,0c-3.274-5.067-3.629-8.9-2.8-14.624a64.332,64.332,0,0,1,3.226-12.958" transform="translate(-103.224 -502.385)" fill="#dc3a86"/>
    <path id="패스_23253" data-name="패스 23253" d="M577.635,799.251c2.474-1.109,4.869-2.126,6.787-3.114l.158-.079q-.585.187-1.172.4a52.134,52.134,0,0,0-5.773,2.8" transform="translate(-513.184 -707.236)" fill="#dc3a86"/>
    <path id="패스_23254" data-name="패스 23254" d="M462.293,938.477a27.908,27.908,0,0,1-3.18,1.415,6.36,6.36,0,0,0-2.7,1.948q-.448.554-.937,1.1l-.012.014a.558.558,0,0,0,.561.912c.306-.083.617-.177.933-.284a12.9,12.9,0,0,0,4.337-2.4,10.191,10.191,0,0,0,1.723-1.907.558.558,0,0,0-.724-.807" transform="translate(-404.515 -833.704)" fill="#dc3a86"/>
    <path id="패스_23255" data-name="패스 23255" d="M437.8,282.408a1.481,1.481,0,0,0-.452,1.937c.39.557,1.154.484,1.786.042a1.187,1.187,0,0,0,.411-1.7,1.207,1.207,0,0,0-1.745-.28" transform="translate(-388.376 -250.673)" fill="#1a1311"/>
    <path id="패스_23256" data-name="패스 23256" d="M469.856,271.352a1.481,1.481,0,0,0-.452,1.937c.39.557,1.154.484,1.786.042a1.187,1.187,0,0,0,.411-1.7,1.207,1.207,0,0,0-1.745-.28" transform="translate(-416.855 -240.851)" fill="#1a1311"/>
    <path id="패스_23257" data-name="패스 23257" d="M438.1,483.9c-.153.075-.316.145-.473.211a5.917,5.917,0,0,0-.8.389,5.3,5.3,0,0,0-.7.54l-.04.039-.054.054-.033.024a1.5,1.5,0,0,1-.147.087l-.115.055c-.159.074-.3.14-.373.182l-.063.018h0l-.016,0-.037-.008-.141-.032-.161-.037a3.854,3.854,0,0,0-1.019-.105,2.54,2.54,0,0,0-1.09.311c-.052.029-.1.059-.149.089l-.073.045a3.1,3.1,0,0,0-.643.107,2.272,2.272,0,0,0-.864.486c-.138.113-.264.237-.386.357a1.559,1.559,0,0,0-.774.206,4,4,0,0,0-.713.558l-.043.036a2,2,0,0,0-1.231.7c-.1.125-.2.26-.324.428a1.384,1.384,0,0,0-.29.054,3.14,3.14,0,0,0-1.007.546,1.568,1.568,0,0,0-1.357-.252,2.683,2.683,0,0,0-.577.269,1.371,1.371,0,0,0-1.553-.448,3.1,3.1,0,0,0-1.15.7l-.042.045a1.491,1.491,0,0,0-.849.428c-.312.313-.606.649-.891.973l-.017.019-.074-.015a2.031,2.031,0,0,0-1.456.237,3.539,3.539,0,0,0-.433.322l-.024.017-.058.041c-.294.2-.6.4-.9.6a1.263,1.263,0,0,0-1.117-.1,5.13,5.13,0,0,0-1.8,1.2,1.745,1.745,0,0,0-.527.036,2.689,2.689,0,0,0-1.412,1.037c-.092.106-.179.206-.27.3l-.047.05a1.571,1.571,0,0,0-.554-.4,1.552,1.552,0,0,0-1.932.629c-.038.06-.076.121-.114.184l-.011-.015a1.579,1.579,0,0,0-1.612-.558A1.9,1.9,0,0,0,406.3,495.7c-.07.137-.133.278-.194.414-.031.069-.062.139-.095.209a1.522,1.522,0,0,0-.482-.319,1.564,1.564,0,0,0-1.931.628c-.069.106-.141.219-.212.336-.058.06-.116.121-.176.18a9.329,9.329,0,0,0-.767.911l-.095.123-.034.044a1.552,1.552,0,0,0-2.077-.518,3.749,3.749,0,0,0-1.192,1.193l-.056.076c-.058.079-.117.161-.178.248a1.472,1.472,0,0,0-.69-.908,1.545,1.545,0,0,0-1.576.007,4.574,4.574,0,0,0-.473.375,1.555,1.555,0,0,0-2.641-1.066,2.819,2.819,0,0,0-.536.737,1.772,1.772,0,0,0-1.334-.161,3.754,3.754,0,0,0-2.062,1.868c-.328.541-.662,1.111-1.014,1.732.044-.137.087-.261.129-.38l.027-.077c.029-.083.059-.169.093-.248l.11-.224a1.621,1.621,0,0,0-.06-1.619l.027-.028.046-.046.082-.081a1.544,1.544,0,0,0,.451-1.132,1.47,1.47,0,0,0-.454-1.067,1.572,1.572,0,0,0-2.182,0c-.042.039-.085.082-.129.127-.21.208-.414.421-.608.637.054-.111.1-.212.148-.309s.092-.192.14-.29c.422-.867.9-1.85.312-2.826a1.653,1.653,0,0,0-.1-.147,1.512,1.512,0,0,0,.423-1.17,1.634,1.634,0,0,0-.5-1.038,2.735,2.735,0,0,0,.592-1.835,1.7,1.7,0,0,0-.4-1.005,2.094,2.094,0,0,0,.056-.269c.007-.048.012-.1.016-.145a2.756,2.756,0,0,0,.722-1.21,1.686,1.686,0,0,0-.207-1.256,1.412,1.412,0,0,0-.885-.646,1.573,1.573,0,0,0-1.865.969l-.078.082c-.074.077-.15.157-.223.24l-.107.12a2.987,2.987,0,0,0-.731,1.135,1.4,1.4,0,0,0-.049.549c-.152.169-.3.327-.441.478-.323.341-.671.69-1.035,1.036a3.511,3.511,0,0,0-1.031,1.441,1.52,1.52,0,0,0,.188,1.246,1.544,1.544,0,0,0,.755.655,14.245,14.245,0,0,0-.657,1.477c-.19.191-.344.354-.482.513a8.917,8.917,0,0,0-2.275,5.485,1.508,1.508,0,0,0,1.186,1.488c-.249.344-.5.716-.765,1.151l-.156.25a8.884,8.884,0,0,0-.735,1.342,1.532,1.532,0,0,0,.712,1.775,1.678,1.678,0,0,0,.249.106,3.326,3.326,0,0,0-.038.669,1.555,1.555,0,0,0,.609,1.209q.046.035.094.068l-.014.019a1.551,1.551,0,0,0,2.426,1.891l.089-.094.2-.208-.213.548c-.024.047-.045.095-.065.141-.012.027-.023.053-.035.079l-.024.052a5.243,5.243,0,0,0-.317.782,2.749,2.749,0,0,0-.04,1.213,1.54,1.54,0,0,0,1.492,1.159,1.557,1.557,0,0,0,1.1-.454c.419-.426.8-.867,1.143-1.274a1.67,1.67,0,0,0,.536.928,1.447,1.447,0,0,0,1.415.328,7.906,7.906,0,0,0,2.931-2.14l.194-.193.379-.376.263-.261a1.6,1.6,0,0,0,1.905-.234c.35-.361.723-.754,1.138-1.194a1.6,1.6,0,0,0,.141.215,1.5,1.5,0,0,0,1.225.61,2.2,2.2,0,0,0,1.515-.645,1.551,1.551,0,0,0,2.4.264c1.928-2.153,4.171-4.72,6.216-7.455a1.691,1.691,0,0,0,.668-.187c.278-.143.559-.3.834-.48a1.565,1.565,0,0,0,2.005-.14c.072-.067.147-.142.227-.23l.07-.071a1.365,1.365,0,0,0,.356.542,1.621,1.621,0,0,0,1.857.245,3.861,3.861,0,0,0,.953-.71c.117-.108.228-.21.343-.305.4-.335.817-.671,1.226-1,.684-.549,1.416-1.158,2.3-1.915l.582-.5a2.184,2.184,0,0,0,.694-.3,4.447,4.447,0,0,0,.711-.62,1.84,1.84,0,0,0,.683-.369,33.043,33.043,0,0,0,2.584-2.5l.139-.145.146-.151a1.735,1.735,0,0,0,.98.577,1.288,1.288,0,0,0,1.032-.208,8.085,8.085,0,0,0,1.177-1.079c.029.007.058.013.087.017a2.274,2.274,0,0,0,1.527-.254,5.109,5.109,0,0,0,.811-.587l.055-.045c.072-.06.143-.121.214-.182s.12-.1.18-.154l.078-.067a1.884,1.884,0,0,0,1.019-.252,3.583,3.583,0,0,0,1.11-1.161l.007-.01a2.753,2.753,0,0,0,1.03-.56,2.181,2.181,0,0,0,.751-.217,3.8,3.8,0,0,0,.943-.732l.14-.136a2.89,2.89,0,0,0,1.025-.3c.06-.031.116-.065.17-.1l.049.011.024.005a5.535,5.535,0,0,0,.976.156,4.082,4.082,0,0,0,1.991-.582,4.348,4.348,0,0,0,.787-.526c.081-.066.159-.135.246-.211l.1-.085.057-.048c.042-.021.087-.041.124-.058l.066-.031c.09-.046.184-.089.272-.128l.253-.11c.167-.072.34-.146.509-.229a1.427,1.427,0,0,0,.716-.916,1.526,1.526,0,0,0-.153-1.217,1.579,1.579,0,0,0-2.1-.555" transform="translate(-335.618 -429.738)" fill="#1a1311"/>
    <path id="패스_23258" data-name="패스 23258" d="M957.5,440.889c-1.171,1.217-1.909,1.5-2.213,1.339s-1.785-1.5-.532-12.313c.534-4.609,1.358-9.124,1.689-10.86a.767.767,0,0,0-.6-.9c-.023,0-.045-.008-.068-.01a.767.767,0,0,0-.838.618c-.336,1.759-1.166,6.311-1.7,10.962a58.789,58.789,0,0,0-.488,8.536c.114,3.046.7,4.739,1.842,5.327a1.9,1.9,0,0,0,.882.213c1.414,0,2.787-1.473,3.3-2.02l-1.122-1.046c-.049.052-.1.1-.142.149" transform="translate(-846.418 -371.49)" fill="#1a1311"/>
    <path id="패스_23259" data-name="패스 23259" d="M841.652,272.158c-2.772.366-4.876-.294-6.256-1.961a6.471,6.471,0,0,1-1.207-2.332.431.431,0,0,0-.482-.31l-.081.013-.586.091a.432.432,0,0,0-.351.538,8.005,8.005,0,0,0,1.476,2.919,7.525,7.525,0,0,0,6.1,2.671,12.183,12.183,0,0,0,1.588-.108,7.61,7.61,0,0,0,5.416-2.912,6.771,6.771,0,0,0,.41-.634,8.956,8.956,0,0,0,1.04-4.814.768.768,0,0,0-1.535.074,7.14,7.14,0,0,1-1.16,4.477,6.149,6.149,0,0,1-4.371,2.288" transform="translate(-739.767 -235.066)" fill="#1a1311"/>
    <path id="패스_23260" data-name="패스 23260" d="M194.085,31.73a15.532,15.532,0,0,0-5.971-11.3c-2.46-2.018-5.9-3-9.964-2.829-.311.013-.614.032-.908.056a.677.677,0,0,0-.235-.931c-6.044-3.581-11.493-5.838-16.2-6.71a18.168,18.168,0,0,0-10.583.784,13.2,13.2,0,0,0-6.146,5.466,14.057,14.057,0,0,0-1.3,2.877,21.935,21.935,0,0,0-3.228-.472c-.987-.077-2.216-.121-3.064-.155a.3.3,0,0,1-.14-.56c.625-.368,1.438-.87,2.268-1.446,2.459-1.707,3.737-3.135,3.905-4.366a1.921,1.921,0,0,0-.614-1.71c-1.176-1.116-3.126-1.345-5.8-.681a20.288,20.288,0,0,0-2.93.99.6.6,0,0,1-.476,0l-.014-.006a.6.6,0,0,1-.189-.968,5.1,5.1,0,0,0,1.78-3.634,2.981,2.981,0,0,0-1.359-2.337l-.107-.064-.122-.027a8.722,8.722,0,0,0-6.6,1.48,20.125,20.125,0,0,0-3.553,2.929c.561-1.1,1.059-2.108,1.426-2.913.781-1.712.878-3.065.286-4.021A2.646,2.646,0,0,0,122.177,0h-.036l-.036,0a10.73,10.73,0,0,0-7.811,3.44,11.611,11.611,0,0,0-2.61,6.595.331.331,0,0,1-.415.291l-.006,0a.34.34,0,0,1-.252-.31,23.191,23.191,0,0,0-.409-3.275A9.691,9.691,0,0,0,109.518,3.7a2.99,2.99,0,0,0-2.556-1.657,2.384,2.384,0,0,0-1.867.844,5.425,5.425,0,0,0-1.071,2.823,6.532,6.532,0,0,0-4.249-2.9,5.573,5.573,0,0,0-4.749,1.915,6.165,6.165,0,0,0-1.677-.116,5.563,5.563,0,0,0-4.425,3.034,3.557,3.557,0,0,0-2.453.414,3.1,3.1,0,0,0-1.269,2.49c-.062.961.509,2.155,1.747,3.648A34.66,34.66,0,0,0,90.7,17.93c.321.282.644.559.962.828-.417-.151-.847-.3-1.289-.447-4.9-1.625-8.591-1.983-10.955-1.063a4.463,4.463,0,0,0-2.67,2.616c-.78,2.019-.637,3.682.425,4.942,1.364,1.619,4.227,2.436,8.525,2.435q.923,0,1.936-.05c.848-.042,1.673-.108,2.446-.184a27.942,27.942,0,0,0-2.8,1.876,18.58,18.58,0,0,0-4.86,5.3,12.387,12.387,0,0,0-1.673,7.746l.007.062.017.061A4.143,4.143,0,0,0,83.17,44.7a3.615,3.615,0,0,0,1.2.2,6.751,6.751,0,0,0,3.584-1.286,5.55,5.55,0,0,0,2.888,1.783,8.468,8.468,0,0,0,2.185.264,13.127,13.127,0,0,0,1.928-.153c.245,1.3,1.021,4.3,3.136,5.848a4.916,4.916,0,0,0,2.974.966c.065,0,.13,0,.2,0a6.2,6.2,0,0,0,.117,1.1c.675,3.433,4.034,5.66,4.177,5.753l.264.109a14.024,14.024,0,0,0,2.829.306,8.98,8.98,0,0,0,6.2-2.263,12.513,12.513,0,0,0,3.264-5.136,22.515,22.515,0,0,0,.9-3.266q.254-1.262.408-2.651c.011-.1.021-.19.03-.285a22.984,22.984,0,0,0,1.126,2.556,21.058,21.058,0,0,0,2.022,3.2,15.271,15.271,0,0,0,3.693,3.514,6.646,6.646,0,0,0,3.767,1.232,3.434,3.434,0,0,0,2.786-1.54,6.983,6.983,0,0,0,.968-4.01A18.749,18.749,0,0,0,132.3,43.7q-.2-.475-.43-.943a7.159,7.159,0,0,0,2.079.332,5.151,5.151,0,0,0,2.071-.418,5.949,5.949,0,0,0,3.064-3.5l-.042-.012c.038-.019.077-.038.113-.058a4.209,4.209,0,0,0,1.949-2.465,11.561,11.561,0,0,0,2.868.4c3.052,0,4.013-1.67,4.155-1.957a3.222,3.222,0,0,0,.08-2.864c-.678-1.5-2.522-2.91-5.482-4.18q-.345-.148-.68-.281a10.965,10.965,0,0,0,4.69-1.99,3.031,3.031,0,0,0,.5-.49c.275-.171.55-.337.825-.5a32.808,32.808,0,0,1,9.435-3.9,21.487,21.487,0,0,1,9.366-.114,20.123,20.123,0,0,1,8.324,4.029,1.3,1.3,0,0,1,.486,1.025,1.319,1.319,0,0,1-.869,1.246,24.8,24.8,0,0,1-7.919,1.392,28.876,28.876,0,0,1-4.241-.226.74.74,0,0,0-.824.6l-.01.053a.74.74,0,0,0,.629.873c.575.076,1.447.169,2.526.215.418.018.866.029,1.342.029q.277,0,.567-.005a24.778,24.778,0,0,0,10.664-2.449,1.452,1.452,0,0,0,.774-1.051,1.5,1.5,0,0,0-.412-1.294,21.643,21.643,0,0,0-10.71-5.932,23.008,23.008,0,0,0-10.031.115,27.879,27.879,0,0,0-7.226,2.829,2.02,2.02,0,0,1-2.6-.619,3.024,3.024,0,0,0-.215-.264,5.655,5.655,0,0,0-1.3-1.034,2,2,0,0,1-.96-1.435,1.978,1.978,0,0,1,.2-1.209c.11-.211.232-.429.365-.653a11.512,11.512,0,0,1,5.423-4.794,16.713,16.713,0,0,1,9.694-.671,47.064,47.064,0,0,1,13.922,5.5.563.563,0,0,1-.163,1.043l-.109.023c-.247.052-.468.1-.657.148a.768.768,0,0,0,.361,1.493,22.863,22.863,0,0,1,4.354-.606c2.551-.1,6.165.249,8.89,2.484A14.2,14.2,0,0,1,192.552,31.8a14.472,14.472,0,0,1-.594,4.685l-.049.007s.006.041.014.11a18.994,18.994,0,0,1-1.067,2.753,31.034,31.034,0,0,1-5.558,7.781c.216-.41.349-.634.353-.641l-.658-.4-.657-.4a29.006,29.006,0,0,0-1.862,3.919.686.686,0,0,1-1.1.252l-.011-.01a.574.574,0,0,0-.785.006l-.129.122a.766.766,0,0,0,.019,1.128,13.477,13.477,0,0,0,1.144.913l-.075.236a33.711,33.711,0,0,0-1.405,6.881,27.574,27.574,0,0,0,.132,6.449q.068.476.152.947a.767.767,0,1,0,1.51-.272,28,28,0,0,1,.533-11.609,1.689,1.689,0,0,1,2.014-1.246,4.643,4.643,0,0,0,1.058.128,3.638,3.638,0,0,0,1.324-.241,4.831,4.831,0,0,0,2.586-2.9l.067.131c4.923-2.541,4.218-11.64,3.974-13.809a15.925,15.925,0,0,0,.6-5m-48.1-9.376a1.487,1.487,0,0,1-.19,2.189,8.861,8.861,0,0,1-3.09,1.478,15.659,15.659,0,0,1-4.639.487,1.156,1.156,0,0,1-.665-.229l-.028-.022c-1.292-1.056-3.457-1.413-6.457-1.068a.384.384,0,0,1-.274-.689q.5-.373.952-.753a15.225,15.225,0,0,0,2.318-2.389,3.182,3.182,0,0,1,2.473-1.247c.841-.015,1.92,0,3.063.085a17.184,17.184,0,0,1,4.239.794,5.557,5.557,0,0,1,2.3,1.363m.77,12.027h0l-.011.029a2.019,2.019,0,0,1-1.043.8,6.513,6.513,0,0,1-3.878.013.553.553,0,0,1-.428-.541,10.673,10.673,0,0,0-.932-4.223q-.174-.4-.375-.784a.554.554,0,0,1,.683-.777c2.381.885,5.3,2.3,6.038,3.942a1.67,1.67,0,0,1-.051,1.54m-8.346,3.369a1.786,1.786,0,0,1-.356.145c-.913.272-2.992.284-7.672-1.4-2.267-.814-4.354-1.751-5.4-2.237a.839.839,0,0,0-1.009.237c-.01.013-.021.025-.03.038s-.031.046-.045.07a.84.84,0,0,0,.218,1.083,23.227,23.227,0,0,1,3.789,3.71q.226.279.442.562a20.231,20.231,0,0,1,2.55,4.363,17.219,17.219,0,0,1,1.376,6.617,5.622,5.622,0,0,1-.7,3.134,1.9,1.9,0,0,1-1.584.873c-1.758.074-4.183-1.555-6.18-4.149a14.82,14.82,0,0,1-1.737-3.259A57.454,57.454,0,0,1,119.708,40a.84.84,0,0,0-1.655.23,42.351,42.351,0,0,1-.162,5.868,28.379,28.379,0,0,1-.451,2.821c-.863,4.028-2.386,6.154-3.62,7.259-1.887,1.689-4.424,2.237-7.542,1.628-.549-.393-2.915-2.214-3.4-4.693a5.086,5.086,0,0,1,.966-3.947c1.732-2.506,4-5.421,5.939-7.833.609-.758,1.186-1.466,1.7-2.1,1.2-1.459,2.08-2.5,2.31-2.771a.783.783,0,0,0-.147-1.151l-.015-.01a.787.787,0,0,0-.891.011c-.348.246-1.432,1-2.969,1.974q-.315.2-.655.41c-1.492.924-3.322,1.992-5.285,2.99q-.3.153-.6.3a33.783,33.783,0,0,1-7.385,2.782,9.969,9.969,0,0,1-4.617.137A4,4,0,0,1,88.5,41.62c-.012-.03-.042-.11-.082-.228-.318-.937-1.314-4.429.392-7.228,1.216-1.995,3.563-3.271,6.984-3.8q.229-.036.466-.067c.307-.041.62-.076.943-.106h.012c.3-.032.728-.052,1.243-.064,1.08-.024,2.544-.006,4.023.032l.66.019c2.712.082,5.287.225,5.423.31.821.511,1.487.914,1.942,1.185a.767.767,0,0,0,.787-1.317c-.768-.459-2.163-1.307-3.887-2.42-2.286-1.477-5.152-3.421-7.909-5.551a62.4,62.4,0,0,1-4.9-4.16,19.641,19.641,0,0,1-4.62-5.905,5.017,5.017,0,0,1-.426-1.692,2.781,2.781,0,0,1,.235-1.314c.084-.182.171-.354.259-.521.889-1.675,2.012-2.545,3.423-2.651a5.164,5.164,0,0,1,1.845.234c2.451.727,5.529,3.072,9.056,6.916q.264.287.531.586c.106.118.211.236.318.357.515.584,1.013,1.171,1.49,1.748,1.147,1.388,2.17,2.724,3,3.848.87,1.181,1.526,2.128,1.884,2.656a.567.567,0,0,0,.057.068.561.561,0,0,0,.716.087l.343-.224a.566.566,0,0,0,.158-.786c-.379-.558-1.079-1.568-2.008-2.825l-.172-.232-.151-.2-.022-.029-.037-.049.029-.012.013-.006.324-.136a.578.578,0,0,0,.3-.712c-.374-.926-.648-1.7-.846-2.353a11.917,11.917,0,0,1-.436-1.872c-.124-.938.033-1.273.093-1.362.023-.034.064-.092.225-.107a.927.927,0,0,1,.1,0,3.256,3.256,0,0,1,2.042.9,5.851,5.851,0,0,1,.5.491,11.867,11.867,0,0,1,2.37,4.739,18.767,18.767,0,0,1,.644,4.585q.012.65-.02,1.3a.767.767,0,0,0,1.532.081c.012-.25.018-.5.021-.75,0-.086,0-.171,0-.257a10.566,10.566,0,0,1,2.4-6.74,14.064,14.064,0,0,1,3.311-2.951,12.264,12.264,0,0,1,5.941-1.528c.092,0,.183,0,.274,0a7.467,7.467,0,0,1,2.966.619,2.88,2.88,0,0,1,1.191.956,5.542,5.542,0,0,1,.645,4.591c-.019.066-.038.132-.059.2a5.336,5.336,0,0,1-.8,1.5c-2.635,3.6-9.958,7.287-11.7,8.129a.428.428,0,0,0-.2.56l.187.472a.824.824,0,0,0,1.092.455,33.311,33.311,0,0,1,5.4-1.812c3.865-.883,6.731-.88,8.144,0a2.508,2.508,0,0,1,.264.188c.092.076.183.155.274.237a9.929,9.929,0,0,1,2.377,3.389,8.684,8.684,0,0,1,.783,4.1c-.009.1-.021.2-.036.3a2.98,2.98,0,0,1-1.391,2.278m-2.974,3.5-.027.012c-.8.345-2.534.038-3.637-.214a2.433,2.433,0,0,1-1.473-1q-.573-.844-1.234-1.656l-.01-.012a.369.369,0,0,1,.414-.58l.382.139a30.047,30.047,0,0,0,5.338,1.476.966.966,0,0,1,.248,1.835M100.3,50.7a3.359,3.359,0,0,1-1.3-.588,7.06,7.06,0,0,1-2.238-3.671,1.233,1.233,0,0,1,.839-1.536,32.44,32.44,0,0,0,3.3-1.173,1.43,1.43,0,0,1,1.968,1.432c-.115,1.49-.315,2.823-.387,3.271a7.9,7.9,0,0,0-.783,1.49,1.236,1.236,0,0,1-1.4.773m4.171-8.316a.462.462,0,0,1,.242-.429c.479-.26,1.554-.845,2.614-1.438a.464.464,0,0,1,.589.694c-.853,1.07-1.747,2.213-2.618,3.359a.464.464,0,0,1-.832-.3c.028-.638.034-1.281.005-1.885m-22.213-.7a10.88,10.88,0,0,1,1.471-6.712,17.021,17.021,0,0,1,4.446-4.852,28.424,28.424,0,0,1,5.3-3.157.393.393,0,0,1,.553.308,4.649,4.649,0,0,0,.318,1.172q.026.061.052.121a.4.4,0,0,1-.269.549c-3.136.733-5.362,2.159-6.636,4.257-2.378,3.915-.49,8.639-.408,8.839l.014.032.032.067c-1.392.908-2.574,1.232-3.44.936a2.571,2.571,0,0,1-1.429-1.561M78.175,20.417a2.948,2.948,0,0,1,1.795-1.738c1.992-.775,5.415-.4,9.9,1.083a48.742,48.742,0,0,1,5.885,2.527.406.406,0,0,1-.189.77h0l-.46-.007-.223.4q-.045.081-.089.166a2.884,2.884,0,0,1-2.13,1.518c-1.339.2-3.186.425-5.127.521-4.73.234-8-.421-9.193-1.843-.683-.81-.737-1.923-.167-3.4m19.248,4.411.1.019a61.563,61.563,0,0,1,7.406,3.436.351.351,0,0,1-.2.659c-.716-.064-1.425-.124-2.114-.175l-.149-.011c-1.324-.1-2.566-.162-3.624-.168-.6,0-1.141.012-1.6.052l-.191.018c-.253.023-.5.05-.744.08a3.2,3.2,0,0,1-.577-.943,3.27,3.27,0,0,1-.21-1.44c0-.04,0-.08.009-.12a1.6,1.6,0,0,1,1.892-1.406M86.732,10.644a1.561,1.561,0,0,1,.571-1.3,1.663,1.663,0,0,1,.906-.221c-.516,1.6-.054,3.5,1.377,5.675-2.686-2.695-2.875-3.832-2.854-4.153M97.568,4.571a3.574,3.574,0,0,1,1.976-.245,5.665,5.665,0,0,1,3.3,2.431c.211.285.4.568.564.833a3.483,3.483,0,0,1,.518,1.641q0,.086.01.169a.5.5,0,0,1-.842.393,24.429,24.429,0,0,0-5.565-4.164.584.584,0,0,1,.039-1.059m9.377-.995c1.476.016,2.195,2.971,2.451,5.424a2.274,2.274,0,0,1-.563,1.771,1.8,1.8,0,0,0-.163.207,3.665,3.665,0,0,0-.272,2.873.606.606,0,0,1-.957.593.641.641,0,0,1-.1-.095l-.165-.193q-.394-.463-.8-.927a6.254,6.254,0,0,1-.827-2.907c-.233-2.171-.226-5.364.7-6.426a.85.85,0,0,1,.695-.319m25.8,2.574c0,.023,0,.046,0,.069.04,1.228-1.406,2.639-2.587,3.583a1.192,1.192,0,0,1-.783.26l-.054,0a13.843,13.843,0,0,0-7.018,1.727c-.033.019-.188.11-.429.272a.3.3,0,0,1-.4-.434q.2-.247.4-.493c2.482-2.994,6.136-6.37,9.8-6.04a1.173,1.173,0,0,1,1.069,1.057M141,11.932c-.147,1.075-2.524,2.8-3.248,3.306-.443.308-.884.595-1.293.851a.4.4,0,0,1-.617-.324,7.03,7.03,0,0,0-1.119-3.44l0,0a.405.405,0,0,1,.2-.609c.472-.166,1.015-.338,1.585-.479,2.636-.651,3.819-.19,4.347.311a.4.4,0,0,1,.15.389m-23.882-8.91a10.425,10.425,0,0,1,5.029-1.485,1.113,1.113,0,0,1,.8.455c.29.481.154,1.393-.382,2.567-1.1,2.4-3.441,6.778-5.114,9.847a1.109,1.109,0,0,1-1.961-.022,10.585,10.585,0,0,0-1.545-2.3l-.007-.008a2.72,2.72,0,0,1-.7-2.1,10.022,10.022,0,0,1,2.217-5.522c.039-.045.081-.087.121-.131a7.649,7.649,0,0,1,1.541-1.3m73.163,44.091a31.647,31.647,0,0,0,.3-3.939l-.135,0q.682-1.032,1.237-2.057a.223.223,0,0,1,.419.116c-.013.286-.031.577-.055.871a12.935,12.935,0,0,1-1.352,5.156.223.223,0,0,1-.415-.144m-6.14,2.5.01-.025a.544.544,0,0,1,.889-.17l.085.087a44.674,44.674,0,0,0,3.145-3.409.322.322,0,0,1,.567.243,14.1,14.1,0,0,1-.766,3.373,3.492,3.492,0,0,1-1.766,2.163l-.09.032a1.7,1.7,0,0,1-2.075-2.295" transform="translate(-67.741 0)" fill="#1a1311"/>
    <path id="패스_23261" data-name="패스 23261" d="M257.29,656.536a12.646,12.646,0,0,1-3.7,1.728.768.768,0,0,0,.419,1.478,14.126,14.126,0,0,0,4.1-1.911,11.521,11.521,0,0,0,2.113-1.863,11.022,11.022,0,0,0,2.679-7.83c-.084-3.583-1.156-6.315-3.189-8.119a9.628,9.628,0,0,0-6.041-2.269.769.769,0,0,0-.788.841c0,.015,0,.029.006.043a.767.767,0,0,0,.732.653,8.164,8.164,0,0,1,5.085,1.891c1.693,1.51,2.588,3.864,2.661,7a9.321,9.321,0,0,1-4.083,8.362" transform="translate(-224.67 -566.591)" fill="#1a1311"/>
    <path id="패스_23262" data-name="패스 23262" d="M471.521,687.962c-6.717,2.443-13.224,5.269-15.33,6.2a.767.767,0,0,0,.62,1.4c2.087-.921,8.561-3.734,15.242-6.164a92.13,92.13,0,0,1,11.585-3.542,19.962,19.962,0,0,1,3.2-.45,2.118,2.118,0,0,1,1.871,3.275q-.105.162-.225.334a.772.772,0,0,0-.105.667.768.768,0,0,0,1.362.219,9.7,9.7,0,0,0,1.387-2.552,2.545,2.545,0,0,0-.263-2.474c-1.042-1.318-4.182-2.432-19.348,3.084" transform="translate(-404.885 -607.505)" fill="#1a1311"/>
    <path id="패스_23263" data-name="패스 23263" d="M107.277,549.108c.855-1.408,1.725-2.643,2.458-3.615.43-.57.814-1.051,1.118-1.421a.658.658,0,0,0-.784-1.017c-.009,0-.016.011-.025.016a.62.62,0,0,0-.14.108,29.829,29.829,0,0,0-3.913,5.091,25.018,25.018,0,0,0-2.876,6.641,19.89,19.89,0,0,0-.411,8.411,20.177,20.177,0,0,0,2.808,7.485,19.05,19.05,0,0,0,4.191,4.675,23.492,23.492,0,0,0,4.871,2.885,1.912,1.912,0,0,1,1.1,2.031l-.025.159.792.125a.725.725,0,0,0,.832-.615,46.95,46.95,0,0,0-.941-17.2c-.04-.168-.081-.333-.122-.5a43.291,43.291,0,0,0-2.038-6.208.783.783,0,0,0-1.01-.431.768.768,0,0,0-.413,1.008,42.508,42.508,0,0,1,2.092,6.486,68.292,68.292,0,0,1,.967,7.394,3.667,3.667,0,0,1-4.581,3.9,1.7,1.7,0,0,1-.612-.276c-.456-.368-.888-.758-1.3-1.165a17.373,17.373,0,0,1-2.526-3.128,18.667,18.667,0,0,1-2.57-6.885,18.361,18.361,0,0,1,.375-7.74,23.45,23.45,0,0,1,2.684-6.218" transform="translate(-91.005 -482.398)" fill="#1a1311"/>
    <path id="패스_23264" data-name="패스 23264" d="M79.517,563.808q-.881.025-1.769.106a32.514,32.514,0,0,0-8.042,1.816,64.772,64.772,0,0,0-7.346,3.64,3.232,3.232,0,0,1-3.6-.308c-.206-.165-.4-.31-.561-.433a.764.764,0,0,0-1.1.208v0a.772.772,0,0,0,.194,1.03l.02.015a1.768,1.768,0,0,1,.033,2.81,38.817,38.817,0,0,0-3.886,3.424l1.111,1.058a38.046,38.046,0,0,1,3.6-3.177,2.042,2.042,0,0,1,3.246,1.093,3.96,3.96,0,0,1,.1,1.468,5.27,5.27,0,0,1-2.118,3.292,15.611,15.611,0,0,1-3.254,1.976.644.644,0,0,1-.841-.888,29.476,29.476,0,0,0,1.891-4.178l-1.454-.491a32.44,32.44,0,0,1-5.961,9.937,24.277,24.277,0,0,1-2.653,2.555c-.192,0-.313.253-.313.253a19.337,19.337,0,0,1-5.047,2.92,19.535,19.535,0,0,1-11.971.5,23.685,23.685,0,0,1-10.462-5.263,16.758,16.758,0,0,1-4.53-6.916,19.473,19.473,0,0,1-.946-8.037.769.769,0,0,0-1.53-.153c-.022.214-.043.465-.06.749a.9.9,0,0,1-.36.676A.909.909,0,0,1,10.7,573.4a49.317,49.317,0,0,1-3.5-3.984,32.3,32.3,0,0,1-4.143-6.694,15.318,15.318,0,0,1-1.495-7.381,16.058,16.058,0,0,1,2.166-6.72,24.251,24.251,0,0,1,4.051-5.157A32.041,32.041,0,0,1,12.88,539.4a.768.768,0,0,0-.823-1.3,33.236,33.236,0,0,0-5.318,4.245,25.833,25.833,0,0,0-4.323,5.5A17.585,17.585,0,0,0,.04,555.223a16.817,16.817,0,0,0,1.622,8.126A33.817,33.817,0,0,0,6,570.366c.72.919,1.63,1.948,2.477,2.865a26.581,26.581,0,0,1,4.642,6.956c.109.238.187.416.217.5a18.277,18.277,0,0,0,4.93,7.578,25.156,25.156,0,0,0,11.163,5.654,23.875,23.875,0,0,0,5.8.745,19.561,19.561,0,0,0,7.124-1.311A20.836,20.836,0,0,0,47.7,590.28a20,20,0,0,0,5.189-.972,12.566,12.566,0,0,0,8.472-8.146.5.5,0,0,1-.2-.832,6.212,6.212,0,0,0,1.888-3.579,6.956,6.956,0,0,0-.743-3.24,2.29,2.29,0,0,1,1-2.913c.354-.2.743-.409,1.152-.63a52.135,52.135,0,0,1,5.773-2.8q.586-.21,1.172-.4a29.672,29.672,0,0,1,8.169-1.436.767.767,0,0,0-.048-1.534m-28.569,23.4.012-.014q.49-.548.937-1.1a6.36,6.36,0,0,1,2.7-1.948,27.921,27.921,0,0,0,3.18-1.415.558.558,0,0,1,.724.807,10.193,10.193,0,0,1-1.723,1.907,12.9,12.9,0,0,1-4.337,2.4c-.315.106-.627.2-.933.284a.558.558,0,0,1-.561-.912" transform="translate(0 -477.956)" fill="#1a1311"/>
  </g>
</svg>
