<svg id="PPS_5" xmlns="http://www.w3.org/2000/svg" xmlns:xlink="http://www.w3.org/1999/xlink" width="131.611" height="86.134" viewBox="0 0 131.611 86.134">
  <defs>
    <clipPath id="clip-path">
      <rect id="사각형_6132" data-name="사각형 6132" width="131.611" height="86.134" fill="none"/>
    </clipPath>
  </defs>
  <g id="그룹_11577" data-name="그룹 11577" clip-path="url(#clip-path)">
    <path id="패스_25986" data-name="패스 25986" d="M957.6,106.072c-3.97.345-8.562,5.021-10.258,10.444s.148,9.541,4.117,9.2c2.985-.259,6.323-2.968,8.515-6.6l0,0a17.71,17.71,0,0,0,1.74-3.839c1.7-5.424-.148-9.541-4.117-9.2" transform="translate(-841.079 -94.219)" fill="#ffed00"/>
    <path id="패스_25987" data-name="패스 25987" d="M288.957,304.555h0a5.963,5.963,0,0,0-1.8,1.062c-2.2,1.891-2.483,4.93-.629,6.786a5.494,5.494,0,0,0,7.341-.063c2.2-1.891,2.483-4.93.629-6.786a5.243,5.243,0,0,0-5.542-1" transform="translate(-253.47 -270.242)" fill="#ffed00"/>
    <path id="패스_25988" data-name="패스 25988" d="M568.369,519.525h0a4.393,4.393,0,0,0-1.293-.834,3.382,3.382,0,0,0-4.68,1.823,4.049,4.049,0,0,0,2.462,4.817,3.382,3.382,0,0,0,4.68-1.823,3.863,3.863,0,0,0-1.169-3.982" transform="translate(-499.494 -460.529)" fill="#ffed00"/>
    <path id="패스_25989" data-name="패스 25989" d="M725.336,163.715c2.319-4.975-.623-11.257-.623-11.257s-6.7,1.785-9.022,6.76.623,11.257.623,11.257,6.7-1.785,9.022-6.76" transform="translate(-635.044 -135.447)" fill="#61b279"/>
    <path id="패스_25990" data-name="패스 25990" d="M728.187,366.6c-5.332-1.3-10.919,2.807-10.919,2.807s3.058,6.226,8.391,7.53,10.919-2.808,10.919-2.808-3.059-6.226-8.391-7.53" transform="translate(-637.238 -325.466)" fill="#61b279"/>
    <path id="패스_25991" data-name="패스 25991" d="M467.6,274.165s6.315-.736,9.678-5.075,2.5-10.638,2.5-10.638-6.315.736-9.678,5.075-2.5,10.638-2.5,10.638" transform="translate(-415.34 -229.615)" fill="#61b279"/>
    <path id="패스_25992" data-name="패스 25992" d="M421,581.348c-4.557-3.06-10.783-1.77-10.783-1.77s1.164,6.251,5.721,9.31,10.783,1.77,10.783,1.77-1.163-6.251-5.721-9.31" transform="translate(-364.445 -514.671)" fill="#61b279"/>
    <path id="패스_25993" data-name="패스 25993" d="M79.093,254.366c-.187-4.064-3.7-7.2-3.7-7.2s-3.211,3.449-3.024,7.513,3.7,7.2,3.7,7.2,3.211-3.449,3.024-7.513" transform="translate(-64.288 -219.584)" fill="#61b279"/>
    <path id="패스_25994" data-name="패스 25994" d="M106.918,641.7s-2.782,3.8-2.118,7.817,4.523,6.718,4.523,6.718,2.782-3.8,2.118-7.817-4.523-6.719-4.523-6.719" transform="translate(-93.015 -570.101)" fill="#61b279"/>
    <path id="패스_25995" data-name="패스 25995" d="M286.983,626.469c-1.673,3.708.039,8.1.039,8.1s4.424-1.622,6.1-5.331-.038-8.1-.038-8.1-4.424,1.622-6.1,5.331" transform="translate(-254.311 -551.833)" fill="#61b279"/>
    <path id="패스_25996" data-name="패스 25996" d="M15.959,454.562c1.625-3.73-.144-8.1-.144-8.1s-4.4,1.68-6.027,5.41.143,8.1.143,8.1,4.4-1.68,6.027-5.41" transform="translate(-8.086 -396.649)" fill="#61b279"/>
    <path id="패스_25997" data-name="패스 25997" d="M876.509,5.921a8.355,8.355,0,0,0-3.952,1.087,5.975,5.975,0,0,1-1.9,3.03,7.193,7.193,0,0,1-1.937,1.23,6.161,6.161,0,0,0,3.447-5.36,7.157,7.157,0,0,0-.371-2.143v0A5.524,5.524,0,0,0,866.463,0c-4.441,0-9.194,4.422-10.617,9.877a12.832,12.832,0,0,0-.3,1.483c1.948.136,3.867.875,4.177,2.966a4.7,4.7,0,0,1,.017,1.111,3.167,3.167,0,0,0-1.28-2.825,6.22,6.22,0,0,0-4.141-.587,9.9,9.9,0,0,0-1.022.19,13.949,13.949,0,0,0-7.84,9.334c-1.093,4.192.1,7.773,2.724,9.207a8.458,8.458,0,0,0,2.678.244,12.528,12.528,0,0,0,5.016-1.548,12.726,12.726,0,0,1-4.976,1.933,9.039,9.039,0,0,1-1.783.074,14.354,14.354,0,0,0-1.081,2.842c-1.423,5.455,1.023,9.877,5.464,9.877a9.371,9.371,0,0,0,5.759-2.3.384.384,0,0,1,.14-.149q.162-.116.317-.239a14.307,14.307,0,0,0,1.846-1.994,11.066,11.066,0,0,0,1.6-3.6,13.6,13.6,0,0,0,.312-4.326,13.758,13.758,0,0,1-.028,4.386c-.061.341-.149.752-.244,1.083a11.11,11.11,0,0,1-.38,1.144,5.444,5.444,0,0,0,3.864,1.495c4.441,0,9.194-4.422,10.617-9.877a10.037,10.037,0,0,0-.168-6.208,13.061,13.061,0,0,1-7.474,1.3c-2.193,3.634-5.53,6.343-8.515,6.6-3.969.345-5.813-3.772-4.117-9.2s6.288-10.1,10.257-10.444,5.813,3.772,4.117,9.2a17.709,17.709,0,0,1-1.741,3.839A12.4,12.4,0,0,0,878.572,22a14.809,14.809,0,0,0,3.4-6.2c1.423-5.455-1.023-9.877-5.464-9.877" transform="translate(-750.767 -0.001)" fill="#6e9cd3"/>
    <path id="패스_25998" data-name="패스 25998" d="M251.368,241.852a.133.133,0,0,1-.1,0c-.068-.016-.137-.029-.2-.041a4.893,4.893,0,0,0-1.352.07,3.762,3.762,0,0,0-1.67,1.013,6.5,6.5,0,0,0-1.294,2.041,7.143,7.143,0,0,1,1.184-2.217,4.494,4.494,0,0,1,.4-.426,4,4,0,0,1,.474-.387,5.807,5.807,0,0,0-1.315-2.739,4.99,4.99,0,0,0-7.35-.41,5.488,5.488,0,0,0-1.584,3.245,9.3,9.3,0,0,1,3.664,3.165,5.243,5.243,0,0,1,5.542,1c1.854,1.857,1.572,4.895-.629,6.786a5.494,5.494,0,0,1-7.341.063c-1.854-1.857-1.572-4.895.629-6.786a5.965,5.965,0,0,1,1.8-1.062,7.446,7.446,0,0,0-4.725-3.091,4.9,4.9,0,0,0-3.166,1.414,5.784,5.784,0,0,0-.213,7.822,5.337,5.337,0,0,0,2.044,1.47,1.981,1.981,0,0,1,1.653-.569,3.165,3.165,0,0,1,1.188.365,2.169,2.169,0,0,0-2.961.962,4.648,4.648,0,0,0-.408,1.28v0a5.874,5.874,0,0,0,1.362,4.642,4.991,4.991,0,0,0,7.35.41,5.247,5.247,0,0,0,.527-.6c-.828-1.066-1.482-2.424-1.061-3.647a2.513,2.513,0,0,1,.289-.574,2.638,2.638,0,0,0-.187,2.092,5.9,5.9,0,0,0,1.681,2.419c.164.15.335.3.5.426a4.918,4.918,0,0,0,5.972-.735,5.721,5.721,0,0,0,1.25-6.078,7.812,7.812,0,0,0-1.123-1.495,7.69,7.69,0,0,0-2.639-1.78,7.145,7.145,0,0,1,2.725,1.564,7.434,7.434,0,0,1,.811.875,5.03,5.03,0,0,0,1.239-.893,5.784,5.784,0,0,0,.213-7.822,5.224,5.224,0,0,0-3.17-1.777" transform="translate(-206.729 -210.857)" fill="#6e9cd3"/>
    <path id="패스_25999" data-name="패스 25999" d="M529.593,477.754a4.044,4.044,0,0,0-2.661.026,6.85,6.85,0,0,1-.878,3.458,3.863,3.863,0,0,1,1.169,3.982,3.382,3.382,0,0,1-4.68,1.823,4.049,4.049,0,0,1-2.462-4.817,3.382,3.382,0,0,1,4.68-1.823,4.392,4.392,0,0,1,1.292.835,5.487,5.487,0,0,0,.479-4.133,3.611,3.611,0,0,0-1.976-1.62,4.262,4.262,0,0,0-5.225,2.438,3.934,3.934,0,0,0-.295,1.832,1.46,1.46,0,0,1,.92.9,2.331,2.331,0,0,1,.151.9,1.6,1.6,0,0,0-1.611-1.634,3.424,3.424,0,0,0-.978.153h0a4.328,4.328,0,0,0-2.61,2.428,3.678,3.678,0,0,0,2.153,4.979,3.888,3.888,0,0,0,.571.149,3.019,3.019,0,0,1,2.054-1.9,1.85,1.85,0,0,1,.473,0,1.943,1.943,0,0,0-1.44.567,4.348,4.348,0,0,0-1.04,1.9c-.045.157-.086.319-.115.473a3.624,3.624,0,0,0,2.454,3.693,4.216,4.216,0,0,0,4.418-1.18,5.763,5.763,0,0,0,.615-1.233,5.668,5.668,0,0,0,.3-2.326,5.265,5.265,0,0,1-.132,2.311,5.489,5.489,0,0,1-.309.823,3.7,3.7,0,0,0,1,.522,4.262,4.262,0,0,0,5.225-2.438,3.849,3.849,0,0,0,.126-2.675.1.1,0,0,1-.036-.066c-.012-.05-.026-.1-.041-.148a3.6,3.6,0,0,0-.492-.868,2.772,2.772,0,0,0-1.218-.767,4.789,4.789,0,0,0-1.772-.18,5.265,5.265,0,0,1,1.851.049,3.337,3.337,0,0,1,.412.122,2.963,2.963,0,0,1,.412.185,4.277,4.277,0,0,0,1.371-1.77,3.678,3.678,0,0,0-2.153-4.979" transform="translate(-457.181 -422.242)" fill="#6e9cd3"/>
    <path id="패스_26000" data-name="패스 26000" d="M634.515,249.023c1.586-3.4-.426-7.7-.426-7.7s-4.583,1.22-6.169,4.622.426,7.7.426,7.7,4.583-1.22,6.169-4.622" transform="translate(-557.318 -214.4)" fill="#6e9cd3"/>
    <path id="패스_26001" data-name="패스 26001" d="M671.759,415.565s-2.066,4.269-.524,7.69,6.109,4.7,6.109,4.7,2.066-4.269.524-7.69-6.109-4.7-6.109-4.7" transform="translate(-595.833 -369.198)" fill="#6e9cd3"/>
    <path id="패스_26002" data-name="패스 26002" d="M197.654,649.347c-2.745,3-2.487,7.707-2.487,7.707s4.709-.163,7.455-3.165,2.487-7.708,2.487-7.708-4.709.163-7.455,3.166" transform="translate(-173.386 -574.082)" fill="#6e9cd3"/>
    <path id="패스_26003" data-name="패스 26003" d="M45.23,547.816s-3.211,3.449-3.024,7.513,3.7,7.2,3.7,7.2,3.211-3.449,3.024-7.513-3.7-7.2-3.7-7.2" transform="translate(-37.49 -486.692)" fill="#6e9cd3"/>
    <path id="패스_26004" data-name="패스 26004" d="M366.216,589.9s-3.211,3.449-3.024,7.513,3.7,7.2,3.7,7.2,3.211-3.449,3.024-7.513-3.7-7.2-3.7-7.2" transform="translate(-322.662 -524.078)" fill="#6e9cd3"/>
    <path id="패스_26005" data-name="패스 26005" d="M10.812,355.527s-.134-4.71-3.12-7.474S0,345.519,0,345.519s.134,4.71,3.12,7.474,7.692,2.534,7.692,2.534" transform="translate(0 -306.963)" fill="#6e9cd3"/>
    <path id="패스_26006" data-name="패스 26006" d="M427.036,174.765s-3.211,3.449-3.024,7.513,3.7,7.2,3.7,7.2,3.211-3.449,3.024-7.513-3.7-7.2-3.7-7.2" transform="translate(-376.696 -155.265)" fill="#6e9cd3"/>
    <path id="패스_26007" data-name="패스 26007" d="M188.9,308.334a1.778,1.778,0,0,0-2.372-.622c-.527.26-1.1.443-1.6.752a6.593,6.593,0,0,0-.863.663c-.012.01-.066.068-.122.123l-.062.044a2.046,2.046,0,0,1-.205.121c-.047.026-.51.235-.636.309-.049.016-.1.031-.148.043h-.054l-.091-.018c-.128-.027-.254-.06-.382-.087a4.655,4.655,0,0,0-1.231-.129,2.986,2.986,0,0,0-1.287.366c-.095.052-.184.111-.277.167l-.048.027a3.767,3.767,0,0,0-.82.13,2.67,2.67,0,0,0-1.014.574c-.193.158-.367.334-.544.508a1.751,1.751,0,0,0-.958.227,4.83,4.83,0,0,0-.862.677c-.026.025-.072.061-.118.1a2.347,2.347,0,0,0-1.48.819c-.165.2-.318.41-.466.623a1.575,1.575,0,0,0-.427.064,3.96,3.96,0,0,0-1.347.768,1.782,1.782,0,0,0-1.648-.4,3.133,3.133,0,0,0-.856.435,1.563,1.563,0,0,0-1.837-.666,3.681,3.681,0,0,0-1.377.834c-.036.036-.069.075-.1.115a1.667,1.667,0,0,0-1.031.487c-.434.436-.836.9-1.241,1.361a1.177,1.177,0,0,0-.209-.056,2.349,2.349,0,0,0-1.689.27,4.341,4.341,0,0,0-.527.394l-.115.082q-.628.43-1.268.844a1.422,1.422,0,0,0-1.334-.182,6.244,6.244,0,0,0-2.288,1.55,1.966,1.966,0,0,0-.709.028c-.909.2-1.422,1-2.014,1.633-.082.087-.165.173-.248.259a1.776,1.776,0,0,0-.776-.648,1.744,1.744,0,0,0-2.165.709c-.118.185-.23.374-.337.565a1.755,1.755,0,0,0-2.026-.954,2.281,2.281,0,0,0-1.43,1.352c-.159.31-.287.634-.441.946-.027.056-.056.111-.085.166a1.664,1.664,0,0,0-.753-.616,1.747,1.747,0,0,0-2.165.709q-.143.219-.279.442c-.08.084-.161.167-.244.25a13.419,13.419,0,0,0-1.075,1.291c-.09.116-.177.233-.266.349a1.792,1.792,0,0,0-.561-.753,1.753,1.753,0,0,0-1.925-.136,4.807,4.807,0,0,0-1.507,1.544c-.188.257-.369.518-.546.782,0-.02,0-.039,0-.059a1.808,1.808,0,0,0-.859-1.5,1.716,1.716,0,0,0-1.75,0,5.857,5.857,0,0,0-.966.842,2.489,2.489,0,0,0,0-.519,1.776,1.776,0,0,0-1.066-1.584,1.746,1.746,0,0,0-1.894.358,3.626,3.626,0,0,0-.752,1.112,1.967,1.967,0,0,0-1.726-.323,4.521,4.521,0,0,0-2.477,2.267c-.542.893-1.068,1.8-1.578,2.715a18.431,18.431,0,0,0-.9,1.861l.005-.016c.206-.664.394-1.332.594-2,.1-.351.215-.7.339-1.045.051-.143.1-.291.161-.432l.142-.29a1.79,1.79,0,0,0-.17-1.969c.057-.063.115-.125.174-.186s.109-.109.165-.162a1.751,1.751,0,0,0,0-2.452,1.77,1.77,0,0,0-2.452,0c-.055.051-.107.1-.159.157q-.52.514-1,1.067l-.01.009-.138.118a1.76,1.76,0,0,0-.169-.312c.121-.243.24-.486.355-.731.542-1.153,1.348-2.472.586-3.736a1.884,1.884,0,0,0-.243-.319q.07-.069.138-.14a1.743,1.743,0,0,0-.23-2.612,3.438,3.438,0,0,0,.833-2.343,1.855,1.855,0,0,0-.539-1.238,2.509,2.509,0,0,0,.1-.438q.018-.128.026-.251a3.356,3.356,0,0,0,.915-1.491,1.736,1.736,0,0,0-3.32-1.008c-.138.147-.279.29-.413.442a4.06,4.06,0,0,0-1.015,1.506,1.573,1.573,0,0,0-.04.706q-.313.35-.636.692-.643.679-1.322,1.324a4.222,4.222,0,0,0-1.249,1.735,1.807,1.807,0,0,0,1.321,2.19,17.4,17.4,0,0,0-.978,2.155c-.219.218-.433.441-.635.674a11.118,11.118,0,0,0-2.83,6.816,1.727,1.727,0,0,0,1.691,1.712c-.431.568-.815,1.147-1.191,1.756a13.8,13.8,0,0,0-1.114,1.988,1.732,1.732,0,0,0,.8,1.958,1.928,1.928,0,0,0,.472.174,4.261,4.261,0,0,0-.081,1.005,1.739,1.739,0,0,0,.683,1.361,1.928,1.928,0,0,0,.322.2c-.058.078-.117.156-.175.234a1.736,1.736,0,0,0,2.723,2.1,11.454,11.454,0,0,0,1.2-1.387c.035-.051.068-.1.1-.157l-.392,1.011-.371.955-.057.147c-.048.091-.086.19-.129.282a6.958,6.958,0,0,0-.42,1.024,3.286,3.286,0,0,0-.045,1.443,1.7,1.7,0,0,0,1.211,1.211,1.743,1.743,0,0,0,1.687-.446c.656-.666,1.259-1.378,1.849-2.1a1.779,1.779,0,0,0,2.175,2.021,10.638,10.638,0,0,0,3.874-2.906l.948-.94a1.813,1.813,0,0,0,2.284-.163q.852-.881,1.689-1.776a1.76,1.76,0,0,0,1.649,1.236,2.549,2.549,0,0,0,1.984-1,1.7,1.7,0,0,0,.548.725,1.724,1.724,0,0,0,2.276-.136c2.753-3.075,5.471-6.22,7.946-9.538a1.917,1.917,0,0,0,.862-.216,12.945,12.945,0,0,0,1.178-.687,1.766,1.766,0,0,0,2.376-.064c.1-.09.188-.184.277-.282l.387-.393a1.577,1.577,0,0,0,.482.979,1.823,1.823,0,0,0,2.1.271,8.06,8.06,0,0,0,1.594-1.257q.775-.642,1.56-1.272c.987-.792,1.956-1.605,2.918-2.427l.783-.671a2.5,2.5,0,0,0,.859-.365,5.689,5.689,0,0,0,.91-.8,2.091,2.091,0,0,0,.839-.439,44.037,44.037,0,0,0,3.438-3.346q.191-.2.384-.4l.013.023a1.746,1.746,0,0,0,2.372.622,10.282,10.282,0,0,0,1.56-1.448,1.125,1.125,0,0,0,.22.056,2.642,2.642,0,0,0,1.793-.3,6.813,6.813,0,0,0,1.061-.777c.169-.14.332-.286.5-.426.057-.047.112-.1.168-.144a2.168,2.168,0,0,0,1.258-.283,4.4,4.4,0,0,0,1.334-1.4l.057-.083a3.239,3.239,0,0,0,1.333-.713l.024-.021a2.546,2.546,0,0,0,.945-.259,4.584,4.584,0,0,0,1.137-.887c.078-.077.156-.152.235-.228a3.6,3.6,0,0,0,1.3-.361c.092-.048.18-.1.268-.157l.013-.008c.052.011.1.021.155.033a7.027,7.027,0,0,0,1.229.2,4.92,4.92,0,0,0,2.412-.713,5.341,5.341,0,0,0,.958-.64c.1-.085.2-.173.305-.262l.129-.114.089-.076c.1-.054.224-.1.267-.126.117-.06.237-.114.357-.168.32-.143.645-.272.96-.427a1.744,1.744,0,0,0,.622-2.372m-70.277,3.281a2.559,2.559,0,0,0-.242.1.755.755,0,0,1,.242-.1m67.9-.058c.011-.038.082-.085.163-.128-.015.011-.069.053-.163.128" transform="translate(-97.775 -273.187)" fill="#1a1311"/>
    <path id="패스_26008" data-name="패스 26008" d="M114.672,344.686a1.943,1.943,0,0,1-1.882-1.461,3.479,3.479,0,0,1,.051-1.535,6.646,6.646,0,0,1,.4-.992l.03-.065c.015-.033.03-.067.045-.1.025-.058.052-.119.083-.179l.295-.759c-.1.106-.2.21-.3.313l-.113.119a1.956,1.956,0,0,1-3.061-2.384l.026-.036q-.068-.044-.13-.093a1.961,1.961,0,0,1-.769-1.525,4.232,4.232,0,0,1,.05-.857,2.111,2.111,0,0,1-.324-.138,1.949,1.949,0,0,1-.833-.957,1.674,1.674,0,0,1-.064-1.281,11.265,11.265,0,0,1,.932-1.7c.066-.1.131-.21.2-.317.345-.559.662-1.036.982-1.476a1.9,1.9,0,0,1-1.515-1.881,11.308,11.308,0,0,1,2.884-6.956c.175-.2.37-.409.613-.652a18.061,18.061,0,0,1,.841-1.89,1.943,1.943,0,0,1-.966-.831,1.918,1.918,0,0,1-.238-1.571,4.448,4.448,0,0,1,1.306-1.824c.462-.44.9-.883,1.314-1.316.184-.194.369-.4.563-.612a1.761,1.761,0,0,1,.061-.7,3.781,3.781,0,0,1,.925-1.435l.136-.153c.093-.105.189-.206.283-.3l.1-.106a1.985,1.985,0,0,1,2.354-1.225,1.78,1.78,0,0,1,1.115.814,2.126,2.126,0,0,1,.261,1.585,3.492,3.492,0,0,1-.916,1.534c-.005.062-.012.125-.021.187a2.648,2.648,0,0,1-.073.347,2.139,2.139,0,0,1,.51,1.275,3.468,3.468,0,0,1-.755,2.331,2.061,2.061,0,0,1,.635,1.317,1.908,1.908,0,0,1-.541,1.483,2.086,2.086,0,0,1,.133.194c.744,1.233.137,2.477-.4,3.575-.061.125-.121.248-.178.369-.07.148-.144.3-.229.477.265-.3.545-.592.834-.878q.084-.087.163-.161a1.983,1.983,0,0,1,2.752,0,1.853,1.853,0,0,1,.572,1.345,1.948,1.948,0,0,1-.568,1.428l-.105.1-.058.057-.042.044a2.043,2.043,0,0,1,.081,2.051l-.14.285c-.043.1-.081.21-.118.315l-.035.1c-.066.184-.132.379-.2.6.47-.831.914-1.59,1.349-2.308a4.755,4.755,0,0,1,2.61-2.366,2.235,2.235,0,0,1,1.7.21,3.575,3.575,0,0,1,.684-.944,1.964,1.964,0,0,1,2.133-.4,1.985,1.985,0,0,1,1.2,1.764v.01a5.79,5.79,0,0,1,.618-.492,1.948,1.948,0,0,1,1.987-.009,1.862,1.862,0,0,1,.878,1.172c.083-.119.163-.23.242-.338l.071-.1a4.751,4.751,0,0,1,1.509-1.511,1.957,1.957,0,0,1,2.63.669l.054-.07.12-.156a11.832,11.832,0,0,1,.973-1.156q.114-.114.224-.229c.093-.151.181-.291.27-.427a1.974,1.974,0,0,1,2.436-.792,1.917,1.917,0,0,1,.622.415c.044-.094.086-.189.128-.282.077-.173.157-.352.247-.526a2.4,2.4,0,0,1,1.589-1.469,1.992,1.992,0,0,1,2.034.7l.026.034c.052-.086.1-.169.155-.25a1.958,1.958,0,0,1,2.437-.794,1.985,1.985,0,0,1,.708.514l.069-.073c.115-.123.225-.25.343-.385a3.4,3.4,0,0,1,1.785-1.313,2.2,2.2,0,0,1,.672-.045,6.5,6.5,0,0,1,2.289-1.522,1.591,1.591,0,0,1,1.414.125c.385-.251.771-.509,1.147-.766l.075-.053.03-.022a4.483,4.483,0,0,1,.548-.408,2.567,2.567,0,0,1,1.839-.3c.033.005.066.012.1.021l.026-.029c.361-.412.734-.837,1.13-1.235a1.88,1.88,0,0,1,1.075-.54c.018-.02.036-.04.056-.061a3.925,3.925,0,0,1,1.455-.885,1.73,1.73,0,0,1,1.965.574,3.4,3.4,0,0,1,.739-.346,1.978,1.978,0,0,1,1.719.324,3.993,3.993,0,0,1,1.281-.7,1.751,1.751,0,0,1,.371-.068c.151-.215.284-.391.414-.548a2.531,2.531,0,0,1,1.558-.886c.034-.027.05-.041.058-.049a5.086,5.086,0,0,1,.9-.707,1.969,1.969,0,0,1,.981-.259l0,0c.155-.153.315-.31.49-.454a2.875,2.875,0,0,1,1.092-.615,3.921,3.921,0,0,1,.816-.135l.1-.059c.06-.038.122-.076.189-.112a3.213,3.213,0,0,1,1.378-.393,4.9,4.9,0,0,1,1.29.134c.069.014.137.03.205.047s.119.028.178.041l.048.01.023,0h0l.084-.025c.094-.053.271-.136.474-.231l.146-.069a1.907,1.907,0,0,0,.185-.109l.046-.033.069-.07.05-.049a6.825,6.825,0,0,1,.892-.684,7.518,7.518,0,0,1,1.015-.493c.2-.085.407-.173.6-.269a1.992,1.992,0,0,1,2.655.7h0a1.925,1.925,0,0,1,.192,1.535,1.8,1.8,0,0,1-.9,1.155c-.214.105-.433.2-.645.291-.108.046-.215.093-.322.14s-.23.1-.346.163l-.082.038c-.048.021-.106.047-.16.075l-.074.062-.124.109c-.114.1-.209.184-.312.268a5.51,5.51,0,0,1-1,.666,5.15,5.15,0,0,1-2.522.737,7.008,7.008,0,0,1-1.237-.2l-.031-.007-.067-.015c-.07.043-.142.087-.22.127a3.664,3.664,0,0,1-1.3.374l-.181.176a4.815,4.815,0,0,1-1.194.927,2.755,2.755,0,0,1-.953.275,3.48,3.48,0,0,1-1.311.713l-.011.016a4.539,4.539,0,0,1-1.4,1.47,2.373,2.373,0,0,1-1.292.318l-.1.088c-.077.064-.153.13-.228.2s-.18.156-.272.232l-.069.057a6.476,6.476,0,0,1-1.028.744,2.875,2.875,0,0,1-1.931.321c-.039-.006-.078-.013-.117-.023a10.274,10.274,0,0,1-1.5,1.374,1.623,1.623,0,0,1-1.3.262,2.189,2.189,0,0,1-1.246-.739l-.2.2-.176.184a41.977,41.977,0,0,1-3.28,3.179,2.322,2.322,0,0,1-.865.467,5.651,5.651,0,0,1-.9.788,2.758,2.758,0,0,1-.879.384l-.741.635c-1.125.961-2.054,1.734-2.923,2.432-.52.418-1.044.845-1.557,1.27-.146.121-.287.25-.436.388a4.886,4.886,0,0,1-1.206.9,2.045,2.045,0,0,1-2.343-.309,1.723,1.723,0,0,1-.455-.7l-.1.105c-.1.112-.2.207-.287.292a1.975,1.975,0,0,1-2.537.172c-.352.225-.71.431-1.066.614a2.136,2.136,0,0,1-.849.236c-2.6,3.473-5.446,6.733-7.895,9.469a1.957,1.957,0,0,1-3.039-.347,2.785,2.785,0,0,1-1.927.826,1.9,1.9,0,0,1-1.544-.769,2.015,2.015,0,0,1-.187-.287c-.53.564-1.009,1.066-1.457,1.529a2.019,2.019,0,0,1-2.412.29l-.347.343-.476.472-.246.245A10.03,10.03,0,0,1,120,344.087a1.825,1.825,0,0,1-1.785-.414,2.128,2.128,0,0,1-.679-1.2c-.436.523-.93,1.092-1.471,1.641a1.964,1.964,0,0,1-1.392.572m-.249-6.575a.221.221,0,0,1,.206.3l-.392,1.011-.428,1.1a.241.241,0,0,1-.01.023c-.026.049-.05.1-.075.161-.016.038-.033.075-.05.111l-.031.065a6.312,6.312,0,0,0-.377.925,3.083,3.083,0,0,0-.039,1.351,1.487,1.487,0,0,0,1.051,1.03,1.523,1.523,0,0,0,1.471-.388c.7-.708,1.318-1.452,1.835-2.086a.221.221,0,0,1,.388.183,1.578,1.578,0,0,0,.536,1.444,1.37,1.37,0,0,0,1.354.323,9.558,9.558,0,0,0,3.54-2.606l.247-.246.477-.473.471-.467a.221.221,0,0,1,.283-.024,1.6,1.6,0,0,0,2-.136c.511-.528,1.063-1.108,1.686-1.774a.221.221,0,0,1,.373.088,1.539,1.539,0,0,0,1.43,1.079,2.328,2.328,0,0,0,1.819-.911.221.221,0,0,1,.379.056,1.471,1.471,0,0,0,.478.631,1.5,1.5,0,0,0,1.977-.108c2.462-2.75,5.33-6.032,7.933-9.523a.22.22,0,0,1,.175-.089,1.686,1.686,0,0,0,.763-.192,12.758,12.758,0,0,0,1.158-.675.221.221,0,0,1,.262.015,1.548,1.548,0,0,0,2.085-.056c.083-.077.169-.165.264-.268l.005-.006.387-.394a.221.221,0,0,1,.376.128,1.363,1.363,0,0,0,.412.843,1.6,1.6,0,0,0,1.858.234,4.557,4.557,0,0,0,1.093-.824c.147-.135.3-.275.453-.4.515-.426,1.04-.855,1.563-1.274.866-.7,1.792-1.465,2.913-2.423l.783-.67a.22.22,0,0,1,.1-.049,2.288,2.288,0,0,0,.781-.332,5.447,5.447,0,0,0,.875-.773.222.222,0,0,1,.105-.06,1.864,1.864,0,0,0,.75-.393,41.632,41.632,0,0,0,3.244-3.146l.176-.184q.192-.2.385-.4a.221.221,0,0,1,.348.042l.011.019a1.715,1.715,0,0,0,1.1.744,1.186,1.186,0,0,0,.951-.183,10.017,10.017,0,0,0,1.526-1.418.221.221,0,0,1,.24-.06.914.914,0,0,0,.177.045,2.433,2.433,0,0,0,1.655-.273,6.143,6.143,0,0,0,.956-.7l.07-.058c.089-.074.177-.15.265-.226s.155-.134.234-.2c.052-.043.1-.087.153-.132l.012-.01a.219.219,0,0,1,.162-.053,1.941,1.941,0,0,0,1.13-.254,4.188,4.188,0,0,0,1.263-1.339l.056-.082a.22.22,0,0,1,.129-.09,3,3,0,0,0,1.245-.668l.005,0,.017-.015a.222.222,0,0,1,.128-.053,2.308,2.308,0,0,0,.863-.237,4.442,4.442,0,0,0,1.079-.846c.071-.07.142-.139.214-.208l.022-.022a.221.221,0,0,1,.126-.06,3.382,3.382,0,0,0,1.227-.338c.07-.036.139-.078.212-.123l.043-.026.018-.01a.221.221,0,0,1,.155-.025l.036.007.124.027.028.006a6.69,6.69,0,0,0,1.159.187,4.724,4.724,0,0,0,2.3-.689,5.083,5.083,0,0,0,.919-.615c.1-.079.189-.16.3-.257l0,0a.569.569,0,0,1,.252-.212l0,0h0c.072-.038.15-.073.207-.1l.063-.029c.125-.064.25-.121.367-.173s.218-.1.328-.142c.207-.089.421-.181.624-.281a1.359,1.359,0,0,0,.672-.876,1.479,1.479,0,0,0-.138-1.178,1.566,1.566,0,0,0-2.089-.544c-.206.1-.419.192-.624.279a7.047,7.047,0,0,0-.956.463,6.305,6.305,0,0,0-.833.641l-.025.025c-.024.025-.056.057-.089.089a.217.217,0,0,1-.027.022l-.061.043-.005,0a2.3,2.3,0,0,1-.225.133c-.021.012-.061.03-.168.08-.144.067-.384.18-.458.224a.21.21,0,0,1-.043.02c-.058.019-.112.035-.165.048a.214.214,0,0,1-.053.006h-.061l-.036,0-.033-.007-.062-.012c-.06-.013-.123-.028-.186-.042s-.129-.031-.193-.044a4.385,4.385,0,0,0-1.172-.125,2.749,2.749,0,0,0-1.2.34c-.055.03-.109.064-.166.1l-.1.063-.053.03a.22.22,0,0,1-.1.028,3.548,3.548,0,0,0-.771.122,2.454,2.454,0,0,0-.936.533c-.16.131-.305.274-.46.427l-.069.068a.224.224,0,0,1-.165.063,1.535,1.535,0,0,0-.837.2,4.669,4.669,0,0,0-.822.646c-.028.027-.07.061-.135.111a.22.22,0,0,1-.1.042,2.125,2.125,0,0,0-1.347.741c-.141.172-.282.36-.455.609a.22.22,0,0,1-.178.095,1.35,1.35,0,0,0-.367.055,3.8,3.8,0,0,0-1.271.728.221.221,0,0,1-.287-.008,1.555,1.555,0,0,0-1.431-.352,2.909,2.909,0,0,0-.8.4.221.221,0,0,1-.31-.051,1.356,1.356,0,0,0-1.577-.588,3.452,3.452,0,0,0-1.3.783c-.033.033-.064.071-.088.1a.221.221,0,0,1-.15.08,1.445,1.445,0,0,0-.9.423c-.386.387-.755.808-1.111,1.214l-.12.137a.221.221,0,0,1-.242.062.952.952,0,0,0-.169-.046,2.123,2.123,0,0,0-1.539.242,4.188,4.188,0,0,0-.5.374l-.013.01-.036.026-.082.059c-.417.285-.845.57-1.272.847a.221.221,0,0,1-.242,0,1.22,1.22,0,0,0-1.129-.162,6.034,6.034,0,0,0-2.209,1.495.222.222,0,0,1-.194.069,1.741,1.741,0,0,0-.629.025,3.029,3.029,0,0,0-1.547,1.171c-.115.132-.233.269-.354.4l-.168.176-.081.085a.221.221,0,0,1-.343-.03,1.563,1.563,0,0,0-.679-.568,1.522,1.522,0,0,0-1.893.624c-.11.173-.218.354-.331.555a.217.217,0,0,1-.2.112.221.221,0,0,1-.192-.127,1.536,1.536,0,0,0-1.789-.83c-.463.079-.89.494-1.27,1.236-.084.164-.162.337-.237.5-.064.144-.131.292-.2.438-.024.048-.048.1-.073.144l-.013.026a.22.22,0,0,1-.184.12.224.224,0,0,1-.2-.1,1.441,1.441,0,0,0-.655-.535,1.52,1.52,0,0,0-1.894.627c-.091.139-.181.281-.276.437a.22.22,0,0,1-.029.037q-.122.128-.247.253a11.532,11.532,0,0,0-.936,1.113l-.121.157c-.056.072-.111.145-.166.217l-.1.13a.221.221,0,0,1-.381-.053,1.582,1.582,0,0,0-.491-.66,1.527,1.527,0,0,0-1.685-.116,4.349,4.349,0,0,0-1.364,1.383l-.071.1c-.167.228-.339.474-.541.775a.221.221,0,0,1-.4-.107v-.017c0-.012,0-.024,0-.036a1.577,1.577,0,0,0-.75-1.328,1.5,1.5,0,0,0-1.513-.009,5.607,5.607,0,0,0-.93.811.221.221,0,0,1-.381-.173,2.253,2.253,0,0,0,0-.473,1.554,1.554,0,0,0-.932-1.4,1.523,1.523,0,0,0-1.654.314,3.375,3.375,0,0,0-.705,1.046.221.221,0,0,1-.338.08,1.748,1.748,0,0,0-1.532-.282,4.371,4.371,0,0,0-2.344,2.168c-.5.832-1.019,1.718-1.574,2.708a18.068,18.068,0,0,0-.892,1.839.221.221,0,0,1-.415-.151l.005-.016c.128-.411.251-.832.37-1.238.074-.253.148-.506.223-.758.128-.429.234-.755.342-1.057l.034-.1c.04-.114.082-.232.131-.348l.005-.011.142-.289a1.562,1.562,0,0,0-.141-1.731.221.221,0,0,1,.006-.29c.068-.075.125-.135.179-.191l.06-.059.11-.108a1.5,1.5,0,0,0,.433-1.1,1.411,1.411,0,0,0-.429-1.026,1.551,1.551,0,0,0-2.151,0c-.048.045-.1.094-.152.15-.35.345-.682.7-.99,1.057a.2.2,0,0,1-.021.021l-.012.011-.084.073-.054.046a.221.221,0,0,1-.348-.082,1.548,1.548,0,0,0-.148-.273.221.221,0,0,1-.015-.223c.14-.281.252-.512.353-.727.058-.123.119-.248.18-.374.509-1.046,1.036-2.127.416-3.154a1.676,1.676,0,0,0-.214-.282.221.221,0,0,1,.006-.309q.068-.067.134-.136a1.45,1.45,0,0,0,.421-1.144,1.61,1.61,0,0,0-.625-1.139.221.221,0,0,1-.045-.306,3.254,3.254,0,0,0,.792-2.189,1.623,1.623,0,0,0-.472-1.1.221.221,0,0,1-.058-.229,2.3,2.3,0,0,0,.094-.4c.011-.079.019-.158.024-.236a.221.221,0,0,1,.06-.137,3.19,3.19,0,0,0,.861-1.391,1.677,1.677,0,0,0-.207-1.249,1.343,1.343,0,0,0-.838-.617,1.562,1.562,0,0,0-1.849.973.22.22,0,0,1-.05.087l-.138.146c-.091.1-.178.187-.262.282a.986.986,0,0,1,.266-.1.221.221,0,0,1,.12.424,2.37,2.37,0,0,0-.221.09.221.221,0,0,1-.307-.253l0,0a3.391,3.391,0,0,0-.831,1.268,1.345,1.345,0,0,0-.034.607.221.221,0,0,1-.053.183c-.222.249-.431.477-.64.7-.415.439-.863.887-1.33,1.332a4.019,4.019,0,0,0-1.192,1.645,1.475,1.475,0,0,0,.2,1.2,1.428,1.428,0,0,0,.95.7.221.221,0,0,1,.16.324,17.01,17.01,0,0,0-.966,2.128.219.219,0,0,1-.05.077c-.251.25-.449.461-.625.663a10.861,10.861,0,0,0-2.776,6.677,1.5,1.5,0,0,0,1.482,1.486.221.221,0,0,1,.165.354c-.388.512-.763,1.064-1.179,1.738l-.2.32a10.932,10.932,0,0,0-.9,1.637,1.529,1.529,0,0,0,.7,1.678,1.7,1.7,0,0,0,.418.154.221.221,0,0,1,.168.257,4,4,0,0,0-.077.953,1.518,1.518,0,0,0,.6,1.2,1.7,1.7,0,0,0,.285.177.221.221,0,0,1,.079.33l-.05.067-.124.166a1.516,1.516,0,0,0,2.385,1.818l.113-.119a10.09,10.09,0,0,0,1.061-1.24c.029-.042.058-.088.092-.145a.221.221,0,0,1,.19-.107" transform="translate(-96.023 -271.412)" fill="#1a1311"/>
  </g>
</svg>
