<svg id="PPS_13" xmlns="http://www.w3.org/2000/svg" xmlns:xlink="http://www.w3.org/1999/xlink" width="119.146" height="88.605" viewBox="0 0 119.146 88.605">
  <defs>
    <clipPath id="clip-path">
      <rect id="사각형_6137" data-name="사각형 6137" width="119.146" height="88.605" fill="none"/>
    </clipPath>
  </defs>
  <g id="그룹_11587" data-name="그룹 11587" clip-path="url(#clip-path)">
    <path id="패스_27303" data-name="패스 27303" d="M58.949,88.606S14.1,38.086,27.127,19.044l.006-.008c8.311-9.732,18.65-2.876,23.355,1.221a.6.6,0,0,0,.914-.743c-.634-1.13-1.453-2.49-2.459-3.959h0A44.452,44.452,0,0,0,26.543.976a26.415,26.415,0,0,0-13.836-.1C8.458,2.012,4.4,4.222,2.254,8.363c-5.79,11.155.68,26.969,6.959,36.03,9.233,15.314,26.11,31.72,49.736,44.212" transform="translate(0 0)" fill="#35411f"/>
    <path id="패스_27304" data-name="패스 27304" d="M19.367.074a27.052,27.052,0,0,1,7.157.973A44.416,44.416,0,0,1,48.885,15.6c.877,1.282,1.7,2.611,2.454,3.951a.5.5,0,0,1,0,.513.551.551,0,0,1-.464.273.514.514,0,0,1-.34-.134A30.857,30.857,0,0,0,44.7,16.137a16.761,16.761,0,0,0-7.751-2.145c-3.721,0-7.043,1.681-9.874,5h0v0L27.069,19v0a14.94,14.94,0,0,0-2.386,8.5,34.292,34.292,0,0,0,1.853,10.469c2.1,6.565,5.99,14.316,11.557,23.036a239.638,239.638,0,0,0,14,19.455c3.259,4.1,5.749,6.985,6.541,7.891A146.711,146.711,0,0,1,28.733,67.5,118.366,118.366,0,0,1,17.614,55.958a93.439,93.439,0,0,1-8.337-11.6v0A56.314,56.314,0,0,1,1.279,27.145,34.3,34.3,0,0,1,.09,17.427,21,21,0,0,1,2.32,8.4C4.185,4.8,7.686,2.3,12.726.943A25.617,25.617,0,0,1,19.367.074m0-.074a25.664,25.664,0,0,0-6.66.871C8.458,2.012,4.4,4.221,2.254,8.363c-5.79,11.156.68,26.969,6.959,36.031,9.233,15.314,26.109,31.72,49.735,44.212,0,0-44.848-50.519-31.821-69.561l.006-.008c3.122-3.656,6.53-4.971,9.818-4.971,5.466,0,10.6,3.634,13.537,6.192a.585.585,0,0,0,.388.152.6.6,0,0,0,.526-.9c-.634-1.13-1.453-2.489-2.459-3.959A44.452,44.452,0,0,0,26.543.976,27.139,27.139,0,0,0,19.367,0" transform="translate(0 0)" fill="#fff"/>
    <path id="패스_27305" data-name="패스 27305" d="M437.781,93.821S483.638,44.216,471,24.915l-.006-.008c-8.113-9.9-18.588-3.252-23.375.75a.6.6,0,0,1-.9-.762c.656-1.117,1.5-2.46,2.539-3.909a44.451,44.451,0,0,1,22.69-14.125,26.415,26.415,0,0,1,13.836.175c4.225,1.226,8.234,3.517,10.3,7.7,5.564,11.27-1.223,26.95-7.684,35.883-9.54,15.125-26.744,31.187-50.617,43.2" transform="translate(-378.993 -5.217)" fill="#35411f"/>
    <path id="패스_27306" data-name="패스 27306" d="M478.609,6.1a25.649,25.649,0,0,1,7.153,1.008c5.012,1.455,8.462,4.033,10.254,7.662a21.006,21.006,0,0,1,2.047,9.073,34.3,34.3,0,0,1-1.385,9.692,56.318,56.318,0,0,1-8.34,17.042v0a93.439,93.439,0,0,1-8.57,11.432,118.364,118.364,0,0,1-11.35,11.318,146.71,146.71,0,0,1-30.308,20.241c.81-.89,3.357-3.724,6.7-7.758a234.954,234.954,0,0,0,14.386-19.169c5.742-8.606,9.786-16.277,12.02-22.8a34.29,34.29,0,0,0,2.064-10.43,14.941,14.941,0,0,0-2.214-8.544v0l-.005-.008v0c-2.826-3.448-6.2-5.2-10.024-5.2a17.036,17.036,0,0,0-7.648,2.046A31.008,31.008,0,0,0,447.57,25.6a.516.516,0,0,1-.333.127.549.549,0,0,1-.466-.277.5.5,0,0,1,.01-.517c.779-1.325,1.631-2.637,2.533-3.9a44.417,44.417,0,0,1,22.65-14.1,27.134,27.134,0,0,1,6.644-.834Zm0-.074a27.191,27.191,0,0,0-6.662.836,44.452,44.452,0,0,0-22.69,14.125h0c-1.035,1.449-1.882,2.792-2.539,3.909a.6.6,0,0,0,.519.906.586.586,0,0,0,.38-.144c2.943-2.461,8.036-5.921,13.409-5.921,3.366,0,6.842,1.358,9.966,5.17l.006.008c12.64,19.3-33.218,68.905-33.218,68.905,23.873-12.013,41.077-28.076,50.617-43.2,6.46-8.933,13.248-24.613,7.684-35.883-2.066-4.184-6.075-6.475-10.3-7.7a25.72,25.72,0,0,0-7.174-1.011" transform="translate(-378.993 -5.217)" fill="#fff"/>
    <path id="패스_27307" data-name="패스 27307" d="M366.653,486.663c-2.355,3.182-6.2,7.323-10.122,7.013a4.065,4.065,0,0,1-3.645-2.117,3.974,3.974,0,0,1-.294-2.692A9.76,9.76,0,0,0,353,485.2c-.548-1.967-2.3-3.265-3.917-2.9s-2.481,2.259-1.933,4.227l.022.079a.151.151,0,0,1-.008.1c-.382-1.746-1.682-5.773-5.461-5.011-4.8.967-.126,12.476,9.564,15.621,6.754,2.192,12.692-5.565,15.67-10.466a.174.174,0,0,0-.288-.194" transform="translate(-294.174 -416.934)" fill="#002369"/>
    <path id="패스_27308" data-name="패스 27308" d="M342.617,481.606v.074a3.78,3.78,0,0,1,3.239,1.921,9.564,9.564,0,0,1,1.24,3.127l.047.214.092-.2a.225.225,0,0,0,.012-.154l-.022-.079a3.806,3.806,0,0,1,.305-2.957,2.476,2.476,0,0,1,1.573-1.178,2.444,2.444,0,0,1,.54-.06,3.719,3.719,0,0,1,3.289,2.906,9.367,9.367,0,0,1-.412,3.628,4.049,4.049,0,0,0,.3,2.742,4.167,4.167,0,0,0,3.7,2.158c.14.011.282.017.424.017a8.859,8.859,0,0,0,5.461-2.381,26.318,26.318,0,0,0,4.3-4.678.093.093,0,0,1,.076-.042.114.114,0,0,1,.1.057.091.091,0,0,1-.005.1,35.514,35.514,0,0,1-5.46,7.027c-2.631,2.511-5.245,3.785-7.767,3.785a7.628,7.628,0,0,1-2.357-.378,18.1,18.1,0,0,1-8.491-6.016c-1.911-2.427-3.029-5.14-2.917-7.08a2.261,2.261,0,0,1,1.836-2.383,4.546,4.546,0,0,1,.894-.093Zm0,0a4.592,4.592,0,0,0-.909.095c-4.8.967-.126,12.477,9.564,15.621a7.664,7.664,0,0,0,2.379.382c5.75,0,10.668-6.531,13.291-10.847a.175.175,0,0,0-.153-.266.166.166,0,0,0-.136.072c-2.271,3.069-5.933,7.029-9.7,7.029q-.209,0-.418-.016a4.065,4.065,0,0,1-3.645-2.117,3.973,3.973,0,0,1-.294-2.692A9.759,9.759,0,0,0,353,485.2a3.793,3.793,0,0,0-3.36-2.96,2.5,2.5,0,0,0-.557.062c-1.615.367-2.481,2.26-1.933,4.227l.022.079a.151.151,0,0,1-.008.1c-.35-1.6-1.469-5.106-4.551-5.106" transform="translate(-294.174 -416.933)" fill="#fff"/>
    <path id="패스_27309" data-name="패스 27309" d="M220.085,130.756a.9.9,0,0,1-1.553.515c-1.939-2.037-5.8-5.215-9.85-3.6-5.772,2.3-.956-7.527,4.362-8.652s7.64,2.435,7.613,5.088c-.017,1.661-.336,4.648-.572,6.649" transform="translate(-178.392 -102.851)" fill="#002369"/>
    <path id="패스_27310" data-name="패스 27310" d="M214.969,118.88a5.622,5.622,0,0,1,4.109,1.579,5.229,5.229,0,0,1,1.5,3.648c-.016,1.626-.32,4.509-.572,6.641a.829.829,0,0,1-1.426.473,16.411,16.411,0,0,0-3.2-2.651,8.434,8.434,0,0,0-4.419-1.415,6.231,6.231,0,0,0-2.316.447,4.076,4.076,0,0,1-1.443.342.945.945,0,0,1-1.065-.925c-.11-1.049.689-2.846,1.988-4.47a8.062,8.062,0,0,1,6.834-3.671Zm0-.074a9.31,9.31,0,0,0-1.926.214c-4.764,1.008-9.125,9-5.832,9a4.122,4.122,0,0,0,1.47-.348,6.131,6.131,0,0,1,2.289-.442c3.167,0,5.992,2.395,7.561,4.043a.89.89,0,0,0,.651.283.9.9,0,0,0,.9-.8c.236-2,.555-4.988.572-6.65a5.351,5.351,0,0,0-5.687-5.3" transform="translate(-178.391 -102.852)" fill="#fff"/>
    <path id="패스_27311" data-name="패스 27311" d="M535.585,127.552a.819.819,0,0,1-.494-1.476A15.022,15.022,0,0,1,548,123.289c5.98,1.585,7.24,5.714,7.445,8.126a.818.818,0,0,1-1.3.73,12.262,12.262,0,0,0-10.7-1.839.815.815,0,0,1-.833-.259c-.686-.805-2.653-2.506-7.03-2.494" transform="translate(-462.949 -106.318)" fill="#002369"/>
    <path id="패스_27312" data-name="패스 27312" d="M544.375,122.883a14.09,14.09,0,0,1,3.606.477,10.029,10.029,0,0,1,5.847,3.724,8.81,8.81,0,0,1,1.544,4.337.728.728,0,0,1-.189.561.759.759,0,0,1-.557.247.73.73,0,0,1-.433-.144,12.1,12.1,0,0,0-7.183-2.343,13.709,13.709,0,0,0-3.582.493.739.739,0,0,1-.758-.236,6.272,6.272,0,0,0-2.145-1.567,11.532,11.532,0,0,0-4.9-.953h-.046a.737.737,0,0,1-.71-.512.726.726,0,0,1,.262-.831,15.612,15.612,0,0,1,9.241-3.252m0-.074a15.743,15.743,0,0,0-9.285,3.266.819.819,0,0,0,.492,1.476h.046c4.346,0,6.3,1.692,6.987,2.495a.817.817,0,0,0,.621.287.808.808,0,0,0,.212-.028,13.567,13.567,0,0,1,3.563-.49,12.082,12.082,0,0,1,7.139,2.329.8.8,0,0,0,.476.158.82.82,0,0,0,.82-.888c-.206-2.412-1.466-6.541-7.445-8.126a14.1,14.1,0,0,0-3.625-.479" transform="translate(-462.948 -106.318)" fill="#fff"/>
    <path id="패스_27313" data-name="패스 27313" d="M456.341,502.156a.1.1,0,0,1,.163.13c-1.58,2.376-5.108,7.172-8.1,7.583-3.985.549-4.548-2.109-4.377-4.466.138-1.9,2.247-.239,3.467-1.441a.409.409,0,0,1,.694.245c.125,1.1.559,2.243,1.876,1.846a14.491,14.491,0,0,0,6.273-3.9" transform="translate(-384.381 -434.695)" fill="#002369"/>
    <path id="패스_27314" data-name="패스 27314" d="M456.415,502.2a.038.038,0,0,1,.03.02.027.027,0,0,1,0,.03,35.787,35.787,0,0,1-3.512,4.518c-1.723,1.835-3.248,2.856-4.532,3.033a7.274,7.274,0,0,1-.985.072,3.21,3.21,0,0,1-2.459-.9,4.637,4.637,0,0,1-.849-3.564c.056-.767.423-.918,1.039-.918.136,0,.278.007.429.015s.324.017.49.017a2.012,2.012,0,0,0,1.488-.507.327.327,0,0,1,.234-.1.333.333,0,0,1,.335.3c.149,1.3.651,1.992,1.452,1.992a1.809,1.809,0,0,0,.519-.084,14.6,14.6,0,0,0,6.305-3.918.027.027,0,0,1,.021-.011m0-.074a.1.1,0,0,0-.074.034,14.489,14.489,0,0,1-6.273,3.9,1.723,1.723,0,0,1-.5.08c-.933,0-1.27-.983-1.378-1.926a.408.408,0,0,0-.408-.364.4.4,0,0,0-.286.119,1.92,1.92,0,0,1-1.436.486c-.319,0-.635-.031-.919-.031-.595,0-1.051.137-1.113.986-.156,2.144.3,4.539,3.381,4.539a7.309,7.309,0,0,0,1-.073c2.987-.412,6.516-5.207,8.1-7.583a.106.106,0,0,0-.089-.164" transform="translate(-384.381 -434.695)" fill="#fff"/>
    <path id="패스_27315" data-name="패스 27315" d="M212.889,280.924s8.015,4.208,8.966,7.362.052,7.075-5.326-.5c0,0,.54-2.4-3.64-6.866" transform="translate(-184.301 -243.2)" fill="#002369"/>
    <path id="패스_27316" data-name="패스 27316" d="M213.243,281.2c.685.378,2.183,1.229,3.73,2.283,2.763,1.883,4.426,3.551,4.81,4.824.437,1.448.435,2.872,0,3.463a.73.73,0,0,1-.612.313c-.683,0-2.028-.749-4.561-4.31a3.915,3.915,0,0,0-.261-1.765,14.926,14.926,0,0,0-3.1-4.808m-.354-.276c4.18,4.464,3.64,6.866,3.64,6.866,2.293,3.228,3.771,4.367,4.639,4.367,1.168,0,1.232-2.062.686-3.871-.951-3.154-8.966-7.362-8.966-7.362" transform="translate(-184.301 -243.2)" fill="#fff"/>
    <path id="패스_27317" data-name="패스 27317" d="M623.213,276.921c-.956.865-3.461,2.974-5.472,3.283a.259.259,0,0,0-.209.185,27.121,27.121,0,0,1-1.924,4.939.261.261,0,0,0,.311.374c1.49-.5,5.129-2,6.859-5.217l.011-.019a5.989,5.989,0,0,0,.86-3.361.261.261,0,0,0-.436-.184" transform="translate(-532.911 -239.676)" fill="#002369"/>
    <path id="패스_27318" data-name="패스 27318" d="M623.387,276.927a.187.187,0,0,1,.188.18,5.883,5.883,0,0,1-.847,3.317.275.275,0,0,0-.015.026c-1.718,3.189-5.34,4.686-6.818,5.182a.192.192,0,0,1-.062.01.187.187,0,0,1-.16-.094.181.181,0,0,1,0-.184,27.04,27.04,0,0,0,1.93-4.955.186.186,0,0,1,.15-.132c2.024-.311,4.528-2.412,5.511-3.3a.182.182,0,0,1,.124-.049m0-.074a.256.256,0,0,0-.173.068c-.956.865-3.462,2.974-5.472,3.283a.259.259,0,0,0-.209.185,27.124,27.124,0,0,1-1.924,4.939.261.261,0,0,0,.225.388.269.269,0,0,0,.085-.014c1.49-.5,5.129-2,6.86-5.217l.011-.019a5.989,5.989,0,0,0,.86-3.361.26.26,0,0,0-.262-.252" transform="translate(-532.911 -239.676)" fill="#fff"/>
    <path id="패스_27319" data-name="패스 27319" d="M495.5,288.045c.608-1.494,2.206-4.661,5.044-5.418a.336.336,0,0,0,.237-.41,8.367,8.367,0,0,1-.274-2.927.337.337,0,0,0-.526-.317c-1.53,1.057-5.01,3.666-5.317,5.726a7.366,7.366,0,0,0,.2,3.322.337.337,0,0,0,.634.025" transform="translate(-428.158 -241.458)" fill="#002369"/>
    <path id="패스_27320" data-name="패스 27320" d="M500.176,278.986a.272.272,0,0,1,.2.092.254.254,0,0,1,.061.2,8.38,8.38,0,0,0,.276,2.955.263.263,0,0,1-.185.32,6.483,6.483,0,0,0-3.4,2.459,13.072,13.072,0,0,0-1.7,3,.263.263,0,0,1-.5-.019,7.3,7.3,0,0,1-.2-3.288c.3-2.038,3.8-4.649,5.286-5.677a.258.258,0,0,1,.149-.047m0-.074a.332.332,0,0,0-.19.06c-1.53,1.057-5.01,3.666-5.317,5.726a7.366,7.366,0,0,0,.2,3.322.337.337,0,0,0,.634.025c.608-1.494,2.206-4.661,5.044-5.418a.336.336,0,0,0,.237-.41,8.368,8.368,0,0,1-.274-2.927.336.336,0,0,0-.335-.378" transform="translate(-428.158 -241.458)" fill="#fff"/>
    <path id="패스_27321" data-name="패스 27321" d="M226.284,216.819c-.015-.119-.031-.238-.05-.356-.69-4.271-2.51-16.663-2.483-21.16l-.02-.019a15.5,15.5,0,0,1-3.874-6.784,14.75,14.75,0,0,0,.478,6.845l.009.033a21.608,21.608,0,0,0,1.45,3.925c.751,1.554,1.7,3.841,1.966,4.485a.321.321,0,0,1-.02.294.3.3,0,0,1-.515-.022l-.086-.167a42.085,42.085,0,0,0-8.064-10.97c-3.082-2.92-6.319-4.588-8.364-3.875-2.633.87-3.893,5.291-2.687,10.341a36.1,36.1,0,0,1,10.566,7.466l.045.046.022.051a12.123,12.123,0,0,1,1.286,5.492c-.149,1.453-.939,1.774-1.574,1.8a3.444,3.444,0,0,1-1.919-.789,12.965,12.965,0,0,1-1.439-1.189,14.562,14.562,0,0,1-1.364-1.689.1.1,0,0,0-.173.077s1.9,12.205,9.425,16.244.94-13.43-2.951-18.246a.133.133,0,0,1,.214-.156l.006.006a47.738,47.738,0,0,1,2.816,3.917c.1.159,4.777,7.834,5.061,13.867a.319.319,0,0,0,.569.18c.883-1.111,2.431-3.948,1.67-9.646" transform="translate(-176.229 -163.187)" fill="#a02719"/>
    <path id="패스_27322" data-name="패스 27322" d="M219.872,188.8a15.57,15.57,0,0,0,3.8,6.532c-.019,4.594,1.832,17.109,2.484,21.14.017.108.034.223.05.354a17.2,17.2,0,0,1-.216,6.516,8.168,8.168,0,0,1-1.438,3.075.244.244,0,0,1-.437-.138c-.284-6.017-4.877-13.583-5.073-13.9a48.008,48.008,0,0,0-2.82-3.923v0h0l-.006-.006a.2.2,0,0,0-.151-.07.212.212,0,0,0-.18.1.206.206,0,0,0,0,.207l0,.006,0,.005a36.931,36.931,0,0,1,4.723,9.223c1.53,4.18,2.031,7.365,1.375,8.738a1.237,1.237,0,0,1-1.206.766,4.145,4.145,0,0,1-1.848-.592,13.918,13.918,0,0,1-4.621-4.219,24.96,24.96,0,0,1-2.878-5.377,34.371,34.371,0,0,1-1.887-6.594v-.007a.019.019,0,0,1,0-.018.027.027,0,0,1,.021-.01.019.019,0,0,1,.017.01,14.755,14.755,0,0,0,1.374,1.7,13.075,13.075,0,0,0,1.447,1.2,3.581,3.581,0,0,0,1.911.8h.053c.666-.026,1.491-.37,1.644-1.865a12.29,12.29,0,0,0-1.292-5.528l-.018-.042,0-.009-.005-.012-.01-.01-.044-.045a36.033,36.033,0,0,0-10.557-7.469,14,14,0,0,1-.088-6.666c.5-1.873,1.472-3.135,2.736-3.553a3.067,3.067,0,0,1,1.011-.16c1.929,0,4.582,1.465,7.278,4.019a42.111,42.111,0,0,1,8.049,10.95l.086.167a.368.368,0,0,0,.643.028.4.4,0,0,0,.026-.361c-.272-.661-1.219-2.938-1.968-4.489a21.6,21.6,0,0,1-1.445-3.912l0-.011-.006-.023a15.291,15.291,0,0,1-.534-6.523m-.015-.3a14.748,14.748,0,0,0,.478,6.845l.009.033a21.615,21.615,0,0,0,1.45,3.925c.751,1.554,1.7,3.841,1.966,4.485a.321.321,0,0,1-.02.293.295.295,0,0,1-.515-.022l-.086-.167a42.088,42.088,0,0,0-8.064-10.97c-2.6-2.466-5.316-4.039-7.328-4.039a3.128,3.128,0,0,0-1.035.164c-2.633.87-3.893,5.291-2.687,10.341a36.1,36.1,0,0,1,10.567,7.466l.045.046.022.051a12.121,12.121,0,0,1,1.286,5.492c-.148,1.452-.939,1.774-1.574,1.8h-.051a3.559,3.559,0,0,1-1.869-.79,12.947,12.947,0,0,1-1.439-1.189,14.553,14.553,0,0,1-1.364-1.689.093.093,0,0,0-.078-.043.1.1,0,0,0-.095.12s1.9,12.205,9.425,16.244a4.181,4.181,0,0,0,1.883.6c4.325,0-1.341-14.523-4.834-18.847a.136.136,0,0,1,.118-.2.127.127,0,0,1,.1.046l.006.006a47.767,47.767,0,0,1,2.816,3.917c.1.159,4.776,7.834,5.061,13.867a.318.318,0,0,0,.569.181c.883-1.111,2.431-3.948,1.67-9.646-.015-.119-.031-.238-.05-.356-.69-4.271-2.51-16.663-2.483-21.16l-.02-.019a15.5,15.5,0,0,1-3.874-6.784" transform="translate(-176.228 -163.187)" fill="#fff"/>
    <path id="패스_27323" data-name="패스 27323" d="M516.314,192.507a10.532,10.532,0,0,0-9.361.833,10.291,10.291,0,0,0-1.02.739,11.3,11.3,0,0,1-.639,4.058,16.435,16.435,0,0,1-1.234,2.812l-.049.088-.091.04a13.472,13.472,0,0,0-2.092,1.163c-.269,3.774,1.495,6.247,4.548,6.594l.4.047q-.155.371-.306.74l-.4-.054a7.975,7.975,0,0,1-4.5-1.764c-2.387.809-4.4,3.273-5.479,6.3a3.763,3.763,0,0,0,.484,1.91.441.441,0,0,0,.343.205h.009c.7.007,1.867-1.926,2.366-2.753l.093-.154.176.01a.545.545,0,0,1,.41.231c.35.478.183,1.664-.018,2.575l0,.008a39.725,39.725,0,0,1-2.694,7.887q-.221.444-.447.836s-7.344,14.079,4.808,5.792,13.913-19.471,13.913-19.471a1.056,1.056,0,0,0,.061-.272,47.62,47.62,0,0,1-6.976,3.422c-.955,1.2-2.5,3.114-4.179,3.04-1.769-.082-2.537-2.705-1.446-6.231l.1-.3.8.07-.1.3a6.1,6.1,0,0,0-.25,3.546c.234.79.7,1.272,1.258,1.3,1.214.056,3.149-1.823,5.392-6.1,1.78-3.338,2.081-6.22.419-6.557-1.068-.217-3.253.969-5.26,4.025q-.189.286-.375.573l-.5-.682.072-.138c1.42-2.793,4.362-5.514,6.769-5,1.588.334,1.957,1.828,1.913,3.071a11.685,11.685,0,0,0,6.638-4.593c1.765-2.465,1.708-6.21-3.548-8.146" transform="translate(-428.188 -166.048)" fill="#a02719"/>
    <path id="패스_27324" data-name="패스 27324" d="M512.318,191.88a12.26,12.26,0,0,1,3.974.7c2.35.866,3.857,2.184,4.357,3.812a4.836,4.836,0,0,1-.844,4.223,12.1,12.1,0,0,1-3.122,3.025,9.688,9.688,0,0,1-3.379,1.521,4,4,0,0,0-.355-1.82,2.24,2.24,0,0,0-1.619-1.234,3,3,0,0,0-.623-.064,5.583,5.583,0,0,0-3.494,1.589,12.015,12.015,0,0,0-2.733,3.514l-.007.013-.065.125-.021.041.027.037q.252.343.5.681l.063.087.058-.09c.125-.192.25-.385.374-.572a12.326,12.326,0,0,1,2.75-3.065,4,4,0,0,1,2.185-.952,1.254,1.254,0,0,1,.249.023,1.141,1.141,0,0,1,.84.668c.514,1.09.012,3.306-1.309,5.782-1.991,3.8-3.962,6.064-5.274,6.064H504.8c-.523-.03-.969-.5-1.192-1.252a6.013,6.013,0,0,1,.249-3.5l.1-.3.031-.089-.094-.008-.8-.07-.059-.005-.018.056-.1.3a10.248,10.248,0,0,0-.5,3.275,4.17,4.17,0,0,0,.622,2.251,1.77,1.77,0,0,0,1.4.8l.1,0c1.686,0,3.211-1.9,4.128-3.053a47.987,47.987,0,0,0,6.833-3.343c-.008.034-.019.069-.032.106l0,.006v.006a24.793,24.793,0,0,1-2.4,6.612,33.047,33.047,0,0,1-4.2,6.288,36.362,36.362,0,0,1-7.283,6.521c-2.529,1.725-4.393,2.6-5.539,2.6a1.181,1.181,0,0,1-1.106-.541c-1.116-1.84,1.914-7.7,1.943-7.753.152-.265.3-.547.449-.84a39.787,39.787,0,0,0,2.7-7.9l0-.009c.371-1.677.208-2.358.006-2.634a.617.617,0,0,0-.465-.262l-.176-.01-.045,0-.023.038-.093.154c-.449.743-1.64,2.717-2.3,2.717h-.006a.369.369,0,0,1-.287-.177,3.479,3.479,0,0,1-.468-1.854c1.116-3.117,3.127-5.439,5.388-6.224a8.046,8.046,0,0,0,4.507,1.753l.4.054.057.008.022-.053c.1-.241.2-.49.306-.74l.038-.09-.1-.012-.4-.047a4.726,4.726,0,0,1-3.467-1.981,6.986,6.986,0,0,1-1.018-4.5,13.48,13.48,0,0,1,2.051-1.136l.091-.04.023-.01.012-.022.049-.088a16.5,16.5,0,0,0,1.239-2.823,11.4,11.4,0,0,0,.645-4.048A10.228,10.228,0,0,1,507,193.4a9.773,9.773,0,0,1,5.322-1.523m0-.074a9.876,9.876,0,0,0-5.362,1.535,10.29,10.29,0,0,0-1.02.739,11.3,11.3,0,0,1-.639,4.058,16.43,16.43,0,0,1-1.234,2.812l-.049.088-.091.04a13.464,13.464,0,0,0-2.092,1.163c-.269,3.774,1.495,6.247,4.548,6.594l.4.047q-.155.371-.306.74l-.4-.054a7.975,7.975,0,0,1-4.5-1.764c-2.387.809-4.4,3.273-5.479,6.3a3.763,3.763,0,0,0,.484,1.91.44.44,0,0,0,.343.205h.013c.7,0,1.864-1.927,2.363-2.753l.093-.154.176.01a.545.545,0,0,1,.41.231c.35.478.183,1.664-.018,2.575l0,.008a39.721,39.721,0,0,1-2.695,7.887q-.221.444-.447.836s-4.383,8.4-.773,8.4c1.063,0,2.817-.727,5.581-2.612,12.152-8.286,13.913-19.471,13.913-19.471a1.052,1.052,0,0,0,.06-.272,47.618,47.618,0,0,1-6.976,3.422c-.937,1.175-2.439,3.042-4.083,3.042l-.1,0c-1.768-.082-2.537-2.705-1.446-6.231l.1-.3.8.07-.1.3a6.1,6.1,0,0,0-.25,3.546c.234.79.7,1.272,1.259,1.3h.053c1.217,0,3.128-1.885,5.34-6.1,1.78-3.338,2.081-6.22.419-6.557a1.317,1.317,0,0,0-.263-.025c-1.137,0-3.142,1.227-5,4.05q-.189.286-.375.573-.247-.338-.5-.682l.072-.138c1.3-2.562,3.885-5.063,6.162-5.063a2.907,2.907,0,0,1,.607.063c1.588.334,1.957,1.828,1.913,3.071a11.686,11.686,0,0,0,6.638-4.593c1.765-2.465,1.708-6.21-3.548-8.146a12.277,12.277,0,0,0-4-.7" transform="translate(-428.191 -166.049)" fill="#fff"/>
    <path id="패스_27325" data-name="패스 27325" d="M417.757,148.353c.015-.048.03-.1.045-.144l.029-.1.036-.124c.01-.036.02-.072.029-.108s.02-.075.03-.112.02-.078.029-.116l.025-.1.029-.125.02-.091q.015-.067.029-.135l.015-.076c.01-.049.019-.1.029-.148l.01-.054c.01-.056.02-.113.029-.169l0-.011a7.56,7.56,0,0,0-.589-4.785,3.56,3.56,0,0,0-2.521-1.84c-1.681-.337-3.329.559-4.9,2.662a17.828,17.828,0,0,0-1.523,2.476,59.448,59.448,0,0,0-4.612,10.432,73.039,73.039,0,0,1,4.28-14.843,11.655,11.655,0,0,1-1.519,0h0a21.524,21.524,0,0,1-12.616-5.966,30.9,30.9,0,0,0,0,5.265,17.044,17.044,0,0,0,2.442,7.794,7.817,7.817,0,0,0,4.637,3.34l.23.058-.01.427-.031.062c-.057.113-.11.22-1.109.211a6.144,6.144,0,0,1-2.927-.773,93.306,93.306,0,0,0-.425,14.07c.275,5.664,2.239,20.458,5.566,19.828,1.486-.292,2.011-4.966,1.774-8.241-.285-3.93-1.708-11.738-1.708-11.738l.747.008c.23,3.179,1.575,13.344,3.282,13.094,1.612-.236,3.673-4.8,3.9-5.3a26.94,26.94,0,0,0,1.781-6.2l.018-.07a5.957,5.957,0,0,0,.19-1.834c-1.028,1.662-1.847,2.676-2.65,2.668h-.022a.948.948,0,0,1-.381-.1c-2.941-1-3.478-7.151-3.478-7.151a16.215,16.215,0,0,1,10.561-9.012,15.828,15.828,0,0,0,1.141-2.622q.038-.111.074-.223l.025-.078" transform="translate(-341.112 -116.763)" fill="#a02719"/>
    <path id="패스_27326" data-name="패스 27326" d="M394.2,135.034a21.606,21.606,0,0,0,12.547,5.88h0c.221.018.45.026.7.026s.49-.009.712-.019a72.819,72.819,0,0,0-4.24,14.75l.143.037a58.258,58.258,0,0,1,4.606-10.419v0a17.808,17.808,0,0,1,1.516-2.465c1.341-1.792,2.739-2.7,4.156-2.7a3.441,3.441,0,0,1,.673.068,3.489,3.489,0,0,1,2.47,1.8,7.531,7.531,0,0,1,.581,4.737v.011c-.009.056-.019.112-.029.168l0,.02-.006.034c-.009.049-.019.1-.028.147-.005.025-.01.05-.015.076-.009.045-.019.089-.028.134l-.02.09q-.014.062-.029.124l-.025.1c-.01.039-.019.077-.029.116l-.03.112,0,.008c-.009.033-.018.066-.027.1l-.033.115,0,.008-.009.029-.02.068c-.014.048-.029.1-.044.143l-.01.033-.014.046c-.024.074-.048.147-.074.222a15.747,15.747,0,0,1-1.123,2.587c-.063.025-.176.059-.327.1a15.66,15.66,0,0,0-4.431,2.062,17.243,17.243,0,0,0-5.817,6.871l-.009.018,0,.02a18.072,18.072,0,0,0,.639,3.216,9.618,9.618,0,0,0,1.067,2.43,3.634,3.634,0,0,0,1.818,1.566,1.02,1.02,0,0,0,.407.1h.034c.821,0,1.631-.994,2.581-2.507a7.046,7.046,0,0,1-.2,1.581l-.008.033-.01.038v.006a23.98,23.98,0,0,1-3.2,8.928c-.937,1.551-1.772,2.42-2.416,2.515a.346.346,0,0,1-.051,0c-.668,0-1.407-1.886-2.081-5.312a73.445,73.445,0,0,1-1.065-7.718l0-.068h-.068l-.747-.008h-.089l.016.088c.014.078,1.426,7.85,1.708,11.73a22.381,22.381,0,0,1-.24,5.221c-.316,1.773-.839,2.818-1.474,2.943a1.011,1.011,0,0,1-.192.018c-.714,0-1.414-.766-2.083-2.277a29.2,29.2,0,0,1-1.625-5.508,85.226,85.226,0,0,1-1.579-11.992,94.3,94.3,0,0,1,.411-13.95,6.215,6.215,0,0,0,2.866.731h.122c.865,0,.975-.1,1.054-.252l.031-.062.007-.015v-.017l.01-.426,0-.059-.057-.014-.23-.058a7.746,7.746,0,0,1-4.594-3.31,16.968,16.968,0,0,1-2.429-7.759,30.76,30.76,0,0,1-.011-5.1m-.061-.159a30.9,30.9,0,0,0,0,5.265,17.045,17.045,0,0,0,2.442,7.794,7.818,7.818,0,0,0,4.637,3.34l.23.058-.01.426-.031.062c-.054.109-.106.212-.988.212h-.121a6.145,6.145,0,0,1-2.927-.773,93.322,93.322,0,0,0-.425,14.07c.269,5.546,2.159,19.848,5.36,19.848a1.105,1.105,0,0,0,.205-.019c1.486-.292,2.011-4.967,1.774-8.242-.285-3.93-1.709-11.738-1.709-11.738l.747.008c.227,3.141,1.543,13.1,3.22,13.1a.435.435,0,0,0,.062,0c1.612-.236,3.673-4.8,3.9-5.3a26.94,26.94,0,0,0,1.781-6.2l.018-.07a5.958,5.958,0,0,0,.19-1.834c-1.024,1.656-1.841,2.668-2.641,2.668h-.031a.947.947,0,0,1-.381-.1c-2.941-1-3.478-7.151-3.478-7.151a16.216,16.216,0,0,1,10.561-9.012,15.8,15.8,0,0,0,1.141-2.622q.038-.111.074-.223c.008-.026.016-.052.025-.078.015-.048.03-.1.045-.144l.029-.1c.012-.041.024-.082.036-.124l.03-.108.03-.112c.01-.039.02-.077.029-.116l.025-.1q.015-.062.029-.125l.02-.091c.01-.045.019-.09.029-.135l.015-.076c.01-.049.019-.1.028-.148l.01-.054c.01-.056.02-.113.029-.169l0-.011a7.559,7.559,0,0,0-.589-4.785,3.56,3.56,0,0,0-2.521-1.84,3.5,3.5,0,0,0-.687-.069c-1.443,0-2.857.916-4.215,2.731a17.846,17.846,0,0,0-1.523,2.476,59.449,59.449,0,0,0-4.612,10.432,73.044,73.044,0,0,1,4.28-14.843c-.248.012-.526.024-.824.024-.223,0-.456-.007-.7-.026h0a21.525,21.525,0,0,1-12.616-5.966" transform="translate(-341.112 -116.763)" fill="#fff"/>
    <path id="패스_27327" data-name="패스 27327" d="M337.165,170.926a79.614,79.614,0,0,1,.466-15.544s-3.135-3.342-3.513-10.078c0-.077-.014-.155-.021-.233a24.433,24.433,0,0,1-8.385-3.6,28.968,28.968,0,0,0,.592,4.852,15.457,15.457,0,0,0,3.893,7.8,8.225,8.225,0,0,0,4.552,2.445l.057.008a.378.378,0,0,1,.317.339c0,.018,0,.035.005.053a.381.381,0,0,1-.274.407h0a4.6,4.6,0,0,1-.959.114,7.391,7.391,0,0,1-3.116-.547c-.06,4.056.567,8.287,1.379,13.883.347,2.406.708,4.611,1.08,6.469,2.109,14.1,6.389,9.428,6.389,9.428a128.4,128.4,0,0,1-2.459-15.8" transform="translate(-281.973 -122.476)" fill="#a02719"/>
    <path id="패스_27328" data-name="패스 27328" d="M325.792,141.617a24.475,24.475,0,0,0,8.236,3.515l0,.03c.005.051.01.1.013.147a19.586,19.586,0,0,0,1.906,7.593,11.833,11.833,0,0,0,1.6,2.5c-.038.251-.266,1.838-.435,4.344a88.914,88.914,0,0,0-.026,11.18,128.415,128.415,0,0,0,2.452,15.776,2.376,2.376,0,0,1-1.551.692c-.866,0-1.666-.629-2.378-1.868a25.112,25.112,0,0,1-2.308-8.243c-.348-1.734-.711-3.909-1.079-6.465l-.05-.347a89.181,89.181,0,0,1-1.329-13.417,7.521,7.521,0,0,0,2.714.521c.111,0,.223,0,.333-.008h.02a4.565,4.565,0,0,0,.958-.117.453.453,0,0,0,.328-.486v-.01l0-.044a.45.45,0,0,0-.38-.4l-.057-.008a8.122,8.122,0,0,1-4.51-2.423,12.878,12.878,0,0,1-2.294-3.213,18.992,18.992,0,0,1-1.58-4.553,28.826,28.826,0,0,1-.584-4.693m-.081-.143a28.951,28.951,0,0,0,.592,4.852,15.456,15.456,0,0,0,3.893,7.8,8.225,8.225,0,0,0,4.552,2.445l.057.008a.378.378,0,0,1,.317.339c0,.018,0,.035.005.053a.381.381,0,0,1-.274.407h0a4.6,4.6,0,0,1-.959.114q-.164.008-.329.008a7.458,7.458,0,0,1-2.786-.555c-.06,4.056.567,8.287,1.379,13.883.347,2.406.708,4.611,1.08,6.469h0c1.268,8.48,3.322,10.17,4.757,10.17a2.456,2.456,0,0,0,1.632-.742,128.4,128.4,0,0,1-2.459-15.8,79.628,79.628,0,0,1,.466-15.544s-3.135-3.342-3.513-10.078c0-.077-.014-.155-.021-.233a24.433,24.433,0,0,1-8.385-3.6" transform="translate(-281.973 -122.476)" fill="#fff"/>
    <path id="패스_27329" data-name="패스 27329" d="M406.705,601.091a6.841,6.841,0,0,0,6.754.907.266.266,0,0,1,.345.363,36.608,36.608,0,0,1-2.69,4.537.266.266,0,0,1-.388.044c-.792-.68-3.525-3.149-4.424-5.541a.266.266,0,0,1,.4-.31" transform="translate(-351.726 -520.33)" fill="#a02719"/>
    <path id="패스_27330" data-name="패스 27330" d="M406.552,601.115h0a.188.188,0,0,1,.11.036,7.707,7.707,0,0,0,4.291,1.462,6.188,6.188,0,0,0,2.535-.549.2.2,0,0,1,.08-.018.194.194,0,0,1,.163.094.186.186,0,0,1,.006.186,36.538,36.538,0,0,1-2.683,4.527.192.192,0,0,1-.28.032c-.808-.694-3.513-3.144-4.4-5.511a.184.184,0,0,1,.02-.174.2.2,0,0,1,.161-.086m0-.074a.267.267,0,0,0-.25.36c.9,2.392,3.633,4.861,4.424,5.541a.266.266,0,0,0,.387-.044,36.614,36.614,0,0,0,2.69-4.537.266.266,0,0,0-.235-.387.269.269,0,0,0-.11.024,6.092,6.092,0,0,1-2.5.542,7.587,7.587,0,0,1-4.249-1.449.263.263,0,0,0-.153-.05" transform="translate(-351.726 -520.33)" fill="#fff"/>
  </g>
</svg>
