<svg id="PPS_14" xmlns="http://www.w3.org/2000/svg" xmlns:xlink="http://www.w3.org/1999/xlink" width="128.413" height="113.596" viewBox="0 0 128.413 113.596">
  <defs>
    <clipPath id="clip-path">
      <rect id="사각형_6139" data-name="사각형 6139" width="128.413" height="113.596" fill="none"/>
    </clipPath>
  </defs>
  <g id="그룹_11591" data-name="그룹 11591" clip-path="url(#clip-path)">
    <path id="패스_27351" data-name="패스 27351" d="M256.089,326.281q.549-.257,1.117-.516l.573-.259q.274-.123.556-.253.563-.258,1.153-.537l.6-.28.707-.937a43.714,43.714,0,0,1-4.032,1.691c-.689.251-1.371.483-2.039.7l-1.252,1.668q.749-.379,1.543-.762.529-.255,1.078-.513" transform="translate(-225.187 -287.405)" fill="#b75540"/>
    <path id="패스_27352" data-name="패스 27352" d="M177,384.886l-.194.135-.189.133-4.059,5.41q0,.084.012.171a9.08,9.08,0,0,0,.174,1.158q.045.21.1.43a11.773,11.773,0,0,0,.555,1.637c.087.206.186.425.3.654l10.375-13.736A56.725,56.725,0,0,0,177,384.886" transform="translate(-153.301 -338.38)" fill="#b75540"/>
    <path id="패스_27353" data-name="패스 27353" d="M208.432,337.29,194.813,355.3q.091.113.186.226a9.875,9.875,0,0,0,1.324,1.3q.126.1.257.2.174.131.353.252t.362.233l17.463-23.273c-2.149.914-4.266,2.054-6.327,3.055" transform="translate(-173.076 -296.942)" fill="#b75540"/>
    <path id="패스_27354" data-name="패스 27354" d="M371.365,325.974l.675.128.707.133h0a.9.9,0,0,1,.72,1.023c-.048.308-.1.687-.16,1.118l5.48-7.3-1.908-1.432q-.334.037-.668.092c-.167.027-.334.058-.5.09l-.167.033L370.941,326a.9.9,0,0,1,.424-.022" transform="translate(-329.553 -283.979)" fill="#b75540"/>
    <path id="패스_27355" data-name="패스 27355" d="M252.835,388.84c.106-1.771.321-3.385.476-4.393l-14.033,18.7a9.493,9.493,0,0,0,1.39.235q.315.029.638.039t.653,0a12.46,12.46,0,0,0,1.353-.113l9.459-12.607q.005-.882.063-1.864" transform="translate(-212.58 -341.552)" fill="#b75540"/>
    <path id="패스_27356" data-name="패스 27356" d="M389.191,344.865a.182.182,0,0,0,.358.011c.041-.191.073-.354.1-.484a.384.384,0,0,1,.431-.309l1.633.231,8.883-11.838a2.955,2.955,0,0,0-.158-.464,2.893,2.893,0,0,0-.233-.431q-.087-.133-.18-.261t-.191-.251a6.5,6.5,0,0,0-.874-.9c-.114-.1-.233-.188-.354-.277-.049-.036-.1-.073-.148-.108l-9.429,12.567a18.4,18.4,0,0,0,.165,2.51" transform="translate(-345.619 -292.992)" fill="#b75540"/>
    <path id="패스_27357" data-name="패스 27357" d="M309.869,478.816a.212.212,0,0,0-.331-.239.947.947,0,0,1-1.441-.334,8.229,8.229,0,0,1-.572-1.721l-5.7,7.6a.549.549,0,0,1,.1.048.534.534,0,0,1,.21.25l.217.53a1.978,1.978,0,0,1-1.279,2.687q-.284.086-.562.163h0l1.736,1.3,7.544-10.054.086-.233" transform="translate(-266.974 -423.353)" fill="#b75540"/>
    <path id="패스_27358" data-name="패스 27358" d="M358.837,433.447c-.125-.279-.248-.538-.365-.776q-.07-.143-.138-.275l-.067-.13q-.1-.191-.189-.357c-.1-.185-.191-.347-.271-.485l-.09-.154-.078-.13-.092-.149-.043-.068-.035-.053,0,0h0a1.641,1.641,0,0,1-.1-.168l-5.469,7.254a26.953,26.953,0,0,1-7.45,12.008,1.519,1.519,0,0,0,.135,2.386l.41.285,14.07-18.661q-.115-.272-.228-.523" transform="translate(-305.559 -382.642)" fill="#b75540"/>
    <path id="패스_27359" data-name="패스 27359" d="M383.309,488.978a24.5,24.5,0,0,0-.69-3.221l-13.1,17.463a1.49,1.49,0,0,1-.159,1.409l-.047.068,2.081,1.562.631-.841a6.485,6.485,0,0,1-.064-.782c0-.038,0-.077,0-.117s0-.081,0-.124,0-.085,0-.129c0-.088,0-.18.01-.276s.011-.195.02-.3.019-.208.033-.316c.026-.217.062-.445.11-.682q.036-.178.081-.363a8.556,8.556,0,0,1,.454-1.349q.062-.144.129-.283.133-.279.282-.54a8.237,8.237,0,0,1,.832-1.2q.183-.219.377-.423t.4-.392a9.378,9.378,0,0,1,1.077-.852q.338-.23.689-.43a11.818,11.818,0,0,1,1.191-.593q.242-.1.485-.2l.243-.091q.243-.088.486-.166t.483-.147l4.112-5.48q-.056-.619-.142-1.209" transform="translate(-328.103 -431.558)" fill="#b75540"/>
    <path id="패스_27360" data-name="패스 27360" d="M509.956,418.445c.121.355.238.727.352,1.11q.107.36.207.737c.105.4.205.8.3,1.224l4.4-5.859.039-.877.039-.877-1.866-1.4-3.786,5.045q.082.216.162.44t.16.457" transform="translate(-452.771 -366.477)" fill="#b75540"/>
    <path id="패스_27361" data-name="패스 27361" d="M508.815,429.381h0q-.118.012-.235.029-.234.034-.464.088a5.449,5.449,0,0,0-.675.2,5.394,5.394,0,0,0-1.967,1.284c-.15.154-.3.3-.455.441-.094.086-.189.171-.285.252a8.069,8.069,0,0,1-1.969,1.247q-.1.045-.205.086t-.207.079a1.346,1.346,0,0,1-.3.071l-5.287,7.046c.06.808.083,1.644.061,2.5q-.02.78-.092,1.584l-1.895-.172-.947-.086-.675.9q.516-.03,1.016-.026a13.153,13.153,0,0,1,2.427.244q.236.047.471.1l11.829-15.764Z" transform="translate(-438.188 -381.472)" fill="#b75540"/>
    <path id="패스_27362" data-name="패스 27362" d="M556.372,547.965l-.584-.033a1.569,1.569,0,0,1-.376-.068,1.547,1.547,0,0,1-.338-.151,1.575,1.575,0,0,1-.518-.5l-2.737,3.648q.18.084.359.174.539.271,1.074.594.714.431,1.426.959l3.4-4.529q-.834-.042-1.7-.09" transform="translate(-490.249 -486.153)" fill="#b75540"/>
    <path id="패스_27363" data-name="패스 27363" d="M594.9,442.215l.523.026q.742.035,1.456.066l7.524-10.028q-1.451-.291-3.079-.521c-.208-.029-.415-.057-.622-.084l-7.83,10.435q1.037.058,2.028.107" transform="translate(-526.72 -383.51)" fill="#b75540"/>
    <path id="패스_27364" data-name="패스 27364" d="M660.825,452.616l.483,0,.471,0,6.3-8.4q-.179-.079-.365-.157-.372-.155-.77-.3t-.823-.289q-.637-.211-1.332-.4l-7.112,9.479q1.679.05,3.148.065" transform="translate(-584.296 -393.636)" fill="#b75540"/>
    <path id="패스_27365" data-name="패스 27365" d="M657.586,563.883c-.147.223-.289.456-.411.686q-.061.115-.115.228l1.29-1.719q-.111.082-.215.174a3.142,3.142,0,0,0-.549.631" transform="translate(-583.748 -500.252)" fill="#b75540"/>
    <path id="패스_27366" data-name="패스 27366" d="M595.657,570.4q.2.191.407.389t.407.405a5.626,5.626,0,0,1,.545-.832q.13-.164.278-.325a5.62,5.62,0,0,1,.49-.469q.178-.151.378-.295.1-.071.206-.141.211-.138.445-.266.117-.064.24-.124c-.019-.193-.032-.4-.035-.617q0-.163,0-.335t.021-.35c.01-.122.025-.249.043-.38s.041-.265.069-.4a6.923,6.923,0,0,1,.234-.865,1.331,1.331,0,0,0,.064-.34q0-.056,0-.112Z" transform="translate(-529.195 -502.259)" fill="#b75540"/>
    <path id="패스_27367" data-name="패스 27367" d="M643.18,556.2l-.511.025q-1.274.056-2.845.064l-7.874,10.494c.025.03.052.058.077.088a4.162,4.162,0,0,0,2.939,1.43l9.124-12.159q-.432.033-.91.059" transform="translate(-561.439 -494.093)" fill="#b75540"/>
    <path id="패스_27368" data-name="패스 27368" d="M725.178,472.132q.35-.018.67-.041l.413-.032a1.536,1.536,0,0,1,1.6,1.092h0l3.974-5.3c-.067-.187-.139-.373-.219-.559a5.439,5.439,0,0,0-1.885-2.174l-5.285,7.043q.379-.014.729-.032" transform="translate(-643.617 -413.225)" fill="#b75540"/>
    <path id="패스_27369" data-name="패스 27369" d="M698.21,538.719h0l.041-.016a16.253,16.253,0,0,0,7.849-6.33l.049-.075.035-.055q.117-.183.232-.369l.008-.013q.113-.184.223-.371l.029-.048q.107-.182.211-.367l.038-.068q.1-.183.2-.369l.033-.062q.1-.192.2-.385l.015-.03q.1-.191.189-.384l.021-.042q.092-.194.179-.389l.031-.068q.085-.192.166-.386l.029-.07q.082-.2.159-.4l.016-.042q.076-.2.147-.4l.012-.033q.071-.2.136-.407l.022-.069q.062-.2.119-.4l.021-.074c.038-.135.074-.271.107-.407l.013-.053c.034-.138.066-.277.095-.417l0-.019c.029-.141.056-.281.08-.423l.012-.066q.034-.2.062-.409l.01-.076c.018-.137.033-.275.046-.412,0-.02,0-.04.005-.06.013-.145.023-.29.03-.435h0Z" transform="translate(-620.306 -465.734)" fill="#b75540"/>
    <path id="패스_27370" data-name="패스 27370" d="M588.124,159.345q.036-.019.072-.035l.033-.014a.987.987,0,0,1,.1-.033l.035-.008c.031-.007.063-.013.094-.017l.019,0a.951.951,0,0,1,.114,0h.029a.93.93,0,0,1,.464.145,28.5,28.5,0,0,0,2.665,1.471c3.012,1.461,7.574,3.02,11.838,1.9a8.226,8.226,0,0,0-.218-1.812,8.57,8.57,0,0,0-2.507-4.307c-.118-.111-.238-.22-.362-.325a2.005,2.005,0,0,1-.709-1.512,2.046,2.046,0,0,1,.09-.623,8,8,0,0,0-4.608-.086,1.272,1.272,0,0,1-.874,1.023l-.327.1a20.026,20.026,0,0,0-3.123,1.933l-.037.028,0,0h0a1.373,1.373,0,0,1-.346.175l-.023.008c-.087.05-.188.11-.3.179a10.714,10.714,0,0,0-2.169,1.837l.009,0,.037-.02" transform="translate(-522.463 -136.627)" fill="#195528"/>
    <path id="패스_27371" data-name="패스 27371" d="M610.057,832.024q-.256-.528-.509-1.045l-.166-.338c-.116-.236-.232-.472-.347-.7l-.193-.389-.316-.634-.2-.4-.16-.318a.542.542,0,0,0-.752-.221c-3.3,1.9-8.767,5.064-11.12,6.427a.543.543,0,0,0,.142,1,31.843,31.843,0,0,0,10.031,1.012q.35-.039.692-.082c.207-.026.411-.054.612-.083l.061-.008a2.943,2.943,0,0,0,2.525-2.784c0-.013,0-.026,0-.039s0-.031,0-.046a2.925,2.925,0,0,0-.3-1.327l-.008-.016" transform="translate(-529.521 -735.526)" fill="#195528"/>
    <path id="패스_27372" data-name="패스 27372" d="M443.449,605.1l-.067-.086-.1-.128-.17-.215-.1-.123-.18-.223-.084-.1q-.131-.16-.261-.316-.176-.212-.351-.416-.525-.612-1.039-1.156-.227-.241-.452-.469t-.449-.444q-.255-.247-.509-.478-.381-.347-.758-.658t-.752-.589a13.213,13.213,0,0,0-2.551-1.5q-.181-.079-.363-.151h0q-.176-.07-.352-.132a9.681,9.681,0,0,0-1.212-.341,9.894,9.894,0,0,0-1.256-.183,12.663,12.663,0,0,0-3.254.187q-.164.029-.325.061-.481.1-.924.216a10.18,10.18,0,0,0-1.986.747,6.955,6.955,0,0,0-1.254.811,5.276,5.276,0,0,0-1.467,1.871c-.023.05-.045.1-.066.15a4.065,4.065,0,0,0-.089,2.9,4.207,4.207,0,0,0,.3.685c.422.757.964,1.727,1.349,2.4l.08.14.278.483.079.136.246.424.048.082.292.5.082.141.242.411.073.125.3.514.084.142.136.228a2.337,2.337,0,0,0,2.6,1.059l.81-.223.049-.014q.57-.16,1.149-.326l.287-.083q.582-.168,1.171-.341.66-.194,1.328-.4l.427-.13.927-.284.5-.155.89-.279.5-.159.963-.309.431-.139q.7-.226,1.4-.46l.089-.03q.663-.22,1.334-.446l.465-.158.7-.238a1.64,1.64,0,0,0,.747-2.531" transform="translate(-375.675 -530.697)" fill="#195528"/>
    <path id="패스_27373" data-name="패스 27373" d="M580.349,248.222q-.584.065-1.185.087-.3.011-.6.011-.559,0-1.13-.037-.285-.018-.573-.046t-.579-.064q-.178-.022-.357-.048-.358-.052-.719-.117-.188-.034-.377-.072a.822.822,0,0,1-.05.174c-.228.543-1.007.758-1.892.522s-1.525-.743-1.3-1.287a.756.756,0,0,1,.171-.242q-.689-.234-1.386-.513c-.427-.171-.838-.347-1.229-.525l0,0a.786.786,0,0,1-.059.393c-.228.543-1.007.758-1.892.522l-.1-.027-.123.187-.761,1.152-2.823,4.273a25.439,25.439,0,0,0,2.842,1.225l.449-.772.449-.772a9.862,9.862,0,0,0,1.206.6q.308.127.622.232a10.052,10.052,0,0,0,2.559.5q.323.021.646.02a10.21,10.21,0,0,0,1.19-.069q.3-.034.587-.086t.58-.12q.432-.1.853-.243.28-.093.554-.2t.541-.235a9.4,9.4,0,0,0,2.649-1.856q.316-.316.6-.665.19-.233.366-.48.088-.124.172-.251.1-.149.191-.3.183-.3.339-.619.078-.157.149-.316-.288.044-.58.076" transform="translate(-500.522 -218.608)" fill="#ee8673"/>
    <path id="패스_27374" data-name="패스 27374" d="M709.844,216.825c4.88,4.067,7.284,11.736,5.343,19.082q2.486-1.075,4.838-2.122l.778-.347.769-.344c-.135-4.346-.312-8.665-.491-12.545a186.377,186.377,0,0,1,.413-23.219c.255-3.229.122-6.124-1.2-5.977-2.939.327-10.45,7.184-12.41,8.817s-6.531,8.164-9.47,9.8,5.552,1.959,11.43,6.858" transform="translate(-619.953 -169.998)" fill="#e86146"/>
    <path id="패스_27375" data-name="패스 27375" d="M818.379,696.06q-2.047,1.363-4.276,2.806-1.114.72-2.27,1.457t-2.353,1.487c3.629,5.137,8.665,13.1,10.674,5.922.618-2.207.854-7.256.87-13.448q-.96.65-1.968,1.325l-.677.452" transform="translate(-719.161 -616.818)" fill="#e86146"/>
    <path id="패스_27376" data-name="패스 27376" d="M151.011,497.269l-.008,0h0l-.023.012-.015.008h0l-.037.019-.235.12-.008,0-.143.073-.052.026-.016.008-.049.025-.049.025-.016.008-.039.02-.078.04-.021.011-.113.057-.021.011-.07.036-.145.073-.075.038-.012.006-.012.006-.145.073-.009,0-.009,0-.085.043-.085.043,0,0-.009,0-.112.056-.056.028-.025.012-.189.1-.009,0-.183.092-.013.007-.027.014-.206.1-.215.107-.03.015-.2.1-.025.013-.239.119-.011.006-.136.068-.091.045-.045.023-.248.123-.256.127-.049.024-.244.12-.012.006-.012.006-.275.136-.045.022-.245.121-.048.023-.293.144-.008,0-.008,0-.142.07-.142.07-.016.008-.033.016-.311.152-.319.156-.023.011-.023.011-.3.146-.033.016-.111.054-.222.108-.045.022-.15.073-.149.073-.03.014-.03.014-.174.085-.174.085,0,0,0,0-.17.082-.17.082-.07.034-.361.174-.367.177-.06.029-.347.167-.032.015-.389.187-.046.022-.117.056-.234.112-.041.02-.021.01-.4.192-.407.194-.06.029-.837.4-.041.02-.021.01-.384.182-.051.024-.145.068-.289.137-.046.021-.393.185-.077.036-.892.418-.039.018-.039.018-.217.1-.217.1-.008,0-.012.006-.278.13-.19.088-.07.032-.144.067-.269.125-.069.032-.24.111-.239.111-.027.012-.225.1-.225.1-.042.019-.042.019-.874.4-.049.023-.05.023-.09.041-.453.208-.041.019-.509.233-.03.014-.031.014-.454.207-.079.036-1.033.469-.088.04-.15.068-.15.068-.374.169-.374.169-.093.042-.478.215-.055.024-.543.243-.062.027-.483.215-.1.043-.118.052-.974.432-.051.022-.051.023-.267.118L126,509.1l-.007,0-.007,0-.564.248-.091.04-.5.218-.08.035-.572.25-.032.014-.016.007-.523.228-.1.044-1.15.5-.1.045-.227.1-.317.137-.037.016-.591.254-.089.038-.516.221-.094.04-.3.128-.3.128-.016.007-.016.007-.287.122-.135.057-.135.057-.114.048-1.2.505-.108.045-.274.115-.273.115-.061.026-.305.128-.305.128-.089.037-.31.129-.219.091-.056.023-.056.023-.616.255-.011,0-.011,0-.292.121-.292.12-.122.05-1.231.5-.119.049-.543.221-.043.017-.043.017-.624.253-.089.036-.365.147-.182.073-.059.024-.059.023-.628.251-.628.251-.123.049-.012,0-.012,0-.289.115-.289.115-.014.005-.014.005-.266.1-.371.146-.117.046-.319.125-.229.09-.1.039-.638.249-.077.03-.565.219-.128.049-.355.137-.917.352-.069.026-.068.026-.291.111-.291.111-.057.022-.645.244-.114.043-.556.209-.11.041-.649.243-.06.023-.584.217-.135.05-.192.071-1.1.4-.135.049-.57.208-.083.03-.645.233-.119.043-.273.1-.273.1-.131.047-.063.022-.063.022-.522.186-.052.018-.305.108-.1.034-.192.068-.142.05-.319.112-.319.112h0l-.217.075-.433.151-.139.048-.558.193-.1.034-.391.134-.257.088-.035.012-.071.024-.55.187-.141.048-.324.109-.324.109-.026.009-.307.1-.307.1-.088.029-.059.02-.24.079-.359.119-.044.014-.215.07-.43.141-.137.044-.543.176-.058.019-.058.019-.642.206-.066.021-.033.011-.184.058-.367.117-.144.045q-.639.2-1.276.4l-.076.023-.076.023-.189.058-.377.116-.073.022-.551.167-.084.025-.018.005-.119.036-.32.1-.208.062-.073.022-.056.017-.631.187-.091.027-.308.09-.239.07-.149.043q-.629.183-1.256.36l-.149.042-.539.151-.04.011-.055.015-.622.172-.129.035-.514.14-.139.038-.038.01-.581.156-.069.018-.275.073-.275.073-.152.04-.3.078-.3.078-.014,0-.061.016-.369.094-.184.047-.149.038-.51.128-.018,0-.076.019-.019,0-.3.074-.3.074-.061.015-.061.015-.25.06-.25.06-.143.034-.4.095-.2.047-.053.012-.183.042-.365.084-.1.023-.051.011-.547.124-.051.012-.059.013-.535.118-.142.031-.487.1-.081.017-.041.009-.585.123-.039.008-.071.015-.487.1-.1.02-.049.01-.582.116-.024,0-.552.107-.05.009-.1.019-.332.062-.166.031-.081.015-.189.034-.379.068-.136.024-.291.051-.171.03-.068.012-.058.01-.281.047-.281.047-.032.005-.064.01-.314.051-.157.025-.073.012-.073.011q-.557.087-1.108.167l-.144.021-.462.065-.094.013-.18.024-.36.048-.126.016-.437.055-.13.016-.533.063-.079.009-.458.05-.141.015-.167.017-.334.034-.018,0h-.009l-.522.048-.068.006-.068.006-.426.036-.1.009-.509.038-.057,0-.057,0-.412.027-.065,0-.065,0-.251.014-.25.014H58.1l-.443.021-.134.006-.445.016-.052,0-.48.012h-.006l-.125,0-.392.006h-.106l-.429,0h-.122l-.457,0H54.87l-.466-.009-.087,0-.451-.014-.076,0-.452-.02h-.016l-.3-.017-.151-.009-.027,0-.054,0-.435-.031-.051,0-.025,0q-.449-.036-.887-.082l-.037,0-.037,0-.419-.048-.076-.009-.213-.028-.213-.028h-.014l-.206-.03-.207-.031-.065-.01-.2-.033-.2-.033-.073-.013-.269-.049-.135-.025L49,529.575q-.2-.038-.388-.078l-.03-.006-.025-.005q-.194-.041-.385-.085l-.023-.005-.047-.011-.256-.062-.128-.031-.011,0-.023-.006q-.185-.047-.367-.1l-.045-.012q-.186-.051-.368-.1l-.066-.02q-.182-.054-.362-.112l-.04-.013q-.176-.057-.349-.116l-.016-.005-.016-.006q-.177-.061-.35-.125l-.016-.006-.044-.016q-.172-.064-.34-.131l-.043-.017q-.168-.067-.332-.138l-.02-.008q-.168-.072-.332-.147l-.055-.025-.106-.051c-.071-.034-.142-.067-.212-.1l-.029-.014-.015-.007q-.161-.08-.318-.162l-.006,0q-.158-.083-.313-.17l-.024-.014-.024-.014-.1-.058c-.066-.038-.133-.076-.2-.115l-.043-.026q-.3-.183-.589-.379l-.043-.029q-.138-.1-.273-.194l-.042-.031q-.139-.1-.274-.209t-.267-.216l-.013-.011-.023-.019c-.055-.046-.109-.094-.163-.141l-.087-.076-.039-.036-.009-.008c-.081-.073-.161-.147-.239-.222l0,0,0,0q-.121-.116-.237-.236l-.029-.03q-.115-.118-.225-.24l-.018-.02-.018-.02c-.037-.041-.073-.084-.11-.126s-.074-.083-.11-.125l-.006-.008-.008-.009q-.106-.126-.208-.255l-.011-.014-.011-.014c-.052-.066-.1-.133-.152-.2l-.048-.064-.033-.045q-.1-.135-.192-.273l-.017-.025c-.031-.046-.06-.092-.09-.138s-.061-.092-.09-.139l-.008-.013-.008-.013c-.03-.047-.058-.1-.087-.144s-.059-.1-.087-.145l-.014-.024-.014-.025q-.084-.146-.164-.3l-.018-.034q-.079-.149-.154-.3l-.01-.02c-.051-.1-.1-.209-.148-.315l-.016-.035-.008-.018q-.07-.158-.136-.319l-.017-.043q-.066-.164-.128-.331l0-.011c-.042-.113-.081-.227-.12-.342l-.019-.056c-.012-.038-.024-.076-.036-.114-.024-.076-.049-.151-.072-.228l-.01-.034-.005-.017c-.018-.06-.034-.121-.05-.181q-.05-.182-.1-.367c-.015-.062-.031-.123-.046-.185l0-.02-.009-.04c-.018-.081-.035-.163-.052-.244-.008-.041-.018-.081-.026-.122l0-.02-.008-.04q-.037-.192-.07-.388t-.061-.4l-.009-.062c-.006-.043-.011-.087-.016-.13-.011-.087-.023-.173-.032-.261l0-.046,0-.023c0-.01,0-.021,0-.031-.013-.126-.026-.252-.037-.38v-.016c-.011-.128-.019-.258-.027-.389,0-.008,0-.016,0-.024s0-.021,0-.031,0-.021,0-.031q-.011-.206-.018-.417,0-.039,0-.077c0-.143-.007-.287-.008-.433,0-.011,0-.023,0-.034q0-.21,0-.424v0c0-.014,0-.027,0-.041s0-.014,0-.021c0-.073,0-.148.006-.222s0-.147.006-.222l0-.042c0-.014,0-.028,0-.043,0-.075.008-.152.012-.228s.007-.151.012-.228l0-.025c0-.009,0-.017,0-.026q.014-.223.033-.449c0-.019,0-.039,0-.058q.02-.234.045-.472l0-.046,0-.046q.025-.238.055-.48l.007-.057v-.008c.01-.078.021-.158.032-.237s.021-.157.032-.237l0-.018,0-.035q.036-.248.078-.5l.016-.1.011-.065c.024-.146.049-.292.076-.44l.015-.08q.046-.251.1-.505l.008-.042q.053-.264.111-.532l.008-.035.015-.069q.058-.264.121-.531l.022-.093q.064-.27.132-.543l.006-.026q.071-.28.147-.565l.013-.05.015-.057c.033-.123.068-.247.1-.372.017-.062.034-.123.051-.186v0l0-.017c.185-.737.41-1.918-.039-1.931-.57-.017-1.222,1.21-1.381,1.525l-.017.034-.019.039-.115.236-.031.064-.024.05-.024.05-.02.041-.02.041-.049.1-.039.081-.049.1-.042.087-.047.1-.015.031-.03.062-.047.1-.044.093-.023.048-.023.048-.08.169-.052.109-.047.1-.045.1-.048.1-.044.094-.05.107-.044.095-.05.108-.043.094-.054.116-.041.088-.081.177-.024.053,0,.009-.077.167-.012.027-.025.055-.038.084-.019.042-.041.09-.056.124-.04.088-.029.065-.029.065-.019.043-.019.042-.062.138-.017.038-.017.038-.075.169-.011.024-.011.024-.1.217-.027.061-.049.112-.022.049-.017.039-.017.039-.031.072-.031.072-.038.088-.06.139-.019.043-.019.043L35,513.1l-.032.074-.076.177-.022.051-.1.232-.011.025-.037.087-.05.119-.017.04-.012.029-.016.037-.053.127-.034.081-.064.153-.035.084-.036.087-.03.072-.021.051-.01.026-.036.088-.036.088-.012.03-.012.03q-.1.241-.2.484l-.009.023-.009.023-.017.043-.061.151-.023.056-.006.016-.034.086-.034.086-.031.079-.033.085-.033.085-.015.038-.015.038-.07.179-.027.068-.042.108-.042.108-.011.029-.1.257h0l-.094.245-.011.029-.011.029-.036.1-.036.1-.028.074-.068.18-.014.037-.014.037-.035.093-.035.093-.012.033-.012.033-.039.106-.039.106-.016.042q-.095.259-.189.519l-.015.043-.076.213-.024.067-.068.191-.026.075-.067.19-.025.071-.023.067-.047.135-.013.039-.007.019q-.092.265-.182.532h0l-.052.154-.035.1-.019.057-.068.206-.023.069-.065.2-.023.071-.033.1-.032.1-.021.064-.075.234-.009.029q-.086.271-.17.543l-.012.041-.069.225-.02.064-.062.2-.021.071-.061.2-.019.065-.065.223-.006.022-.007.022c-.027.092-.053.183-.079.275s-.053.183-.079.275l0,.015-.027.1-.043.154-.016.057-.059.213-.019.068-.028.1-.028.1,0,.014-.014.053-.045.169-.012.045-.007.028-.007.028-.034.131-.034.131,0,.006q-.072.277-.14.554l-.011.045-.036.149-.018.074-.008.034-.008.034-.049.2-.017.07-.049.208-.007.032-.007.032q-.027.116-.053.232l-.008.037c-.021.092-.041.185-.061.277s-.041.185-.061.277l-.006.027-.052.242-.013.062q-.022.1-.044.209l-.014.07-.041.2-.014.069-.043.217-.005.026-.005.026c-.007.037-.013.073-.02.11-.045.237-.089.473-.131.709l-.009.051q-.019.108-.037.217l-.006.034-.006.034-.033.2-.011.071-.016.1-.017.1-.01.061q-.018.119-.036.237l0,.029q-.041.274-.078.547l-.005.038q-.015.114-.03.227l-.008.064-.017.135-.008.068-.009.072q-.012.1-.023.2l0,.023-.005.046c-.005.048-.011.1-.016.144l-.008.072-.005.048c-.01.09-.018.18-.027.27s-.019.18-.027.27v.011q-.011.125-.022.249c0,.019,0,.038,0,.057q-.009.1-.016.2c0,.024,0,.048-.005.071l-.007.1-.007.1-.005.073q-.007.1-.013.2l0,.06q-.007.119-.013.238v.02c0,.088-.008.176-.011.264s-.008.176-.011.264c0,.008,0,.016,0,.024s0,.016,0,.024q0,.1-.006.207,0,.034,0,.068c0,.032,0,.063,0,.095s0,.063,0,.095c0,.012,0,.024,0,.036v.036q0,.1,0,.19,0,.033,0,.067,0,.1,0,.208v.045h0q0,.259.006.515c0,.007,0,.014,0,.022v.011c0,.036,0,.072,0,.109s0,.073,0,.109c0,.011,0,.021,0,.032v.032q0,.094.007.187v.036c0,.012,0,.024,0,.036l0,.09c0,.03,0,.06,0,.09s0,.048,0,.072q.005.094.011.187c0,.02,0,.04,0,.06q.007.114.015.227v.018q.018.25.042.5l.005.055c.006.062.012.125.019.186l0,.035,0,.035q.01.087.02.173l.009.073q.011.087.022.174l.009.067q.013.1.027.193l.006.044q.035.241.075.48l.008.044c.007.042.015.084.022.126l.011.063,0,.022.008.044q.015.083.031.167l.014.073.017.081.016.081.015.07.019.086.019.086.006.029.006.029c.008.036.017.072.025.109s.017.072.025.108v.009l.014.057c.014.059.029.118.043.176l.007.025q.025.1.052.2l.017.061q.022.081.045.162l.007.023.013.047c.015.051.03.1.045.153l.021.071.024.078.024.078,0,.012.016.052c.015.047.03.094.046.14l.011.034.014.042q.073.219.153.434l.019.052.023.06.037.1.026.067.029.072.029.072.014.035.014.035.03.071.03.071.009.022.019.045.066.151.016.036.008.018.046.1.046.1v0q.049.1.1.207l.013.026.006.013.04.08.04.08.016.031.016.031.071.137.012.022.024.045.047.087.024.044.037.067.038.067.038.067.017.03.017.03.091.153.023.038q.059.1.119.193l.01.016.11.171.036.054.088.131.043.063.085.121.046.065.087.12.045.061.1.129.029.038.009.012.055.068c.075.095.15.189.227.282l.032.038.006.007.108.126.051.058.1.111.056.061.1.107.056.059.107.111.051.053.13.13.031.03q.082.08.166.159l.032.03.136.125.057.051.115.1.065.056.113.1.067.056.117.1.065.053.131.1.053.041.189.142,0,0,.079.057L34.8,549l.061.042.135.094.073.049.128.085.078.051.129.082.078.049.139.085.071.043.176.1.037.022.139.078.078.044.021.011.038.021.162.087.081.042.145.074.088.044.143.07.091.043.149.069.087.04.171.076.068.03.243.1.038.016.209.084.086.033.166.064.1.037.159.058.1.036.161.056.1.035.043.014.132.043.091.03.233.072.037.011.273.08.086.024.193.053.108.028.177.046.115.029.176.043.116.028.184.042.11.025.217.046.081.017.3.059.072.013.235.043.114.02.2.033.125.02.194.03.129.019.2.028.126.017.217.028.111.014.321.037h.009l.372.037.11.01.267.023.133.01.247.018.145.009.238.014.154.008.232.01.162.006.227.007.169,0,.222,0,.176,0h.582l.2,0,.179,0,.2,0,.18,0,.205-.006.181-.007.208-.009.181-.008.209-.011.183-.01.21-.013.184-.012.212-.015.185-.014.214-.017.186-.016.216-.02.187-.018.219-.022.186-.019.222-.024.186-.021.224-.027.187-.022.226-.029.187-.024.233-.032.182-.025.247-.036.17-.025.275-.042.146-.022.419-.067.161-.027.264-.044.193-.034.233-.041.206-.038.223-.041.213-.041.217-.041.218-.043.215-.043.22-.045L56.3,551l.224-.047.213-.045.227-.049.213-.047.23-.051.212-.048.233-.054.211-.049.234-.056.212-.051.236-.057.211-.052.24-.06.21-.053.243-.062.207-.053.247-.065.206-.054.25-.067.205-.056.253-.069.2-.056.257-.072.2-.057.26-.074.2-.057.265-.077.194-.057.271-.08.188-.056.279-.084.182-.055.286-.088.177-.055.293-.091.164-.052.308-.1.143-.046.33-.106.107-.035.368-.12.033-.011q1.142-.376,2.3-.785l.024-.008.4-.142.084-.03.376-.135.106-.038.361-.131.124-.045.35-.129.136-.05.347-.129.139-.052.344-.13.145-.055.339-.13.149-.057.341-.131.147-.057.341-.133.151-.059.34-.134.151-.06.344-.137.147-.059.347-.14.145-.059.349-.142.072-.029.072-.03.176-.072.176-.072.14-.058.226-.094.133-.055.049-.02.084-.035.366-.153.063-.026.063-.026.374-.157.117-.049.376-.16.009,0,.1-.044.4-.17.09-.039.413-.178.035-.015.035-.015.3-.131.131-.057.014-.006.031-.014.23-.1.23-.1,0,0,.451-.2q1.862-.827,3.74-1.709.626-.293,1.253-.593l.542-.259.016-.008.473-.228.036-.017.464-.225.014-.007.029-.014.456-.222.053-.026.449-.22.029-.015.029-.015.048-.024.1-.048.2-.1.1-.049.062-.031.444-.221.021-.01.042-.021.442-.221.033-.017.033-.017.273-.137.084-.042.084-.042.065-.033.444-.224.061-.031.223-.114.224-.114.029-.015.029-.015.453-.231.048-.025.154-.079.309-.159.023-.012.011-.006.159-.082.318-.164.013-.006.006,0q.693-.359,1.386-.723,3.463-1.82,6.9-3.748,1.372-.769,2.736-1.55l0,0h0l.447-.257.039-.023.014-.008.483-.278.012-.007.414-.24.035-.02.035-.02.005,0,.005,0,.343-.2.143-.083.005,0,.273-.159.216-.126h0q.721-.422,1.439-.846l.615-.364q.987-.586,1.965-1.175t1.947-1.181q.882-.539,1.756-1.08t1.738-1.082l1.023-.643,1.016-.643.01-.006.279-.177.171-.109.008,0,.008-.005.447-.285.014-.009.444-.284.018-.011.145-.093.291-.187.028-.018.428-.276.016-.01.015-.01.428-.276.022-.015.433-.281.017-.011.437-.284.007,0,0,0,.442-.288h0q.633-.413,1.258-.825l.316-.208q.617-.407,1.226-.812.933-.62,1.847-1.236.6-.405,1.193-.807l.295-.2q.592-.4,1.177-.8l0,0,.013-.009.007,0,.373-.256.048-.033.145-.1.211-.145.057-.039.174-.121.174-.121.021-.014.041-.029.336-.233.077-.053.324-.225.083-.058.178-.124.136-.1.093-.065.051-.036.127-.089.127-.089.048-.034.048-.034.151-.106.152-.106.094-.066.3-.212.047-.033.047-.033.3-.211.05-.035.043-.03.3-.21.1-.068.146-.1.146-.1.047-.033.047-.033.293-.209.087-.062.1-.071.2-.142.053-.038.027-.019.139-.1.159-.113.085-.061.292-.21.036-.026.042-.03.3-.215.057-.041.316-.228.023-.016.011-.008.363-.263q1.068-.775,2.087-1.527l.013-.009.284-.21.067-.05.128-.095.128-.095.091-.068.12-.089.12-.089.1-.077.076-.056.151-.113.113-.084.217-.163.119-.089.21-.158.124-.093.2-.152.129-.1.124-.094.071-.054.048-.036.083-.063.12-.092.069-.052.137-.1.119-.091.06-.045.141-.108.177-.135.138-.106.176-.135.045-.035.09-.069.116-.09.058-.045.111-.085.025-.02.169-.13.137-.106.11-.085.055-.043.069-.053.069-.053.081-.063.081-.063.067-.052.067-.052.163-.127.131-.1.159-.125.045-.035.09-.07.153-.12.132-.1.1-.081.051-.04.066-.052.066-.052.073-.058.073-.058.135-.108.072-.057.072-.057.065-.052.065-.052.142-.114.066-.053.066-.053.069-.055.069-.055.135-.109.129-.1.143-.115.12-.1.156-.127.174-.142.177-.145.058-.048.058-.048.135-.111.1-.086.071-.059.071-.059.1-.086.117-.1.02-.017.009-.007.1-.082.13-.109.108-.09.084-.07.042-.035.108-.091.04-.034.08-.068.057-.048.053-.045.114-.1.108-.092.114-.1.1-.088.114-.1.1-.087.111-.1.1-.087.106-.092.1-.087.105-.092.1-.083.093-.082.011-.01.01-.009.083-.073.051-.045.051-.045.09-.081.067-.059.033-.03.029-.026.058-.052.1-.088.088-.079.062-.056.031-.028.042-.038.042-.038.093-.085.082-.075.089-.082.042-.039.039-.036.087-.081.039-.037.039-.037.084-.079.076-.072.028-.026.054-.052.074-.07.041-.039.04-.039.035-.034.035-.034.026-.026.053-.051.067-.065.039-.039.039-.039.021-.02.041-.041.053-.053.027-.027.056-.056.084-.084.048-.049.055-.056.056-.057.008-.008.008-.008-.043.022" transform="translate(-25.895 -441.766)" fill="#e86146"/>
    <path id="패스_27377" data-name="패스 27377" d="M318.9,401.584a26.953,26.953,0,0,0,7.45-12.008,29.1,29.1,0,0,0,.777-2.984.8.8,0,0,0-.676-.954l-.35-.05-1.633-.231a.384.384,0,0,0-.432.309c-.024.13-.056.292-.1.484a.182.182,0,0,1-.358-.011,18.352,18.352,0,0,1-.165-2.51c0-.787.026-1.468.049-1.852.067-1.146.187-2.237.3-3.112.057-.431.112-.81.161-1.118a.9.9,0,0,0-.72-1.023h0l-.707-.133-.675-.128a.9.9,0,0,0-1.059.747l-.024.153c-.155,1.008-.37,2.622-.476,4.393q-.059.982-.064,1.864a18.091,18.091,0,0,0,.36,4.017,8.246,8.246,0,0,0,.572,1.722.948.948,0,0,0,1.441.334.212.212,0,0,1,.331.239c-.028.077-.057.155-.086.233q-.058.156-.119.314a23.091,23.091,0,0,1-5.929,8.906A4.708,4.708,0,0,0,315.187,403a4.767,4.767,0,0,0,.2,1.114,4.694,4.694,0,0,0,1.818,2.485l.309.215,1.547,1.075a1.492,1.492,0,0,0,2.077-.373l.08-.115.047-.068a1.493,1.493,0,0,0-.373-2.077l-1.445-1-.41-.285a1.519,1.519,0,0,1-.135-2.386" transform="translate(-280.012 -334.267)" fill="#0d1a35"/>
    <path id="패스_27378" data-name="패스 27378" d="M121.623,90.578q.453.135.9.279a1.143,1.143,0,0,0,1.494-1.087,4.709,4.709,0,0,1,6.475-4.385l.147.064a7.252,7.252,0,0,1,3.513,4.322,1.585,1.585,0,0,0,2.012,1.132l.019-.006c.621-.194,2.656-.482,8.14,1.033,3.167.875,5.9,1.918,5.924,1.928a1.6,1.6,0,0,0,.831.086c2.007-.325,4.166.678,5.623,1.577a18.5,18.5,0,0,1,2.528,1.888.535.535,0,0,0,.734-.021l1.338-1.339a.77.77,0,0,0-.035-1.122c-1.5-1.326-5.6-4.509-9.926-4.236a1.628,1.628,0,0,1-.658-.091c-1.046-.379-3.126-1.1-5.482-1.755A31.87,31.87,0,0,0,138,87.536a2.189,2.189,0,0,1-1.827-1.084,9.486,9.486,0,0,0-4.164-3.907c-2.748-1.264-6.046-1.038-9.809.669a1.386,1.386,0,0,0-1.386,1.386v4.884a1.14,1.14,0,0,0,.812,1.093" transform="translate(-107.331 -72.62)" fill="#0d1a35"/>
    <path id="패스_27379" data-name="패스 27379" d="M195.29,162.871a35.051,35.051,0,0,1-6.1,2.847,60.571,60.571,0,0,1-9.553,2.563,1.269,1.269,0,0,0-1.029,1.426l.051.364.042.3a1.269,1.269,0,0,0,1.482,1.073,64.587,64.587,0,0,0,8.017-2c.668-.214,1.35-.446,2.039-.7a43.707,43.707,0,0,0,4.032-1.691,29.283,29.283,0,0,0,4.592-2.714,14.73,14.73,0,0,0,5.476-6.848.628.628,0,0,0-.423-.81l-1.88-.536a.627.627,0,0,0-.761.382l-.01.026a2.472,2.472,0,0,1-3.043,1.49,53.55,53.55,0,0,1-10.331-4.286,10.653,10.653,0,0,1-4.536-5.6,1.136,1.136,0,0,0-1.3-.723l-.951.2a1.111,1.111,0,0,0-.828,1.452,13.815,13.815,0,0,0,6.023,7.463,52.374,52.374,0,0,0,8.718,3.836,1.381,1.381,0,0,1,.272,2.486" transform="translate(-158.666 -130.964)" fill="#0d1a35"/>
    <path id="패스_27380" data-name="패스 27380" d="M127.533,53.259a3.239,3.239,0,0,0-.518-.448h0a3.235,3.235,0,0,0-1.639-.573q-.109-.007-.218-.007a3.25,3.25,0,0,0-1.545.391c-.585.3-5.929,3.037-13.954,6.793a1.445,1.445,0,0,1-2.057-1.308V2.384A2.182,2.182,0,0,0,105.08.006c-2.838.043-4.928.914-6.22,2.593a6.894,6.894,0,0,0-1.315,4.183A1.386,1.386,0,0,1,96.54,8.1,49.3,49.3,0,0,0,84,13.818c-1.119.708-2.1,1.386-2.929,1.99a2.605,2.605,0,0,1-1.558.3,2.083,2.083,0,0,0-1.836.9,2.06,2.06,0,0,0-.345,1.162,2,2,0,0,0,.709,1.512c.125.105.244.214.362.325a8.571,8.571,0,0,1,2.507,4.307,8.227,8.227,0,0,1,.218,1.812c-4.265,1.123-8.826-.437-11.839-1.9a28.532,28.532,0,0,1-2.665-1.471.934.934,0,0,0-.464-.145h-.029a.972.972,0,0,0-.114,0l-.019,0a.935.935,0,0,0-.095.017l-.035.008a.974.974,0,0,0-.1.032l-.033.015q-.037.016-.072.035l-.037.02-.009,0a10.714,10.714,0,0,1,2.169-1.837c.11-.069.21-.13.3-.179l.023-.008a1.375,1.375,0,0,0,.346-.175h0l0,0,.037-.028a20.02,20.02,0,0,1,3.123-1.933l.327-.1a1.273,1.273,0,0,0,.874-1.023,1.262,1.262,0,0,0-.081-.678c-.984-2.38-3.5-7.36-7.913-9.331a10.091,10.091,0,0,0-8.544.247A7.144,7.144,0,0,0,52,12.542c-.6,2.449.017,5.455,1.823,8.935a30.47,30.47,0,0,0,1.7,2.858,1.692,1.692,0,0,0,2.457.388l.614-.486a.668.668,0,0,0,.124-.917c-1.548-2.128-4.368-6.871-3.6-10.022a3.954,3.954,0,0,1,2.47-2.678,6.931,6.931,0,0,1,5.912-.247c3.243,1.442,4.981,4.948,5.7,6.778a.239.239,0,0,1-.444.175A3.457,3.457,0,0,0,68,16.143c-1.157-1.181-3.009-1.384-5.5-.6a4.675,4.675,0,0,0-3.46,3.239c-.436,1.644.075,3.642,1.52,5.937a20.393,20.393,0,0,0,1.278,1.795,1.156,1.156,0,0,0,1.693.127l.182-.169a2.043,2.043,0,0,1,2.4-.285c.136.077.28.157.428.237-.061.008-.122.017-.181.03a1.326,1.326,0,0,0-.989.636.567.567,0,0,0,.035.516,1.969,1.969,0,0,0,1.166.743l.1.027c.886.236,1.665.022,1.892-.522a.786.786,0,0,0,.059-.393l0,0c.391.178.8.354,1.229.525q.7.279,1.386.513a.756.756,0,0,0-.171.242c-.228.543.412,1.05,1.3,1.287s1.664.022,1.892-.522a.825.825,0,0,0,.051-.174q.189.037.377.072.362.065.719.117.179.026.357.048.291.037.579.064t.574.046q.571.037,1.13.037.3,0,.6-.011.6-.022,1.185-.087.292-.033.58-.076-.071.159-.149.316-.156.314-.34.619-.092.152-.19.3-.084.127-.172.251-.176.247-.366.48-.285.349-.6.665a9.4,9.4,0,0,1-2.649,1.856q-.267.126-.541.235t-.554.2q-.42.14-.853.243-.288.068-.58.12t-.588.086a10.235,10.235,0,0,1-1.19.069q-.323,0-.646-.021a10.058,10.058,0,0,1-2.559-.5q-.313-.1-.622-.232-.154-.063-.307-.132a9.855,9.855,0,0,1-.9-.463l-.449.772-.449.772-.714,1.228a13.161,13.161,0,0,0,6.629,1.783,13.487,13.487,0,0,0,2.9-.317,12.61,12.61,0,0,0,7.887-5.332,11.749,11.749,0,0,0,1.418-2.976,5.871,5.871,0,0,1,2.014-2.876c3.894-3.025,9.828-7.327,14.176-10.4a3.45,3.45,0,0,0,.333-.268,3.4,3.4,0,0,0,.24-.241,27.3,27.3,0,0,1,2.4-2.319.851.851,0,0,1,1.407.643v45.2a3.935,3.935,0,0,1-2.322,3.589l-.452.2-.77.344-.778.347q-2.347,1.044-4.838,2.122-2.133.922-4.352,1.857a.967.967,0,0,1-1.226-1.348A21,21,0,0,0,91.5,61.8a13.657,13.657,0,0,0-.548-8.995c-.959-2.238-3.15-4.063-6.512-5.426a40.541,40.541,0,0,0-9.427-2.315c-1.215-.17-2.411-.3-3.551-.407a.736.736,0,0,1-.616-1c.192-.48.352-.922.482-1.3a1.364,1.364,0,0,0-.954-1.761l-.468-.12a1.362,1.362,0,0,0-1.627.879l-.018.051a4.3,4.3,0,0,1-4.1,2.9l-.235,0A1.324,1.324,0,0,0,62.6,45.564l-.082,1.865-.039.877-.039.877-.017.379-.033.757a1.309,1.309,0,0,0,.333.938,1.312,1.312,0,0,0,.678.407l.059.014c.033.006.066.012.1.016a1.284,1.284,0,0,0,.3,0h.008a1.37,1.37,0,0,0,.149-.026,1.31,1.31,0,0,0,.149-.044q.1-.038.207-.079t.205-.086a8.067,8.067,0,0,0,1.969-1.247c.1-.081.191-.165.285-.252.154-.14.306-.287.455-.441a5.4,5.4,0,0,1,1.967-1.284,5.493,5.493,0,0,1,.675-.2q.229-.054.464-.087.117-.017.235-.029.135-.014.271-.021t.273-.007q.137,0,.274.006t.275.02c.553.054,1.118.116,1.688.185l.572.072c.207.027.415.055.623.084q1.627.229,3.079.521.752.151,1.456.318.352.083.691.171t.666.179q.695.194,1.332.405.424.141.823.289t.77.3q.186.077.365.157.341.151.658.308.475.236.894.486.279.166.533.339.127.086.247.174a5.6,5.6,0,0,1,1.819,2.028q.035.072.066.146c.08.186.152.373.219.559q.145.405.251.812a9.761,9.761,0,0,1,.254,1.359q.028.242.044.483.024.363.022.725,0,.241-.013.482h0c-.007.145-.018.29-.03.435,0,.02,0,.04-.005.06q-.019.206-.046.412l-.01.076q-.027.2-.062.408l-.012.066c-.025.141-.051.282-.08.423l0,.019c-.029.139-.061.278-.095.416l-.013.053q-.05.2-.107.407l-.021.074q-.057.2-.119.4l-.022.069q-.065.2-.136.407l-.012.033q-.071.2-.147.4l-.016.042q-.077.2-.159.4l-.029.07q-.081.194-.166.386l-.031.068q-.088.2-.179.389l-.02.042q-.092.193-.189.384l-.015.03q-.1.194-.2.385l-.033.062q-.1.185-.2.369l-.038.068q-.1.184-.211.367l-.029.048q-.11.186-.223.371l-.008.013q-.114.186-.231.369l-.035.055-.027.043-.022.032a16.253,16.253,0,0,1-7.849,6.33h0l-.037.014h0c-.715.273-1.807.662-2.759,1a4.232,4.232,0,0,1-1.617.231,4.163,4.163,0,0,1-2.939-1.43c-.018-.021-.037-.04-.055-.061l-.022-.027c-.044-.054-.088-.108-.13-.163q-.157-.2-.313-.4t-.311-.39c0-.032,0-.065.007-.1.009-.1.022-.212.043-.327.014-.077.031-.156.052-.236s.046-.162.075-.245a2.462,2.462,0,0,1,.648-1c.042-.039.086-.077.131-.114a3.679,3.679,0,0,1,1.408-.669l.282-.067a1.346,1.346,0,0,0,.285-.1,1.323,1.323,0,0,0,.447-.362,1.343,1.343,0,0,0,.251-.506,1.371,1.371,0,0,0-.074-.864L73.2,66.9c-.006-.016-.018-.052-.033-.105s-.034-.124-.052-.209-.037-.185-.051-.3a3.926,3.926,0,0,1-.034-.51q0-.071,0-.144c0-.1.011-.2.023-.3a1.923,1.923,0,0,1,.088-.375,3.69,3.69,0,0,1,.167-.41q.053-.113.115-.228c.122-.23.264-.463.411-.686A3.146,3.146,0,0,1,74.388,63q.1-.092.215-.173a3.184,3.184,0,0,1,.44-.273q.115-.059.235-.109a3.227,3.227,0,0,1,.557-.176q.1-.021.193-.036a3.218,3.218,0,0,1,.527-.038l.653.005.631,0h.548q1.57-.008,2.845-.064l.511-.025q.478-.026.91-.059l.275-.022a1.536,1.536,0,0,0,1.4-1.619,1.552,1.552,0,0,0-.019-.166l0-.023-.019-.113a1.537,1.537,0,0,0-1.645-1.275q-.2.017-.413.032-.32.022-.67.041l-.357.017-.372.015q-.412.015-.857.026l-.3.006-.412.007q-.838.012-1.779.009l-.471,0-.483,0-.37,0q-1.307-.018-2.777-.061l-.775-.024q-.884-.029-1.82-.067l-.63-.026q-.714-.031-1.456-.066l-.523-.026q-.99-.049-2.028-.106l-.241-.013-.189-.011a1.564,1.564,0,0,0-1.649,1.461s0,0,0,.007l0,.026,0,.053c0,.043,0,.085,0,.127a1.554,1.554,0,0,0,.17.677c.023.045.048.088.074.13a1.56,1.56,0,0,0,1.232.723l.584.033q.87.048,1.7.09l1.308.064a1.185,1.185,0,0,1,.227.032,1.168,1.168,0,0,1,.747.571,1.184,1.184,0,0,1,.148.51q0,.056,0,.112a1.338,1.338,0,0,1-.063.34,6.933,6.933,0,0,0-.234.865c-.028.138-.051.273-.069.4s-.033.258-.043.38-.017.236-.021.35-.005.226,0,.335c0,.218.015.424.035.617q-.123.061-.24.124-.234.127-.445.266-.105.069-.205.141-.2.143-.378.295a5.63,5.63,0,0,0-.49.469q-.148.16-.278.325c-.108.137-.208.276-.3.415s-.173.279-.247.418q-.2-.207-.407-.406t-.407-.389q-.509-.477-1.016-.9-.127-.107-.254-.21-.381-.311-.762-.593-.712-.528-1.426-.959-.536-.324-1.074-.594-.18-.09-.359-.174-.472-.221-.947-.4-.159-.06-.317-.117a13.211,13.211,0,0,0-1.359-.4q-.235-.056-.471-.1a13.144,13.144,0,0,0-2.427-.244q-.5,0-1.016.026-.188.011-.378.027-.571.047-1.164.135-.264.039-.533.087l-.209.039c-.487.092-.995.208-1.513.356q-.241.069-.483.147t-.486.166l-.243.091q-.243.093-.485.2a11.8,11.8,0,0,0-1.192.593q-.35.2-.689.43a9.386,9.386,0,0,0-1.077.852q-.2.189-.4.392t-.377.423a8.245,8.245,0,0,0-.832,1.2q-.149.261-.282.54-.067.139-.129.283a8.548,8.548,0,0,0-.455,1.349q-.045.184-.081.363c-.048.237-.084.466-.11.682q-.02.163-.033.316t-.02.3c0,.1-.008.188-.01.276q0,.066,0,.129t0,.124c0,.04,0,.079,0,.117a6.726,6.726,0,0,0,.056.728l.008.055,0,.018.007.043.045.258.124.23h0c.025.047,3.829,7.605,3.829,7.605s-12.736,2.939-17.635,2.776c-10.011-.334-17.063-4.327-13.983-18.162.008-.038.022-.075.032-.113l.1-.4,1.02-3.924a1.644,1.644,0,0,1,2.656-.848l.043.038c.023.021.046.044.068.066q.165.168.332.329a11.1,11.1,0,0,0,1.01.871q.156.117.32.233a12.045,12.045,0,0,0,1.07.672q.192.107.394.21.4.205.843.388.22.091.45.176a12.507,12.507,0,0,0,3.6.739c.266.016.538.024.817.024a16.848,16.848,0,0,0,4.459-.638q.278-.076.562-.163A1.978,1.978,0,0,0,35.37,61.6l-.217-.53a.535.535,0,0,0-.21-.25.547.547,0,0,0-.1-.048.534.534,0,0,0-.253-.031.581.581,0,0,0-.087.017c-.017,0-.033.008-.049.014q-.244.093-.485.178-.482.171-.954.31t-.932.247q-.46.108-.909.185-.224.038-.446.069-.346.048-.684.076t-.669.037q-.331.009-.654,0t-.638-.039A9.48,9.48,0,0,1,26.7,61.6q-.331-.082-.652-.187-.241-.079-.475-.171t-.463-.2q-.3-.141-.6-.3-.147-.082-.291-.17-.183-.112-.362-.233t-.353-.252q-.131-.1-.257-.2a9.877,9.877,0,0,1-1.324-1.3q-.1-.113-.186-.226-.218-.271-.409-.544a11.647,11.647,0,0,1-.669-1.071c-.1-.173-.184-.343-.265-.508-.113-.229-.212-.448-.3-.654a11.771,11.771,0,0,1-.555-1.637q-.057-.22-.1-.43a9.1,9.1,0,0,1-.174-1.158c0-.058-.009-.115-.012-.171q-.007-.124-.01-.24c0-.155,0-.3.007-.43q.006-.1.016-.188a1.863,1.863,0,0,1,.059-.3c.016-.056.034-.115.057-.177a4.648,4.648,0,0,1,.8-1.318q.119-.147.259-.3t.3-.323q.081-.083.168-.169.261-.257.578-.537a22.119,22.119,0,0,1,1.824-1.429l.189-.133.194-.135A56.756,56.756,0,0,1,30.769,42.5q.368-.18.747-.362t.769-.364q.779-.365,1.6-.734c.487-.219.977-.45,1.471-.69,2.06-1,4.178-2.141,6.327-3.055a25.707,25.707,0,0,1,3.229-1.151q.48-.132.961-.235l.122-.027.167-.033c.167-.033.333-.064.5-.09q.334-.054.668-.092a11.31,11.31,0,0,1,3.332.1h0A7.718,7.718,0,0,1,52.836,36.8c.05.035.1.072.148.108.121.089.24.181.353.277a6.5,6.5,0,0,1,.874.9q.1.123.191.25t.18.261a2.909,2.909,0,0,1,.233.43,2.966,2.966,0,0,1,.158.465,3.247,3.247,0,0,1,.091.6q.006.1.006.212a4.122,4.122,0,0,1-.024.439c-.015.136-.037.276-.065.418-.006.032-.013.064-.02.1a6.19,6.19,0,0,1-.187.675q-.085.251-.193.511-.054.13-.115.263-.121.266-.266.541a12.938,12.938,0,0,1-.791,1.3q-.1.147-.2.284L53.085,45c-.064.086-.127.169-.188.247l-.079.1-.091.114-.118.145-.024.029c-.063.076-.122.146-.175.208l-.063.073c-.138.158-.23.256-.253.28l-.005.006a1.611,1.611,0,0,0-.146.174c-.015.02-.029.04-.042.061q-.042.063-.077.128a1.586,1.586,0,0,0-.169,1.013c.007.041.015.081.025.122a1.587,1.587,0,0,0,.078.238q.024.058.054.115a1.605,1.605,0,0,0,.1.168h0l0,0,.035.053.043.068.092.149.078.13.09.154c.08.138.171.3.271.485q.09.167.189.357l.067.13q.067.132.138.275c.117.238.239.5.365.776q.113.251.228.523.052.124.1.252t.1.26q.1.264.209.544c.2.538.4,1.147.593,1.816a24.5,24.5,0,0,1,.69,3.221q.085.589.142,1.209h0q.021.23.037.464t.028.471q.023.475.026.964,0,.245,0,.492-.009.483-.041.977-.017.266-.041.535l.177.016.177.016.947.086,1.894.172q.073-.8.092-1.584c.022-.859,0-1.695-.061-2.5q-.036-.491-.09-.969t-.122-.94q-.1-.694-.236-1.353-.044-.22-.091-.435c-.092-.421-.192-.828-.3-1.224q-.1-.376-.207-.737c-.113-.383-.231-.754-.352-1.11q-.079-.233-.16-.457t-.162-.44c-.314-.83-.637-1.566-.937-2.193a2.646,2.646,0,0,1,.188-2.612c1.537-2.305,3.2-6.041,1.152-9.436-.045-.074-.09-.147-.136-.219a9.553,9.553,0,0,0-2.262-2.523c-5.339-4.074-13.6-.065-19.971,2.944l-.6.281q-.589.277-1.153.536-.282.129-.556.253l-.573.259q-.568.259-1.117.516t-1.078.513q-.794.383-1.543.762a56.537,56.537,0,0,0-6.394,3.7,17.5,17.5,0,0,0-4.776,4.449.17.17,0,0,1-.034.033,10.76,10.76,0,0,0-3.92,8.333c0,.211,0,.425,0,.639a3.242,3.242,0,0,0-1.344,1.258A115.036,115.036,0,0,0,4.107,75.05,66.163,66.163,0,0,0,.289,89.724,33.248,33.248,0,0,0,.146,97.16a20.107,20.107,0,0,0,1.947,6.985,15.539,15.539,0,0,0,5.7,6.259,22.006,22.006,0,0,0,9.418,3.013,33.106,33.106,0,0,0,3.522.181c9.647,0,21.564-3.791,33.375-8.994h53.5v-30.6a.983.983,0,0,1,.415-.8q1.494-1.057,2.78-1.988c7.705-5.57,13.784-10.473,16.683-13.455a3.253,3.253,0,0,0,.054-4.5M104.2,8.162a2.107,2.107,0,0,1-.555.738l-.046.037-.04.03q-.163.113-.323.226-.319.227-.621.453c-.4.3-.783.6-1.14.895q-.267.219-.516.433t-.479.418c-.23.2-.445.4-.646.59q-.2.187-.38.362a29.22,29.22,0,0,1-2.5,2.163q-.437.337-.887.658c-.909.649-2.016,1.444-3.225,2.319l-.737.534-1.14.83c-1.671,1.22-3.429,2.521-5.06,3.756-.5.38-.991.755-1.463,1.118a.254.254,0,0,1-.4-.144q-.021-.09-.047-.187c-.035-.128-.076-.265-.122-.407s-.1-.29-.154-.442c-.083-.228-.175-.464-.272-.7-.064-.158-.131-.317-.2-.473s-.135-.312-.2-.464c-.1-.227-.2-.446-.294-.649l-.092-.2q-.027-.057-.048-.116a1.354,1.354,0,0,1-.08-.478c0-.04,0-.08.007-.119A1.365,1.365,0,0,1,82.617,19c.014-.037.03-.074.047-.109a1.387,1.387,0,0,1,.089-.156,1.356,1.356,0,0,1,.39-.387c.187-.122.4-.258.63-.407l.24-.153q.33-.208.708-.443l.389-.239.2-.123q.411-.249.863-.516l.461-.27.479-.276q.488-.279,1.009-.566l.434-.237q.446-.242.91-.486l.279-.145q.327-.17.662-.339l.48-.24.443-.217.439-.211q.594-.282,1.2-.554.3-.136.611-.267l.4-.169q.262-.11.526-.217.522-.212,1.047-.409.253-.095.506-.186a29.149,29.149,0,0,1,3.7-1.081h0A1.583,1.583,0,0,0,100.9,9.7c.014-.03.027-.061.039-.093a1.581,1.581,0,0,0,.105-.6c0-.035,0-.069-.005-.1,0-.01,0-.02,0-.03-.005-.052-.013-.1-.024-.156a1.551,1.551,0,0,0-.04-.157c-.013-.044-.026-.093-.039-.147s-.027-.113-.04-.176c-.02-.095-.039-.2-.057-.311s-.033-.232-.046-.358c-.009-.084-.016-.17-.022-.259-.009-.133-.014-.271-.014-.412q0-.07,0-.142a5.492,5.492,0,0,1,.04-.562c.013-.1.029-.206.049-.308.009-.048.02-.1.031-.144a3.65,3.65,0,0,1,.145-.477,3.066,3.066,0,0,1,.125-.284q.035-.07.074-.138t.075-.123c.039-.059.079-.118.122-.174.03-.039.062-.076.095-.113l.027-.031a2.632,2.632,0,0,1,.263-.253,3.144,3.144,0,0,1,.664-.421q.094-.045.193-.086a1.25,1.25,0,0,1,.916-.02,1.272,1.272,0,0,1,.671.573,1.231,1.231,0,0,1,.115.287,1.271,1.271,0,0,1,.041.321V7.257a2.2,2.2,0,0,1-.11.689,2.176,2.176,0,0,1-.084.216M47.508,70.7c.017-.039.034-.078.053-.117a5.276,5.276,0,0,1,1.467-1.871,6.962,6.962,0,0,1,1.254-.811,10.2,10.2,0,0,1,1.986-.747q.444-.12.925-.215.16-.032.324-.061a12.671,12.671,0,0,1,3.255-.187,9.927,9.927,0,0,1,1.256.183,9.719,9.719,0,0,1,1.212.342q.176.062.352.132t.363.151A13.2,13.2,0,0,1,62.5,69q.375.277.752.589t.758.658q.127.115.254.235t.255.243q.224.216.449.444t.452.468q.514.545,1.039,1.157.175.2.352.416.13.156.261.317l.084.1.18.223.1.123.17.215.1.128.056.072.01.014a1.64,1.64,0,0,1-.747,2.531l-.032.012-.666.226-.465.158q-.671.226-1.334.446l-.089.03q-.706.234-1.4.46l-.431.139-.963.309-.5.159-.89.279-.5.155-.927.284-.427.13q-.668.2-1.328.4-.589.174-1.171.341l-.287.083q-.578.165-1.149.326l-.049.014-.784.217L53.6,81.1A2.337,2.337,0,0,1,51,80.044l0-.005-.133-.223-.084-.142-.3-.513-.073-.125-.242-.411-.082-.14-.292-.5-.048-.082-.246-.424-.079-.136-.278-.483-.08-.14c-.385-.675-.928-1.644-1.349-2.4a4.2,4.2,0,0,1-.3-.685,4.065,4.065,0,0,1,.089-2.9c0-.011.008-.022.013-.033M80.839,97.89c0,.013,0,.026,0,.038a2.942,2.942,0,0,1-2.524,2.784h0l-.061.008c-.2.028-.405.056-.612.082q-.342.043-.692.082a31.844,31.844,0,0,1-10.031-1.012.543.543,0,0,1-.142-1c2.353-1.363,7.818-4.527,11.12-6.427a.543.543,0,0,1,.752.221l0,.005.156.312.2.4.316.634.193.389.347.7.166.338q.253.518.509,1.045l.008.016a2.923,2.923,0,0,1,.3,1.327c0,.015,0,.031,0,.046m23.554-4.882h0A8.389,8.389,0,0,1,96,101.4h-1.98a12.148,12.148,0,0,1-1.293-.069q-.213-.023-.425-.053a12.081,12.081,0,0,1-3.614-1.117q-.376-.185-.738-.4t-.709-.445q-.173-.117-.342-.241-.3-.216-.579-.449a12.078,12.078,0,0,1-3.188-4.067l-.01-.022L82.9,94.08l-.027-.055-.213-.44-.042-.086-.207-.425-.033-.068-.211-.432-.007-.015a1.1,1.1,0,0,1,1.161-1.574h0l.582.054a5.817,5.817,0,0,0,2.54-.325l.005,0,.02-.007h0c.119-.044.29-.107.488-.2.141-.063.3-.138.454-.228q.1-.054.191-.115c.064-.041.128-.084.191-.129a2.914,2.914,0,0,0,.684-.676,2.127,2.127,0,0,0,.377-.963h0c0-.031.007-.064.01-.1,0-.01,0-.02,0-.03s0-.048,0-.072,0-.023,0-.034,0-.052,0-.078c0-.009,0-.018,0-.027,0-.035,0-.071-.006-.106,0-.008,0-.016,0-.024,0-.028-.006-.057-.01-.086,0-.012,0-.024-.005-.036s-.009-.053-.014-.079,0-.023-.007-.035c-.007-.034-.015-.068-.025-.1l0-.012c-.01-.038-.023-.076-.036-.115l-.012-.033c-.01-.028-.021-.056-.033-.085l-.016-.039c-.013-.029-.026-.058-.041-.087l-.016-.032c-.02-.039-.042-.079-.065-.119l-.012-.019c-.02-.033-.041-.067-.064-.1l-.026-.038-.03-.043a.558.558,0,0,1,.15-.808L89,85.819l.3-.189,1.019-.636q1.2-.75,2.353-1.487t2.27-1.457q2.227-1.44,4.276-2.806l.677-.452q1.008-.674,1.968-1.325l.018-.013.572-.388.183-.124.222-.152a.982.982,0,0,1,1.535.811ZM125.16,55.484l-.008.008-.008.008-.056.057-.055.056-.048.048-.084.084-.056.056-.027.027-.053.053-.041.041-.021.02-.04.039-.04.039-.067.065-.053.051-.026.026-.035.034-.035.033-.04.039-.04.039-.074.07-.054.051-.028.026-.076.072-.084.079-.039.036-.039.037-.087.081-.039.036-.042.038-.089.082-.082.075-.093.085-.042.038-.042.039-.031.028-.062.056-.088.079-.1.088-.058.052-.029.026-.033.03-.067.06-.091.081-.051.045-.051.045-.083.073-.01.009-.011.01-.093.082-.1.083-.105.092-.1.087-.106.092-.1.087-.111.1-.1.087-.114.1-.1.088-.114.1-.108.092-.114.1-.053.045-.057.049-.08.068-.04.034-.108.091-.042.035-.084.07-.108.09-.13.108-.1.082-.009.007-.02.017-.117.1-.1.086-.071.059-.071.059-.1.086-.135.111-.058.048-.058.048-.177.145-.174.142-.156.127-.12.1-.142.115-.129.1-.135.109-.069.055-.069.055-.066.053-.066.053-.142.114-.065.052-.065.052-.072.057-.072.057-.135.108-.073.058-.074.058-.066.052-.066.052-.051.041-.1.081-.132.1-.153.121-.09.071-.045.035-.159.125-.131.1-.163.127-.067.052-.067.052-.081.063-.081.063-.069.053-.069.053-.055.043-.11.085-.137.106-.169.13-.025.02-.111.085-.058.045-.116.09-.09.069-.045.034-.176.135-.138.106-.177.135-.141.108-.06.045-.119.091-.137.1-.069.052-.121.091-.083.063-.048.036-.071.054-.124.094-.129.1-.2.153-.124.093-.21.158-.119.089-.218.163-.113.084-.151.113-.076.057-.1.077-.12.089-.12.089-.091.068-.128.095-.128.095-.067.049-.284.21-.013.009q-.508.376-1.031.757t-1.056.769l-.363.263-.011.008-.023.016-.315.228-.057.041-.3.215-.042.03-.036.026-.292.21-.085.061-.158.113-.139.1-.027.019-.053.038-.2.142-.1.071-.087.062-.294.209-.046.033-.047.033-.146.1-.146.1-.1.068-.3.21-.043.03-.05.035-.3.211-.047.033-.047.033-.3.212-.094.066-.152.106-.152.106-.048.033-.048.034-.127.089-.127.089-.051.036-.061.043-.033.023-.136.1-.178.124-.083.058-.324.225-.077.053-.336.233-.042.029-.021.014-.174.12-.174.121-.057.039-.211.145-.145.1-.048.033-.373.256-.007,0-.013.009,0,0q-.583.4-1.177.8l-.295.2q-.593.4-1.193.807l-.006,0q-.905.61-1.83,1.225l-.011.007q-.609.405-1.226.812l-.316.208q-.626.412-1.258.825h0l-.442.288,0,0-.007,0-.437.284-.017.011-.433.281-.023.015-.428.276-.016.01-.016.01-.428.275-.028.018-.291.187-.145.093L91.8,80.2l-.444.284-.015.009-.447.285-.008.005-.008.005-.171.108-.279.178-.01.006-1.016.643-1.023.643q-.864.541-1.738,1.082T84.89,84.528q-.969.592-1.947,1.181t-1.965,1.175l-.615.364q-.718.424-1.439.846h0l-.216.126-.273.16,0,0h0l-.143.083-.343.2-.005,0-.005,0-.035.02-.035.02-.414.24-.012.007-.483.278-.014.008-.039.023-.447.257h0q-1.363.781-2.736,1.551-3.431,1.922-6.9,3.748-.693.364-1.386.723l-.006,0-.013.006-.318.164-.159.082-.011.006-.023.012-.309.159-.154.079-.048.025-.453.231-.029.015-.029.015-.224.114-.223.114-.061.031-.444.224-.065.033-.084.042-.084.042-.273.137-.033.017-.033.017-.442.221-.042.021-.021.01-.444.221-.062.031-.1.049-.2.1-.1.048-.048.024-.029.015-.029.014-.449.221-.053.026-.455.222-.029.014-.014.007-.464.225-.036.017-.473.228-.016.008-.542.259q-.627.3-1.253.593-1.877.881-3.74,1.708l-.451.2h0l-.23.1-.23.1-.031.014-.014.006-.131.057-.3.131-.035.015-.035.015-.413.178-.09.039-.4.17-.1.044-.008,0-.376.16-.117.05-.374.158-.063.026-.063.026-.366.153-.084.035-.049.02-.133.055-.226.093-.14.058-.176.072-.176.072-.072.029-.072.03-.349.141-.145.059-.348.14-.147.059-.344.137-.15.059-.34.134-.151.059-.341.133-.147.057-.341.131-.149.057-.339.129-.145.055-.344.13-.139.052-.347.129-.136.05-.35.129-.124.045-.361.132-.106.038-.376.135-.084.03-.4.142-.024.008q-1.159.409-2.3.785l-.033.011-.368.12-.107.035-.33.106-.143.046-.308.1-.164.052-.293.091-.177.055-.286.087-.182.055-.279.084-.188.057-.271.08-.194.057-.265.077-.2.057-.26.074-.2.057-.257.072-.2.056-.252.069-.205.056-.25.066-.206.055-.247.065-.207.053-.243.062-.209.053-.24.06-.211.052-.236.057-.212.051-.234.055-.211.049-.233.054-.212.048-.23.051-.213.047-.227.05-.213.045-.224.047-.216.044-.22.045-.216.043-.218.043-.218.041-.213.041-.223.041-.206.037-.233.041-.193.034-.264.045-.161.027-.419.067-.145.022-.275.042-.17.025-.247.036-.182.025-.233.032-.187.024-.226.029-.187.022-.224.026-.186.021-.222.025-.186.019-.219.022-.187.018-.216.02-.186.016-.214.018-.185.014-.212.015-.184.012-.21.013-.183.01-.209.011-.182.009-.208.009-.181.007-.205.006-.18,0-.2,0-.178,0-.2,0h-.582l-.176,0-.222,0-.169,0-.227-.007-.162-.006-.232-.01-.154-.008-.238-.014-.145-.009-.247-.018-.133-.01-.267-.023-.11-.01-.372-.037h-.009l-.321-.036-.111-.014L16.9,110.1l-.126-.017-.2-.028-.129-.019-.194-.03-.125-.02-.2-.033-.114-.02-.235-.043-.072-.013-.3-.059-.081-.017-.217-.046-.11-.025-.184-.042-.116-.027-.176-.043-.115-.029-.177-.046-.108-.029-.193-.053-.086-.024-.274-.08-.037-.011-.233-.072-.091-.03-.132-.043-.043-.014-.1-.035-.161-.056-.1-.036-.159-.058-.1-.037-.166-.064-.086-.033-.209-.084-.038-.016-.243-.1-.068-.03-.171-.076-.087-.04-.149-.069-.091-.044-.143-.07-.088-.044-.145-.074-.081-.042-.162-.087-.038-.021-.021-.011-.078-.044-.139-.078-.037-.022-.176-.1-.071-.043-.139-.085-.078-.049-.129-.082-.078-.051-.128-.085-.073-.049-.135-.094-.061-.043-.109-.079-.079-.057,0,0-.189-.142-.053-.041-.131-.1-.065-.052-.117-.1-.067-.056-.113-.1-.065-.056-.115-.1-.057-.051-.136-.125-.032-.03q-.084-.079-.166-.159l-.031-.03-.13-.13-.051-.053-.107-.11-.056-.059-.1-.107-.056-.061-.1-.111-.051-.058-.108-.126-.006-.007L6.58,105.1c-.078-.093-.153-.187-.227-.282l-.055-.068-.009-.012L6.26,104.7l-.1-.128-.045-.061-.087-.12-.046-.065L5.9,104.2l-.043-.063-.088-.131-.036-.054q-.056-.085-.11-.171l-.01-.016q-.06-.1-.119-.193l-.023-.038-.091-.153-.017-.03-.017-.03-.038-.067-.038-.067-.037-.067-.024-.044L5.161,103l-.024-.045-.012-.023-.071-.137-.016-.031-.016-.031-.04-.08-.04-.08-.006-.013-.013-.026q-.05-.1-.1-.207v0l-.046-.1-.046-.1-.008-.018-.016-.036-.066-.151-.019-.044-.009-.022-.03-.071-.03-.071-.014-.035-.014-.035-.029-.072-.029-.072-.026-.067-.037-.1-.023-.06-.019-.052q-.079-.215-.153-.434l-.014-.042-.011-.034-.046-.14-.016-.052,0-.012-.024-.078-.024-.078-.021-.071L4,100.117l-.013-.047-.007-.023q-.023-.081-.045-.162l-.017-.061c-.018-.066-.035-.132-.052-.2L3.865,99.6c-.015-.059-.029-.117-.043-.176l-.014-.058v-.009l-.025-.109c-.008-.036-.017-.072-.025-.109l-.006-.029-.006-.029L3.724,99l-.019-.086-.015-.07-.017-.081-.016-.081-.014-.073q-.016-.083-.031-.167L3.6,98.4l0-.022-.011-.063c-.007-.042-.015-.084-.022-.126l-.008-.044q-.04-.238-.075-.48l-.006-.045q-.014-.1-.026-.193l-.009-.067q-.011-.087-.022-.174c0-.024-.006-.049-.009-.073-.007-.057-.013-.115-.02-.173l0-.035,0-.035q-.01-.093-.019-.186l-.005-.056q-.023-.247-.042-.5c0-.006,0-.012,0-.018Q3.31,96,3.3,95.882c0-.02,0-.04,0-.061,0-.062-.007-.125-.011-.187,0-.024,0-.048,0-.072s0-.06,0-.09,0-.06,0-.09l0-.036,0-.036q0-.093-.007-.187c0-.011,0-.021,0-.032V95.06c0-.036,0-.072,0-.109s0-.072,0-.108c0,0,0-.007,0-.011s0-.014,0-.022q-.005-.257-.006-.515c0-.015,0-.03,0-.045q0-.1,0-.208,0-.033,0-.067c0-.063,0-.127,0-.19v-.036c0-.012,0-.024,0-.036,0-.031,0-.063,0-.095s0-.063,0-.095l0-.068q0-.1.006-.207c0-.008,0-.016,0-.025s0-.016,0-.024c0-.088.008-.176.011-.264s.007-.176.011-.264V92.65q.006-.118.013-.238c0-.02,0-.04,0-.06,0-.067.008-.133.013-.2l.005-.073.007-.1.007-.1.005-.072q.008-.1.016-.2c0-.019,0-.038,0-.057q.011-.125.022-.249v-.011c.008-.09.018-.18.027-.27s.017-.18.027-.27l.005-.048.008-.072c.005-.048.01-.1.016-.144l.005-.046,0-.023q.011-.1.023-.2l.009-.072.008-.068.017-.135.008-.064q.015-.113.03-.227l.005-.038q.037-.273.078-.547l0-.029q.018-.118.036-.237l.01-.061.016-.1.017-.1.011-.071c.011-.068.022-.135.033-.2l.006-.034L3.8,88.2c.012-.072.025-.145.037-.217l.009-.051c.041-.236.085-.473.131-.71.007-.037.013-.073.02-.11L4,87.081l.005-.026.043-.217.014-.069.041-.2.014-.07q.021-.1.043-.21l.013-.062q.025-.121.052-.242l.006-.027c.02-.092.041-.185.061-.277s.041-.185.061-.277l.008-.037.053-.232.008-.032.007-.032.049-.208.017-.07.049-.205.008-.034.008-.034.018-.074.037-.149.011-.046q.069-.277.14-.554l0-.006.034-.131.034-.131.007-.028.007-.028.012-.045.045-.169.014-.053,0-.014.028-.1.028-.1L5,82.816l.059-.213.016-.057.043-.154.027-.1,0-.015c.026-.092.053-.183.079-.275s.052-.183.079-.275l.007-.022.006-.022.065-.223.019-.065.061-.2.021-.071.062-.2.019-.064.069-.225.012-.041q.084-.272.17-.543l.009-.029.075-.234.021-.064.032-.1.033-.1.023-.071.065-.2.023-.069.068-.206.019-.057.035-.1.052-.154h0q.09-.267.182-.532l.007-.019.013-.038.047-.134.023-.067.025-.071.067-.19.026-.075.068-.191.024-.067.076-.213.015-.043q.094-.26.189-.519l.016-.042.039-.106.039-.106.012-.033.012-.033.035-.093.035-.093.014-.037.014-.037.068-.18.028-.074.036-.1.036-.1.011-.029.011-.029.094-.245h0l.1-.257.011-.029.042-.108.042-.108.027-.068.07-.179.015-.038.015-.038.034-.085.033-.085.031-.079.034-.086.034-.086.006-.016.023-.056.061-.151.017-.043.009-.023.009-.023q.1-.243.2-.484l.012-.03.012-.03.036-.088.036-.088.011-.025.021-.051.03-.072.036-.087.035-.084.064-.154.034-.081.053-.127.016-.037.012-.029.017-.04.05-.118.037-.087.011-.026.1-.231.022-.051.076-.177.032-.075.065-.15.019-.043L9.2,71.1l.06-.139.038-.088.031-.072.031-.072.017-.039.017-.039L9.42,70.6l.049-.111.027-.061.1-.217.011-.024.011-.024L9.689,70l.017-.038.017-.038.062-.138.019-.043.019-.043.029-.065.029-.065.04-.088.056-.124.041-.09.019-.042.038-.085.025-.054.012-.027.077-.167,0-.009.024-.053.081-.177.041-.088.054-.116.043-.094.05-.108.044-.095.05-.107.044-.094.048-.1.045-.1.047-.1.052-.109.08-.169.023-.048.023-.048.044-.093.047-.1.03-.062.015-.031.047-.1.042-.087.049-.1.039-.081.049-.1.02-.041.02-.041.024-.05.024-.05.031-.064.115-.236L11.56,66l.017-.035c.158-.315.811-1.541,1.381-1.525.449.013.224,1.194.039,1.931l0,.017v0c-.018.062-.034.124-.051.186-.034.124-.069.249-.1.372l-.015.057-.013.05q-.076.285-.147.565l-.006.026q-.069.274-.132.543l-.022.093q-.063.268-.12.531l-.015.069-.007.035q-.058.268-.111.532l-.008.042q-.051.255-.1.505l-.015.08c-.027.148-.052.294-.076.44l-.011.065-.016.1q-.041.253-.078.5c0,.012,0,.023,0,.035l0,.017c-.011.08-.021.158-.032.237s-.022.159-.032.237v.009l-.007.057q-.03.242-.055.48l0,.046,0,.046q-.025.238-.045.472l0,.058q-.019.227-.033.449l0,.025,0,.025c0,.077-.008.152-.012.228s-.009.153-.012.228c0,.014,0,.028,0,.042l0,.042c0,.075,0,.148-.006.222s-.005.149-.006.222c0,.007,0,.014,0,.021s0,.027,0,.041v0q0,.214,0,.424c0,.011,0,.023,0,.034q0,.219.008.433c0,.026,0,.051,0,.077q.007.211.018.417c0,.01,0,.021,0,.031l0,.031c0,.008,0,.016,0,.024.008.131.017.261.027.389v.016c.011.128.023.254.037.38,0,.01,0,.021,0,.031l0,.023.005.046c.01.088.021.174.032.261.005.043.01.087.016.13l.009.062q.028.2.061.4t.071.388l.008.04,0,.02c.008.041.018.081.026.122.017.082.034.164.052.244l.009.039,0,.02c.015.062.031.124.046.186q.046.185.1.367c.017.061.033.122.05.182l.005.017.01.034c.023.077.048.152.072.228.012.038.023.077.036.114l.019.056c.039.115.078.23.12.342l0,.011q.062.167.128.331l.017.043q.066.161.136.319l.008.018.016.035q.072.159.148.315l.01.02q.075.153.154.3l.018.034c.053.1.108.2.165.3l.014.025.014.025c.028.049.058.1.087.144s.057.1.087.145l.008.013.008.013c.029.047.06.092.09.138s.06.093.09.139l.017.025q.094.139.193.273l.033.045.048.064c.05.067.1.134.152.2l.011.014.011.014q.1.129.208.255l.008.009.006.007c.036.043.073.084.11.126s.073.084.11.126l.018.02.018.02q.111.122.225.24l.029.03q.117.119.237.236l0,0,0,0c.078.075.158.149.239.222l.008.008.039.036.087.076c.054.047.108.095.163.141l.023.019.013.011q.132.11.267.216t.274.209l.042.031q.135.1.273.194l.043.029q.287.2.589.379l.043.026c.065.039.131.077.2.115l.1.058.024.013.024.014q.155.087.313.17l.006,0q.157.083.318.162l.015.007.029.014c.07.034.141.068.212.1l.106.051.055.025q.164.075.332.147l.02.008q.164.07.332.138l.043.017q.169.067.341.131l.044.016.017.006q.174.064.35.126l.016.006.016.005q.173.059.349.116l.04.013q.179.058.362.112l.066.02.046.013c.107.031.214.062.322.092l.045.012q.182.049.367.1l.023.006.011,0,.128.031.256.062.047.011.023.005q.191.044.385.085l.025.005.03.006q.192.041.388.078l.027.005.135.025.269.049.073.013.2.033.2.033.065.01.206.031.207.03H24.5l.213.028.213.028.076.009q.208.025.419.048l.037,0,.037,0q.438.046.887.082l.025,0,.051,0,.435.031.054,0,.027,0,.151.009.3.017h.016l.452.02.076,0,.451.014.087,0,.466.009h.034l.457,0h.122l.429,0h.106l.392-.006.125,0h.006l.48-.012.052,0,.445-.016.134-.006L32.2,88.3h.06l.251-.014.251-.014.065,0,.065,0,.412-.027.057,0,.057,0,.509-.038.1-.008.426-.036.068-.006.068-.006.522-.048h.009l.018,0,.334-.034.167-.017.141-.015.458-.05.079-.009.533-.062.13-.016.437-.055.126-.016.36-.048.18-.024.094-.013.462-.065.144-.021q.55-.079,1.108-.167l.073-.012.073-.011.157-.025.314-.051.064-.01.032-.005.281-.047.281-.047.058-.01.068-.012.171-.03.291-.051.136-.024.378-.068.189-.034.081-.015.166-.031.332-.062.1-.019.05-.009.552-.106.024,0,.582-.116.049-.01.1-.02.487-.1.071-.015.04-.008.585-.123.041-.009.081-.017.487-.1.142-.031.535-.118.059-.013.051-.011.547-.123.051-.012.1-.023.365-.084.183-.042.053-.012.2-.048.4-.095.143-.034.25-.06.25-.06.061-.015.061-.015.3-.074.3-.074.095-.024.018,0,.51-.128.149-.037.184-.047.369-.094.061-.016.014,0,.3-.078.3-.078.152-.04.275-.073.275-.073.069-.018.581-.156.038-.01.139-.038.514-.14.129-.035.622-.172.055-.015.04-.011.539-.151.149-.042q.627-.178,1.256-.36l.149-.043.239-.07.308-.09.091-.027.631-.187.057-.017.073-.022.208-.062.32-.1.119-.036.018-.005.084-.025.551-.167.073-.022.377-.116.189-.058.076-.023.076-.023q.637-.2,1.276-.4l.144-.045.367-.117.184-.058.033-.01.066-.021.642-.206.058-.019.058-.019.543-.176.137-.045.43-.14.215-.07.044-.014.359-.119.24-.079.059-.019.088-.029.307-.1.307-.1.026-.009.324-.109.324-.109.14-.047.55-.187.071-.024.035-.012.257-.088.391-.134.1-.034.558-.192.139-.048.433-.151.217-.076h0l.319-.112.319-.112.142-.05.192-.068L71,79l.3-.108.052-.018.522-.186.063-.022L72,78.64l.131-.047.273-.1.273-.1.119-.043.645-.233.083-.03.57-.207.135-.049,1.1-.4.192-.071.135-.05.584-.217.06-.022.649-.243.11-.041.555-.209.114-.043.645-.244.057-.022.291-.111.291-.111.068-.026L79.147,76l.917-.352.355-.137.128-.05.564-.219.077-.03.638-.249.1-.039.229-.09.319-.125.117-.046.371-.146.266-.1.014-.005.014-.005.289-.114.289-.114.012,0,.012,0,.123-.049.628-.251.628-.251.059-.023.059-.024.182-.073.365-.147.089-.036.624-.252.043-.018.043-.017.543-.221.119-.049,1.231-.5.122-.05.292-.121.292-.12.011,0,.011,0,.616-.255L90,71.665l.056-.023.219-.091.31-.129.089-.037.306-.128.306-.127.061-.026.273-.115.273-.115L92,70.829l1.2-.505.114-.048.135-.057.135-.057.287-.122.016-.007.016-.007.3-.127.3-.127.094-.04.516-.221.089-.038.591-.254.037-.016.317-.137.227-.1.1-.045,1.15-.5.1-.045.523-.228.016-.007.032-.014.572-.25.08-.035.5-.218.09-.04.564-.249.007,0,.007,0,.267-.118.267-.118.051-.023.051-.023.974-.432.118-.052.1-.042.483-.215.062-.028.543-.243.055-.025.478-.215.093-.042.374-.168.374-.169.15-.068.15-.068.088-.04,1.033-.469.079-.036.455-.207.03-.014.031-.014.509-.233.041-.019.453-.208L107.5,64l.05-.023.05-.023.874-.4.042-.019.042-.019.225-.1.225-.1.027-.012.239-.111.239-.111.069-.032.269-.125.144-.067.069-.032.19-.088.278-.13.012-.006.008,0,.217-.1.217-.1.039-.018.039-.018.892-.418.077-.036.393-.185.046-.021.289-.137.145-.068.051-.024.384-.182.021-.01.041-.02.837-.4.06-.029.407-.194.4-.191.021-.01.041-.02.234-.112.117-.056.046-.022.389-.187.032-.015.347-.167.06-.029.367-.177.361-.174.07-.034.17-.082.17-.082,0,0,0,0,.174-.085.174-.085.03-.014.03-.014L118.1,59l.15-.073.045-.022.222-.108.111-.054.033-.016.3-.146.023-.011.023-.011.319-.156.311-.152.033-.016.017-.008.142-.07.142-.07.008,0,.008,0,.293-.144.048-.023.245-.121.045-.022.275-.136.012-.006.012-.006.244-.12.049-.024.256-.127.248-.123.045-.023.091-.045.136-.068.011-.006.239-.119.025-.012.2-.1.03-.015.215-.107.206-.1.027-.014.014-.007.183-.092.009,0,.189-.1.025-.012.056-.028.112-.056.009,0,0,0,.085-.043.085-.043.009,0,.009,0,.145-.073.012-.006.012-.006.075-.038.145-.074.07-.036.021-.011.113-.057.021-.011.078-.04.039-.02.017-.008.049-.025.049-.025.016-.008.052-.026.143-.073.008,0,.079-.041.076-.039.08-.041.037-.019h0l.015-.008.023-.012h0l.008,0,.021-.011.022-.012" transform="translate(0 -0.003)" fill="#0d1a35"/>
  </g>
</svg>
