<svg id="PPS_24" xmlns="http://www.w3.org/2000/svg" xmlns:xlink="http://www.w3.org/1999/xlink" width="113.766" height="105.208" viewBox="0 0 113.766 105.208">
  <defs>
    <clipPath id="clip-path">
      <rect id="사각형_6150" data-name="사각형 6150" width="113.765" height="105.208" fill="none"/>
    </clipPath>
  </defs>
  <g id="그룹_11614" data-name="그룹 11614" clip-path="url(#clip-path)">
    <path id="패스_27593" data-name="패스 27593" d="M655.8,491.591a1.9,1.9,0,0,0,.063.356c.225.8.465,1.593.715,2.365l2.983-.169Z" transform="translate(-582.624 -436.741)" fill="#fff"/>
    <path id="패스_27594" data-name="패스 27594" d="M139.966,411.692h0a1.507,1.507,0,0,1-1.145,1.122,7.97,7.97,0,0,0-5.826,5.163,11.611,11.611,0,0,1-3.586,4.65,4.04,4.04,0,0,0-1.468,3.66l.005.04a4.058,4.058,0,0,0,1.239,2.422,22.164,22.164,0,0,1,3.8,4.3,3.6,3.6,0,0,0,4.036,1.98l.125-.03a6.093,6.093,0,0,0,1.776-.79,7.671,7.671,0,0,0,3.5-6.2l.586-15.9a1.543,1.543,0,0,0-3.043-.415m-5.259,15.06c-1.383.387-2.794-.049-3.177-1.435a2.931,2.931,0,0,1,1.909-3.447,2.4,2.4,0,0,1,2.968,1.87,2.346,2.346,0,0,1-1.7,3.012" transform="translate(-113.635 -364.703)" fill="#fff"/>
    <path id="패스_27595" data-name="패스 27595" d="M459.359,323.321c-4.085-3.766-18.774-18.308-18.448-32.426a16.59,16.59,0,0,0-5.508-.207c.243,8.54,1.608,19.776,7.313,35.833a4.264,4.264,0,0,0,1.911,1.859,11.107,11.107,0,0,0,9.218.98c1.347-.448,3.271-1.121,4.6-1.587a2.654,2.654,0,0,0,.918-4.453" transform="translate(-386.822 -258.133)" fill="#fff"/>
    <path id="패스_27596" data-name="패스 27596" d="M202.335,639.79a12.02,12.02,0,0,1-3.01,1.542,10.031,10.031,0,0,1-1.624.145.525.525,0,0,0-.283.956l.011.007a7.066,7.066,0,0,0,3.129.769,2.835,2.835,0,0,0,3.038-2.721.814.814,0,0,0-1.262-.7" transform="translate(-175.189 -568.285)" fill="#fff"/>
    <path id="패스_27597" data-name="패스 27597" d="M318.9,356.958c-2.6-6.279-6.495-21.041-5.58-36.566a48.459,48.459,0,0,0-4.328,2.6c-.727,7.781-.924,22.851,4.5,42.978a1.486,1.486,0,0,0,1.689,1.077,2.949,2.949,0,0,0,.454-.13,6.419,6.419,0,0,0,4.034-7.716,18.292,18.292,0,0,0-.77-2.243" transform="translate(-274.184 -284.644)" fill="#fff"/>
    <path id="패스_27598" data-name="패스 27598" d="M133.781,484.994c-.381.437-.748.889-1.093,1.354a5.978,5.978,0,0,0,1.093-1.354" transform="translate(-117.883 -430.88)" fill="#a8a4d0"/>
    <path id="패스_27599" data-name="패스 27599" d="M314.59,265.682c-.043.05-.092.108-.144.173a9.84,9.84,0,0,0-2.07,4.758c-.132.9-.274,2.037-.4,3.393a48.467,48.467,0,0,1,4.328-2.6q.14-2.377.437-4.769a1.23,1.23,0,0,0-2.15-.956" transform="translate(-277.166 -235.659)" fill="#a8a4d0"/>
    <path id="패스_27600" data-name="패스 27600" d="M641.2,327.458c.092-1.053.2-2.19.326-3.379q.574-5.395,1.367-9.7a1.835,1.835,0,0,0-2.686-1.938q-.482.263-.984.521a77.578,77.578,0,0,1-9.959,3.747,2.255,2.255,0,0,0-1.512,2.678A16.548,16.548,0,0,0,630,324.76a2.261,2.261,0,0,0,.671.641c1.038.644,4.042,2.513,6.524,4.058a2.627,2.627,0,0,0,4.005-2" transform="translate(-557.651 -277.373)" fill="#a8a4d0"/>
    <path id="패스_27601" data-name="패스 27601" d="M312.135.025c-37.613-.751-59.621,15.523-72.012,31.032a8.811,8.811,0,0,1,3.045,4.126,80.844,80.844,0,0,1,8.575-10.4,78.749,78.749,0,0,1,8.775-7.742,77.1,77.1,0,0,1,12.023-7.481,83.257,83.257,0,0,1,30.493-8.356,1.412,1.412,0,1,1,.24,2.813,80.765,80.765,0,0,0-28.458,7.571q-.471.227-.939.46-2.262,1.131-4.439,2.411a15.388,15.388,0,0,0-7.561,13.1c-.018,1.561-.016,3.218.035,4.993a16.59,16.59,0,0,1,5.508.207c.111-4.813,1.967-9.577,6.584-13.848,0,0,1.668-1.467,2.881-2.7a1.459,1.459,0,0,1,1.955-.109l.011.009a1.454,1.454,0,0,1,.229,2.023c-.755.966-1.427,1.88-2.025,2.745-4.325,6.252-4.751,9.908-4.219,11.951a5.7,5.7,0,0,0,3.775,3.774c1.954.777,5.5,2.282,8.929.976,7.354-2.8,11.146-5.405,13.611-7.824.5-.491.946-.974,1.355-1.45a1.625,1.625,0,0,1,2.046-.406,1.528,1.528,0,0,1,.365.29,1.6,1.6,0,0,1,.323,1.614c-3.256,9.7-3.992,26.91-4,27.083a1.412,1.412,0,0,1-2.157,1.141l-1.5-.934-6.305-3.929A1.82,1.82,0,0,0,286.5,54.85l3.761,2.552,7.36,4.994a2.845,2.845,0,0,0,4.13-1.046c4.021-7.863,8.017-33.49,8.948-39.744a.638.638,0,0,0-.969-.636c-4.244,2.639-23.172,11.811-29.558,6.535-6.453-5.331,9.307-19.349,31.84-24.247.637-.138.772-3.22.12-3.233" transform="translate(-213.331 0)" fill="#a8a4d0"/>
    <path id="패스_27602" data-name="패스 27602" d="M120.344,588.742l.013-.021-.014-.012Z" transform="translate(-106.916 -523.023)" fill="#6e9cd3"/>
    <path id="패스_27603" data-name="패스 27603" d="M40.768,403.516a10.249,10.249,0,1,0-9.63,18.073.8.8,0,0,0,.727-1.428h0l-.018-.01a1.381,1.381,0,0,1-.708-1.425l.555-3.6a1.385,1.385,0,0,1,1.627-1.146,5.156,5.156,0,0,0,1.954-.174c.125-.035.252-.075.382-.123a4.953,4.953,0,0,0,1.629-.992c.346-.466.712-.917,1.093-1.354a8.707,8.707,0,0,0,.783-1.734,12.2,12.2,0,0,1,2.029-3.746,1.58,1.58,0,0,0-.422-2.343" transform="translate(-22.479 -357.224)" fill="#6e9cd3"/>
    <path id="패스_27604" data-name="패스 27604" d="M150.732,289.887a5.945,5.945,0,0,0-.595-.5,5.893,5.893,0,0,0-7.44,9.119,5.931,5.931,0,0,0,1.065.777,5.86,5.86,0,0,0,2.912.772l.148,0a5.006,5.006,0,0,0,4.23-2.6c.344-.62.73-1.291,1.16-2.008.1-.165.2-.335.308-.508a5.884,5.884,0,0,0-1.789-5.054" transform="translate(-125.07 -256.099)" fill="#6e9cd3"/>
    <path id="패스_27605" data-name="패스 27605" d="M190.952,162.825a3.693,3.693,0,1,0-3.693-3.693,3.7,3.7,0,0,0,3.693,3.693" transform="translate(-166.365 -138.096)" fill="#6e9cd3"/>
    <path id="패스_27606" data-name="패스 27606" d="M160.021,580.628c-6.587,3.216-12.432,5.913-12.888,6.123l-.016.007q-3.521,1.573-6.869,2.982-21.952,9.246-36.518,11.546c0,.015.028.045.012.045-.573,0-.737.123-1.961.236a53.143,53.143,0,0,1-6.8.475c-6.066,0-10.845-1.155-13.873-3.974a17.105,17.105,0,0,1-4.286-7.183.821.821,0,0,0-.918-.564.806.806,0,0,0-.617.461,57.8,57.8,0,0,0-3.509,8.687,15.332,15.332,0,0,0-.063,7.637,13.855,13.855,0,0,0,3.157,6.211,11.97,11.97,0,0,0,5.331,3.247c4.835,1.5,11.578.962,20.042-1.589a142.014,142.014,0,0,0,25.917-11.323,274.1,274.1,0,0,0,25.744-16c2.973-2.077,5.862-4.181,8.591-6.25a.457.457,0,0,0-.477-.774" transform="translate(-63.317 -515.798)" fill="#ffef24"/>
    <path id="패스_27607" data-name="패스 27607" d="M161.588,511.623a2.931,2.931,0,0,0-1.909,3.447c.383,1.385,1.794,1.822,3.177,1.435a2.346,2.346,0,0,0,1.7-3.012,2.4,2.4,0,0,0-2.968-1.87" transform="translate(-141.784 -454.456)" fill="#1a1311"/>
    <path id="패스_27608" data-name="패스 27608" d="M113.544,63.782a1.473,1.473,0,0,0-2.028-.476C103.941,68,83.08,77.638,82.59,77.864q-2.426,1.084-4.771,2.09a.468.468,0,0,1-.428-.83l.083-.051A1.412,1.412,0,0,0,78,77.238,82.131,82.131,0,0,1,73.95,67.161c-.25-.772-.491-1.563-.715-2.365a1.908,1.908,0,0,1-.063-.356,1.82,1.82,0,0,1,2.777-1.677l6.305,3.929,1.5.934a1.412,1.412,0,0,0,2.157-1.14c.007-.173.743-17.378,4-27.083a1.6,1.6,0,0,0-.323-1.615,1.532,1.532,0,0,0-.365-.29,1.625,1.625,0,0,0-2.045.406c-.409.476-.855.959-1.355,1.45-2.465,2.418-6.257,5.022-13.61,7.824-3.429,1.306-6.975-.2-8.929-.976A5.7,5.7,0,0,1,59.5,42.427c-.532-2.043-.106-5.7,4.219-11.951.6-.864,1.27-1.778,2.025-2.745a1.454,1.454,0,0,0-.23-2.023l-.011-.009a1.459,1.459,0,0,0-1.955.109c-1.214,1.229-2.881,2.7-2.881,2.7-4.617,4.271-6.472,9.035-6.584,13.848-.326,14.118,14.363,28.66,18.448,32.426a2.654,2.654,0,0,1-.918,4.453c-1.324.466-3.248,1.139-4.6,1.587a11.107,11.107,0,0,1-9.218-.98,4.264,4.264,0,0,1-1.911-1.859c-5.705-16.057-7.071-27.293-7.313-35.833-.05-1.774-.052-3.432-.035-4.993a15.388,15.388,0,0,1,7.561-13.1q2.176-1.28,4.439-2.411.468-.234.939-.46a80.767,80.767,0,0,1,28.458-7.571A1.412,1.412,0,1,0,89.7,10.8a83.257,83.257,0,0,0-30.493,8.356,77.109,77.109,0,0,0-12.024,7.481,78.78,78.78,0,0,0-8.775,7.742,80.841,80.841,0,0,0-8.575,10.4,8.721,8.721,0,0,0-16.844,4.255,2.415,2.415,0,0,1-2,2.768A13.072,13.072,0,0,0,12,77.73C8.644,83.587,6.539,88.471,5.59,92.6a18.087,18.087,0,0,0-.052,9A16.753,16.753,0,0,0,9.4,109.113l.028.03a1.506,1.506,0,0,1-1.093,2.539H8.222a1.558,1.558,0,1,0,0,3.116h54.2a1.558,1.558,0,1,0,0-3.116l-11.009-.032c-2.9-.014-2.61-2.681-.094-4.118,4.572-2.613,8.907-5.319,12.928-7.5A277.076,277.076,0,0,0,90.277,83.86c7.681-5.366,22.145-17.649,22.791-18.049a1.473,1.473,0,0,0,.476-2.028m-41.2-6.806A16.543,16.543,0,0,1,70.1,51.6a2.255,2.255,0,0,1,1.511-2.678,77.579,77.579,0,0,0,9.959-3.747q.5-.259.984-.521a1.834,1.834,0,0,1,2.686,1.938q-.791,4.3-1.367,9.7c-.127,1.189-.235,2.326-.326,3.379a2.627,2.627,0,0,1-4.005,2c-2.482-1.545-5.486-3.415-6.524-4.058a2.266,2.266,0,0,1-.671-.641m-37.536-9.04c.127-1.356.269-2.492.4-3.393a9.84,9.84,0,0,1,2.07-4.758c.052-.065.1-.123.144-.173a1.23,1.23,0,0,1,2.15.956q-.3,2.388-.437,4.769c-.915,15.525,2.984,30.287,5.58,36.566a18.269,18.269,0,0,1,.77,2.243,6.419,6.419,0,0,1-4.033,7.716,2.96,2.96,0,0,1-.454.13,1.486,1.486,0,0,1-1.689-1.077c-5.426-20.128-5.229-35.2-4.5-42.979m-5.435,9.058-.586,15.9a7.671,7.671,0,0,1-3.5,6.2,6.094,6.094,0,0,1-1.776.79l-.125.03a3.6,3.6,0,0,1-4.036-1.98,22.157,22.157,0,0,0-3.8-4.3,4.058,4.058,0,0,1-1.239-2.422l-.005-.04a4.04,4.04,0,0,1,1.468-3.66,11.612,11.612,0,0,0,3.586-4.65A7.97,7.97,0,0,1,25.186,57.7a1.507,1.507,0,0,0,1.145-1.122,1.543,1.543,0,0,1,3.043.415m-.967,24.8a2.835,2.835,0,0,1-3.038,2.721,7.064,7.064,0,0,1-3.129-.769l-.011-.007a.525.525,0,0,1,.283-.956,10.028,10.028,0,0,0,1.624-.145,12.02,12.02,0,0,0,3.01-1.542.814.814,0,0,1,1.261.7m-12.7-34.376A5.9,5.9,0,1,1,27.45,48.433c-.106.173-.209.343-.308.508-.43.716-.816,1.388-1.16,2.008a5.005,5.005,0,0,1-4.23,2.6l-.148,0a5.86,5.86,0,0,1-2.912-.772,5.92,5.92,0,0,1-2.98-5.359m-4.873,18.93a1.386,1.386,0,0,0-1.627,1.146l-.555,3.6a1.382,1.382,0,0,0,.708,1.426l.019.01h0a.8.8,0,0,1-.727,1.428,10.249,10.249,0,1,1,9.63-18.073,1.58,1.58,0,0,1,.422,2.343,12.193,12.193,0,0,0-2.029,3.746A8.716,8.716,0,0,1,15.9,63.7,5.975,5.975,0,0,1,14.8,65.059a4.952,4.952,0,0,1-1.63.992c-.13.048-.257.088-.382.123a5.156,5.156,0,0,1-1.954.174m2.6,8.94-.013.021v-.033l.014.012m83.739-.094c-2.728,2.07-5.618,4.173-8.591,6.25a274.06,274.06,0,0,1-25.744,16,142.01,142.01,0,0,1-25.917,11.323c-8.464,2.552-15.208,3.086-20.042,1.589a11.971,11.971,0,0,1-5.331-3.247A13.857,13.857,0,0,1,8.4,100.9a15.332,15.332,0,0,1,.063-7.637,57.789,57.789,0,0,1,3.509-8.687.805.805,0,0,1,.617-.461.821.821,0,0,1,.918.564,17.105,17.105,0,0,0,4.286,7.183c3.028,2.819,7.807,3.974,13.873,3.974a53.156,53.156,0,0,0,6.8-.475c1.224-.113,1.388-.236,1.961-.236.016,0-.008-.03-.012-.045q14.536-2.293,36.518-11.546,3.35-1.411,6.869-2.982l.016-.007c.456-.21,6.3-2.907,12.888-6.123a.457.457,0,0,1,.477.774" transform="translate(0 -9.59)" fill="#1a1311"/>
    <path id="패스_27609" data-name="패스 27609" d="M168.472,143.167a6.516,6.516,0,1,0-6.517-6.516,6.524,6.524,0,0,0,6.517,6.516m0-10.21a3.693,3.693,0,1,1-3.693,3.693,3.7,3.7,0,0,1,3.693-3.693" transform="translate(-143.885 -115.614)" fill="#1a1311"/>
  </g>
</svg>
