<svg id="PPS_19" xmlns="http://www.w3.org/2000/svg" xmlns:xlink="http://www.w3.org/1999/xlink" width="60.421" height="111.739" viewBox="0 0 60.421 111.739">
  <defs>
    <clipPath id="clip-path">
      <rect id="사각형_6145" data-name="사각형 6145" width="60.421" height="111.739" fill="none"/>
    </clipPath>
  </defs>
  <g id="그룹_11604" data-name="그룹 11604" clip-path="url(#clip-path)">
    <path id="패스_27436" data-name="패스 27436" d="M50.975,520.377l-.005,0h.005" transform="translate(-45.283 -462.314)" fill="#654793"/>
    <path id="패스_27437" data-name="패스 27437" d="M25.405,253.745l-.005,0c.062.014.076-.051.005,0" transform="translate(-22.566 -225.418)" fill="#654793"/>
    <path id="패스_27438" data-name="패스 27438" d="M34.892,232.357h0c.013.052.013.051,0,0" transform="translate(-30.999 -206.432)" fill="#654793"/>
    <path id="패스_27439" data-name="패스 27439" d="M181.351,138.1a.423.423,0,0,1,.075.038l-.055-.036-.021,0" transform="translate(-161.116 -122.687)" fill="#654793"/>
    <path id="패스_27440" data-name="패스 27440" d="M174.485,134.015l.006,0a1.061,1.061,0,0,1,.142.1c.059.025.059-.005-.148-.1" transform="translate(-155.016 -119.062)" fill="#654793"/>
    <path id="패스_27441" data-name="패스 27441" d="M179.5,137.152l.121.063.005,0,.064.013c-.139-.086-.189-.094-.19-.078" transform="translate(-159.471 -121.843)" fill="#654793"/>
    <path id="패스_27442" data-name="패스 27442" d="M265.992,53.436a.825.825,0,0,1-.337-.234,5.263,5.263,0,0,0-1.088-.9V67.176a14.208,14.208,0,0,0,1.862-.121v-1.44a1.574,1.574,0,0,1,.368-.089,6.058,6.058,0,1,0-.8-12.089" transform="translate(-235.047 -46.466)" fill="#ee8673"/>
    <path id="패스_27443" data-name="패스 27443" d="M364.995,618.967a1.812,1.812,0,0,0,.989-1.253,5.043,5.043,0,0,0-.17-2.68c-.633-1.828-.108-4.363.869-7.149V581.693q-.793.3-1.689.536Z" transform="translate(-324.27 -516.79)" fill="#0096de"/>
    <path id="패스_27444" data-name="패스 27444" d="M333.353,626.652a16.14,16.14,0,0,1,1.689.026V590.215c-.542.1-1.1.191-1.689.267Z" transform="translate(-296.159 -524.361)" fill="#0096de"/>
    <path id="패스_27445" data-name="패스 27445" d="M301.712,630.7c.506-.093,1.078-.184,1.688-.257V594.324q-.82.066-1.688.1Z" transform="translate(-268.048 -528.012)" fill="#0096de"/>
    <path id="패스_27446" data-name="패스 27446" d="M270.071,595.584v2a2.406,2.406,0,0,1,1.319,2.7c-.1,1.216-.209,2.5-.308,3.65.088,3.75.156,8.9-.047,11.435a62.33,62.33,0,0,0,.372,9.634c.11,1.029.23,1.935.353,2.729V595.593c-.166,0-.33,0-.5,0-.39,0-.788-.005-1.19-.013" transform="translate(-239.937 -529.131)" fill="#0096de"/>
    <path id="패스_27447" data-name="패스 27447" d="M238.43,938h.072q-.036-.057-.072-.117Z" transform="translate(-211.827 -833.234)" fill="#0096de"/>
    <path id="패스_27448" data-name="패스 27448" d="M238.43,628.72a1.875,1.875,0,0,0,1.688-1.091v-1.69c-.074-.505-.142-1.013-.194-1.475a66.695,66.695,0,0,1-.418-10.549c.32-4-.085-15.408-.089-15.523a1.676,1.676,0,0,1,.015-1.723,1.285,1.285,0,0,1,.686-.4v-1.959c-.581-.026-1.146-.058-1.688-.095Z" transform="translate(-211.827 -527.913)" fill="#0096de"/>
    <path id="패스_27449" data-name="패스 27449" d="M206.788,591.726v34.363c.588.05,1.154.111,1.688.176V591.84c-.454-.041-.883-.084-1.283-.126a1.5,1.5,0,0,0-.406.012" transform="translate(-183.715 -525.685)" fill="#0096de"/>
    <path id="패스_27450" data-name="패스 27450" d="M175.147,546.772c.383-.558.79-1.212,1.221-1.982l.011-.056h0l.019,0q.215-.386.438-.812v-1.063a11.515,11.515,0,0,0-1.688.307Z" transform="translate(-155.605 -482.292)" fill="#0096de"/>
    <path id="패스_27451" data-name="패스 27451" d="M175.528,608.838a1.712,1.712,0,0,1-.38.252v26.472a4.7,4.7,0,0,0,.94.9c.668.426.022,1.055-.94,1.636v1.863q.4,0,.816,0,.438.006.873.023V607.486a13.162,13.162,0,0,1-1.308,1.352" transform="translate(-155.605 -539.705)" fill="#0096de"/>
    <path id="패스_27452" data-name="패스 27452" d="M143.506,579.439q.026.1.053.2c.339.6.948,1.652,1.635,2.731V558.334a1.624,1.624,0,0,1-.484-.553,1.556,1.556,0,0,1,.384-1.9l.1-.092v-5.262c-.521.177-1.084.384-1.688.624Z" transform="translate(-127.494 -489.103)" fill="#0096de"/>
    <path id="패스_27453" data-name="패스 27453" d="M145.821,890.8a.239.239,0,0,0,.151.441c.371-.014.766-.027,1.175-.038v-.952c-.738.327-1.318.544-1.318.544Z" transform="translate(-129.447 -790.923)" fill="#0096de"/>
    <path id="패스_27454" data-name="패스 27454" d="M112.766,564.11a3.238,3.238,0,0,1-.9.267v1.976a2.169,2.169,0,0,1,1.688.424v-2.946h-.178c-.2.09-.4.183-.61.279" transform="translate(-99.383 -500.921)" fill="#0096de"/>
    <path id="패스_27455" data-name="패스 27455" d="M111.865,809.181v8.31a16.72,16.72,0,0,1,1.567-1.118l.011-.007a1.334,1.334,0,0,0,.11-.08v-2.151a23.159,23.159,0,0,1-1.62-4.667c-.023-.094-.046-.191-.068-.287" transform="translate(-99.383 -718.895)" fill="#0096de"/>
    <path id="패스_27456" data-name="패스 27456" d="M396.636,587.42q.277-.642.557-1.284c.4-.928.8-1.833,1.132-2.651V563.831h-1.689Z" transform="translate(-352.381 -500.921)" fill="#0096de"/>
    <path id="패스_27457" data-name="패스 27457" d="M400.683,824.686a8.024,8.024,0,0,1,.278,4.262,4.75,4.75,0,0,1-.13.5,1.017,1.017,0,0,0,.485,1.19l.008,0c.172.1.337.2.5.3V818.789c-.2.529-.379,1.048-.54,1.551-.879,2.749-.753,3.9-.6,4.347" transform="translate(-355.879 -727.431)" fill="#0096de"/>
    <path id="패스_27458" data-name="패스 27458" d="M428.478,746.376l-.2.462v18.009l.031.063a5.033,5.033,0,0,1,1.489,2.46l.006.026a1.309,1.309,0,0,0,.163.4V742.834c-.405,1.051-.925,2.248-1.488,3.542" transform="translate(-380.491 -659.951)" fill="#0096de"/>
    <path id="패스_27459" data-name="패스 27459" d="M125.171,377.238a1.049,1.049,0,0,0-.263,1.425l.566.87a1.225,1.225,0,0,0,1.73.289c1.589-1.159,2.35-2.458,2.266-3.871-.106-1.784-1.592-3.092-2.755-3.849a3.359,3.359,0,0,0-.168-1.577c-.475-1.361-1.826-2.652-4.015-3.838-.468-.254-.925-.475-1.332-.661a1.591,1.591,0,0,0-2.13.795l-.112.278a1.42,1.42,0,0,0,.772,1.821c1.584.73,3.275,1.786,3.559,2.6.039.112.056.208-.088.414l-.571.82a.732.732,0,0,0,.335,1.1l.947.414c.848.371,2.1,1.28,2.136,1.862.013.223-.225.618-.878,1.109" transform="translate(-105.596 -325.057)" fill="#0d1a35"/>
    <path id="패스_27460" data-name="패스 27460" d="M233.234,103.451c0,.68.667,1.059,1.439,1.059a1.187,1.187,0,0,0,1.311-1.156,1.207,1.207,0,0,0-1.269-1.23,1.481,1.481,0,0,0-1.481,1.327" transform="translate(-207.21 -90.73)" fill="#0d1a35"/>
    <path id="패스_27461" data-name="패스 27461" d="M294.924,103.354a1.207,1.207,0,0,0-1.268-1.23,1.481,1.481,0,0,0-1.481,1.327c0,.68.667,1.059,1.439,1.059a1.187,1.187,0,0,0,1.311-1.156" transform="translate(-259.574 -90.73)" fill="#0d1a35"/>
    <path id="패스_27462" data-name="패스 27462" d="M85.234,0H58.46a15.618,15.618,0,0,0-6.045,1.2c-2.443,1.027-5.8,2.747-7.819,5.34-2.6,3.336-3.484,7.584-2.622,12.625l.006.035a4.442,4.442,0,0,1-2.23,4.561c-.475.279-.954.584-1.43.916a18.327,18.327,0,0,0-6.087,6.987,21.29,21.29,0,0,0-1.854,11.321,3.252,3.252,0,0,0-.676,2.518,2.608,2.608,0,0,0,1.4,1.746,12.39,12.39,0,0,1,.031,2.061,13.258,13.258,0,0,0,.1,2.888,2.915,2.915,0,0,0,1.986,2.446c-.019.1-.04.207-.057.295a3.315,3.315,0,0,0,.391,2.961,2.6,2.6,0,0,0,1.683.872,4.907,4.907,0,0,1,.027,1.556,2.825,2.825,0,0,0,1.327,2.651,3.25,3.25,0,0,0,1.755.509,3.312,3.312,0,0,0,.477-.035,3.242,3.242,0,0,0,.9-.267c.207-.1.41-.189.61-.279q1.078-.487,2.02-.86c.6-.241,1.167-.447,1.688-.624.685-.233,1.3-.413,1.842-.549a11.511,11.511,0,0,1,1.688-.307,5.288,5.288,0,0,1,.548-.025q-.186.384-.388.778-.08.157-.16.309-.223.425-.438.812l-.019,0h0L47.1,62.5c-.431.77-.838,1.424-1.221,1.982a12.9,12.9,0,0,1-1.842,2.208l-.1.092a1.556,1.556,0,0,0-.384,1.9,1.623,1.623,0,0,0,.484.553,1.811,1.811,0,0,0,1.842.155,1.714,1.714,0,0,0,.38-.253,13.162,13.162,0,0,0,1.308-1.352c.306-.361.611-.752.916-1.175a1.426,1.426,0,0,1,.926-.565,1.5,1.5,0,0,1,.406-.012c.4.043.829.085,1.283.126.577.052,1.194.1,1.842.145.543.036,1.107.069,1.688.095q.573.026,1.166.043c.228.007.452.011.676.015.4.008.8.013,1.19.013.168,0,.332,0,.5,0q.947-.008,1.842-.046.869-.037,1.689-.1c.636-.051,1.251-.114,1.842-.191s1.147-.166,1.688-.267q.968-.181,1.842-.415.894-.24,1.688-.536c.165-.062.328-.124.487-.19a1.558,1.558,0,0,0,.83-2.271,1.767,1.767,0,0,0-2.174-.679c-2.667,1.109-6.752,1.615-11.95,1.47-1.049-.029-2.06-.084-3-.151a1.331,1.331,0,0,1-1.188-1.871,12.041,12.041,0,0,1,1.478-2.391c1.425-1.734-.427-3.067-1.638-3.134a2,2,0,0,0-1.555.483l-.06-.018s-.943,1.219-1.67,1.2a14.259,14.259,0,0,0-4.471.749,42.367,42.367,0,0,0-5.121,1.98,4.676,4.676,0,0,0-.93-3.561,2.8,2.8,0,0,0-1.295-.794c.013-.067.026-.132.037-.19a3.428,3.428,0,0,0-.368-2.985,2.621,2.621,0,0,0-1.56-.9,12.83,12.83,0,0,1-.043-2.219,15.209,15.209,0,0,0-.036-2.42,3.045,3.045,0,0,0-1.251-2.292,1.85,1.85,0,0,1,.123-.144,1.478,1.478,0,0,0,.457-1.224l0-.031A18.688,18.688,0,0,1,35.312,33.08a15.064,15.064,0,0,1,4.951-5.75q.321-.227.645-.435a1.134,1.134,0,0,1,1.77.908,15.415,15.415,0,0,1-1.086,5.663,4.356,4.356,0,0,1-1.684,1.887,1.383,1.383,0,0,0-.637.866c-.214.934,1.15,3.12,3.033,1.627.292-.163,1.8-1.127,2.824-4.078a16.458,16.458,0,0,0,.666-2.655c.234-1.383,1.238-1.651,2.222-.6.672.72,1.392,1.492,2.148,2.3l.442.472h0l.422.45h0l.529.562c.976,1.036,2,2.11,3.047,3.195l.531.546h0c.7.719,1.411,1.44,2.126,2.153l.446.443c1.423,1.409,2.862,2.784,4.273,4.057A32.167,32.167,0,0,0,69.4,50.288a.7.7,0,0,0,.106.028,1.452,1.452,0,0,1,1.258,1.346c.01.444.067.744.2.759,2.921.333-.855-3.2,1-12.936.3-1.56-1-1.334-1.5-.867A19.08,19.08,0,0,0,70.089,43a1.6,1.6,0,0,1-2.476,1.193,79,79,0,0,1-7-4.946q-.252-.2-.506-.4-.864-.695-1.748-1.449h0q-.266-.227-.533-.459a77.86,77.86,0,0,1-7.944-7.973c-2.025-2.353-3.772-4.907-4.166-7.906q-.152-1.159-.362-2.384c-.71-4.152-.041-7.585,1.987-10.2a12.377,12.377,0,0,1,2.137-2.131q.23-.181.467-.352a5.334,5.334,0,0,1,5.911-.143,5.262,5.262,0,0,1,1.088.9.825.825,0,0,0,.337.234,6.292,6.292,0,0,1,6.482,6.068,6.232,6.232,0,0,1-5.677,6.021,1.576,1.576,0,0,0-.368.089v3.156A10.3,10.3,0,0,0,62.9,20.678a.244.244,0,0,1,.383.224,1.5,1.5,0,0,0,1.191,1.71c2.993.688,7.976,2.316,9.521,4.937a3.188,3.188,0,0,1,.341,2.543,1.04,1.04,0,0,0,1.106,1.335h.02A1.715,1.715,0,0,0,77.8,30.192a6.2,6.2,0,0,0-.8-4.2c-1.3-2.206-3.988-4.031-7.984-5.425-.736-.257-1.447-.474-2.1-.655a1.569,1.569,0,0,1-1-2.321,8.765,8.765,0,0,0,1.278-4.552A9.272,9.272,0,0,0,61.459,4.63a.73.73,0,0,1-.434-.522.777.777,0,0,1,.8-.9H80.206a3.032,3.032,0,0,1,3.127,2.927V50.569a.818.818,0,0,1-.719.8.843.843,0,0,1-.917-.537A6.23,6.23,0,0,0,81.34,50a7.072,7.072,0,0,0-1.159-1.615,14.571,14.571,0,0,1-.821-3.827A11.417,11.417,0,0,1,81.6,36.535a1.78,1.78,0,0,0,.413-1.651c-.285-.934-2.495-1.351-3.206-.209a14.605,14.605,0,0,0-2.852,10.237,16.768,16.768,0,0,0,1.164,4.96l.127.323.293.241a3.742,3.742,0,0,1,.759,1.044,2.448,2.448,0,0,1,.033,2.2,3.2,3.2,0,0,1-1.719,1.661,3.926,3.926,0,0,1-1.213.3l-.252,0a1.343,1.343,0,0,0-1.37,1.1l-.12.8a1.2,1.2,0,0,1-1.643.879,14.785,14.785,0,0,0-2.129-.644,1.391,1.391,0,0,0-1.709,1.108l-.079.6a1.314,1.314,0,0,0,1.058,1.431,11.335,11.335,0,0,1,4.424,2.1l.023.018a4,4,0,0,1,.526.488,3.747,3.747,0,0,1,.966,2.822c-.167,2.011-.47,5.1-.966,8.4-.261,1.738-.575,3.535-.951,5.264a17.547,17.547,0,0,1-.891,2.565c-.335.819-.728,1.724-1.132,2.651q-.279.641-.557,1.284c-.671,1.558-1.321,3.113-1.842,4.6-.978,2.786-1.5,5.321-.869,7.149a5.042,5.042,0,0,1,.17,2.68,1.812,1.812,0,0,1-.989,1.253,2.081,2.081,0,0,1-1.186.2q-.325-.04-.656-.063a16.112,16.112,0,0,0-1.688-.026c-.633.022-1.255.075-1.842.145-.61.073-1.182.164-1.689.257-.308.057-.593.114-.846.169a21.292,21.292,0,0,1-1-4.259c-.123-.795-.243-1.7-.353-2.729a62.335,62.335,0,0,1-.372-9.634c.2-2.537.135-7.685.047-11.435.1-1.152.208-2.434.308-3.65a2.406,2.406,0,0,0-1.319-2.7,2.858,2.858,0,0,0-1.842-.1,1.286,1.286,0,0,0-.686.4,1.676,1.676,0,0,0-.015,1.723c0,.115.409,11.526.089,15.523a66.675,66.675,0,0,0,.418,10.549c.052.462.12.969.194,1.475.038.261.078.522.117.775a1.639,1.639,0,0,1-.117.915,1.875,1.875,0,0,1-1.688,1.091,2.017,2.017,0,0,1-.343-.023c-.457-.069-.962-.139-1.5-.2s-1.1-.125-1.688-.176-1.216-.092-1.842-.116q-.435-.017-.873-.023-.411-.005-.816,0c-.635,0-1.254.009-1.842.024-.409.01-.8.023-1.176.038a.239.239,0,0,1-.151-.441l.008-.005s.581-.217,1.318-.544a17.164,17.164,0,0,0,1.842-.935c.961-.581,1.608-1.21.94-1.636a4.7,4.7,0,0,1-.94-.9,25.375,25.375,0,0,1-1.842-2.593c-.687-1.079-1.3-2.132-1.636-2.731l-.053-.2A55.132,55.132,0,0,1,40.864,79.95c-.094-1.469-.151-2.911-.183-4.269,0-.1,0-.2-.007-.321q-.012-.583-.019-1.142a45.185,45.185,0,0,1,.322-6.321,2.275,2.275,0,0,0-.469-2.038,2.169,2.169,0,0,0-1.689-.424,6.274,6.274,0,0,0-.832.123c-2.208.467-.749,4.68-.749,4.68-.047,2.489-.042,6.064.2,9.876A62.036,62.036,0,0,0,38.82,90.289c.023.1.045.193.069.287a23.144,23.144,0,0,0,1.62,4.667c.1.212.211.417.32.614a1.2,1.2,0,0,1-.32,1.537,1.362,1.362,0,0,1-.11.08l-.011.007A16.738,16.738,0,0,0,38.82,98.6a3.972,3.972,0,0,0-1.7,2.57,8.132,8.132,0,0,0-3,2.126,6.089,6.089,0,0,0-1.445,3.357,1.675,1.675,0,0,0,1.767,1.808h.2a1.416,1.416,0,0,0,1.445-1.258,3.836,3.836,0,0,1,.707-1.9c1.41-2.055,6.139-1.841,9.261-1.832,5.14.014,6.458.663,6.7.821a3.978,3.978,0,0,0,.187.357q.036.06.072.117a2.331,2.331,0,0,0,2.012,1.171l.1,0a2.416,2.416,0,0,0,1.528-.636,3.073,3.073,0,0,0,.66.672h0a1.81,1.81,0,0,0,1.56.275,20.11,20.11,0,0,1,6.555-.684,5.819,5.819,0,0,0,.714.044,6.16,6.16,0,0,0,1.273-.195,2.663,2.663,0,0,1,1.972.3c1.107.66,2.764,1.74,2.9,2.365a.6.6,0,0,1-.093.459H56.58a1.1,1.1,0,0,0-1.139,1.066v1.075a1.1,1.1,0,0,0,1.139,1.066H86.76V1.431A1.479,1.479,0,0,0,85.234,0m-1.9,105.6a3.032,3.032,0,0,1-3.127,2.927h-3.13a1.475,1.475,0,0,1-1.262-.686,1.3,1.3,0,0,1-.163-.4l-.006-.026a5.032,5.032,0,0,0-1.489-2.46,10.962,10.962,0,0,0-1.873-1.444c-.161-.1-.326-.2-.5-.3l-.008,0a1.017,1.017,0,0,1-.485-1.19,4.749,4.749,0,0,0,.13-.5,8.023,8.023,0,0,0-.278-4.262c-.153-.443-.28-1.6.6-4.347.161-.5.343-1.022.54-1.551.551-1.48,1.216-3.03,1.842-4.471l.2-.462c.563-1.294,1.083-2.49,1.488-3.542a16.026,16.026,0,0,0,.719-2.244,120.57,120.57,0,0,0,2.152-16.485l-.272-.952a11.283,11.283,0,0,0-1.376-1.562,1.225,1.225,0,0,1-.374-1.063l.175-1.177a1.282,1.282,0,0,1,.843-1.007,6.52,6.52,0,0,0,3.5-2.876.853.853,0,0,1,.743-.409h.571a.813.813,0,0,1,.838.785Z" transform="translate(-26.339 -0.003)" fill="#0d1a35"/>
    <path id="패스_27463" data-name="패스 27463" d="M428.277,569.26v11.219c.5-3.3.8-6.385.966-8.4a3.748,3.748,0,0,0-.966-2.823" transform="translate(-380.491 -505.744)" fill="#0096de"/>
    <path id="패스_27464" data-name="패스 27464" d="M284.5,289.779q.254.2.506.4a83.239,83.239,0,0,0,10.37-6.386.708.708,0,0,0,.256-.861.806.806,0,0,0-.816-.472.841.841,0,0,0-.325.1,59.33,59.33,0,0,1-12.273,5.309q.267.232.533.459l.077-.022-.076.022q.884.754,1.748,1.449m2.385-1.271q-.924.515-1.9,1.021.971-.5,1.9-1.021.462-.258.911-.516-.449.258-.911.516M295,283.337c-.458.33-.987.7-1.574,1.106.587-.4,1.117-.776,1.574-1.106h0Zm-2.476,1.716.371-.249-.371.249m2.355-2.013h0" transform="translate(-250.733 -250.944)" fill="#0096de"/>
    <path id="패스_27465" data-name="패스 27465" d="M202.07,301.9l-.446-.443c-1.016.45-2.051.871-3.094,1.248l-.03.01.03-.01c1.043-.378,2.078-.8,3.094-1.248-.716-.714-1.426-1.434-2.126-2.153h0l-.531-.546a3.256,3.256,0,0,1-2.581-.711,2.953,2.953,0,0,1-.466-2.483L195.39,295c-.006.028-.012.056-.018.084l.017-.085-.422-.45-.013.025.013-.025-.442-.472a26.874,26.874,0,0,0-1.933,4.465c-.63,2.056-.6,3.509.083,4.442A3.142,3.142,0,0,0,195.708,304a12.67,12.67,0,0,0,3.045-.757c1.12-.405,2.23-.86,3.317-1.346m-6.423,1.526-.1.007.154-.014-.056.006" transform="translate(-170.701 -261.265)" fill="#0096de"/>
    <path id="패스_27466" data-name="패스 27466" d="M377.067,46.765a1.466,1.466,0,0,0-1.432-1.407L363.907,45.1a.446.446,0,0,0-.464.612c.955,1.971,3.735,8.093,3.158,11.436-.522,3.024,6.019,4.649,9.3,5.269a1.466,1.466,0,0,0,1.736-1.5Z" transform="translate(-322.855 -40.065)" fill="#0096de"/>
    <path id="패스_27467" data-name="패스 27467" d="M8.517,504.9a5.81,5.81,0,0,0-1.47-4.409,7.378,7.378,0,0,1-1.36-3.24c-1.687-3.076-3.7-3.455-5.008-2.312s-.327,43.106-.327,46.7,4.245,3.429,4.9,1.633,6.531-7.837,5.715-10.94-2.612-25.8-2.449-27.431" transform="translate(0 -439.189)" fill="#0096de"/>
  </g>
</svg>
