<svg id="HDS_15" xmlns="http://www.w3.org/2000/svg" width="126.884" height="54.107" viewBox="0 0 126.884 54.107">
  <path id="패스_19715" data-name="패스 19715" d="M635.758,163.871h0c-.155-.066-.315-.124-.47-.188-.388-.159-.775-.324-1.161-.486a4.323,4.323,0,0,0-2.906-.5,3.635,3.635,0,0,0-2.045,1.727,2.8,2.8,0,0,0-.542-.641,2.058,2.058,0,0,0-1.812-.2c-.453.12-1.443.5-1.47,1.08-.041.81-.085,1.624-.192,2.43a5.529,5.529,0,0,0-2.1-1.235,5.428,5.428,0,0,0-2.89.072c-.845.251-1.861.81-2,1.771-.493-.126-.991-.229-1.482-.359l-.041-.014c-.15-.056-.3-.1-.458-.15a3.758,3.758,0,0,0-.637-.091,3.9,3.9,0,0,0-1.769.328c-1.721.748-1.973,2.985-1.571,4.624a5.587,5.587,0,0,0,.233.7,15.875,15.875,0,0,1-2.371-2.061c-.41-.445-1.3-.338-1.812-.2-.451.12-1.445.5-1.47,1.08a6.165,6.165,0,0,0,.823,3.263,9.969,9.969,0,0,1-1.987-1.639c-.462-.509-1.488-.317-2.035-.124-.4.144-1.488.637-1.247,1.253.109.278.218.555.328.833-1.072-.126-2.663.453-2.527,1.428.068.5.15.991.225,1.486a26.1,26.1,0,0,0-2.084-2.676c-.46-.511-1.492-.317-2.036-.124-.476.169-1.4.6-1.247,1.253a11.262,11.262,0,0,1,.247,2.47,8.079,8.079,0,0,0-1.779-1.328,2.589,2.589,0,0,0-2.032.115,2.191,2.191,0,0,0-.985.761l-.029-.033a2.125,2.125,0,0,0-2.035-.122c-.509.181-1.356.581-1.247,1.251q.277,1.725.553,3.445a33.071,33.071,0,0,0-2.769-2.923,2.02,2.02,0,0,0-1.812-.2c-.439.117-1.46.5-1.472,1.08-.008.447-.01.9-.008,1.342l0,0c-.81-.433-3.208.076-3.055,1.292.064.513.117,1.027.163,1.542a3.313,3.313,0,0,0-2.789.381,7.568,7.568,0,0,0-1.717-1.459c-.792-.489-3.208.113-3.055,1.29.086.656.154,1.325.22,1.995a20.961,20.961,0,0,0-2.078-1.993c-.825-.682-3.36-.188-3.282,1.126.076,1.255.153,2.513.248,3.772a22.486,22.486,0,0,0-1.909-2.111c-.771-.738-3.411-.142-3.282,1.128.1,1.01.186,2.026.27,3.041a25.18,25.18,0,0,0-1.761-2.694c-.406-.534-1.538-.3-2.035-.124-.561.2-1.286.563-1.247,1.253.05.921.12,1.851.2,2.779-.423-.705-.855-1.4-1.311-2.09-.583-.876-3.556-.021-3.282,1.128.456,1.919.8,3.867,1.127,5.821a31.784,31.784,0,0,0-3.236-5.382c-.41-.532-1.534-.3-2.035-.124-.534.19-1.323.571-1.247,1.253.169,1.527.328,3.065.5,4.6-.427-1.36-.847-2.723-1.3-4.077-.237-.705-1.4-.559-1.938-.416-.606.163-1.527.575-1.468,1.328.14,1.841.3,3.68.464,5.518q-.545-2.82-.884-5.677c-.066-.559-1.117-.55-1.474-.507a2.74,2.74,0,0,0-1.816.917c-1.993,2.455-2.414,5.879-2.764,8.913-.192,1.657-.336,3.323-.593,4.974-.029.19-.066.379-.1.569-.023-.157-.058-.311-.08-.468a36.619,36.619,0,0,1-.328-4.374,26.352,26.352,0,0,1,1.037-8.229c.21-.668-.876-.783-1.262-.763a2.581,2.581,0,0,0-2.03.926,91.767,91.767,0,0,0-6.178,12.782c-.332.907-.666,1.818-1.072,2.7-.07.151-.157.291-.233.441-.006-.037-.014-.074-.019-.107a7.85,7.85,0,0,1-.035-2.257,26.8,26.8,0,0,1,.954-4.461c1.086-3.836,3.1-7.425,4.97-10.925.323-.606-.163-.938-.74-1.008a2.922,2.922,0,0,0-2.218.668c-.07.066-.134.138-.2.206.336-.89-1.4-.87-1.921-.723a12.888,12.888,0,0,0-4.042,2.335,43.128,43.128,0,0,0-3.346,2.985c-.629.583-1.276,1.152-1.962,1.67-.177.132-.383.276-.592.42.175-.317.35-.631.55-.932a17.053,17.053,0,0,1,1.626-2.068,55.169,55.169,0,0,1,4.6-4.308c.276-.241.5-.643.21-.965-.317-.361-.93-.32-1.352-.291a19.645,19.645,0,0,0-4.883,1.105c-.752.254-1.5.534-2.224.857.1-.06.188-.126.286-.185a22.877,22.877,0,0,1,3.587-1.828,14.7,14.7,0,0,0,3.762-1.847c.408-.326.9-.851.7-1.422-.188-.519-.9-.515-1.363-.6-.074-.012-.149-.029-.223-.045.82-.254,1.938-.82,1.321-1.6a4.52,4.52,0,0,0-1.175-.874,13.441,13.441,0,0,0-2.333-1.138c.717-.241,1.433-.489,2.144-.752.961-.355,1.915-.732,2.866-1.117a9.94,9.94,0,0,0,3.094-1.6c.674-.622.8-1.441-.021-1.983a2.379,2.379,0,0,0-.437-.223,2.227,2.227,0,0,0,1.466-.853c.425-.67-.363-1.031-.93-1.029a13.612,13.612,0,0,0-5.6,1.521,25.954,25.954,0,0,0-5.077,3.055.677.677,0,0,0-.212.965,1.6,1.6,0,0,0,1.354.291,21.5,21.5,0,0,0,3.3-.911c-.186.074-.373.153-.561.223-1,.379-1.7.633-2.62.926q-1.424.454-2.88.81a2.063,2.063,0,0,0-1.412.954c-.169.441.144.792.606.858a11.29,11.29,0,0,1,2.484.658,11.746,11.746,0,0,0-4.568.754c-.392.171-1.057.548-1.025,1.053s.625.637,1.047.651a40,40,0,0,1,6.607,1.14c-.486.208-.971.416-1.463.612a32.55,32.55,0,0,0-4.277,2.138,14.929,14.929,0,0,0-2.1,1.435,2.8,2.8,0,0,0-1.064,1.439c-.194,1.045,1.09,1.268,1.857,1.272a8.8,8.8,0,0,0,3.832-1.142,17.976,17.976,0,0,1,2.286-.909c-.81.74-1.6,1.5-2.342,2.311a21.255,21.255,0,0,0-2.063,2.566,12.468,12.468,0,0,0-.68,1.138c-.233.447-.641,1.041-.532,1.567.317,1.53,2.657,1.15,3.649.717a13.11,13.11,0,0,0,2.144-1.233,18.286,18.286,0,0,0-2.371,3.488,6.8,6.8,0,0,0-.86,2.857c-.021.921.73,1.373,1.583,1.416a3.983,3.983,0,0,0,3.024-1.245,56.18,56.18,0,0,0,3.972-4.9c-.223.616-.435,1.237-.616,1.865a27.056,27.056,0,0,0-.994,4.6c-.155,1.474-.19,3.24.756,4.483a2.779,2.779,0,0,0,3.321.509,4.664,4.664,0,0,0,2.034-1.966,24.666,24.666,0,0,0,2.066-4.632c.486-1.328,1.031-2.61,1.616-3.879a37.955,37.955,0,0,0,.258,4.3,16.027,16.027,0,0,0,.742,3.882c.763,1.919,3.583,1.086,4.683-.058a6.713,6.713,0,0,0,1.416-3.42c.5-2.432.633-4.921.956-7.378.029-.217.06-.437.089-.656.243,1.2.507,2.4.826,3.591a30.8,30.8,0,0,0,3.828,9.1c.361.548,1.575.287,2.035.124.552-.2,1.3-.567,1.247-1.253q-.216-2.82-.474-5.634a18.1,18.1,0,0,0,2.709,4.067c.462.509,1.488.319,2.035.124.441-.157,1.441-.614,1.247-1.253a61.592,61.592,0,0,1-1.985-9.435,44.463,44.463,0,0,0,4.721,8.5c.41.53,1.532.3,2.035.124.431-.153,1.453-.62,1.247-1.253a56.005,56.005,0,0,1-1.833-7.844c.618,1.064,1.255,2.117,1.936,3.142.363.548,1.571.287,2.035.122.392-.138,1.5-.643,1.247-1.251a27.836,27.836,0,0,1-1.156-3.372c.637,1.567,1.26,3.137,1.95,4.659.311.686,1.34.577,1.936.416.489-.13,1.666-.614,1.47-1.327a53.455,53.455,0,0,1-1.542-9.575,39.12,39.12,0,0,1,3.591,8.1c.262.7,1.375.565,1.936.416.46-.124,1.7-.629,1.468-1.328a41.173,41.173,0,0,1-2.216-10.925,22.811,22.811,0,0,1,2.61,4.644,17.728,17.728,0,0,0,1.167,3.523c.317.682,1.334.577,1.936.414.507-.134,1.647-.606,1.47-1.327a24.889,24.889,0,0,0-1.179-3.572c-.072-.319-.138-.639-.2-.963l0,.014a12.38,12.38,0,0,0,1.278,3.461c.371.66,1.292.589,1.936.416.381-.1,1.785-.674,1.468-1.326a23.522,23.522,0,0,1-1.28-3.5c-.122-.552-.227-1.109-.3-1.68-.01-.084-.023-.167-.035-.251.67,1.208,1.321,2.426,2.035,3.607.146.241.7.3.922.313a3.258,3.258,0,0,0,1.336-.264c.561-.241,1.282-.732.9-1.393a11.486,11.486,0,0,1-1.293-3.952,19.564,19.564,0,0,0,1.272,2.95c.355.666,1.3.585,1.936.416.394-.1,1.773-.668,1.468-1.328-.561-1.22-.991-2.5-1.525-3.735-.115-.4-.216-.814-.3-1.227-.031-.151-.047-.3-.074-.456a32.229,32.229,0,0,1,3.671,5.9c.538,1.126,3.61.371,3.4-.913l-.356-2.212c.876.524,3.38-.274,3.075-1.311a13.717,13.717,0,0,1-.454-2.74c.233.47.46.938.686,1.4.336.676,1.321.581,1.936.416.517-.138,1.637-.6,1.47-1.328a12.4,12.4,0,0,1-.241-3.158c1.169,1.919,2.237,3.906,3.411,5.815.34.554,1.593.282,2.036.124.518-.185,1.342-.577,1.247-1.253-.216-1.544-.474-3.08-.738-4.617.4.449.814.893,1.241,1.321.5.493,1.46.328,2.035.124.4-.144,1.49-.637,1.247-1.253q-.763-1.943-1.529-3.89a19.469,19.469,0,0,1,3.179,1.9,2.178,2.178,0,0,0,2.037.124c.377-.134,1.521-.656,1.247-1.253a16.006,16.006,0,0,0-1.387-2.333c.577.363,1.154.73,1.717,1.115a2.372,2.372,0,0,0,1.808-.037c.361-.13,1.247-.5,1.247-1a4.686,4.686,0,0,0-.218-1.828c-.276-.664-.676-1.278-.977-1.932a6.15,6.15,0,0,1-.672-2.414,3.935,3.935,0,0,1,.076-.734c.087.018.177.037.264.056a6.06,6.06,0,0,1,.649.188c.268.1.214.089.421.4.247.379.484.763.732,1.14.5.754,1.021,1.49,1.583,2.2.633.794,3.152.138,3.284-.88.2-1.556-.419-2.888-.765-4.337.049.039.1.078.148.118.2.163.387.336.575.509.3.278.6.565.93.816a3.224,3.224,0,0,0,4.131-.179,2.564,2.564,0,0,0,.581-.829,2.508,2.508,0,0,0,1.907.293,2.424,2.424,0,0,0,1.927-1.4,4.635,4.635,0,0,0,.192-1.274c.021-.353.031-.713.07-1.068a4.456,4.456,0,0,0,2.416.6c.641-.115,1.773-.4,1.931-1.171.1-.466-.33-.676-.773-.748M521.019,187.825c.029-.006.025,0,0,0M521.3,203.1q-.941,1.238-1.886,2.474A25.271,25.271,0,0,1,521.3,203.1m-4.96,6.252c-.1.072-.132.058,0,0m1.666-.219c.142.035.031.078,0,0m17.771,4.123c.2.029.047.113,0,0m42.647-26.944c.006-.012.006-.01,0,0M614.1,169.047c.016.01.041.014.057.021-.47.051-.175-.091-.057-.021m6.507-1.381a.8.8,0,0,0-.109.037c-.014,0,.008-.006.109-.037m15.172-3.785,0,0h0c.085.029.155.068,0,0" transform="translate(-509.661 -162.596)" fill="#1a1311"/>
</svg>
