<svg id="HDS_7" xmlns="http://www.w3.org/2000/svg" width="134.19" height="73.382" viewBox="0 0 134.19 73.382">
  <path id="패스_19711" data-name="패스 19711" d="M134.1,158.655c-1.377-.907-3.006-.88-4.521-1.4a12.22,12.22,0,0,1-1.855-.989,4.209,4.209,0,0,0-2.2-.443,2.671,2.671,0,0,0-.4.052,2.182,2.182,0,0,0-.513.051c-9.653,2.129-18.637,6.563-27.507,10.793-8.579,4.09-16.938,8.631-25.7,12.327-3.48,1.468-7.161,2.311-10.731,3.527-2.187.744-4.317,1.666-6.469,2.5-2.371.923-4.77,1.787-7.126,2.752-4.055,1.664-7.977,3.754-12.269,4.762a24.45,24.45,0,0,1-6.118.594,23.9,23.9,0,0,1-5.879-.757c-3.847-1.07-6.095-4.393-6.967-8.134a23.651,23.651,0,0,1,.577-12.438,14.81,14.81,0,0,1,1.251-2.826c.3-.526-.577-.573-1.159-.352a1.283,1.283,0,0,0-.792.359c-3.929,5.92-8.9,11.084-12.216,17.418A29.743,29.743,0,0,0,.085,198.272a36.182,36.182,0,0,0,.858,10.849,17.3,17.3,0,0,0,1.962,4.892,24.449,24.449,0,0,0,2.946,3.661,43.675,43.675,0,0,0,7.792,6.889,26.136,26.136,0,0,0,12.319,4.589A26.942,26.942,0,0,0,35.027,228a57.4,57.4,0,0,0,16.992-8.41c3.455-2.391,6.7-5.073,10.01-7.662q4.673-3.659,9.357-7.3,9.585-7.455,19.216-14.852c6.691-5.141,13.277-10.505,20.337-15.135,1.571-1.031,3.195-1.985,4.725-3.076s2.995-2.253,4.475-3.4c1.426-1.113,2.853-2.234,4.36-3.24s3.061-1.952,4.554-2.993a25.664,25.664,0,0,1,4.584-2.628c.12-.052.787-.423.466-.635m-2.185.33c.064.027.126.054.19.085-.251.12-.5.243-.744.371.2-.165.385-.32.554-.456m-129,32.8c2.15-7.165,7.07-12.968,11.523-18.818a25.445,25.445,0,0,0-.773,8.52c.262,3.84,1.517,7.949,4.758,10.313a12.191,12.191,0,0,0,5.341,2,31.328,31.328,0,0,0,5.922.367c4.613-.136,8.886-1.618,13.073-3.445,2.14-.934,4.265-1.907,6.446-2.744,2.469-.944,4.937-1.884,7.4-2.849,1.938-.759,3.853-1.558,5.842-2.175,1.915-.6,3.846-1.134,5.759-1.744a98.878,98.878,0,0,0,12.6-5.386c4.271-2.051,8.483-4.218,12.731-6.316q6.779-3.347,13.679-6.462a107.771,107.771,0,0,1,12.5-4.881c-1.661,1.159-9.6,6.724-10.521,7.646-1.031,1.031-10.83,5.931-16.887,10.443s-7.349,4.253-11.733,7.349-9.41,6.316-16.629,10.958-21.918,12.89-26.816,15.856-9.8,6.7-13.279,7.606-5.8,1.934-9.8.387c-2.494-.965-8.827-3.012-11.638-10.672a34.226,34.226,0,0,1-.579-4.453,31.841,31.841,0,0,1,1.076-11.5" transform="translate(0 -155.818)" fill="#1a1311"/>
</svg>
