<svg id="HDS_4" xmlns="http://www.w3.org/2000/svg" width="132.159" height="61.99" viewBox="0 0 132.159 61.99">
  <path id="패스_19708" data-name="패스 19708" d="M56.748,86.2a19.917,19.917,0,0,1-1.866,1.948c-6.225,5.011-12.576,9.876-18.643,15.069a6.725,6.725,0,0,0-2.216,5.114c.167,1.163,2.61,2.556,4.215,2.836a26.18,26.18,0,0,0,8.186.049c27.567-4.071,52.1-16.491,76.967-27.964,2.387-1.1,4.747-2.27,7.165-3.3a21,21,0,0,1,7.4-1.884.871.871,0,0,1-.219.849,6.765,6.765,0,0,1-1.593,1.249c-26.67,15.069-51.367,33.606-79.764,45.606-12.049,5.092-24.532,9.171-36.832,13.675a9.8,9.8,0,0,1-2.991.6c-4.42.15-8.707-1.321-10.241-5.3a11.026,11.026,0,0,1,1.313-9.22c5.749-7.295,11.7-14.671,18.744-20.651,7.946-6.745,17.144-12.032,25.831-17.9a29.487,29.487,0,0,1,3.725-1.837l.823,1.057" transform="translate(-5.824 -78.067)" fill="#1a1311"/>
</svg>
