<svg id="HDS_16" xmlns="http://www.w3.org/2000/svg" width="112.345" height="55.863" viewBox="0 0 112.345 55.863">
  <path id="패스_19703" data-name="패스 19703" d="M656.731,3.33c-.157.608-1.292,2.214-1.913,4.032a57.6,57.6,0,0,0-1.292,5.739c-4.24,15.716,10.517,19.77,23.213,16.441,10.6-2.781,16.5-5.863,26.676-9.979,8.349-3.376,16.559-8.388,24.763-12.148,5.628-2.579,10.571-4.531,16.39-6.669,3.049-2.222,2.956,1.21,3.929,1.5-.3.938-2,2.259-2.638,2.793-5.994,5-12.1,10.534-18.354,15.2C719.775,26,713.725,30.719,705.432,35.59c-3.657,2.148-7.625,4.143-11.012,6.153-6.856,4.071-12.985,7.9-20.937,11.063-8.614,3.426-22,5.157-30.737-1.3-4.11-3.1-7.78-8.268-6.229-19.28a45.47,45.47,0,0,1,4.6-12.976c1.9-3.572,4.727-7.2,6.875-11.168,1.159-2.14,5.4-5.158,7.342-6.875,1.086.1.9,1.8,1.4,2.119" transform="translate(-636.153 -0.001)" fill="#1a1311"/>
</svg>
