<svg id="HDS_5" xmlns="http://www.w3.org/2000/svg" width="108.387" height="55.958" viewBox="0 0 108.387 55.958">
  <path id="패스_19720" data-name="패스 19720" d="M162.733,136.155c-17.94.2-27.455-16.149-23.056-30.527.779-2.546,3.152-4.688,5.065-6.769a3.245,3.245,0,0,1,3.08-.559c.948.618,2.123,2.352,1.847,3.127-1.7,4.762-.054,8.346,3.624,11.129,4.271,3.236,9.181,2.589,13.823,1.121a190.763,190.763,0,0,0,20.539-7.341c16.052-7.184,31.92-14.782,47.815-22.312,1.934-.917,3.424-2.954,5.4-3.535,1.721-.507,4.747-.39,5.58.688,1.583,2.045-.579,3.28-2.428,4.51q-9.369,6.232-18.431,12.919c-9.831,7.233-19.416,14.807-29.37,21.871-7.555,5.362-14.78,11.463-24.128,13.737-3.094.754-6.236,1.3-9.359,1.942m-18.927-29.8c-3.061,16.423,8.487,28.529,23.1,24.994a54.094,54.094,0,0,0,17.153-7.279c9.552-6.4,18.387-13.858,27.546-20.846,2.127-1.624,4.341-3.129,6.518-4.688a112.8,112.8,0,0,0-11.9,4.4c-13.4,5.691-26.513,12.117-40.831,15.429-9.359,2.166-16.606-.911-20.109-8.732-.342-.763-.686-1.527-1.472-3.276" transform="translate(-138.611 -80.199)" fill="#1a1311"/>
</svg>
