<svg id="HDS_13" xmlns="http://www.w3.org/2000/svg" width="130.178" height="57.382" viewBox="0 0 130.178 57.382">
  <path id="패스_19704" data-name="패스 19704" d="M633.677,8.544c-.155-.6.027-1.6-.742-1.911-.742-.3-2.183.342-3.863.375-1.606.033-3.447-.55-4.523-.484-3.546.212-4,1.088-6.893,2.111-8.3,2.94-15.862,5.689-24.039,8.932-9.122,3.618-18.859,7.8-28.092,11.168-8.313,3.034-16.627,6.186-25.909,6.337-7.848.128-7.419-4.2-7.011-9.188.21-2.581,2.639-5.85,4.013-8.142,2.251-3.758,4.24-6.922,6.747-10.762a6.577,6.577,0,0,0-3.024-4.362c-3.236-1.391-4.5,1.824-6.458,3.432-2.389,1.964-10.789,9.934-13.784,12.564-8.1,7.112-13.112,12.846-15.53,21.23-2.566,8.891,1.748,18.624,10.47,19.6a44.535,44.535,0,0,0,12.445-.524,94.577,94.577,0,0,0,15.3-4.77c10.249-3.921,18.189-6.466,25.709-9.655,7.149-3.032,13.879-6.691,23.382-10.993,13.8-6.248,22.625-12.428,36.061-19.484,1.373-.721,4.488-2.167,5.823-3.861.536-.678.091-.954-.08-1.614M605.739,19.822q-.822.408-1.626.822c-10.051,5.149-18.175,10.668-28.7,15.186-14.485,6.217-26.823,11.362-41.646,16.751-3.743,1.361-12.871,2.884-16.8,1.845-4.78-1.264-8.909-3.475-7.687-11.5.769-5.056,3.486-9.639,6.7-13.566,4-4.887,11.762-10.837,16.445-15.225-1.222,2.327-2.216,4.718-3.257,7.095a23.984,23.984,0,0,0-1.571,8.551c-.171,2.531,1.408,4.854,3.187,6.776,1.95,2.105,4.234,3.694,7.05,3.692,3.789,0,7.78.084,11.284-1.105,20-5.605,34.047-12.2,51.416-18.379,1.528-.544,8.347-3.735,9.888-4.246.144.328-2.094,1.744-4.688,3.3" transform="translate(-503.836 -2.278)" fill="#1a1311"/>
</svg>
