<svg id="HDS_2" xmlns="http://www.w3.org/2000/svg" width="117.236" height="76.15" viewBox="0 0 117.236 76.15">
  <path id="패스_19705" data-name="패스 19705" d="M252.862,2.628c-4.1-.1-8.419-1.4-12.214,1.845-7.549,6.464-15.295,12.7-23,18.985-2.568,2.092-5.8,5.19-9.7,8.3-2.461,1.962-5.529,3.892-7.8,5.71-2.878,2.311-6.333,5.193-6.967,5.675-7.749,5.879-15.337,12.141-25.363,14.149a16.227,16.227,0,0,1-2.981.353,6.083,6.083,0,0,1-3.69-.963c-1.033-.726-.736-.037-2.482-2.272-.635-.814-1.375-7.138-1.16-9.956.258-3.341-.722-2.873-.641-7.128.06-3.034.577-4.248-.361-5.454-.655-.841-1.579-1.113-3.341-1.633a12.1,12.1,0,0,0-4.8-.565c-2.364.227-5.147,1.268-5.131,2.276.01.709,1.4,1.049,1.311,1.736-.058.466-.757.771-1.387.959-5.2.4-5.675,2.2-2.047,5.407,1.377,1.216,1.278,3.96,1.762,5.712.662,2.4,1.88,5.118,2.521,7.526.705,2.639.829,4.972,1.505,7.621q.664,2.6,1.313,5.205c2.556,10.284,17.01,17.5,26.645,7.588a92.008,92.008,0,0,1,6.648-6.638c4.982-4.174,9.793-8.709,15.3-12.08,10.018-6.13,18.828-12.947,27.892-20.259,6.483-5.23,13.463-10.649,19.43-16.547,2.2-2.177,3.465-4.22,5.768-6.3,1.027-.924,3.117-1.861,4.117-2.81.853-.806,2.2-2.247,1.952-2.822-.616-1.447-1.983-3.6-3.1-3.628M164.762,68.5a2.475,2.475,0,0,1-2.624,1.119c-.7-.153-.386-.115-1-.965s-.771-1.542-1.311-2.391-.194-1.2.153-1.661,1.931.773,3.706,1.274,3.414-.645,3.511-.5c.81,1.2-1.544,1.929-2.432,3.125" transform="translate(-138.753 -2.286)" fill="#1a1311"/>
</svg>
