<svg id="HDS_1" xmlns="http://www.w3.org/2000/svg" width="136.655" height="77.531" viewBox="0 0 136.655 77.531">
  <path id="패스_19702" data-name="패스 19702" d="M57.806,47.4c1.6-.579,3.109-2.212,5.026-1.486A18.465,18.465,0,0,1,66.944,48.3l.691.633c.126-.115.1-5.1.612-6.679.218-.66,1.22-1.534,3.226-3.284a13.454,13.454,0,0,1,2.319-1.793,13.2,13.2,0,0,1,4.321-1.554c1.276-.194,2.987.394,4.292.243,1.6-.186,2.791-1.08,4.314-.909,3.941.441,7.4,2.614,9.194,9.311,1.383-1.872,3.343-2.669,4.56-4.335a1.407,1.407,0,0,0-1.146-1.579c-3.477-.594-6.848-1.336-6.265-4.687.491-2.832,3.164-5.646,5.2-7.914.662-.736,4.453.171,5.566.979.552.4,1.6,2.637,1.119,3.888-.418,1.08-2.364,1.161-2.125,1.845.336.969,2.915,1.76,4.139,2.294.7-3.673.093-7.78,1.062-11.383.338-1.257.3-3.5,1.006-5.007.336-.709,1.659-1.008,2.21-1.175a2.825,2.825,0,0,1,1.762.085c1.641.9,4.182,3.758,2.434,4.922.084-.056,5.6-2.944,6.3-7.584a22.191,22.191,0,0,1,2.428-7.491c.645-1.167,2.744-3.387,3.692-3.216,1.138.2,2.8,3.049,2.35,6.965-.068.594,6.7-8.932,13.481-9.146.251-.008.7.466,1.086.884a3.072,3.072,0,0,1,.293,2.364c-.565,1.315-3.154,3.4-3.98,4.191a68.015,68.015,0,0,1-10.49,7.831c-2.878,1.9-2.1,4.193-2.591,7.242-.583,3.6-1.744,6.687-7.225,6.8-.229-1.558.181-2.839-.051-4.417-3.469,1.379-6.409,2.591-6.838,7.064a4.675,4.675,0,0,1-2.342,3.562,4.162,4.162,0,0,1-2.907.307c.28,5.23-1.344,8.79-6.712,10.014-1.424.322-4.224.587-5.986-.225a17.889,17.889,0,0,1-.392,4.756,11.806,11.806,0,0,1-7.54,8.654C85.129,61.794,81.4,62.5,78.5,61.757c-2.69-.686-3.671-1.942-6.2-3.372l-1.859-.921a13.992,13.992,0,0,1,.983,4.741A19.782,19.782,0,0,1,65.963,74.64a17.257,17.257,0,0,1-7.516,3.9,20.537,20.537,0,0,1-9.031.383c-2.127-.385-6.205-1.125-9.439-4.518-1.226-1.284-3.109-3.261-3.214-5.978-.066-1.734.59-3.818,1.449-6.541.218-.691.864-2.671.682-2.746a.054.054,0,0,0-.041.006c-1.476.8-4.42,4.117-5.893,4.914q-3.17,1.719-6.333,3.424a16.256,16.256,0,0,1-4.108,1.565c-3.108.684-6.128.109-7.083-3.337-.252-.911,1.342-2.595,3.191-5.261,1.447-2.086,2.989-5.038,4.316-6.922,1.472-2.094,4.883-5.3,5.333-6.211a.5.5,0,0,0,.054-.338c-.068-.311-.559-.377-1.123-.606a6.346,6.346,0,0,1-1.074-.6c-1.276-.715-4.525-.2-7.6-.383a25.59,25.59,0,0,1-4.64-.81,14.747,14.747,0,0,1-3.137-1.167,3.379,3.379,0,0,1-2.177-3.3,5.2,5.2,0,0,1,.4-3.034A4.809,4.809,0,0,1,11.93,35.4C14.3,34.6,16.4,33.2,18.09,32.834c1.886-.414,2.123-.021,4.356-.474a19.571,19.571,0,0,0,3.933-1.235c-.631-.033-1.6-.045-2.315-.134s-1.412-.208-2.045-.338a3.137,3.137,0,0,1-1.571-1.393,2.719,2.719,0,0,1-.2-2.338,2.826,2.826,0,0,1,3.214-1.259q.693-.055,1.416-.089a41.782,41.782,0,0,1,4.316.023,2.359,2.359,0,0,0,.876-1.484c.126-1.34-1.476-1.87-1.818-3.438-.35-1.583.829-3.084,1.548-4a8.671,8.671,0,0,1,4.316-2.855c2.072-.672,4.846-.814,6.2.338a3.47,3.47,0,0,1,.831,1.078,2.7,2.7,0,0,1,.179,1.911c-.732,1.517-5.017.482-5.349,1.595-.093.317.06.418.674,1.012.375.948,1.447,1.8,1.641,2.54.633,2.414,0,3.634-2.585,5.753-.934.765-3.01,1.191-3.663,1.707-1.332,1.058,2.595-.085,2.608,2.944a3.57,3.57,0,0,1-1.214,1.618,5.36,5.36,0,0,1-2.653.855c-.464.043-4.854,1.169-5.325,1.348-.7.268-2.29-.031-3.529.54-.437.2-.655.489-.606.719a.967.967,0,0,0,.831.967,32.052,32.052,0,0,1,5.978.045,17.23,17.23,0,0,1,3.91.855c2.424.924,3.622,1.7,4.492,3.7a6.031,6.031,0,0,1,.1,4.279,23.678,23.678,0,0,1-2.21,3.706c-1.527,2.245-2.28,3.49-3.552,5.708-1.505,2.63-.336,1.977.616,1.268,2.859-2.129,4.984-4.712,7.79-6.91,1.927-1.507,4.535-2.626,6.469-4.121,1.014-.783,2.022-1.577,3.071-2.311,4.032-2.814,5.66-2.663,5.036,2.257A4.648,4.648,0,0,1,53.03,48.8s2.54-.6,4.776-1.4M46.023,65.465c.371,3,1.649,4.11,2.247,4.518a13.527,13.527,0,0,0,2.989,1.078,28.1,28.1,0,0,0,3.506.967c1.641.062,3.282-1.231,6.495-3.82,3.121-2.517,3.438-3.234,3.57-3.585.377-.991.74-1.643.041-4.947A16.946,16.946,0,0,0,64,56.459a42.69,42.69,0,0,0-3.832-4.671c-.868-.781-2.546-.458-3.494-.291-1.927.338-2.057,2.03-4.607,4.4a20.271,20.271,0,0,0-4.178,4.922c-1.1,1.653-2.158,2.614-1.868,4.642M80.378,53.546a7.172,7.172,0,0,0,6.908-7.13c-.01-2.509-2.855-5.289-5.349-5.015-3.269.359-5.539,2.133-4.861,5.566.493,2.5-.559,6.477,3.3,6.578" transform="translate(-8.527 -1.724)" fill="#1a1311"/>
</svg>
