<svg id="HDS_18" xmlns="http://www.w3.org/2000/svg" width="108.653" height="63.059" viewBox="0 0 108.653 63.059">
  <path id="패스_19716" data-name="패스 19716" d="M749.465,159.067a1.384,1.384,0,0,0-1.528.118l-5.922,3.985q-8.306,3.065-16.61,6.132-11.1,4.093-22.189,8.19l-11.146,4.114c-3.585,1.325-7.153,2.707-10.785,3.9a42.776,42.776,0,0,1-10.851,2.313,23.8,23.8,0,0,1-9.8-1.511,33.2,33.2,0,0,1-5.861-2.966c-.012-.07-.019-.14-.031-.21-.033-.19-.321-.252-.672-.227a76.915,76.915,0,0,1-9.305-7.464q-.906-.819-1.8-1.645c-.478-.437-1.934-.056-1.9.7a181.283,181.283,0,0,0,4.564,32.47q.947,4.02,2.076,8c.616,2.166,1.181,4.661,3.21,5.959a7.753,7.753,0,0,0,6.415.6,18.119,18.119,0,0,0,6.159-3.935q2.226-1.934,4.523-3.787c.5-.1,1-.287,1.043-.594.014-.091.016-.183.029-.274,2.212-1.76,4.473-3.455,6.817-5.042,4.452-3.016,9.208-5.52,13.875-8.179,4.762-2.713,9.34-5.718,13.887-8.773a1.189,1.189,0,0,0,.872-.588q6.575-4.42,13.147-8.843l25.371-17.068,2.16-.8q1.393-.516,2.785-1.027c.423-.157,1-.491.864-1.037a.823.823,0,0,0-.785-.519q.641-.431,1.282-.864a.687.687,0,0,0,.107-1.128M702.3,179.479q.245,5.154.142,10.315-1.451.979-2.91,1.948a82.583,82.583,0,0,0-.274-10.783.439.439,0,0,0-.159-.3c.336-.122.67-.247,1-.369q1.1-.4,2.2-.812M684.046,186.2a115.284,115.284,0,0,1,.624,14.37.625.625,0,0,0,.021.163c-1.694.946-3.385,1.9-5.054,2.892a153.925,153.925,0,0,1-.008-15.7.676.676,0,0,0-.047-.276q2.252-.664,4.463-1.449m-34.386,27.581q-.545-1.937-1.043-3.888a178.767,178.767,0,0,1-5.151-31.53c-.035-.484-.056-.967-.087-1.449,1.48,1.332,2.989,2.641,4.541,3.892a.4.4,0,0,0-.128.26,125.848,125.848,0,0,0,.586,15.184,52.67,52.67,0,0,0,1.14,7.237,27.082,27.082,0,0,1,.684,3.494c.132,1.235.148,2.478.163,3.719.021,1.843.015,3.686,0,5.529-.258-.81-.474-1.635-.7-2.449m2.956,5.929a3.948,3.948,0,0,1-.633-.489c.266-.124.464-.285.468-.486q.082-3.811.052-7.625a32.914,32.914,0,0,0-.66-7.382,58,58,0,0,1-1.249-7.184q-.4-3.726-.571-7.47c-.1-2.241-.128-4.483-.113-6.724.915.68,1.841,1.34,2.8,1.958a113.84,113.84,0,0,1,.973,14.089,71.238,71.238,0,0,0,1.711,14.473,25.739,25.739,0,0,1,1.07,7.262,5.993,5.993,0,0,1-1.231.194,4.668,4.668,0,0,1-2.614-.616m5.976-.478a23.343,23.343,0,0,0-.777-5.706,67.77,67.77,0,0,1-1.422-7.2c-.614-4.918-.571-9.882-.808-14.825-.091-1.921-.237-3.838-.468-5.747.662.367,1.332.721,2.02,1.047a29.49,29.49,0,0,0,2.8,1.154c.75,3.614.528,7.312.709,10.977.186,3.737.868,7.415,1.3,11.125a40.948,40.948,0,0,1,.315,6.339l0,.021c-.489.418-.973.839-1.472,1.247a17.6,17.6,0,0,1-2.2,1.569m5.832-4.644a77.17,77.17,0,0,0-.973-9.725c-.258-1.853-.5-3.71-.625-5.578-.128-1.9-.109-3.8-.157-5.708a39.808,39.808,0,0,0-.377-4.906,25.042,25.042,0,0,0,3.164.606.2.2,0,0,0-.021.12,103.713,103.713,0,0,1,1.311,12.2c.113,2.01.192,4.022.266,6.034.056,1.579.155,3.174.056,4.753-.163.13-.33.254-.492.386-.728.59-1.439,1.2-2.152,1.812m4.716-7.522c-.074-2.012-.153-4.024-.266-6.034a105.976,105.976,0,0,0-1.216-11.595,29.57,29.57,0,0,0,3.616-.107.415.415,0,0,0-.144.346,122.577,122.577,0,0,1,1.14,18.769q-1.538,1.1-3.039,2.249c.012-1.21-.049-2.422-.091-3.628m5.273-.1a124.84,124.84,0,0,0-1.154-17.855l-.006-.014a42.635,42.635,0,0,0,4.211-.853,147.634,147.634,0,0,0,.064,16.532.72.72,0,0,0,.037.134q-1.594,1-3.152,2.055m12.4-7.421a117.875,117.875,0,0,0-.656-14.1c.938-.342,1.872-.689,2.806-1.035l.73-.268c.241,4.518.309,9.041.348,13.566q-1.608.929-3.228,1.835m5.362-3.1c-.043-4.364-.124-8.724-.363-13.083l5.341-1.971a.731.731,0,0,0-.018.148,79.806,79.806,0,0,1,.194,11.663c-1.422.926-2.851,1.843-4.3,2.733-.284.175-.573.338-.858.511m12.453-8.111q.055-4.792-.187-9.583c0-.018-.012-.029-.014-.047l2.191-.81c-.107.878-.206,1.756-.231,2.639a20.271,20.271,0,0,0,.177,3.069c.025.214.284.4.46.472a1.324,1.324,0,0,0,.814.029,1.029,1.029,0,0,0,.855-1.07,16.727,16.727,0,0,1-.138-2.719c.035-.994.155-1.985.278-2.972a.6.6,0,0,0-.031-.252q1.736-.644,3.477-1.284a58.835,58.835,0,0,1,.338,6.747.648.648,0,0,0,.087.344l-6.1,4.1-1.979,1.334m10.14-6.825a62.264,62.264,0,0,0-.383-6.481l7.27-2.682,0,.012a13.032,13.032,0,0,0,.291,2.9c.029.13.293.146.375.152a2.515,2.515,0,0,0,.779-.1,2.432,2.432,0,0,0,.726-.3c.1-.066.28-.175.249-.319a13.02,13.02,0,0,1-.291-2.9c0-.082-.134-.118-.243-.136q3.528-1.3,7.06-2.606a13.266,13.266,0,0,0-1.734,2.981l-8.507,5.726-5.588,3.758m16.951-11.4a12.271,12.271,0,0,1,1.154-1.663c.07-.084.132-.173.06-.26l3.642-1.344q-2.427,1.634-4.856,3.267" transform="translate(-641.063 -158.882)" fill="#1a1311"/>
</svg>
