<svg xmlns="http://www.w3.org/2000/svg" width="108.072" height="64.291" viewBox="0 0 108.072 64.291">
  <path id="패스_19717" data-name="패스 19717" d="M745.442,73.469c-2.472-.7-5.665-1.5-7.716-.332-3.5,1.995-6.512,5.042-9.878,7.5-2.719,1.987-6.93,4.927-9.758,6.526-13.327,7.538-17.406,11-31.224,17.563-2.9,1.381-13.172,4.514-17.32,4.2-3.525-.27-7.221-.742-10.084-3.506-3.816-3.682-6.483-8.841-9.74-13.077a3.32,3.32,0,0,1-.532-2.441,4.054,4.054,0,0,0-1.888-4.723,5.753,5.753,0,0,0-2.6-1.28,4.467,4.467,0,0,0-2.521.284c-1.062.458-.781,1.73-1.027,2.07-.517.709-1.775,1.659-1.36,3.218.484,1.8-.214,3.29-.142,5.937.054,2.057,0,3.789-.649,12.154a69.144,69.144,0,0,0,.5,10.8c.643,7.487,3.906,12.212,7.654,15.163,5.77,4.545,13.5,4.376,20.91-.315,12.611-7.986,24.51-15.435,36.942-23.675.8-.53,2.7-1.074,4.049-2.033,2.043-1.453,4.5-3.508,5.7-4.337,1.9-1.315,2.505-2.608,4.282-3.892,6.516-4.7,11.515-10.1,17.7-14.974,2.647-2.086,5.732-3.729,8.586-5.968,1.136-.891,1.567-1.132,1.67-2.024a2.5,2.5,0,0,0-1.554-2.839m-85.624,55.694a25.373,25.373,0,0,0-2.5,1.218c-.715.427-1.288.5-3.218.571s-.5-1.645-.5-2.288.573-2,1.36-2.218,1.573.787,1.573.787a5.536,5.536,0,0,0,2.5.429c2.146-.286,1.144,1.36.786,1.5m13.088-13.8a11.669,11.669,0,0,1-4.148-.357c-1.216-.357-.571-1.288-.715-1.717a3.482,3.482,0,0,1,2.074-.643c1.288,0,.571.571.571.571a11.081,11.081,0,0,0,3.077.5c1.573,0,.357,1.5-.859,1.645" transform="translate(-638.946 -72.545)" fill="#1a1311"/>
</svg>
