<svg xmlns="http://www.w3.org/2000/svg" width="110.53" height="49.89" viewBox="0 0 110.53 49.89">
  <path id="패스_19719" data-name="패스 19719" d="M275,128.531c-6.5-8.5-6.842-15.409-7.662-24.382-.165-1.8-1.216-4.634-1.307-6.452-.136-2.68,2.193-5.578,3.723-8.182a3.263,3.263,0,0,1,3.071-.839c.765.328.113,3.065.2,4.1a26.4,26.4,0,0,0,.649,4.018c.221.909,1.472,1.859,1.789,2.715a20.771,20.771,0,0,0,7.9,10.449c2.55,1.789,5.432,2.451,8.592,2.9,13.405,1.915,26.043-4.574,37.925-9.375,5.661-2.288,8.588-2.991,14.2-5.37,1.1-.466,3.791-.208,5.11-.814,5.428-2.494,10.808-6.73,15.209-8.94,1.83-.919,3.356-.2,5.224-1.045s3.247-2.434,5.131-3.24c.429-.183,1.192.406,1.8.637-.293.742-.371,1.742-.911,2.187a135.243,135.243,0,0,1-13.685,9.936c-7.116,4.508-14.629,8.217-21.943,12.424-11.742,6.753-21.529,13.757-33.553,19.97-5.131,2.651-9.868,3.482-16.254,4.644-4.18.231-10.449,0-15.209-5.341" transform="translate(-266.027 -84.04)" fill="#1a1311"/>
</svg>
