<svg xmlns="http://www.w3.org/2000/svg" width="130.611" height="35.025" viewBox="0 0 130.611 35.025">
  <path id="패스_19718" data-name="패스 19718" d="M399.147,103.951c-.1,1.515.734,2.148,1.326,2.084a115.366,115.366,0,0,0,18.83-3.214c24.423-6.98,49.72-9.056,74.561-13.663q8.2-1.518,16.411-2.933a17.568,17.568,0,0,1,4.782-.429c1.08.117,2.655.542,3.1,1.612.218,1.486-1.8,1.707-2.859,2.006-8.829,2.48-18.682,4.209-27.513,6.677-17.594,4.918-34.175,10.56-51.781,15.44q-16.043,4.449-32.141,8.689a22.139,22.139,0,0,1-5.66.552c-7.186-.027-11.48-4.791-10.5-11.911.806-5.871,2.74-11.438,7.5-15.312,1.245-1.014,3.982-.8,5.836-.678.3.019.456,2.533.276,3.8-.383,2.7-1.208,3.032-2.169,7.279M472.6,96.9c.014-.19.025-.381.039-.573a18.826,18.826,0,0,0-3.473.029q-21.518,4.1-43.014,8.3c-8.151,1.575-16.258,3.49-24.474,4.576-4.459.588-6-1.785-5.331-6.246.2-1.327,1.556-4.147,1.567-5.749.008-1.016.379-2.746-1.231-1.7-4.485,4.2-5.654,10.344-6.091,15.825-.256,3.228,1.54,5.98,5.553,5.854a32.236,32.236,0,0,0,6.965-.519c8.765-2.261,17.486-4.692,26.187-7.19,14.45-4.149,28.871-8.394,43.3-12.6" transform="translate(-387.564 -85.749)" fill="#1a1311"/>
</svg>
