<svg xmlns="http://www.w3.org/2000/svg" width="122.821" height="55.31" viewBox="0 0 122.821 55.31">
  <path id="패스_19707" data-name="패스 19707" d="M505.875,14.543a2.794,2.794,0,0,0-2.391-2.612,9.662,9.662,0,0,0-4.457.478c-1.639.437-3.263.926-4.875,1.457-6.223,2.043-12.213,4.7-18.319,7.05-5.254,2.026-10.643,3.626-16.046,5.19-4,1.158-8.029,2.185-12.11,3.014-2.608.532-5.232,1-7.858,1.429a75.288,75.288,0,0,1-7.98,1.107c-4.321.247-8.987.326-12.535-2.564a3.867,3.867,0,0,1-1.608-3.1,9.591,9.591,0,0,1,.709-2.756,1.838,1.838,0,0,0,1.111-.522,49.72,49.72,0,0,0,3.595-4.088c.759-1.064,1.342-2.616.163-3.62-1.152-.979-3.174-.991-4.6-.911a15.734,15.734,0,0,0-4.9,1.2,55.5,55.5,0,0,0-9.068,5.131,67.517,67.517,0,0,0-8,5.784,65.584,65.584,0,0,0-6.9,6.926,27.82,27.82,0,0,0-4.683,7.149,25.456,25.456,0,0,0-2.039,8.662,15.584,15.584,0,0,0,1.26,7.6c2.265,4.632,7.666,6.854,12.255,8.47a36.6,36.6,0,0,0,10.041,2.065,48.636,48.636,0,0,0,9.861-.691,68.286,68.286,0,0,0,16.835-4.5c4.358-1.853,8.619-3.943,12.852-6.065,2.667-1.338,5.294-2.733,8.01-3.972,5.5-2.507,10.987-5.04,16.4-7.724,6.669-3.308,13.331-6.84,19.158-11.521a80.23,80.23,0,0,0,6.807-6.217q2.057-2.083,4.077-4.226l.068-.041a4.692,4.692,0,0,0,1.261-1.394c.709-.775,1.412-1.556,2.1-2.346a6.051,6.051,0,0,0,1.806-3.84m-31.91,21.4a135.254,135.254,0,0,1-12.813,9.01A134.108,134.108,0,0,1,445.7,53.175a1.939,1.939,0,0,0-.466.3c-.351.144-.7.282-1.056.429-2.4,1.014-4.793,2.063-7.192,3.088-6.7,2.867-13.66,5.605-20.884,6.493a27.97,27.97,0,0,0,3.552-1.142,34.342,34.342,0,0,0,8.12-4.966c1.958-.851,3.91-1.717,5.871-2.558,1.569-.672,3.156-1.3,4.7-2.024,3.286-1.54,6.514-3.2,9.74-4.859,3.5-1.8,6.955-3.669,10.488-5.4q3.875-1.693,7.722-3.451,4.516-2.074,9-4.209-.67.53-1.338,1.062m-80.393,4.3c.472-.157.839-.381.874-.678.34-2.915,1.989-5.434,3.766-7.691a45.735,45.735,0,0,1,5.772-6.069,44.749,44.749,0,0,1,6.714-4.881c.307-.183.627-.377.956-.561a9.286,9.286,0,0,1,2.869-.8,1.053,1.053,0,0,1,1,.882,2.13,2.13,0,0,1-.28,1.435,10.331,10.331,0,0,0-1.9.528c-.948.317-1.884.658-2.8,1.047-.519.219-1.031.454-1.54.7-.618.233-1.218.515-1.793.785a2.422,2.422,0,0,0-.9.655,25.873,25.873,0,0,0-11.071,12.783c-1.3,3.106-2.162,6.683-1.5,10.049A10.075,10.075,0,0,0,395.994,53a2.512,2.512,0,0,0-.342.192,21.737,21.737,0,0,1-1.354-2.882,17.537,17.537,0,0,1-1.286-6.5,14.009,14.009,0,0,1,.559-3.572m26.608-3.816q2.106-.047,4.215-.124a115.29,115.29,0,0,0,17.561-1.507c3.069-.585,6.11-1.307,9.181-1.872,3.389-.623,6.772-1.247,10.132-2.012,2.519-.573,5.021-1.218,7.512-1.9-3.974,1.379-7.947,2.764-11.954,4.036A115.6,115.6,0,0,1,436.115,37.9a66.2,66.2,0,0,1-10.416.5,52.536,52.536,0,0,1-5.265-.441,23.894,23.894,0,0,1-4.661-.923,5.932,5.932,0,0,1-1.921-1.049,3.284,3.284,0,0,0,.487-.1,6.872,6.872,0,0,0,1.777.486,26.029,26.029,0,0,0,4.063.058m-10.492-10.82c.15-.062.3-.136.445-.194l.07-.027.051-.012,0,0a.52.52,0,0,1,.175.14c.388.53-.4,1.723-.625,2.2a15.109,15.109,0,0,0-.924,2.327,3.748,3.748,0,0,0,.526,3.6,4.254,4.254,0,0,0,1.088,3.174,7.6,7.6,0,0,0,3.83,2.006,36.429,36.429,0,0,0,5.052.872,62.87,62.87,0,0,0,11,.3,97.655,97.655,0,0,0,19.935-3.49,4.338,4.338,0,0,0,1.185-.171L468.031,31.2q4.128-1.279,8.258-2.556c2.162-.668,4.729-1.709,7.025-1.179a6.187,6.187,0,0,1,.812.233c.039.1.157.186.384.231.025.006.052,0,.078.006a1.121,1.121,0,0,1,.132.12l-.037.017c-2.529,1.126-5.04,2.29-7.551,3.457q-6.666,3.1-13.3,6.269c-7.553,2.923-14.976,6.153-22.228,9.775-.515.258-1.022.532-1.532.792-.264.1-.524.2-.789.293-8.163,2.973-16.547,5.823-25.037,7.408-.9.169-1.81.326-2.721.454-.352.049-.7.1-1.055.132-.157.017-.313.031-.47.045-.093.006-.188.012-.284.014a14.018,14.018,0,0,1-5.355-1.13c-3.906-1.567-7.18-4.669-7.613-9.025-.462-4.638,1.626-9.542,4.182-13.306a23.755,23.755,0,0,1,8.755-7.648m.284,31.1h-.008c-.13.01-.054,0,.008,0m2.62,5.825a50.432,50.432,0,0,0,7.134-1.936,19.86,19.86,0,0,1-6.118,1.826c-.334.043-.676.076-1.016.111M415.006,60a36.378,36.378,0,0,1-4.129.827,11.865,11.865,0,0,1-4,.12,9,9,0,0,1-3.51-1.925,21.269,21.269,0,0,1-2.573-2.41,17.953,17.953,0,0,0,7.334,1.773,36.38,36.38,0,0,0,7.7-1.107c2.4-.489,4.8-1.014,7.163-1.684,2.672-.761,5.329-1.6,7.977-2.461-.705.388-1.4.787-2.084,1.214-.555.348-1.1.724-1.637,1.117A80.808,80.808,0,0,1,415.006,60m79.039-36.983c-.167.016-.332.029-.5.05.206-.045.412-.1.62-.138l-.122.087m-4.387,1.041-.563.058q.556-.143,1.115-.28c-.186.066-.367.15-.552.221m8.662-3.331a1.864,1.864,0,0,0-.569,0c-3.593.616-7.128,1.439-10.624,2.393,4.448-1.626,8.864-3.344,13.261-5.106-.016.144-.031.286-.058.431q-.955,1.183-2.01,2.284m2.7-5.054c-12.1,4.871-24.32,9.46-37,12.589-5.879,1.453-11.843,2.463-17.771,3.684,2.265-.552,4.531-1.1,6.821-1.544,2.032-.4,4.071-.769,6.081-1.268,2.288-.571,4.533-1.319,6.805-1.946,4.743-1.313,9.336-2.983,13.935-4.725,2.533-.959,5.054-1.954,7.6-2.884,1.694-.62,3.4-1.2,5.094-1.822,2.6-.959,5.168-2.03,7.8-2.919.581-.2,1.208-.431,1.614.194a1.55,1.55,0,0,1,.187.513,2.168,2.168,0,0,0-1.161.128m-85.6,18.282c-.054-.029-.1-.064-.159-.1.253.082.493.153.721.218.532.151,1.068.276,1.61.383a5.157,5.157,0,0,1-2.171-.5M389.85,44.66c0,.322,0,.647.021.973a21.267,21.267,0,0,0,5.335,12.306,19.759,19.759,0,0,0,5.92,4.661c-.27-.056-.544-.107-.812-.167a12.5,12.5,0,0,1-6.046-2.925,17.042,17.042,0,0,1-4.718-10.977,14.162,14.162,0,0,1,.3-3.871m93.221-13.4c.666-.371,1.348-.711,2.024-1.062.616-.3,1.228-.62,1.837-.936q.693-.3,1.389-.588c-.447.291-.89.59-1.342.876-3.383,2.138-6.852,4.141-10.247,6.264a48.229,48.229,0,0,1,6.339-4.552m-60.719,1.694a11.908,11.908,0,0,0,2.2.416,30.71,30.71,0,0,1-4.935-.5c-1.569-.307-3.577-.794-4.652-2.08-.882-1.055-.474-2.282.258-3.482a4.733,4.733,0,0,0,1.09,2.23,13.007,13.007,0,0,0,6.034,3.412m-2.822-17.1c.546.05,1.519.089,1.8.67.26.534-.179,1.241-.476,1.663-.177.249-.375.489-.571.73-3.822-2.051-8.12-.62-11.853,1.243q1.028-.629,2.059-1.247c2.678-1.608,5.8-3.358,9.039-3.059M385.937,53.068c-1.093-5.349.445-11.434,3.385-15.959a43.932,43.932,0,0,1,5.716-6.728q.836-.848,1.7-1.663a54.759,54.759,0,0,0-7.079,9.2,21.7,21.7,0,0,0-3.286,9.472,18.5,18.5,0,0,0,2.105,9.387,14.985,14.985,0,0,0,2.088,3.076,13.235,13.235,0,0,1-1.47-1.136,10.194,10.194,0,0,1-3.162-5.65m92.118-14.8c-2.552,1.443-5.155,2.793-7.777,4.1,1.34-.969,2.672-1.954,4.034-2.906,5.473-3.828,11.4-6.949,16.957-10.647a73.021,73.021,0,0,1-13.215,9.451" transform="translate(-383.055 -11.818)" fill="#1a1311"/>
</svg>
