<svg xmlns="http://www.w3.org/2000/svg" width="158.027" height="74.549" viewBox="0 0 158.027 74.549">
  <path id="패스_19710" data-name="패스 19710" d="M290.571,157.7c-.237-.886-1.328-.886-2.032-.767-2.781.466-5.547,1.031-8.3,1.663.482-.218.957-.447,1.439-.662q3.091-1.378,6.205-2.7c.552-.235,1.342-.932.855-1.569s-1.676-.406-2.284-.148q-8.786,3.726-17.32,7.947c-3.56,1.012-7.1,2.084-10.624,3.164-11.354,3.482-22.605,7.3-33.815,11.214-11.463,4-22.871,8.19-34.486,11.742-5.7,1.744-11.447,3.356-17.285,4.558-.625.128-1.251.252-1.878.369-.3.058-.612.115-.919.169-.122.021-.243.043-.365.062-.1.017-.194.035-.291.05l-.054.01c-1.179.19-2.36.359-3.546.493-1.113.124-2.232.219-3.35.268-.5.021-.991.035-1.486.037-.237,0-.476-.006-.713-.006.507,0,.021-.018-.118-.033l-.029,0a.406.406,0,0,0-.054-.023c-.144-.056-.289-.111-.433-.169-.076-.031-.359-.2-.029-.006-.06-.035-.124-.068-.185-.107-.188-.126-.379-.249-.557-.388-.052-.043-.3-.272-.332-.287a5.767,5.767,0,0,1-.408-.464,6.627,6.627,0,0,1-.781-1.249c-1.09-2.387-.911-5.221-.569-7.751a48.583,48.583,0,0,1,4.6-14.374q1.885-1.932,3.8-3.844a.815.815,0,0,0-.385-1.435,2.031,2.031,0,0,0-.536-.076c.035-.056.068-.117.1-.173.451-.742-.406-1.416-1.06-1.509a2.213,2.213,0,0,0-2.212,1.062,61.078,61.078,0,0,0-3.139,5.842,176.523,176.523,0,0,0-12.471,14.108,119.35,119.35,0,0,0-7.4,10.556,36.81,36.81,0,0,0-2.731,4.991,33.455,33.455,0,0,0-1.7,5.209,40.958,40.958,0,0,0-1.078,11.183c.107,2.7.229,5.809,1.68,8.175,3,4.887,10.1,5.347,15.159,4.78,8.165-.917,16.033-4.389,23.324-8a221.725,221.725,0,0,0,23.763-13.72c3.776-2.494,7.5-5.059,11.253-7.592,1.837-1.239,3.682-2.472,5.541-3.682q1.358-.883,2.725-1.748.562-.352,1.126-.7c.181-.111.359-.223.542-.332.08-.043.159-.084.239-.124,2.655-1.307,5.529-2.162,8.13-3.576,1.929-1.049,3.783-2.257,5.667-3.387s3.752-2.249,5.634-3.366c10.076-5.986,20.28-11.737,30.741-17,5.926-1.7,11.9-3.242,17.93-4.436q1.562-.306,3.133-.573c.711-.118,1.585-.891,1.375-1.678M152.2,218.267c-.1.185-.041.045,0,0M160.76,196.2c1.018,0,2.033-.056,3.049-.136a82.777,82.777,0,0,1-6.264,8.155c.027-.322.047-.647.062-.983.019-.406.054-.812.1-1.214.33-.4.651-.8.987-1.193a1.036,1.036,0,0,0-.835-1.734,3.481,3.481,0,0,0-2.738.979,3.249,3.249,0,0,0-.757,1.55c-1.6,1.936-3.16,3.9-4.655,5.908a94.381,94.381,0,0,1,4.127-9.752c.326-.678-.2-1.237-.841-1.383a2.286,2.286,0,0,0-2.21.689c-.066.1-.13.19-.194.284,1.1-2.018,2.183-4.044,3.22-6.095a8.035,8.035,0,0,0,2.121,3.292,6.594,6.594,0,0,0,4.824,1.631m64.712-10.284-.734.443c.033-.021-.254.144-.334.192-.219.115-.443.227-.668.332-.676.317-1.363.608-2.051.893-1.42.592-2.855,1.152-4.255,1.787a36.672,36.672,0,0,0-4.469,2.585c-3.669,2.34-7.268,4.787-10.867,7.233-7.31,4.964-14.66,9.8-22.388,14.1-7.2,4-14.66,7.868-22.555,10.3-5.526,1.7-12.83,3.269-17.806-.3a7.407,7.407,0,0,1-1.859-1.977,3.886,3.886,0,0,1-.453-.9,10.522,10.522,0,0,1-.464-1.793,35.587,35.587,0,0,1-.332-10.569,33.832,33.832,0,0,1,2.622-10.329,41.869,41.869,0,0,1,2.762-4.867q1.719-2.741,3.593-5.378a136.839,136.839,0,0,1,10.154-12.5c-.443,1.33-.841,2.672-1.185,4.024a29.231,29.231,0,0,0-1.043,8.328c.021.5.072.991.138,1.478a2.27,2.27,0,0,0-2.068.713c-1.428,1.946-2.88,3.875-4.339,5.8,1.3-2.568,2.61-5.135,3.871-7.722.936-1.921,1.851-3.853,2.715-5.807.338-.765-.315-1.338-1.037-1.428a2.233,2.233,0,0,0-2.218,1.041c-3.15,7.12-6.883,13.966-10.294,20.962-.936,1.921-1.851,3.853-2.715,5.809-.3.684.181,1.233.841,1.383a2.3,2.3,0,0,0,2.21-.691q1.124-1.529,2.266-3.049c-1.064,2.09-2.08,4.2-3,6.365a1,1,0,0,0,.841,1.383,2.352,2.352,0,0,0,2.212-.691c1.117-1.26,2.179-2.562,3.21-3.89a49.059,49.059,0,0,0-1.614,6.58c-.128.755.765,1.1,1.354,1.107a2.264,2.264,0,0,0,2-1.045c1.8-2.808,3.713-5.526,5.72-8.179-.237.456-.5.9-.779,1.336-.75,1.189-1.781,2.5-2.639,3.754a16.249,16.249,0,0,0-2.379,4.683l-.016.023h.008c-.031.109-.076.212-.1.324-.186.746.816,1.1,1.354,1.107a2.409,2.409,0,0,0,1.358-.4,2.238,2.238,0,0,0,.26,1.177c.682,1.235,2.47,1.144,3.556.563a8.813,8.813,0,0,0,2.461-2.455q1.04-1.288,2.039-2.6c.534-.7,1.057-1.412,1.579-2.123a3.089,3.089,0,0,0-.019,2.109c.841,1.987,3.626,1.649,5.186.818a14.534,14.534,0,0,0,3.847-3.513c1.8-2.065,3.471-4.24,5.114-6.434-.26.6-.5,1.2-.711,1.806-.375,1.119-.489,2.455.656,3.21,1.882,1.239,4.123-.309,5.566-1.5a31.373,31.373,0,0,0,5.856-6.355c.447-.643.878-1.3,1.309-1.948-.008.1-.025.21-.031.317a1.93,1.93,0,0,0,1.194,2.142,4.268,4.268,0,0,0,3.6-.476,16.685,16.685,0,0,0,3.059-2.616c.847-.8,1.707-1.6,2.467-2.3,1.558-1.435,3.129-2.855,4.692-4.283.623-.569,1.229-1.154,1.849-1.727a.937.937,0,0,0,.045.087,2.4,2.4,0,0,0,2.288.847c1.583-.128,3.111-1.194,4.459-1.962,1.449-.825,2.869-1.7,4.294-2.562a109.072,109.072,0,0,1,11.506-6.05c-.084.049-.167.091-.251.142a1.644,1.644,0,0,0-.971,1.13.994.994,0,0,0,.742,1.014,3.576,3.576,0,0,0,1.111.208q-.658.393-1.313.789m-62.247,28.162v0m-.084.023c-.047,0-.06,0,0,0h0m.136.012h0m26.884-12.5,0-.054c.047.078.021.087,0,.054m0-.082v-.012c.012.014.014.019,0,.012m37.395-18.9.01,0c-.087.017-.151.039-.01,0m.07-.018c.064-.014.052-.006,0,0m14.452-6.568a.837.837,0,0,0-.089-.427,1.674,1.674,0,0,0-1.942-.561,107.813,107.813,0,0,0-16.367,6.007q-3.854,1.78-7.553,3.871c-2.552,1.443-4.941,2.989-7.456,4.411-.517.293-1.045.569-1.571.847.023-.107.047-.208.066-.285.062-.239.1-.484.155-.724.016-.068.031-.136.045-.2a2.043,2.043,0,0,1,.082-.192c.027-.054.058-.109.089-.161,0,.023.272-.309.3-.344a.988.988,0,0,0-.441-1.645,2.4,2.4,0,0,0-2.408.645c-2.95,2.828-5.815,5.419-8.866,8.208q-2.409,2.2-4.78,4.442c-.227.214-.452.429-.678.643-.2.186-.344.338-.454.431l-.029.021a38.079,38.079,0,0,1,1.191-6.522c.155-.645-.633-1.041-1.134-1.1a2.352,2.352,0,0,0-2.016.734c-1.74,2.156-3.381,4.65-4.836,6.84a34.845,34.845,0,0,1-4.486,5.594c-.453.439-.862.8-1.443,1.286q-.437.364-.888.713l-.037.025a.443.443,0,0,1,0-.07,2.3,2.3,0,0,1,.062-.284c.023-.064.043-.13.064-.192a54.125,54.125,0,0,1,2.527-5.529c1.191-2.436,2.426-4.861,3.447-7.373a1,1,0,0,0-.841-1.383,2.364,2.364,0,0,0-2.212.689c-4.222,4.6-7.648,9.839-11.562,14.691-.994,1.233-2.02,2.445-3.1,3.607a7.8,7.8,0,0,1-1.26,1.152c-.037.027-.056.043-.078.06a1.329,1.329,0,0,0-.134.062.651.651,0,0,0-.113.066.691.691,0,0,0-.074.008l-.012-.008v-.064c-.008-.462-.037.245-.037-.243a3.578,3.578,0,0,1,.08-.583,15.28,15.28,0,0,1,.975-2.3c.639-1.377,1.342-2.723,2.072-4.053,1.682-3.053,3.5-6.032,5.013-9.175.326-.678-.2-1.239-.841-1.383a2.335,2.335,0,0,0-2.212.689c-5.106,6.064-9.317,12.809-14.238,19.014a22.692,22.692,0,0,1,1.76-3.558,77.808,77.808,0,0,1,6.11-8.153,43.985,43.985,0,0,0,5.834-8.67,133.683,133.683,0,0,0,16.689-3.706c12.156-3.391,24.038-7.685,35.934-11.88,11.274-3.976,22.582-7.862,33.983-11.463.829-.262,1.663-.522,2.494-.783q-7.461,4-14.784,8.262" transform="translate(-132.575 -153.252)" fill="#1a1311"/>
</svg>
