<svg xmlns="http://www.w3.org/2000/svg" width="158.027" height="74.549" viewBox="0 0 158.027 74.549">
  <path id="패스_19709" data-name="패스 19709" d="M674.165,77.165c-.239-.886-1.328-.886-2.031-.767-2.781.466-5.547,1.031-8.3,1.663.482-.218.958-.447,1.439-.662q3.091-1.378,6.205-2.7c.552-.235,1.342-.932.855-1.569s-1.676-.406-2.284-.148q-8.786,3.726-17.322,7.947c-3.558,1.012-7.1,2.084-10.622,3.164-11.354,3.482-22.605,7.3-33.815,11.214-11.463,4-22.871,8.19-34.486,11.742-5.7,1.742-11.447,3.356-17.286,4.558-.625.128-1.251.252-1.878.369-.3.058-.612.115-.919.169-.122.021-.243.043-.365.062-.1.017-.2.035-.3.05l-.05.01c-1.179.19-2.36.359-3.547.493-1.113.124-2.232.218-3.35.268-.5.021-.99.035-1.486.037-.237,0-.476-.006-.713-.006.507,0,.021-.017-.119-.033l-.029,0c-.018-.008-.027-.014-.054-.023-.144-.056-.289-.111-.433-.169-.076-.031-.359-.2-.029-.006-.06-.035-.124-.068-.184-.107-.188-.126-.379-.249-.557-.388-.052-.043-.307-.272-.332-.287a5.468,5.468,0,0,1-.408-.466,6.557,6.557,0,0,1-.781-1.247c-1.089-2.387-.911-5.221-.569-7.751a48.575,48.575,0,0,1,4.6-14.374q1.885-1.932,3.795-3.844a.815.815,0,0,0-.385-1.435,2.03,2.03,0,0,0-.536-.076c.035-.058.068-.117.1-.173.451-.742-.406-1.416-1.06-1.509a2.213,2.213,0,0,0-2.212,1.062,61.081,61.081,0,0,0-3.139,5.842,176.137,176.137,0,0,0-12.471,14.108,119.368,119.368,0,0,0-7.4,10.556,36.818,36.818,0,0,0-2.731,4.991,33.428,33.428,0,0,0-1.7,5.209,40.954,40.954,0,0,0-1.078,11.183c.107,2.7.229,5.809,1.68,8.175,3,4.887,10.1,5.347,15.159,4.78,8.165-.917,16.033-4.389,23.324-8a221.746,221.746,0,0,0,23.763-13.72c3.776-2.494,7.5-5.059,11.253-7.592,1.837-1.239,3.682-2.472,5.541-3.682q1.357-.883,2.725-1.748.562-.353,1.126-.7c.181-.111.359-.225.544-.334l.237-.122c2.655-1.307,5.529-2.162,8.13-3.576,1.929-1.049,3.783-2.257,5.667-3.387s3.752-2.249,5.634-3.366c10.076-5.986,20.28-11.737,30.741-17,5.926-1.7,11.9-3.242,17.93-4.436q1.562-.306,3.133-.573c.711-.118,1.585-.891,1.375-1.678M535.794,137.736c-.1.185-.041.045,0,0m8.561-22.065c1.018,0,2.033-.056,3.049-.136a82.78,82.78,0,0,1-6.264,8.155c.027-.322.047-.649.062-.983.019-.406.052-.812.1-1.214.332-.4.653-.8.987-1.192a1.035,1.035,0,0,0-.833-1.734,3.479,3.479,0,0,0-2.738.979,3.249,3.249,0,0,0-.757,1.55c-1.6,1.936-3.16,3.9-4.655,5.908a94.356,94.356,0,0,1,4.127-9.752c.326-.678-.2-1.237-.841-1.383a2.286,2.286,0,0,0-2.21.689c-.066.1-.13.19-.194.284,1.1-2.018,2.183-4.044,3.22-6.095a8.034,8.034,0,0,0,2.121,3.292,6.591,6.591,0,0,0,4.824,1.631m64.71-10.284-.732.443c.033-.021-.254.144-.334.192-.221.115-.443.227-.668.332-.676.317-1.363.608-2.051.893-1.42.592-2.855,1.152-4.255,1.787a36.524,36.524,0,0,0-4.469,2.585c-3.669,2.34-7.268,4.787-10.867,7.233-7.31,4.964-14.66,9.8-22.388,14.1-7.2,4-14.66,7.868-22.555,10.3-5.526,1.7-12.83,3.269-17.806-.3a7.409,7.409,0,0,1-1.859-1.977,3.89,3.89,0,0,1-.453-.9,10.541,10.541,0,0,1-.464-1.793,35.522,35.522,0,0,1-.332-10.569,33.83,33.83,0,0,1,2.622-10.329,41.854,41.854,0,0,1,2.762-4.867q1.719-2.741,3.593-5.378a136.843,136.843,0,0,1,10.154-12.5c-.443,1.33-.841,2.672-1.185,4.024a29.225,29.225,0,0,0-1.043,8.328c.021.5.072.991.138,1.478a2.27,2.27,0,0,0-2.068.713c-1.427,1.946-2.88,3.875-4.339,5.8,1.3-2.568,2.61-5.135,3.871-7.722.936-1.921,1.851-3.853,2.715-5.807.338-.765-.315-1.338-1.037-1.428a2.233,2.233,0,0,0-2.218,1.041c-3.15,7.12-6.883,13.966-10.294,20.962-.936,1.921-1.851,3.853-2.715,5.809-.3.684.181,1.233.841,1.383a2.3,2.3,0,0,0,2.21-.691q1.124-1.53,2.267-3.049c-1.062,2.09-2.08,4.2-3,6.365a1,1,0,0,0,.841,1.383,2.353,2.353,0,0,0,2.212-.691c1.117-1.26,2.179-2.562,3.21-3.89a49.06,49.06,0,0,0-1.614,6.58c-.128.756.765,1.1,1.354,1.107a2.264,2.264,0,0,0,2-1.045c1.8-2.808,3.713-5.526,5.72-8.179-.237.456-.505.9-.779,1.336-.75,1.189-1.781,2.5-2.639,3.754a16.244,16.244,0,0,0-2.379,4.683l-.016.023h.008c-.031.109-.076.212-.1.322-.186.748.816,1.1,1.354,1.109a2.409,2.409,0,0,0,1.358-.4,2.238,2.238,0,0,0,.26,1.177c.682,1.235,2.47,1.144,3.556.563a8.815,8.815,0,0,0,2.461-2.455q1.04-1.288,2.039-2.6c.534-.7,1.057-1.412,1.579-2.123a3.089,3.089,0,0,0-.019,2.109c.841,1.987,3.626,1.649,5.186.818a14.534,14.534,0,0,0,3.848-3.513c1.8-2.065,3.471-4.24,5.114-6.433-.26.594-.5,1.194-.711,1.8-.377,1.119-.489,2.455.656,3.21,1.882,1.239,4.123-.309,5.566-1.5a31.372,31.372,0,0,0,5.856-6.355c.447-.643.878-1.3,1.309-1.948-.008.1-.025.21-.031.317a1.93,1.93,0,0,0,1.195,2.142,4.263,4.263,0,0,0,3.595-.476,16.63,16.63,0,0,0,3.061-2.616c.847-.8,1.707-1.6,2.467-2.3,1.556-1.435,3.129-2.855,4.692-4.284.623-.567,1.229-1.152,1.847-1.725.018.029.027.058.047.087a2.4,2.4,0,0,0,2.286.847c1.585-.128,3.113-1.194,4.461-1.962,1.449-.825,2.869-1.7,4.294-2.562a109.065,109.065,0,0,1,11.5-6.05c-.082.049-.165.091-.249.142a1.643,1.643,0,0,0-.971,1.13.994.994,0,0,0,.742,1.014,3.577,3.577,0,0,0,1.111.208c-.439.262-.876.524-1.315.789M546.82,133.549v0m-.083.023c-.047,0-.06,0,0,0h0m.136.012h0m26.884-12.5,0-.054c.045.078.022.087,0,.054m0-.082v-.012c.012.014.014.019,0,.012m37.395-18.9.01,0c-.087.017-.151.039-.01,0m.07-.017c.064-.016.052-.006,0,0m14.452-6.568a.837.837,0,0,0-.089-.427,1.674,1.674,0,0,0-1.942-.561,107.815,107.815,0,0,0-16.367,6.007q-3.854,1.78-7.553,3.871c-2.552,1.443-4.941,2.989-7.456,4.411-.517.293-1.045.569-1.571.847.023-.107.047-.208.066-.285.062-.239.1-.484.155-.724.016-.068.031-.136.045-.2a2.009,2.009,0,0,1,.082-.192c.027-.054.058-.109.089-.161a4.194,4.194,0,0,0,.3-.344.987.987,0,0,0-.439-1.645,2.4,2.4,0,0,0-2.408.645c-2.95,2.828-5.815,5.419-8.866,8.206q-2.409,2.2-4.78,4.444c-.227.214-.452.429-.678.643-.2.186-.344.338-.455.431l-.029.021a38.074,38.074,0,0,1,1.19-6.522c.155-.645-.635-1.041-1.134-1.1a2.352,2.352,0,0,0-2.016.734c-1.74,2.156-3.381,4.65-4.836,6.838a34.772,34.772,0,0,1-4.487,5.6c-.452.439-.862.8-1.443,1.286q-.437.364-.888.713l-.037.025a.451.451,0,0,1,0-.07,2.313,2.313,0,0,1,.062-.284c.023-.064.043-.13.064-.192a54.146,54.146,0,0,1,2.527-5.529c1.19-2.435,2.426-4.861,3.447-7.373a1,1,0,0,0-.841-1.383,2.364,2.364,0,0,0-2.212.689c-4.222,4.6-7.648,9.839-11.562,14.691-.995,1.233-2.02,2.445-3.1,3.607a7.8,7.8,0,0,1-1.26,1.152c-.037.027-.056.043-.078.06a1.324,1.324,0,0,0-.134.062.646.646,0,0,0-.113.066.681.681,0,0,0-.074.008l-.012-.008V133.5c-.008-.462-.037.245-.037-.243a3.38,3.38,0,0,1,.08-.583,15.176,15.176,0,0,1,.975-2.3c.639-1.375,1.342-2.721,2.072-4.051,1.682-3.053,3.5-6.032,5.013-9.175.326-.678-.2-1.239-.841-1.383a2.334,2.334,0,0,0-2.212.689c-5.106,6.064-9.317,12.809-14.238,19.014a22.7,22.7,0,0,1,1.76-3.558,77.8,77.8,0,0,1,6.11-8.153,44.034,44.034,0,0,0,5.836-8.672,133.368,133.368,0,0,0,16.687-3.7c12.156-3.391,24.039-7.687,35.935-11.88,11.274-3.976,22.582-7.862,33.983-11.463.829-.262,1.662-.522,2.494-.783q-7.461,4-14.784,8.262" transform="translate(-516.17 -72.721)" fill="#1a1311"/>
</svg>
