<svg xmlns="http://www.w3.org/2000/svg" width="136.803" height="65.224" viewBox="0 0 136.803 65.224">
  <path id="패스_19706" data-name="패스 19706" d="M392.159,4.146c-.089.045-.175.1-.264.14a1.555,1.555,0,0,0-1.228.375c-.287.262-.587.511-.88.765-1.88,1.072-3.717,2.23-5.6,3.284a44.516,44.516,0,0,1-4.58,2.15q-3.945,1.661-7.9,3.3-4.035,1.669-8.081,3.309c-.072,0-.134,0-.159.006a2.743,2.743,0,0,0-.89.239,1.9,1.9,0,0,0-.346.1c-4.323,1.861-8.8,3.319-13.156,5.106-4.152,1.707-8.085,3.88-12.113,5.848-5.541,2.705-11.245,5.1-16.9,7.551q-6.351,2.75-12.745,5.392a33.947,33.947,0,0,1-6.176,2.282,32.764,32.764,0,0,1-6.394.684,21.82,21.82,0,0,1-5.8-.911,47.709,47.709,0,0,1-5.417-1.674,62.263,62.263,0,0,1-6.334-3.259c-2.039-1.125-4.232-2-6.215-3.218s-3.849-2.618-5.951-3.653a16.6,16.6,0,0,0-6.854-1.8,1.147,1.147,0,0,0-.2.027c-.6-.326-1.95.186-1.682.724a14.07,14.07,0,0,1,1.064,3.846c.274,1.556.524,3.115.789,4.671L260.012,50.4c.585,3.445,1.057,7.005,2.395,10.259a14.458,14.458,0,0,0,6.332,6.838,11.172,11.172,0,0,0,7.813,1.645c1.8-.287,3.611-.484,5.4-.794,6.013-1.041,11.389-3.651,16.712-6.524,7.38-3.985,14.805-7.893,22.2-11.849,2.237-1.2,4.382-2.591,6.569-3.877,3.016-1.775,6.042-3.533,9.062-5.3,6.017-3.525,12.009-7.1,17.845-10.925,6.007-3.937,11.766-8.235,17.985-11.843,5.5-3.193,11.222-6.071,16.285-9.96q1.678-1.291,3.247-2.711c.286-.155.573-.309.862-.454.771-.385.084-1.08-.563-.757m-13.18,7.973c1.509-.633,3.032-1.235,4.49-1.971q-.787.513-1.587,1.006a2.523,2.523,0,0,0-1.393.437l-1.476,1.066a4.26,4.26,0,0,0-.862.111,8.247,8.247,0,0,0-2.478,1.29l-3.04,1.917.233-.554c.165-.388-.641-.353-.8-.338a3.289,3.289,0,0,0-.482.087c2.463-1.018,4.933-2.018,7.39-3.051m-35.789,23.3q-1.433.868-2.871,1.73a30.858,30.858,0,0,1,4.277-6.491c-.4,1.565-.862,3.108-1.391,4.648a.27.27,0,0,0-.016.113m11.5-12.018q-1.27,3.2-2.54,6.413l0,.017q-2.657,1.716-5.345,3.377c1.494-1.866,3.1-3.644,4.492-5.594a29.63,29.63,0,0,1,3.4-4.215m3.007-2.243q1.1-.411,2.189-.833-1.739,1.853-3.366,3.807.589-1.489,1.177-2.973M364,18.3c.153-.062.307-.128.46-.19-.245.223-.486.453-.726.68.089-.163.179-.326.266-.489m4.055-1.674c.967-.4,1.934-.8,2.9-1.2a1.3,1.3,0,0,0-.258.21,39.39,39.39,0,0,1-3.729,3.587q.542-1.3,1.086-2.6M304.527,44.458c4.76-1.888,9.466-3.941,14.17-5.97,5.5-2.375,11-4.749,16.448-7.25,4.415-2.028,8.656-4.413,13.1-6.386,1.719-.763,3.469-1.451,5.227-2.117a24.284,24.284,0,0,0-3.958,4.543c-.876,1.227-1.83,2.389-2.787,3.548.3-1.13.563-2.272.771-3.436.144-.814-1.929-.035-2.171.221-1.187,1.243-2.329,2.505-3.385,3.82.3-.956.608-1.909.893-2.869.217-.726-1.931-.082-2.171.221l-6.221,7.821c.517-1.259,1.062-2.5,1.647-3.735.157-.332-.515-.353-.656-.352a2.686,2.686,0,0,0-1.362.439,26.628,26.628,0,0,0-6.32,5.693c.5-1.226,1.018-2.447,1.569-3.655.152-.334-.509-.355-.656-.352a2.578,2.578,0,0,0-1.361.437c-3.376,2.344-5.714,5.85-8.278,8.987-1.474,1.8-2.836,3.692-4.22,5.56.383-.89.853-1.752,1.266-2.562.919-1.8,1.977-3.725,1.9-5.807-.021-.614-1.808.039-2.028.212a68.687,68.687,0,0,0-6.86,6.087,6.275,6.275,0,0,0,.225-4.137c-.173-.478-1.284-.134-1.554-.035a22.242,22.242,0,0,0-9.486,7.11c.076-.192.148-.385.223-.577.548-1.363,1.348-2.748,1.35-4.24a22.127,22.127,0,0,0,4.685-1.222m2.3,8.474a34.031,34.031,0,0,1,2.727-3.706,50.088,50.088,0,0,1,5.978-5.788,20.313,20.313,0,0,1-1.931,4.4c-.9,1.758-1.909,3.667-1.8,5.7-2.449,1.325-4.9,2.649-7.371,3.931.82-1.5,1.641-3,2.4-4.535M275.5,39.838c1.8.985,3.57,2.024,5.419,2.909a35.566,35.566,0,0,0,5.689,2,35.892,35.892,0,0,0,5.366,1.245,22.665,22.665,0,0,0,4.294.087c-5.129,3.067-8.3,8.227-11.117,13.545.388-1.022.8-2.033,1.241-3.032.781-1.76,1.661-3.471,2.6-5.151a11.362,11.362,0,0,0,1.816-4.887c.039-.744-1.2-.48-1.587-.319-4.182,1.738-7.128,5.972-9.491,9.655-1.229,1.919-2.37,3.894-3.548,5.842-.59.975-1.191,1.946-1.816,2.9-.017.027-.037.054-.054.08.352-1,.728-1.973.806-2.183a51.149,51.149,0,0,1,2.078-4.838c1.54-3.121,3.579-5.916,5.252-8.953a4.131,4.131,0,0,0,.792-1.894c-.045-.682-.722-.923-1.315-.969a6.733,6.733,0,0,0-4.378,1.595,24.273,24.273,0,0,0-2.96,2.713c.561-.759,1.117-1.525,1.629-2.317a8.093,8.093,0,0,0,1.563-5.1c-.06-.7-1.569-.175-1.843-.029a17.585,17.585,0,0,0-4.578,3.75,10.4,10.4,0,0,0,1.391-4.772c.006-.616-.888-.534-1.29-.42-2.457.7-4.059,2.771-5.693,4.607-.047.052-.091.109-.14.161q.449-1,.9-2c.563-1.264,1.132-2.527,1.721-3.778.478-1.014,1.451-2.366,1.229-3.562l.282.173c1.843,1.107,3.853,1.909,5.739,2.944m-12.807,14.52c-.14-.719-.264-1.441-.4-2.162a1.741,1.741,0,0,0,.717-.487c1.381-1.657,2.744-3.327,4.16-4.953q1.1-1.267,2.249-2.494c.289-.307.594-.645.925-.954-.468,2.655-2.189,4.951-3.529,7.252q-1.894,3.248-3.494,6.65c-.245-.957-.449-1.919-.631-2.853M263.261,33a7.155,7.155,0,0,0-1.913,2.931,23.247,23.247,0,0,1,.721-3.447c.4.155.8.33,1.193.517m5.257,3.117a3.043,3.043,0,0,0-1.142.462,20.507,20.507,0,0,0-3.927,4.038q.821-3.307,1.736-6.59c1.126.66,2.228,1.387,3.333,2.09M260.7,42.873c-.014-.089-.029-.177-.043-.266a.987.987,0,0,0,.128-.1c-.027.12-.056.241-.085.361m-1.616-9.55a16.4,16.4,0,0,0-.406-1.645,11.664,11.664,0,0,1,1.445.223,7.738,7.738,0,0,0-1.039,1.422m2.972,12.939a38.241,38.241,0,0,1,4.387-6.677c-.179.375-.359.75-.536,1.125-.565,1.206-1.113,2.422-1.655,3.64-.794,1.779-1.595,3.552-2.418,5.316-.173-.987-.336-1.973-.5-2.962a1.408,1.408,0,0,0,.723-.441m2.5,12.941a65.754,65.754,0,0,1,5.636-8.678,33.373,33.373,0,0,1,5.252-5.842,10.184,10.184,0,0,1-1.971,4.061c-1.187,1.659-2.412,3.28-3.533,4.988q-1.722,2.613-3.232,5.36a24.3,24.3,0,0,0-1.5,2.834,13.772,13.772,0,0,1-1.134-2.333,1.008,1.008,0,0,0,.482-.39m2.142,4.619a.907.907,0,0,0,.188-.12c1.657-1.618,2.556-3.731,3.791-5.661a51.739,51.739,0,0,1,4.413-5.914q1.273-1.474,2.665-2.843a7.748,7.748,0,0,1,2.721-2.055c.839-.274.276.68.07,1.074-.3.571-.627,1.13-.963,1.682-.7,1.15-1.449,2.265-2.15,3.41a54.4,54.4,0,0,0-3.484,6.693q-.8,1.821-1.453,3.7a20.3,20.3,0,0,0-1.062,3.389c-.41-.2-.81-.421-1.2-.655a18.381,18.381,0,0,1-3.539-2.7m8.142,4.347a6.978,6.978,0,0,1-1.024-.144,7.641,7.641,0,0,0,2.067-2.441c1.365-1.995,2.591-4.081,3.83-6.153a72.889,72.889,0,0,1,4.384-6.73,21.679,21.679,0,0,1,4.22-4.5,17.338,17.338,0,0,1-1.787,3.826q-1.384,2.505-2.533,5.133-1.171,2.674-2.082,5.456c-.309.942-.579,1.9-.856,2.845a3.246,3.246,0,0,0-.126,1.894c-.408.066-.816.132-1.228.192a25.574,25.574,0,0,1-4.865.623m8.612-1.268c2.336-4.135,4.331-8.474,6.866-12.494a22.926,22.926,0,0,1,7.19-7.567,18.805,18.805,0,0,1-1.383,3.6c-.583,1.466-1.132,2.942-1.668,4.426-.715,1.987-1.4,3.983-2.084,5.982-.482,1.187-.919,2.375-1.305,3.546-1.126.5-2.263.963-3.426,1.369a33.586,33.586,0,0,1-4.189,1.132m10.317-3.76q.542-1.591,1.086-3.179a40.307,40.307,0,0,1,4.861-8.66,21.866,21.866,0,0,1,7.489-6.635,7.207,7.207,0,0,1-.565,3.793c-.474,1.3-1.006,2.589-1.591,3.846-.14.3-.289.594-.435.89a38.8,38.8,0,0,0-3.088,5.813c-2.571,1.391-5.133,2.832-7.757,4.133m21.5-11.473c1.921-2.478,3.688-5.075,5.685-7.495,1.624-1.965,3.139-4.114,4.889-6.011-1.288,3.074-2.439,6.2-3.581,9.338a.171.171,0,0,0,.093.233c-2.333,1.371-4.7,2.657-7.085,3.935m9.783-5.526a50.576,50.576,0,0,1,4.211-6.879,25.7,25.7,0,0,1,3.56-3.813q-1.334,3.059-2.395,6.232c-.235.7,1.929.084,2.171-.223q3.347-4.207,6.695-8.416c-.588,1.849-1.177,3.7-1.732,5.557a.2.2,0,0,0,.023.171c-4.172,2.465-8.359,4.9-12.533,7.371m31.009-18.89c1.018-1.34,2.065-2.657,3.156-3.937l-.4.74c-.2.375.678.35.8.338a2.143,2.143,0,0,0,1.373-.559c1.138-1.361,2.34-2.669,3.591-3.925q-.39.932-.779,1.863a.183.183,0,0,0,.023.2c-1.923,1.293-3.832,2.608-5.741,3.923-.668.458-1.348.9-2.02,1.356" transform="translate(-256.26 -4.063)" fill="#1a1311"/>
</svg>
