<svg xmlns="http://www.w3.org/2000/svg" width="108.339" height="59.813" viewBox="0 0 108.339 59.813">
  <path id="패스_19712" data-name="패스 19712" d="M280.858,194.444a4.688,4.688,0,0,0,3.323.328,22.3,22.3,0,0,0,3.836-1.068c2.418-.872,4.789-1.9,7.19-2.82q8.038-3.088,16.2-5.832c5.687-1.9,11.424-3.636,17.188-5.281,6.145-1.754,12.315-3.426,18.474-5.141,5.879-1.639,11.643-3.56,17.416-5.541.231-.08.464-.159.7-.237l.373-.128c.076-.025.439-.148.111-.037.313-.1,1.057-.326,1.117-.755.037-.264.076-.528.113-.792a.352.352,0,0,0-.247-.412,6.2,6.2,0,0,0-1.577-.392,4.06,4.06,0,0,0-2.111.866q-.728.44-1.49.825a31.785,31.785,0,0,1-5.885,2.158c-4.62,1.294-9.255,2.527-13.867,3.847-8.726,2.5-17.423,5.1-26.047,7.934q-6.741,2.22-13.426,4.6c-2.051.732-4.129,1.42-6.147,2.239-1.233.5-2.445,1.057-3.665,1.593-1.422.623-2.843,1.251-4.294,1.8-.266.1-.536.2-.806.293.385-.136-.029.008-.109.031a3.511,3.511,0,0,0-.34.091l-.029.008-.115.023c-.091.019-.183.039-.276.062-.258.066-.511.153-.761.239-.441.15-.948.355-1.34.487a4.983,4.983,0,0,1-.583.161c.165-.031-.2-.023-.039,0a1.381,1.381,0,0,1-.825-.559,3.982,3.982,0,0,1-.7-2.105c-.179-1.69.1-3.4-.13-5.087-1.047-7.843-.326-15.967-2.783-23.594a24.29,24.29,0,0,0-1.068-2.738c-.371-.8-2.315-.152-2.55.519q-1.334,3.834-2.678,7.662-2.272,6.485-4.576,12.96c-1.511,4.218-3.051,8.427-4.56,12.648-1.093,3.057-2.354,6.052-3.42,9.117a39.214,39.214,0,0,0-1.542,5.458,13.554,13.554,0,0,0-.216,4.836,8.9,8.9,0,0,0,1.987,4.071,5.249,5.249,0,0,0,3.82,2.142,21.771,21.771,0,0,0,2.195,0c1-.023,2-.023,2.995-.117a22.6,22.6,0,0,0,6.3-1.55,177.224,177.224,0,0,1,21-6.384c5.731-1.492,11.509-3.142,16.579-6.291,2.6-1.616,5.108-3.376,7.685-5.028,1.2-.771,2.447-1.459,3.636-2.243,1.569-1.035,3.082-2.15,4.6-3.257A183.449,183.449,0,0,1,346.817,183.2c2.533-1.445,4.978-2.991,7.452-4.531,1.088-.676,2.23-1.251,3.346-1.878,1.154-.647,2.286-1.332,3.43-2,1.453-.845,2.927-1.647,4.42-2.418.355-.183.754-.66.245-.915a2.258,2.258,0,0,0-1.8.26c-2.673,1.381-5.228,2.946-7.848,4.417-1.1.616-2.224,1.181-3.3,1.845-1.144.711-2.272,1.447-3.41,2.167-2.779,1.758-5.7,3.3-8.544,4.953-2.789,1.628-5.543,3.311-8.235,5.094-2.972,1.969-5.8,4.137-8.742,6.137-1.2.818-2.467,1.521-3.694,2.3-1.2.761-2.389,1.556-3.574,2.346a74.225,74.225,0,0,1-7.256,4.518c-.169.085.177-.084.012-.006l-.181.085c-.157.074-.317.146-.474.218-.361.163-.726.32-1.092.474q-.99.417-2,.79c-1.4.52-2.577.9-4.059,1.34-6.427,1.911-12.993,3.288-19.375,5.37-1.989.649-3.966,1.342-5.92,2.094a22.986,22.986,0,0,1-5.543,1.6,26.92,26.92,0,0,1-2.8.13c-.693.014-1.4.078-2.088.023-1.328-.1-2.348-1.226-3.144-2.321-1.977-2.723-1.659-5.982-.9-9.084a87.283,87.283,0,0,1,3.513-10.086c1.734-4.566,3.317-9.194,4.988-13.786,1.451-3.993,2.855-8.006,4.263-12.014q1.771-5.04,3.529-10.082l.192-.548q-1.276.259-2.55.517c3.4,7.345,2.892,15.811,3.56,23.687a47.883,47.883,0,0,1,.379,4.972c-.029,1.581-.2,3.4.676,4.807,1.187,1.907,3.593,1.235,5.333.6.387-.142.8-.3,1.074-.377.049-.016.344-.093.132-.039-.266.068.206-.039.326-.068s.223-.056.332-.087c.62-.179,1.229-.4,1.83-.637,2.667-1.035,5.228-2.319,7.887-3.374,4.253-1.688,8.625-3.129,12.954-4.611,8.423-2.882,16.922-5.529,25.464-8.035q6.861-2.01,13.745-3.937c4.366-1.227,8.9-2.125,13.007-4.106a25.381,25.381,0,0,0,2.956-1.664c-.6.087-1.2.175-1.8.26l1.064.309c-.084-.138-.167-.274-.249-.412-.039.264-.076.53-.115.794l1.119-.755c-5.18,1.73-10.305,3.62-15.567,5.1-6.23,1.75-12.477,3.443-18.705,5.2-5.63,1.583-11.241,3.232-16.808,5.028q-8.542,2.762-16.951,5.922-3.729,1.407-7.437,2.873c-1.006.4-2,.827-3.024,1.189-.058.021-.338.117-.26.091s-.284.091-.352.111c-.291.091-.585.177-.88.254a6.694,6.694,0,0,1-1.455.272c.2-.016-.161,0-.216,0a1.6,1.6,0,0,1-.167,0c.021,0,.14.016.021,0a.76.76,0,0,1-.317-.08,1.875,1.875,0,0,0-1.68.017c-.186.076-1.175.641-.7.95" transform="translate(-258.561 -159.15)" fill="#1a1311"/>
</svg>
