<svg id="구성_요소_8_1" data-name="구성 요소 8 – 1" xmlns="http://www.w3.org/2000/svg" width="72" height="72" viewBox="0 0 72 72">
  <rect id="사각형_5172" data-name="사각형 5172" width="72" height="72"/>
  <g id="그룹_10637" data-name="그룹 10637" transform="translate(9192 19844.594)">
    <g id="그룹_10633" data-name="그룹 10633" transform="translate(-9184.241 -19832.076)">
      <g id="그룹_10632" data-name="그룹 10632" transform="translate(0 0)">
        <rect id="사각형_5116" data-name="사각형 5116" width="4" height="4" transform="translate(0.241 25.482)" fill="#424242"/>
        <rect id="사각형_5145" data-name="사각형 5145" width="2" height="4" transform="translate(4.241 25.482)" fill="#424242"/>
        <rect id="사각형_5146" data-name="사각형 5146" width="5" height="11" transform="translate(6.241 21.482)" fill="#424242"/>
        <rect id="사각형_5128" data-name="사각형 5128" width="2" height="3" transform="translate(4.241 29.482)" fill="#424242"/>
        <rect id="사각형_5122" data-name="사각형 5122" width="4" height="4" transform="translate(14.241 10.482)" fill="#424242"/>
        <rect id="사각형_5124" data-name="사각형 5124" width="4" height="4" transform="translate(18.241 43.482)" fill="#424242"/>
        <rect id="사각형_5118" data-name="사각형 5118" width="5" height="3" transform="translate(6.241 18.482)" fill="#424242"/>
        <rect id="사각형_5125" data-name="사각형 5125" width="3" height="4" transform="translate(11.241 36.482)" fill="#424242"/>
        <rect id="사각형_5132" data-name="사각형 5132" width="24" height="4" transform="translate(33.241 36.482)" fill="#424242"/>
        <rect id="사각형_5133" data-name="사각형 5133" width="24" height="4" transform="translate(33.241 14.482)" fill="#424242"/>
        <rect id="사각형_5120" data-name="사각형 5120" width="3" height="5" transform="translate(22.241 2.482)" fill="#424242"/>
        <rect id="사각형_5129" data-name="사각형 5129" width="4" height="3" transform="translate(25.241 51.482)" fill="#424242"/>
        <rect id="사각형_5117" data-name="사각형 5117" width="2" height="4" transform="translate(4.241 21.482)" fill="#424242"/>
        <rect id="사각형_5130" data-name="사각형 5130" width="5" height="4" transform="translate(6.241 32.482)" fill="#424242"/>
        <rect id="사각형_5121" data-name="사각형 5121" width="4" height="3" transform="translate(18.241 7.482)" fill="#424242"/>
        <rect id="사각형_5126" data-name="사각형 5126" width="3" height="4" transform="translate(22.241 47.482)" fill="#424242"/>
        <rect id="사각형_5131" data-name="사각형 5131" width="4" height="15" transform="translate(29.241 36.482)" fill="#424242"/>
        <rect id="사각형_5134" data-name="사각형 5134" width="4" height="16" transform="translate(29.241 2.482)" fill="#424242"/>
        <rect id="사각형_5137" data-name="사각형 5137" width="4" height="16" transform="translate(25.241 2.482)" fill="#424242"/>
        <rect id="사각형_5138" data-name="사각형 5138" width="3" height="11" transform="translate(22.241 7.482)" fill="#424242"/>
        <rect id="사각형_5139" data-name="사각형 5139" width="4" height="8" transform="translate(18.241 10.482)" fill="#424242"/>
        <rect id="사각형_5135" data-name="사각형 5135" width="4" height="18" transform="translate(57.241 18.482)" fill="#424242"/>
        <rect id="사각형_5136" data-name="사각형 5136" width="46" height="18" transform="translate(11.241 18.482)" fill="#424242"/>
        <rect id="사각형_5119" data-name="사각형 5119" width="3" height="4" transform="translate(11.241 14.482)" fill="#424242"/>
        <rect id="사각형_5140" data-name="사각형 5140" width="5" height="4" transform="translate(14.241 14.482)" fill="#424242"/>
        <g id="그룹_10631" data-name="그룹 10631" transform="translate(14.094 36.648)">
          <rect id="사각형_5144" data-name="사각형 5144" width="4" height="15" transform="translate(11.147 -0.166)" fill="#424242"/>
          <rect id="사각형_5143" data-name="사각형 5143" width="3" height="11" transform="translate(8.147 -0.166)" fill="#424242"/>
          <rect id="사각형_5142" data-name="사각형 5142" width="4" height="8" transform="translate(4.147 -0.166)" fill="#424242"/>
          <rect id="사각형_5141" data-name="사각형 5141" width="5" height="4" transform="translate(0.147 -0.166)" fill="#424242"/>
        </g>
        <rect id="사각형_5127" data-name="사각형 5127" width="4" height="3" transform="translate(14.241 40.482)" fill="#424242"/>
        <rect id="사각형_5123" data-name="사각형 5123" width="4" height="2" transform="translate(25.241 0.482)" fill="#424242"/>
      </g>
    </g>
    <g id="그룹_10634" data-name="그룹 10634" transform="translate(-9188 -19839.594)">
      <g id="그룹_10632-2" data-name="그룹 10632" transform="translate(0 0)">
        <rect id="사각형_5116-2" data-name="사각형 5116" width="4" height="3" transform="translate(0 26)"/>
        <rect id="사각형_5145-2" data-name="사각형 5145" width="4" height="3" transform="translate(4 26)" fill="#fff"/>
        <rect id="사각형_5146-2" data-name="사각형 5146" width="2" height="12" transform="translate(8 22)" fill="#fff"/>
        <rect id="사각형_5128-2" data-name="사각형 5128" width="4" height="4" transform="translate(4 29)"/>
        <rect id="사각형_5122-2" data-name="사각형 5122" width="4" height="5" transform="translate(15 10)"/>
        <rect id="사각형_5124-2" data-name="사각형 5124" width="3" height="4" transform="translate(19 44)"/>
        <rect id="사각형_5118-2" data-name="사각형 5118" width="2" height="3" transform="translate(8 19)"/>
        <rect id="사각형_5125-2" data-name="사각형 5125" width="5" height="3" transform="translate(10 37)"/>
        <rect id="사각형_5132-2" data-name="사각형 5132" width="25" height="3" transform="translate(33 37)"/>
        <rect id="사각형_5133-2" data-name="사각형 5133" width="25" height="4" transform="translate(33 15)"/>
        <rect id="사각형_5120-2" data-name="사각형 5120" width="4" height="4" transform="translate(22 4)"/>
        <rect id="사각형_5129-2" data-name="사각형 5129" width="3" height="3" transform="translate(26 52)"/>
        <rect id="사각형_5117-2" data-name="사각형 5117" width="4" height="4" transform="translate(4 22)"/>
        <rect id="사각형_5130-2" data-name="사각형 5130" width="2" height="4" transform="translate(8 33)"/>
        <rect id="사각형_5121-2" data-name="사각형 5121" width="3" height="2" transform="translate(19 8)"/>
        <rect id="사각형_5126-2" data-name="사각형 5126" width="4" height="4" transform="translate(22 48)"/>
        <rect id="사각형_5131-2" data-name="사각형 5131" width="4" height="15" transform="translate(29 37)"/>
        <rect id="사각형_5134-2" data-name="사각형 5134" width="4" height="15" transform="translate(29 4)"/>
        <rect id="사각형_5137-2" data-name="사각형 5137" width="3" height="15" transform="translate(26 4)" fill="#fff"/>
        <rect id="사각형_5138-2" data-name="사각형 5138" width="4" height="11" transform="translate(22 8)" fill="#fff"/>
        <rect id="사각형_5139-2" data-name="사각형 5139" width="3" height="9" transform="translate(19 10)" fill="#fff"/>
        <rect id="사각형_5135-2" data-name="사각형 5135" width="3" height="18" transform="translate(58 19)"/>
        <rect id="사각형_5136-2" data-name="사각형 5136" width="48" height="18" transform="translate(10 19)" fill="#fff"/>
        <rect id="사각형_5119-2" data-name="사각형 5119" width="5" height="4" transform="translate(10 15)"/>
        <rect id="사각형_5140-2" data-name="사각형 5140" width="4" height="4" transform="translate(15 15)" fill="#fff"/>
        <g id="그룹_10631-2" data-name="그룹 10631" transform="translate(15.035 36.648)">
          <rect id="사각형_5144-2" data-name="사각형 5144" width="3" height="15" transform="translate(10.965 0.352)" fill="#fff"/>
          <rect id="사각형_5143-2" data-name="사각형 5143" width="4" height="11" transform="translate(6.965 0.352)" fill="#fff"/>
          <rect id="사각형_5142-2" data-name="사각형 5142" width="3" height="7" transform="translate(3.965 0.352)" fill="#fff"/>
          <rect id="사각형_5141-2" data-name="사각형 5141" width="4" height="3" transform="translate(-0.035 0.352)" fill="#fff"/>
        </g>
        <rect id="사각형_5127-2" data-name="사각형 5127" width="4" height="4" transform="translate(15 40)"/>
        <rect id="사각형_5123-2" data-name="사각형 5123" width="3" height="4" transform="translate(26 0)"/>
      </g>
    </g>
  </g>
</svg>
