<svg id="구성_요소_14_1" data-name="구성 요소 14 – 1" xmlns="http://www.w3.org/2000/svg" width="72" height="102" viewBox="0 0 72 102">
  <rect id="사각형_5613" data-name="사각형 5613" width="72" height="102" fill="none"/>
  <g id="그룹_11011" data-name="그룹 11011" transform="translate(-1348 -71)">
    <rect id="사각형_5551" data-name="사각형 5551" width="4" height="32" transform="translate(1382 116)"/>
    <rect id="사각형_5552" data-name="사각형 5552" width="16" height="4" transform="translate(1376 130)"/>
    <rect id="사각형_5553" data-name="사각형 5553" width="4" height="10" transform="translate(1374 122)"/>
    <rect id="사각형_5554" data-name="사각형 5554" width="4" height="10" transform="translate(1390 132)"/>
    <rect id="사각형_5555" data-name="사각형 5555" width="16" height="4" transform="translate(1376 140)"/>
    <rect id="사각형_5556" data-name="사각형 5556" width="16" height="4" transform="translate(1376 120)"/>
    <rect id="사각형_5557" data-name="사각형 5557" width="4" height="4" transform="translate(1374 138)"/>
    <rect id="사각형_5558" data-name="사각형 5558" width="4" height="4" transform="translate(1390 122)"/>
    <rect id="사각형_5575" data-name="사각형 5575" width="4" height="4" transform="translate(1390 162)"/>
    <rect id="사각형_5579" data-name="사각형 5579" width="4" height="4" transform="translate(1390 86)"/>
    <rect id="사각형_5566" data-name="사각형 5566" width="4" height="4" transform="translate(1374 162)"/>
    <rect id="사각형_5580" data-name="사각형 5580" width="4" height="4" transform="translate(1374 86)"/>
    <rect id="사각형_5562" data-name="사각형 5562" width="4" height="4" transform="translate(1362 158)"/>
    <rect id="사각형_5581" data-name="사각형 5581" width="4" height="4" transform="translate(1362 82)"/>
    <rect id="사각형_5573" data-name="사각형 5573" width="4" height="4" transform="translate(1394 158)"/>
    <rect id="사각형_5582" data-name="사각형 5582" width="4" height="4" transform="translate(1394 82)"/>
    <rect id="사각형_5564" data-name="사각형 5564" width="4" height="4" transform="translate(1378 158)"/>
    <rect id="사각형_5583" data-name="사각형 5583" width="4" height="4" transform="translate(1378 82)"/>
    <rect id="사각형_5576" data-name="사각형 5576" width="4" height="72" transform="translate(1406 86)"/>
    <rect id="사각형_5577" data-name="사각형 5577" width="4" height="72" transform="translate(1358 86)"/>
    <rect id="사각형_5578" data-name="사각형 5578" width="4" height="52" transform="translate(1410 108) rotate(90)"/>
    <rect id="사각형_5590" data-name="사각형 5590" width="4" height="36" transform="translate(1402 100) rotate(90)"/>
    <rect id="사각형_5591" data-name="사각형 5591" width="4" height="36" transform="translate(1402 94) rotate(90)"/>
    <rect id="사각형_5563" data-name="사각형 5563" width="4" height="4" transform="translate(1370 158)"/>
    <rect id="사각형_5584" data-name="사각형 5584" width="4" height="4" transform="translate(1370 82)"/>
    <rect id="사각형_5571" data-name="사각형 5571" width="4" height="4" transform="translate(1402 158)"/>
    <rect id="사각형_5585" data-name="사각형 5585" width="4" height="4" transform="translate(1402 82)"/>
    <rect id="사각형_5565" data-name="사각형 5565" width="4" height="4" transform="translate(1386 158)"/>
    <rect id="사각형_5586" data-name="사각형 5586" width="4" height="4" transform="translate(1386 82)"/>
    <rect id="사각형_5561" data-name="사각형 5561" width="4" height="4" transform="translate(1366 154)"/>
    <rect id="사각형_5587" data-name="사각형 5587" width="4" height="4" transform="translate(1366 78)"/>
    <rect id="사각형_5574" data-name="사각형 5574" width="4" height="4" transform="translate(1398 154)"/>
    <rect id="사각형_5588" data-name="사각형 5588" width="4" height="4" transform="translate(1398 78)"/>
    <rect id="사각형_5567" data-name="사각형 5567" width="4" height="4" transform="translate(1382 154)"/>
    <rect id="사각형_5589" data-name="사각형 5589" width="4" height="4" transform="translate(1382 78)"/>
  </g>
</svg>
