<svg id="HOME" xmlns="http://www.w3.org/2000/svg" width="72" height="72" viewBox="0 0 72 72">
  <g id="그룹_11916" data-name="그룹 11916" transform="translate(-802 -2633.631)">
    <rect id="사각형_7115" data-name="사각형 7115" width="72" height="72" transform="translate(802 2633.631)"/>
    <g id="그룹_11915" data-name="그룹 11915" transform="translate(809.2 2642.271)">
      <rect id="사각형_7100" data-name="사각형 7100" width="30" height="6" transform="translate(5.8 51.36) rotate(-90)" fill="#fff"/>
      <rect id="사각형_7103" data-name="사각형 7103" width="11" height="6" transform="translate(5.8 15.36)" fill="#fff"/>
      <rect id="사각형_7110" data-name="사각형 7110" width="12" height="6" transform="translate(-0.2 21.36)" fill="#fff"/>
      <rect id="사각형_7108" data-name="사각형 7108" width="11.314" height="5.324" transform="translate(39.72 16.108)" fill="#fff"/>
      <rect id="사각형_7109" data-name="사각형 7109" width="12" height="6" transform="translate(45.8 21.36)" fill="#fff"/>
      <rect id="사각형_7104" data-name="사각형 7104" width="11" height="5" transform="translate(11.8 10.36)" fill="#fff"/>
      <rect id="사각형_7106" data-name="사각형 7106" width="11" height="5" transform="translate(34.8 10.36)" fill="#fff"/>
      <rect id="사각형_7105" data-name="사각형 7105" width="22.812" height="5.324" transform="translate(17.092 5.459)" fill="#fff"/>
      <rect id="사각형_7111" data-name="사각형 7111" width="12" height="5" transform="translate(22.8 0.36)" fill="#fff"/>
      <rect id="사각형_7114" data-name="사각형 7114" width="11.314" height="5.324" transform="translate(22.749 27.807)" fill="#fff"/>
      <rect id="사각형_7112" data-name="사각형 7112" width="16.638" height="5.324" transform="translate(22.749 33.079) rotate(90)" fill="#fff"/>
      <rect id="사각형_7113" data-name="사각형 7113" width="16.638" height="5.324" transform="translate(39.387 33.079) rotate(90)" fill="#fff"/>
      <rect id="사각형_7101" data-name="사각형 7101" width="30" height="5" transform="translate(45.8 51.36) rotate(-90)" fill="#fff"/>
      <rect id="사각형_7102" data-name="사각형 7102" width="44.668" height="5.324" transform="translate(5.794 49.717)" fill="#fff"/>
    </g>
  </g>
</svg>
