<svg id="그룹_11271" data-name="그룹 11271" xmlns="http://www.w3.org/2000/svg" width="1920" height="1080" viewBox="0 0 1920 1080">
  <g id="그룹_11267" data-name="그룹 11267" transform="translate(11.5)">
    <path id="패스_10043" data-name="패스 10043" d="M-13453-5667h1080" transform="translate(-4262.5 13453) rotate(90)" fill="none" stroke="#000" stroke-width="1"/>
    <path id="패스_19254" data-name="패스 19254" d="M-13453-5667h1080" transform="translate(-4034.5 13453) rotate(90)" fill="none" stroke="#000" stroke-width="1"/>
    <path id="패스_19255" data-name="패스 19255" d="M-13453-5667h1080" transform="translate(-3806.5 13453) rotate(90)" fill="none" stroke="#000" stroke-width="1"/>
    <path id="패스_10044" data-name="패스 10044" d="M-13453-5325h1080" transform="translate(-4148.5 13453) rotate(90)" fill="none" stroke="#000" stroke-width="1"/>
    <path id="패스_10045" data-name="패스 10045" d="M-13453-5325h1080" transform="translate(-4376.5 13453) rotate(90)" fill="none" stroke="#000" stroke-width="1"/>
    <path id="패스_10046" data-name="패스 10046" d="M-13453-5325h1080" transform="translate(-4604.5 13453) rotate(90)" fill="none" stroke="#000" stroke-width="1"/>
    <path id="패스_10047" data-name="패스 10047" d="M-13453-5325h1080" transform="translate(-4832.5 13453) rotate(90)" fill="none" stroke="#000" stroke-width="1"/>
    <path id="패스_10048" data-name="패스 10048" d="M-13453-5325h1080" transform="translate(-5060.5 13453) rotate(90)" fill="none" stroke="#000" stroke-width="1"/>
    <path id="패스_10049" data-name="패스 10049" d="M-13453-5325h1080" transform="translate(-5288.5 13453) rotate(90)" fill="none" stroke="#000" stroke-width="1"/>
  </g>
  <path id="패스_10050" data-name="패스 10050" d="M0,0V1920" transform="translate(1920 84) rotate(90)" fill="none" stroke="#000" stroke-width="1"/>
  <path id="패스_10051" data-name="패스 10051" d="M0,0V1920" transform="translate(1920 312) rotate(90)" fill="none" stroke="#000" stroke-width="1"/>
  <path id="패스_10052" data-name="패스 10052" d="M-13327-5721v1920" transform="translate(-3801.001 13867) rotate(90)" fill="none" stroke="#000" stroke-width="1"/>
  <path id="패스_10053" data-name="패스 10053" d="M0,0V1920" transform="translate(1920 768) rotate(90)" fill="none" stroke="#000" stroke-width="1"/>
  <path id="패스_10054" data-name="패스 10054" d="M0,0V1920" transform="translate(1920 995.999) rotate(90)" fill="none" stroke="#000" stroke-width="1"/>
</svg>
