<svg xmlns="http://www.w3.org/2000/svg" width="827.931" height="456" viewBox="0 0 827.931 456">
  <g id="그룹_11594" data-name="그룹 11594" transform="translate(-47.943 -1198)">
    <g id="그룹_11593" data-name="그룹 11593" transform="translate(-2124.465 1727.154)">
      <g id="그룹_10714" data-name="그룹 10714" transform="translate(2164.465 -529.154)">
        <path id="패스_15964" data-name="패스 15964" d="M52.883,187.246c19.27,0,33.374,4.717,43.768,14.709s16.535,25.628,16.535,46.089a104.021,104.021,0,0,1-3.891,28.438,52.073,52.073,0,0,1-10.7,20.593c-5.121,5.8-12.263,10.055-19.452,12.748a69.585,69.585,0,0,1-26.261,4.9h-42.8V187.246Zm.973,112.772a64.608,64.608,0,0,0,6.808,0,44.905,44.905,0,0,0,9.726-1.961,36.545,36.545,0,0,0,8.754-4.9,33.907,33.907,0,0,0,8.754-8.826A48.237,48.237,0,0,0,93.733,270.6c1.577-5.532,1.945-12.742,1.945-20.593a87.988,87.988,0,0,0-1.945-20.593A36.212,36.212,0,0,0,86.925,214.7,31.312,31.312,0,0,0,74.281,204.9a49.932,49.932,0,0,0-19.452-3.922H26.622v99.043Z" transform="translate(-1.528 -18.579)"/>
        <path id="패스_15965" data-name="패스 15965" d="M137.347,225.155a65.576,65.576,0,0,1,11.671-21.574,54.084,54.084,0,0,1,18.48-14.709c7.473-3.685,16.331-4.9,26.261-4.9s18.788,1.214,26.261,4.9a54.13,54.13,0,0,1,18.48,14.709,65.718,65.718,0,0,1,11.671,21.574,84.882,84.882,0,0,1,0,50.012A65.677,65.677,0,0,1,238.5,296.74a53.4,53.4,0,0,1-18.48,14.709,61.546,61.546,0,0,1-52.522,0,53.366,53.366,0,0,1-18.48-14.709,65.575,65.575,0,0,1-11.671-21.574,84.881,84.881,0,0,1,0-50.012Zm15.562,44.128a51.227,51.227,0,0,0,7.781,16.671c3.527,5.018,8.272,9.843,13.617,12.748,5.488,3.033,11.86,3.922,19.452,3.922s13.964-.89,19.452-3.922c5.345-2.906,10.089-7.73,13.617-12.748a51.29,51.29,0,0,0,7.781-16.671,75.761,75.761,0,0,0,0-38.244,51.281,51.281,0,0,0-7.781-16.671A41.1,41.1,0,0,0,174.307,202.6a39.236,39.236,0,0,0-13.617,11.767,51.227,51.227,0,0,0-7.781,16.671,75.76,75.76,0,0,0,0,38.244" transform="translate(-15.04 -18.243)"/>
        <rect id="사각형_4177" data-name="사각형 4177" width="14" height="128" transform="translate(281 169)"/>
        <path id="패스_15966" data-name="패스 15966" d="M352.52,200.975V187.246H452.7v13.729H410.877V314.727H394.342V200.975Z" transform="translate(-40.335 -18.579)"/>
        <path id="패스_15967" data-name="패스 15967" d="M10.088,131.249V-.154H43.157L61.637,47.9c.914,2.445,1.087,6.03,1.945,8.826s2.06,5.109,2.918,7.845,1.26,5.284,1.945,7.845,1.371,4.767,1.945,6.864c-.692-9.2-1.2-17.4-1.945-25.5s-.968-15.354-.973-20.593V-.154h33.069v131.4H67.473L49.965,83.2C46.295,73.184,43.5,64.127,41.212,55.741c.686,9.2.63,17.588.973,24.516s.97,12.409.973,17.651v33.341Z" transform="translate(-1.528 0.154)"/>
        <rect id="사각형_4178" data-name="사각형 4178" width="35" height="131" transform="translate(112 0)"/>
        <path id="패스_15968" data-name="패스 15968" d="M273.915,131.249h-36.96l-24.316-60.8c.231,2.332.8,4.654.973,6.864s0,4.533,0,6.864v47.07H178.6V-.154h35.014V44.954c0,1.982.173,3.964,0,5.884s-.745,3.9-.973,5.884l21.4-56.876h35.987l-27.233,63.74Z" transform="translate(-20.383 0.154)"/>
        <path id="패스_15969" data-name="패스 15969" d="M290.826,131.249V-.154h64.193v31.38H324.868V49.857H352.1v30.4H324.868V99.869h30.151v31.38Z" transform="translate(-33.428 0.154)"/>
        <path id="패스_15970" data-name="패스 15970" d="M506.2,112.617c-28.008,12.056-72.16,26.017-90.454-3.922-10.2-16.617-3.4-42.1,11.671-65.7C437,27.9,449.135,13.673,461.463-.154c-6.84,11.287-26.234,48.761-.973,67.663,9.836,7.22,27.081,8.648,48.631,2.942L765.894.826Z" transform="translate(-47.7 0.154)"/>
        <path id="패스_19860" data-name="패스 19860" d="M23.829-68.107H7.943v-52.559H23.829ZM39.715-52.221H55.77V0H39.715Zm31.772-68.445H87.373v52.559H71.487ZM23.829-52.221V-68.107H39.715v15.886Zm31.941,0V-68.107H71.656v15.886ZM135.2-15.886H119.314V-31.772H135.2ZM182.858,0H135.2V-15.886h47.658ZM119.314-31.772H103.259V-88.894h16.055Zm63.544,15.886h16.055V-31.772H182.858Zm16.055-15.886H214.8V-88.894H198.913ZM182.858-104.78h16.055v15.886H182.858ZM135.2-120.666h47.658v15.886H135.2Zm0,15.886H119.314v15.886H135.2ZM310.284-15.886V0H246.571V-15.886Zm-79.6-104.78h15.886v104.78H230.685Zm79.6,0H326.17v104.78H310.284Zm111.54,15.886H437.71v36.673H421.824Zm0,36.673v15.886H437.71V0H421.824V-36.335H405.938V-52.221H358.111V0H342.056V-120.666h79.768v15.886H358.111v36.673ZM453.6-15.886V-31.772h15.886v15.886Zm79.6,0v-37.18H549.25v37.18Zm0-73.008V-104.78H549.25v15.886ZM453.6-68.952V-104.78h15.886v35.828Zm15.886,15.886V-68.952H533.2v15.886Zm0-51.714v-15.886H533.2v15.886Zm0,104.78V-15.886H533.2V0Zm111.54-104.78H564.967v88.894h16.055V-52.728h47.827V-68.614H581.022ZM644.735,0H581.022V-15.886h63.713Zm0-104.78H581.022v-15.886h63.713ZM740.22-15.886V0H676.507V-15.886Zm-79.768-104.78h16.055v104.78H660.452Zm175.422,0v15.886H771.992v36.673h48v15.886h-48V0H755.937V-120.666Z" transform="translate(0 456)"/>
      </g>
    </g>
  </g>
</svg>
