<svg xmlns="http://www.w3.org/2000/svg" width="901.416" height="484" viewBox="0 0 901.416 484">
  <g id="그룹_11689" data-name="그룹 11689" transform="translate(21828.352 6620)">
    <g id="그룹_11688" data-name="그룹 11688">
      <g id="그룹_11687" data-name="그룹 11687">
        <path id="패스_15964" data-name="패스 15964" d="M55.783,187.246c20.576,0,35.635,4.961,46.734,15.471s17.655,26.956,17.655,48.476a107.882,107.882,0,0,1-4.154,29.911,54.489,54.489,0,0,1-11.424,21.66c-5.468,6.1-13.094,10.576-20.77,13.408a75.29,75.29,0,0,1-28.04,5.157H10.088V187.246Zm1.039,118.612a70.041,70.041,0,0,0,7.27,0A48.59,48.59,0,0,0,74.476,303.8a39.189,39.189,0,0,0,9.347-5.157,35.933,35.933,0,0,0,9.347-9.283,50.334,50.334,0,0,0,6.231-14.44c1.684-5.818,2.077-13.4,2.077-21.66A91.209,91.209,0,0,0,99.4,231.6a37.832,37.832,0,0,0-7.27-15.471,33.371,33.371,0,0,0-13.5-10.314,54.01,54.01,0,0,0-20.77-4.126H27.743V305.858Z" transform="translate(-21837.949 -6629.844)"/>
        <path id="패스_15965" data-name="패스 15965" d="M137.6,227.288A68.658,68.658,0,0,1,150.065,204.6,57.611,57.611,0,0,1,169.8,189.126c7.98-3.876,17.438-5.156,28.04-5.157s20.061,1.277,28.04,5.157A57.66,57.66,0,0,1,245.609,204.6a68.805,68.805,0,0,1,12.462,22.691,88,88,0,0,1,0,52.6,68.762,68.762,0,0,1-12.462,22.691,56.887,56.887,0,0,1-19.732,15.471,66.62,66.62,0,0,1-56.08,0,56.847,56.847,0,0,1-19.732-15.471A68.658,68.658,0,0,1,137.6,279.89a88,88,0,0,1,0-52.6ZM154.219,273.7a53.519,53.519,0,0,0,8.308,17.534c3.766,5.278,8.832,10.353,14.539,13.408,5.86,3.191,12.663,4.126,20.77,4.126s14.911-.936,20.77-4.126c5.707-3.056,10.773-8.131,14.539-13.408a53.585,53.585,0,0,0,8.308-17.534,78.531,78.531,0,0,0,0-40.225,53.576,53.576,0,0,0-8.308-17.534,41.738,41.738,0,0,0-14.539-12.377,44.406,44.406,0,0,0-41.541,0,41.721,41.721,0,0,0-14.539,12.377,53.519,53.519,0,0,0-8.308,17.534,78.531,78.531,0,0,0,0,40.225" transform="translate(-21844.008 -6629.661)"/>
        <rect id="사각형_4177" data-name="사각형 4177" width="16" height="134" transform="translate(-21538 -6442)"/>
        <path id="패스_15966" data-name="패스 15966" d="M352.52,201.686v-14.44H459.487v14.44H414.831V321.329H397.176V201.686Z" transform="translate(-21856.184 -6629.844)"/>
      </g>
      <g id="그룹_11686" data-name="그룹 11686">
        <path id="패스_15967" data-name="패스 15967" d="M10.088,138.055V-.154H45.4L65.13,50.385c.975,2.572,1.161,6.342,2.077,9.283s2.2,5.374,3.116,8.251,1.345,5.558,2.077,8.251,1.464,5.014,2.077,7.22c-.739-9.675-1.282-18.3-2.077-26.817s-1.034-16.149-1.039-21.66V-.154h35.31V138.055H71.361L52.667,87.516c-3.92-10.534-6.9-20.059-9.347-28.879.732,9.678.673,18.5,1.039,25.785s1.036,13.052,1.039,18.565v35.068Z" transform="translate(-21837.949 -6619.846)"/>
        <rect id="사각형_4178" data-name="사각형 4178" width="37" height="139" transform="translate(-21718 -6620)"/>
        <path id="패스_15968" data-name="패스 15968" d="M280.373,138.055H240.909L214.946,74.107c.246,2.452.857,4.9,1.039,7.22s0,4.768,0,7.22v49.508H178.6V-.154h37.387V47.291c0,2.085.185,4.17,0,6.188s-.8,4.1-1.039,6.188L237.793-.154h38.425L247.14,66.887Z" transform="translate(-21846.664 -6619.846)"/>
        <path id="패스_15969" data-name="패스 15969" d="M290.826,138.055V-.154h68.542V32.851H327.174v19.6h29.079V84.421H327.174V105.05h32.194v33.005Z" transform="translate(-21852.988 -6619.846)"/>
        <path id="패스_15970" data-name="패스 15970" d="M512.662,118.458c-29.906,12.68-77.049,27.364-96.583-4.126-10.891-17.478-3.627-44.283,12.462-69.1C438.771,29.351,451.726,14.39,464.89-.154c-7.3,11.872-28.012,51.286-1.039,71.167,10.5,7.594,28.916,9.1,51.926,3.094L789.947.877Z" transform="translate(-21860.092 -6619.846)"/>
      </g>
    </g>
    <path id="패스_20090" data-name="패스 20090" d="M25.944-74.152H8.648v-57.224h17.3Zm17.3,17.3H60.72V0H43.24Zm34.592-74.52h17.3v57.224h-17.3ZM25.944-56.856v-17.3h17.3v17.3Zm34.776,0v-17.3h17.3v17.3ZM147.2-17.3H129.9v-17.3h17.3ZM199.088,0H147.2V-17.3h51.888ZM129.9-34.592h-17.48V-96.784H129.9Zm69.184,17.3h17.48v-17.3h-17.48Zm17.48-17.3h17.3V-96.784h-17.3Zm-17.48-79.488h17.48v17.3h-17.48Zm-51.888-17.3h51.888v17.3H147.2Zm0,17.3H129.9v17.3h17.3ZM337.824-17.3V0H268.456V-17.3ZM251.16-131.376h17.3V-17.3h-17.3Zm86.664,0h17.3V-17.3h-17.3Zm121.44,17.3h17.3v39.928h-17.3Zm0,39.928v17.3h17.3V0h-17.3V-39.56h-17.3v-17.3H389.9V0h-17.48V-131.376h86.848v17.3H389.9v39.928ZM493.856-17.3v-17.3h17.3v17.3Zm86.664,0v-40.48H598V-17.3Zm0-79.488v-17.3H598v17.3ZM493.856-75.072V-114.08h17.3v39.008Zm17.3,17.3v-17.3H580.52v17.3Zm0-56.3v-17.3H580.52v17.3Zm0,114.08V-17.3H580.52V0Zm121.44-114.08h-17.48V-17.3h17.48V-57.408h52.072V-74.7H632.592ZM701.96,0H632.592V-17.3H701.96Zm0-114.08H632.592v-17.3H701.96ZM805.92-17.3V0H736.552V-17.3Zm-86.848-114.08h17.48V-17.3h-17.48Zm190.992,0v17.3H840.512v39.928h52.256v17.3H840.512V0h-17.48V-131.376Z" transform="translate(-21837 -6136)"/>
  </g>
</svg>
